<svg width="406" height="232" viewBox="0 0 406 232" fill="none" xmlns="http://www.w3.org/2000/svg">
<g clip-path="url(#clip0_774_18021)">
<rect width="405.333" height="232" rx="8" fill="#F5F7FD"/>
<g filter="url(#filter0_d_774_18021)">
<g clip-path="url(#clip1_774_18021)">
<path d="M55 62.92C55 59.0982 58.0982 56 61.92 56H340.249C344.071 56 347.169 59.0982 347.169 62.92V253.525C347.169 257.345 344.073 260.441 340.254 260.441H61.9152C58.096 260.441 55 257.345 55 253.525V62.92Z" fill="url(#paint0_linear_774_18021)"/>
<g filter="url(#filter1_dd_774_18021)">
<rect width="292.169" height="33.2881" transform="translate(55 56)" fill="#012677"/>
<path d="M75.1082 76.644H74.0916V69.2897H78.5623V70.2336H75.1082V72.5986H78.2408V73.5529H75.1082V76.644ZM84.1938 76.0943C83.7028 76.5645 83.07 76.7996 82.2955 76.7996C81.521 76.7996 80.8848 76.5645 80.3869 76.0943C79.8959 75.624 79.6504 74.9706 79.6504 74.1338V69.2897H80.6566V74.1027C80.6566 74.6628 80.7984 75.095 81.0819 75.3993C81.3723 75.7036 81.7769 75.8557 82.2955 75.8557C82.8142 75.8557 83.2153 75.7036 83.4988 75.3993C83.7823 75.095 83.9241 74.6628 83.9241 74.1027V69.2897H84.9406V74.1338C84.9406 74.9706 84.6917 75.624 84.1938 76.0943ZM92.7506 76.644H91.6925L87.7197 70.6485V76.644H86.7032V69.2897H88.062L91.734 74.9325V69.2897H92.7506V76.644ZM95.6311 75.7416H97.1351C97.8543 75.7416 98.449 75.503 98.9193 75.0259C99.3964 74.5487 99.635 73.8676 99.635 72.9824C99.635 72.0903 99.3999 71.4023 98.9297 70.9182C98.4663 70.4341 97.8751 70.1921 97.1559 70.1921H95.6311V75.7416ZM97.1663 76.644H94.6145V69.2897H97.187C98.1759 69.2897 99.0057 69.6181 99.6765 70.2751C100.347 70.9251 100.683 71.8276 100.683 72.9824C100.683 74.1303 100.344 75.0293 99.6661 75.6794C98.9884 76.3225 98.1551 76.644 97.1663 76.644Z" fill="white"/>
<path d="M182.141 75.7416H183.645C184.365 75.7416 184.959 75.503 185.43 75.0259C185.907 74.5487 186.145 73.8676 186.145 72.9824C186.145 72.0903 185.91 71.4023 185.44 70.9182C184.977 70.4341 184.385 70.1921 183.666 70.1921H182.141V75.7416ZM183.677 76.644H181.125V69.2897H183.697C184.686 69.2897 185.516 69.6181 186.187 70.2751C186.858 70.9251 187.193 71.8276 187.193 72.9824C187.193 74.1303 186.854 75.0293 186.176 75.6794C185.499 76.3225 184.665 76.644 183.677 76.644ZM193.42 76.644L192.622 74.5902H189.364L188.586 76.644H187.497L190.422 69.2897H191.595L194.52 76.644H193.42ZM190.983 70.3477L189.727 73.6463H192.258L190.983 70.3477ZM199.985 70.2336H197.526V76.644H196.51V70.2336H194.051V69.2897H199.985V70.2336ZM205.49 76.644H201.02V69.2897H205.49V70.2336H202.036V72.4949H205.169V73.4492H202.036V75.7001H205.49V76.644Z" fill="white"/>
<path d="M257.434 76.7996C256.431 76.7996 255.57 76.4539 254.851 75.7623C254.139 75.0708 253.783 74.1373 253.783 72.9617C253.783 72.1733 253.963 71.4818 254.322 70.8871C254.682 70.2924 255.135 69.8533 255.681 69.5697C256.227 69.2793 256.812 69.1341 257.434 69.1341C258.264 69.1341 258.962 69.345 259.529 69.7668C260.103 70.1817 260.484 70.7488 260.67 71.468L259.727 71.7999C259.588 71.2467 259.322 70.8214 258.928 70.524C258.534 70.2198 258.036 70.0676 257.434 70.0676C256.715 70.0676 256.099 70.3235 255.588 70.8352C255.076 71.34 254.82 72.0489 254.82 72.9617C254.82 73.8745 255.076 74.5868 255.588 75.0985C256.099 75.6102 256.715 75.8661 257.434 75.8661C258.036 75.8661 258.537 75.707 258.938 75.3889C259.339 75.0639 259.619 74.6352 259.778 74.1027L260.681 74.4346C260.48 75.1469 260.093 75.7209 259.519 76.1565C258.952 76.5853 258.257 76.7996 257.434 76.7996ZM266.92 76.644L266.121 74.5902H262.864L262.086 76.644H260.997L263.922 69.2897H265.094L268.019 76.644H266.92ZM264.482 70.3477L263.227 73.6463H265.758L264.482 70.3477ZM270.076 72.7231H271.549C271.985 72.7231 272.33 72.6124 272.586 72.3912C272.842 72.163 272.97 71.8587 272.97 71.4783C272.97 71.0911 272.842 70.7834 272.586 70.5552C272.33 70.32 271.985 70.2025 271.549 70.2025H270.076V72.7231ZM271.736 73.6359H270.076V76.644H269.059V69.2897H271.736C272.406 69.2897 272.953 69.4971 273.374 69.912C273.796 70.327 274.007 70.8456 274.007 71.468C274.007 72.0973 273.796 72.6159 273.374 73.0239C272.953 73.4319 272.406 73.6359 271.736 73.6359ZM276.286 76.644H275.249V69.2897H276.286V76.644ZM283.259 70.2336H280.801V76.644H279.784V70.2336H277.326V69.2897H283.259V70.2336ZM288.709 76.644L287.91 74.5902H284.653L283.875 76.644H282.786L285.711 69.2897H286.883L289.808 76.644H288.709ZM286.271 70.3477L285.016 73.6463H287.547L286.271 70.3477ZM295.34 76.644H290.848V69.2897H291.865V75.6897H295.34V76.644ZM302.931 76.644L301.251 73.6359H300.151V76.644H299.125V69.2897H301.894C302.572 69.2897 303.115 69.5006 303.523 69.9224C303.938 70.3373 304.145 70.856 304.145 71.4783C304.145 72.0108 303.986 72.4672 303.668 72.8476C303.35 73.221 302.914 73.4596 302.361 73.5633L304.114 76.644H302.931ZM300.151 72.7231H301.707C302.122 72.7231 302.458 72.6124 302.714 72.3912C302.969 72.163 303.097 71.8587 303.097 71.4783C303.097 71.0911 302.969 70.7834 302.714 70.5552C302.458 70.32 302.122 70.2025 301.707 70.2025H300.151V72.7231ZM310.589 76.644L309.79 74.5902H306.533L305.755 76.644H304.666L307.591 69.2897H308.764L311.689 76.644H310.589ZM308.152 70.3477L306.896 73.6463H309.427L308.152 70.3477ZM313.766 76.644H312.729V69.2897H313.766V76.644ZM320.325 70.9597L319.412 71.2813C319.363 70.9632 319.208 70.6762 318.945 70.4203C318.682 70.1575 318.319 70.0261 317.856 70.0261C317.448 70.0261 317.109 70.1437 316.839 70.3788C316.57 70.6139 316.435 70.9044 316.435 71.2501C316.435 71.5198 316.514 71.748 316.673 71.9348C316.839 72.1215 317.074 72.2494 317.379 72.3186L318.478 72.5571C319.087 72.6885 319.557 72.9375 319.889 73.304C320.221 73.6636 320.387 74.1027 320.387 74.6213C320.387 75.216 320.152 75.7278 319.681 76.1565C319.211 76.5853 318.599 76.7996 317.845 76.7996C317.023 76.7996 316.376 76.5853 315.906 76.1565C315.442 75.7209 315.173 75.2057 315.097 74.611L316.072 74.2998C316.113 74.7423 316.286 75.1158 316.59 75.42C316.895 75.7243 317.31 75.8764 317.835 75.8764C318.319 75.8764 318.693 75.7658 318.955 75.5445C319.218 75.3232 319.35 75.0432 319.35 74.7043C319.35 74.4277 319.256 74.1891 319.069 73.9886C318.883 73.7811 318.61 73.6394 318.25 73.5633L317.202 73.3351C316.656 73.2175 316.22 72.9859 315.895 72.6401C315.57 72.2943 315.408 71.8552 315.408 71.3228C315.408 70.7419 315.643 70.2336 316.113 69.7979C316.59 69.3554 317.164 69.1341 317.835 69.1341C318.589 69.1341 319.166 69.3173 319.567 69.6838C319.968 70.0503 320.221 70.4756 320.325 70.9597ZM326.256 76.644H321.785V69.2897H326.256V70.2336H322.801V72.4949H325.934V73.4492H322.801V75.7001H326.256V76.644ZM328.829 75.7416H330.333C331.052 75.7416 331.647 75.503 332.117 75.0259C332.594 74.5487 332.832 73.8676 332.832 72.9824C332.832 72.0903 332.597 71.4023 332.127 70.9182C331.664 70.4341 331.073 70.1921 330.353 70.1921H328.829V75.7416ZM330.364 76.644H327.812V69.2897H330.384C331.373 69.2897 332.203 69.6181 332.874 70.2751C333.545 70.9251 333.88 71.8276 333.88 72.9824C333.88 74.1303 333.541 75.0293 332.864 75.6794C332.186 76.3225 331.353 76.644 330.364 76.644Z" fill="white"/>
</g>
<circle cx="85.0381" cy="111.114" r="12.495" stroke="#9CA3AF" stroke-width="0.51"/>
<path d="M89.251 109.702C88.3279 109.702 87.9505 109.049 88.4095 108.249C88.6747 107.785 88.5166 107.193 88.0525 106.928L87.1702 106.423C86.7673 106.183 86.2471 106.326 86.0074 106.729L85.9513 106.826C85.4923 107.626 84.7375 107.626 84.2734 106.826L84.2173 106.729C83.9878 106.326 83.4676 106.183 83.0647 106.423L82.1824 106.928C81.7183 107.193 81.5602 107.79 81.8254 108.254C82.2895 109.049 81.9121 109.702 80.989 109.702C80.4586 109.702 80.02 110.136 80.02 110.671V111.569C80.02 112.099 80.4535 112.538 80.989 112.538C81.9121 112.538 82.2895 113.191 81.8254 113.991C81.5602 114.455 81.7183 115.047 82.1824 115.312L83.0647 115.817C83.4676 116.057 83.9878 115.914 84.2275 115.511L84.2836 115.414C84.7426 114.613 85.4974 114.613 85.9615 115.414L86.0176 115.511C86.2573 115.914 86.7775 116.057 87.1804 115.817L88.0627 115.312C88.5268 115.047 88.6849 114.45 88.4197 113.991C87.9556 113.191 88.333 112.538 89.2561 112.538C89.7865 112.538 90.2251 112.104 90.2251 111.569V110.671C90.22 110.141 89.7865 109.702 89.251 109.702ZM85.12 112.777C84.2071 112.777 83.4625 112.033 83.4625 111.12C83.4625 110.207 84.2071 109.462 85.12 109.462C86.0329 109.462 86.7775 110.207 86.7775 111.12C86.7775 112.033 86.0329 112.777 85.12 112.777Z" fill="#9CA3AF"/>
<path d="M106.888 114.898H105.643V107.544H110.217V108.716H106.888V110.78H109.875V111.932H106.888V114.898ZM116.013 114.338C115.501 114.815 114.844 115.054 114.042 115.054C113.24 115.054 112.583 114.815 112.071 114.338C111.56 113.861 111.304 113.194 111.304 112.336V107.544H112.538V112.264C112.538 112.775 112.669 113.173 112.932 113.456C113.202 113.733 113.572 113.871 114.042 113.871C114.519 113.871 114.889 113.733 115.152 113.456C115.415 113.18 115.546 112.782 115.546 112.264V107.544H116.791V112.336C116.791 113.194 116.532 113.861 116.013 114.338ZM124.639 114.898H123.343L119.712 109.328V114.898H118.467V107.544H120.054L123.394 112.761V107.544H124.639V114.898ZM127.644 113.757H128.951C129.628 113.757 130.185 113.543 130.621 113.114C131.063 112.678 131.285 112.053 131.285 111.237C131.285 110.414 131.067 109.784 130.631 109.349C130.195 108.906 129.639 108.685 128.961 108.685H127.644V113.757ZM128.992 114.898H126.399V107.544H129.003C130.04 107.544 130.894 107.872 131.565 108.529C132.242 109.186 132.581 110.089 132.581 111.237C132.581 112.378 132.242 113.273 131.565 113.923C130.887 114.573 130.029 114.898 128.992 114.898ZM141.489 114.898L140.794 113.052H137.682L136.997 114.898H135.68L138.543 107.544H139.985L142.847 114.898H141.489ZM139.238 108.892L138.117 111.9H140.358L139.238 108.892Z" fill="#9CA3AF"/>
<path d="M179.057 111.569C179.057 111.271 179.126 111.008 179.264 110.78C179.396 110.545 179.579 110.362 179.814 110.23C180.042 110.092 180.305 110.023 180.603 110.023H183.59C183.887 110.023 184.15 110.092 184.378 110.23C184.613 110.362 184.797 110.545 184.928 110.78C185.066 111.008 185.135 111.271 185.135 111.569V111.589C185.135 111.887 185.066 112.153 184.928 112.388C184.797 112.616 184.613 112.799 184.378 112.938C184.15 113.069 183.887 113.135 183.59 113.135H180.603C180.305 113.135 180.042 113.069 179.814 112.938C179.579 112.799 179.396 112.616 179.264 112.388C179.126 112.153 179.057 111.887 179.057 111.589V111.569ZM182.025 111.569C182.025 111.271 182.094 111.008 182.232 110.78C182.364 110.545 182.547 110.362 182.782 110.23C183.01 110.092 183.273 110.023 183.571 110.023H189.421C189.718 110.023 189.981 110.092 190.209 110.23C190.444 110.362 190.628 110.545 190.759 110.78C190.897 111.008 190.966 111.271 190.966 111.569V111.589C190.966 111.887 190.897 112.153 190.759 112.388C190.628 112.616 190.444 112.799 190.209 112.938C189.981 113.069 189.718 113.135 189.421 113.135H183.571C183.273 113.135 183.01 113.069 182.782 112.938C182.547 112.799 182.364 112.616 182.232 112.388C182.094 112.153 182.025 111.887 182.025 111.589V111.569ZM187.85 111.569C187.85 111.271 187.919 111.008 188.057 110.78C188.188 110.545 188.372 110.362 188.607 110.23C188.835 110.092 189.098 110.023 189.395 110.023H195.245C195.543 110.023 195.806 110.092 196.034 110.23C196.269 110.362 196.452 110.545 196.584 110.78C196.722 111.008 196.791 111.271 196.791 111.569V111.589C196.791 111.887 196.722 112.153 196.584 112.388C196.452 112.616 196.269 112.799 196.034 112.938C195.806 113.069 195.543 113.135 195.245 113.135H189.395C189.098 113.135 188.835 113.069 188.607 112.938C188.372 112.799 188.188 112.616 188.057 112.388C187.919 112.153 187.85 111.887 187.85 111.589V111.569ZM193.674 111.569C193.674 111.271 193.743 111.008 193.882 110.78C194.013 110.545 194.196 110.362 194.431 110.23C194.66 110.092 194.922 110.023 195.22 110.023H201.07C201.367 110.023 201.63 110.092 201.858 110.23C202.094 110.362 202.277 110.545 202.408 110.78C202.546 111.008 202.616 111.271 202.616 111.569V111.589C202.616 111.887 202.546 112.153 202.408 112.388C202.277 112.616 202.094 112.799 201.858 112.938C201.63 113.069 201.367 113.135 201.07 113.135H195.22C194.922 113.135 194.66 113.069 194.431 112.938C194.196 112.799 194.013 112.616 193.882 112.388C193.743 112.153 193.674 111.887 193.674 111.589V111.569ZM205.718 111.569C205.718 111.271 205.788 111.008 205.926 110.78C206.057 110.545 206.241 110.362 206.476 110.23C206.704 110.092 206.967 110.023 207.264 110.023H213.114C213.412 110.023 213.674 110.092 213.903 110.23C214.138 110.362 214.321 110.545 214.452 110.78C214.591 111.008 214.66 111.271 214.66 111.569V111.589C214.66 111.887 214.591 112.153 214.452 112.388C214.321 112.616 214.138 112.799 213.903 112.938C213.674 113.069 213.412 113.135 213.114 113.135H207.264C206.967 113.135 206.704 113.069 206.476 112.938C206.241 112.799 206.057 112.616 205.926 112.388C205.788 112.153 205.718 111.887 205.718 111.589V111.569Z" fill="#9CA3AF"/>
<path d="M309.627 118.016H308.216V116.537C306.293 116.274 305.381 114.877 305.256 113.701L306.971 113.286C307.054 114.158 307.635 114.96 308.907 114.96C309.806 114.96 310.332 114.531 310.332 113.923C310.332 113.452 309.986 113.093 309.295 112.941L308.022 112.664C306.528 112.332 305.602 111.392 305.602 110.064C305.602 108.598 306.736 107.519 308.216 107.284V105.804H309.627V107.326C311.217 107.616 311.909 108.722 312.102 109.649L310.401 110.133C310.318 109.649 309.958 108.847 308.824 108.847C307.939 108.847 307.455 109.359 307.455 109.926C307.455 110.354 307.759 110.714 308.409 110.852L309.668 111.143C311.411 111.53 312.199 112.567 312.199 113.812C312.199 115.084 311.286 116.26 309.627 116.523V118.016ZM320.273 107.63L319.748 109.179C319.36 109.013 318.835 108.861 318.268 108.861C316.746 108.861 315.502 109.746 315.294 111.433C315.626 110.935 316.373 110.437 317.424 110.437C319.264 110.437 320.522 111.599 320.522 113.452C320.522 115.292 319.028 116.606 317.051 116.606C315.087 116.606 313.413 115.195 313.413 112.484C313.413 109.262 315.433 107.215 318.392 107.215C319.222 107.215 319.9 107.408 320.273 107.63ZM315.46 113.494C315.46 114.407 316.207 115.001 317.037 115.001C317.908 115.001 318.627 114.421 318.627 113.494C318.627 112.567 317.908 112 317.037 112C316.179 112 315.46 112.567 315.46 113.494ZM332.942 116.398H331.061V109.525L328.24 116.398H326.649L323.828 109.58V116.398H322.002V106.592H324.52L327.465 113.674L330.342 106.592H332.942V116.398Z" fill="#9CA3AF"/>
<circle cx="84.822" cy="196.475" r="12.2832" stroke="#9CA3AF" stroke-width="0.501356"/>
<path d="M84.4627 194.491C83.5498 194.491 82.8052 195.236 82.8052 196.149V196.965C82.8052 197.878 83.5498 198.622 84.4627 198.622C85.3756 198.622 86.1202 197.878 86.1202 196.965V196.149C86.1202 195.236 85.3756 194.491 84.4627 194.491ZM84.9217 197.189C84.9217 197.444 84.7177 197.648 84.4627 197.648C84.2077 197.648 84.0037 197.444 84.0037 197.189V195.93C84.0037 195.68 84.2077 195.471 84.4627 195.471C84.7177 195.471 84.9217 195.675 84.9217 195.93V197.189Z" fill="#9CA3AF"/>
<path d="M84.4628 191.457C81.6476 191.457 79.3628 193.742 79.3628 196.557C79.3628 199.372 81.6476 201.657 84.4628 201.657C87.278 201.657 89.5628 199.372 89.5628 196.557C89.5628 193.742 87.278 191.457 84.4628 191.457ZM86.8853 196.965C86.8853 198.301 85.799 199.387 84.4628 199.387C83.1266 199.387 82.0403 198.301 82.0403 196.965V196.149C82.0403 194.813 83.1266 193.726 84.4628 193.726C85.799 193.726 86.8853 194.813 86.8853 196.149V196.965Z" fill="#9CA3AF"/>
<path d="M106.56 200.475H105.315V193.12H109.889V194.292H106.56V196.357H109.547V197.508H106.56V200.475ZM115.685 199.914C115.173 200.392 114.516 200.63 113.714 200.63C112.912 200.63 112.255 200.392 111.743 199.914C111.231 199.437 110.976 198.77 110.976 197.913V193.12H112.21V197.84C112.21 198.352 112.341 198.749 112.604 199.033C112.874 199.309 113.244 199.448 113.714 199.448C114.191 199.448 114.561 199.309 114.824 199.033C115.087 198.756 115.218 198.359 115.218 197.84V193.12H116.463V197.913C116.463 198.77 116.203 199.437 115.685 199.914ZM124.311 200.475H123.015L119.384 194.904V200.475H118.139V193.12H119.726L123.066 198.338V193.12H124.311V200.475ZM127.316 199.334H128.623C129.3 199.334 129.857 199.119 130.293 198.69C130.735 198.255 130.956 197.629 130.956 196.813C130.956 195.99 130.739 195.361 130.303 194.925C129.867 194.483 129.311 194.261 128.633 194.261H127.316V199.334ZM128.664 200.475H126.071V193.12H128.674C129.712 193.12 130.566 193.449 131.237 194.106C131.914 194.763 132.253 195.665 132.253 196.813C132.253 197.954 131.914 198.85 131.237 199.5C130.559 200.15 129.701 200.475 128.664 200.475ZM139.397 200.63C138.367 200.63 137.489 200.281 136.762 199.583C136.043 198.884 135.684 197.957 135.684 196.803C135.684 195.655 136.05 194.728 136.783 194.023C137.516 193.317 138.384 192.965 139.387 192.965C140.272 192.965 140.998 193.189 141.565 193.639C142.139 194.088 142.516 194.659 142.696 195.35L141.524 195.745C141.406 195.267 141.167 194.88 140.808 194.583C140.448 194.285 139.975 194.137 139.387 194.137C138.73 194.137 138.159 194.372 137.675 194.842C137.198 195.305 136.96 195.959 136.96 196.803C136.96 197.626 137.198 198.272 137.675 198.742C138.152 199.206 138.726 199.437 139.397 199.437C139.971 199.437 140.445 199.282 140.818 198.971C141.192 198.659 141.448 198.276 141.586 197.819L142.727 198.193C142.547 198.877 142.167 199.455 141.586 199.925C141.012 200.395 140.282 200.63 139.397 200.63Z" fill="#9CA3AF"/>
<path d="M202.48 197.145C202.48 196.848 202.549 196.585 202.688 196.357C202.819 196.121 203.002 195.938 203.238 195.807C203.466 195.669 203.728 195.599 204.026 195.599H207.013C207.311 195.599 207.573 195.669 207.802 195.807C208.037 195.938 208.22 196.121 208.351 196.357C208.49 196.585 208.559 196.848 208.559 197.145V197.166C208.559 197.463 208.49 197.729 208.351 197.964C208.22 198.193 208.037 198.376 207.802 198.514C207.573 198.646 207.311 198.711 207.013 198.711H204.026C203.728 198.711 203.466 198.646 203.238 198.514C203.002 198.376 202.819 198.193 202.688 197.964C202.549 197.729 202.48 197.463 202.48 197.166V197.145ZM205.448 197.145C205.448 196.848 205.517 196.585 205.656 196.357C205.787 196.121 205.97 195.938 206.206 195.807C206.434 195.669 206.697 195.599 206.994 195.599H212.844C213.142 195.599 213.404 195.669 213.633 195.807C213.868 195.938 214.051 196.121 214.182 196.357C214.321 196.585 214.39 196.848 214.39 197.145V197.166C214.39 197.463 214.321 197.729 214.182 197.964C214.051 198.193 213.868 198.376 213.633 198.514C213.404 198.646 213.142 198.711 212.844 198.711H206.994C206.697 198.711 206.434 198.646 206.206 198.514C205.97 198.376 205.787 198.193 205.656 197.964C205.517 197.729 205.448 197.463 205.448 197.166V197.145ZM211.273 197.145C211.273 196.848 211.342 196.585 211.48 196.357C211.612 196.121 211.795 195.938 212.03 195.807C212.258 195.669 212.521 195.599 212.818 195.599H218.669C218.966 195.599 219.229 195.669 219.457 195.807C219.692 195.938 219.875 196.121 220.007 196.357C220.145 196.585 220.214 196.848 220.214 197.145V197.166C220.214 197.463 220.145 197.729 220.007 197.964C219.875 198.193 219.692 198.376 219.457 198.514C219.229 198.646 218.966 198.711 218.669 198.711H212.818C212.521 198.711 212.258 198.646 212.03 198.514C211.795 198.376 211.612 198.193 211.48 197.964C211.342 197.729 211.273 197.463 211.273 197.166V197.145ZM217.098 197.145C217.098 196.848 217.167 196.585 217.305 196.357C217.436 196.121 217.62 195.938 217.855 195.807C218.083 195.669 218.346 195.599 218.643 195.599H224.493C224.791 195.599 225.054 195.669 225.282 195.807C225.517 195.938 225.7 196.121 225.832 196.357C225.97 196.585 226.039 196.848 226.039 197.145V197.166C226.039 197.463 225.97 197.729 225.832 197.964C225.7 198.193 225.517 198.376 225.282 198.514C225.054 198.646 224.791 198.711 224.493 198.711H218.643C218.346 198.711 218.083 198.646 217.855 198.514C217.62 198.376 217.436 198.193 217.305 197.964C217.167 197.729 217.098 197.463 217.098 197.166V197.145ZM229.142 197.145C229.142 196.848 229.211 196.585 229.349 196.357C229.481 196.121 229.664 195.938 229.899 195.807C230.127 195.669 230.39 195.599 230.687 195.599H236.538C236.835 195.599 237.098 195.669 237.326 195.807C237.561 195.938 237.744 196.121 237.876 196.357C238.014 196.585 238.083 196.848 238.083 197.145V197.166C238.083 197.463 238.014 197.729 237.876 197.964C237.744 198.193 237.561 198.376 237.326 198.514C237.098 198.646 236.835 198.711 236.538 198.711H230.687C230.39 198.711 230.127 198.646 229.899 198.514C229.664 198.376 229.481 198.193 229.349 197.964C229.211 197.729 229.142 197.463 229.142 197.166V197.145Z" fill="#9CA3AF"/>
<path d="M304.288 203.593H302.877V202.113C300.954 201.85 300.042 200.453 299.917 199.278L301.632 198.863C301.715 199.734 302.296 200.536 303.568 200.536C304.467 200.536 304.993 200.107 304.993 199.499C304.993 199.029 304.647 198.669 303.956 198.517L302.683 198.24C301.19 197.908 300.263 196.968 300.263 195.64C300.263 194.174 301.397 193.095 302.877 192.86V191.38H304.288V192.902C305.878 193.192 306.57 194.299 306.763 195.225L305.062 195.709C304.979 195.225 304.62 194.423 303.485 194.423C302.6 194.423 302.116 194.935 302.116 195.502C302.116 195.931 302.421 196.29 303.071 196.429L304.329 196.719C306.072 197.106 306.86 198.144 306.86 199.388C306.86 200.661 305.947 201.836 304.288 202.099V203.593ZM314.934 193.206L314.409 194.755C314.022 194.589 313.496 194.437 312.929 194.437C311.408 194.437 310.163 195.322 309.955 197.009C310.287 196.512 311.034 196.014 312.085 196.014C313.925 196.014 315.183 197.175 315.183 199.029C315.183 200.868 313.69 202.182 311.712 202.182C309.748 202.182 308.074 200.771 308.074 198.061C308.074 194.838 310.094 192.791 313.053 192.791C313.883 192.791 314.561 192.985 314.934 193.206ZM310.121 199.07C310.121 199.983 310.868 200.578 311.698 200.578C312.569 200.578 313.289 199.997 313.289 199.07C313.289 198.144 312.569 197.577 311.698 197.577C310.841 197.577 310.121 198.144 310.121 199.07ZM327.604 201.975H325.723V195.101L322.901 201.975H321.311L318.489 195.156V201.975H316.664V192.169H319.181L322.127 199.25L325.003 192.169H327.604V201.975Z" fill="#9CA3AF"/>
<g filter="url(#filter2_dd_774_18021)">
<circle cx="84.822" cy="239.263" r="12.2832" stroke="#4B5563" stroke-width="0.501356"/>
</g>
</g>
</g>
<g filter="url(#filter3_d_774_18021)">
<rect width="363.721" height="52.7288" transform="translate(20.1436 129.475)" fill="white"/>
<circle cx="57.269" cy="155.839" r="15.2914" stroke="#4B5563" stroke-width="0.624137"/>
<path d="M59.7541 159.6C58.6875 159.6 57.7034 159.098 57.0621 158.216C56.9098 158.006 56.9542 157.708 57.1637 157.549C57.3732 157.39 57.6716 157.441 57.8304 157.651C58.2938 158.279 58.9922 158.641 59.7541 158.641C61.081 158.641 62.1667 157.562 62.1667 156.228C62.1667 154.895 61.0874 153.816 59.7541 153.816C58.8525 153.816 58.0018 154.298 57.5383 155.067L55.8558 157.867C55.2209 158.927 54.0591 159.581 52.8274 159.581C50.9735 159.581 49.4624 158.07 49.4624 156.216C49.4624 154.362 50.9735 152.851 52.8274 152.851C53.894 152.851 54.8781 153.352 55.5193 154.235C55.6717 154.444 55.6273 154.743 55.4177 154.902C55.2019 155.06 54.9098 155.009 54.7511 154.8C54.294 154.184 53.5956 153.822 52.8337 153.822C51.5068 153.822 50.4211 154.902 50.4211 156.235C50.4211 157.568 51.5004 158.647 52.8337 158.647C53.7353 158.647 54.586 158.165 55.0495 157.397L56.732 154.597C57.3669 153.537 58.5287 152.883 59.7604 152.883C61.6143 152.883 63.1254 154.394 63.1254 156.248C63.1254 158.101 61.608 159.6 59.7541 159.6Z" fill="#4B5563"/>
<path d="M52.7947 157.504C53.496 157.504 54.0645 156.935 54.0645 156.234C54.0645 155.533 53.496 154.964 52.7947 154.964C52.0934 154.964 51.5249 155.533 51.5249 156.234C51.5249 156.935 52.0934 157.504 52.7947 157.504Z" fill="#4B5563"/>
<path d="M59.7791 157.504C60.4804 157.504 61.0489 156.935 61.0489 156.234C61.0489 155.533 60.4804 154.964 59.7791 154.964C59.0778 154.964 58.5093 155.533 58.5093 156.234C58.5093 156.935 59.0778 157.504 59.7791 157.504Z" fill="#4B5563"/>
<path d="M84.5257 160.339H82.9761V151.184H88.6708V152.643H84.5257V155.212H88.2447V156.646H84.5257V160.339ZM95.8855 159.642C95.2485 160.236 94.4307 160.533 93.432 160.533C92.4334 160.533 91.6156 160.236 90.9785 159.642C90.3415 159.048 90.023 158.217 90.023 157.149V151.184H91.5596V157.059C91.5596 157.696 91.7232 158.191 92.0503 158.544C92.3861 158.888 92.8466 159.061 93.432 159.061C94.026 159.061 94.4866 158.888 94.8137 158.544C95.1409 158.2 95.3044 157.705 95.3044 157.059V151.184H96.854V157.149C96.854 158.217 96.5312 159.048 95.8855 159.642ZM106.624 160.339H105.01L100.491 153.405V160.339H98.941V151.184H100.917L105.075 157.679V151.184H106.624V160.339ZM110.365 158.919H111.992C112.835 158.919 113.528 158.652 114.071 158.118C114.622 157.576 114.897 156.796 114.897 155.781C114.897 154.756 114.626 153.973 114.084 153.43C113.541 152.879 112.848 152.604 112.005 152.604H110.365V158.919ZM112.043 160.339H108.815V151.184H112.056C113.348 151.184 114.411 151.592 115.246 152.41C116.089 153.228 116.511 154.352 116.511 155.781C116.511 157.201 116.089 158.316 115.246 159.125C114.402 159.934 113.335 160.339 112.043 160.339ZM121.337 151.184H124.488C125.349 151.184 126.029 151.412 126.528 151.868C127.028 152.324 127.277 152.918 127.277 153.65C127.277 154.123 127.153 154.537 126.903 154.89C126.653 155.234 126.326 155.479 125.921 155.626C126.412 155.755 126.808 156.017 127.11 156.413C127.411 156.809 127.561 157.274 127.561 157.808C127.561 158.548 127.299 159.155 126.774 159.629C126.249 160.102 125.564 160.339 124.721 160.339H121.337V151.184ZM122.874 155.057H124.282C124.729 155.057 125.082 154.941 125.34 154.709C125.599 154.476 125.728 154.166 125.728 153.779C125.728 153.383 125.594 153.073 125.327 152.849C125.069 152.617 124.708 152.501 124.243 152.501H122.874V155.057ZM122.874 159.022H124.449C124.914 159.022 125.284 158.906 125.56 158.673C125.844 158.432 125.986 158.109 125.986 157.705C125.986 157.3 125.853 156.977 125.586 156.736C125.327 156.487 124.966 156.362 124.501 156.362H122.874V159.022Z" fill="#1F2A37"/>
<path d="M202.15 157.194C202.15 156.824 202.236 156.497 202.408 156.212C202.571 155.92 202.8 155.692 203.092 155.528C203.376 155.356 203.704 155.27 204.074 155.27H207.793C208.163 155.27 208.49 155.356 208.774 155.528C209.067 155.692 209.295 155.92 209.459 156.212C209.631 156.497 209.717 156.824 209.717 157.194V157.22C209.717 157.59 209.631 157.921 209.459 158.214C209.295 158.498 209.067 158.726 208.774 158.898C208.49 159.062 208.163 159.144 207.793 159.144H204.074C203.704 159.144 203.376 159.062 203.092 158.898C202.8 158.726 202.571 158.498 202.408 158.214C202.236 157.921 202.15 157.59 202.15 157.22V157.194ZM205.845 157.194C205.845 156.824 205.931 156.497 206.103 156.212C206.266 155.92 206.495 155.692 206.787 155.528C207.071 155.356 207.398 155.27 207.769 155.27H215.052C215.422 155.27 215.749 155.356 216.033 155.528C216.326 155.692 216.554 155.92 216.717 156.212C216.89 156.497 216.976 156.824 216.976 157.194V157.22C216.976 157.59 216.89 157.921 216.717 158.214C216.554 158.498 216.326 158.726 216.033 158.898C215.749 159.062 215.422 159.144 215.052 159.144H207.769C207.398 159.144 207.071 159.062 206.787 158.898C206.495 158.726 206.266 158.498 206.103 158.214C205.931 157.921 205.845 157.59 205.845 157.22V157.194ZM213.096 157.194C213.096 156.824 213.182 156.497 213.354 156.212C213.517 155.92 213.746 155.692 214.038 155.528C214.322 155.356 214.649 155.27 215.02 155.27H222.303C222.673 155.27 223 155.356 223.284 155.528C223.577 155.692 223.805 155.92 223.968 156.212C224.141 156.497 224.227 156.824 224.227 157.194V157.22C224.227 157.59 224.141 157.921 223.968 158.214C223.805 158.498 223.577 158.726 223.284 158.898C223 159.062 222.673 159.144 222.303 159.144H215.02C214.649 159.144 214.322 159.062 214.038 158.898C213.746 158.726 213.517 158.498 213.354 158.214C213.182 157.921 213.096 157.59 213.096 157.22V157.194ZM220.347 157.194C220.347 156.824 220.433 156.497 220.605 156.212C220.768 155.92 220.997 155.692 221.289 155.528C221.573 155.356 221.901 155.27 222.271 155.27H229.554C229.924 155.27 230.251 155.356 230.535 155.528C230.828 155.692 231.056 155.92 231.22 156.212C231.392 156.497 231.478 156.824 231.478 157.194V157.22C231.478 157.59 231.392 157.921 231.22 158.214C231.056 158.498 230.828 158.726 230.535 158.898C230.251 159.062 229.924 159.144 229.554 159.144H222.271C221.901 159.144 221.573 159.062 221.289 158.898C220.997 158.726 220.768 158.498 220.605 158.214C220.433 157.921 220.347 157.59 220.347 157.22V157.194ZM235.341 157.194C235.341 156.824 235.427 156.497 235.599 156.212C235.762 155.92 235.991 155.692 236.283 155.528C236.567 155.356 236.894 155.27 237.265 155.27H244.548C244.918 155.27 245.245 155.356 245.529 155.528C245.822 155.692 246.05 155.92 246.213 156.212C246.386 156.497 246.472 156.824 246.472 157.194V157.22C246.472 157.59 246.386 157.921 246.213 158.214C246.05 158.498 245.822 158.726 245.529 158.898C245.245 159.062 244.918 159.144 244.548 159.144H237.265C236.894 159.144 236.567 159.062 236.283 158.898C235.991 158.726 235.762 158.498 235.599 158.214C235.427 157.921 235.341 157.59 235.341 157.22V157.194Z" fill="#1F2A37"/>
<path d="M328.675 163.853H326.919V162.011C324.526 161.684 323.389 159.945 323.234 158.482L325.369 157.965C325.472 159.05 326.196 160.048 327.78 160.048C328.899 160.048 329.553 159.515 329.553 158.757C329.553 158.172 329.123 157.724 328.262 157.535L326.678 157.19C324.818 156.777 323.665 155.606 323.665 153.953C323.665 152.128 325.076 150.785 326.919 150.493V148.65H328.675V150.544C330.655 150.906 331.516 152.283 331.757 153.437L329.639 154.039C329.536 153.437 329.088 152.438 327.676 152.438C326.574 152.438 325.972 153.075 325.972 153.781C325.972 154.315 326.351 154.763 327.16 154.935L328.727 155.296C330.896 155.778 331.877 157.07 331.877 158.619C331.877 160.203 330.741 161.667 328.675 161.994V163.853ZM341.929 150.923L341.275 152.851C340.793 152.645 340.138 152.455 339.432 152.455C337.539 152.455 335.989 153.557 335.731 155.658C336.144 155.038 337.074 154.418 338.382 154.418C340.672 154.418 342.239 155.864 342.239 158.172C342.239 160.462 340.379 162.097 337.917 162.097C335.472 162.097 333.389 160.341 333.389 156.966C333.389 152.955 335.903 150.407 339.587 150.407C340.62 150.407 341.464 150.648 341.929 150.923ZM335.937 158.223C335.937 159.36 336.867 160.1 337.9 160.1C338.985 160.1 339.88 159.377 339.88 158.223C339.88 157.07 338.985 156.364 337.9 156.364C336.833 156.364 335.937 157.07 335.937 158.223ZM357.701 161.839H355.359V153.282L351.847 161.839H349.867L346.354 153.351V161.839H344.082V149.632H347.215L350.883 158.447L354.464 149.632H357.701V161.839Z" fill="#1F2A37"/>
</g>
</g>
<defs>
<filter id="filter0_d_774_18021" x="45" y="56" width="302.169" height="204.441" filterUnits="userSpaceOnUse" color-interpolation-filters="sRGB">
<feFlood flood-opacity="0" result="BackgroundImageFix"/>
<feColorMatrix in="SourceAlpha" type="matrix" values="0 0 0 0 0 0 0 0 0 0 0 0 0 0 0 0 0 0 127 0" result="hardAlpha"/>
<feOffset dx="-10"/>
<feComposite in2="hardAlpha" operator="out"/>
<feColorMatrix type="matrix" values="0 0 0 0 0.25098 0 0 0 0 0.482353 0 0 0 0 1 0 0 0 0.1 0"/>
<feBlend mode="normal" in2="BackgroundImageFix" result="effect1_dropShadow_774_18021"/>
<feBlend mode="normal" in="SourceGraphic" in2="effect1_dropShadow_774_18021" result="shape"/>
</filter>
<filter id="filter1_dd_774_18021" x="52.4068" y="54.2712" width="297.356" height="38.4746" filterUnits="userSpaceOnUse" color-interpolation-filters="sRGB">
<feFlood flood-opacity="0" result="BackgroundImageFix"/>
<feColorMatrix in="SourceAlpha" type="matrix" values="0 0 0 0 0 0 0 0 0 0 0 0 0 0 0 0 0 0 127 0" result="hardAlpha"/>
<feMorphology radius="0.864407" operator="erode" in="SourceAlpha" result="effect1_dropShadow_774_18021"/>
<feOffset dy="0.864407"/>
<feGaussianBlur stdDeviation="0.864407"/>
<feColorMatrix type="matrix" values="0 0 0 0 0 0 0 0 0 0 0 0 0 0 0 0 0 0 0.1 0"/>
<feBlend mode="normal" in2="BackgroundImageFix" result="effect1_dropShadow_774_18021"/>
<feColorMatrix in="SourceAlpha" type="matrix" values="0 0 0 0 0 0 0 0 0 0 0 0 0 0 0 0 0 0 127 0" result="hardAlpha"/>
<feOffset dy="0.864407"/>
<feGaussianBlur stdDeviation="1.29661"/>
<feColorMatrix type="matrix" values="0 0 0 0 0 0 0 0 0 0 0 0 0 0 0 0 0 0 0.1 0"/>
<feBlend mode="normal" in2="effect1_dropShadow_774_18021" result="effect2_dropShadow_774_18021"/>
<feBlend mode="normal" in="SourceGraphic" in2="effect2_dropShadow_774_18021" result="shape"/>
</filter>
<filter id="filter2_dd_774_18021" x="52.4068" y="216.356" width="296.492" height="47.5424" filterUnits="userSpaceOnUse" color-interpolation-filters="sRGB">
<feFlood flood-opacity="0" result="BackgroundImageFix"/>
<feColorMatrix in="SourceAlpha" type="matrix" values="0 0 0 0 0 0 0 0 0 0 0 0 0 0 0 0 0 0 127 0" result="hardAlpha"/>
<feMorphology radius="0.864407" operator="erode" in="SourceAlpha" result="effect1_dropShadow_774_18021"/>
<feOffset dy="0.864407"/>
<feGaussianBlur stdDeviation="0.864407"/>
<feColorMatrix type="matrix" values="0 0 0 0 0 0 0 0 0 0 0 0 0 0 0 0 0 0 0.1 0"/>
<feBlend mode="normal" in2="BackgroundImageFix" result="effect1_dropShadow_774_18021"/>
<feColorMatrix in="SourceAlpha" type="matrix" values="0 0 0 0 0 0 0 0 0 0 0 0 0 0 0 0 0 0 127 0" result="hardAlpha"/>
<feOffset dy="0.864407"/>
<feGaussianBlur stdDeviation="1.29661"/>
<feColorMatrix type="matrix" values="0 0 0 0 0 0 0 0 0 0 0 0 0 0 0 0 0 0 0.1 0"/>
<feBlend mode="normal" in2="effect1_dropShadow_774_18021" result="effect2_dropShadow_774_18021"/>
<feBlend mode="normal" in="SourceGraphic" in2="effect2_dropShadow_774_18021" result="shape"/>
</filter>
<filter id="filter3_d_774_18021" x="13.7946" y="129.475" width="376.419" height="71.0777" filterUnits="userSpaceOnUse" color-interpolation-filters="sRGB">
<feFlood flood-opacity="0" result="BackgroundImageFix"/>
<feColorMatrix in="SourceAlpha" type="matrix" values="0 0 0 0 0 0 0 0 0 0 0 0 0 0 0 0 0 0 127 0" result="hardAlpha"/>
<feMorphology radius="1.0761" operator="erode" in="SourceAlpha" result="effect1_dropShadow_774_18021"/>
<feOffset dy="12"/>
<feGaussianBlur stdDeviation="3.71254"/>
<feColorMatrix type="matrix" values="0 0 0 0 0 0 0 0 0 0 0 0 0 0 0 0 0 0 0.05 0"/>
<feBlend mode="normal" in2="BackgroundImageFix" result="effect1_dropShadow_774_18021"/>
<feBlend mode="normal" in="SourceGraphic" in2="effect1_dropShadow_774_18021" result="shape"/>
</filter>
<linearGradient id="paint0_linear_774_18021" x1="201.085" y1="56" x2="201" y2="232.5" gradientUnits="userSpaceOnUse">
<stop stop-color="#EEF3FD"/>
<stop offset="1" stop-color="white"/>
</linearGradient>
<clipPath id="clip0_774_18021">
<rect width="405.333" height="232" fill="white"/>
</clipPath>
<clipPath id="clip1_774_18021">
<path d="M55 62.92C55 59.0982 58.0982 56 61.92 56H340.249C344.071 56 347.169 59.0982 347.169 62.92V253.525C347.169 257.345 344.073 260.441 340.254 260.441H61.9152C58.096 260.441 55 257.345 55 253.525V62.92Z" fill="white"/>
</clipPath>
</defs>
</svg>
