<svg width="629" height="541" viewBox="0 0 629 541" fill="none" xmlns="http://www.w3.org/2000/svg">
<g clip-path="url(#clip0_774_18726)">
<rect width="629" height="541" rx="16" fill="#F4F7FE"/>
<g filter="url(#filter0_d_774_18726)">
<g clip-path="url(#clip1_774_18726)">
<path d="M104 73C104 67.4772 108.477 63 114 63H649.028V478.396H114C108.477 478.396 104 473.919 104 468.396V73Z" fill="url(#paint0_linear_774_18726)"/>
<rect x="582" y="111.701" width="89" height="28" rx="8" fill="#012677"/>
<path d="M596.824 129.881C594.448 129.881 592.468 128.165 592.468 125.453C592.468 122.741 594.52 121.013 596.8 121.013C599.152 121.013 600.364 122.453 600.7 123.833L599.14 124.325C598.936 123.509 598.276 122.609 596.8 122.609C595.528 122.609 594.184 123.521 594.184 125.453C594.184 127.265 595.456 128.261 596.824 128.261C598.276 128.261 598.984 127.313 599.212 126.521L600.76 126.989C600.436 128.297 599.212 129.881 596.824 129.881ZM605.511 123.773V125.381C605.331 125.345 605.175 125.333 605.031 125.333C604.215 125.333 603.507 125.729 603.507 127.001V129.701H601.911V123.797H603.459V124.673C603.819 123.893 604.635 123.749 605.139 123.749C605.271 123.749 605.391 123.761 605.511 123.773ZM607.739 126.077H610.379C610.355 125.489 609.971 124.913 609.059 124.913C608.231 124.913 607.775 125.537 607.739 126.077ZM610.535 127.613L611.867 128.009C611.567 129.029 610.631 129.881 609.179 129.881C607.559 129.881 606.131 128.717 606.131 126.725C606.131 124.841 607.523 123.617 609.035 123.617C610.859 123.617 611.951 124.781 611.951 126.677C611.951 126.905 611.927 127.145 611.927 127.169H607.703C607.739 127.949 608.399 128.513 609.191 128.513C609.935 128.513 610.343 128.141 610.535 127.613ZM612.847 128.093C612.847 127.037 613.627 126.449 614.611 126.305L616.063 126.089C616.399 126.041 616.507 125.873 616.507 125.669C616.507 125.249 616.183 124.901 615.511 124.901C614.815 124.901 614.431 125.345 614.383 125.861L612.967 125.561C613.063 124.637 613.915 123.617 615.499 123.617C617.371 123.617 618.067 124.673 618.067 125.861V128.765C618.067 129.077 618.103 129.497 618.139 129.701H616.675C616.639 129.545 616.615 129.221 616.615 128.993C616.315 129.461 615.751 129.869 614.875 129.869C613.615 129.869 612.847 129.017 612.847 128.093ZM615.211 128.681C615.883 128.681 616.507 128.357 616.507 127.313V127.049L615.175 127.253C614.767 127.313 614.443 127.541 614.443 127.997C614.443 128.345 614.695 128.681 615.211 128.681ZM621.609 122.033V123.797H622.797V125.213H621.609V127.685C621.609 128.201 621.849 128.369 622.305 128.369C622.497 128.369 622.713 128.345 622.797 128.321V129.641C622.653 129.701 622.365 129.785 621.897 129.785C620.745 129.785 620.025 129.101 620.025 127.961V125.213H618.957V123.797H619.257C619.881 123.797 620.169 123.389 620.169 122.861V122.033H621.609ZM625.258 126.077H627.898C627.874 125.489 627.49 124.913 626.578 124.913C625.75 124.913 625.294 125.537 625.258 126.077ZM628.054 127.613L629.386 128.009C629.086 129.029 628.15 129.881 626.698 129.881C625.078 129.881 623.65 128.717 623.65 126.725C623.65 124.841 625.042 123.617 626.554 123.617C628.378 123.617 629.47 124.781 629.47 126.677C629.47 126.905 629.446 127.145 629.446 127.169H625.222C625.258 127.949 625.918 128.513 626.71 128.513C627.454 128.513 627.862 128.141 628.054 127.613ZM635.48 129.701H633.812V121.193H639.188V122.765H635.468V124.865H638.78V126.389H635.48V129.701ZM643.825 129.701C643.801 129.581 643.777 129.305 643.777 129.065C643.453 129.617 642.769 129.857 642.145 129.857C640.717 129.857 639.901 128.813 639.901 127.529V123.797H641.497V127.205C641.497 127.865 641.833 128.393 642.577 128.393C643.285 128.393 643.693 127.913 643.693 127.229V123.797H645.289V128.633C645.289 129.089 645.325 129.497 645.349 129.701H643.825ZM648.589 126.305V129.701H646.993V123.797H648.541V124.529C648.901 123.917 649.609 123.641 650.245 123.641C651.709 123.641 652.381 124.685 652.381 125.981V129.701H650.785V126.257C650.785 125.597 650.461 125.081 649.693 125.081C648.997 125.081 648.589 125.621 648.589 126.305ZM659.628 121.013V128.633C659.628 129.029 659.652 129.461 659.676 129.701H658.152C658.128 129.581 658.092 129.293 658.092 129.017C657.828 129.485 657.228 129.845 656.436 129.845C654.756 129.845 653.556 128.525 653.556 126.737C653.556 125.009 654.72 123.653 656.388 123.653C657.408 123.653 657.888 124.073 658.056 124.385V121.013H659.628ZM655.164 126.737C655.164 127.793 655.788 128.417 656.628 128.417C657.444 128.417 658.08 127.793 658.08 126.725C658.08 125.669 657.444 125.081 656.628 125.081C655.812 125.081 655.164 125.681 655.164 126.737Z" fill="white"/>
</g>
<rect x="127.009" y="112.203" width="209.092" height="27.648" rx="13.824" stroke="#D8D8D8"/>
<path d="M150.606 122.625L149.374 123.059C149.308 122.63 149.098 122.242 148.744 121.897C148.389 121.542 147.899 121.365 147.274 121.365C146.723 121.365 146.266 121.524 145.902 121.841C145.538 122.158 145.356 122.55 145.356 123.017C145.356 123.381 145.463 123.689 145.678 123.941C145.902 124.193 146.219 124.366 146.63 124.459L148.114 124.781C148.935 124.958 149.57 125.294 150.018 125.789C150.466 126.274 150.69 126.867 150.69 127.567C150.69 128.37 150.372 129.06 149.738 129.639C149.103 130.218 148.277 130.507 147.26 130.507C146.149 130.507 145.276 130.218 144.642 129.639C144.016 129.051 143.652 128.356 143.55 127.553L144.866 127.133C144.922 127.73 145.155 128.234 145.566 128.645C145.976 129.056 146.536 129.261 147.246 129.261C147.899 129.261 148.403 129.112 148.758 128.813C149.112 128.514 149.29 128.136 149.29 127.679C149.29 127.306 149.164 126.984 148.912 126.713C148.66 126.433 148.291 126.242 147.806 126.139L146.392 125.831C145.654 125.672 145.066 125.36 144.628 124.893C144.189 124.426 143.97 123.834 143.97 123.115C143.97 122.331 144.287 121.645 144.922 121.057C145.566 120.46 146.34 120.161 147.246 120.161C148.263 120.161 149.042 120.408 149.584 120.903C150.125 121.398 150.466 121.972 150.606 122.625ZM153.154 126.237H156.836C156.817 125.733 156.649 125.322 156.332 125.005C156.014 124.678 155.566 124.515 154.988 124.515C154.465 124.515 154.036 124.688 153.7 125.033C153.364 125.369 153.182 125.77 153.154 126.237ZM157.032 127.987L158.166 128.379C157.97 129.004 157.606 129.518 157.074 129.919C156.542 130.311 155.898 130.507 155.142 130.507C154.199 130.507 153.396 130.185 152.734 129.541C152.08 128.888 151.754 128.01 151.754 126.909C151.754 125.882 152.071 125.033 152.706 124.361C153.34 123.689 154.096 123.353 154.974 123.353C155.991 123.353 156.784 123.675 157.354 124.319C157.923 124.954 158.208 125.808 158.208 126.881C158.208 127.049 158.198 127.189 158.18 127.301H153.112C153.121 127.898 153.317 128.388 153.7 128.771C154.092 129.154 154.572 129.345 155.142 129.345C156.103 129.345 156.733 128.892 157.032 127.987ZM159.468 128.491C159.468 127.912 159.654 127.45 160.028 127.105C160.401 126.75 160.896 126.531 161.512 126.447L163.332 126.181C163.677 126.134 163.85 125.966 163.85 125.677C163.85 125.322 163.728 125.033 163.486 124.809C163.243 124.585 162.879 124.473 162.394 124.473C161.946 124.473 161.591 124.599 161.33 124.851C161.068 125.094 160.914 125.42 160.868 125.831L159.608 125.537C159.673 124.893 159.967 124.37 160.49 123.969C161.012 123.558 161.638 123.353 162.366 123.353C163.318 123.353 164.022 123.586 164.48 124.053C164.937 124.51 165.166 125.098 165.166 125.817V129.191C165.166 129.592 165.194 129.961 165.25 130.297H163.962C163.915 130.017 163.892 129.714 163.892 129.387C163.705 129.686 163.43 129.947 163.066 130.171C162.711 130.395 162.263 130.507 161.722 130.507C161.059 130.507 160.518 130.311 160.098 129.919C159.678 129.518 159.468 129.042 159.468 128.491ZM161.904 129.401C162.492 129.401 162.963 129.242 163.318 128.925C163.672 128.608 163.85 128.104 163.85 127.413V127.105L161.792 127.413C161.493 127.46 161.255 127.567 161.078 127.735C160.9 127.903 160.812 128.132 160.812 128.421C160.812 128.682 160.91 128.911 161.106 129.107C161.311 129.303 161.577 129.401 161.904 129.401ZM170.954 123.493V124.893C170.758 124.865 170.566 124.851 170.38 124.851C169.148 124.851 168.532 125.542 168.532 126.923V130.297H167.216V123.563H168.504V124.739C168.914 123.88 169.586 123.451 170.52 123.451C170.669 123.451 170.814 123.465 170.954 123.493ZM175.116 124.571C174.547 124.571 174.061 124.776 173.66 125.187C173.268 125.598 173.072 126.176 173.072 126.923C173.072 127.66 173.268 128.239 173.66 128.659C174.061 129.079 174.551 129.289 175.13 129.289C175.69 129.289 176.115 129.149 176.404 128.869C176.703 128.589 176.903 128.267 177.006 127.903L178.168 128.407C177.981 128.967 177.627 129.457 177.104 129.877C176.591 130.297 175.933 130.507 175.13 130.507C174.15 130.507 173.338 130.166 172.694 129.485C172.05 128.804 171.728 127.95 171.728 126.923C171.728 125.878 172.05 125.024 172.694 124.361C173.338 123.689 174.145 123.353 175.116 123.353C175.937 123.353 176.6 123.563 177.104 123.983C177.617 124.403 177.953 124.907 178.112 125.495L176.922 125.999C176.819 125.607 176.623 125.271 176.334 124.991C176.045 124.711 175.639 124.571 175.116 124.571ZM181.028 126.335V130.297H179.712V120.161H181.028V124.347C181.476 123.694 182.157 123.367 183.072 123.367C183.846 123.367 184.439 123.614 184.85 124.109C185.27 124.604 185.48 125.243 185.48 126.027V130.297H184.164V126.251C184.164 125.122 183.641 124.557 182.596 124.557C182.11 124.557 181.732 124.725 181.462 125.061C181.191 125.388 181.046 125.812 181.028 126.335ZM194.461 124.753H192.837V130.297H191.479V124.753H190.233V123.563H191.479V122.429C191.479 121.71 191.689 121.146 192.109 120.735C192.529 120.324 193.056 120.119 193.691 120.119C194.092 120.119 194.354 120.166 194.475 120.259V121.435C194.335 121.379 194.144 121.351 193.901 121.351C193.612 121.351 193.36 121.44 193.145 121.617C192.94 121.785 192.837 122.079 192.837 122.499V123.563H194.461V124.753ZM196.985 128.701C197.395 129.121 197.895 129.331 198.483 129.331C199.071 129.331 199.565 129.121 199.967 128.701C200.377 128.272 200.583 127.679 200.583 126.923C200.583 126.176 200.377 125.593 199.967 125.173C199.565 124.744 199.071 124.529 198.483 124.529C197.895 124.529 197.395 124.744 196.985 125.173C196.583 125.593 196.383 126.176 196.383 126.923C196.383 127.679 196.583 128.272 196.985 128.701ZM196.005 124.375C196.658 123.694 197.484 123.353 198.483 123.353C199.481 123.353 200.303 123.694 200.947 124.375C201.6 125.047 201.927 125.896 201.927 126.923C201.927 127.959 201.605 128.818 200.961 129.499C200.317 130.171 199.491 130.507 198.483 130.507C197.475 130.507 196.649 130.171 196.005 129.499C195.361 128.818 195.039 127.959 195.039 126.923C195.039 125.896 195.361 125.047 196.005 124.375ZM207.348 123.493V124.893C207.152 124.865 206.961 124.851 206.774 124.851C205.542 124.851 204.926 125.542 204.926 126.923V130.297H203.61V123.563H204.898V124.739C205.309 123.88 205.981 123.451 206.914 123.451C207.064 123.451 207.208 123.465 207.348 123.493ZM215.639 124.753H214.015V130.297H212.657V124.753H211.411V123.563H212.657V122.429C212.657 121.71 212.867 121.146 213.287 120.735C213.707 120.324 214.234 120.119 214.869 120.119C215.27 120.119 215.532 120.166 215.653 120.259V121.435C215.513 121.379 215.322 121.351 215.079 121.351C214.79 121.351 214.538 121.44 214.323 121.617C214.118 121.785 214.015 122.079 214.015 122.499V123.563H215.639V124.753ZM221.419 129.485C221.242 129.821 220.971 130.078 220.607 130.255C220.243 130.423 219.851 130.507 219.431 130.507C218.666 130.507 218.055 130.255 217.597 129.751C217.14 129.238 216.911 128.589 216.911 127.805V123.563H218.227V127.609C218.227 128.113 218.349 128.528 218.591 128.855C218.843 129.182 219.231 129.345 219.753 129.345C220.276 129.345 220.673 129.191 220.943 128.883C221.214 128.566 221.349 128.146 221.349 127.623V123.563H222.665V129.051C222.665 129.49 222.689 129.905 222.735 130.297H221.475C221.438 130.092 221.419 129.821 221.419 129.485ZM226.227 126.405V130.297H224.911V123.563H226.199V124.529C226.647 123.754 227.338 123.367 228.271 123.367C229.046 123.367 229.638 123.614 230.049 124.109C230.469 124.604 230.679 125.243 230.679 126.027V130.297H229.363V126.251C229.363 125.122 228.84 124.557 227.795 124.557C227.3 124.557 226.913 124.734 226.633 125.089C226.362 125.434 226.227 125.873 226.227 126.405ZM233.556 126.909C233.556 127.618 233.729 128.197 234.074 128.645C234.429 129.093 234.914 129.317 235.53 129.317C236.118 129.317 236.59 129.088 236.944 128.631C237.299 128.174 237.476 127.59 237.476 126.881C237.476 126.181 237.304 125.616 236.958 125.187C236.613 124.758 236.142 124.543 235.544 124.543C234.947 124.543 234.466 124.762 234.102 125.201C233.738 125.64 233.556 126.209 233.556 126.909ZM237.49 129.387V129.275C237.313 129.62 237.042 129.91 236.678 130.143C236.324 130.367 235.899 130.479 235.404 130.479C234.443 130.479 233.668 130.143 233.08 129.471C232.502 128.79 232.212 127.936 232.212 126.909C232.212 125.929 232.511 125.098 233.108 124.417C233.706 123.726 234.471 123.381 235.404 123.381C235.955 123.381 236.403 123.493 236.748 123.717C237.094 123.932 237.332 124.198 237.462 124.515V120.161H238.764V129.051C238.764 129.508 238.788 129.924 238.834 130.297H237.56C237.514 130.036 237.49 129.732 237.49 129.387Z" fill="#707070"/>
<line x1="126.508" y1="155.605" x2="652.488" y2="155.605" stroke="#D8D8D8"/>
<circle cx="277.957" cy="206" r="21" fill="#A155B9"/>
<path d="M274.391 210.244C273.7 210.888 272.814 211.21 271.731 211.21C270.648 211.21 269.762 210.888 269.071 210.244C268.38 209.6 268.035 208.699 268.035 207.542V201.074H269.701V207.444C269.701 208.135 269.878 208.671 270.233 209.054C270.597 209.427 271.096 209.614 271.731 209.614C272.375 209.614 272.874 209.427 273.229 209.054C273.584 208.681 273.761 208.144 273.761 207.444V201.074H275.441V207.542C275.441 208.699 275.091 209.6 274.391 210.244ZM279.804 203.398C279.15 204.023 278.824 204.901 278.824 206.03C278.824 207.159 279.15 208.041 279.804 208.676C280.457 209.301 281.236 209.614 282.142 209.614C283.047 209.614 283.826 209.301 284.48 208.676C285.142 208.041 285.474 207.159 285.474 206.03C285.474 204.901 285.142 204.023 284.48 203.398C283.826 202.763 283.047 202.446 282.142 202.446C281.236 202.446 280.457 202.763 279.804 203.398ZM277.816 208.802C277.34 207.999 277.102 207.075 277.102 206.03C277.102 204.985 277.34 204.065 277.816 203.272C278.301 202.469 278.922 201.867 279.678 201.466C280.434 201.065 281.255 200.864 282.142 200.864C283.028 200.864 283.85 201.065 284.606 201.466C285.362 201.867 285.982 202.469 286.468 203.272C286.953 204.065 287.196 204.985 287.196 206.03C287.196 207.075 286.953 207.999 286.468 208.802C285.982 209.605 285.362 210.207 284.606 210.608C283.85 211.009 283.028 211.21 282.142 211.21C281.255 211.21 280.434 211.009 279.678 210.608C278.922 210.207 278.301 209.605 277.816 208.802Z" fill="white"/>
<path d="M313.157 195.148C313.157 194.804 313.237 194.5 313.397 194.236C313.549 193.964 313.761 193.752 314.033 193.6C314.297 193.44 314.601 193.36 314.945 193.36H321.713C322.057 193.36 322.361 193.44 322.625 193.6C322.897 193.752 323.109 193.964 323.261 194.236C323.421 194.5 323.501 194.804 323.501 195.148V195.172C323.501 195.516 323.421 195.824 323.261 196.096C323.109 196.36 322.897 196.572 322.625 196.732C322.361 196.884 322.057 196.96 321.713 196.96H314.945C314.601 196.96 314.297 196.884 314.033 196.732C313.761 196.572 313.549 196.36 313.397 196.096C313.237 195.824 313.157 195.516 313.157 195.172V195.148ZM319.895 195.148C319.895 194.804 319.975 194.5 320.135 194.236C320.287 193.964 320.499 193.752 320.771 193.6C321.035 193.44 321.339 193.36 321.683 193.36H325.139C325.483 193.36 325.787 193.44 326.051 193.6C326.323 193.752 326.535 193.964 326.687 194.236C326.847 194.5 326.927 194.804 326.927 195.148V195.172C326.927 195.516 326.847 195.824 326.687 196.096C326.535 196.36 326.323 196.572 326.051 196.732C325.787 196.884 325.483 196.96 325.139 196.96H321.683C321.339 196.96 321.035 196.884 320.771 196.732C320.499 196.572 320.287 196.36 320.135 196.096C319.975 195.824 319.895 195.516 319.895 195.172V195.148ZM323.329 195.148C323.329 194.804 323.409 194.5 323.569 194.236C323.721 193.964 323.933 193.752 324.205 193.6C324.469 193.44 324.773 193.36 325.117 193.36H328.573C328.917 193.36 329.221 193.44 329.485 193.6C329.757 193.752 329.969 193.964 330.121 194.236C330.281 194.5 330.361 194.804 330.361 195.148V195.172C330.361 195.516 330.281 195.824 330.121 196.096C329.969 196.36 329.757 196.572 329.485 196.732C329.221 196.884 328.917 196.96 328.573 196.96H325.117C324.773 196.96 324.469 196.884 324.205 196.732C323.933 196.572 323.721 196.36 323.569 196.096C323.409 195.824 323.329 195.516 323.329 195.172V195.148ZM333.958 195.148C333.958 194.804 334.038 194.5 334.198 194.236C334.35 193.964 334.562 193.752 334.834 193.6C335.098 193.44 335.402 193.36 335.746 193.36H342.514C342.858 193.36 343.162 193.44 343.426 193.6C343.698 193.752 343.91 193.964 344.062 194.236C344.222 194.5 344.302 194.804 344.302 195.148V195.172C344.302 195.516 344.222 195.824 344.062 196.096C343.91 196.36 343.698 196.572 343.426 196.732C343.162 196.884 342.858 196.96 342.514 196.96H335.746C335.402 196.96 335.098 196.884 334.834 196.732C334.562 196.572 334.35 196.36 334.198 196.096C334.038 195.824 333.958 195.516 333.958 195.172V195.148ZM340.696 195.148C340.696 194.804 340.776 194.5 340.936 194.236C341.088 193.964 341.3 193.752 341.572 193.6C341.836 193.44 342.14 193.36 342.484 193.36H349.252C349.596 193.36 349.9 193.44 350.164 193.6C350.436 193.752 350.648 193.964 350.8 194.236C350.96 194.5 351.04 194.804 351.04 195.148V195.172C351.04 195.516 350.96 195.824 350.8 196.096C350.648 196.36 350.436 196.572 350.164 196.732C349.9 196.884 349.596 196.96 349.252 196.96H342.484C342.14 196.96 341.836 196.884 341.572 196.732C341.3 196.572 341.088 196.36 340.936 196.096C340.776 195.824 340.696 195.516 340.696 195.172V195.148ZM347.434 195.148C347.434 194.804 347.514 194.5 347.674 194.236C347.826 193.964 348.038 193.752 348.31 193.6C348.574 193.44 348.878 193.36 349.222 193.36H355.99C356.334 193.36 356.638 193.44 356.902 193.6C357.174 193.752 357.386 193.964 357.538 194.236C357.698 194.5 357.778 194.804 357.778 195.148V195.172C357.778 195.516 357.698 195.824 357.538 196.096C357.386 196.36 357.174 196.572 356.902 196.732C356.638 196.884 356.334 196.96 355.99 196.96H349.222C348.878 196.96 348.574 196.884 348.31 196.732C348.038 196.572 347.826 196.36 347.674 196.096C347.514 195.824 347.434 195.516 347.434 195.172V195.148ZM354.173 195.148C354.173 194.804 354.253 194.5 354.413 194.236C354.565 193.964 354.777 193.752 355.049 193.6C355.313 193.44 355.617 193.36 355.961 193.36H359.417C359.761 193.36 360.065 193.44 360.329 193.6C360.601 193.752 360.813 193.964 360.965 194.236C361.125 194.5 361.205 194.804 361.205 195.148V195.172C361.205 195.516 361.125 195.824 360.965 196.096C360.813 196.36 360.601 196.572 360.329 196.732C360.065 196.884 359.761 196.96 359.417 196.96H355.961C355.617 196.96 355.313 196.884 355.049 196.732C354.777 196.572 354.565 196.36 354.413 196.096C354.253 195.824 354.173 195.516 354.173 195.172V195.148ZM357.606 195.148C357.606 194.804 357.686 194.5 357.846 194.236C357.998 193.964 358.21 193.752 358.482 193.6C358.746 193.44 359.05 193.36 359.394 193.36H366.162C366.506 193.36 366.81 193.44 367.074 193.6C367.346 193.752 367.558 193.964 367.71 194.236C367.87 194.5 367.95 194.804 367.95 195.148V195.172C367.95 195.516 367.87 195.824 367.71 196.096C367.558 196.36 367.346 196.572 367.074 196.732C366.81 196.884 366.506 196.96 366.162 196.96H359.394C359.05 196.96 358.746 196.884 358.482 196.732C358.21 196.572 357.998 196.36 357.846 196.096C357.686 195.824 357.606 195.516 357.606 195.172V195.148ZM371.54 195.148C371.54 194.804 371.62 194.5 371.78 194.236C371.932 193.964 372.144 193.752 372.416 193.6C372.68 193.44 372.984 193.36 373.328 193.36H380.096C380.44 193.36 380.744 193.44 381.008 193.6C381.28 193.752 381.492 193.964 381.644 194.236C381.804 194.5 381.884 194.804 381.884 195.148V195.172C381.884 195.516 381.804 195.824 381.644 196.096C381.492 196.36 381.28 196.572 381.008 196.732C380.744 196.884 380.44 196.96 380.096 196.96H373.328C372.984 196.96 372.68 196.884 372.416 196.732C372.144 196.572 371.932 196.36 371.78 196.096C371.62 195.824 371.54 195.516 371.54 195.172V195.148ZM378.278 195.148C378.278 194.804 378.358 194.5 378.518 194.236C378.67 193.964 378.882 193.752 379.154 193.6C379.418 193.44 379.722 193.36 380.066 193.36H386.834C387.178 193.36 387.482 193.44 387.746 193.6C388.018 193.752 388.23 193.964 388.382 194.236C388.542 194.5 388.622 194.804 388.622 195.148V195.172C388.622 195.516 388.542 195.824 388.382 196.096C388.23 196.36 388.018 196.572 387.746 196.732C387.482 196.884 387.178 196.96 386.834 196.96H380.066C379.722 196.96 379.418 196.884 379.154 196.732C378.882 196.572 378.67 196.36 378.518 196.096C378.358 195.824 378.278 195.516 378.278 195.172V195.148ZM385.016 195.148C385.016 194.804 385.096 194.5 385.256 194.236C385.408 193.964 385.62 193.752 385.892 193.6C386.156 193.44 386.46 193.36 386.804 193.36H390.26C390.604 193.36 390.908 193.44 391.172 193.6C391.444 193.752 391.656 193.964 391.808 194.236C391.968 194.5 392.048 194.804 392.048 195.148V195.172C392.048 195.516 391.968 195.824 391.808 196.096C391.656 196.36 391.444 196.572 391.172 196.732C390.908 196.884 390.604 196.96 390.26 196.96H386.804C386.46 196.96 386.156 196.884 385.892 196.732C385.62 196.572 385.408 196.36 385.256 196.096C385.096 195.824 385.016 195.516 385.016 195.172V195.148ZM388.45 195.148C388.45 194.804 388.53 194.5 388.69 194.236C388.842 193.964 389.054 193.752 389.326 193.6C389.59 193.44 389.894 193.36 390.238 193.36H393.694C394.038 193.36 394.342 193.44 394.606 193.6C394.878 193.752 395.09 193.964 395.242 194.236C395.402 194.5 395.482 194.804 395.482 195.148V195.172C395.482 195.516 395.402 195.824 395.242 196.096C395.09 196.36 394.878 196.572 394.606 196.732C394.342 196.884 394.038 196.96 393.694 196.96H390.238C389.894 196.96 389.59 196.884 389.326 196.732C389.054 196.572 388.842 196.36 388.69 196.096C388.53 195.824 388.45 195.516 388.45 195.172V195.148ZM391.884 195.148C391.884 194.804 391.964 194.5 392.124 194.236C392.276 193.964 392.488 193.752 392.76 193.6C393.024 193.44 393.328 193.36 393.672 193.36H400.44C400.784 193.36 401.088 193.44 401.352 193.6C401.624 193.752 401.836 193.964 401.988 194.236C402.148 194.5 402.228 194.804 402.228 195.148V195.172C402.228 195.516 402.148 195.824 401.988 196.096C401.836 196.36 401.624 196.572 401.352 196.732C401.088 196.884 400.784 196.96 400.44 196.96H393.672C393.328 196.96 393.024 196.884 392.76 196.732C392.488 196.572 392.276 196.36 392.124 196.096C391.964 195.824 391.884 195.516 391.884 195.172V195.148Z" fill="#C7C7C7"/>
<rect x="314.957" y="211" width="266" height="8" rx="4" fill="#F9F5FF"/>
<rect x="314.957" y="211" width="160" height="8" rx="4" fill="#A155B9"/>
<path d="M593.723 218.011V216.768L598.123 209.818H599.102V211.648H598.48L595.333 216.629V216.709H601.364V218.011H593.723ZM598.55 220V217.634L598.56 217.067V209.818H600.017V220H598.55ZM606.537 220.139C605.824 220.139 605.195 220.017 604.648 219.771C604.104 219.526 603.678 219.188 603.37 218.757C603.062 218.326 602.909 217.836 602.913 217.286C602.909 216.855 602.997 216.459 603.176 216.097C603.358 215.733 603.605 215.429 603.917 215.188C604.228 214.942 604.576 214.786 604.961 214.72V214.661C604.454 214.538 604.048 214.266 603.743 213.845C603.438 213.424 603.287 212.94 603.29 212.393C603.287 211.873 603.425 211.409 603.703 211.001C603.985 210.59 604.371 210.267 604.862 210.032C605.352 209.797 605.911 209.679 606.537 209.679C607.157 209.679 607.71 209.798 608.197 210.037C608.688 210.272 609.074 210.595 609.356 211.006C609.638 211.414 609.78 211.876 609.783 212.393C609.78 212.94 609.624 213.424 609.316 213.845C609.008 214.266 608.607 214.538 608.113 214.661V214.72C608.494 214.786 608.837 214.942 609.142 215.188C609.45 215.429 609.696 215.733 609.878 216.097C610.063 216.459 610.158 216.855 610.161 217.286C610.158 217.836 610.002 218.326 609.694 218.757C609.386 219.188 608.958 219.526 608.411 219.771C607.868 220.017 607.243 220.139 606.537 220.139ZM606.537 218.881C606.958 218.881 607.322 218.812 607.631 218.673C607.939 218.53 608.178 218.333 608.347 218.081C608.516 217.826 608.602 217.527 608.605 217.186C608.602 216.831 608.509 216.518 608.327 216.246C608.148 215.975 607.904 215.761 607.596 215.605C607.288 215.449 606.935 215.371 606.537 215.371C606.136 215.371 605.78 215.449 605.468 215.605C605.156 215.761 604.911 215.975 604.732 216.246C604.553 216.518 604.465 216.831 604.469 217.186C604.465 217.527 604.547 217.826 604.712 218.081C604.881 218.333 605.122 218.53 605.433 218.673C605.745 218.812 606.113 218.881 606.537 218.881ZM606.537 214.143C606.875 214.143 607.175 214.076 607.437 213.94C607.699 213.804 607.904 213.615 608.053 213.373C608.206 213.131 608.284 212.848 608.287 212.523C608.284 212.205 608.207 211.926 608.058 211.688C607.912 211.449 607.709 211.265 607.447 211.136C607.185 211.003 606.882 210.937 606.537 210.937C606.186 210.937 605.877 211.003 605.612 211.136C605.35 211.265 605.147 211.449 605.001 211.688C604.855 211.926 604.784 212.205 604.787 212.523C604.784 212.848 604.857 213.131 605.006 213.373C605.155 213.615 605.36 213.804 605.622 213.94C605.887 214.076 606.192 214.143 606.537 214.143ZM612.641 220.094C612.369 220.094 612.135 219.998 611.94 219.806C611.744 219.611 611.646 219.375 611.646 219.1C611.646 218.828 611.744 218.596 611.94 218.404C612.135 218.209 612.369 218.111 612.641 218.111C612.913 218.111 613.146 218.209 613.342 218.404C613.537 218.596 613.635 218.828 613.635 219.1C613.635 219.282 613.589 219.45 613.496 219.602C613.406 219.751 613.287 219.871 613.138 219.96C612.989 220.05 612.823 220.094 612.641 220.094ZM615.606 220V218.886L619.052 215.317C619.42 214.929 619.723 214.589 619.961 214.298C620.203 214.003 620.384 213.723 620.503 213.457C620.623 213.192 620.682 212.911 620.682 212.612C620.682 212.274 620.603 211.982 620.444 211.737C620.285 211.489 620.068 211.298 619.792 211.165C619.517 211.03 619.207 210.962 618.863 210.962C618.498 210.962 618.18 211.036 617.908 211.185C617.636 211.335 617.428 211.545 617.282 211.817C617.136 212.089 617.063 212.407 617.063 212.771H615.596C615.596 212.152 615.739 211.61 616.024 211.146C616.309 210.682 616.7 210.322 617.197 210.067C617.694 209.808 618.26 209.679 618.893 209.679C619.532 209.679 620.096 209.807 620.583 210.062C621.073 210.314 621.456 210.658 621.731 211.096C622.006 211.53 622.144 212.021 622.144 212.567C622.144 212.945 622.073 213.315 621.93 213.676C621.791 214.037 621.547 214.44 621.199 214.884C620.851 215.325 620.367 215.86 619.748 216.49L617.724 218.608V218.683H622.308V220H615.606ZM629.507 218.091V217.554C629.507 217.17 629.586 216.818 629.746 216.5C629.908 216.179 630.143 215.922 630.452 215.729C630.763 215.534 631.139 215.436 631.58 215.436C632.031 215.436 632.409 215.532 632.714 215.724C633.019 215.917 633.249 216.174 633.405 216.495C633.564 216.817 633.643 217.17 633.643 217.554V218.091C633.643 218.475 633.564 218.828 633.405 219.15C633.246 219.468 633.012 219.725 632.704 219.92C632.399 220.113 632.024 220.209 631.58 220.209C631.133 220.209 630.755 220.113 630.447 219.92C630.138 219.725 629.905 219.468 629.746 219.15C629.586 218.828 629.507 218.475 629.507 218.091ZM630.665 217.554V218.091C630.665 218.376 630.733 218.634 630.869 218.866C631.005 219.098 631.242 219.214 631.58 219.214C631.915 219.214 632.148 219.098 632.281 218.866C632.414 218.634 632.48 218.376 632.48 218.091V217.554C632.48 217.269 632.415 217.01 632.286 216.778C632.16 216.546 631.925 216.43 631.58 216.43C631.249 216.43 631.013 216.546 630.874 216.778C630.735 217.01 630.665 217.269 630.665 217.554ZM624.386 212.264V211.727C624.386 211.343 624.466 210.99 624.625 210.668C624.787 210.347 625.023 210.09 625.331 209.898C625.642 209.705 626.019 209.609 626.459 209.609C626.91 209.609 627.288 209.705 627.593 209.898C627.898 210.09 628.128 210.347 628.284 210.668C628.44 210.99 628.518 211.343 628.518 211.727V212.264C628.518 212.649 628.438 213.002 628.279 213.323C628.123 213.641 627.891 213.898 627.583 214.094C627.278 214.286 626.903 214.382 626.459 214.382C626.009 214.382 625.629 214.286 625.321 214.094C625.016 213.898 624.784 213.641 624.625 213.323C624.466 213.002 624.386 212.649 624.386 212.264ZM625.55 211.727V212.264C625.55 212.549 625.616 212.808 625.748 213.04C625.884 213.272 626.121 213.388 626.459 213.388C626.791 213.388 627.023 213.272 627.155 213.04C627.291 212.808 627.359 212.549 627.359 212.264V211.727C627.359 211.442 627.295 211.184 627.165 210.952C627.036 210.72 626.801 210.604 626.459 210.604C626.128 210.604 625.893 210.72 625.753 210.952C625.617 211.184 625.55 211.442 625.55 211.727ZM624.858 220L631.858 209.818H633.047L626.047 220H624.858Z" fill="#344054"/>
<rect x="256.957" y="252" width="388" height="62" rx="8" fill="white"/>
<circle cx="277.957" cy="283" r="21" fill="#165BAA"/>
<path d="M274.391 287.244C273.7 287.888 272.814 288.21 271.731 288.21C270.648 288.21 269.762 287.888 269.071 287.244C268.38 286.6 268.035 285.699 268.035 284.542V278.074H269.701V284.444C269.701 285.135 269.878 285.671 270.233 286.054C270.597 286.427 271.096 286.614 271.731 286.614C272.375 286.614 272.874 286.427 273.229 286.054C273.584 285.681 273.761 285.144 273.761 284.444V278.074H275.441V284.542C275.441 285.699 275.091 286.6 274.391 287.244ZM279.804 280.398C279.15 281.023 278.824 281.901 278.824 283.03C278.824 284.159 279.15 285.041 279.804 285.676C280.457 286.301 281.236 286.614 282.142 286.614C283.047 286.614 283.826 286.301 284.48 285.676C285.142 285.041 285.474 284.159 285.474 283.03C285.474 281.901 285.142 281.023 284.48 280.398C283.826 279.763 283.047 279.446 282.142 279.446C281.236 279.446 280.457 279.763 279.804 280.398ZM277.816 285.802C277.34 284.999 277.102 284.075 277.102 283.03C277.102 281.985 277.34 281.065 277.816 280.272C278.301 279.469 278.922 278.867 279.678 278.466C280.434 278.065 281.255 277.864 282.142 277.864C283.028 277.864 283.85 278.065 284.606 278.466C285.362 278.867 285.982 279.469 286.468 280.272C286.953 281.065 287.196 281.985 287.196 283.03C287.196 284.075 286.953 284.999 286.468 285.802C285.982 286.605 285.362 287.207 284.606 287.608C283.85 288.009 283.028 288.21 282.142 288.21C281.255 288.21 280.434 288.009 279.678 287.608C278.922 287.207 278.301 286.605 277.816 285.802Z" fill="white"/>
<path d="M313.157 272.148C313.157 271.804 313.237 271.5 313.397 271.236C313.549 270.964 313.761 270.752 314.033 270.6C314.297 270.44 314.601 270.36 314.945 270.36H321.713C322.057 270.36 322.361 270.44 322.625 270.6C322.897 270.752 323.109 270.964 323.261 271.236C323.421 271.5 323.501 271.804 323.501 272.148V272.172C323.501 272.516 323.421 272.824 323.261 273.096C323.109 273.36 322.897 273.572 322.625 273.732C322.361 273.884 322.057 273.96 321.713 273.96H314.945C314.601 273.96 314.297 273.884 314.033 273.732C313.761 273.572 313.549 273.36 313.397 273.096C313.237 272.824 313.157 272.516 313.157 272.172V272.148ZM319.895 272.148C319.895 271.804 319.975 271.5 320.135 271.236C320.287 270.964 320.499 270.752 320.771 270.6C321.035 270.44 321.339 270.36 321.683 270.36H325.139C325.483 270.36 325.787 270.44 326.051 270.6C326.323 270.752 326.535 270.964 326.687 271.236C326.847 271.5 326.927 271.804 326.927 272.148V272.172C326.927 272.516 326.847 272.824 326.687 273.096C326.535 273.36 326.323 273.572 326.051 273.732C325.787 273.884 325.483 273.96 325.139 273.96H321.683C321.339 273.96 321.035 273.884 320.771 273.732C320.499 273.572 320.287 273.36 320.135 273.096C319.975 272.824 319.895 272.516 319.895 272.172V272.148ZM323.329 272.148C323.329 271.804 323.409 271.5 323.569 271.236C323.721 270.964 323.933 270.752 324.205 270.6C324.469 270.44 324.773 270.36 325.117 270.36H328.573C328.917 270.36 329.221 270.44 329.485 270.6C329.757 270.752 329.969 270.964 330.121 271.236C330.281 271.5 330.361 271.804 330.361 272.148V272.172C330.361 272.516 330.281 272.824 330.121 273.096C329.969 273.36 329.757 273.572 329.485 273.732C329.221 273.884 328.917 273.96 328.573 273.96H325.117C324.773 273.96 324.469 273.884 324.205 273.732C323.933 273.572 323.721 273.36 323.569 273.096C323.409 272.824 323.329 272.516 323.329 272.172V272.148ZM333.958 272.148C333.958 271.804 334.038 271.5 334.198 271.236C334.35 270.964 334.562 270.752 334.834 270.6C335.098 270.44 335.402 270.36 335.746 270.36H342.514C342.858 270.36 343.162 270.44 343.426 270.6C343.698 270.752 343.91 270.964 344.062 271.236C344.222 271.5 344.302 271.804 344.302 272.148V272.172C344.302 272.516 344.222 272.824 344.062 273.096C343.91 273.36 343.698 273.572 343.426 273.732C343.162 273.884 342.858 273.96 342.514 273.96H335.746C335.402 273.96 335.098 273.884 334.834 273.732C334.562 273.572 334.35 273.36 334.198 273.096C334.038 272.824 333.958 272.516 333.958 272.172V272.148ZM340.696 272.148C340.696 271.804 340.776 271.5 340.936 271.236C341.088 270.964 341.3 270.752 341.572 270.6C341.836 270.44 342.14 270.36 342.484 270.36H349.252C349.596 270.36 349.9 270.44 350.164 270.6C350.436 270.752 350.648 270.964 350.8 271.236C350.96 271.5 351.04 271.804 351.04 272.148V272.172C351.04 272.516 350.96 272.824 350.8 273.096C350.648 273.36 350.436 273.572 350.164 273.732C349.9 273.884 349.596 273.96 349.252 273.96H342.484C342.14 273.96 341.836 273.884 341.572 273.732C341.3 273.572 341.088 273.36 340.936 273.096C340.776 272.824 340.696 272.516 340.696 272.172V272.148ZM347.434 272.148C347.434 271.804 347.514 271.5 347.674 271.236C347.826 270.964 348.038 270.752 348.31 270.6C348.574 270.44 348.878 270.36 349.222 270.36H355.99C356.334 270.36 356.638 270.44 356.902 270.6C357.174 270.752 357.386 270.964 357.538 271.236C357.698 271.5 357.778 271.804 357.778 272.148V272.172C357.778 272.516 357.698 272.824 357.538 273.096C357.386 273.36 357.174 273.572 356.902 273.732C356.638 273.884 356.334 273.96 355.99 273.96H349.222C348.878 273.96 348.574 273.884 348.31 273.732C348.038 273.572 347.826 273.36 347.674 273.096C347.514 272.824 347.434 272.516 347.434 272.172V272.148ZM354.173 272.148C354.173 271.804 354.253 271.5 354.413 271.236C354.565 270.964 354.777 270.752 355.049 270.6C355.313 270.44 355.617 270.36 355.961 270.36H359.417C359.761 270.36 360.065 270.44 360.329 270.6C360.601 270.752 360.813 270.964 360.965 271.236C361.125 271.5 361.205 271.804 361.205 272.148V272.172C361.205 272.516 361.125 272.824 360.965 273.096C360.813 273.36 360.601 273.572 360.329 273.732C360.065 273.884 359.761 273.96 359.417 273.96H355.961C355.617 273.96 355.313 273.884 355.049 273.732C354.777 273.572 354.565 273.36 354.413 273.096C354.253 272.824 354.173 272.516 354.173 272.172V272.148ZM357.606 272.148C357.606 271.804 357.686 271.5 357.846 271.236C357.998 270.964 358.21 270.752 358.482 270.6C358.746 270.44 359.05 270.36 359.394 270.36H366.162C366.506 270.36 366.81 270.44 367.074 270.6C367.346 270.752 367.558 270.964 367.71 271.236C367.87 271.5 367.95 271.804 367.95 272.148V272.172C367.95 272.516 367.87 272.824 367.71 273.096C367.558 273.36 367.346 273.572 367.074 273.732C366.81 273.884 366.506 273.96 366.162 273.96H359.394C359.05 273.96 358.746 273.884 358.482 273.732C358.21 273.572 357.998 273.36 357.846 273.096C357.686 272.824 357.606 272.516 357.606 272.172V272.148ZM371.54 272.148C371.54 271.804 371.62 271.5 371.78 271.236C371.932 270.964 372.144 270.752 372.416 270.6C372.68 270.44 372.984 270.36 373.328 270.36H380.096C380.44 270.36 380.744 270.44 381.008 270.6C381.28 270.752 381.492 270.964 381.644 271.236C381.804 271.5 381.884 271.804 381.884 272.148V272.172C381.884 272.516 381.804 272.824 381.644 273.096C381.492 273.36 381.28 273.572 381.008 273.732C380.744 273.884 380.44 273.96 380.096 273.96H373.328C372.984 273.96 372.68 273.884 372.416 273.732C372.144 273.572 371.932 273.36 371.78 273.096C371.62 272.824 371.54 272.516 371.54 272.172V272.148ZM378.278 272.148C378.278 271.804 378.358 271.5 378.518 271.236C378.67 270.964 378.882 270.752 379.154 270.6C379.418 270.44 379.722 270.36 380.066 270.36H386.834C387.178 270.36 387.482 270.44 387.746 270.6C388.018 270.752 388.23 270.964 388.382 271.236C388.542 271.5 388.622 271.804 388.622 272.148V272.172C388.622 272.516 388.542 272.824 388.382 273.096C388.23 273.36 388.018 273.572 387.746 273.732C387.482 273.884 387.178 273.96 386.834 273.96H380.066C379.722 273.96 379.418 273.884 379.154 273.732C378.882 273.572 378.67 273.36 378.518 273.096C378.358 272.824 378.278 272.516 378.278 272.172V272.148ZM385.016 272.148C385.016 271.804 385.096 271.5 385.256 271.236C385.408 270.964 385.62 270.752 385.892 270.6C386.156 270.44 386.46 270.36 386.804 270.36H390.26C390.604 270.36 390.908 270.44 391.172 270.6C391.444 270.752 391.656 270.964 391.808 271.236C391.968 271.5 392.048 271.804 392.048 272.148V272.172C392.048 272.516 391.968 272.824 391.808 273.096C391.656 273.36 391.444 273.572 391.172 273.732C390.908 273.884 390.604 273.96 390.26 273.96H386.804C386.46 273.96 386.156 273.884 385.892 273.732C385.62 273.572 385.408 273.36 385.256 273.096C385.096 272.824 385.016 272.516 385.016 272.172V272.148ZM388.45 272.148C388.45 271.804 388.53 271.5 388.69 271.236C388.842 270.964 389.054 270.752 389.326 270.6C389.59 270.44 389.894 270.36 390.238 270.36H393.694C394.038 270.36 394.342 270.44 394.606 270.6C394.878 270.752 395.09 270.964 395.242 271.236C395.402 271.5 395.482 271.804 395.482 272.148V272.172C395.482 272.516 395.402 272.824 395.242 273.096C395.09 273.36 394.878 273.572 394.606 273.732C394.342 273.884 394.038 273.96 393.694 273.96H390.238C389.894 273.96 389.59 273.884 389.326 273.732C389.054 273.572 388.842 273.36 388.69 273.096C388.53 272.824 388.45 272.516 388.45 272.172V272.148ZM391.884 272.148C391.884 271.804 391.964 271.5 392.124 271.236C392.276 270.964 392.488 270.752 392.76 270.6C393.024 270.44 393.328 270.36 393.672 270.36H400.44C400.784 270.36 401.088 270.44 401.352 270.6C401.624 270.752 401.836 270.964 401.988 271.236C402.148 271.5 402.228 271.804 402.228 272.148V272.172C402.228 272.516 402.148 272.824 401.988 273.096C401.836 273.36 401.624 273.572 401.352 273.732C401.088 273.884 400.784 273.96 400.44 273.96H393.672C393.328 273.96 393.024 273.884 392.76 273.732C392.488 273.572 392.276 273.36 392.124 273.096C391.964 272.824 391.884 272.516 391.884 272.172V272.148Z" fill="#C7C7C7"/>
<rect x="314.957" y="288" width="266" height="8" rx="4" fill="#F9F5FF"/>
<rect x="314.957" y="288" width="109" height="8" rx="4" fill="#165BAA"/>
<path d="M597.481 297.139C596.798 297.139 596.189 297.022 595.652 296.786C595.118 296.551 594.695 296.224 594.384 295.807C594.076 295.386 593.91 294.899 593.887 294.345H595.448C595.468 294.647 595.569 294.909 595.751 295.131C595.937 295.349 596.179 295.518 596.477 295.638C596.775 295.757 597.107 295.817 597.471 295.817C597.872 295.817 598.227 295.747 598.535 295.608C598.847 295.469 599.09 295.275 599.266 295.026C599.442 294.774 599.529 294.484 599.529 294.156C599.529 293.815 599.442 293.515 599.266 293.256C599.094 292.995 598.84 292.789 598.505 292.64C598.174 292.491 597.773 292.416 597.302 292.416H596.442V291.163H597.302C597.68 291.163 598.011 291.095 598.297 290.96C598.585 290.824 598.81 290.635 598.973 290.393C599.135 290.147 599.216 289.861 599.216 289.533C599.216 289.218 599.145 288.944 599.002 288.712C598.863 288.477 598.664 288.293 598.406 288.161C598.151 288.028 597.849 287.962 597.501 287.962C597.17 287.962 596.86 288.023 596.571 288.146C596.286 288.265 596.054 288.437 595.875 288.663C595.696 288.885 595.6 289.152 595.587 289.463H594.1C594.117 288.913 594.279 288.429 594.588 288.011C594.899 287.594 595.31 287.267 595.821 287.032C596.331 286.797 596.898 286.679 597.521 286.679C598.174 286.679 598.737 286.807 599.211 287.062C599.689 287.314 600.056 287.65 600.315 288.071C600.577 288.492 600.706 288.953 600.703 289.453C600.706 290.023 600.547 290.507 600.225 290.905C599.907 291.303 599.483 291.569 598.953 291.705V291.785C599.629 291.888 600.153 292.156 600.524 292.59C600.898 293.024 601.084 293.563 601.081 294.206C601.084 294.766 600.928 295.268 600.613 295.712C600.302 296.156 599.876 296.506 599.336 296.761C598.795 297.013 598.177 297.139 597.481 297.139ZM606.4 297.139C605.688 297.139 605.058 297.017 604.511 296.771C603.967 296.526 603.542 296.188 603.233 295.757C602.925 295.326 602.773 294.836 602.776 294.286C602.773 293.855 602.86 293.459 603.039 293.097C603.222 292.733 603.469 292.429 603.78 292.188C604.092 291.942 604.44 291.786 604.824 291.72V291.661C604.317 291.538 603.911 291.266 603.606 290.845C603.301 290.424 603.15 289.94 603.154 289.393C603.15 288.873 603.288 288.409 603.566 288.001C603.848 287.59 604.234 287.267 604.725 287.032C605.215 286.797 605.774 286.679 606.4 286.679C607.02 286.679 607.574 286.798 608.061 287.037C608.551 287.272 608.937 287.595 609.219 288.006C609.501 288.414 609.643 288.876 609.647 289.393C609.643 289.94 609.488 290.424 609.179 290.845C608.871 291.266 608.47 291.538 607.976 291.661V291.72C608.357 291.786 608.7 291.942 609.005 292.188C609.314 292.429 609.559 292.733 609.741 293.097C609.927 293.459 610.021 293.855 610.025 294.286C610.021 294.836 609.865 295.326 609.557 295.757C609.249 296.188 608.821 296.526 608.275 296.771C607.731 297.017 607.106 297.139 606.4 297.139ZM606.4 295.881C606.821 295.881 607.186 295.812 607.494 295.673C607.802 295.53 608.041 295.333 608.21 295.081C608.379 294.826 608.465 294.527 608.468 294.186C608.465 293.831 608.372 293.518 608.19 293.246C608.011 292.975 607.767 292.761 607.459 292.605C607.151 292.449 606.798 292.371 606.4 292.371C605.999 292.371 605.643 292.449 605.331 292.605C605.02 292.761 604.775 292.975 604.596 293.246C604.417 293.518 604.329 293.831 604.332 294.186C604.329 294.527 604.41 294.826 604.576 295.081C604.745 295.333 604.985 295.53 605.297 295.673C605.608 295.812 605.976 295.881 606.4 295.881ZM606.4 291.143C606.738 291.143 607.038 291.076 607.3 290.94C607.562 290.804 607.767 290.615 607.917 290.373C608.069 290.131 608.147 289.848 608.15 289.523C608.147 289.205 608.071 288.926 607.922 288.688C607.776 288.449 607.572 288.265 607.31 288.136C607.048 288.003 606.745 287.937 606.4 287.937C606.049 287.937 605.741 288.003 605.475 288.136C605.214 288.265 605.01 288.449 604.864 288.688C604.718 288.926 604.647 289.205 604.65 289.523C604.647 289.848 604.72 290.131 604.869 290.373C605.018 290.615 605.224 290.804 605.485 290.94C605.751 291.076 606.056 291.143 606.4 291.143ZM612.504 297.094C612.232 297.094 611.999 296.998 611.803 296.806C611.608 296.611 611.51 296.375 611.51 296.1C611.51 295.828 611.608 295.596 611.803 295.404C611.999 295.209 612.232 295.111 612.504 295.111C612.776 295.111 613.01 295.209 613.205 295.404C613.401 295.596 613.498 295.828 613.498 296.1C613.498 296.282 613.452 296.45 613.359 296.602C613.27 296.751 613.15 296.871 613.001 296.96C612.852 297.05 612.686 297.094 612.504 297.094ZM615.47 297V295.886L618.915 292.317C619.283 291.929 619.586 291.589 619.825 291.298C620.067 291.003 620.247 290.723 620.367 290.457C620.486 290.192 620.546 289.911 620.546 289.612C620.546 289.274 620.466 288.982 620.307 288.737C620.148 288.489 619.931 288.298 619.656 288.165C619.381 288.03 619.071 287.962 618.726 287.962C618.361 287.962 618.043 288.036 617.771 288.185C617.5 288.335 617.291 288.545 617.145 288.817C616.999 289.089 616.926 289.407 616.926 289.771H615.46C615.46 289.152 615.602 288.61 615.887 288.146C616.172 287.682 616.563 287.322 617.061 287.067C617.558 286.808 618.123 286.679 618.756 286.679C619.396 286.679 619.959 286.807 620.446 287.062C620.937 287.314 621.32 287.658 621.595 288.096C621.87 288.53 622.007 289.021 622.007 289.567C622.007 289.945 621.936 290.315 621.794 290.676C621.654 291.037 621.411 291.44 621.063 291.884C620.715 292.325 620.231 292.86 619.611 293.49L617.588 295.608V295.683H622.171V297H615.47ZM629.37 295.091V294.554C629.37 294.17 629.45 293.818 629.609 293.5C629.771 293.179 630.007 292.922 630.315 292.729C630.626 292.534 631.003 292.436 631.443 292.436C631.894 292.436 632.272 292.532 632.577 292.724C632.882 292.917 633.112 293.174 633.268 293.495C633.427 293.817 633.507 294.17 633.507 294.554V295.091C633.507 295.475 633.427 295.828 633.268 296.15C633.109 296.468 632.875 296.725 632.567 296.92C632.262 297.113 631.887 297.209 631.443 297.209C630.996 297.209 630.618 297.113 630.31 296.92C630.002 296.725 629.768 296.468 629.609 296.15C629.45 295.828 629.37 295.475 629.37 295.091ZM630.529 294.554V295.091C630.529 295.376 630.597 295.634 630.732 295.866C630.868 296.098 631.105 296.214 631.443 296.214C631.778 296.214 632.012 296.098 632.144 295.866C632.277 295.634 632.343 295.376 632.343 295.091V294.554C632.343 294.269 632.279 294.01 632.149 293.778C632.023 293.546 631.788 293.43 631.443 293.43C631.112 293.43 630.877 293.546 630.737 293.778C630.598 294.01 630.529 294.269 630.529 294.554ZM624.249 289.264V288.727C624.249 288.343 624.329 287.99 624.488 287.668C624.651 287.347 624.886 287.09 625.194 286.898C625.506 286.705 625.882 286.609 626.323 286.609C626.773 286.609 627.151 286.705 627.456 286.898C627.761 287.09 627.991 287.347 628.147 287.668C628.303 287.99 628.381 288.343 628.381 288.727V289.264C628.381 289.649 628.301 290.002 628.142 290.323C627.986 290.641 627.754 290.898 627.446 291.094C627.141 291.286 626.767 291.382 626.323 291.382C625.872 291.382 625.492 291.286 625.184 291.094C624.879 290.898 624.647 290.641 624.488 290.323C624.329 290.002 624.249 289.649 624.249 289.264ZM625.413 288.727V289.264C625.413 289.549 625.479 289.808 625.612 290.04C625.748 290.272 625.985 290.388 626.323 290.388C626.654 290.388 626.886 290.272 627.019 290.04C627.155 289.808 627.222 289.549 627.222 289.264V288.727C627.222 288.442 627.158 288.184 627.029 287.952C626.899 287.72 626.664 287.604 626.323 287.604C625.991 287.604 625.756 287.72 625.617 287.952C625.481 288.184 625.413 288.442 625.413 288.727ZM624.722 297L631.722 286.818H632.91L625.91 297H624.722Z" fill="#344054"/>
<circle cx="277.957" cy="360" r="21" fill="#16BFD6"/>
<path d="M313.157 349.148C313.157 348.804 313.237 348.5 313.397 348.236C313.549 347.964 313.761 347.752 314.033 347.6C314.297 347.44 314.601 347.36 314.945 347.36H321.713C322.057 347.36 322.361 347.44 322.625 347.6C322.897 347.752 323.109 347.964 323.261 348.236C323.421 348.5 323.501 348.804 323.501 349.148V349.172C323.501 349.516 323.421 349.824 323.261 350.096C323.109 350.36 322.897 350.572 322.625 350.732C322.361 350.884 322.057 350.96 321.713 350.96H314.945C314.601 350.96 314.297 350.884 314.033 350.732C313.761 350.572 313.549 350.36 313.397 350.096C313.237 349.824 313.157 349.516 313.157 349.172V349.148ZM319.895 349.148C319.895 348.804 319.975 348.5 320.135 348.236C320.287 347.964 320.499 347.752 320.771 347.6C321.035 347.44 321.339 347.36 321.683 347.36H325.139C325.483 347.36 325.787 347.44 326.051 347.6C326.323 347.752 326.535 347.964 326.687 348.236C326.847 348.5 326.927 348.804 326.927 349.148V349.172C326.927 349.516 326.847 349.824 326.687 350.096C326.535 350.36 326.323 350.572 326.051 350.732C325.787 350.884 325.483 350.96 325.139 350.96H321.683C321.339 350.96 321.035 350.884 320.771 350.732C320.499 350.572 320.287 350.36 320.135 350.096C319.975 349.824 319.895 349.516 319.895 349.172V349.148ZM323.329 349.148C323.329 348.804 323.409 348.5 323.569 348.236C323.721 347.964 323.933 347.752 324.205 347.6C324.469 347.44 324.773 347.36 325.117 347.36H328.573C328.917 347.36 329.221 347.44 329.485 347.6C329.757 347.752 329.969 347.964 330.121 348.236C330.281 348.5 330.361 348.804 330.361 349.148V349.172C330.361 349.516 330.281 349.824 330.121 350.096C329.969 350.36 329.757 350.572 329.485 350.732C329.221 350.884 328.917 350.96 328.573 350.96H325.117C324.773 350.96 324.469 350.884 324.205 350.732C323.933 350.572 323.721 350.36 323.569 350.096C323.409 349.824 323.329 349.516 323.329 349.172V349.148ZM333.958 349.148C333.958 348.804 334.038 348.5 334.198 348.236C334.35 347.964 334.562 347.752 334.834 347.6C335.098 347.44 335.402 347.36 335.746 347.36H342.514C342.858 347.36 343.162 347.44 343.426 347.6C343.698 347.752 343.91 347.964 344.062 348.236C344.222 348.5 344.302 348.804 344.302 349.148V349.172C344.302 349.516 344.222 349.824 344.062 350.096C343.91 350.36 343.698 350.572 343.426 350.732C343.162 350.884 342.858 350.96 342.514 350.96H335.746C335.402 350.96 335.098 350.884 334.834 350.732C334.562 350.572 334.35 350.36 334.198 350.096C334.038 349.824 333.958 349.516 333.958 349.172V349.148ZM340.696 349.148C340.696 348.804 340.776 348.5 340.936 348.236C341.088 347.964 341.3 347.752 341.572 347.6C341.836 347.44 342.14 347.36 342.484 347.36H349.252C349.596 347.36 349.9 347.44 350.164 347.6C350.436 347.752 350.648 347.964 350.8 348.236C350.96 348.5 351.04 348.804 351.04 349.148V349.172C351.04 349.516 350.96 349.824 350.8 350.096C350.648 350.36 350.436 350.572 350.164 350.732C349.9 350.884 349.596 350.96 349.252 350.96H342.484C342.14 350.96 341.836 350.884 341.572 350.732C341.3 350.572 341.088 350.36 340.936 350.096C340.776 349.824 340.696 349.516 340.696 349.172V349.148ZM347.434 349.148C347.434 348.804 347.514 348.5 347.674 348.236C347.826 347.964 348.038 347.752 348.31 347.6C348.574 347.44 348.878 347.36 349.222 347.36H355.99C356.334 347.36 356.638 347.44 356.902 347.6C357.174 347.752 357.386 347.964 357.538 348.236C357.698 348.5 357.778 348.804 357.778 349.148V349.172C357.778 349.516 357.698 349.824 357.538 350.096C357.386 350.36 357.174 350.572 356.902 350.732C356.638 350.884 356.334 350.96 355.99 350.96H349.222C348.878 350.96 348.574 350.884 348.31 350.732C348.038 350.572 347.826 350.36 347.674 350.096C347.514 349.824 347.434 349.516 347.434 349.172V349.148ZM354.173 349.148C354.173 348.804 354.253 348.5 354.413 348.236C354.565 347.964 354.777 347.752 355.049 347.6C355.313 347.44 355.617 347.36 355.961 347.36H359.417C359.761 347.36 360.065 347.44 360.329 347.6C360.601 347.752 360.813 347.964 360.965 348.236C361.125 348.5 361.205 348.804 361.205 349.148V349.172C361.205 349.516 361.125 349.824 360.965 350.096C360.813 350.36 360.601 350.572 360.329 350.732C360.065 350.884 359.761 350.96 359.417 350.96H355.961C355.617 350.96 355.313 350.884 355.049 350.732C354.777 350.572 354.565 350.36 354.413 350.096C354.253 349.824 354.173 349.516 354.173 349.172V349.148ZM357.606 349.148C357.606 348.804 357.686 348.5 357.846 348.236C357.998 347.964 358.21 347.752 358.482 347.6C358.746 347.44 359.05 347.36 359.394 347.36H366.162C366.506 347.36 366.81 347.44 367.074 347.6C367.346 347.752 367.558 347.964 367.71 348.236C367.87 348.5 367.95 348.804 367.95 349.148V349.172C367.95 349.516 367.87 349.824 367.71 350.096C367.558 350.36 367.346 350.572 367.074 350.732C366.81 350.884 366.506 350.96 366.162 350.96H359.394C359.05 350.96 358.746 350.884 358.482 350.732C358.21 350.572 357.998 350.36 357.846 350.096C357.686 349.824 357.606 349.516 357.606 349.172V349.148ZM371.54 349.148C371.54 348.804 371.62 348.5 371.78 348.236C371.932 347.964 372.144 347.752 372.416 347.6C372.68 347.44 372.984 347.36 373.328 347.36H380.096C380.44 347.36 380.744 347.44 381.008 347.6C381.28 347.752 381.492 347.964 381.644 348.236C381.804 348.5 381.884 348.804 381.884 349.148V349.172C381.884 349.516 381.804 349.824 381.644 350.096C381.492 350.36 381.28 350.572 381.008 350.732C380.744 350.884 380.44 350.96 380.096 350.96H373.328C372.984 350.96 372.68 350.884 372.416 350.732C372.144 350.572 371.932 350.36 371.78 350.096C371.62 349.824 371.54 349.516 371.54 349.172V349.148ZM378.278 349.148C378.278 348.804 378.358 348.5 378.518 348.236C378.67 347.964 378.882 347.752 379.154 347.6C379.418 347.44 379.722 347.36 380.066 347.36H386.834C387.178 347.36 387.482 347.44 387.746 347.6C388.018 347.752 388.23 347.964 388.382 348.236C388.542 348.5 388.622 348.804 388.622 349.148V349.172C388.622 349.516 388.542 349.824 388.382 350.096C388.23 350.36 388.018 350.572 387.746 350.732C387.482 350.884 387.178 350.96 386.834 350.96H380.066C379.722 350.96 379.418 350.884 379.154 350.732C378.882 350.572 378.67 350.36 378.518 350.096C378.358 349.824 378.278 349.516 378.278 349.172V349.148ZM385.016 349.148C385.016 348.804 385.096 348.5 385.256 348.236C385.408 347.964 385.62 347.752 385.892 347.6C386.156 347.44 386.46 347.36 386.804 347.36H390.26C390.604 347.36 390.908 347.44 391.172 347.6C391.444 347.752 391.656 347.964 391.808 348.236C391.968 348.5 392.048 348.804 392.048 349.148V349.172C392.048 349.516 391.968 349.824 391.808 350.096C391.656 350.36 391.444 350.572 391.172 350.732C390.908 350.884 390.604 350.96 390.26 350.96H386.804C386.46 350.96 386.156 350.884 385.892 350.732C385.62 350.572 385.408 350.36 385.256 350.096C385.096 349.824 385.016 349.516 385.016 349.172V349.148ZM388.45 349.148C388.45 348.804 388.53 348.5 388.69 348.236C388.842 347.964 389.054 347.752 389.326 347.6C389.59 347.44 389.894 347.36 390.238 347.36H393.694C394.038 347.36 394.342 347.44 394.606 347.6C394.878 347.752 395.09 347.964 395.242 348.236C395.402 348.5 395.482 348.804 395.482 349.148V349.172C395.482 349.516 395.402 349.824 395.242 350.096C395.09 350.36 394.878 350.572 394.606 350.732C394.342 350.884 394.038 350.96 393.694 350.96H390.238C389.894 350.96 389.59 350.884 389.326 350.732C389.054 350.572 388.842 350.36 388.69 350.096C388.53 349.824 388.45 349.516 388.45 349.172V349.148ZM391.884 349.148C391.884 348.804 391.964 348.5 392.124 348.236C392.276 347.964 392.488 347.752 392.76 347.6C393.024 347.44 393.328 347.36 393.672 347.36H400.44C400.784 347.36 401.088 347.44 401.352 347.6C401.624 347.752 401.836 347.964 401.988 348.236C402.148 348.5 402.228 348.804 402.228 349.148V349.172C402.228 349.516 402.148 349.824 401.988 350.096C401.836 350.36 401.624 350.572 401.352 350.732C401.088 350.884 400.784 350.96 400.44 350.96H393.672C393.328 350.96 393.024 350.884 392.76 350.732C392.488 350.572 392.276 350.36 392.124 350.096C391.964 349.824 391.884 349.516 391.884 349.172V349.148Z" fill="#C7C7C7"/>
<rect x="314.957" y="365" width="266" height="8" rx="4" fill="#F9F5FF"/>
<rect x="314.957" y="365" width="87" height="8" rx="4" fill="#16BFD6"/>
<path d="M593.936 374V372.886L597.382 369.317C597.75 368.929 598.053 368.589 598.292 368.298C598.533 368.003 598.714 367.723 598.833 367.457C598.953 367.192 599.012 366.911 599.012 366.612C599.012 366.274 598.933 365.982 598.774 365.737C598.615 365.489 598.398 365.298 598.123 365.165C597.847 365.03 597.538 364.962 597.193 364.962C596.828 364.962 596.51 365.036 596.238 365.185C595.967 365.335 595.758 365.545 595.612 365.817C595.466 366.089 595.393 366.407 595.393 366.771H593.926C593.926 366.152 594.069 365.61 594.354 365.146C594.639 364.682 595.03 364.322 595.527 364.067C596.025 363.808 596.59 363.679 597.223 363.679C597.862 363.679 598.426 363.807 598.913 364.062C599.404 364.314 599.786 364.658 600.061 365.096C600.337 365.53 600.474 366.021 600.474 366.567C600.474 366.945 600.403 367.315 600.26 367.676C600.121 368.037 599.877 368.44 599.529 368.884C599.181 369.325 598.698 369.86 598.078 370.49L596.054 372.608V372.683H600.638V374H593.936ZM605.963 374.139C605.25 374.139 604.62 374.017 604.074 373.771C603.53 373.526 603.104 373.188 602.796 372.757C602.488 372.326 602.335 371.836 602.338 371.286C602.335 370.855 602.423 370.459 602.602 370.097C602.784 369.733 603.031 369.429 603.343 369.188C603.654 368.942 604.002 368.786 604.387 368.72V368.661C603.88 368.538 603.474 368.266 603.169 367.845C602.864 367.424 602.713 366.94 602.716 366.393C602.713 365.873 602.85 365.409 603.129 365.001C603.411 364.59 603.797 364.267 604.287 364.032C604.778 363.797 605.336 363.679 605.963 363.679C606.583 363.679 607.136 363.798 607.623 364.037C608.114 364.272 608.5 364.595 608.782 365.006C609.063 365.414 609.206 365.876 609.209 366.393C609.206 366.94 609.05 367.424 608.742 367.845C608.434 368.266 608.033 368.538 607.539 368.661V368.72C607.92 368.786 608.263 368.942 608.568 369.188C608.876 369.429 609.121 369.733 609.304 370.097C609.489 370.459 609.584 370.855 609.587 371.286C609.584 371.836 609.428 372.326 609.12 372.757C608.811 373.188 608.384 373.526 607.837 373.771C607.293 374.017 606.669 374.139 605.963 374.139ZM605.963 372.881C606.384 372.881 606.748 372.812 607.056 372.673C607.365 372.53 607.603 372.333 607.772 372.081C607.941 371.826 608.028 371.527 608.031 371.186C608.028 370.831 607.935 370.518 607.752 370.246C607.574 369.975 607.33 369.761 607.022 369.605C606.713 369.449 606.36 369.371 605.963 369.371C605.562 369.371 605.205 369.449 604.894 369.605C604.582 369.761 604.337 369.975 604.158 370.246C603.979 370.518 603.891 370.831 603.895 371.186C603.891 371.527 603.972 371.826 604.138 372.081C604.307 372.333 604.547 372.53 604.859 372.673C605.171 372.812 605.538 372.881 605.963 372.881ZM605.963 368.143C606.301 368.143 606.601 368.076 606.863 367.94C607.124 367.804 607.33 367.615 607.479 367.373C607.632 367.131 607.709 366.848 607.713 366.523C607.709 366.205 607.633 365.926 607.484 365.688C607.338 365.449 607.134 365.265 606.873 365.136C606.611 365.003 606.307 364.937 605.963 364.937C605.611 364.937 605.303 365.003 605.038 365.136C604.776 365.265 604.572 365.449 604.426 365.688C604.281 365.926 604.209 366.205 604.213 366.523C604.209 366.848 604.282 367.131 604.431 367.373C604.581 367.615 604.786 367.804 605.048 367.94C605.313 368.076 605.618 368.143 605.963 368.143ZM612.067 374.094C611.795 374.094 611.561 373.998 611.366 373.806C611.17 373.611 611.072 373.375 611.072 373.1C611.072 372.828 611.17 372.596 611.366 372.404C611.561 372.209 611.795 372.111 612.067 372.111C612.338 372.111 612.572 372.209 612.768 372.404C612.963 372.596 613.061 372.828 613.061 373.1C613.061 373.282 613.015 373.45 612.922 373.602C612.832 373.751 612.713 373.871 612.564 373.96C612.415 374.05 612.249 374.094 612.067 374.094ZM615.032 374V372.886L618.477 369.317C618.845 368.929 619.149 368.589 619.387 368.298C619.629 368.003 619.81 367.723 619.929 367.457C620.048 367.192 620.108 366.911 620.108 366.612C620.108 366.274 620.029 365.982 619.869 365.737C619.71 365.489 619.493 365.298 619.218 365.165C618.943 365.03 618.633 364.962 618.289 364.962C617.924 364.962 617.606 365.036 617.334 365.185C617.062 365.335 616.853 365.545 616.708 365.817C616.562 366.089 616.489 366.407 616.489 366.771H615.022C615.022 366.152 615.165 365.61 615.45 365.146C615.735 364.682 616.126 364.322 616.623 364.067C617.12 363.808 617.685 363.679 618.318 363.679C618.958 363.679 619.521 363.807 620.009 364.062C620.499 364.314 620.882 364.658 621.157 365.096C621.432 365.53 621.57 366.021 621.57 366.567C621.57 366.945 621.499 367.315 621.356 367.676C621.217 368.037 620.973 368.44 620.625 368.884C620.277 369.325 619.793 369.86 619.173 370.49L617.15 372.608V372.683H621.734V374H615.032ZM628.933 372.091V371.554C628.933 371.17 629.012 370.818 629.171 370.5C629.334 370.179 629.569 369.922 629.877 369.729C630.189 369.534 630.565 369.436 631.006 369.436C631.457 369.436 631.834 369.532 632.139 369.724C632.444 369.917 632.675 370.174 632.83 370.495C632.99 370.817 633.069 371.17 633.069 371.554V372.091C633.069 372.475 632.99 372.828 632.83 373.15C632.671 373.468 632.438 373.725 632.129 373.92C631.825 374.113 631.45 374.209 631.006 374.209C630.558 374.209 630.181 374.113 629.872 373.92C629.564 373.725 629.33 373.468 629.171 373.15C629.012 372.828 628.933 372.475 628.933 372.091ZM630.091 371.554V372.091C630.091 372.376 630.159 372.634 630.295 372.866C630.431 373.098 630.668 373.214 631.006 373.214C631.341 373.214 631.574 373.098 631.707 372.866C631.839 372.634 631.906 372.376 631.906 372.091V371.554C631.906 371.269 631.841 371.01 631.712 370.778C631.586 370.546 631.351 370.43 631.006 370.43C630.674 370.43 630.439 370.546 630.3 370.778C630.161 371.01 630.091 371.269 630.091 371.554ZM623.812 366.264V365.727C623.812 365.343 623.892 364.99 624.051 364.668C624.213 364.347 624.448 364.09 624.757 363.898C625.068 363.705 625.444 363.609 625.885 363.609C626.336 363.609 626.714 363.705 627.019 363.898C627.324 364.09 627.554 364.347 627.71 364.668C627.865 364.99 627.943 365.343 627.943 365.727V366.264C627.943 366.649 627.864 367.002 627.705 367.323C627.549 367.641 627.317 367.898 627.009 368.094C626.704 368.286 626.329 368.382 625.885 368.382C625.434 368.382 625.055 368.286 624.747 368.094C624.442 367.898 624.21 367.641 624.051 367.323C623.892 367.002 623.812 366.649 623.812 366.264ZM624.975 365.727V366.264C624.975 366.549 625.042 366.808 625.174 367.04C625.31 367.272 625.547 367.388 625.885 367.388C626.217 367.388 626.449 367.272 626.581 367.04C626.717 366.808 626.785 366.549 626.785 366.264V365.727C626.785 365.442 626.72 365.184 626.591 364.952C626.462 364.72 626.227 364.604 625.885 364.604C625.554 364.604 625.318 364.72 625.179 364.952C625.043 365.184 624.975 365.442 624.975 365.727ZM624.284 374L631.284 363.818H632.472L625.472 374H624.284Z" fill="#344054"/>
<circle cx="277.957" cy="427" r="21" fill="#4EBC51"/>
<path d="M274.391 431.244C273.7 431.888 272.814 432.21 271.731 432.21C270.648 432.21 269.762 431.888 269.071 431.244C268.38 430.6 268.035 429.699 268.035 428.542V422.074H269.701V428.444C269.701 429.135 269.878 429.671 270.233 430.054C270.597 430.427 271.096 430.614 271.731 430.614C272.375 430.614 272.874 430.427 273.229 430.054C273.584 429.681 273.761 429.144 273.761 428.444V422.074H275.441V428.542C275.441 429.699 275.091 430.6 274.391 431.244ZM279.804 424.398C279.15 425.023 278.824 425.901 278.824 427.03C278.824 428.159 279.15 429.041 279.804 429.676C280.457 430.301 281.236 430.614 282.142 430.614C283.047 430.614 283.826 430.301 284.48 429.676C285.142 429.041 285.474 428.159 285.474 427.03C285.474 425.901 285.142 425.023 284.48 424.398C283.826 423.763 283.047 423.446 282.142 423.446C281.236 423.446 280.457 423.763 279.804 424.398ZM277.816 429.802C277.34 428.999 277.102 428.075 277.102 427.03C277.102 425.985 277.34 425.065 277.816 424.272C278.301 423.469 278.922 422.867 279.678 422.466C280.434 422.065 281.255 421.864 282.142 421.864C283.028 421.864 283.85 422.065 284.606 422.466C285.362 422.867 285.982 423.469 286.468 424.272C286.953 425.065 287.196 425.985 287.196 427.03C287.196 428.075 286.953 428.999 286.468 429.802C285.982 430.605 285.362 431.207 284.606 431.608C283.85 432.009 283.028 432.21 282.142 432.21C281.255 432.21 280.434 432.009 279.678 431.608C278.922 431.207 278.301 430.605 277.816 429.802Z" fill="white"/>
<path d="M313.157 416.148C313.157 415.804 313.237 415.5 313.397 415.236C313.549 414.964 313.761 414.752 314.033 414.6C314.297 414.44 314.601 414.36 314.945 414.36H321.713C322.057 414.36 322.361 414.44 322.625 414.6C322.897 414.752 323.109 414.964 323.261 415.236C323.421 415.5 323.501 415.804 323.501 416.148V416.172C323.501 416.516 323.421 416.824 323.261 417.096C323.109 417.36 322.897 417.572 322.625 417.732C322.361 417.884 322.057 417.96 321.713 417.96H314.945C314.601 417.96 314.297 417.884 314.033 417.732C313.761 417.572 313.549 417.36 313.397 417.096C313.237 416.824 313.157 416.516 313.157 416.172V416.148ZM319.895 416.148C319.895 415.804 319.975 415.5 320.135 415.236C320.287 414.964 320.499 414.752 320.771 414.6C321.035 414.44 321.339 414.36 321.683 414.36H325.139C325.483 414.36 325.787 414.44 326.051 414.6C326.323 414.752 326.535 414.964 326.687 415.236C326.847 415.5 326.927 415.804 326.927 416.148V416.172C326.927 416.516 326.847 416.824 326.687 417.096C326.535 417.36 326.323 417.572 326.051 417.732C325.787 417.884 325.483 417.96 325.139 417.96H321.683C321.339 417.96 321.035 417.884 320.771 417.732C320.499 417.572 320.287 417.36 320.135 417.096C319.975 416.824 319.895 416.516 319.895 416.172V416.148ZM323.329 416.148C323.329 415.804 323.409 415.5 323.569 415.236C323.721 414.964 323.933 414.752 324.205 414.6C324.469 414.44 324.773 414.36 325.117 414.36H328.573C328.917 414.36 329.221 414.44 329.485 414.6C329.757 414.752 329.969 414.964 330.121 415.236C330.281 415.5 330.361 415.804 330.361 416.148V416.172C330.361 416.516 330.281 416.824 330.121 417.096C329.969 417.36 329.757 417.572 329.485 417.732C329.221 417.884 328.917 417.96 328.573 417.96H325.117C324.773 417.96 324.469 417.884 324.205 417.732C323.933 417.572 323.721 417.36 323.569 417.096C323.409 416.824 323.329 416.516 323.329 416.172V416.148ZM333.958 416.148C333.958 415.804 334.038 415.5 334.198 415.236C334.35 414.964 334.562 414.752 334.834 414.6C335.098 414.44 335.402 414.36 335.746 414.36H342.514C342.858 414.36 343.162 414.44 343.426 414.6C343.698 414.752 343.91 414.964 344.062 415.236C344.222 415.5 344.302 415.804 344.302 416.148V416.172C344.302 416.516 344.222 416.824 344.062 417.096C343.91 417.36 343.698 417.572 343.426 417.732C343.162 417.884 342.858 417.96 342.514 417.96H335.746C335.402 417.96 335.098 417.884 334.834 417.732C334.562 417.572 334.35 417.36 334.198 417.096C334.038 416.824 333.958 416.516 333.958 416.172V416.148ZM340.696 416.148C340.696 415.804 340.776 415.5 340.936 415.236C341.088 414.964 341.3 414.752 341.572 414.6C341.836 414.44 342.14 414.36 342.484 414.36H349.252C349.596 414.36 349.9 414.44 350.164 414.6C350.436 414.752 350.648 414.964 350.8 415.236C350.96 415.5 351.04 415.804 351.04 416.148V416.172C351.04 416.516 350.96 416.824 350.8 417.096C350.648 417.36 350.436 417.572 350.164 417.732C349.9 417.884 349.596 417.96 349.252 417.96H342.484C342.14 417.96 341.836 417.884 341.572 417.732C341.3 417.572 341.088 417.36 340.936 417.096C340.776 416.824 340.696 416.516 340.696 416.172V416.148ZM347.434 416.148C347.434 415.804 347.514 415.5 347.674 415.236C347.826 414.964 348.038 414.752 348.31 414.6C348.574 414.44 348.878 414.36 349.222 414.36H355.99C356.334 414.36 356.638 414.44 356.902 414.6C357.174 414.752 357.386 414.964 357.538 415.236C357.698 415.5 357.778 415.804 357.778 416.148V416.172C357.778 416.516 357.698 416.824 357.538 417.096C357.386 417.36 357.174 417.572 356.902 417.732C356.638 417.884 356.334 417.96 355.99 417.96H349.222C348.878 417.96 348.574 417.884 348.31 417.732C348.038 417.572 347.826 417.36 347.674 417.096C347.514 416.824 347.434 416.516 347.434 416.172V416.148ZM354.173 416.148C354.173 415.804 354.253 415.5 354.413 415.236C354.565 414.964 354.777 414.752 355.049 414.6C355.313 414.44 355.617 414.36 355.961 414.36H359.417C359.761 414.36 360.065 414.44 360.329 414.6C360.601 414.752 360.813 414.964 360.965 415.236C361.125 415.5 361.205 415.804 361.205 416.148V416.172C361.205 416.516 361.125 416.824 360.965 417.096C360.813 417.36 360.601 417.572 360.329 417.732C360.065 417.884 359.761 417.96 359.417 417.96H355.961C355.617 417.96 355.313 417.884 355.049 417.732C354.777 417.572 354.565 417.36 354.413 417.096C354.253 416.824 354.173 416.516 354.173 416.172V416.148ZM357.606 416.148C357.606 415.804 357.686 415.5 357.846 415.236C357.998 414.964 358.21 414.752 358.482 414.6C358.746 414.44 359.05 414.36 359.394 414.36H366.162C366.506 414.36 366.81 414.44 367.074 414.6C367.346 414.752 367.558 414.964 367.71 415.236C367.87 415.5 367.95 415.804 367.95 416.148V416.172C367.95 416.516 367.87 416.824 367.71 417.096C367.558 417.36 367.346 417.572 367.074 417.732C366.81 417.884 366.506 417.96 366.162 417.96H359.394C359.05 417.96 358.746 417.884 358.482 417.732C358.21 417.572 357.998 417.36 357.846 417.096C357.686 416.824 357.606 416.516 357.606 416.172V416.148ZM371.54 416.148C371.54 415.804 371.62 415.5 371.78 415.236C371.932 414.964 372.144 414.752 372.416 414.6C372.68 414.44 372.984 414.36 373.328 414.36H380.096C380.44 414.36 380.744 414.44 381.008 414.6C381.28 414.752 381.492 414.964 381.644 415.236C381.804 415.5 381.884 415.804 381.884 416.148V416.172C381.884 416.516 381.804 416.824 381.644 417.096C381.492 417.36 381.28 417.572 381.008 417.732C380.744 417.884 380.44 417.96 380.096 417.96H373.328C372.984 417.96 372.68 417.884 372.416 417.732C372.144 417.572 371.932 417.36 371.78 417.096C371.62 416.824 371.54 416.516 371.54 416.172V416.148ZM378.278 416.148C378.278 415.804 378.358 415.5 378.518 415.236C378.67 414.964 378.882 414.752 379.154 414.6C379.418 414.44 379.722 414.36 380.066 414.36H386.834C387.178 414.36 387.482 414.44 387.746 414.6C388.018 414.752 388.23 414.964 388.382 415.236C388.542 415.5 388.622 415.804 388.622 416.148V416.172C388.622 416.516 388.542 416.824 388.382 417.096C388.23 417.36 388.018 417.572 387.746 417.732C387.482 417.884 387.178 417.96 386.834 417.96H380.066C379.722 417.96 379.418 417.884 379.154 417.732C378.882 417.572 378.67 417.36 378.518 417.096C378.358 416.824 378.278 416.516 378.278 416.172V416.148ZM385.016 416.148C385.016 415.804 385.096 415.5 385.256 415.236C385.408 414.964 385.62 414.752 385.892 414.6C386.156 414.44 386.46 414.36 386.804 414.36H390.26C390.604 414.36 390.908 414.44 391.172 414.6C391.444 414.752 391.656 414.964 391.808 415.236C391.968 415.5 392.048 415.804 392.048 416.148V416.172C392.048 416.516 391.968 416.824 391.808 417.096C391.656 417.36 391.444 417.572 391.172 417.732C390.908 417.884 390.604 417.96 390.26 417.96H386.804C386.46 417.96 386.156 417.884 385.892 417.732C385.62 417.572 385.408 417.36 385.256 417.096C385.096 416.824 385.016 416.516 385.016 416.172V416.148ZM388.45 416.148C388.45 415.804 388.53 415.5 388.69 415.236C388.842 414.964 389.054 414.752 389.326 414.6C389.59 414.44 389.894 414.36 390.238 414.36H393.694C394.038 414.36 394.342 414.44 394.606 414.6C394.878 414.752 395.09 414.964 395.242 415.236C395.402 415.5 395.482 415.804 395.482 416.148V416.172C395.482 416.516 395.402 416.824 395.242 417.096C395.09 417.36 394.878 417.572 394.606 417.732C394.342 417.884 394.038 417.96 393.694 417.96H390.238C389.894 417.96 389.59 417.884 389.326 417.732C389.054 417.572 388.842 417.36 388.69 417.096C388.53 416.824 388.45 416.516 388.45 416.172V416.148ZM391.884 416.148C391.884 415.804 391.964 415.5 392.124 415.236C392.276 414.964 392.488 414.752 392.76 414.6C393.024 414.44 393.328 414.36 393.672 414.36H400.44C400.784 414.36 401.088 414.44 401.352 414.6C401.624 414.752 401.836 414.964 401.988 415.236C402.148 415.5 402.228 415.804 402.228 416.148V416.172C402.228 416.516 402.148 416.824 401.988 417.096C401.836 417.36 401.624 417.572 401.352 417.732C401.088 417.884 400.784 417.96 400.44 417.96H393.672C393.328 417.96 393.024 417.884 392.76 417.732C392.488 417.572 392.276 417.36 392.124 417.096C391.964 416.824 391.884 416.516 391.884 416.172V416.148Z" fill="#C7C7C7"/>
<rect x="314.957" y="432" width="266" height="8" rx="4" fill="#F9F5FF"/>
<rect x="314.957" y="432" width="65" height="8" rx="4" fill="#4EBC51"/>
<path d="M593.936 441V439.886L597.382 436.317C597.75 435.929 598.053 435.589 598.292 435.298C598.533 435.003 598.714 434.723 598.833 434.457C598.953 434.192 599.012 433.911 599.012 433.612C599.012 433.274 598.933 432.982 598.774 432.737C598.615 432.489 598.398 432.298 598.123 432.165C597.847 432.03 597.538 431.962 597.193 431.962C596.828 431.962 596.51 432.036 596.238 432.185C595.967 432.335 595.758 432.545 595.612 432.817C595.466 433.089 595.393 433.407 595.393 433.771H593.926C593.926 433.152 594.069 432.61 594.354 432.146C594.639 431.682 595.03 431.322 595.527 431.067C596.025 430.808 596.59 430.679 597.223 430.679C597.862 430.679 598.426 430.807 598.913 431.062C599.404 431.314 599.786 431.658 600.061 432.096C600.337 432.53 600.474 433.021 600.474 433.567C600.474 433.945 600.403 434.315 600.26 434.676C600.121 435.037 599.877 435.44 599.529 435.884C599.181 436.325 598.698 436.86 598.078 437.49L596.054 439.608V439.683H600.638V441H593.936ZM605.963 441.139C605.25 441.139 604.62 441.017 604.074 440.771C603.53 440.526 603.104 440.188 602.796 439.757C602.488 439.326 602.335 438.836 602.338 438.286C602.335 437.855 602.423 437.459 602.602 437.097C602.784 436.733 603.031 436.429 603.343 436.188C603.654 435.942 604.002 435.786 604.387 435.72V435.661C603.88 435.538 603.474 435.266 603.169 434.845C602.864 434.424 602.713 433.94 602.716 433.393C602.713 432.873 602.85 432.409 603.129 432.001C603.411 431.59 603.797 431.267 604.287 431.032C604.778 430.797 605.336 430.679 605.963 430.679C606.583 430.679 607.136 430.798 607.623 431.037C608.114 431.272 608.5 431.595 608.782 432.006C609.063 432.414 609.206 432.876 609.209 433.393C609.206 433.94 609.05 434.424 608.742 434.845C608.434 435.266 608.033 435.538 607.539 435.661V435.72C607.92 435.786 608.263 435.942 608.568 436.188C608.876 436.429 609.121 436.733 609.304 437.097C609.489 437.459 609.584 437.855 609.587 438.286C609.584 438.836 609.428 439.326 609.12 439.757C608.811 440.188 608.384 440.526 607.837 440.771C607.293 441.017 606.669 441.139 605.963 441.139ZM605.963 439.881C606.384 439.881 606.748 439.812 607.056 439.673C607.365 439.53 607.603 439.333 607.772 439.081C607.941 438.826 608.028 438.527 608.031 438.186C608.028 437.831 607.935 437.518 607.752 437.246C607.574 436.975 607.33 436.761 607.022 436.605C606.713 436.449 606.36 436.371 605.963 436.371C605.562 436.371 605.205 436.449 604.894 436.605C604.582 436.761 604.337 436.975 604.158 437.246C603.979 437.518 603.891 437.831 603.895 438.186C603.891 438.527 603.972 438.826 604.138 439.081C604.307 439.333 604.547 439.53 604.859 439.673C605.171 439.812 605.538 439.881 605.963 439.881ZM605.963 435.143C606.301 435.143 606.601 435.076 606.863 434.94C607.124 434.804 607.33 434.615 607.479 434.373C607.632 434.131 607.709 433.848 607.713 433.523C607.709 433.205 607.633 432.926 607.484 432.688C607.338 432.449 607.134 432.265 606.873 432.136C606.611 432.003 606.307 431.937 605.963 431.937C605.611 431.937 605.303 432.003 605.038 432.136C604.776 432.265 604.572 432.449 604.426 432.688C604.281 432.926 604.209 433.205 604.213 433.523C604.209 433.848 604.282 434.131 604.431 434.373C604.581 434.615 604.786 434.804 605.048 434.94C605.313 435.076 605.618 435.143 605.963 435.143ZM612.067 441.094C611.795 441.094 611.561 440.998 611.366 440.806C611.17 440.611 611.072 440.375 611.072 440.1C611.072 439.828 611.17 439.596 611.366 439.404C611.561 439.209 611.795 439.111 612.067 439.111C612.338 439.111 612.572 439.209 612.768 439.404C612.963 439.596 613.061 439.828 613.061 440.1C613.061 440.282 613.015 440.45 612.922 440.602C612.832 440.751 612.713 440.871 612.564 440.96C612.415 441.05 612.249 441.094 612.067 441.094ZM615.032 441V439.886L618.477 436.317C618.845 435.929 619.149 435.589 619.387 435.298C619.629 435.003 619.81 434.723 619.929 434.457C620.048 434.192 620.108 433.911 620.108 433.612C620.108 433.274 620.029 432.982 619.869 432.737C619.71 432.489 619.493 432.298 619.218 432.165C618.943 432.03 618.633 431.962 618.289 431.962C617.924 431.962 617.606 432.036 617.334 432.185C617.062 432.335 616.853 432.545 616.708 432.817C616.562 433.089 616.489 433.407 616.489 433.771H615.022C615.022 433.152 615.165 432.61 615.45 432.146C615.735 431.682 616.126 431.322 616.623 431.067C617.12 430.808 617.685 430.679 618.318 430.679C618.958 430.679 619.521 430.807 620.009 431.062C620.499 431.314 620.882 431.658 621.157 432.096C621.432 432.53 621.57 433.021 621.57 433.567C621.57 433.945 621.499 434.315 621.356 434.676C621.217 435.037 620.973 435.44 620.625 435.884C620.277 436.325 619.793 436.86 619.173 437.49L617.15 439.608V439.683H621.734V441H615.032ZM628.933 439.091V438.554C628.933 438.17 629.012 437.818 629.171 437.5C629.334 437.179 629.569 436.922 629.877 436.729C630.189 436.534 630.565 436.436 631.006 436.436C631.457 436.436 631.834 436.532 632.139 436.724C632.444 436.917 632.675 437.174 632.83 437.495C632.99 437.817 633.069 438.17 633.069 438.554V439.091C633.069 439.475 632.99 439.828 632.83 440.15C632.671 440.468 632.438 440.725 632.129 440.92C631.825 441.113 631.45 441.209 631.006 441.209C630.558 441.209 630.181 441.113 629.872 440.92C629.564 440.725 629.33 440.468 629.171 440.15C629.012 439.828 628.933 439.475 628.933 439.091ZM630.091 438.554V439.091C630.091 439.376 630.159 439.634 630.295 439.866C630.431 440.098 630.668 440.214 631.006 440.214C631.341 440.214 631.574 440.098 631.707 439.866C631.839 439.634 631.906 439.376 631.906 439.091V438.554C631.906 438.269 631.841 438.01 631.712 437.778C631.586 437.546 631.351 437.43 631.006 437.43C630.674 437.43 630.439 437.546 630.3 437.778C630.161 438.01 630.091 438.269 630.091 438.554ZM623.812 433.264V432.727C623.812 432.343 623.892 431.99 624.051 431.668C624.213 431.347 624.448 431.09 624.757 430.898C625.068 430.705 625.444 430.609 625.885 430.609C626.336 430.609 626.714 430.705 627.019 430.898C627.324 431.09 627.554 431.347 627.71 431.668C627.865 431.99 627.943 432.343 627.943 432.727V433.264C627.943 433.649 627.864 434.002 627.705 434.323C627.549 434.641 627.317 434.898 627.009 435.094C626.704 435.286 626.329 435.382 625.885 435.382C625.434 435.382 625.055 435.286 624.747 435.094C624.442 434.898 624.21 434.641 624.051 434.323C623.892 434.002 623.812 433.649 623.812 433.264ZM624.975 432.727V433.264C624.975 433.549 625.042 433.808 625.174 434.04C625.31 434.272 625.547 434.388 625.885 434.388C626.217 434.388 626.449 434.272 626.581 434.04C626.717 433.808 626.785 433.549 626.785 433.264V432.727C626.785 432.442 626.72 432.184 626.591 431.952C626.462 431.72 626.227 431.604 625.885 431.604C625.554 431.604 625.318 431.72 625.179 431.952C625.043 432.184 624.975 432.442 624.975 432.727ZM624.284 441L631.284 430.818H632.472L625.472 441H624.284Z" fill="#344054"/>
<rect x="126.25" y="200.297" width="96" height="19" rx="9.5" stroke="#D8D8D8"/>
<path d="M143.23 213.797H142.25V210.647H138.63V213.797H137.65V206.707H138.63V209.737H142.25V206.707H143.23V213.797ZM145.543 210.897H148.173C148.159 210.537 148.039 210.244 147.813 210.017C147.586 209.784 147.266 209.667 146.853 209.667C146.479 209.667 146.173 209.79 145.933 210.037C145.693 210.277 145.563 210.564 145.543 210.897ZM148.313 212.147L149.123 212.427C148.983 212.874 148.723 213.24 148.343 213.527C147.963 213.807 147.503 213.947 146.963 213.947C146.289 213.947 145.716 213.717 145.243 213.257C144.776 212.79 144.543 212.164 144.543 211.377C144.543 210.644 144.769 210.037 145.223 209.557C145.676 209.077 146.216 208.837 146.843 208.837C147.569 208.837 148.136 209.067 148.543 209.527C148.949 209.98 149.153 210.59 149.153 211.357C149.153 211.477 149.146 211.577 149.133 211.657H145.513C145.519 212.084 145.659 212.434 145.933 212.707C146.213 212.98 146.556 213.117 146.963 213.117C147.649 213.117 148.099 212.794 148.313 212.147ZM150.053 212.507C150.053 212.094 150.186 211.764 150.453 211.517C150.719 211.264 151.073 211.107 151.513 211.047L152.813 210.857C153.059 210.824 153.183 210.704 153.183 210.497C153.183 210.244 153.096 210.037 152.923 209.877C152.749 209.717 152.489 209.637 152.143 209.637C151.823 209.637 151.569 209.727 151.383 209.907C151.196 210.08 151.086 210.314 151.053 210.607L150.153 210.397C150.199 209.937 150.409 209.564 150.783 209.277C151.156 208.984 151.603 208.837 152.123 208.837C152.803 208.837 153.306 209.004 153.633 209.337C153.959 209.664 154.123 210.084 154.123 210.597V213.007C154.123 213.294 154.143 213.557 154.183 213.797H153.263C153.229 213.597 153.213 213.38 153.213 213.147C153.079 213.36 152.883 213.547 152.623 213.707C152.369 213.867 152.049 213.947 151.663 213.947C151.189 213.947 150.803 213.807 150.503 213.527C150.203 213.24 150.053 212.9 150.053 212.507ZM151.793 213.157C152.213 213.157 152.549 213.044 152.803 212.817C153.056 212.59 153.183 212.23 153.183 211.737V211.517L151.713 211.737C151.499 211.77 151.329 211.847 151.203 211.967C151.076 212.087 151.013 212.25 151.013 212.457C151.013 212.644 151.083 212.807 151.223 212.947C151.369 213.087 151.559 213.157 151.793 213.157ZM156.527 213.797H155.587V206.557H156.527V213.797ZM159.386 207.467V208.987H160.426V209.837H159.386V212.337C159.386 212.564 159.436 212.73 159.536 212.837C159.643 212.944 159.816 212.997 160.056 212.997C160.196 212.997 160.32 212.984 160.426 212.957V213.757C160.266 213.817 160.053 213.847 159.786 213.847C159.373 213.847 159.046 213.727 158.806 213.487C158.566 213.247 158.446 212.91 158.446 212.477V209.837H157.526V208.987H157.786C158.033 208.987 158.216 208.92 158.336 208.787C158.463 208.647 158.526 208.467 158.526 208.247V207.467H159.386ZM162.621 210.967V213.797H161.681V206.557H162.621V209.547C162.941 209.08 163.428 208.847 164.081 208.847C164.634 208.847 165.058 209.024 165.351 209.377C165.651 209.73 165.801 210.187 165.801 210.747V213.797H164.861V210.907C164.861 210.1 164.488 209.697 163.741 209.697C163.394 209.697 163.124 209.817 162.931 210.057C162.738 210.29 162.634 210.594 162.621 210.967ZM168.556 207.467V208.987H169.596V209.837H168.556V212.337C168.556 212.564 168.606 212.73 168.706 212.837C168.813 212.944 168.986 212.997 169.226 212.997C169.366 212.997 169.489 212.984 169.596 212.957V213.757C169.436 213.817 169.223 213.847 168.956 213.847C168.543 213.847 168.216 213.727 167.976 213.487C167.736 213.247 167.616 212.91 167.616 212.477V209.837H166.696V208.987H166.956C167.203 208.987 167.386 208.92 167.506 208.787C167.633 208.647 167.696 208.467 167.696 208.247V207.467H168.556ZM171.412 210.897H174.042C174.029 210.537 173.909 210.244 173.682 210.017C173.455 209.784 173.135 209.667 172.722 209.667C172.349 209.667 172.042 209.79 171.802 210.037C171.562 210.277 171.432 210.564 171.412 210.897ZM174.182 212.147L174.992 212.427C174.852 212.874 174.592 213.24 174.212 213.527C173.832 213.807 173.372 213.947 172.832 213.947C172.159 213.947 171.585 213.717 171.112 213.257C170.645 212.79 170.412 212.164 170.412 211.377C170.412 210.644 170.639 210.037 171.092 209.557C171.545 209.077 172.085 208.837 172.712 208.837C173.439 208.837 174.005 209.067 174.412 209.527C174.819 209.98 175.022 210.59 175.022 211.357C175.022 211.477 175.015 211.577 175.002 211.657H171.382C171.389 212.084 171.529 212.434 171.802 212.707C172.082 212.98 172.425 213.117 172.832 213.117C173.519 213.117 173.969 212.794 174.182 212.147ZM178.242 209.707C177.835 209.707 177.489 209.854 177.202 210.147C176.922 210.44 176.782 210.854 176.782 211.387C176.782 211.914 176.922 212.327 177.202 212.627C177.489 212.927 177.839 213.077 178.252 213.077C178.652 213.077 178.955 212.977 179.162 212.777C179.375 212.577 179.519 212.347 179.592 212.087L180.422 212.447C180.289 212.847 180.035 213.197 179.662 213.497C179.295 213.797 178.825 213.947 178.252 213.947C177.552 213.947 176.972 213.704 176.512 213.217C176.052 212.73 175.822 212.12 175.822 211.387C175.822 210.64 176.052 210.03 176.512 209.557C176.972 209.077 177.549 208.837 178.242 208.837C178.829 208.837 179.302 208.987 179.662 209.287C180.029 209.587 180.269 209.947 180.382 210.367L179.532 210.727C179.459 210.447 179.319 210.207 179.112 210.007C178.905 209.807 178.615 209.707 178.242 209.707ZM182.465 210.967V213.797H181.525V206.557H182.465V209.547C182.785 209.08 183.271 208.847 183.925 208.847C184.478 208.847 184.901 209.024 185.195 209.377C185.495 209.73 185.645 210.187 185.645 210.747V213.797H184.705V210.907C184.705 210.1 184.331 209.697 183.585 209.697C183.238 209.697 182.968 209.817 182.775 210.057C182.581 210.29 182.478 210.594 182.465 210.967ZM190.72 213.797H189.74V206.707H194.05V207.617H190.72V209.897H193.74V210.817H190.72V213.797ZM197.868 213.217C197.742 213.457 197.548 213.64 197.288 213.767C197.028 213.887 196.748 213.947 196.448 213.947C195.902 213.947 195.465 213.767 195.138 213.407C194.812 213.04 194.648 212.577 194.648 212.017V208.987H195.588V211.877C195.588 212.237 195.675 212.534 195.848 212.767C196.028 213 196.305 213.117 196.678 213.117C197.052 213.117 197.335 213.007 197.528 212.787C197.722 212.56 197.818 212.26 197.818 211.887V208.987H198.758V212.907C198.758 213.22 198.775 213.517 198.808 213.797H197.908C197.882 213.65 197.868 213.457 197.868 213.217ZM201.303 211.017V213.797H200.363V208.987H201.283V209.677C201.603 209.124 202.096 208.847 202.763 208.847C203.316 208.847 203.739 209.024 204.033 209.377C204.333 209.73 204.483 210.187 204.483 210.747V213.797H203.543V210.907C203.543 210.1 203.169 209.697 202.423 209.697C202.069 209.697 201.793 209.824 201.593 210.077C201.399 210.324 201.303 210.637 201.303 211.017ZM206.538 211.377C206.538 211.884 206.661 212.297 206.908 212.617C207.161 212.937 207.508 213.097 207.948 213.097C208.368 213.097 208.704 212.934 208.958 212.607C209.211 212.28 209.338 211.864 209.338 211.357C209.338 210.857 209.214 210.454 208.968 210.147C208.721 209.84 208.384 209.687 207.958 209.687C207.531 209.687 207.188 209.844 206.928 210.157C206.668 210.47 206.538 210.877 206.538 211.377ZM209.348 213.147V213.067C209.221 213.314 209.028 213.52 208.768 213.687C208.514 213.847 208.211 213.927 207.858 213.927C207.171 213.927 206.618 213.687 206.198 213.207C205.784 212.72 205.578 212.11 205.578 211.377C205.578 210.677 205.791 210.084 206.218 209.597C206.644 209.104 207.191 208.857 207.858 208.857C208.251 208.857 208.571 208.937 208.818 209.097C209.064 209.25 209.234 209.44 209.328 209.667V206.557H210.258V212.907C210.258 213.234 210.274 213.53 210.308 213.797H209.398C209.364 213.61 209.348 213.394 209.348 213.147Z" fill="#707070"/>
<rect x="125.75" y="227.797" width="106.547" height="21.486" rx="10.743" fill="#FC4B37"/>
<path d="M141.634 242.242L141.044 240.622H138.164L137.574 242.242H136.114L138.834 235.152H140.434L143.134 242.242H141.634ZM139.604 236.682L138.624 239.362H140.584L139.604 236.682ZM145.27 242.242H143.94V237.322H145.27V242.242ZM143.78 235.712C143.78 235.252 144.15 234.882 144.6 234.882C145.06 234.882 145.42 235.252 145.42 235.712C145.42 236.152 145.06 236.522 144.6 236.522C144.15 236.522 143.78 236.152 143.78 235.712ZM150.655 242.242H149.265V235.152H153.745V236.462H150.645V238.212H153.405V239.482H150.655V242.242ZM157.61 242.242C157.59 242.142 157.57 241.912 157.57 241.712C157.3 242.172 156.73 242.372 156.21 242.372C155.02 242.372 154.34 241.502 154.34 240.432V237.322H155.67V240.162C155.67 240.712 155.95 241.152 156.57 241.152C157.16 241.152 157.5 240.752 157.5 240.182V237.322H158.83V241.352C158.83 241.732 158.86 242.072 158.88 242.242H157.61ZM161.579 239.412V242.242H160.249V237.322H161.539V237.932C161.839 237.422 162.429 237.192 162.959 237.192C164.179 237.192 164.739 238.062 164.739 239.142V242.242H163.409V239.372C163.409 238.822 163.139 238.392 162.499 238.392C161.919 238.392 161.579 238.842 161.579 239.412ZM170.779 235.002V241.352C170.779 241.682 170.799 242.042 170.819 242.242H169.549C169.529 242.142 169.499 241.902 169.499 241.672C169.279 242.062 168.779 242.362 168.119 242.362C166.719 242.362 165.719 241.262 165.719 239.772C165.719 238.332 166.689 237.202 168.079 237.202C168.929 237.202 169.329 237.552 169.469 237.812V235.002H170.779ZM167.059 239.772C167.059 240.652 167.579 241.172 168.279 241.172C168.959 241.172 169.489 240.652 169.489 239.762C169.489 238.882 168.959 238.392 168.279 238.392C167.599 238.392 167.059 238.892 167.059 239.772Z" fill="white"/>
<g filter="url(#filter1_d_774_18726)">
<path d="M197.941 257.937L192.657 257.855C191.2 257.828 189.855 258.393 189.05 259.429L186.143 263.083C183.645 266.249 177.77 264.37 177.558 260.376L176.68 243.528C176.526 240.193 180.63 238.381 183.827 240.389L200.139 250.527C203.967 252.923 202.477 258.013 197.941 257.937Z" fill="#292D32"/>
<path d="M197.957 256.937L197.956 256.937L192.676 256.856C192.675 256.856 192.675 256.855 192.674 256.855C190.964 256.824 189.296 257.486 188.264 258.81L185.36 262.46L185.358 262.463C184.436 263.631 182.826 263.946 181.295 263.461C179.764 262.976 178.635 261.791 178.556 260.324C178.556 260.323 178.556 260.323 178.556 260.323L177.679 243.482C177.679 243.481 177.679 243.48 177.679 243.479C177.625 242.291 178.308 241.35 179.4 240.87C180.503 240.384 181.978 240.408 183.295 241.235L183.299 241.238L199.609 251.375C199.609 251.375 199.609 251.375 199.61 251.376C201.172 252.354 201.541 253.777 201.217 254.876C200.893 255.973 199.812 256.968 197.957 256.937Z" stroke="white" stroke-width="2"/>
</g>
<path d="M128.625 184.859H126.945V174.933H133.119V176.515H128.625V179.301H132.657V180.855H128.625V184.859ZM136.167 184.859H134.557V178.041H136.167V184.859ZM134.613 176.389C134.408 176.184 134.305 175.937 134.305 175.647C134.305 175.358 134.408 175.111 134.613 174.905C134.818 174.691 135.066 174.583 135.355 174.583C135.654 174.583 135.906 174.686 136.111 174.891C136.316 175.097 136.419 175.349 136.419 175.647C136.419 175.937 136.316 176.184 136.111 176.389C135.906 176.595 135.654 176.697 135.355 176.697C135.066 176.697 134.818 176.595 134.613 176.389ZM139.872 184.859H138.262V178.041H139.872V184.859ZM138.318 176.389C138.113 176.184 138.01 175.937 138.01 175.647C138.01 175.358 138.113 175.111 138.318 174.905C138.523 174.691 138.771 174.583 139.06 174.583C139.359 174.583 139.611 174.686 139.816 174.891C140.021 175.097 140.124 175.349 140.124 175.647C140.124 175.937 140.021 176.184 139.816 176.389C139.611 176.595 139.359 176.697 139.06 176.697C138.771 176.697 138.523 176.595 138.318 176.389ZM143.591 184.859H141.967V174.723H143.591V184.859ZM147.744 175.955V178.041H149.158V179.483H147.744V182.647C147.744 182.946 147.814 183.165 147.954 183.305C148.094 183.436 148.313 183.501 148.612 183.501C148.798 183.501 148.985 183.483 149.172 183.445V184.789C148.929 184.892 148.598 184.943 148.178 184.943C147.543 184.943 147.044 184.766 146.68 184.411C146.316 184.047 146.134 183.548 146.134 182.913V179.483H144.874V178.041H145.224C145.569 178.041 145.83 177.943 146.008 177.747C146.185 177.551 146.274 177.295 146.274 176.977V175.955H147.744ZM151.892 180.701H155.238C155.219 180.272 155.065 179.913 154.776 179.623C154.496 179.334 154.09 179.189 153.558 179.189C153.073 179.189 152.681 179.343 152.382 179.651C152.083 179.95 151.92 180.3 151.892 180.701ZM155.42 182.479L156.792 182.913C156.596 183.539 156.227 184.057 155.686 184.467C155.154 184.869 154.496 185.069 153.712 185.069C152.741 185.069 151.915 184.738 151.234 184.075C150.562 183.413 150.226 182.526 150.226 181.415C150.226 180.37 150.553 179.511 151.206 178.839C151.869 178.167 152.648 177.831 153.544 177.831C154.589 177.831 155.406 178.153 155.994 178.797C156.582 179.432 156.876 180.291 156.876 181.373C156.876 181.663 156.862 181.835 156.834 181.891H151.85C151.869 182.405 152.055 182.829 152.41 183.165C152.774 183.501 153.208 183.669 153.712 183.669C154.589 183.669 155.159 183.273 155.42 182.479ZM162.418 177.999V179.651C162.231 179.623 162.054 179.609 161.886 179.609C160.663 179.609 160.052 180.277 160.052 181.611V184.859H158.428V178.041H160.01V179.133C160.169 178.769 160.425 178.485 160.78 178.279C161.135 178.065 161.536 177.957 161.984 177.957C162.133 177.957 162.278 177.971 162.418 177.999Z" fill="black"/>
</g>
</g>
<defs>
<filter id="filter0_d_774_18726" x="88" y="63" width="566.957" height="431" filterUnits="userSpaceOnUse" color-interpolation-filters="sRGB">
<feFlood flood-opacity="0" result="BackgroundImageFix"/>
<feColorMatrix in="SourceAlpha" type="matrix" values="0 0 0 0 0 0 0 0 0 0 0 0 0 0 0 0 0 0 127 0" result="hardAlpha"/>
<feOffset dx="-16" dy="16"/>
<feComposite in2="hardAlpha" operator="out"/>
<feColorMatrix type="matrix" values="0 0 0 0 0.25098 0 0 0 0 0.482353 0 0 0 0 1 0 0 0 0.1 0"/>
<feBlend mode="normal" in2="BackgroundImageFix" result="effect1_dropShadow_774_18726"/>
<feBlend mode="normal" in="SourceGraphic" in2="effect1_dropShadow_774_18726" result="shape"/>
</filter>
<filter id="filter1_d_774_18726" x="172.676" y="239.549" width="33.6504" height="33.1294" filterUnits="userSpaceOnUse" color-interpolation-filters="sRGB">
<feFlood flood-opacity="0" result="BackgroundImageFix"/>
<feColorMatrix in="SourceAlpha" type="matrix" values="0 0 0 0 0 0 0 0 0 0 0 0 0 0 0 0 0 0 127 0" result="hardAlpha"/>
<feOffset dy="4"/>
<feGaussianBlur stdDeviation="2"/>
<feComposite in2="hardAlpha" operator="out"/>
<feColorMatrix type="matrix" values="0 0 0 0 0.00392157 0 0 0 0 0.14902 0 0 0 0 0.466667 0 0 0 0.25 0"/>
<feBlend mode="normal" in2="BackgroundImageFix" result="effect1_dropShadow_774_18726"/>
<feBlend mode="normal" in="SourceGraphic" in2="effect1_dropShadow_774_18726" result="shape"/>
</filter>
<linearGradient id="paint0_linear_774_18726" x1="377" y1="199" x2="377" y2="658.5" gradientUnits="userSpaceOnUse">
<stop stop-color="#EEF3FD"/>
<stop offset="1" stop-color="white"/>
</linearGradient>
<clipPath id="clip0_774_18726">
<rect width="629" height="541" rx="16" fill="white"/>
</clipPath>
<clipPath id="clip1_774_18726">
<rect width="545" height="415" fill="white" transform="translate(104 63)"/>
</clipPath>
</defs>
</svg>
