<svg width="629" height="541" viewBox="0 0 629 541" fill="none" xmlns="http://www.w3.org/2000/svg">
<g clip-path="url(#clip0_774_18408)">
<rect width="629" height="541" rx="16" fill="#F4F7FE"/>
<g filter="url(#filter0_d_774_18408)">
<path d="M74.1357 77.5312C74.1357 68.6947 81.2992 61.5312 90.1357 61.5312H538.873C547.71 61.5312 554.873 68.6947 554.873 77.5312V740.019H74.1357V77.5312Z" fill="url(#paint0_linear_774_18408)"/>
<rect x="94.6953" y="84" width="447" height="59" rx="8" fill="#012677"/>
<path d="M135.681 109.565C135.613 108.878 135.32 108.344 134.803 107.963C134.286 107.582 133.585 107.392 132.698 107.392C132.096 107.392 131.587 107.477 131.173 107.648C130.758 107.812 130.44 108.043 130.218 108.338C130.002 108.634 129.894 108.969 129.894 109.344C129.883 109.656 129.948 109.929 130.09 110.162C130.238 110.395 130.44 110.597 130.695 110.767C130.951 110.932 131.246 111.077 131.582 111.202C131.917 111.321 132.275 111.423 132.656 111.509L134.224 111.884C134.985 112.054 135.684 112.281 136.32 112.565C136.957 112.849 137.508 113.199 137.974 113.614C138.44 114.028 138.8 114.517 139.056 115.08C139.317 115.642 139.451 116.287 139.457 117.014C139.451 118.082 139.178 119.009 138.638 119.793C138.104 120.571 137.332 121.176 136.32 121.608C135.315 122.034 134.102 122.247 132.681 122.247C131.272 122.247 130.045 122.031 128.999 121.599C127.96 121.168 127.147 120.528 126.562 119.682C125.982 118.83 125.678 117.776 125.65 116.52H129.221C129.261 117.105 129.428 117.594 129.724 117.986C130.025 118.372 130.425 118.665 130.925 118.864C131.431 119.057 132.002 119.153 132.638 119.153C133.263 119.153 133.806 119.062 134.266 118.881C134.732 118.699 135.093 118.446 135.349 118.122C135.604 117.798 135.732 117.426 135.732 117.006C135.732 116.614 135.616 116.284 135.383 116.017C135.156 115.75 134.82 115.523 134.377 115.335C133.94 115.148 133.403 114.977 132.766 114.824L130.866 114.347C129.394 113.989 128.232 113.429 127.38 112.668C126.528 111.906 126.104 110.881 126.11 109.591C126.104 108.534 126.386 107.611 126.954 106.821C127.528 106.031 128.315 105.415 129.315 104.972C130.315 104.528 131.451 104.307 132.724 104.307C134.019 104.307 135.15 104.528 136.116 104.972C137.087 105.415 137.843 106.031 138.383 106.821C138.923 107.611 139.201 108.526 139.218 109.565H135.681ZM140.671 122V108.909H144.301V122H140.671ZM142.495 107.222C141.955 107.222 141.492 107.043 141.105 106.685C140.725 106.321 140.534 105.886 140.534 105.381C140.534 104.881 140.725 104.452 141.105 104.094C141.492 103.73 141.955 103.548 142.495 103.548C143.034 103.548 143.495 103.73 143.875 104.094C144.262 104.452 144.455 104.881 144.455 105.381C144.455 105.886 144.262 106.321 143.875 106.685C143.495 107.043 143.034 107.222 142.495 107.222ZM151.908 127.182C150.731 127.182 149.723 127.02 148.882 126.696C148.047 126.378 147.382 125.943 146.888 125.392C146.393 124.841 146.072 124.222 145.925 123.534L149.283 123.082C149.385 123.344 149.547 123.588 149.768 123.815C149.99 124.043 150.283 124.224 150.646 124.361C151.015 124.503 151.464 124.574 151.993 124.574C152.783 124.574 153.433 124.381 153.944 123.994C154.462 123.614 154.72 122.974 154.72 122.077V119.682H154.567C154.408 120.045 154.169 120.389 153.851 120.713C153.533 121.037 153.123 121.301 152.623 121.506C152.123 121.71 151.527 121.812 150.834 121.812C149.851 121.812 148.956 121.585 148.149 121.131C147.348 120.67 146.709 119.969 146.231 119.026C145.76 118.077 145.524 116.878 145.524 115.429C145.524 113.946 145.765 112.707 146.248 111.713C146.731 110.719 147.373 109.974 148.175 109.48C148.981 108.986 149.865 108.739 150.825 108.739C151.558 108.739 152.172 108.864 152.666 109.114C153.16 109.358 153.558 109.665 153.859 110.034C154.166 110.398 154.402 110.756 154.567 111.108H154.703V108.909H158.308V122.128C158.308 123.241 158.035 124.173 157.49 124.923C156.944 125.673 156.189 126.236 155.223 126.611C154.263 126.991 153.158 127.182 151.908 127.182ZM151.984 119.085C152.569 119.085 153.064 118.94 153.467 118.651C153.876 118.355 154.189 117.935 154.405 117.389C154.626 116.838 154.737 116.179 154.737 115.412C154.737 114.645 154.629 113.98 154.413 113.418C154.197 112.849 153.885 112.409 153.476 112.097C153.067 111.784 152.569 111.628 151.984 111.628C151.388 111.628 150.885 111.79 150.476 112.114C150.067 112.432 149.757 112.875 149.547 113.443C149.337 114.011 149.231 114.668 149.231 115.412C149.231 116.168 149.337 116.821 149.547 117.372C149.763 117.918 150.072 118.341 150.476 118.642C150.885 118.937 151.388 119.085 151.984 119.085ZM163.628 114.432V122H159.997V108.909H163.458V111.219H163.611C163.901 110.457 164.387 109.855 165.068 109.412C165.75 108.963 166.577 108.739 167.548 108.739C168.458 108.739 169.25 108.938 169.926 109.335C170.602 109.733 171.128 110.301 171.503 111.04C171.878 111.773 172.065 112.648 172.065 113.665V122H168.435V114.312C168.44 113.511 168.236 112.886 167.821 112.438C167.406 111.983 166.835 111.756 166.108 111.756C165.619 111.756 165.188 111.861 164.813 112.071C164.443 112.281 164.154 112.588 163.943 112.991C163.739 113.389 163.634 113.869 163.628 114.432ZM188.931 104.545H192.621V115.881C192.621 117.153 192.317 118.267 191.71 119.222C191.107 120.176 190.263 120.92 189.178 121.455C188.093 121.983 186.829 122.247 185.386 122.247C183.937 122.247 182.67 121.983 181.585 121.455C180.499 120.92 179.656 120.176 179.053 119.222C178.451 118.267 178.15 117.153 178.15 115.881V104.545H181.84V115.565C181.84 116.23 181.985 116.821 182.275 117.338C182.57 117.855 182.985 118.261 183.519 118.557C184.053 118.852 184.675 119 185.386 119C186.102 119 186.724 118.852 187.252 118.557C187.786 118.261 188.198 117.855 188.488 117.338C188.783 116.821 188.931 116.23 188.931 115.565V104.545ZM194.389 126.909V108.909H197.969V111.108H198.131C198.29 110.756 198.52 110.398 198.821 110.034C199.128 109.665 199.526 109.358 200.014 109.114C200.509 108.864 201.122 108.739 201.855 108.739C202.81 108.739 203.691 108.989 204.497 109.489C205.304 109.983 205.949 110.73 206.432 111.73C206.915 112.724 207.157 113.972 207.157 115.472C207.157 116.932 206.921 118.165 206.449 119.17C205.983 120.17 205.347 120.929 204.54 121.446C203.739 121.957 202.841 122.213 201.847 122.213C201.142 122.213 200.543 122.097 200.049 121.864C199.56 121.631 199.159 121.338 198.847 120.986C198.534 120.628 198.296 120.267 198.131 119.903H198.02V126.909H194.389ZM197.943 115.455C197.943 116.233 198.051 116.912 198.267 117.491C198.483 118.071 198.796 118.523 199.205 118.847C199.614 119.165 200.111 119.324 200.696 119.324C201.287 119.324 201.787 119.162 202.196 118.838C202.605 118.509 202.915 118.054 203.125 117.474C203.341 116.889 203.449 116.216 203.449 115.455C203.449 114.699 203.344 114.034 203.134 113.46C202.924 112.886 202.614 112.437 202.205 112.114C201.796 111.79 201.293 111.628 200.696 111.628C200.105 111.628 199.605 111.784 199.196 112.097C198.793 112.409 198.483 112.852 198.267 113.426C198.051 114 197.943 114.676 197.943 115.455ZM216.465 122.247C215.629 122.247 214.885 122.102 214.232 121.812C213.578 121.517 213.061 121.082 212.681 120.509C212.306 119.929 212.118 119.207 212.118 118.344C212.118 117.616 212.252 117.006 212.519 116.511C212.786 116.017 213.149 115.619 213.61 115.318C214.07 115.017 214.592 114.79 215.178 114.636C215.769 114.483 216.388 114.375 217.036 114.312C217.797 114.233 218.411 114.159 218.877 114.091C219.342 114.017 219.681 113.909 219.891 113.767C220.101 113.625 220.206 113.415 220.206 113.136V113.085C220.206 112.545 220.036 112.128 219.695 111.832C219.36 111.537 218.882 111.389 218.263 111.389C217.61 111.389 217.09 111.534 216.703 111.824C216.317 112.108 216.061 112.466 215.936 112.898L212.578 112.625C212.749 111.83 213.084 111.142 213.584 110.562C214.084 109.977 214.729 109.528 215.519 109.216C216.314 108.898 217.235 108.739 218.28 108.739C219.007 108.739 219.703 108.824 220.368 108.994C221.038 109.165 221.632 109.429 222.149 109.787C222.672 110.145 223.084 110.605 223.385 111.168C223.686 111.724 223.837 112.392 223.837 113.17V122H220.394V120.185H220.291C220.081 120.594 219.8 120.955 219.448 121.267C219.095 121.574 218.672 121.815 218.178 121.991C217.683 122.162 217.112 122.247 216.465 122.247ZM217.504 119.741C218.038 119.741 218.51 119.636 218.919 119.426C219.328 119.21 219.649 118.92 219.882 118.557C220.115 118.193 220.232 117.781 220.232 117.321V115.932C220.118 116.006 219.962 116.074 219.763 116.136C219.57 116.193 219.351 116.247 219.107 116.298C218.862 116.344 218.618 116.386 218.374 116.426C218.129 116.46 217.908 116.491 217.709 116.52C217.283 116.582 216.911 116.682 216.592 116.818C216.274 116.955 216.027 117.139 215.851 117.372C215.675 117.599 215.587 117.884 215.587 118.224C215.587 118.719 215.766 119.097 216.124 119.358C216.487 119.614 216.948 119.741 217.504 119.741ZM236.346 112.642L233.022 112.847C232.965 112.562 232.843 112.307 232.655 112.08C232.468 111.847 232.221 111.662 231.914 111.526C231.613 111.384 231.252 111.312 230.831 111.312C230.269 111.312 229.794 111.432 229.408 111.67C229.022 111.903 228.829 112.216 228.829 112.608C228.829 112.92 228.954 113.185 229.204 113.401C229.454 113.616 229.883 113.79 230.49 113.92L232.86 114.398C234.133 114.659 235.081 115.08 235.706 115.659C236.331 116.239 236.644 117 236.644 117.943C236.644 118.801 236.391 119.554 235.885 120.202C235.385 120.849 234.698 121.355 233.823 121.719C232.954 122.077 231.951 122.256 230.814 122.256C229.081 122.256 227.701 121.895 226.672 121.173C225.65 120.446 225.05 119.457 224.874 118.207L228.445 118.02C228.553 118.548 228.814 118.952 229.229 119.23C229.644 119.503 230.175 119.639 230.823 119.639C231.459 119.639 231.971 119.517 232.357 119.273C232.749 119.023 232.948 118.702 232.954 118.31C232.948 117.98 232.809 117.71 232.536 117.5C232.263 117.284 231.843 117.119 231.275 117.006L229.008 116.554C227.729 116.298 226.777 115.855 226.152 115.224C225.533 114.594 225.223 113.79 225.223 112.812C225.223 111.972 225.451 111.247 225.905 110.639C226.365 110.031 227.01 109.562 227.84 109.233C228.675 108.903 229.652 108.739 230.772 108.739C232.425 108.739 233.726 109.088 234.675 109.787C235.63 110.486 236.187 111.437 236.346 112.642ZM245.818 122.247C244.983 122.247 244.238 122.102 243.585 121.812C242.931 121.517 242.414 121.082 242.034 120.509C241.659 119.929 241.471 119.207 241.471 118.344C241.471 117.616 241.605 117.006 241.872 116.511C242.139 116.017 242.502 115.619 242.963 115.318C243.423 115.017 243.946 114.79 244.531 114.636C245.122 114.483 245.741 114.375 246.389 114.312C247.15 114.233 247.764 114.159 248.23 114.091C248.696 114.017 249.034 113.909 249.244 113.767C249.454 113.625 249.559 113.415 249.559 113.136V113.085C249.559 112.545 249.389 112.128 249.048 111.832C248.713 111.537 248.235 111.389 247.616 111.389C246.963 111.389 246.443 111.534 246.056 111.824C245.67 112.108 245.414 112.466 245.289 112.898L241.931 112.625C242.102 111.83 242.437 111.142 242.937 110.562C243.437 109.977 244.082 109.528 244.872 109.216C245.667 108.898 246.588 108.739 247.633 108.739C248.36 108.739 249.056 108.824 249.721 108.994C250.392 109.165 250.985 109.429 251.502 109.787C252.025 110.145 252.437 110.605 252.738 111.168C253.039 111.724 253.19 112.392 253.19 113.17V122H249.747V120.185H249.644C249.434 120.594 249.153 120.955 248.801 121.267C248.448 121.574 248.025 121.815 247.531 121.991C247.037 122.162 246.465 122.247 245.818 122.247ZM246.858 119.741C247.392 119.741 247.863 119.636 248.272 119.426C248.681 119.21 249.002 118.92 249.235 118.557C249.468 118.193 249.585 117.781 249.585 117.321V115.932C249.471 116.006 249.315 116.074 249.116 116.136C248.923 116.193 248.704 116.247 248.46 116.298C248.215 116.344 247.971 116.386 247.727 116.426C247.483 116.46 247.261 116.491 247.062 116.52C246.636 116.582 246.264 116.682 245.946 116.818C245.627 116.955 245.38 117.139 245.204 117.372C245.028 117.599 244.94 117.884 244.94 118.224C244.94 118.719 245.119 119.097 245.477 119.358C245.84 119.614 246.301 119.741 246.858 119.741ZM263.584 122V104.545H275.141V107.588H267.275V111.747H274.374V114.79H267.275V122H263.584ZM283.93 116.426V108.909H287.56V122H284.075V119.622H283.938C283.643 120.389 283.151 121.006 282.464 121.472C281.782 121.937 280.95 122.17 279.967 122.17C279.092 122.17 278.322 121.972 277.657 121.574C276.992 121.176 276.472 120.611 276.097 119.878C275.728 119.145 275.54 118.267 275.535 117.244V108.909H279.165V116.597C279.171 117.369 279.379 117.98 279.788 118.429C280.197 118.878 280.745 119.102 281.433 119.102C281.87 119.102 282.279 119.003 282.66 118.804C283.04 118.599 283.347 118.298 283.58 117.901C283.819 117.503 283.935 117.011 283.93 116.426ZM292.895 114.432V122H289.264V108.909H292.725V111.219H292.878C293.168 110.457 293.654 109.855 294.336 109.412C295.017 108.963 295.844 108.739 296.816 108.739C297.725 108.739 298.517 108.938 299.193 109.335C299.87 109.733 300.395 110.301 300.77 111.04C301.145 111.773 301.333 112.648 301.333 113.665V122H297.702V114.312C297.708 113.511 297.503 112.886 297.088 112.438C296.674 111.983 296.103 111.756 295.375 111.756C294.887 111.756 294.455 111.861 294.08 112.071C293.711 112.281 293.421 112.588 293.211 112.991C293.006 113.389 292.901 113.869 292.895 114.432ZM307.818 122.213C306.824 122.213 305.923 121.957 305.116 121.446C304.315 120.929 303.679 120.17 303.207 119.17C302.741 118.165 302.508 116.932 302.508 115.472C302.508 113.972 302.75 112.724 303.233 111.73C303.716 110.73 304.358 109.983 305.159 109.489C305.966 108.989 306.849 108.739 307.81 108.739C308.542 108.739 309.153 108.864 309.642 109.114C310.136 109.358 310.534 109.665 310.835 110.034C311.142 110.398 311.375 110.756 311.534 111.108H311.645V104.545H315.267V122H311.687V119.903H311.534C311.364 120.267 311.122 120.628 310.81 120.986C310.503 121.338 310.102 121.631 309.608 121.864C309.119 122.097 308.523 122.213 307.818 122.213ZM308.969 119.324C309.554 119.324 310.048 119.165 310.452 118.847C310.861 118.523 311.173 118.071 311.389 117.491C311.611 116.912 311.721 116.233 311.721 115.455C311.721 114.676 311.614 114 311.398 113.426C311.182 112.852 310.869 112.409 310.46 112.097C310.051 111.784 309.554 111.628 308.969 111.628C308.372 111.628 307.869 111.79 307.46 112.114C307.051 112.437 306.741 112.886 306.531 113.46C306.321 114.034 306.216 114.699 306.216 115.455C306.216 116.216 306.321 116.889 306.531 117.474C306.747 118.054 307.057 118.509 307.46 118.838C307.869 119.162 308.372 119.324 308.969 119.324ZM321.475 104.545H326.026L330.833 116.273H331.037L335.844 104.545H340.395V122H336.816V110.639H336.671L332.154 121.915H329.716L325.199 110.597H325.054V122H321.475V104.545ZM345.901 122.247C345.065 122.247 344.321 122.102 343.668 121.812C343.014 121.517 342.497 121.082 342.116 120.509C341.741 119.929 341.554 119.207 341.554 118.344C341.554 117.616 341.688 117.006 341.955 116.511C342.222 116.017 342.585 115.619 343.045 115.318C343.506 115.017 344.028 114.79 344.614 114.636C345.205 114.483 345.824 114.375 346.472 114.312C347.233 114.233 347.847 114.159 348.312 114.091C348.778 114.017 349.116 113.909 349.327 113.767C349.537 113.625 349.642 113.415 349.642 113.136V113.085C349.642 112.545 349.472 112.128 349.131 111.832C348.795 111.537 348.318 111.389 347.699 111.389C347.045 111.389 346.526 111.534 346.139 111.824C345.753 112.108 345.497 112.466 345.372 112.898L342.014 112.625C342.185 111.83 342.52 111.142 343.02 110.562C343.52 109.977 344.165 109.528 344.955 109.216C345.75 108.898 346.67 108.739 347.716 108.739C348.443 108.739 349.139 108.824 349.804 108.994C350.474 109.165 351.068 109.429 351.585 109.787C352.108 110.145 352.52 110.605 352.821 111.168C353.122 111.724 353.273 112.392 353.273 113.17V122H349.83V120.185H349.727C349.517 120.594 349.236 120.955 348.884 121.267C348.531 121.574 348.108 121.815 347.614 121.991C347.119 122.162 346.548 122.247 345.901 122.247ZM346.94 119.741C347.474 119.741 347.946 119.636 348.355 119.426C348.764 119.21 349.085 118.92 349.318 118.557C349.551 118.193 349.668 117.781 349.668 117.321V115.932C349.554 116.006 349.398 116.074 349.199 116.136C349.006 116.193 348.787 116.247 348.543 116.298C348.298 116.344 348.054 116.386 347.81 116.426C347.565 116.46 347.344 116.491 347.145 116.52C346.719 116.582 346.347 116.682 346.028 116.818C345.71 116.955 345.463 117.139 345.287 117.372C345.111 117.599 345.023 117.884 345.023 118.224C345.023 118.719 345.202 119.097 345.56 119.358C345.923 119.614 346.384 119.741 346.94 119.741ZM358.52 114.432V122H354.889V108.909H358.35V111.219H358.503C358.793 110.457 359.279 109.855 359.961 109.412C360.642 108.963 361.469 108.739 362.441 108.739C363.35 108.739 364.142 108.938 364.818 109.335C365.495 109.733 366.02 110.301 366.395 111.04C366.77 111.773 366.958 112.648 366.958 113.665V122H363.327V114.312C363.333 113.511 363.128 112.886 362.713 112.438C362.299 111.983 361.728 111.756 361 111.756C360.512 111.756 360.08 111.861 359.705 112.071C359.336 112.281 359.046 112.588 358.836 112.991C358.631 113.389 358.526 113.869 358.52 114.432ZM372.352 122.247C371.517 122.247 370.773 122.102 370.119 121.812C369.466 121.517 368.949 121.082 368.568 120.509C368.193 119.929 368.006 119.207 368.006 118.344C368.006 117.616 368.139 117.006 368.406 116.511C368.673 116.017 369.037 115.619 369.497 115.318C369.957 115.017 370.48 114.79 371.065 114.636C371.656 114.483 372.275 114.375 372.923 114.312C373.685 114.233 374.298 114.159 374.764 114.091C375.23 114.017 375.568 113.909 375.778 113.767C375.989 113.625 376.094 113.415 376.094 113.136V113.085C376.094 112.545 375.923 112.128 375.582 111.832C375.247 111.537 374.77 111.389 374.15 111.389C373.497 111.389 372.977 111.534 372.591 111.824C372.204 112.108 371.949 112.466 371.824 112.898L368.466 112.625C368.636 111.83 368.971 111.142 369.471 110.562C369.971 109.977 370.616 109.528 371.406 109.216C372.202 108.898 373.122 108.739 374.167 108.739C374.895 108.739 375.591 108.824 376.256 108.994C376.926 109.165 377.52 109.429 378.037 109.787C378.56 110.145 378.971 110.605 379.273 111.168C379.574 111.724 379.724 112.392 379.724 113.17V122H376.281V120.185H376.179C375.969 120.594 375.687 120.955 375.335 121.267C374.983 121.574 374.56 121.815 374.065 121.991C373.571 122.162 373 122.247 372.352 122.247ZM373.392 119.741C373.926 119.741 374.398 119.636 374.807 119.426C375.216 119.21 375.537 118.92 375.77 118.557C376.003 118.193 376.119 117.781 376.119 117.321V115.932C376.006 116.006 375.849 116.074 375.65 116.136C375.457 116.193 375.239 116.247 374.994 116.298C374.75 116.344 374.506 116.386 374.261 116.426C374.017 116.46 373.795 116.491 373.596 116.52C373.17 116.582 372.798 116.682 372.48 116.818C372.162 116.955 371.915 117.139 371.739 117.372C371.562 117.599 371.474 117.884 371.474 118.224C371.474 118.719 371.653 119.097 372.011 119.358C372.375 119.614 372.835 119.741 373.392 119.741ZM387.239 127.182C386.063 127.182 385.054 127.02 384.213 126.696C383.378 126.378 382.713 125.943 382.219 125.392C381.725 124.841 381.404 124.222 381.256 123.534L384.614 123.082C384.716 123.344 384.878 123.588 385.1 123.815C385.321 124.043 385.614 124.224 385.977 124.361C386.347 124.503 386.796 124.574 387.324 124.574C388.114 124.574 388.764 124.381 389.276 123.994C389.793 123.614 390.051 122.974 390.051 122.077V119.682H389.898C389.739 120.045 389.5 120.389 389.182 120.713C388.864 121.037 388.455 121.301 387.955 121.506C387.455 121.71 386.858 121.812 386.165 121.812C385.182 121.812 384.287 121.585 383.48 121.131C382.679 120.67 382.04 119.969 381.563 119.026C381.091 118.077 380.855 116.878 380.855 115.429C380.855 113.946 381.097 112.707 381.58 111.713C382.063 110.719 382.705 109.974 383.506 109.48C384.313 108.986 385.196 108.739 386.156 108.739C386.889 108.739 387.503 108.864 387.997 109.114C388.492 109.358 388.889 109.665 389.19 110.034C389.497 110.398 389.733 110.756 389.898 111.108H390.034V108.909H393.639V122.128C393.639 123.241 393.367 124.173 392.821 124.923C392.276 125.673 391.52 126.236 390.554 126.611C389.594 126.991 388.489 127.182 387.239 127.182ZM387.315 119.085C387.901 119.085 388.395 118.94 388.798 118.651C389.208 118.355 389.52 117.935 389.736 117.389C389.958 116.838 390.068 116.179 390.068 115.412C390.068 114.645 389.96 113.98 389.744 113.418C389.529 112.849 389.216 112.409 388.807 112.097C388.398 111.784 387.901 111.628 387.315 111.628C386.719 111.628 386.216 111.79 385.807 112.114C385.398 112.432 385.088 112.875 384.878 113.443C384.668 114.011 384.563 114.668 384.563 115.412C384.563 116.168 384.668 116.821 384.878 117.372C385.094 117.918 385.404 118.341 385.807 118.642C386.216 118.937 386.719 119.085 387.315 119.085ZM401.294 122.256C399.948 122.256 398.789 121.983 397.817 121.438C396.851 120.886 396.107 120.108 395.584 119.102C395.062 118.091 394.8 116.895 394.8 115.514C394.8 114.168 395.062 112.986 395.584 111.969C396.107 110.952 396.843 110.159 397.792 109.591C398.746 109.023 399.865 108.739 401.15 108.739C402.013 108.739 402.817 108.878 403.562 109.156C404.312 109.429 404.965 109.841 405.522 110.392C406.084 110.943 406.522 111.636 406.834 112.472C407.147 113.301 407.303 114.273 407.303 115.386V116.384H396.249V114.134H403.885C403.885 113.611 403.772 113.148 403.544 112.744C403.317 112.341 403.002 112.026 402.598 111.798C402.201 111.565 401.738 111.449 401.209 111.449C400.658 111.449 400.169 111.577 399.743 111.832C399.323 112.082 398.993 112.42 398.755 112.847C398.516 113.267 398.394 113.736 398.388 114.253V116.392C398.388 117.04 398.508 117.599 398.746 118.071C398.99 118.543 399.334 118.906 399.777 119.162C400.221 119.418 400.746 119.545 401.354 119.545C401.758 119.545 402.127 119.489 402.462 119.375C402.797 119.261 403.084 119.091 403.323 118.864C403.562 118.636 403.743 118.358 403.868 118.028L407.226 118.25C407.056 119.057 406.706 119.761 406.178 120.364C405.655 120.96 404.979 121.426 404.15 121.761C403.326 122.091 402.374 122.256 401.294 122.256ZM408.472 122V108.909H411.992V111.193H412.129C412.367 110.381 412.768 109.767 413.33 109.352C413.893 108.932 414.54 108.722 415.273 108.722C415.455 108.722 415.651 108.733 415.862 108.756C416.072 108.778 416.256 108.81 416.415 108.849V112.071C416.245 112.02 416.009 111.974 415.708 111.935C415.407 111.895 415.131 111.875 414.881 111.875C414.347 111.875 413.87 111.991 413.45 112.224C413.035 112.452 412.705 112.77 412.461 113.179C412.222 113.588 412.103 114.06 412.103 114.594V122H408.472Z" fill="white"/>
<rect x="104.816" y="179.205" width="414.821" height="54.0948" rx="2.27299" fill="#F3F4F6"/>
<path d="M128.771 212.252V200.398H136.488V202.069H130.649V205.633H135.851V207.304H130.649V212.252H128.771ZM140.008 212.443C139.361 212.443 138.793 212.3 138.305 212.013C137.817 211.716 137.435 211.308 137.16 210.788C136.894 210.258 136.762 209.648 136.762 208.958V203.644H138.56V208.799C138.56 209.192 138.639 209.536 138.798 209.833C138.958 210.13 139.18 210.364 139.467 210.534C139.753 210.693 140.082 210.772 140.453 210.772C140.835 210.772 141.169 210.687 141.456 210.518C141.742 210.348 141.965 210.109 142.124 209.802C142.294 209.494 142.378 209.133 142.378 208.72V203.644H144.16V212.252H142.458V210.565L142.649 210.788C142.447 211.319 142.113 211.727 141.646 212.013C141.18 212.3 140.633 212.443 140.008 212.443ZM145.464 212.252V200.207H147.262V212.252H145.464ZM148.569 212.252V200.207H150.367V212.252H148.569ZM153.834 212.252V200.398H155.345L161.996 209.579L161.28 209.69V200.398H163.142V212.252H161.63L155.027 203.008L155.711 202.88V212.252H153.834ZM167.203 212.443C166.62 212.443 166.105 212.342 165.66 212.141C165.225 211.928 164.885 211.642 164.641 211.281C164.398 210.91 164.276 210.475 164.276 209.977C164.276 209.51 164.376 209.091 164.578 208.72C164.79 208.348 165.113 208.036 165.548 207.781C165.983 207.526 166.53 207.346 167.187 207.24L170.178 206.747V208.163L167.537 208.624C167.06 208.709 166.71 208.863 166.487 209.086C166.264 209.298 166.153 209.574 166.153 209.913C166.153 210.242 166.275 210.512 166.519 210.725C166.774 210.926 167.097 211.027 167.49 211.027C167.977 211.027 168.402 210.921 168.762 210.709C169.134 210.496 169.42 210.215 169.622 209.865C169.823 209.505 169.924 209.107 169.924 208.672V206.46C169.924 206.036 169.765 205.691 169.447 205.426C169.139 205.15 168.725 205.012 168.206 205.012C167.728 205.012 167.309 205.14 166.949 205.394C166.599 205.638 166.339 205.957 166.169 206.349L164.673 205.601C164.832 205.177 165.092 204.806 165.453 204.487C165.814 204.159 166.233 203.904 166.71 203.724C167.198 203.543 167.712 203.453 168.253 203.453C168.932 203.453 169.531 203.58 170.051 203.835C170.582 204.09 170.99 204.445 171.276 204.901C171.573 205.347 171.722 205.866 171.722 206.46V212.252H170.003V210.693L170.369 210.74C170.168 211.09 169.908 211.393 169.59 211.647C169.282 211.902 168.927 212.098 168.524 212.236C168.131 212.374 167.691 212.443 167.203 212.443ZM173.029 212.252V203.644H174.747V205.506L174.524 205.219C174.704 204.636 175.033 204.196 175.511 203.899C175.988 203.602 176.534 203.453 177.149 203.453C177.839 203.453 178.449 203.639 178.979 204.01C179.52 204.371 179.881 204.853 180.061 205.458L179.552 205.506C179.807 204.816 180.194 204.302 180.713 203.962C181.244 203.623 181.848 203.453 182.527 203.453C183.121 203.453 183.657 203.591 184.134 203.867C184.622 204.143 185.009 204.525 185.296 205.012C185.582 205.5 185.725 206.057 185.725 206.683V212.252H183.928V207.176C183.928 206.741 183.848 206.376 183.689 206.079C183.54 205.771 183.328 205.538 183.052 205.378C182.787 205.209 182.474 205.124 182.114 205.124C181.753 205.124 181.435 205.209 181.159 205.378C180.883 205.538 180.666 205.771 180.507 206.079C180.348 206.386 180.268 206.752 180.268 207.176V212.252H178.486V207.176C178.486 206.741 178.406 206.376 178.247 206.079C178.099 205.771 177.887 205.538 177.611 205.378C177.346 205.209 177.027 205.124 176.656 205.124C176.296 205.124 175.977 205.209 175.702 205.378C175.426 205.538 175.208 205.771 175.049 206.079C174.901 206.386 174.826 206.752 174.826 207.176V212.252H173.029ZM190.896 212.443C190.036 212.443 189.273 212.247 188.604 211.854C187.947 211.451 187.432 210.91 187.061 210.231C186.69 209.542 186.504 208.773 186.504 207.924C186.504 207.054 186.69 206.285 187.061 205.617C187.443 204.949 187.952 204.424 188.589 204.042C189.225 203.649 189.946 203.453 190.752 203.453C191.399 203.453 191.978 203.565 192.487 203.787C192.996 204.01 193.425 204.318 193.776 204.71C194.126 205.092 194.391 205.532 194.571 206.031C194.762 206.529 194.857 207.06 194.857 207.622C194.857 207.76 194.852 207.903 194.842 208.051C194.831 208.2 194.81 208.338 194.778 208.465H187.92V207.033H193.76L192.9 207.686C193.006 207.166 192.969 206.704 192.789 206.301C192.619 205.888 192.354 205.564 191.993 205.331C191.643 205.087 191.23 204.965 190.752 204.965C190.275 204.965 189.851 205.087 189.48 205.331C189.108 205.564 188.822 205.903 188.62 206.349C188.419 206.784 188.339 207.314 188.382 207.94C188.329 208.523 188.408 209.033 188.62 209.468C188.843 209.902 189.151 210.242 189.543 210.486C189.946 210.73 190.402 210.852 190.912 210.852C191.431 210.852 191.871 210.735 192.232 210.502C192.603 210.268 192.895 209.966 193.107 209.595L194.571 210.311C194.401 210.714 194.136 211.08 193.776 211.409C193.425 211.727 193.001 211.981 192.503 212.172C192.015 212.353 191.479 212.443 190.896 212.443Z" fill="#9CA3AF"/>
<rect x="104.816" y="269.205" width="414.821" height="54.0948" rx="2.27299" fill="#F3F4F6"/>
<path d="M128.771 302.252V290.398H136.583V292.069H130.649V295.474H136.265V297.145H130.649V300.581H136.583V302.252H128.771ZM137.356 302.252V293.644H139.075V295.506L138.852 295.219C139.032 294.636 139.361 294.196 139.838 293.899C140.316 293.602 140.862 293.453 141.477 293.453C142.167 293.453 142.777 293.639 143.307 294.01C143.848 294.371 144.209 294.853 144.389 295.458L143.88 295.506C144.134 294.816 144.522 294.302 145.041 293.962C145.572 293.623 146.176 293.453 146.855 293.453C147.449 293.453 147.985 293.591 148.462 293.867C148.95 294.143 149.337 294.525 149.624 295.012C149.91 295.5 150.053 296.057 150.053 296.683V302.252H148.255V297.176C148.255 296.741 148.176 296.376 148.017 296.079C147.868 295.771 147.656 295.538 147.38 295.378C147.115 295.209 146.802 295.124 146.441 295.124C146.081 295.124 145.763 295.209 145.487 295.378C145.211 295.538 144.994 295.771 144.834 296.079C144.675 296.386 144.596 296.752 144.596 297.176V302.252H142.814V297.176C142.814 296.741 142.734 296.376 142.575 296.079C142.427 295.771 142.214 295.538 141.939 295.378C141.674 295.209 141.355 295.124 140.984 295.124C140.623 295.124 140.305 295.209 140.029 295.378C139.754 295.538 139.536 295.771 139.377 296.079C139.229 296.386 139.154 296.752 139.154 297.176V302.252H137.356ZM153.76 302.443C153.176 302.443 152.662 302.342 152.216 302.141C151.781 301.928 151.442 301.642 151.198 301.281C150.954 300.91 150.832 300.475 150.832 299.977C150.832 299.51 150.933 299.091 151.134 298.72C151.346 298.348 151.67 298.036 152.105 297.781C152.54 297.526 153.086 297.346 153.744 297.24L156.735 296.747V298.163L154.094 298.624C153.616 298.709 153.266 298.863 153.044 299.086C152.821 299.298 152.71 299.574 152.71 299.913C152.71 300.242 152.832 300.512 153.075 300.725C153.33 300.926 153.654 301.027 154.046 301.027C154.534 301.027 154.958 300.921 155.319 300.709C155.69 300.496 155.977 300.215 156.178 299.865C156.38 299.505 156.48 299.107 156.48 298.672V296.46C156.48 296.036 156.321 295.691 156.003 295.426C155.695 295.15 155.282 295.012 154.762 295.012C154.285 295.012 153.866 295.14 153.505 295.394C153.155 295.638 152.895 295.957 152.725 296.349L151.23 295.601C151.389 295.177 151.649 294.806 152.009 294.487C152.37 294.159 152.789 293.904 153.266 293.724C153.754 293.543 154.269 293.453 154.81 293.453C155.489 293.453 156.088 293.58 156.608 293.835C157.138 294.09 157.546 294.445 157.833 294.901C158.13 295.347 158.278 295.866 158.278 296.46V302.252H156.56V300.693L156.926 300.74C156.724 301.09 156.465 301.393 156.146 301.647C155.839 301.902 155.483 302.098 155.08 302.236C154.688 302.374 154.248 302.443 153.76 302.443ZM159.585 302.252V293.644H161.383V302.252H159.585ZM159.585 292.467V290.398H161.383V292.467H159.585ZM162.69 302.252V290.207H164.487V302.252H162.69Z" fill="#9CA3AF"/>
<rect x="104.816" y="359.205" width="414.821" height="54.0948" rx="2.27299" fill="#F3F4F6"/>
<path d="M128.771 392.252V380.398H133.083C133.878 380.398 134.579 380.547 135.183 380.844C135.798 381.13 136.276 381.555 136.615 382.117C136.955 382.668 137.124 383.331 137.124 384.106C137.124 384.869 136.949 385.527 136.599 386.079C136.26 386.63 135.788 387.054 135.183 387.351C134.579 387.648 133.878 387.797 133.083 387.797H130.649V392.252H128.771ZM130.649 386.126H133.131C133.555 386.126 133.926 386.041 134.244 385.872C134.563 385.702 134.812 385.469 134.992 385.172C135.173 384.864 135.263 384.503 135.263 384.09C135.263 383.676 135.173 383.321 134.992 383.024C134.812 382.716 134.563 382.483 134.244 382.324C133.926 382.154 133.555 382.069 133.131 382.069H130.649V386.126ZM140.105 392.443C139.521 392.443 139.007 392.342 138.561 392.141C138.127 391.928 137.787 391.642 137.543 391.281C137.299 390.91 137.177 390.475 137.177 389.977C137.177 389.51 137.278 389.091 137.48 388.72C137.692 388.348 138.015 388.036 138.45 387.781C138.885 387.526 139.431 387.346 140.089 387.24L143.08 386.747V388.163L140.439 388.624C139.962 388.709 139.612 388.863 139.389 389.086C139.166 389.298 139.055 389.574 139.055 389.913C139.055 390.242 139.177 390.512 139.421 390.725C139.675 390.926 139.999 391.027 140.391 391.027C140.879 391.027 141.303 390.921 141.664 390.709C142.035 390.496 142.322 390.215 142.523 389.865C142.725 389.505 142.826 389.107 142.826 388.672V386.46C142.826 386.036 142.666 385.691 142.348 385.426C142.041 385.15 141.627 385.012 141.107 385.012C140.63 385.012 140.211 385.14 139.85 385.394C139.5 385.638 139.24 385.957 139.071 386.349L137.575 385.601C137.734 385.177 137.994 384.806 138.355 384.487C138.715 384.159 139.134 383.904 139.612 383.724C140.1 383.543 140.614 383.453 141.155 383.453C141.834 383.453 142.433 383.58 142.953 383.835C143.483 384.09 143.892 384.445 144.178 384.901C144.475 385.347 144.624 385.866 144.624 386.46V392.252H142.905V390.693L143.271 390.74C143.07 391.09 142.81 391.393 142.491 391.647C142.184 391.902 141.829 392.098 141.425 392.236C141.033 392.374 140.593 392.443 140.105 392.443ZM149.112 392.443C148.232 392.443 147.458 392.225 146.789 391.791C146.132 391.356 145.67 390.772 145.405 390.04L146.789 389.388C147.023 389.876 147.341 390.263 147.744 390.549C148.158 390.836 148.614 390.979 149.112 390.979C149.537 390.979 149.881 390.884 150.147 390.693C150.412 390.502 150.544 390.242 150.544 389.913C150.544 389.701 150.486 389.531 150.369 389.404C150.253 389.266 150.104 389.155 149.924 389.07C149.754 388.985 149.579 388.921 149.399 388.879L148.046 388.497C147.304 388.285 146.747 387.967 146.376 387.542C146.015 387.107 145.835 386.604 145.835 386.031C145.835 385.511 145.967 385.06 146.233 384.678C146.498 384.286 146.864 383.984 147.33 383.771C147.797 383.559 148.322 383.453 148.906 383.453C149.691 383.453 150.391 383.649 151.006 384.042C151.621 384.424 152.056 384.959 152.311 385.649L150.926 386.301C150.757 385.888 150.486 385.559 150.115 385.315C149.754 385.071 149.346 384.949 148.89 384.949C148.497 384.949 148.184 385.044 147.951 385.235C147.718 385.416 147.601 385.654 147.601 385.951C147.601 386.153 147.654 386.322 147.76 386.46C147.866 386.588 148.004 386.694 148.174 386.779C148.343 386.853 148.518 386.916 148.699 386.97L150.099 387.383C150.81 387.585 151.356 387.903 151.738 388.338C152.12 388.762 152.311 389.271 152.311 389.865C152.311 390.374 152.173 390.825 151.897 391.218C151.632 391.6 151.26 391.902 150.783 392.125C150.306 392.337 149.749 392.443 149.112 392.443ZM156.459 392.443C155.578 392.443 154.804 392.225 154.136 391.791C153.478 391.356 153.017 390.772 152.752 390.04L154.136 389.388C154.369 389.876 154.687 390.263 155.09 390.549C155.504 390.836 155.96 390.979 156.459 390.979C156.883 390.979 157.228 390.884 157.493 390.693C157.758 390.502 157.891 390.242 157.891 389.913C157.891 389.701 157.832 389.531 157.716 389.404C157.599 389.266 157.451 389.155 157.27 389.07C157.101 388.985 156.926 388.921 156.745 388.879L155.393 388.497C154.65 388.285 154.093 387.967 153.722 387.542C153.361 387.107 153.181 386.604 153.181 386.031C153.181 385.511 153.314 385.06 153.579 384.678C153.844 384.286 154.21 383.984 154.677 383.771C155.143 383.559 155.669 383.453 156.252 383.453C157.037 383.453 157.737 383.649 158.352 384.042C158.967 384.424 159.402 384.959 159.657 385.649L158.273 386.301C158.103 385.888 157.832 385.559 157.461 385.315C157.101 385.071 156.692 384.949 156.236 384.949C155.844 384.949 155.531 385.044 155.297 385.235C155.064 385.416 154.947 385.654 154.947 385.951C154.947 386.153 155 386.322 155.106 386.46C155.212 386.588 155.35 386.694 155.52 386.779C155.69 386.853 155.865 386.916 156.045 386.97L157.445 387.383C158.156 387.585 158.702 387.903 159.084 388.338C159.466 388.762 159.657 389.271 159.657 389.865C159.657 390.374 159.519 390.825 159.243 391.218C158.978 391.6 158.607 391.902 158.129 392.125C157.652 392.337 157.095 392.443 156.459 392.443ZM162.552 392.252L159.592 383.644H161.502L163.761 390.502H163.093L165.4 383.644H167.039L169.33 390.502H168.662L170.937 383.644H172.846L169.871 392.252H168.248L165.925 385.235H166.514L164.191 392.252H162.552ZM177.281 392.443C176.453 392.443 175.695 392.247 175.005 391.854C174.327 391.462 173.786 390.926 173.383 390.247C172.979 389.568 172.778 388.799 172.778 387.94C172.778 387.07 172.979 386.301 173.383 385.633C173.786 384.954 174.327 384.424 175.005 384.042C175.684 383.649 176.443 383.453 177.281 383.453C178.129 383.453 178.888 383.649 179.556 384.042C180.235 384.424 180.771 384.954 181.163 385.633C181.566 386.301 181.768 387.07 181.768 387.94C181.768 388.81 181.566 389.584 181.163 390.263C180.76 390.942 180.219 391.478 179.54 391.87C178.861 392.252 178.108 392.443 177.281 392.443ZM177.281 390.772C177.79 390.772 178.241 390.65 178.633 390.406C179.026 390.162 179.333 389.828 179.556 389.404C179.789 388.969 179.906 388.481 179.906 387.94C179.906 387.399 179.789 386.916 179.556 386.492C179.333 386.068 179.026 385.734 178.633 385.49C178.241 385.246 177.79 385.124 177.281 385.124C176.782 385.124 176.331 385.246 175.928 385.49C175.536 385.734 175.223 386.068 174.99 386.492C174.767 386.916 174.655 387.399 174.655 387.94C174.655 388.481 174.767 388.969 174.99 389.404C175.223 389.828 175.536 390.162 175.928 390.406C176.331 390.65 176.782 390.772 177.281 390.772ZM182.727 392.252V383.644H184.446V385.378L184.287 385.124C184.478 384.562 184.785 384.159 185.209 383.915C185.634 383.66 186.143 383.533 186.737 383.533H187.262V385.172H186.514C185.92 385.172 185.438 385.357 185.066 385.728C184.706 386.089 184.525 386.609 184.525 387.288V392.252H182.727ZM191.674 392.443C190.847 392.443 190.104 392.247 189.447 391.854C188.8 391.451 188.285 390.91 187.903 390.231C187.532 389.552 187.346 388.789 187.346 387.94C187.346 387.092 187.537 386.328 187.919 385.649C188.301 384.97 188.815 384.434 189.463 384.042C190.11 383.649 190.841 383.453 191.658 383.453C192.348 383.453 192.958 383.591 193.488 383.867C194.018 384.143 194.437 384.525 194.745 385.012L194.474 385.426V380.207H196.256V392.252H194.554V390.502L194.761 390.836C194.464 391.356 194.04 391.753 193.488 392.029C192.936 392.305 192.332 392.443 191.674 392.443ZM191.849 390.772C192.348 390.772 192.793 390.65 193.186 390.406C193.589 390.162 193.902 389.828 194.124 389.404C194.358 388.969 194.474 388.481 194.474 387.94C194.474 387.399 194.358 386.916 194.124 386.492C193.902 386.068 193.589 385.734 193.186 385.49C192.793 385.246 192.348 385.124 191.849 385.124C191.351 385.124 190.9 385.246 190.497 385.49C190.094 385.734 189.781 386.068 189.558 386.492C189.335 386.916 189.224 387.399 189.224 387.94C189.224 388.481 189.335 388.969 189.558 389.404C189.781 389.828 190.088 390.162 190.481 390.406C190.884 390.65 191.34 390.772 191.849 390.772Z" fill="#9CA3AF"/>
<path d="M106.289 471.123V455.883H111.26C112.87 455.883 114.267 456.21 115.454 456.865C116.654 457.506 117.582 458.399 118.236 459.545C118.891 460.677 119.218 461.993 119.218 463.493C119.218 464.979 118.891 466.302 118.236 467.462C117.582 468.607 116.654 469.507 115.454 470.162C114.267 470.803 112.87 471.123 111.26 471.123H106.289ZM109.071 468.668H111.322C112.358 468.668 113.251 468.457 114.002 468.034C114.765 467.598 115.359 466.998 115.781 466.234C116.204 465.457 116.415 464.543 116.415 463.493C116.415 462.429 116.204 461.515 115.781 460.752C115.359 459.988 114.765 459.395 114.002 458.972C113.251 458.549 112.358 458.338 111.322 458.338H109.071V468.668ZM124.153 471.369C123.294 471.369 122.544 471.178 121.903 470.796C121.275 470.414 120.791 469.882 120.45 469.2C120.123 468.518 119.959 467.721 119.959 466.807V459.995H122.639V466.582C122.639 467.046 122.728 467.455 122.905 467.809C123.096 468.15 123.362 468.423 123.703 468.628C124.058 468.818 124.453 468.914 124.889 468.914C125.326 468.914 125.715 468.818 126.055 468.628C126.396 468.423 126.662 468.143 126.853 467.789C127.044 467.434 127.14 467.011 127.14 466.52V459.995H129.82V471.123H127.283V468.934L127.508 469.323C127.249 470.005 126.819 470.516 126.219 470.857C125.633 471.198 124.944 471.369 124.153 471.369ZM136.566 471.369C135.42 471.369 134.418 471.11 133.559 470.591C132.699 470.073 132.031 469.371 131.554 468.484C131.076 467.598 130.838 466.616 130.838 465.539C130.838 464.42 131.076 463.431 131.554 462.572C132.045 461.699 132.706 461.011 133.538 460.506C134.384 460.002 135.325 459.749 136.361 459.749C137.234 459.749 137.998 459.892 138.652 460.179C139.321 460.465 139.887 460.861 140.35 461.365C140.814 461.87 141.168 462.45 141.414 463.104C141.659 463.745 141.782 464.441 141.782 465.191C141.782 465.382 141.769 465.579 141.741 465.784C141.728 465.989 141.694 466.166 141.639 466.316H133.047V464.27H140.125L138.857 465.232C138.98 464.604 138.946 464.045 138.755 463.554C138.577 463.063 138.277 462.675 137.854 462.388C137.445 462.102 136.948 461.959 136.361 461.959C135.802 461.959 135.304 462.102 134.868 462.388C134.431 462.661 134.097 463.07 133.865 463.616C133.647 464.147 133.565 464.795 133.62 465.559C133.565 466.241 133.654 466.848 133.886 467.38C134.131 467.898 134.486 468.3 134.95 468.587C135.427 468.873 135.972 469.016 136.586 469.016C137.2 469.016 137.718 468.887 138.141 468.628C138.577 468.368 138.918 468.021 139.164 467.584L141.332 468.648C141.114 469.18 140.773 469.65 140.309 470.06C139.846 470.469 139.293 470.789 138.652 471.021C138.025 471.253 137.329 471.369 136.566 471.369ZM145.629 471.123V455.883H150.6C152.209 455.883 153.607 456.21 154.794 456.865C155.994 457.506 156.921 458.399 157.576 459.545C158.23 460.677 158.558 461.993 158.558 463.493C158.558 464.979 158.23 466.302 157.576 467.462C156.921 468.607 155.994 469.507 154.794 470.162C153.607 470.803 152.209 471.123 150.6 471.123H145.629ZM148.411 468.668H150.661C151.698 468.668 152.591 468.457 153.341 468.034C154.105 467.598 154.698 466.998 155.121 466.234C155.544 465.457 155.755 464.543 155.755 463.493C155.755 462.429 155.544 461.515 155.121 460.752C154.698 459.988 154.105 459.395 153.341 458.972C152.591 458.549 151.698 458.338 150.661 458.338H148.411V468.668ZM164.802 471.369C163.656 471.369 162.654 471.11 161.795 470.591C160.935 470.073 160.267 469.371 159.79 468.484C159.313 467.598 159.074 466.616 159.074 465.539C159.074 464.42 159.313 463.431 159.79 462.572C160.281 461.699 160.942 461.011 161.774 460.506C162.62 460.002 163.561 459.749 164.597 459.749C165.47 459.749 166.234 459.892 166.888 460.179C167.557 460.465 168.123 460.861 168.586 461.365C169.05 461.87 169.405 462.45 169.65 463.104C169.896 463.745 170.018 464.441 170.018 465.191C170.018 465.382 170.005 465.579 169.977 465.784C169.964 465.989 169.93 466.166 169.875 466.316H161.283V464.27H168.361L167.093 465.232C167.216 464.604 167.182 464.045 166.991 463.554C166.813 463.063 166.513 462.675 166.091 462.388C165.681 462.102 165.184 461.959 164.597 461.959C164.038 461.959 163.54 462.102 163.104 462.388C162.667 462.661 162.333 463.07 162.101 463.616C161.883 464.147 161.801 464.795 161.856 465.559C161.801 466.241 161.89 466.848 162.122 467.38C162.367 467.898 162.722 468.3 163.186 468.587C163.663 468.873 164.209 469.016 164.822 469.016C165.436 469.016 165.954 468.887 166.377 468.628C166.813 468.368 167.154 468.021 167.4 467.584L169.568 468.648C169.35 469.18 169.009 469.65 168.545 470.06C168.082 470.469 167.529 470.789 166.888 471.021C166.261 471.253 165.566 471.369 164.802 471.369ZM171.027 471.123V455.637H173.707V471.123H171.027ZM175.158 471.123V459.995H177.838V471.123H175.158ZM175.158 458.747V455.883H177.838V458.747H175.158ZM184.69 475.624C183.858 475.624 183.088 475.487 182.379 475.215C181.669 474.942 181.056 474.56 180.537 474.069C180.033 473.592 179.665 473.026 179.433 472.371L181.929 471.43C182.092 471.948 182.413 472.364 182.89 472.678C183.381 473.005 183.981 473.169 184.69 473.169C185.236 473.169 185.713 473.067 186.122 472.862C186.545 472.658 186.872 472.358 187.104 471.962C187.336 471.58 187.452 471.116 187.452 470.571V468.034L187.963 468.648C187.581 469.316 187.07 469.821 186.429 470.162C185.788 470.503 185.058 470.673 184.24 470.673C183.204 470.673 182.276 470.435 181.458 469.957C180.64 469.48 179.999 468.825 179.535 467.993C179.071 467.161 178.84 466.227 178.84 465.191C178.84 464.141 179.071 463.206 179.535 462.388C179.999 461.57 180.633 460.929 181.438 460.465C182.242 459.988 183.156 459.749 184.179 459.749C185.011 459.749 185.74 459.927 186.368 460.281C187.009 460.622 187.541 461.12 187.963 461.774L187.595 462.45V459.995H190.132V470.571C190.132 471.539 189.893 472.405 189.416 473.169C188.952 473.933 188.311 474.533 187.493 474.969C186.688 475.406 185.754 475.624 184.69 475.624ZM184.567 468.198C185.14 468.198 185.638 468.075 186.061 467.83C186.497 467.571 186.838 467.216 187.084 466.766C187.329 466.316 187.452 465.798 187.452 465.211C187.452 464.638 187.322 464.127 187.063 463.677C186.818 463.213 186.477 462.852 186.04 462.593C185.618 462.334 185.127 462.204 184.567 462.204C184.008 462.204 183.504 462.334 183.054 462.593C182.604 462.852 182.249 463.213 181.99 463.677C181.744 464.127 181.622 464.638 181.622 465.211C181.622 465.784 181.744 466.295 181.99 466.746C182.249 467.196 182.597 467.55 183.033 467.809C183.483 468.068 183.995 468.198 184.567 468.198ZM196.89 471.369C195.744 471.369 194.742 471.11 193.882 470.591C193.023 470.073 192.355 469.371 191.878 468.484C191.4 467.598 191.162 466.616 191.162 465.539C191.162 464.42 191.4 463.431 191.878 462.572C192.369 461.699 193.03 461.011 193.862 460.506C194.708 460.002 195.649 459.749 196.685 459.749C197.558 459.749 198.322 459.892 198.976 460.179C199.644 460.465 200.21 460.861 200.674 461.365C201.138 461.87 201.492 462.45 201.738 463.104C201.983 463.745 202.106 464.441 202.106 465.191C202.106 465.382 202.092 465.579 202.065 465.784C202.052 465.989 202.017 466.166 201.963 466.316H193.371V464.27H200.449L199.181 465.232C199.303 464.604 199.269 464.045 199.078 463.554C198.901 463.063 198.601 462.675 198.178 462.388C197.769 462.102 197.271 461.959 196.685 461.959C196.126 461.959 195.628 462.102 195.192 462.388C194.755 462.661 194.421 463.07 194.189 463.616C193.971 464.147 193.889 464.795 193.944 465.559C193.889 466.241 193.978 466.848 194.21 467.38C194.455 467.898 194.81 468.3 195.273 468.587C195.751 468.873 196.296 469.016 196.91 469.016C197.524 469.016 198.042 468.887 198.465 468.628C198.901 468.368 199.242 468.021 199.488 467.584L201.656 468.648C201.438 469.18 201.097 469.65 200.633 470.06C200.17 470.469 199.617 470.789 198.976 471.021C198.349 471.253 197.653 471.369 196.89 471.369ZM203.115 471.123V459.995H205.631V462.184L205.426 461.795C205.685 461.127 206.108 460.622 206.695 460.281C207.295 459.927 207.99 459.749 208.781 459.749C209.6 459.749 210.322 459.927 210.95 460.281C211.591 460.636 212.088 461.134 212.443 461.774C212.798 462.402 212.975 463.131 212.975 463.963V471.123H210.295V464.598C210.295 464.107 210.2 463.684 210.009 463.329C209.818 462.975 209.552 462.702 209.211 462.511C208.884 462.306 208.495 462.204 208.045 462.204C207.608 462.204 207.22 462.306 206.879 462.511C206.538 462.702 206.272 462.975 206.081 463.329C205.89 463.684 205.795 464.107 205.795 464.598V471.123H203.115ZM219.578 471.369C218.473 471.369 217.478 471.116 216.591 470.612C215.718 470.094 215.03 469.398 214.525 468.525C214.02 467.639 213.768 466.643 213.768 465.539C213.768 464.434 214.02 463.445 214.525 462.572C215.03 461.699 215.718 461.011 216.591 460.506C217.478 460.002 218.473 459.749 219.578 459.749C220.369 459.749 221.105 459.892 221.787 460.179C222.469 460.452 223.056 460.833 223.547 461.324C224.051 461.802 224.413 462.375 224.631 463.043L222.278 464.066C222.074 463.507 221.726 463.056 221.235 462.716C220.758 462.375 220.205 462.204 219.578 462.204C218.991 462.204 218.466 462.347 218.003 462.634C217.553 462.92 217.198 463.316 216.939 463.82C216.68 464.325 216.55 464.904 216.55 465.559C216.55 466.214 216.68 466.793 216.939 467.298C217.198 467.802 217.553 468.198 218.003 468.484C218.466 468.771 218.991 468.914 219.578 468.914C220.219 468.914 220.778 468.743 221.255 468.403C221.733 468.062 222.074 467.605 222.278 467.032L224.631 468.096C224.413 468.723 224.058 469.289 223.567 469.794C223.076 470.285 222.49 470.673 221.808 470.96C221.126 471.232 220.383 471.369 219.578 471.369ZM230.919 471.369C229.774 471.369 228.771 471.11 227.912 470.591C227.053 470.073 226.385 469.371 225.907 468.484C225.43 467.598 225.191 466.616 225.191 465.539C225.191 464.42 225.43 463.431 225.907 462.572C226.398 461.699 227.06 461.011 227.892 460.506C228.737 460.002 229.678 459.749 230.715 459.749C231.587 459.749 232.351 459.892 233.006 460.179C233.674 460.465 234.24 460.861 234.704 461.365C235.167 461.87 235.522 462.45 235.767 463.104C236.013 463.745 236.136 464.441 236.136 465.191C236.136 465.382 236.122 465.579 236.095 465.784C236.081 465.989 236.047 466.166 235.992 466.316H227.401V464.27H234.479L233.21 465.232C233.333 464.604 233.299 464.045 233.108 463.554C232.931 463.063 232.631 462.675 232.208 462.388C231.799 462.102 231.301 461.959 230.715 461.959C230.155 461.959 229.658 462.102 229.221 462.388C228.785 462.661 228.451 463.07 228.219 463.616C228.001 464.147 227.919 464.795 227.973 465.559C227.919 466.241 228.007 466.848 228.239 467.38C228.485 467.898 228.839 468.3 229.303 468.587C229.78 468.873 230.326 469.016 230.94 469.016C231.553 469.016 232.072 468.887 232.494 468.628C232.931 468.368 233.272 468.021 233.517 467.584L235.686 468.648C235.467 469.18 235.126 469.65 234.663 470.06C234.199 470.469 233.647 470.789 233.006 471.021C232.378 471.253 231.683 471.369 230.919 471.369Z" fill="#4B5563"/>
<rect x="104.816" y="488.123" width="388.681" height="11.3649" fill="#EEF3FD"/>
<rect x="104.816" y="519.945" width="388.681" height="11.3649" fill="#EEF3FD"/>
<path d="M520.573 491.631C519.528 491.026 518.315 490.681 517.021 490.681C513.098 490.681 509.918 493.861 509.918 497.784C509.918 501.707 513.098 504.887 517.021 504.887C520.944 504.887 524.124 501.707 524.124 497.784C524.124 497.297 524.075 496.822 523.982 496.363" stroke="#0E9F6E" stroke-width="1.06546" stroke-linecap="round"/>
<path d="M514.18 498.139C514.18 498.139 515.245 498.139 516.666 500.625C516.666 500.625 520.614 494.114 524.124 492.811" stroke="#0E9F6E" stroke-width="1.06546" stroke-linecap="round" stroke-linejoin="round"/>
<path d="M520.573 521.18C519.528 520.575 518.315 520.229 517.021 520.229C513.098 520.229 509.918 523.41 509.918 527.332C509.918 531.255 513.098 534.436 517.021 534.436C520.944 534.436 524.124 531.255 524.124 527.332C524.124 526.846 524.075 526.371 523.982 525.912" stroke="#0E9F6E" stroke-width="1.06546" stroke-linecap="round"/>
<path d="M514.18 527.687C514.18 527.687 515.245 527.687 516.666 530.174C516.666 530.174 520.614 523.662 524.124 522.36" stroke="#0E9F6E" stroke-width="1.06546" stroke-linecap="round" stroke-linejoin="round"/>
</g>
</g>
<defs>
<filter id="filter0_d_774_18408" x="71.7707" y="61.5312" width="483.102" height="678.487" filterUnits="userSpaceOnUse" color-interpolation-filters="sRGB">
<feFlood flood-opacity="0" result="BackgroundImageFix"/>
<feColorMatrix in="SourceAlpha" type="matrix" values="0 0 0 0 0 0 0 0 0 0 0 0 0 0 0 0 0 0 127 0" result="hardAlpha"/>
<feMorphology radius="13.6379" operator="erode" in="SourceAlpha" result="effect1_dropShadow_774_18408"/>
<feOffset dx="-16"/>
<feColorMatrix type="matrix" values="0 0 0 0 0.25098 0 0 0 0 0.482353 0 0 0 0 1 0 0 0 0.1 0"/>
<feBlend mode="normal" in2="BackgroundImageFix" result="effect1_dropShadow_774_18408"/>
<feBlend mode="normal" in="SourceGraphic" in2="effect1_dropShadow_774_18408" result="shape"/>
</filter>
<linearGradient id="paint0_linear_774_18408" x1="327" y1="-112.5" x2="315" y2="534" gradientUnits="userSpaceOnUse">
<stop stop-color="#EEF3FD"/>
<stop offset="1" stop-color="white"/>
</linearGradient>
<clipPath id="clip0_774_18408">
<rect width="629" height="541" rx="16" fill="white"/>
</clipPath>
</defs>
</svg>
