<svg width="629" height="541" viewBox="0 0 629 541" fill="none" xmlns="http://www.w3.org/2000/svg">
<rect width="629" height="541" rx="16" fill="#F4F7FE"/>
<g filter="url(#filter0_d_774_18514)">
<rect x="42" y="72" width="521.836" height="397.694" rx="7.17105" fill="url(#paint0_linear_774_18514)" shape-rendering="crispEdges"/>
<path d="M66.8782 101.84H63.8965V109.533H62.3476V101.84H59.3787V100.381H66.8782V101.84ZM68.3071 107.855C68.6513 108.208 69.0686 108.384 69.5591 108.384C70.0496 108.384 70.4627 108.208 70.7983 107.855C71.1425 107.502 71.3146 107.011 71.3146 106.383C71.3146 105.764 71.1425 105.282 70.7983 104.938C70.4627 104.585 70.0496 104.408 69.5591 104.408C69.0686 104.408 68.6513 104.585 68.3071 104.938C67.9715 105.282 67.8037 105.764 67.8037 106.383C67.8037 107.003 67.9715 107.493 68.3071 107.855ZM69.5591 103.053C70.5057 103.053 71.2845 103.367 71.8955 103.995C72.515 104.623 72.8248 105.419 72.8248 106.383C72.8248 107.347 72.515 108.147 71.8955 108.784C71.2845 109.412 70.5057 109.726 69.5591 109.726C68.6212 109.726 67.8424 109.412 67.2228 108.784C66.6118 108.147 66.3063 107.347 66.3063 106.383C66.3063 105.419 66.6118 104.623 67.2228 103.995C67.8424 103.367 68.6212 103.053 69.5591 103.053ZM76.1315 101.323V103.247H77.4352V104.576H76.1315V107.493C76.1315 107.769 76.196 107.971 76.3251 108.1C76.4542 108.22 76.6564 108.281 76.9318 108.281C77.1039 108.281 77.276 108.263 77.4481 108.229V109.468C77.2243 109.563 76.9189 109.61 76.5316 109.61C75.9465 109.61 75.4861 109.447 75.1505 109.12C74.8149 108.784 74.6471 108.324 74.6471 107.739V104.576H73.4854V103.247H73.808C74.1264 103.247 74.3674 103.156 74.5309 102.976C74.6944 102.795 74.7761 102.558 74.7761 102.266V101.323H76.1315ZM78.599 107.829C78.599 107.295 78.7711 106.869 79.1153 106.551C79.4681 106.224 79.9285 106.017 80.4965 105.931L82.1099 105.686C82.4197 105.643 82.5746 105.493 82.5746 105.234C82.5746 104.95 82.4757 104.722 82.2777 104.55C82.0798 104.37 81.7829 104.279 81.3871 104.279C81.0085 104.279 80.7073 104.387 80.4835 104.602C80.2598 104.808 80.1307 105.079 80.0963 105.415L78.7281 105.105C78.7883 104.537 79.0594 104.055 79.5413 103.66C80.0232 103.255 80.6341 103.053 81.3742 103.053C82.2863 103.053 82.9576 103.272 83.3878 103.711C83.8267 104.15 84.0461 104.714 84.0461 105.402V108.526C84.0461 108.939 84.0719 109.275 84.1236 109.533H82.7295C82.6865 109.404 82.665 109.137 82.665 108.732C82.2519 109.395 81.6065 109.726 80.7288 109.726C80.092 109.726 79.5757 109.541 79.1798 109.171C78.7926 108.793 78.599 108.345 78.599 107.829ZM81.0128 108.552C81.4775 108.552 81.8518 108.427 82.1358 108.177C82.4283 107.919 82.5746 107.502 82.5746 106.925V106.641L80.9353 106.887C80.376 106.981 80.0963 107.265 80.0963 107.739C80.0963 107.962 80.1781 108.156 80.3416 108.319C80.5051 108.474 80.7288 108.552 81.0128 108.552ZM87.3535 109.533H85.8562V100.187H87.3535V109.533ZM94.1646 109.533H92.6157V100.381H98.308V101.84H94.1646V104.408H97.8821V105.841H94.1646V109.533ZM103.221 108.836C103.075 109.111 102.834 109.326 102.499 109.481C102.172 109.636 101.819 109.713 101.44 109.713C100.709 109.713 100.128 109.477 99.6975 109.003C99.2759 108.53 99.0651 107.932 99.0651 107.209V103.247H100.562V106.938C100.562 107.36 100.666 107.704 100.872 107.971C101.079 108.238 101.397 108.371 101.827 108.371C102.249 108.371 102.572 108.242 102.795 107.984C103.028 107.726 103.144 107.386 103.144 106.964V103.247H104.641V108.384C104.641 108.763 104.663 109.145 104.706 109.533H103.273C103.239 109.343 103.221 109.111 103.221 108.836ZM108.077 105.906V109.533H106.579V103.247H108.038V104.086C108.236 103.741 108.498 103.488 108.825 103.324C109.161 103.152 109.518 103.066 109.897 103.066C110.637 103.066 111.2 103.298 111.588 103.763C111.975 104.228 112.168 104.826 112.168 105.557V109.533H110.671V105.815C110.671 105.394 110.568 105.058 110.361 104.808C110.155 104.55 109.828 104.421 109.38 104.421C108.967 104.421 108.645 104.563 108.412 104.847C108.189 105.123 108.077 105.475 108.077 105.906ZM114.998 106.37C114.998 106.973 115.153 107.459 115.463 107.829C115.773 108.19 116.181 108.371 116.689 108.371C117.18 108.371 117.58 108.186 117.89 107.816C118.199 107.446 118.354 106.96 118.354 106.357C118.354 105.764 118.204 105.29 117.902 104.938C117.601 104.585 117.201 104.408 116.702 104.408C116.203 104.408 115.794 104.589 115.476 104.95C115.157 105.303 114.998 105.777 114.998 106.37ZM119.8 100.187V108.384C119.8 108.806 119.821 109.189 119.864 109.533H118.432C118.389 109.292 118.367 109.021 118.367 108.72C118.212 109.003 117.971 109.236 117.644 109.417C117.317 109.597 116.943 109.688 116.521 109.688C115.626 109.688 114.899 109.374 114.34 108.745C113.78 108.117 113.501 107.325 113.501 106.37C113.501 105.45 113.78 104.671 114.34 104.034C114.908 103.397 115.626 103.079 116.495 103.079C116.995 103.079 117.395 103.169 117.696 103.35C118.006 103.531 118.221 103.741 118.341 103.982V100.187H119.8ZM129.708 109.533L127.785 105.919H126.649V109.533H125.087V100.381H128.598C129.459 100.381 130.151 100.648 130.676 101.181C131.201 101.706 131.464 102.365 131.464 103.156C131.464 103.81 131.279 104.37 130.909 104.834C130.539 105.299 130.035 105.609 129.398 105.764L131.464 109.533H129.708ZM126.649 104.55H128.314C128.787 104.55 129.166 104.425 129.45 104.176C129.743 103.918 129.889 103.578 129.889 103.156C129.889 102.726 129.743 102.386 129.45 102.136C129.166 101.878 128.787 101.749 128.314 101.749H126.649V104.55ZM132.512 107.829C132.512 107.295 132.684 106.869 133.028 106.551C133.381 106.224 133.842 106.017 134.41 105.931L136.023 105.686C136.333 105.643 136.488 105.493 136.488 105.234C136.488 104.95 136.389 104.722 136.191 104.55C135.993 104.37 135.696 104.279 135.3 104.279C134.922 104.279 134.62 104.387 134.397 104.602C134.173 104.808 134.044 105.079 134.009 105.415L132.641 105.105C132.701 104.537 132.973 104.055 133.454 103.66C133.936 103.255 134.547 103.053 135.287 103.053C136.199 103.053 136.871 103.272 137.301 103.711C137.74 104.15 137.959 104.714 137.959 105.402V108.526C137.959 108.939 137.985 109.275 138.037 109.533H136.643C136.6 109.404 136.578 109.137 136.578 108.732C136.165 109.395 135.52 109.726 134.642 109.726C134.005 109.726 133.489 109.541 133.093 109.171C132.706 108.793 132.512 108.345 132.512 107.829ZM134.926 108.552C135.391 108.552 135.765 108.427 136.049 108.177C136.341 107.919 136.488 107.502 136.488 106.925V106.641L134.848 106.887C134.289 106.981 134.009 107.265 134.009 107.739C134.009 107.962 134.091 108.156 134.255 108.319C134.418 108.474 134.642 108.552 134.926 108.552ZM141.254 109.533H139.769V103.247H141.254V109.533ZM139.821 101.723C139.632 101.534 139.537 101.306 139.537 101.039C139.537 100.773 139.632 100.545 139.821 100.355C140.01 100.157 140.238 100.058 140.505 100.058C140.78 100.058 141.013 100.153 141.202 100.342C141.391 100.532 141.486 100.764 141.486 101.039C141.486 101.306 141.391 101.534 141.202 101.723C141.013 101.913 140.78 102.007 140.505 102.007C140.238 102.007 140.01 101.913 139.821 101.723ZM142.63 107.829L143.934 107.467C143.96 107.769 144.085 108.022 144.308 108.229C144.532 108.436 144.833 108.539 145.212 108.539C145.504 108.539 145.733 108.47 145.896 108.332C146.068 108.195 146.154 108.022 146.154 107.816C146.154 107.455 145.909 107.222 145.418 107.119L144.489 106.912C143.947 106.792 143.53 106.568 143.237 106.241C142.944 105.914 142.798 105.527 142.798 105.079C142.798 104.529 143.022 104.055 143.469 103.66C143.917 103.255 144.463 103.053 145.109 103.053C145.522 103.053 145.887 103.113 146.206 103.234C146.524 103.354 146.769 103.513 146.942 103.711C147.122 103.901 147.26 104.086 147.355 104.266C147.449 104.447 147.509 104.628 147.535 104.808L146.27 105.17C146.236 104.929 146.124 104.714 145.935 104.524C145.754 104.327 145.479 104.228 145.109 104.228C144.85 104.228 144.635 104.301 144.463 104.447C144.291 104.585 144.205 104.752 144.205 104.95C144.205 105.303 144.416 105.523 144.838 105.609L145.793 105.802C146.378 105.931 146.825 106.164 147.135 106.499C147.445 106.835 147.6 107.239 147.6 107.713C147.6 108.238 147.389 108.707 146.967 109.12C146.554 109.524 145.973 109.726 145.225 109.726C144.795 109.726 144.407 109.662 144.063 109.533C143.727 109.404 143.461 109.24 143.263 109.042C143.073 108.836 142.923 108.633 142.811 108.436C142.708 108.229 142.648 108.027 142.63 107.829ZM150.092 105.699H153.177C153.16 105.303 153.018 104.972 152.751 104.705C152.493 104.438 152.119 104.305 151.628 104.305C151.181 104.305 150.82 104.447 150.544 104.731C150.269 105.006 150.118 105.329 150.092 105.699ZM153.345 107.338L154.61 107.739C154.429 108.315 154.09 108.793 153.59 109.171C153.1 109.541 152.493 109.726 151.77 109.726C150.875 109.726 150.114 109.421 149.486 108.81C148.866 108.199 148.556 107.381 148.556 106.357C148.556 105.394 148.858 104.602 149.46 103.982C150.071 103.363 150.789 103.053 151.616 103.053C152.579 103.053 153.332 103.35 153.874 103.944C154.417 104.529 154.688 105.32 154.688 106.319C154.688 106.585 154.675 106.745 154.649 106.796H150.054C150.071 107.27 150.243 107.661 150.57 107.971C150.906 108.281 151.306 108.436 151.77 108.436C152.579 108.436 153.104 108.07 153.345 107.338ZM157.125 106.37C157.125 106.973 157.28 107.459 157.59 107.829C157.9 108.19 158.308 108.371 158.816 108.371C159.307 108.371 159.707 108.186 160.017 107.816C160.326 107.446 160.481 106.96 160.481 106.357C160.481 105.764 160.331 105.29 160.03 104.938C159.728 104.585 159.328 104.408 158.829 104.408C158.33 104.408 157.921 104.589 157.603 104.95C157.284 105.303 157.125 105.777 157.125 106.37ZM161.927 100.187V108.384C161.927 108.806 161.949 109.189 161.992 109.533H160.559C160.516 109.292 160.494 109.021 160.494 108.72C160.339 109.003 160.098 109.236 159.771 109.417C159.444 109.597 159.07 109.688 158.648 109.688C157.753 109.688 157.026 109.374 156.467 108.745C155.908 108.117 155.628 107.325 155.628 106.37C155.628 105.45 155.908 104.671 156.467 104.034C157.035 103.397 157.753 103.079 158.623 103.079C159.122 103.079 159.522 103.169 159.823 103.35C160.133 103.531 160.348 103.741 160.468 103.982V100.187H161.927Z" fill="#1D1D21"/>
<path d="M67.3343 145.954H65.2231V143.545C63.7392 143.361 62.5766 142.818 61.7351 141.916C60.8937 141.013 60.4118 140.011 60.2895 138.91L62.8596 138.198C62.9208 138.917 63.1502 139.552 63.548 140.103C63.9457 140.638 64.5041 140.99 65.2231 141.158V136.936L64.8101 136.844C63.5709 136.569 62.5995 136.072 61.8958 135.353C61.2074 134.634 60.8631 133.723 60.8631 132.622C60.8631 131.49 61.2686 130.503 62.0794 129.662C62.9055 128.805 63.9534 128.293 65.2231 128.124V125.692H67.3343V128.147C68.5735 128.346 69.5296 128.813 70.2027 129.547C70.8911 130.266 71.3271 131.077 71.5107 131.979L69.0324 132.76C68.8488 131.673 68.2828 130.947 67.3343 130.58V134.687L67.5408 134.733C68.8718 135.024 69.8891 135.559 70.5928 136.339C71.3118 137.12 71.6714 138.038 71.6714 139.093C71.6714 140.179 71.2889 141.143 70.524 141.984C69.7591 142.826 68.6958 143.338 67.3343 143.522V145.954ZM63.548 132.461C63.548 132.89 63.6857 133.272 63.961 133.609C64.2517 133.93 64.6724 134.144 65.2231 134.251V130.488C64.6877 130.626 64.2747 130.878 63.984 131.245C63.6933 131.597 63.548 132.002 63.548 132.461ZM69.0095 139.231C69.0095 138.313 68.4511 137.701 67.3343 137.395V141.158C67.885 141.051 68.2981 140.822 68.5735 140.47C68.8641 140.103 69.0095 139.69 69.0095 139.231ZM79.1726 134.595C79.9069 134.58 80.4959 134.374 80.9396 133.976C81.3985 133.563 81.628 133.043 81.628 132.415C81.628 131.834 81.3985 131.337 80.9396 130.924C80.4959 130.511 79.9069 130.304 79.1726 130.304C78.4383 130.304 77.8493 130.511 77.4057 130.924C76.962 131.337 76.7402 131.834 76.7402 132.415C76.7402 133.043 76.962 133.563 77.4057 133.976C77.8493 134.374 78.4383 134.58 79.1726 134.595ZM79.1726 141.296C80.0446 141.296 80.7254 141.082 81.2149 140.654C81.7198 140.21 81.9722 139.667 81.9722 139.024C81.9722 138.382 81.7198 137.839 81.2149 137.395C80.7254 136.951 80.0446 136.73 79.1726 136.73C78.3159 136.73 77.6352 136.951 77.1303 137.395C76.6408 137.839 76.396 138.382 76.396 139.024C76.396 139.667 76.6408 140.21 77.1303 140.654C77.6352 141.082 78.3159 141.296 79.1726 141.296ZM79.1726 143.614C77.5051 143.614 76.1665 143.208 75.1568 142.398C74.1625 141.587 73.6653 140.554 73.6653 139.3C73.6653 138.474 73.9177 137.732 74.4225 137.074C74.9427 136.401 75.6081 135.926 76.4189 135.651C75.7152 135.391 75.1339 134.947 74.675 134.32C74.2313 133.678 74.0095 132.989 74.0095 132.255C74.0095 131.016 74.4914 130.006 75.4552 129.226C76.4342 128.446 77.6734 128.055 79.1726 128.055C80.6719 128.055 81.911 128.446 82.8901 129.226C83.8692 130.006 84.3587 131.016 84.3587 132.255C84.3587 132.974 84.1293 133.655 83.6703 134.297C83.2267 134.94 82.653 135.391 81.9493 135.651C82.7448 135.942 83.4026 136.416 83.9227 137.074C84.4429 137.732 84.7029 138.474 84.7029 139.3C84.7029 140.554 84.1981 141.587 83.1884 142.398C82.194 143.208 80.8554 143.614 79.1726 143.614ZM89.3279 135.835C89.3279 137.762 89.6798 139.177 90.3835 140.08C90.9342 140.814 91.6991 141.181 92.6782 141.181C93.6267 141.181 94.3916 140.814 94.973 140.08C95.6614 139.193 96.0056 137.777 96.0056 135.835C96.0056 133.892 95.6614 132.477 94.973 131.589C94.3916 130.855 93.6267 130.488 92.6782 130.488C91.6991 130.488 90.9342 130.855 90.3835 131.589C89.6798 132.461 89.3279 133.876 89.3279 135.835ZM87.9281 141.181C87.0408 139.85 86.5972 138.068 86.5972 135.835C86.5972 133.601 87.0408 131.819 87.9281 130.488C89.0143 128.866 90.5977 128.055 92.6782 128.055C94.7435 128.055 96.3192 128.866 97.4054 130.488C98.2927 131.819 98.7363 133.601 98.7363 135.835C98.7363 138.068 98.2927 139.85 97.4054 141.181C96.3192 142.803 94.7435 143.614 92.6782 143.614C90.5977 143.614 89.0143 142.803 87.9281 141.181ZM100.919 142.879C100.567 142.512 100.391 142.069 100.391 141.548C100.391 141.028 100.567 140.585 100.919 140.218C101.286 139.85 101.729 139.667 102.25 139.667C102.77 139.667 103.213 139.85 103.581 140.218C103.948 140.585 104.131 141.028 104.131 141.548C104.131 142.069 103.948 142.512 103.581 142.879C103.213 143.231 102.77 143.407 102.25 143.407C101.729 143.407 101.286 143.231 100.919 142.879ZM111.958 134.595C112.692 134.58 113.281 134.374 113.725 133.976C114.184 133.563 114.413 133.043 114.413 132.415C114.413 131.834 114.184 131.337 113.725 130.924C113.281 130.511 112.692 130.304 111.958 130.304C111.223 130.304 110.634 130.511 110.191 130.924C109.747 131.337 109.525 131.834 109.525 132.415C109.525 133.043 109.747 133.563 110.191 133.976C110.634 134.374 111.223 134.58 111.958 134.595ZM111.958 141.296C112.83 141.296 113.511 141.082 114 140.654C114.505 140.21 114.757 139.667 114.757 139.024C114.757 138.382 114.505 137.839 114 137.395C113.511 136.951 112.83 136.73 111.958 136.73C111.101 136.73 110.42 136.951 109.915 137.395C109.426 137.839 109.181 138.382 109.181 139.024C109.181 139.667 109.426 140.21 109.915 140.654C110.42 141.082 111.101 141.296 111.958 141.296ZM111.958 143.614C110.29 143.614 108.952 143.208 107.942 142.398C106.948 141.587 106.45 140.554 106.45 139.3C106.45 138.474 106.703 137.732 107.208 137.074C107.728 136.401 108.393 135.926 109.204 135.651C108.5 135.391 107.919 134.947 107.46 134.32C107.016 133.678 106.795 132.989 106.795 132.255C106.795 131.016 107.277 130.006 108.24 129.226C109.219 128.446 110.459 128.055 111.958 128.055C113.457 128.055 114.696 128.446 115.675 129.226C116.654 130.006 117.144 131.016 117.144 132.255C117.144 132.974 116.914 133.655 116.455 134.297C116.012 134.94 115.438 135.391 114.734 135.651C115.53 135.942 116.188 136.416 116.708 137.074C117.228 137.732 117.488 138.474 117.488 139.3C117.488 140.554 116.983 141.587 115.974 142.398C114.979 143.208 113.641 143.614 111.958 143.614ZM119.174 140.011V137.028L125.508 128.4H129.042V137.579H131.543V140.011H129.042V143.27H126.334V140.011H119.174ZM126.334 137.579V131.176L121.653 137.579H126.334ZM135.511 133.976L132.849 133.792C132.803 133.379 132.78 133.096 132.78 132.943C132.78 131.597 133.254 130.45 134.203 129.501C135.167 128.537 136.459 128.055 138.081 128.055C139.672 128.055 140.942 128.507 141.89 129.409C142.839 130.312 143.313 131.421 143.313 132.737C143.313 134.634 142.357 136.171 140.444 137.349L137.553 139.139C136.712 139.644 136.207 140.21 136.039 140.837H143.405V143.27H132.642C132.673 141.939 132.956 140.776 133.491 139.782C134.027 138.787 134.922 137.9 136.176 137.12L138.632 135.582C139.901 134.787 140.536 133.853 140.536 132.783C140.536 132.125 140.314 131.574 139.871 131.13C139.442 130.687 138.83 130.465 138.035 130.465C137.194 130.465 136.551 130.725 136.107 131.245C135.664 131.75 135.442 132.408 135.442 133.219L135.511 133.976ZM146.276 142.879C145.924 142.512 145.748 142.069 145.748 141.548C145.748 141.028 145.924 140.585 146.276 140.218C146.643 139.85 147.086 139.667 147.607 139.667C148.127 139.667 148.57 139.85 148.937 140.218C149.305 140.585 149.488 141.028 149.488 141.548C149.488 142.069 149.305 142.512 148.937 142.879C148.57 143.231 148.127 143.407 147.607 143.407C147.086 143.407 146.643 143.231 146.276 142.879ZM151.735 139.162L154.328 138.496C154.389 139.307 154.695 139.973 155.246 140.493C155.796 141.013 156.492 141.273 157.334 141.273C158.129 141.273 158.795 141.028 159.33 140.539C159.881 140.034 160.156 139.376 160.156 138.565C160.156 137.693 159.881 137.02 159.33 136.546C158.78 136.056 158.099 135.812 157.288 135.812C156.248 135.812 155.422 136.156 154.81 136.844L152.217 135.903L154.052 128.4H162.199V130.809H155.911L154.993 134.572C155.651 133.884 156.6 133.54 157.839 133.54C159.353 133.54 160.577 133.983 161.51 134.871C162.459 135.758 162.933 136.967 162.933 138.496C162.933 139.935 162.421 141.151 161.396 142.145C160.371 143.139 159.017 143.637 157.334 143.637C155.773 143.637 154.473 143.201 153.433 142.329C152.393 141.441 151.826 140.386 151.735 139.162ZM167.265 133.976L164.603 133.792C164.557 133.379 164.534 133.096 164.534 132.943C164.534 131.597 165.009 130.45 165.957 129.501C166.921 128.537 168.214 128.055 169.835 128.055C171.426 128.055 172.696 128.507 173.644 129.409C174.593 130.312 175.067 131.421 175.067 132.737C175.067 134.634 174.111 136.171 172.199 137.349L169.307 139.139C168.466 139.644 167.961 140.21 167.793 140.837H175.159V143.27H164.397C164.427 141.939 164.71 140.776 165.246 139.782C165.781 138.787 166.676 137.9 167.931 137.12L170.386 135.582C171.656 134.787 172.291 133.853 172.291 132.783C172.291 132.125 172.069 131.574 171.625 131.13C171.197 130.687 170.585 130.465 169.789 130.465C168.948 130.465 168.305 130.725 167.862 131.245C167.418 131.75 167.196 132.408 167.196 133.219L167.265 133.976Z" fill="#1D1D21"/>
<rect x="428.958" y="95.8913" width="117.309" height="25.7566" rx="3.94408" stroke="#D6D6D6" stroke-width="0.717105"/>
<path d="M445.515 106.768L444.631 107.079C444.584 106.771 444.434 106.493 444.179 106.246C443.925 105.992 443.574 105.864 443.125 105.864C442.73 105.864 442.402 105.978 442.141 106.206C441.88 106.433 441.75 106.714 441.75 107.049C441.75 107.31 441.827 107.531 441.981 107.712C442.141 107.892 442.369 108.016 442.663 108.083L443.728 108.314C444.317 108.441 444.772 108.682 445.093 109.037C445.414 109.385 445.575 109.81 445.575 110.312C445.575 110.887 445.347 111.383 444.892 111.798C444.437 112.213 443.845 112.42 443.115 112.42C442.319 112.42 441.693 112.213 441.238 111.798C440.789 111.376 440.528 110.877 440.455 110.302L441.398 110.001C441.439 110.429 441.606 110.79 441.9 111.085C442.195 111.379 442.596 111.527 443.105 111.527C443.574 111.527 443.935 111.42 444.189 111.205C444.444 110.991 444.571 110.72 444.571 110.392C444.571 110.124 444.481 109.894 444.3 109.699C444.119 109.499 443.855 109.361 443.507 109.288L442.493 109.067C441.964 108.953 441.542 108.729 441.228 108.394C440.913 108.06 440.756 107.635 440.756 107.119C440.756 106.557 440.983 106.065 441.439 105.643C441.9 105.215 442.456 105.001 443.105 105.001C443.835 105.001 444.394 105.178 444.782 105.533C445.17 105.888 445.414 106.299 445.515 106.768ZM447.342 109.358H449.982C449.969 108.997 449.848 108.702 449.621 108.475C449.393 108.24 449.072 108.123 448.657 108.123C448.282 108.123 447.974 108.247 447.733 108.495C447.492 108.736 447.362 109.023 447.342 109.358ZM450.123 110.613L450.936 110.894C450.795 111.343 450.534 111.711 450.153 111.998C449.771 112.28 449.31 112.42 448.768 112.42C448.092 112.42 447.516 112.189 447.041 111.727C446.572 111.259 446.338 110.63 446.338 109.84C446.338 109.104 446.566 108.495 447.021 108.013C447.476 107.531 448.018 107.29 448.647 107.29C449.377 107.29 449.945 107.521 450.354 107.983C450.762 108.438 450.966 109.05 450.966 109.82C450.966 109.94 450.959 110.041 450.946 110.121H447.312C447.318 110.549 447.459 110.901 447.733 111.175C448.015 111.45 448.359 111.587 448.768 111.587C449.457 111.587 449.909 111.262 450.123 110.613ZM453.104 114.177H452.171V107.441H453.084V108.194C453.225 107.939 453.436 107.732 453.717 107.571C453.998 107.41 454.326 107.33 454.701 107.33C455.397 107.33 455.939 107.568 456.327 108.043C456.722 108.518 456.919 109.12 456.919 109.85C456.919 110.586 456.715 111.195 456.307 111.677C455.905 112.159 455.36 112.4 454.671 112.4C454.316 112.4 454.001 112.326 453.727 112.179C453.453 112.032 453.245 111.845 453.104 111.617V114.177ZM455.956 109.85C455.956 109.361 455.825 108.96 455.564 108.645C455.31 108.324 454.965 108.163 454.53 108.163C454.102 108.163 453.754 108.324 453.486 108.645C453.225 108.96 453.094 109.361 453.094 109.85C453.094 110.352 453.225 110.764 453.486 111.085C453.754 111.399 454.102 111.557 454.53 111.557C454.958 111.557 455.303 111.399 455.564 111.085C455.825 110.764 455.956 110.352 455.956 109.85ZM459.338 105.915V107.441H460.382V108.294H459.338V110.804C459.338 111.031 459.388 111.199 459.488 111.306C459.596 111.413 459.77 111.466 460.011 111.466C460.151 111.466 460.275 111.453 460.382 111.426V112.229C460.221 112.29 460.007 112.32 459.739 112.32C459.325 112.32 458.997 112.199 458.756 111.958C458.515 111.717 458.394 111.379 458.394 110.944V108.294H457.471V107.441H457.732C457.979 107.441 458.163 107.374 458.284 107.24C458.411 107.099 458.474 106.918 458.474 106.698V105.915H459.338ZM465.396 106.908C465.015 107.31 464.824 108.013 464.824 109.017C464.824 110.021 465.015 110.723 465.396 111.125C465.664 111.406 466.009 111.547 466.43 111.547C466.852 111.547 467.197 111.406 467.465 111.125C467.846 110.723 468.037 110.021 468.037 109.017C468.037 108.013 467.846 107.31 467.465 106.908C467.197 106.627 466.852 106.487 466.43 106.487C466.009 106.487 465.664 106.627 465.396 106.908ZM464.433 111.376C464.044 110.8 463.85 110.014 463.85 109.017C463.85 108.019 464.044 107.233 464.433 106.657C464.894 105.961 465.56 105.613 466.43 105.613C467.301 105.613 467.967 105.961 468.428 106.657C468.817 107.233 469.011 108.019 469.011 109.017C469.011 110.014 468.817 110.8 468.428 111.376C467.967 112.072 467.301 112.42 466.43 112.42C465.56 112.42 464.894 112.072 464.433 111.376ZM474.314 105.764V106.708C474.147 106.842 473.983 106.985 473.822 107.139C473.661 107.293 473.447 107.541 473.18 107.882C472.919 108.224 472.688 108.585 472.487 108.967C472.286 109.348 472.095 109.833 471.915 110.422C471.741 111.005 471.623 111.62 471.563 112.27H470.549C470.589 111.754 470.67 111.256 470.79 110.774C470.911 110.285 471.051 109.86 471.212 109.499C471.372 109.137 471.543 108.799 471.724 108.485C471.911 108.163 472.092 107.896 472.266 107.681C472.447 107.461 472.607 107.273 472.748 107.119C472.895 106.965 473.012 106.852 473.099 106.778L473.23 106.668H469.565V105.764H474.314ZM479.551 109.8H476.83V108.977H479.551V109.8ZM487.457 106.768L486.573 107.079C486.527 106.771 486.376 106.493 486.122 106.246C485.867 105.992 485.516 105.864 485.067 105.864C484.673 105.864 484.345 105.978 484.084 106.206C483.823 106.433 483.692 106.714 483.692 107.049C483.692 107.31 483.769 107.531 483.923 107.712C484.084 107.892 484.311 108.016 484.606 108.083L485.67 108.314C486.259 108.441 486.714 108.682 487.035 109.037C487.356 109.385 487.517 109.81 487.517 110.312C487.517 110.887 487.29 111.383 486.834 111.798C486.379 112.213 485.787 112.42 485.057 112.42C484.261 112.42 483.635 112.213 483.18 111.798C482.732 111.376 482.471 110.877 482.397 110.302L483.341 110.001C483.381 110.429 483.548 110.79 483.843 111.085C484.137 111.379 484.539 111.527 485.047 111.527C485.516 111.527 485.877 111.42 486.132 111.205C486.386 110.991 486.513 110.72 486.513 110.392C486.513 110.124 486.423 109.894 486.242 109.699C486.061 109.499 485.797 109.361 485.449 109.288L484.435 109.067C483.906 108.953 483.485 108.729 483.17 108.394C482.855 108.06 482.698 107.635 482.698 107.119C482.698 106.557 482.926 106.065 483.381 105.643C483.843 105.215 484.398 105.001 485.047 105.001C485.777 105.001 486.336 105.178 486.724 105.533C487.112 105.888 487.356 106.299 487.457 106.768ZM489.284 109.358H491.925C491.911 108.997 491.791 108.702 491.563 108.475C491.336 108.24 491.014 108.123 490.599 108.123C490.225 108.123 489.917 108.247 489.676 108.495C489.435 108.736 489.304 109.023 489.284 109.358ZM492.065 110.613L492.878 110.894C492.738 111.343 492.477 111.711 492.095 111.998C491.714 112.28 491.252 112.42 490.71 112.42C490.034 112.42 489.458 112.189 488.983 111.727C488.514 111.259 488.28 110.63 488.28 109.84C488.28 109.104 488.508 108.495 488.963 108.013C489.418 107.531 489.96 107.29 490.589 107.29C491.319 107.29 491.888 107.521 492.296 107.983C492.704 108.438 492.908 109.05 492.908 109.82C492.908 109.94 492.902 110.041 492.888 110.121H489.254C489.261 110.549 489.401 110.901 489.676 111.175C489.957 111.45 490.301 111.587 490.71 111.587C491.399 111.587 491.851 111.262 492.065 110.613ZM495.047 114.177H494.113V107.441H495.027V108.194C495.167 107.939 495.378 107.732 495.659 107.571C495.94 107.41 496.268 107.33 496.643 107.33C497.339 107.33 497.881 107.568 498.269 108.043C498.664 108.518 498.862 109.12 498.862 109.85C498.862 110.586 498.658 111.195 498.249 111.677C497.848 112.159 497.302 112.4 496.613 112.4C496.258 112.4 495.944 112.326 495.669 112.179C495.395 112.032 495.187 111.845 495.047 111.617V114.177ZM497.898 109.85C497.898 109.361 497.767 108.96 497.506 108.645C497.252 108.324 496.907 108.163 496.472 108.163C496.044 108.163 495.696 108.324 495.428 108.645C495.167 108.96 495.037 109.361 495.037 109.85C495.037 110.352 495.167 110.764 495.428 111.085C495.696 111.399 496.044 111.557 496.472 111.557C496.901 111.557 497.245 111.399 497.506 111.085C497.767 110.764 497.898 110.352 497.898 109.85ZM501.28 105.915V107.441H502.324V108.294H501.28V110.804C501.28 111.031 501.33 111.199 501.431 111.306C501.538 111.413 501.712 111.466 501.953 111.466C502.093 111.466 502.217 111.453 502.324 111.426V112.229C502.164 112.29 501.949 112.32 501.682 112.32C501.267 112.32 500.939 112.199 500.698 111.958C500.457 111.717 500.336 111.379 500.336 110.944V108.294H499.413V107.441H499.674C499.921 107.441 500.106 107.374 500.226 107.24C500.353 107.099 500.417 106.918 500.417 106.698V105.915H501.28ZM508.082 112.27H507.118V107.681H505.542V106.989C505.983 106.982 506.355 106.868 506.656 106.647C506.957 106.42 507.145 106.125 507.218 105.764H508.082V112.27ZM510.294 108.103L509.311 107.983C509.304 107.922 509.301 107.835 509.301 107.722C509.301 107.139 509.505 106.644 509.913 106.236C510.321 105.821 510.867 105.613 511.549 105.613C512.225 105.613 512.761 105.807 513.156 106.196C513.551 106.577 513.748 107.049 513.748 107.611C513.748 108.434 513.34 109.104 512.523 109.619L511.238 110.442C510.776 110.737 510.512 111.041 510.445 111.356H513.788V112.27H509.23C509.244 111.721 509.368 111.239 509.602 110.824C509.843 110.409 510.234 110.027 510.776 109.679L511.861 108.977C512.456 108.595 512.754 108.143 512.754 107.621C512.754 107.3 512.647 107.029 512.433 106.808C512.219 106.587 511.918 106.477 511.529 106.477C511.121 106.477 510.81 106.601 510.596 106.848C510.381 107.096 510.274 107.417 510.274 107.812C510.274 107.872 510.281 107.969 510.294 108.103Z" fill="#1D1D21"/>
<path d="M522.659 106.889H533.311" stroke="#1D1D21" stroke-width="1.07566" stroke-linecap="round" stroke-linejoin="round"/>
<path d="M530.636 109.223H530.642" stroke="#1D1D21" stroke-width="1.07566" stroke-linecap="round" stroke-linejoin="round"/>
<path d="M527.985 109.223H527.991" stroke="#1D1D21" stroke-width="1.07566" stroke-linecap="round" stroke-linejoin="round"/>
<path d="M525.327 109.223H525.332" stroke="#1D1D21" stroke-width="1.07566" stroke-linecap="round" stroke-linejoin="round"/>
<path d="M530.636 111.546H530.642" stroke="#1D1D21" stroke-width="1.07566" stroke-linecap="round" stroke-linejoin="round"/>
<path d="M527.985 111.546H527.991" stroke="#1D1D21" stroke-width="1.07566" stroke-linecap="round" stroke-linejoin="round"/>
<path d="M525.327 111.546H525.332" stroke="#1D1D21" stroke-width="1.07566" stroke-linecap="round" stroke-linejoin="round"/>
<path d="M530.398 102.465V104.431" stroke="#1D1D21" stroke-width="1.07566" stroke-linecap="round" stroke-linejoin="round"/>
<path d="M525.571 102.465V104.431" stroke="#1D1D21" stroke-width="1.07566" stroke-linecap="round" stroke-linejoin="round"/>
<path fill-rule="evenodd" clip-rule="evenodd" d="M530.515 103.409H525.455C523.7 103.409 522.604 104.386 522.604 106.183V111.591C522.604 113.417 523.7 114.417 525.455 114.417H530.509C532.269 114.417 533.36 113.433 533.36 111.636V106.183C533.366 104.386 532.275 103.409 530.515 103.409Z" stroke="#1D1D21" stroke-width="1.07566" stroke-linecap="round" stroke-linejoin="round"/>
<path d="M61.4698 193.502L60.9879 192.688L62.9055 190.921H59.7932V190.018H64.2106V190.901L62.3533 192.618C62.882 192.618 63.3472 192.792 63.7488 193.14C64.1571 193.488 64.3612 193.973 64.3612 194.596C64.3612 195.171 64.1504 195.663 63.7287 196.072C63.307 196.48 62.7314 196.684 62.0019 196.684C61.2858 196.684 60.7102 196.487 60.2751 196.092C59.8468 195.69 59.6159 195.205 59.5824 194.636L60.5462 194.415C60.5663 194.837 60.7102 195.178 60.9779 195.439C61.2523 195.694 61.5903 195.821 61.9919 195.821C62.4202 195.821 62.7549 195.707 62.9958 195.479C63.2435 195.245 63.3673 194.957 63.3673 194.616C63.3673 194.221 63.2368 193.92 62.9757 193.712C62.7147 193.505 62.4035 193.401 62.0421 193.401C61.848 193.401 61.6572 193.435 61.4698 193.502ZM66.8082 191.162C66.4267 191.564 66.2359 192.267 66.2359 193.271C66.2359 194.275 66.4267 194.977 66.8082 195.379C67.0759 195.66 67.4206 195.801 67.8422 195.801C68.2639 195.801 68.6086 195.66 68.8763 195.379C69.2578 194.977 69.4485 194.275 69.4485 193.271C69.4485 192.267 69.2578 191.564 68.8763 191.162C68.6086 190.881 68.2639 190.741 67.8422 190.741C67.4206 190.741 67.0759 190.881 66.8082 191.162ZM65.8444 195.63C65.4562 195.054 65.2621 194.268 65.2621 193.271C65.2621 192.273 65.4562 191.487 65.8444 190.911C66.3062 190.215 66.9721 189.867 67.8422 189.867C68.7123 189.867 69.3783 190.215 69.8401 190.911C70.2283 191.487 70.4224 192.273 70.4224 193.271C70.4224 194.268 70.2283 195.054 69.8401 195.63C69.3783 196.326 68.7123 196.674 67.8422 196.674C66.9721 196.674 66.3062 196.326 65.8444 195.63ZM72.926 191.162C72.5445 191.564 72.3537 192.267 72.3537 193.271C72.3537 194.275 72.5445 194.977 72.926 195.379C73.1937 195.66 73.5384 195.801 73.96 195.801C74.3817 195.801 74.7264 195.66 74.9941 195.379C75.3756 194.977 75.5663 194.275 75.5663 193.271C75.5663 192.267 75.3756 191.564 74.9941 191.162C74.7264 190.881 74.3817 190.741 73.96 190.741C73.5384 190.741 73.1937 190.881 72.926 191.162ZM71.9622 195.63C71.574 195.054 71.3799 194.268 71.3799 193.271C71.3799 192.273 71.574 191.487 71.9622 190.911C72.424 190.215 73.0899 189.867 73.96 189.867C74.8301 189.867 75.4961 190.215 75.9579 190.911C76.3461 191.487 76.5402 192.273 76.5402 193.271C76.5402 194.268 76.3461 195.054 75.9579 195.63C75.4961 196.326 74.8301 196.674 73.96 196.674C73.0899 196.674 72.424 196.326 71.9622 195.63ZM82.1749 191.694L80.1168 193.732L82.2151 196.523H81.0304L79.4542 194.395L78.7816 195.068V196.523H77.8479V189.255H78.7816V193.833L80.8698 191.694H82.1749Z" fill="#878787"/>
<path d="M60.6265 224.428L59.6426 224.307C59.6359 224.247 59.6326 224.16 59.6326 224.046C59.6326 223.464 59.8367 222.969 60.245 222.561C60.6533 222.146 61.1988 221.938 61.8814 221.938C62.5574 221.938 63.0929 222.132 63.4878 222.52C63.8826 222.902 64.0801 223.374 64.0801 223.936C64.0801 224.759 63.6718 225.428 62.8553 225.944L61.5702 226.767C61.1084 227.062 60.844 227.366 60.7771 227.681H64.1202V228.594H59.5623C59.5757 228.045 59.6995 227.564 59.9338 227.149C60.1747 226.734 60.5663 226.352 61.1084 226.004L62.1927 225.301C62.7883 224.92 63.0862 224.468 63.0862 223.946C63.0862 223.625 62.9791 223.354 62.7649 223.133C62.5507 222.912 62.2496 222.801 61.8614 222.801C61.4531 222.801 61.1419 222.925 60.9277 223.173C60.7135 223.421 60.6064 223.742 60.6064 224.137C60.6064 224.197 60.6131 224.294 60.6265 224.428ZM66.5729 223.233C66.1914 223.635 66.0006 224.338 66.0006 225.341C66.0006 226.345 66.1914 227.048 66.5729 227.45C66.8406 227.731 67.1853 227.871 67.6069 227.871C68.0286 227.871 68.3733 227.731 68.641 227.45C69.0225 227.048 69.2132 226.345 69.2132 225.341C69.2132 224.338 69.0225 223.635 68.641 223.233C68.3733 222.952 68.0286 222.812 67.6069 222.812C67.1853 222.812 66.8406 222.952 66.5729 223.233ZM65.6091 227.701C65.2209 227.125 65.0268 226.339 65.0268 225.341C65.0268 224.344 65.2209 223.558 65.6091 222.982C66.0709 222.286 66.7368 221.938 67.6069 221.938C68.477 221.938 69.143 222.286 69.6048 222.982C69.993 223.558 70.1871 224.344 70.1871 225.341C70.1871 226.339 69.993 227.125 69.6048 227.701C69.143 228.397 68.477 228.745 67.6069 228.745C66.7368 228.745 66.0709 228.397 65.6091 227.701ZM72.6907 223.233C72.3092 223.635 72.1184 224.338 72.1184 225.341C72.1184 226.345 72.3092 227.048 72.6907 227.45C72.9584 227.731 73.3031 227.871 73.7247 227.871C74.1464 227.871 74.4911 227.731 74.7588 227.45C75.1403 227.048 75.331 226.345 75.331 225.341C75.331 224.338 75.1403 223.635 74.7588 223.233C74.4911 222.952 74.1464 222.812 73.7247 222.812C73.3031 222.812 72.9584 222.952 72.6907 223.233ZM71.7269 227.701C71.3387 227.125 71.1446 226.339 71.1446 225.341C71.1446 224.344 71.3387 223.558 71.7269 222.982C72.1887 222.286 72.8546 221.938 73.7247 221.938C74.5948 221.938 75.2608 222.286 75.7226 222.982C76.1108 223.558 76.3049 224.344 76.3049 225.341C76.3049 226.339 76.1108 227.125 75.7226 227.701C75.2608 228.397 74.5948 228.745 73.7247 228.745C72.8546 228.745 72.1887 228.397 71.7269 227.701ZM81.9396 223.765L79.8815 225.803L81.9798 228.594H80.7951L79.2189 226.466L78.5463 227.139V228.594H77.6126V221.326H78.5463V225.904L80.6345 223.765H81.9396Z" fill="#878787"/>
<path d="M62.0019 260.665H61.0381V256.077H59.4619V255.384C59.9037 255.378 60.2751 255.264 60.5763 255.043C60.8775 254.815 61.0649 254.521 61.1385 254.159H62.0019V260.665ZM64.8473 255.304C64.4658 255.706 64.2751 256.408 64.2751 257.412C64.2751 258.416 64.4658 259.119 64.8473 259.521C65.115 259.802 65.4597 259.942 65.8814 259.942C66.303 259.942 66.6477 259.802 66.9154 259.521C67.2969 259.119 67.4877 258.416 67.4877 257.412C67.4877 256.408 67.2969 255.706 66.9154 255.304C66.6477 255.023 66.303 254.882 65.8814 254.882C65.4597 254.882 65.115 255.023 64.8473 255.304ZM63.8835 259.772C63.4953 259.196 63.3012 258.41 63.3012 257.412C63.3012 256.415 63.4953 255.629 63.8835 255.053C64.3453 254.357 65.0113 254.009 65.8814 254.009C66.7515 254.009 67.4174 254.357 67.8792 255.053C68.2674 255.629 68.4615 256.415 68.4615 257.412C68.4615 258.41 68.2674 259.196 67.8792 259.772C67.4174 260.468 66.7515 260.816 65.8814 260.816C65.0113 260.816 64.3453 260.468 63.8835 259.772ZM70.9651 255.304C70.5836 255.706 70.3929 256.408 70.3929 257.412C70.3929 258.416 70.5836 259.119 70.9651 259.521C71.2328 259.802 71.5775 259.942 71.9992 259.942C72.4208 259.942 72.7655 259.802 73.0333 259.521C73.4148 259.119 73.6055 258.416 73.6055 257.412C73.6055 256.408 73.4148 255.706 73.0333 255.304C72.7655 255.023 72.4208 254.882 71.9992 254.882C71.5775 254.882 71.2328 255.023 70.9651 255.304ZM70.0013 259.772C69.6131 259.196 69.419 258.41 69.419 257.412C69.419 256.415 69.6131 255.629 70.0013 255.053C70.4631 254.357 71.1291 254.009 71.9992 254.009C72.8693 254.009 73.5352 254.357 73.997 255.053C74.3852 255.629 74.5793 256.415 74.5793 257.412C74.5793 258.41 74.3852 259.196 73.997 259.772C73.5352 260.468 72.8693 260.816 71.9992 260.816C71.1291 260.816 70.4631 260.468 70.0013 259.772ZM80.2141 255.836L78.156 257.874L80.2542 260.665H79.0696L77.4934 258.537L76.8207 259.209V260.665H75.887V253.396H76.8207V257.974L78.9089 255.836H80.2141Z" fill="#878787"/>
<path d="M62.0019 292.736H61.0381V288.148H59.4619V287.455C59.9037 287.448 60.2751 287.335 60.5763 287.114C60.8775 286.886 61.0649 286.592 61.1385 286.23H62.0019V292.736ZM64.8473 287.375C64.4658 287.776 64.2751 288.479 64.2751 289.483C64.2751 290.487 64.4658 291.19 64.8473 291.591C65.115 291.872 65.4597 292.013 65.8814 292.013C66.303 292.013 66.6477 291.872 66.9154 291.591C67.2969 291.19 67.4877 290.487 67.4877 289.483C67.4877 288.479 67.2969 287.776 66.9154 287.375C66.6477 287.094 66.303 286.953 65.8814 286.953C65.4597 286.953 65.115 287.094 64.8473 287.375ZM63.8835 291.842C63.4953 291.267 63.3012 290.48 63.3012 289.483C63.3012 288.486 63.4953 287.699 63.8835 287.124C64.3453 286.428 65.0113 286.08 65.8814 286.08C66.7515 286.08 67.4174 286.428 67.8792 287.124C68.2674 287.699 68.4615 288.486 68.4615 289.483C68.4615 290.48 68.2674 291.267 67.8792 291.842C67.4174 292.538 66.7515 292.886 65.8814 292.886C65.0113 292.886 64.3453 292.538 63.8835 291.842ZM70.9651 287.375C70.5836 287.776 70.3929 288.479 70.3929 289.483C70.3929 290.487 70.5836 291.19 70.9651 291.591C71.2328 291.872 71.5775 292.013 71.9992 292.013C72.4208 292.013 72.7655 291.872 73.0333 291.591C73.4148 291.19 73.6055 290.487 73.6055 289.483C73.6055 288.479 73.4148 287.776 73.0333 287.375C72.7655 287.094 72.4208 286.953 71.9992 286.953C71.5775 286.953 71.2328 287.094 70.9651 287.375ZM70.0013 291.842C69.6131 291.267 69.419 290.48 69.419 289.483C69.419 288.486 69.6131 287.699 70.0013 287.124C70.4631 286.428 71.1291 286.08 71.9992 286.08C72.8693 286.08 73.5352 286.428 73.997 287.124C74.3852 287.699 74.5793 288.486 74.5793 289.483C74.5793 290.48 74.3852 291.267 73.997 291.842C73.5352 292.538 72.8693 292.886 71.9992 292.886C71.1291 292.886 70.4631 292.538 70.0013 291.842ZM80.2141 287.907L78.156 289.945L80.2542 292.736H79.0696L77.4934 290.607L76.8207 291.28V292.736H75.887V285.467H76.8207V290.045L78.9089 287.907H80.2141Z" fill="#878787"/>
<path d="M64.0098 318.301V319.245C63.8425 319.379 63.6785 319.523 63.5179 319.676C63.3572 319.83 63.1431 320.078 62.8753 320.419C62.6143 320.761 62.3834 321.122 62.1826 321.504C61.9818 321.885 61.7911 322.37 61.6104 322.959C61.4364 323.542 61.3192 324.157 61.259 324.807H60.245C60.2852 324.291 60.3655 323.793 60.486 323.311C60.6064 322.822 60.747 322.397 60.9076 322.036C61.0682 321.674 61.2389 321.336 61.4196 321.022C61.607 320.7 61.7877 320.433 61.9618 320.219C62.1425 319.998 62.3031 319.81 62.4436 319.656C62.5909 319.502 62.708 319.389 62.795 319.315L62.9255 319.205H59.2611V318.301H64.0098ZM64.2683 323.04L65.212 322.759C65.2388 323.16 65.386 323.485 65.6538 323.732C65.9282 323.98 66.2695 324.104 66.6778 324.104C67.0727 324.104 67.404 323.983 67.6717 323.742C67.9394 323.502 68.0733 323.184 68.0733 322.789C68.0733 322.36 67.9394 322.029 67.6717 321.795C67.404 321.561 67.0693 321.443 66.6678 321.443C66.1792 321.443 65.7843 321.601 65.4831 321.915C65.3894 321.882 65.2355 321.822 65.0213 321.735C64.8071 321.648 64.6398 321.581 64.5193 321.534L65.3626 318.301H68.7961V319.205H66.0152L65.5333 321.072C65.8211 320.751 66.2628 320.59 66.8585 320.59C67.5077 320.59 68.0365 320.784 68.4447 321.172C68.8597 321.561 69.0672 322.086 69.0672 322.749C69.0672 323.378 68.8463 323.906 68.4046 324.335C67.9628 324.756 67.3873 324.967 66.6778 324.967C66.0085 324.967 65.4496 324.78 65.0012 324.405C64.5595 324.03 64.3152 323.575 64.2683 323.04ZM74.728 324.807L72.3185 321.574L71.3045 322.658V324.807H70.3206V317.689H71.3045V321.353L74.6376 317.689H75.9327L72.9711 320.861L75.9729 324.807H74.728Z" fill="#878787"/>
<path d="M59.5623 355.11L60.506 354.829C60.5328 355.231 60.68 355.556 60.9478 355.803C61.2222 356.051 61.5635 356.175 61.9718 356.175C62.3667 356.175 62.698 356.054 62.9657 355.813C63.2334 355.572 63.3673 355.254 63.3673 354.86C63.3673 354.431 63.2334 354.1 62.9657 353.866C62.698 353.631 62.3633 353.514 61.9618 353.514C61.4732 353.514 61.0783 353.672 60.7771 353.986C60.6834 353.953 60.5295 353.892 60.3153 353.805C60.1011 353.718 59.9338 353.651 59.8133 353.605L60.6566 350.372H64.0901V351.275H61.3092L60.8273 353.143C61.1151 352.821 61.5568 352.661 62.1525 352.661C62.8017 352.661 63.3305 352.855 63.7387 353.243C64.1537 353.631 64.3612 354.157 64.3612 354.819C64.3612 355.448 64.1403 355.977 63.6986 356.406C63.2568 356.827 62.6812 357.038 61.9718 357.038C61.3025 357.038 60.7436 356.851 60.2952 356.476C59.8535 356.101 59.6092 355.646 59.5623 355.11ZM66.7591 351.516C66.3776 351.918 66.1869 352.621 66.1869 353.625C66.1869 354.629 66.3776 355.331 66.7591 355.733C67.0268 356.014 67.3715 356.155 67.7932 356.155C68.2149 356.155 68.5595 356.014 68.8273 355.733C69.2088 355.331 69.3995 354.629 69.3995 353.625C69.3995 352.621 69.2088 351.918 68.8273 351.516C68.5595 351.235 68.2149 351.095 67.7932 351.095C67.3715 351.095 67.0268 351.235 66.7591 351.516ZM65.7953 355.984C65.4071 355.408 65.2131 354.622 65.2131 353.625C65.2131 352.627 65.4071 351.841 65.7953 351.265C66.2572 350.569 66.9231 350.221 67.7932 350.221C68.6633 350.221 69.3292 350.569 69.7911 351.265C70.1792 351.841 70.3733 352.627 70.3733 353.625C70.3733 354.622 70.1792 355.408 69.7911 355.984C69.3292 356.68 68.6633 357.028 67.7932 357.028C66.9231 357.028 66.2572 356.68 65.7953 355.984ZM76.1888 356.877L73.7793 353.645L72.7653 354.729V356.877H71.7815V349.759H72.7653V353.424L76.0984 349.759H77.3935L74.4319 352.932L77.4337 356.877H76.1888Z" fill="#878787"/>
<path d="M60.6265 384.782L59.6426 384.661C59.6359 384.601 59.6326 384.514 59.6326 384.4C59.6326 383.818 59.8367 383.323 60.245 382.915C60.6533 382.5 61.1988 382.292 61.8814 382.292C62.5574 382.292 63.0929 382.486 63.4878 382.874C63.8826 383.256 64.0801 383.728 64.0801 384.29C64.0801 385.113 63.6718 385.782 62.8553 386.298L61.5702 387.121C61.1084 387.416 60.844 387.72 60.7771 388.035H64.1202V388.948H59.5623C59.5757 388.399 59.6995 387.918 59.9338 387.503C60.1747 387.088 60.5663 386.706 61.1084 386.358L62.1927 385.655C62.7883 385.274 63.0862 384.822 63.0862 384.3C63.0862 383.979 62.9791 383.708 62.7649 383.487C62.5507 383.266 62.2496 383.155 61.8614 383.155C61.4531 383.155 61.1419 383.279 60.9277 383.527C60.7135 383.775 60.6064 384.096 60.6064 384.491C60.6064 384.551 60.6131 384.648 60.6265 384.782ZM64.8762 387.181L65.8199 386.9C65.8467 387.302 65.9939 387.626 66.2616 387.874C66.536 388.122 66.8774 388.245 67.2857 388.245C67.6805 388.245 68.0118 388.125 68.2796 387.884C68.5473 387.643 68.6811 387.325 68.6811 386.93C68.6811 386.502 68.5473 386.171 68.2796 385.936C68.0118 385.702 67.6772 385.585 67.2756 385.585C66.787 385.585 66.3921 385.742 66.091 386.057C65.9973 386.023 65.8433 385.963 65.6291 385.876C65.415 385.789 65.2476 385.722 65.1272 385.675L65.9705 382.443H69.404V383.346H66.623L66.1412 385.214C66.429 384.892 66.8707 384.732 67.4664 384.732C68.1156 384.732 68.6443 384.926 69.0526 385.314C69.4676 385.702 69.675 386.228 69.675 386.89C69.675 387.519 69.4542 388.048 69.0124 388.476C68.5707 388.898 67.9951 389.109 67.2857 389.109C66.6164 389.109 66.0575 388.921 65.6091 388.547C65.1673 388.172 64.923 387.717 64.8762 387.181ZM75.3358 388.948L72.9263 385.716L71.9124 386.8V388.948H70.9285V381.83H71.9124V385.495L75.2455 381.83H76.5406L73.5789 385.003L76.5807 388.948H75.3358Z" fill="#878787"/>
<path d="M61.259 415.658C60.8775 416.06 60.6867 416.762 60.6867 417.766C60.6867 418.77 60.8775 419.473 61.259 419.875C61.5267 420.156 61.8714 420.296 62.2931 420.296C62.7147 420.296 63.0594 420.156 63.3271 419.875C63.7086 419.473 63.8994 418.77 63.8994 417.766C63.8994 416.762 63.7086 416.06 63.3271 415.658C63.0594 415.377 62.7147 415.236 62.2931 415.236C61.8714 415.236 61.5267 415.377 61.259 415.658ZM60.2952 420.126C59.907 419.55 59.7129 418.764 59.7129 417.766C59.7129 416.769 59.907 415.983 60.2952 415.407C60.757 414.711 61.423 414.363 62.2931 414.363C63.1631 414.363 63.8291 414.711 64.2909 415.407C64.6791 415.983 64.8732 416.769 64.8732 417.766C64.8732 418.764 64.6791 419.55 64.2909 420.126C63.8291 420.822 63.1631 421.17 62.2931 421.17C61.423 421.17 60.757 420.822 60.2952 420.126ZM70.6886 421.019L68.2792 417.786L67.2652 418.871V421.019H66.2813V413.901H67.2652V417.565L70.5983 413.901H71.8934L68.9317 417.074L71.9335 421.019H70.6886Z" fill="#878787"/>
<path d="M112.33 442.903L111.447 443.214C111.4 442.906 111.249 442.628 110.995 442.381C110.74 442.126 110.389 441.999 109.941 441.999C109.546 441.999 109.218 442.113 108.957 442.34C108.696 442.568 108.565 442.849 108.565 443.184C108.565 443.445 108.642 443.666 108.796 443.846C108.957 444.027 109.184 444.151 109.479 444.218L110.543 444.449C111.132 444.576 111.587 444.817 111.908 445.172C112.23 445.52 112.39 445.945 112.39 446.447C112.39 447.022 112.163 447.517 111.708 447.932C111.252 448.347 110.66 448.555 109.931 448.555C109.134 448.555 108.508 448.347 108.053 447.932C107.605 447.511 107.344 447.012 107.27 446.437L108.214 446.135C108.254 446.564 108.421 446.925 108.716 447.22C109.01 447.514 109.412 447.661 109.921 447.661C110.389 447.661 110.75 447.554 111.005 447.34C111.259 447.126 111.386 446.855 111.386 446.527C111.386 446.259 111.296 446.028 111.115 445.834C110.935 445.633 110.67 445.496 110.322 445.423L109.308 445.202C108.779 445.088 108.358 444.864 108.043 444.529C107.729 444.194 107.571 443.769 107.571 443.254C107.571 442.692 107.799 442.2 108.254 441.778C108.716 441.35 109.271 441.136 109.921 441.136C110.65 441.136 111.209 441.313 111.597 441.668C111.985 442.023 112.23 442.434 112.33 442.903ZM114.157 445.493H116.798C116.784 445.131 116.664 444.837 116.436 444.609C116.209 444.375 115.887 444.258 115.472 444.258C115.098 444.258 114.79 444.382 114.549 444.629C114.308 444.87 114.177 445.158 114.157 445.493ZM116.938 446.748L117.751 447.029C117.611 447.477 117.35 447.845 116.968 448.133C116.587 448.414 116.125 448.555 115.583 448.555C114.907 448.555 114.331 448.324 113.856 447.862C113.388 447.394 113.153 446.765 113.153 445.975C113.153 445.239 113.381 444.629 113.836 444.148C114.291 443.666 114.833 443.425 115.462 443.425C116.192 443.425 116.761 443.656 117.169 444.117C117.577 444.573 117.782 445.185 117.782 445.955C117.782 446.075 117.775 446.176 117.761 446.256H114.127C114.134 446.684 114.274 447.036 114.549 447.31C114.83 447.584 115.175 447.722 115.583 447.722C116.272 447.722 116.724 447.397 116.938 446.748ZM119.92 450.312H118.986V443.575H119.9V444.328C120.04 444.074 120.251 443.866 120.532 443.706C120.813 443.545 121.141 443.465 121.516 443.465C122.212 443.465 122.754 443.702 123.143 444.178C123.537 444.653 123.735 445.255 123.735 445.985C123.735 446.721 123.531 447.33 123.122 447.812C122.721 448.294 122.175 448.535 121.486 448.535C121.131 448.535 120.817 448.461 120.542 448.314C120.268 448.167 120.06 447.979 119.92 447.752V450.312ZM122.771 445.985C122.771 445.496 122.641 445.095 122.38 444.78C122.125 444.459 121.781 444.298 121.345 444.298C120.917 444.298 120.569 444.459 120.301 444.78C120.04 445.095 119.91 445.496 119.91 445.985C119.91 446.487 120.04 446.898 120.301 447.22C120.569 447.534 120.917 447.691 121.345 447.691C121.774 447.691 122.119 447.534 122.38 447.22C122.641 446.898 122.771 446.487 122.771 445.985ZM126.153 442.049V443.575H127.197V444.429H126.153V446.939C126.153 447.166 126.203 447.333 126.304 447.441C126.411 447.548 126.585 447.601 126.826 447.601C126.966 447.601 127.09 447.588 127.197 447.561V448.364C127.037 448.424 126.823 448.454 126.555 448.454C126.14 448.454 125.812 448.334 125.571 448.093C125.33 447.852 125.21 447.514 125.21 447.079V444.429H124.286V443.575H124.547C124.795 443.575 124.979 443.508 125.099 443.375C125.226 443.234 125.29 443.053 125.29 442.832V442.049H126.153ZM132.212 443.043C131.83 443.445 131.64 444.148 131.64 445.152C131.64 446.155 131.83 446.858 132.212 447.26C132.48 447.541 132.824 447.681 133.246 447.681C133.668 447.681 134.012 447.541 134.28 447.26C134.661 446.858 134.852 446.155 134.852 445.152C134.852 444.148 134.661 443.445 134.28 443.043C134.012 442.762 133.668 442.622 133.246 442.622C132.824 442.622 132.48 442.762 132.212 443.043ZM131.248 447.511C130.86 446.935 130.666 446.149 130.666 445.152C130.666 444.154 130.86 443.368 131.248 442.792C131.71 442.096 132.376 441.748 133.246 441.748C134.116 441.748 134.782 442.096 135.244 442.792C135.632 443.368 135.826 444.154 135.826 445.152C135.826 446.149 135.632 446.935 135.244 447.511C134.782 448.207 134.116 448.555 133.246 448.555C132.376 448.555 131.71 448.207 131.248 447.511ZM141.129 441.899V442.842C140.962 442.976 140.798 443.12 140.637 443.274C140.477 443.428 140.263 443.676 139.995 444.017C139.734 444.358 139.503 444.72 139.302 445.101C139.101 445.483 138.911 445.968 138.73 446.557C138.556 447.139 138.439 447.755 138.379 448.404H137.365C137.405 447.889 137.485 447.39 137.606 446.908C137.726 446.42 137.867 445.995 138.027 445.633C138.188 445.272 138.359 444.934 138.539 444.619C138.727 444.298 138.907 444.03 139.081 443.816C139.262 443.595 139.423 443.408 139.563 443.254C139.711 443.1 139.828 442.986 139.915 442.913L140.045 442.802H136.381V441.899H141.129Z" fill="#878787"/>
<path d="M191.575 442.903L190.692 443.214C190.645 442.906 190.494 442.628 190.24 442.381C189.986 442.126 189.634 441.999 189.186 441.999C188.791 441.999 188.463 442.113 188.202 442.34C187.941 442.568 187.81 442.849 187.81 443.184C187.81 443.445 187.887 443.666 188.041 443.846C188.202 444.027 188.429 444.151 188.724 444.218L189.788 444.449C190.377 444.576 190.832 444.817 191.154 445.172C191.475 445.52 191.635 445.945 191.635 446.447C191.635 447.022 191.408 447.517 190.953 447.932C190.498 448.347 189.905 448.555 189.176 448.555C188.379 448.555 187.753 448.347 187.298 447.932C186.85 447.511 186.589 447.012 186.515 446.437L187.459 446.135C187.499 446.564 187.666 446.925 187.961 447.22C188.255 447.514 188.657 447.661 189.166 447.661C189.634 447.661 189.996 447.554 190.25 447.34C190.504 447.126 190.631 446.855 190.631 446.527C190.631 446.259 190.541 446.028 190.36 445.834C190.18 445.633 189.915 445.496 189.567 445.423L188.553 445.202C188.025 445.088 187.603 444.864 187.288 444.529C186.974 444.194 186.816 443.769 186.816 443.254C186.816 442.692 187.044 442.2 187.499 441.778C187.961 441.35 188.516 441.136 189.166 441.136C189.895 441.136 190.454 441.313 190.842 441.668C191.23 442.023 191.475 442.434 191.575 442.903ZM193.402 445.493H196.043C196.029 445.131 195.909 444.837 195.681 444.609C195.454 444.375 195.133 444.258 194.718 444.258C194.343 444.258 194.035 444.382 193.794 444.629C193.553 444.87 193.423 445.158 193.402 445.493ZM196.183 446.748L196.997 447.029C196.856 447.477 196.595 447.845 196.213 448.133C195.832 448.414 195.37 448.555 194.828 448.555C194.152 448.555 193.576 448.324 193.101 447.862C192.633 447.394 192.398 446.765 192.398 445.975C192.398 445.239 192.626 444.629 193.081 444.148C193.536 443.666 194.078 443.425 194.708 443.425C195.437 443.425 196.006 443.656 196.414 444.117C196.823 444.573 197.027 445.185 197.027 445.955C197.027 446.075 197.02 446.176 197.007 446.256H193.372C193.379 446.684 193.52 447.036 193.794 447.31C194.075 447.584 194.42 447.722 194.828 447.722C195.517 447.722 195.969 447.397 196.183 446.748ZM199.165 450.312H198.231V443.575H199.145V444.328C199.285 444.074 199.496 443.866 199.777 443.706C200.059 443.545 200.386 443.465 200.761 443.465C201.457 443.465 202 443.702 202.388 444.178C202.783 444.653 202.98 445.255 202.98 445.985C202.98 446.721 202.776 447.33 202.368 447.812C201.966 448.294 201.421 448.535 200.731 448.535C200.376 448.535 200.062 448.461 199.787 448.314C199.513 448.167 199.306 447.979 199.165 447.752V450.312ZM202.016 445.985C202.016 445.496 201.886 445.095 201.625 444.78C201.37 444.459 201.026 444.298 200.591 444.298C200.162 444.298 199.814 444.459 199.547 444.78C199.285 445.095 199.155 445.496 199.155 445.985C199.155 446.487 199.285 446.898 199.547 447.22C199.814 447.534 200.162 447.691 200.591 447.691C201.019 447.691 201.364 447.534 201.625 447.22C201.886 446.898 202.016 446.487 202.016 445.985ZM205.398 442.049V443.575H206.443V444.429H205.398V446.939C205.398 447.166 205.449 447.333 205.549 447.441C205.656 447.548 205.83 447.601 206.071 447.601C206.212 447.601 206.335 447.588 206.443 447.561V448.364C206.282 448.424 206.068 448.454 205.8 448.454C205.385 448.454 205.057 448.334 204.816 448.093C204.575 447.852 204.455 447.514 204.455 447.079V444.429H203.531V443.575H203.792C204.04 443.575 204.224 443.508 204.344 443.375C204.471 443.234 204.535 443.053 204.535 442.832V442.049H205.398ZM211.457 443.043C211.075 443.445 210.885 444.148 210.885 445.152C210.885 446.155 211.075 446.858 211.457 447.26C211.725 447.541 212.069 447.681 212.491 447.681C212.913 447.681 213.257 447.541 213.525 447.26C213.907 446.858 214.097 446.155 214.097 445.152C214.097 444.148 213.907 443.445 213.525 443.043C213.257 442.762 212.913 442.622 212.491 442.622C212.069 442.622 211.725 442.762 211.457 443.043ZM210.493 447.511C210.105 446.935 209.911 446.149 209.911 445.152C209.911 444.154 210.105 443.368 210.493 442.792C210.955 442.096 211.621 441.748 212.491 441.748C213.361 441.748 214.027 442.096 214.489 442.792C214.877 443.368 215.071 444.154 215.071 445.152C215.071 446.149 214.877 446.935 214.489 447.511C214.027 448.207 213.361 448.555 212.491 448.555C211.621 448.555 210.955 448.207 210.493 447.511ZM218.338 444.67C218.686 444.663 218.974 444.563 219.201 444.368C219.429 444.174 219.542 443.92 219.542 443.605C219.542 443.311 219.432 443.063 219.211 442.863C218.99 442.662 218.699 442.561 218.338 442.561C217.976 442.561 217.685 442.662 217.464 442.863C217.243 443.063 217.133 443.311 217.133 443.605C217.133 443.92 217.247 444.174 217.474 444.368C217.702 444.563 217.99 444.663 218.338 444.67ZM217.334 447.39C217.581 447.598 217.916 447.702 218.338 447.702C218.759 447.702 219.091 447.598 219.332 447.39C219.579 447.183 219.703 446.922 219.703 446.607C219.703 446.286 219.579 446.022 219.332 445.814C219.091 445.6 218.759 445.493 218.338 445.493C217.916 445.493 217.581 445.6 217.334 445.814C217.093 446.022 216.972 446.286 216.972 446.607C216.972 446.922 217.093 447.183 217.334 447.39ZM220.065 448.033C219.643 448.381 219.067 448.555 218.338 448.555C217.608 448.555 217.033 448.381 216.611 448.033C216.189 447.678 215.978 447.23 215.978 446.688C215.978 446.306 216.092 445.975 216.32 445.694C216.554 445.406 216.852 445.202 217.213 445.081C216.905 444.967 216.651 444.773 216.45 444.499C216.25 444.218 216.149 443.903 216.149 443.555C216.149 443.026 216.357 442.595 216.772 442.26C217.187 441.919 217.709 441.748 218.338 441.748C218.967 441.748 219.489 441.919 219.904 442.26C220.319 442.595 220.526 443.026 220.526 443.555C220.526 443.897 220.426 444.208 220.225 444.489C220.024 444.77 219.77 444.967 219.462 445.081C219.824 445.195 220.118 445.396 220.346 445.684C220.58 445.971 220.697 446.306 220.697 446.688C220.697 447.23 220.486 447.678 220.065 448.033Z" fill="#878787"/>
<path d="M271.172 442.903L270.288 443.214C270.242 442.906 270.091 442.628 269.837 442.381C269.582 442.126 269.231 441.999 268.782 441.999C268.388 441.999 268.06 442.113 267.799 442.34C267.538 442.568 267.407 442.849 267.407 443.184C267.407 443.445 267.484 443.666 267.638 443.846C267.799 444.027 268.026 444.151 268.321 444.218L269.385 444.449C269.974 444.576 270.429 444.817 270.75 445.172C271.071 445.52 271.232 445.945 271.232 446.447C271.232 447.022 271.005 447.517 270.549 447.932C270.094 448.347 269.502 448.555 268.772 448.555C267.976 448.555 267.35 448.347 266.895 447.932C266.447 447.511 266.186 447.012 266.112 446.437L267.056 446.135C267.096 446.564 267.263 446.925 267.558 447.22C267.852 447.514 268.254 447.661 268.762 447.661C269.231 447.661 269.592 447.554 269.847 447.34C270.101 447.126 270.228 446.855 270.228 446.527C270.228 446.259 270.138 446.028 269.957 445.834C269.776 445.633 269.512 445.496 269.164 445.423L268.15 445.202C267.621 445.088 267.2 444.864 266.885 444.529C266.57 444.194 266.413 443.769 266.413 443.254C266.413 442.692 266.641 442.2 267.096 441.778C267.558 441.35 268.113 441.136 268.762 441.136C269.492 441.136 270.051 441.313 270.439 441.668C270.827 442.023 271.071 442.434 271.172 442.903ZM272.999 445.493H275.64C275.626 445.131 275.506 444.837 275.278 444.609C275.051 444.375 274.729 444.258 274.314 444.258C273.939 444.258 273.632 444.382 273.391 444.629C273.15 444.87 273.019 445.158 272.999 445.493ZM275.78 446.748L276.593 447.029C276.453 447.477 276.192 447.845 275.81 448.133C275.429 448.414 274.967 448.555 274.425 448.555C273.749 448.555 273.173 448.324 272.698 447.862C272.229 447.394 271.995 446.765 271.995 445.975C271.995 445.239 272.223 444.629 272.678 444.148C273.133 443.666 273.675 443.425 274.304 443.425C275.034 443.425 275.603 443.656 276.011 444.117C276.419 444.573 276.623 445.185 276.623 445.955C276.623 446.075 276.617 446.176 276.603 446.256H272.969C272.976 446.684 273.116 447.036 273.391 447.31C273.672 447.584 274.016 447.722 274.425 447.722C275.114 447.722 275.566 447.397 275.78 446.748ZM278.762 450.312H277.828V443.575H278.742V444.328C278.882 444.074 279.093 443.866 279.374 443.706C279.655 443.545 279.983 443.465 280.358 443.465C281.054 443.465 281.596 443.702 281.984 444.178C282.379 444.653 282.577 445.255 282.577 445.985C282.577 446.721 282.373 447.33 281.964 447.812C281.563 448.294 281.017 448.535 280.328 448.535C279.973 448.535 279.659 448.461 279.384 448.314C279.11 448.167 278.902 447.979 278.762 447.752V450.312ZM281.613 445.985C281.613 445.496 281.482 445.095 281.221 444.78C280.967 444.459 280.622 444.298 280.187 444.298C279.759 444.298 279.411 444.459 279.143 444.78C278.882 445.095 278.752 445.496 278.752 445.985C278.752 446.487 278.882 446.898 279.143 447.22C279.411 447.534 279.759 447.691 280.187 447.691C280.616 447.691 280.96 447.534 281.221 447.22C281.482 446.898 281.613 446.487 281.613 445.985ZM284.995 442.049V443.575H286.039V444.429H284.995V446.939C284.995 447.166 285.045 447.333 285.146 447.441C285.253 447.548 285.427 447.601 285.668 447.601C285.808 447.601 285.932 447.588 286.039 447.561V448.364C285.879 448.424 285.664 448.454 285.397 448.454C284.982 448.454 284.654 448.334 284.413 448.093C284.172 447.852 284.051 447.514 284.051 447.079V444.429H283.128V443.575H283.389C283.636 443.575 283.82 443.508 283.941 443.375C284.068 443.234 284.132 443.053 284.132 442.832V442.049H284.995ZM291.054 443.043C290.672 443.445 290.481 444.148 290.481 445.152C290.481 446.155 290.672 446.858 291.054 447.26C291.321 447.541 291.666 447.681 292.088 447.681C292.509 447.681 292.854 447.541 293.122 447.26C293.503 446.858 293.694 446.155 293.694 445.152C293.694 444.148 293.503 443.445 293.122 443.043C292.854 442.762 292.509 442.622 292.088 442.622C291.666 442.622 291.321 442.762 291.054 443.043ZM290.09 447.511C289.702 446.935 289.508 446.149 289.508 445.152C289.508 444.154 289.702 443.368 290.09 442.792C290.552 442.096 291.218 441.748 292.088 441.748C292.958 441.748 293.624 442.096 294.086 442.792C294.474 443.368 294.668 444.154 294.668 445.152C294.668 446.149 294.474 446.935 294.086 447.511C293.624 448.207 292.958 448.555 292.088 448.555C291.218 448.555 290.552 448.207 290.09 447.511ZM295.745 448.173L296.066 447.36C296.407 447.568 296.802 447.671 297.251 447.671C297.993 447.671 298.549 447.461 298.917 447.039C299.292 446.611 299.489 446.052 299.509 445.362C299.382 445.597 299.171 445.794 298.877 445.955C298.589 446.115 298.238 446.196 297.823 446.196C297.22 446.196 296.695 446.002 296.247 445.613C295.798 445.218 295.574 444.68 295.574 443.997C295.574 443.341 295.808 442.802 296.277 442.381C296.752 441.959 297.317 441.748 297.973 441.748C298.669 441.748 299.265 442.002 299.76 442.511C300.256 443.02 300.503 443.763 300.503 444.74C300.503 445.958 300.229 446.898 299.68 447.561C299.138 448.224 298.328 448.555 297.251 448.555C296.996 448.555 296.722 448.518 296.427 448.444C296.133 448.371 295.905 448.28 295.745 448.173ZM299.379 443.977C299.379 443.575 299.238 443.247 298.957 442.993C298.676 442.739 298.348 442.612 297.973 442.612C297.592 442.612 297.261 442.739 296.98 442.993C296.705 443.241 296.568 443.569 296.568 443.977C296.568 444.399 296.705 444.733 296.98 444.981C297.254 445.228 297.585 445.352 297.973 445.352C298.355 445.352 298.683 445.228 298.957 444.981C299.238 444.727 299.379 444.392 299.379 443.977Z" fill="#878787"/>
<path d="M350.77 442.903L349.886 443.214C349.839 442.906 349.689 442.628 349.434 442.381C349.18 442.126 348.829 441.999 348.38 441.999C347.985 441.999 347.657 442.113 347.396 442.34C347.135 442.568 347.005 442.849 347.005 443.184C347.005 443.445 347.082 443.666 347.236 443.846C347.396 444.027 347.624 444.151 347.918 444.218L348.982 444.449C349.571 444.576 350.027 444.817 350.348 445.172C350.669 445.52 350.83 445.945 350.83 446.447C350.83 447.022 350.602 447.517 350.147 447.932C349.692 448.347 349.1 448.555 348.37 448.555C347.574 448.555 346.948 448.347 346.493 447.932C346.044 447.511 345.783 447.012 345.71 446.437L346.653 446.135C346.693 446.564 346.861 446.925 347.155 447.22C347.45 447.514 347.851 447.661 348.36 447.661C348.829 447.661 349.19 447.554 349.444 447.34C349.699 447.126 349.826 446.855 349.826 446.527C349.826 446.259 349.735 446.028 349.555 445.834C349.374 445.633 349.11 445.496 348.762 445.423L347.748 445.202C347.219 445.088 346.797 444.864 346.483 444.529C346.168 444.194 346.011 443.769 346.011 443.254C346.011 442.692 346.238 442.2 346.693 441.778C347.155 441.35 347.711 441.136 348.36 441.136C349.09 441.136 349.648 441.313 350.037 441.668C350.425 442.023 350.669 442.434 350.77 442.903ZM352.597 445.493H355.237C355.224 445.131 355.103 444.837 354.876 444.609C354.648 444.375 354.327 444.258 353.912 444.258C353.537 444.258 353.229 444.382 352.988 444.629C352.747 444.87 352.617 445.158 352.597 445.493ZM355.378 446.748L356.191 447.029C356.05 447.477 355.789 447.845 355.408 448.133C355.026 448.414 354.565 448.555 354.022 448.555C353.346 448.555 352.771 448.324 352.296 447.862C351.827 447.394 351.593 446.765 351.593 445.975C351.593 445.239 351.82 444.629 352.276 444.148C352.731 443.666 353.273 443.425 353.902 443.425C354.631 443.425 355.2 443.656 355.609 444.117C356.017 444.573 356.221 445.185 356.221 445.955C356.221 446.075 356.214 446.176 356.201 446.256H352.567C352.573 446.684 352.714 447.036 352.988 447.31C353.269 447.584 353.614 447.722 354.022 447.722C354.712 447.722 355.164 447.397 355.378 446.748ZM358.359 450.312H357.426V443.575H358.339V444.328C358.48 444.074 358.691 443.866 358.972 443.706C359.253 443.545 359.581 443.465 359.956 443.465C360.652 443.465 361.194 443.702 361.582 444.178C361.977 444.653 362.174 445.255 362.174 445.985C362.174 446.721 361.97 447.33 361.562 447.812C361.16 448.294 360.615 448.535 359.926 448.535C359.571 448.535 359.256 448.461 358.982 448.314C358.707 448.167 358.5 447.979 358.359 447.752V450.312ZM361.211 445.985C361.211 445.496 361.08 445.095 360.819 444.78C360.565 444.459 360.22 444.298 359.785 444.298C359.357 444.298 359.009 444.459 358.741 444.78C358.48 445.095 358.349 445.496 358.349 445.985C358.349 446.487 358.48 446.898 358.741 447.22C359.009 447.534 359.357 447.691 359.785 447.691C360.213 447.691 360.558 447.534 360.819 447.22C361.08 446.898 361.211 446.487 361.211 445.985ZM364.593 442.049V443.575H365.637V444.429H364.593V446.939C364.593 447.166 364.643 447.333 364.743 447.441C364.85 447.548 365.024 447.601 365.265 447.601C365.406 447.601 365.53 447.588 365.637 447.561V448.364C365.476 448.424 365.262 448.454 364.994 448.454C364.579 448.454 364.251 448.334 364.01 448.093C363.77 447.852 363.649 447.514 363.649 447.079V444.429H362.725V443.575H362.986C363.234 443.575 363.418 443.508 363.539 443.375C363.666 443.234 363.729 443.053 363.729 442.832V442.049H364.593ZM371.394 448.404H370.43V443.816H368.854V443.124C369.296 443.117 369.667 443.003 369.969 442.782C370.27 442.555 370.457 442.26 370.531 441.899H371.394V448.404ZM374.24 443.043C373.858 443.445 373.667 444.148 373.667 445.152C373.667 446.155 373.858 446.858 374.24 447.26C374.507 447.541 374.852 447.681 375.274 447.681C375.695 447.681 376.04 447.541 376.308 447.26C376.689 446.858 376.88 446.155 376.88 445.152C376.88 444.148 376.689 443.445 376.308 443.043C376.04 442.762 375.695 442.622 375.274 442.622C374.852 442.622 374.507 442.762 374.24 443.043ZM373.276 447.511C372.888 446.935 372.694 446.149 372.694 445.152C372.694 444.154 372.888 443.368 373.276 442.792C373.738 442.096 374.404 441.748 375.274 441.748C376.144 441.748 376.81 442.096 377.272 442.792C377.66 443.368 377.854 444.154 377.854 445.152C377.854 446.149 377.66 446.935 377.272 447.511C376.81 448.207 376.144 448.555 375.274 448.555C374.404 448.555 373.738 448.207 373.276 447.511Z" fill="#878787"/>
<path d="M431.088 442.903L430.204 443.214C430.158 442.906 430.007 442.628 429.753 442.381C429.498 442.126 429.147 441.999 428.698 441.999C428.304 441.999 427.976 442.113 427.715 442.34C427.454 442.568 427.323 442.849 427.323 443.184C427.323 443.445 427.4 443.666 427.554 443.846C427.715 444.027 427.942 444.151 428.237 444.218L429.301 444.449C429.89 444.576 430.345 444.817 430.666 445.172C430.987 445.52 431.148 445.945 431.148 446.447C431.148 447.022 430.921 447.517 430.465 447.932C430.01 448.347 429.418 448.555 428.688 448.555C427.892 448.555 427.266 448.347 426.811 447.932C426.363 447.511 426.102 447.012 426.028 446.437L426.972 446.135C427.012 446.564 427.179 446.925 427.474 447.22C427.768 447.514 428.17 447.661 428.678 447.661C429.147 447.661 429.508 447.554 429.763 447.34C430.017 447.126 430.144 446.855 430.144 446.527C430.144 446.259 430.054 446.028 429.873 445.834C429.692 445.633 429.428 445.496 429.08 445.423L428.066 445.202C427.537 445.088 427.116 444.864 426.801 444.529C426.486 444.194 426.329 443.769 426.329 443.254C426.329 442.692 426.557 442.2 427.012 441.778C427.474 441.35 428.029 441.136 428.678 441.136C429.408 441.136 429.967 441.313 430.355 441.668C430.743 442.023 430.987 442.434 431.088 442.903ZM432.915 445.493H435.556C435.542 445.131 435.422 444.837 435.194 444.609C434.967 444.375 434.645 444.258 434.23 444.258C433.856 444.258 433.548 444.382 433.307 444.629C433.066 444.87 432.935 445.158 432.915 445.493ZM435.696 446.748L436.509 447.029C436.369 447.477 436.108 447.845 435.726 448.133C435.345 448.414 434.883 448.555 434.341 448.555C433.665 448.555 433.089 448.324 432.614 447.862C432.145 447.394 431.911 446.765 431.911 445.975C431.911 445.239 432.139 444.629 432.594 444.148C433.049 443.666 433.591 443.425 434.22 443.425C434.95 443.425 435.519 443.656 435.927 444.117C436.335 444.573 436.539 445.185 436.539 445.955C436.539 446.075 436.533 446.176 436.519 446.256H432.885C432.892 446.684 433.032 447.036 433.307 447.31C433.588 447.584 433.932 447.722 434.341 447.722C435.03 447.722 435.482 447.397 435.696 446.748ZM438.678 450.312H437.744V443.575H438.658V444.328C438.798 444.074 439.009 443.866 439.29 443.706C439.571 443.545 439.899 443.465 440.274 443.465C440.97 443.465 441.512 443.702 441.9 444.178C442.295 444.653 442.493 445.255 442.493 445.985C442.493 446.721 442.289 447.33 441.88 447.812C441.479 448.294 440.933 448.535 440.244 448.535C439.889 448.535 439.575 448.461 439.3 448.314C439.026 448.167 438.818 447.979 438.678 447.752V450.312ZM441.529 445.985C441.529 445.496 441.398 445.095 441.137 444.78C440.883 444.459 440.538 444.298 440.103 444.298C439.675 444.298 439.327 444.459 439.059 444.78C438.798 445.095 438.668 445.496 438.668 445.985C438.668 446.487 438.798 446.898 439.059 447.22C439.327 447.534 439.675 447.691 440.103 447.691C440.532 447.691 440.876 447.534 441.137 447.22C441.398 446.898 441.529 446.487 441.529 445.985ZM444.911 442.049V443.575H445.955V444.429H444.911V446.939C444.911 447.166 444.961 447.333 445.062 447.441C445.169 447.548 445.343 447.601 445.584 447.601C445.724 447.601 445.848 447.588 445.955 447.561V448.364C445.795 448.424 445.58 448.454 445.313 448.454C444.898 448.454 444.57 448.334 444.329 448.093C444.088 447.852 443.967 447.514 443.967 447.079V444.429H443.044V443.575H443.305C443.552 443.575 443.737 443.508 443.857 443.375C443.984 443.234 444.048 443.053 444.048 442.832V442.049H444.911ZM451.713 448.404H450.749V443.816H449.173V443.124C449.614 443.117 449.986 443.003 450.287 442.782C450.588 442.555 450.776 442.26 450.849 441.899H451.713V448.404ZM455.252 448.404H454.288V443.816H452.712V443.124C453.154 443.117 453.525 443.003 453.826 442.782C454.127 442.555 454.315 442.26 454.388 441.899H455.252V448.404Z" fill="#878787"/>
<path d="M509.969 442.903L509.085 443.214C509.038 442.906 508.888 442.628 508.633 442.381C508.379 442.126 508.028 441.999 507.579 441.999C507.184 441.999 506.857 442.113 506.595 442.34C506.334 442.568 506.204 442.849 506.204 443.184C506.204 443.445 506.281 443.666 506.435 443.846C506.595 444.027 506.823 444.151 507.118 444.218L508.182 444.449C508.771 444.576 509.226 444.817 509.547 445.172C509.868 445.52 510.029 445.945 510.029 446.447C510.029 447.022 509.801 447.517 509.346 447.932C508.891 448.347 508.299 448.555 507.569 448.555C506.773 448.555 506.147 448.347 505.692 447.932C505.243 447.511 504.982 447.012 504.909 446.437L505.853 446.135C505.893 446.564 506.06 446.925 506.355 447.22C506.649 447.514 507.051 447.661 507.559 447.661C508.028 447.661 508.389 447.554 508.644 447.34C508.898 447.126 509.025 446.855 509.025 446.527C509.025 446.259 508.935 446.028 508.754 445.834C508.573 445.633 508.309 445.496 507.961 445.423L506.947 445.202C506.418 445.088 505.996 444.864 505.682 444.529C505.367 444.194 505.21 443.769 505.21 443.254C505.21 442.692 505.438 442.2 505.893 441.778C506.355 441.35 506.91 441.136 507.559 441.136C508.289 441.136 508.848 441.313 509.236 441.668C509.624 442.023 509.868 442.434 509.969 442.903ZM511.796 445.493H514.436C514.423 445.131 514.303 444.837 514.075 444.609C513.847 444.375 513.526 444.258 513.111 444.258C512.736 444.258 512.428 444.382 512.188 444.629C511.947 444.87 511.816 445.158 511.796 445.493ZM514.577 446.748L515.39 447.029C515.25 447.477 514.989 447.845 514.607 448.133C514.226 448.414 513.764 448.555 513.222 448.555C512.546 448.555 511.97 448.324 511.495 447.862C511.026 447.394 510.792 446.765 510.792 445.975C510.792 445.239 511.02 444.629 511.475 444.148C511.93 443.666 512.472 443.425 513.101 443.425C513.831 443.425 514.4 443.656 514.808 444.117C515.216 444.573 515.42 445.185 515.42 445.955C515.42 446.075 515.414 446.176 515.4 446.256H511.766C511.773 446.684 511.913 447.036 512.188 447.31C512.469 447.584 512.813 447.722 513.222 447.722C513.911 447.722 514.363 447.397 514.577 446.748ZM517.559 450.312H516.625V443.575H517.538V444.328C517.679 444.074 517.89 443.866 518.171 443.706C518.452 443.545 518.78 443.465 519.155 443.465C519.851 443.465 520.393 443.702 520.781 444.178C521.176 444.653 521.374 445.255 521.374 445.985C521.374 446.721 521.169 447.33 520.761 447.812C520.36 448.294 519.814 448.535 519.125 448.535C518.77 448.535 518.455 448.461 518.181 448.314C517.907 448.167 517.699 447.979 517.559 447.752V450.312ZM520.41 445.985C520.41 445.496 520.279 445.095 520.018 444.78C519.764 444.459 519.419 444.298 518.984 444.298C518.556 444.298 518.208 444.459 517.94 444.78C517.679 445.095 517.549 445.496 517.549 445.985C517.549 446.487 517.679 446.898 517.94 447.22C518.208 447.534 518.556 447.691 518.984 447.691C519.413 447.691 519.757 447.534 520.018 447.22C520.279 446.898 520.41 446.487 520.41 445.985ZM523.792 442.049V443.575H524.836V444.429H523.792V446.939C523.792 447.166 523.842 447.333 523.943 447.441C524.05 447.548 524.224 447.601 524.465 447.601C524.605 447.601 524.729 447.588 524.836 447.561V448.364C524.675 448.424 524.461 448.454 524.194 448.454C523.779 448.454 523.451 448.334 523.21 448.093C522.969 447.852 522.848 447.514 522.848 447.079V444.429H521.925V443.575H522.186C522.433 443.575 522.617 443.508 522.738 443.375C522.865 443.234 522.929 443.053 522.929 442.832V442.049H523.792ZM530.593 448.404H529.63V443.816H528.053V443.124C528.495 443.117 528.867 443.003 529.168 442.782C529.469 442.555 529.656 442.26 529.73 441.899H530.593V448.404ZM532.806 444.238L531.822 444.117C531.816 444.057 531.812 443.97 531.812 443.856C531.812 443.274 532.017 442.779 532.425 442.371C532.833 441.956 533.379 441.748 534.061 441.748C534.737 441.748 535.273 441.942 535.668 442.33C536.062 442.712 536.26 443.184 536.26 443.746C536.26 444.569 535.852 445.239 535.035 445.754L533.75 446.577C533.288 446.872 533.024 447.176 532.957 447.491H536.3V448.404H531.742C531.756 447.855 531.879 447.374 532.114 446.959C532.355 446.544 532.746 446.162 533.288 445.814L534.372 445.111C534.968 444.73 535.266 444.278 535.266 443.756C535.266 443.435 535.159 443.164 534.945 442.943C534.731 442.722 534.429 442.612 534.041 442.612C533.633 442.612 533.322 442.735 533.108 442.983C532.893 443.231 532.786 443.552 532.786 443.947C532.786 444.007 532.793 444.104 532.806 444.238Z" fill="#878787"/>
<rect x="98.6445" y="380.034" width="50.1974" height="45.8947" rx="7.17105" fill="url(#paint1_linear_774_18514)"/>
<rect x="178.225" y="311.496" width="50.5357" height="114.255" rx="7.17105" fill="url(#paint2_linear_774_18514)"/>
<rect x="257.324" y="338.961" width="50.5357" height="86.7896" rx="7.17105" fill="url(#paint3_linear_774_18514)"/>
<rect x="337.522" y="232.396" width="50.5357" height="193.354" rx="7.17105" fill="url(#paint4_linear_774_18514)"/>
<rect x="417.042" y="311.91" width="50.1974" height="114.02" rx="7.17105" fill="url(#paint5_linear_774_18514)"/>
<rect x="496.635" y="338.442" width="50.1974" height="87.4868" rx="7.17105" fill="url(#paint6_linear_774_18514)"/>
</g>
<g filter="url(#filter1_d_774_18514)">
<rect x="176.029" y="182.959" width="427.69" height="79.0994" rx="8.78883" fill="white" shape-rendering="crispEdges"/>
<circle cx="227.613" cy="223.557" r="29.6118" fill="#EDEBFE"/>
<path d="M240.301 230.489V233.944H217.27V230.489C217.27 229.856 217.788 229.337 218.421 229.337H239.149C239.783 229.337 240.301 229.856 240.301 230.489Z" fill="#7E3AF2" stroke="#7E3AF2" stroke-width="1.72736" stroke-miterlimit="10" stroke-linecap="round" stroke-linejoin="round"/>
<path d="M223.028 221.276H220.725V229.337H223.028V221.276Z" fill="#7E3AF2"/>
<path d="M227.634 221.276H225.331V229.337H227.634V221.276Z" fill="#7E3AF2"/>
<path d="M232.241 221.276H229.938V229.337H232.241V221.276Z" fill="#7E3AF2"/>
<path d="M236.846 221.276H234.543V229.337H236.846V221.276Z" fill="#7E3AF2"/>
<path d="M241.453 234.807H216.119C215.646 234.807 215.255 234.416 215.255 233.944C215.255 233.472 215.646 233.08 216.119 233.08H241.453C241.925 233.08 242.317 233.472 242.317 233.944C242.317 234.416 241.925 234.807 241.453 234.807Z" fill="#7E3AF2"/>
<path d="M239.575 215.231L229.211 211.085C228.981 210.993 228.589 210.993 228.359 211.085L217.995 215.231C217.592 215.392 217.27 215.864 217.27 216.302V220.125C217.27 220.758 217.788 221.277 218.421 221.277H239.149C239.783 221.277 240.301 220.758 240.301 220.125V216.302C240.301 215.864 239.979 215.392 239.575 215.231ZM228.785 218.398C227.829 218.398 227.058 217.626 227.058 216.67C227.058 215.715 227.829 214.943 228.785 214.943C229.741 214.943 230.513 215.715 230.513 216.67C230.513 217.626 229.741 218.398 228.785 218.398Z" fill="#7E3AF2"/>
<path d="M238.001 230.489V233.944H214.97V230.489C214.97 229.856 215.488 229.337 216.121 229.337H236.85C237.483 229.337 238.001 229.856 238.001 230.489Z" fill="white" stroke="white" stroke-width="1.72736" stroke-miterlimit="10" stroke-linecap="round" stroke-linejoin="round"/>
<path d="M220.728 221.276H218.425V229.337H220.728V221.276Z" fill="white"/>
<path d="M225.334 221.276H223.031V229.337H225.334V221.276Z" fill="white"/>
<path d="M229.941 221.276H227.638V229.337H229.941V221.276Z" fill="white"/>
<path d="M234.546 221.276H232.243V229.337H234.546V221.276Z" fill="white"/>
<path d="M239.153 234.807H213.819C213.347 234.807 212.955 234.416 212.955 233.944C212.955 233.472 213.347 233.08 213.819 233.08H239.153C239.625 233.08 240.017 233.472 240.017 233.944C240.017 234.416 239.625 234.807 239.153 234.807Z" fill="white"/>
<path d="M237.276 215.231L226.912 211.085C226.681 210.993 226.29 210.993 226.059 211.085L215.695 215.231C215.292 215.392 214.97 215.864 214.97 216.302V220.125C214.97 220.758 215.488 221.277 216.121 221.277H236.85C237.483 221.277 238.001 220.758 238.001 220.125V216.302C238.001 215.864 237.679 215.392 237.276 215.231ZM226.485 218.398C225.53 218.398 224.758 217.626 224.758 216.67C224.758 215.715 225.53 214.943 226.485 214.943C227.441 214.943 228.213 215.715 228.213 216.67C228.213 217.626 227.441 218.398 226.485 218.398Z" fill="white"/>
<path d="M279.643 228.508H277.534V216.046H285.286V218.032H279.643V221.53H284.705V223.481H279.643V228.508ZM291.976 227.559C291.777 227.934 291.449 228.227 290.992 228.438C290.547 228.649 290.066 228.754 289.551 228.754C288.555 228.754 287.764 228.432 287.178 227.788C286.604 227.143 286.316 226.329 286.316 225.344V219.948H288.355V224.975C288.355 225.549 288.496 226.018 288.777 226.381C289.059 226.745 289.492 226.926 290.078 226.926C290.652 226.926 291.092 226.751 291.396 226.399C291.713 226.047 291.871 225.585 291.871 225.01V219.948H293.91V226.944C293.91 227.46 293.939 227.981 293.998 228.508H292.047C292 228.25 291.976 227.934 291.976 227.559ZM298.588 223.569V228.508H296.549V219.948H298.535V221.091C298.805 220.622 299.162 220.276 299.608 220.053C300.065 219.819 300.551 219.702 301.067 219.702C302.074 219.702 302.842 220.018 303.369 220.651C303.897 221.284 304.16 222.098 304.16 223.094V228.508H302.121V223.446C302.121 222.872 301.981 222.415 301.699 222.075C301.418 221.723 300.973 221.548 300.364 221.548C299.801 221.548 299.362 221.741 299.045 222.128C298.741 222.503 298.588 222.983 298.588 223.569ZM308.014 224.202C308.014 225.022 308.225 225.684 308.646 226.188C309.068 226.68 309.625 226.926 310.316 226.926C310.984 226.926 311.529 226.674 311.951 226.17C312.373 225.667 312.584 225.004 312.584 224.184C312.584 223.376 312.379 222.731 311.969 222.251C311.559 221.77 311.014 221.53 310.334 221.53C309.654 221.53 309.098 221.776 308.664 222.268C308.23 222.749 308.014 223.393 308.014 224.202ZM314.553 215.782V226.944C314.553 227.518 314.582 228.04 314.64 228.508H312.689C312.631 228.18 312.601 227.811 312.601 227.401C312.391 227.788 312.062 228.104 311.617 228.35C311.172 228.596 310.662 228.719 310.088 228.719C308.869 228.719 307.879 228.292 307.117 227.436C306.356 226.581 305.975 225.503 305.975 224.202C305.975 222.948 306.356 221.887 307.117 221.02C307.891 220.153 308.869 219.719 310.053 219.719C310.732 219.719 311.277 219.843 311.687 220.089C312.109 220.335 312.402 220.622 312.566 220.95V215.782H314.553ZM324.793 223.235L320.434 216.046H322.93L325.918 221.266L328.924 216.046H331.297L326.903 223.235V228.508H324.793V223.235ZM337.675 228.772C335.929 228.772 334.44 228.18 333.21 226.997C331.991 225.813 331.382 224.243 331.382 222.286C331.382 220.341 332.003 218.77 333.245 217.575C334.487 216.38 335.958 215.782 337.657 215.782C339.157 215.782 340.388 216.163 341.348 216.925C342.321 217.686 342.96 218.653 343.264 219.825L341.278 220.493C341.079 219.684 340.675 219.028 340.065 218.524C339.456 218.02 338.653 217.768 337.657 217.768C336.544 217.768 335.577 218.167 334.757 218.964C333.948 219.749 333.544 220.856 333.544 222.286C333.544 223.68 333.948 224.776 334.757 225.573C335.565 226.358 336.538 226.751 337.675 226.751C338.647 226.751 339.45 226.487 340.083 225.96C340.716 225.432 341.149 224.782 341.384 224.008L343.317 224.641C343.012 225.801 342.368 226.78 341.384 227.577C340.411 228.374 339.175 228.772 337.675 228.772Z" fill="black"/>
<rect x="413.214" y="209.509" width="48.558" height="26" rx="4.21471" fill="#F5F6F7"/>
<rect x="413.214" y="209.509" width="48.558" height="26" rx="4.21471" stroke="#BDBDBD"/>
<path d="M423.06 225.509H422.107V218.615H426.298V219.5H423.06V221.717H425.996V222.611H423.06V225.509ZM428.222 225.509H427.318V220.832H428.222V225.509ZM427.298 219.529C427.175 219.399 427.113 219.243 427.113 219.062C427.113 218.88 427.175 218.725 427.298 218.595C427.428 218.466 427.583 218.401 427.765 218.401C427.946 218.401 428.102 218.466 428.232 218.595C428.361 218.718 428.426 218.874 428.426 219.062C428.426 219.243 428.361 219.399 428.232 219.529C428.102 219.652 427.946 219.713 427.765 219.713C427.583 219.713 427.428 219.652 427.298 219.529ZM430.691 222.806V225.509H429.777V220.832H430.672V221.503C430.983 220.965 431.462 220.696 432.111 220.696C432.649 220.696 433.06 220.867 433.346 221.211C433.637 221.554 433.783 221.999 433.783 222.543V225.509H432.869V222.699C432.869 221.914 432.506 221.522 431.78 221.522C431.437 221.522 431.168 221.645 430.973 221.892C430.785 222.131 430.691 222.436 430.691 222.806ZM436.462 219.354V220.832H437.474V221.658H436.462V224.089C436.462 224.31 436.511 224.472 436.608 224.575C436.712 224.679 436.88 224.731 437.114 224.731C437.25 224.731 437.37 224.718 437.474 224.692V225.47C437.318 225.528 437.111 225.557 436.851 225.557C436.449 225.557 436.132 225.441 435.898 225.207C435.665 224.974 435.548 224.647 435.548 224.225V221.658H434.654V220.832H434.907C435.146 220.832 435.325 220.767 435.441 220.637C435.565 220.501 435.626 220.326 435.626 220.112V219.354H436.462ZM439.239 222.689H441.797C441.784 222.339 441.667 222.054 441.447 221.833C441.226 221.606 440.915 221.493 440.513 221.493C440.15 221.493 439.852 221.613 439.619 221.853C439.385 222.086 439.259 222.365 439.239 222.689ZM441.933 223.904L442.72 224.177C442.584 224.611 442.331 224.968 441.962 225.246C441.592 225.519 441.145 225.655 440.62 225.655C439.965 225.655 439.408 225.431 438.948 224.984C438.494 224.53 438.267 223.921 438.267 223.156C438.267 222.443 438.487 221.853 438.928 221.386C439.369 220.919 439.894 220.686 440.503 220.686C441.21 220.686 441.761 220.909 442.156 221.357C442.552 221.798 442.75 222.391 442.75 223.136C442.75 223.253 442.743 223.35 442.73 223.428H439.21C439.217 223.843 439.353 224.183 439.619 224.449C439.891 224.715 440.225 224.848 440.62 224.848C441.288 224.848 441.725 224.533 441.933 223.904ZM445.881 221.532C445.485 221.532 445.148 221.674 444.869 221.96C444.597 222.245 444.461 222.647 444.461 223.165C444.461 223.677 444.597 224.079 444.869 224.371C445.148 224.663 445.488 224.809 445.89 224.809C446.279 224.809 446.574 224.711 446.775 224.517C446.983 224.322 447.122 224.099 447.193 223.846L448 224.196C447.871 224.585 447.624 224.925 447.261 225.217C446.905 225.509 446.448 225.655 445.89 225.655C445.21 225.655 444.646 225.418 444.198 224.945C443.751 224.472 443.527 223.878 443.527 223.165C443.527 222.439 443.751 221.846 444.198 221.386C444.646 220.919 445.206 220.686 445.881 220.686C446.451 220.686 446.911 220.832 447.261 221.123C447.618 221.415 447.851 221.765 447.961 222.174L447.135 222.524C447.064 222.251 446.927 222.018 446.727 221.823C446.526 221.629 446.244 221.532 445.881 221.532ZM449.987 222.757V225.509H449.073V218.469H449.987V221.376C450.298 220.922 450.771 220.696 451.406 220.696C451.944 220.696 452.356 220.867 452.641 221.211C452.933 221.554 453.079 221.999 453.079 222.543V225.509H452.165V222.699C452.165 221.914 451.802 221.522 451.076 221.522C450.739 221.522 450.476 221.639 450.288 221.872C450.1 222.099 450 222.394 449.987 222.757Z" fill="black"/>
<rect x="470.201" y="209.509" width="46.558" height="26" rx="4.21471" fill="#CDEEFC"/>
<rect x="470.201" y="209.509" width="46.558" height="26" rx="4.21471" stroke="#2F80ED"/>
<path d="M483.31 225.509H479.12V218.615H483.31V219.5H480.072V221.619H483.009V222.514H480.072V224.624H483.31V225.509ZM485.027 223.156C485.027 223.648 485.147 224.05 485.387 224.361C485.633 224.673 485.97 224.828 486.398 224.828C486.806 224.828 487.134 224.669 487.38 224.352C487.626 224.034 487.75 223.629 487.75 223.136C487.75 222.65 487.63 222.258 487.39 221.96C487.15 221.661 486.823 221.512 486.408 221.512C485.993 221.512 485.659 221.665 485.406 221.969C485.153 222.274 485.027 222.669 485.027 223.156ZM487.759 224.877V224.799C487.636 225.039 487.448 225.24 487.195 225.402C486.949 225.557 486.654 225.635 486.31 225.635C485.643 225.635 485.105 225.402 484.696 224.935C484.294 224.462 484.093 223.869 484.093 223.156C484.093 222.475 484.301 221.898 484.716 221.425C485.131 220.945 485.662 220.705 486.31 220.705C486.693 220.705 487.004 220.783 487.244 220.939C487.484 221.088 487.649 221.272 487.74 221.493V218.469H488.644V224.643C488.644 224.961 488.66 225.249 488.693 225.509H487.808C487.776 225.327 487.759 225.117 487.759 224.877ZM491.424 219.354V220.832H492.435V221.658H491.424V224.089C491.424 224.31 491.473 224.472 491.57 224.575C491.674 224.679 491.842 224.731 492.076 224.731C492.212 224.731 492.332 224.718 492.435 224.692V225.47C492.28 225.528 492.072 225.557 491.813 225.557C491.411 225.557 491.093 225.441 490.86 225.207C490.627 224.974 490.51 224.647 490.51 224.225V221.658H489.615V220.832H489.868C490.108 220.832 490.286 220.767 490.403 220.637C490.526 220.501 490.588 220.326 490.588 220.112V219.354H491.424ZM494.201 222.689H496.758C496.745 222.339 496.629 222.054 496.408 221.833C496.188 221.606 495.877 221.493 495.475 221.493C495.112 221.493 494.814 221.613 494.58 221.853C494.347 222.086 494.22 222.365 494.201 222.689ZM496.895 223.904L497.682 224.177C497.546 224.611 497.293 224.968 496.924 225.246C496.554 225.519 496.107 225.655 495.582 225.655C494.927 225.655 494.37 225.431 493.909 224.984C493.456 224.53 493.229 223.921 493.229 223.156C493.229 222.443 493.449 221.853 493.89 221.386C494.331 220.919 494.856 220.686 495.465 220.686C496.172 220.686 496.723 220.909 497.118 221.357C497.514 221.798 497.711 222.391 497.711 223.136C497.711 223.253 497.705 223.35 497.692 223.428H494.172C494.178 223.843 494.314 224.183 494.58 224.449C494.853 224.715 495.186 224.848 495.582 224.848C496.25 224.848 496.687 224.533 496.895 223.904ZM500.842 221.532C500.447 221.532 500.11 221.674 499.831 221.96C499.559 222.245 499.423 222.647 499.423 223.165C499.423 223.677 499.559 224.079 499.831 224.371C500.11 224.663 500.45 224.809 500.852 224.809C501.241 224.809 501.536 224.711 501.737 224.517C501.944 224.322 502.084 224.099 502.155 223.846L502.962 224.196C502.832 224.585 502.586 224.925 502.223 225.217C501.867 225.509 501.41 225.655 500.852 225.655C500.171 225.655 499.607 225.418 499.16 224.945C498.713 224.472 498.489 223.878 498.489 223.165C498.489 222.439 498.713 221.846 499.16 221.386C499.607 220.919 500.168 220.686 500.842 220.686C501.413 220.686 501.873 220.832 502.223 221.123C502.58 221.415 502.813 221.765 502.923 222.174L502.097 222.524C502.025 222.251 501.889 222.018 501.688 221.823C501.487 221.629 501.205 221.532 500.842 221.532ZM504.948 222.757V225.509H504.034V218.469H504.948V221.376C505.26 220.922 505.733 220.696 506.368 220.696C506.906 220.696 507.318 220.867 507.603 221.211C507.895 221.554 508.041 221.999 508.041 222.543V225.509H507.126V222.699C507.126 221.914 506.763 221.522 506.037 221.522C505.7 221.522 505.438 221.639 505.25 221.872C505.062 222.099 504.961 222.394 504.948 222.757Z" fill="#058FC6"/>
<rect x="525.188" y="209.509" width="56.558" height="26" rx="4.21471" fill="#E6F6DA"/>
<rect x="525.188" y="209.509" width="56.558" height="26" rx="4.21471" stroke="#27AE60"/>
<path d="M538.796 225.509L538.047 223.583H534.994L534.265 225.509H533.244L535.986 218.615H537.085L539.827 225.509H538.796ZM536.511 219.606L535.335 222.699H537.707L536.511 219.606ZM540.269 225.762L541.154 225.557C541.187 225.888 541.319 226.16 541.553 226.374C541.786 226.595 542.078 226.705 542.428 226.705C543.381 226.705 543.857 226.199 543.857 225.188V224.517C543.741 224.744 543.556 224.929 543.303 225.071C543.057 225.214 542.765 225.285 542.428 225.285C541.806 225.285 541.29 225.074 540.882 224.653C540.48 224.225 540.279 223.681 540.279 223.02C540.279 222.378 540.48 221.84 540.882 221.405C541.284 220.965 541.799 220.744 542.428 220.744C543.141 220.744 543.621 220.99 543.867 221.483V220.832H544.771V225.159C544.771 225.47 544.729 225.758 544.645 226.024C544.567 226.296 544.441 226.546 544.266 226.773C544.091 227 543.844 227.178 543.527 227.308C543.216 227.437 542.849 227.502 542.428 227.502C541.851 227.502 541.362 227.337 540.96 227.006C540.558 226.682 540.328 226.267 540.269 225.762ZM542.564 224.517C542.96 224.517 543.28 224.381 543.527 224.109C543.773 223.83 543.896 223.467 543.896 223.02C543.896 222.572 543.773 222.212 543.527 221.94C543.28 221.661 542.96 221.522 542.564 221.522C542.162 221.522 541.835 221.658 541.582 221.93C541.336 222.203 541.213 222.566 541.213 223.02C541.213 223.48 541.332 223.846 541.572 224.118C541.819 224.384 542.149 224.517 542.564 224.517ZM548.827 220.783V221.755C548.691 221.736 548.558 221.726 548.429 221.726C547.573 221.726 547.145 222.206 547.145 223.165V225.509H546.231V220.832H547.126V221.648C547.411 221.052 547.878 220.754 548.526 220.754C548.63 220.754 548.73 220.764 548.827 220.783ZM550.717 224.4C551.002 224.692 551.349 224.838 551.757 224.838C552.166 224.838 552.509 224.692 552.788 224.4C553.073 224.102 553.216 223.69 553.216 223.165C553.216 222.647 553.073 222.242 552.788 221.95C552.509 221.652 552.166 221.503 551.757 221.503C551.349 221.503 551.002 221.652 550.717 221.95C550.438 222.242 550.299 222.647 550.299 223.165C550.299 223.69 550.438 224.102 550.717 224.4ZM550.036 221.396C550.49 220.922 551.064 220.686 551.757 220.686C552.451 220.686 553.021 220.922 553.469 221.396C553.922 221.862 554.149 222.452 554.149 223.165C554.149 223.885 553.926 224.481 553.478 224.955C553.031 225.421 552.457 225.655 551.757 225.655C551.057 225.655 550.483 225.421 550.036 224.955C549.589 224.481 549.365 223.885 549.365 223.165C549.365 222.452 549.589 221.862 550.036 221.396ZM556.496 219.354V220.832H557.508V221.658H556.496V224.089C556.496 224.31 556.545 224.472 556.642 224.575C556.746 224.679 556.915 224.731 557.148 224.731C557.284 224.731 557.404 224.718 557.508 224.692V225.47C557.352 225.528 557.145 225.557 556.885 225.557C556.483 225.557 556.166 225.441 555.932 225.207C555.699 224.974 555.582 224.647 555.582 224.225V221.658H554.688V220.832H554.941C555.18 220.832 555.359 220.767 555.475 220.637C555.599 220.501 555.66 220.326 555.66 220.112V219.354H556.496ZM559.273 222.689H561.831C561.818 222.339 561.701 222.054 561.481 221.833C561.26 221.606 560.949 221.493 560.547 221.493C560.184 221.493 559.886 221.613 559.653 221.853C559.419 222.086 559.293 222.365 559.273 222.689ZM561.967 223.904L562.754 224.177C562.618 224.611 562.366 224.968 561.996 225.246C561.627 225.519 561.179 225.655 560.654 225.655C559.999 225.655 559.442 225.431 558.982 224.984C558.528 224.53 558.301 223.921 558.301 223.156C558.301 222.443 558.521 221.853 558.962 221.386C559.403 220.919 559.928 220.686 560.537 220.686C561.244 220.686 561.795 220.909 562.191 221.357C562.586 221.798 562.784 222.391 562.784 223.136C562.784 223.253 562.777 223.35 562.764 223.428H559.244C559.251 223.843 559.387 224.183 559.653 224.449C559.925 224.715 560.259 224.848 560.654 224.848C561.322 224.848 561.759 224.533 561.967 223.904ZM565.915 221.532C565.519 221.532 565.182 221.674 564.903 221.96C564.631 222.245 564.495 222.647 564.495 223.165C564.495 223.677 564.631 224.079 564.903 224.371C565.182 224.663 565.522 224.809 565.924 224.809C566.313 224.809 566.608 224.711 566.809 224.517C567.017 224.322 567.156 224.099 567.227 223.846L568.034 224.196C567.905 224.585 567.658 224.925 567.295 225.217C566.939 225.509 566.482 225.655 565.924 225.655C565.244 225.655 564.68 225.418 564.232 224.945C563.785 224.472 563.561 223.878 563.561 223.165C563.561 222.439 563.785 221.846 564.232 221.386C564.68 220.919 565.24 220.686 565.915 220.686C566.485 220.686 566.945 220.832 567.295 221.123C567.652 221.415 567.885 221.765 567.995 222.174L567.169 222.524C567.098 222.251 566.962 222.018 566.761 221.823C566.56 221.629 566.278 221.532 565.915 221.532ZM570.021 222.757V225.509H569.107V218.469H570.021V221.376C570.332 220.922 570.805 220.696 571.44 220.696C571.978 220.696 572.39 220.867 572.675 221.211C572.967 221.554 573.113 221.999 573.113 222.543V225.509H572.199V222.699C572.199 221.914 571.836 221.522 571.11 221.522C570.773 221.522 570.51 221.639 570.322 221.872C570.134 222.099 570.034 222.394 570.021 222.757Z" fill="#27AE60"/>
</g>
<defs>
<filter id="filter0_d_774_18514" x="24.4223" y="72" width="539.415" height="415.272" filterUnits="userSpaceOnUse" color-interpolation-filters="sRGB">
<feFlood flood-opacity="0" result="BackgroundImageFix"/>
<feColorMatrix in="SourceAlpha" type="matrix" values="0 0 0 0 0 0 0 0 0 0 0 0 0 0 0 0 0 0 127 0" result="hardAlpha"/>
<feOffset dx="-17.5777" dy="17.5777"/>
<feComposite in2="hardAlpha" operator="out"/>
<feColorMatrix type="matrix" values="0 0 0 0 0.25098 0 0 0 0 0.482353 0 0 0 0 1 0 0 0 0.1 0"/>
<feBlend mode="normal" in2="BackgroundImageFix" result="effect1_dropShadow_774_18514"/>
<feBlend mode="normal" in="SourceGraphic" in2="effect1_dropShadow_774_18514" result="shape"/>
</filter>
<filter id="filter1_d_774_18514" x="165.373" y="182.959" width="449.002" height="118.32" filterUnits="userSpaceOnUse" color-interpolation-filters="sRGB">
<feFlood flood-opacity="0" result="BackgroundImageFix"/>
<feColorMatrix in="SourceAlpha" type="matrix" values="0 0 0 0 0 0 0 0 0 0 0 0 0 0 0 0 0 0 127 0" result="hardAlpha"/>
<feOffset dy="28.5637"/>
<feGaussianBlur stdDeviation="5.32823"/>
<feComposite in2="hardAlpha" operator="out"/>
<feColorMatrix type="matrix" values="0 0 0 0 0 0 0 0 0 0 0 0 0 0 0 0 0 0 0.05 0"/>
<feBlend mode="normal" in2="BackgroundImageFix" result="effect1_dropShadow_774_18514"/>
<feBlend mode="normal" in="SourceGraphic" in2="effect1_dropShadow_774_18514" result="shape"/>
</filter>
<linearGradient id="paint0_linear_774_18514" x1="302.918" y1="72" x2="302.918" y2="469.694" gradientUnits="userSpaceOnUse">
<stop offset="0.419031" stop-color="#EEF3FD"/>
<stop offset="1" stop-color="white"/>
</linearGradient>
<linearGradient id="paint1_linear_774_18514" x1="127.329" y1="425.929" x2="114.388" y2="382.844" gradientUnits="userSpaceOnUse">
<stop stop-color="#3366FF"/>
<stop offset="1" stop-color="#6187F8"/>
</linearGradient>
<linearGradient id="paint2_linear_774_18514" x1="207.102" y1="425.751" x2="151.128" y2="350.389" gradientUnits="userSpaceOnUse">
<stop stop-color="#3366FF"/>
<stop offset="1" stop-color="#6187F8"/>
</linearGradient>
<linearGradient id="paint3_linear_774_18514" x1="286.202" y1="425.751" x2="248.187" y2="358.372" gradientUnits="userSpaceOnUse">
<stop stop-color="#3366FF"/>
<stop offset="1" stop-color="#6187F8"/>
</linearGradient>
<linearGradient id="paint4_linear_774_18514" x1="366.4" y1="425.751" x2="269.986" y2="349.046" gradientUnits="userSpaceOnUse">
<stop stop-color="#3366FF"/>
<stop offset="1" stop-color="#6187F8"/>
</linearGradient>
<linearGradient id="paint5_linear_774_18514" x1="445.726" y1="425.93" x2="389.792" y2="350.973" gradientUnits="userSpaceOnUse">
<stop stop-color="#3366FF"/>
<stop offset="1" stop-color="#6187F8"/>
</linearGradient>
<linearGradient id="paint6_linear_774_18514" x1="525.319" y1="425.929" x2="486.709" y2="358.496" gradientUnits="userSpaceOnUse">
<stop stop-color="#3366FF"/>
<stop offset="1" stop-color="#6187F8"/>
</linearGradient>
</defs>
</svg>
