<svg width="62" height="62" viewBox="0 0 62 62" fill="none" xmlns="http://www.w3.org/2000/svg">
<rect x="15.0293" y="0.606079" width="48" height="48" rx="8" transform="rotate(15 15.0293 0.606079)" fill="#9EBCFE"/>
<g filter="url(#filter0_b_774_18347)">
<rect y="14" width="48" height="48" rx="8" fill="white" fill-opacity="0.6"/>
<rect x="0.5" y="14.5" width="47" height="47" rx="7.5" stroke="white" stroke-opacity="0.6"/>
<path d="M30 44.75H21.75C19.2751 44.75 18.0377 44.75 17.2688 43.9812C16.5 43.2123 16.5 41.9749 16.5 39.5V31.25" stroke="#012677" stroke-width="1.5" stroke-linecap="round"/>
<path d="M26.819 34.25C26.819 33.8358 27.1548 33.5 27.569 33.5C27.9832 33.5 28.319 33.8358 28.319 34.25L26.819 34.25ZM19.5 42.5C19.0858 42.5 18.75 42.1642 18.75 41.75C18.75 41.3358 19.0858 41 19.5 41L19.5 42.5ZM26.4358 35.5122C26.1529 35.8148 25.6783 35.8307 25.3757 35.5478C25.0731 35.2649 25.0572 34.7903 25.3401 34.4878L26.4358 35.5122ZM26.618 34.2192L26.0702 33.7069L26.0702 33.7069L26.618 34.2192ZM28.5199 34.2192L29.0677 33.7069L28.5199 34.2192ZM29.7978 34.4878C30.0807 34.7903 30.0648 35.2649 29.7622 35.5478C29.4597 35.8307 28.9851 35.8148 28.7022 35.5122L29.7978 34.4878ZM27.569 33.5L27.569 32.75L27.569 33.5ZM28.319 34.25C28.319 36.9322 27.3362 39.0232 25.6942 40.433C24.0677 41.8294 21.8631 42.5 19.5 42.5L19.5 41C21.5933 41 23.4231 40.4059 24.7171 39.2949C25.9955 38.1973 26.819 36.5383 26.819 34.25L28.319 34.25ZM25.3401 34.4878L26.0702 33.7069L27.1659 34.7314L26.4358 35.5122L25.3401 34.4878ZM29.0677 33.7069L29.7978 34.4878L28.7022 35.5122L27.9721 34.7314L29.0677 33.7069ZM26.0702 33.7069C26.2795 33.483 26.4876 33.2582 26.683 33.0987C26.8933 32.9271 27.1838 32.75 27.569 32.75L27.569 34.25C27.6756 34.25 27.7148 34.1928 27.6313 34.2609C27.533 34.3411 27.4048 34.4759 27.1659 34.7314L26.0702 33.7069ZM27.9721 34.7314C27.7331 34.4759 27.605 34.3411 27.5066 34.2609C27.4232 34.1928 27.4623 34.25 27.569 34.25L27.569 32.75C27.9541 32.75 28.2446 32.9271 28.4549 33.0987C28.6504 33.2582 28.8584 33.483 29.0677 33.7069L27.9721 34.7314Z" fill="#012677"/>
</g>
<defs>
<filter id="filter0_b_774_18347" x="-16" y="-2" width="80" height="80" filterUnits="userSpaceOnUse" color-interpolation-filters="sRGB">
<feFlood flood-opacity="0" result="BackgroundImageFix"/>
<feGaussianBlur in="BackgroundImageFix" stdDeviation="8"/>
<feComposite in2="SourceAlpha" operator="in" result="effect1_backgroundBlur_774_18347"/>
<feBlend mode="normal" in="SourceGraphic" in2="effect1_backgroundBlur_774_18347" result="shape"/>
</filter>
</defs>
</svg>
