<svg width="62" height="62" viewBox="0 0 62 62" fill="none" xmlns="http://www.w3.org/2000/svg">
<rect x="15.0293" y="0.606079" width="48" height="48" rx="8" transform="rotate(15 15.0293 0.606079)" fill="#9EBCFE"/>
<g filter="url(#filter0_b_774_18355)">
<rect y="14" width="48" height="48" rx="8" fill="white" fill-opacity="0.6"/>
<rect x="0.5" y="14.5" width="47" height="47" rx="7.5" stroke="white" stroke-opacity="0.6"/>
<g clip-path="url(#clip0_774_18355)">
<path d="M28.5 33.5C29.4751 33.5965 30.1314 33.8147 30.6213 34.3077C31.5 35.192 31.5 36.6152 31.5 39.4617C31.5 42.3082 31.5 43.7314 30.6213 44.6157C29.7426 45.5 28.3284 45.5 25.5 45.5H22.5C19.6716 45.5 18.2574 45.5 17.3787 44.6157C16.5 43.7314 16.5 42.3082 16.5 39.4617C16.5 36.6152 16.5 35.192 17.3787 34.3077C17.8686 33.8147 18.5249 33.5965 19.5 33.5" stroke="#012677" stroke-width="1.5" stroke-linecap="round"/>
<path d="M22.125 33.125C22.4936 33.5043 23.4748 35 24 35M25.875 33.125C25.5064 33.5043 24.5252 35 24 35M24 35V30.5" stroke="#012677" stroke-width="1.5" stroke-linecap="round" stroke-linejoin="round"/>
<path d="M28.8809 39.5H28.8741" stroke="#012677" stroke-width="2" stroke-linecap="round" stroke-linejoin="round"/>
<path d="M19.1309 39.5H19.1241" stroke="#012677" stroke-width="2" stroke-linecap="round" stroke-linejoin="round"/>
<path d="M25.875 39.5C25.875 40.5355 25.0355 41.375 24 41.375C22.9645 41.375 22.125 40.5355 22.125 39.5C22.125 38.4645 22.9645 37.625 24 37.625C25.0355 37.625 25.875 38.4645 25.875 39.5Z" stroke="#012677" stroke-width="1.5"/>
</g>
</g>
<defs>
<filter id="filter0_b_774_18355" x="-16" y="-2" width="80" height="80" filterUnits="userSpaceOnUse" color-interpolation-filters="sRGB">
<feFlood flood-opacity="0" result="BackgroundImageFix"/>
<feGaussianBlur in="BackgroundImageFix" stdDeviation="8"/>
<feComposite in2="SourceAlpha" operator="in" result="effect1_backgroundBlur_774_18355"/>
<feBlend mode="normal" in="SourceGraphic" in2="effect1_backgroundBlur_774_18355" result="shape"/>
</filter>
<clipPath id="clip0_774_18355">
<rect width="18" height="18" fill="white" transform="translate(15 29)"/>
</clipPath>
</defs>
</svg>
