<svg width="62" height="62" viewBox="0 0 62 62" fill="none" xmlns="http://www.w3.org/2000/svg">
<rect x="15.0293" y="0.606079" width="48" height="48" rx="8" transform="rotate(15 15.0293 0.606079)" fill="#9EBCFE"/>
<g filter="url(#filter0_b_774_18364)">
<rect y="14" width="48" height="48" rx="8" fill="white" fill-opacity="0.6"/>
<rect x="0.5" y="14.5" width="47" height="47" rx="7.5" stroke="white" stroke-opacity="0.6"/>
<path d="M25.5 35.7499H28.5" stroke="#012677" stroke-width="1.5" stroke-linecap="round"/>
<path d="M25.5 38.3749H27.75" stroke="#012677" stroke-width="1.5" stroke-linecap="round"/>
<rect x="16.5" y="31.2499" width="15" height="13.5" rx="5" stroke="#012677" stroke-width="1.5" stroke-linejoin="round"/>
<path d="M18.75 40.9999C19.6562 39.0641 23.0341 38.9367 24 40.9999" stroke="#012677" stroke-width="1.5" stroke-linecap="round" stroke-linejoin="round"/>
<path d="M22.875 35.7499C22.875 36.5783 22.2034 37.2499 21.375 37.2499C20.5466 37.2499 19.875 36.5783 19.875 35.7499C19.875 34.9215 20.5466 34.2499 21.375 34.2499C22.2034 34.2499 22.875 34.9215 22.875 35.7499Z" stroke="#012677" stroke-width="1.5"/>
</g>
<defs>
<filter id="filter0_b_774_18364" x="-16" y="-2" width="80" height="80" filterUnits="userSpaceOnUse" color-interpolation-filters="sRGB">
<feFlood flood-opacity="0" result="BackgroundImageFix"/>
<feGaussianBlur in="BackgroundImageFix" stdDeviation="8"/>
<feComposite in2="SourceAlpha" operator="in" result="effect1_backgroundBlur_774_18364"/>
<feBlend mode="normal" in="SourceGraphic" in2="effect1_backgroundBlur_774_18364" result="shape"/>
</filter>
</defs>
</svg>
