<svg width="63" height="62" viewBox="0 0 63 62" fill="none" xmlns="http://www.w3.org/2000/svg">
<rect x="15.6967" y="0.605469" width="48" height="48" rx="8" transform="rotate(15 15.6967 0.605469)" fill="#9EBCFE"/>
<g filter="url(#filter0_b_774_17092)">
<rect x="0.333374" y="14" width="48" height="48" rx="8" fill="white" fill-opacity="0.6"/>
<rect x="0.833374" y="14.5" width="47" height="47" rx="7.5" stroke="white" stroke-opacity="0.6"/>
<path d="M31.3987 46.265H16.936C16.6066 46.265 16.3334 45.9919 16.3334 45.6624C16.3334 45.333 16.6066 45.0598 16.936 45.0598H31.3987C31.7282 45.0598 32.0013 45.333 32.0013 45.6624C32.0013 45.9919 31.7282 46.265 31.3987 46.265Z" fill="#012677"/>
<path d="M19.025 43.8534H17.7395C16.9681 43.8534 16.3334 43.2186 16.3334 42.4473V35.5212C16.3334 34.7499 16.9681 34.1151 17.7395 34.1151H19.025C19.7964 34.1151 20.4311 34.7499 20.4311 35.5212V42.4473C20.4311 43.2186 19.7964 43.8534 19.025 43.8534ZM17.7395 35.3123C17.627 35.3123 17.5386 35.4007 17.5386 35.5132V42.4473C17.5386 42.5598 17.627 42.6482 17.7395 42.6482H19.025C19.1375 42.6482 19.2259 42.5598 19.2259 42.4473V35.5212C19.2259 35.4088 19.1375 35.3204 19.025 35.3204H17.7395V35.3123Z" fill="#012677"/>
<path d="M24.8093 43.8554H23.5237C22.7524 43.8554 22.1176 43.2206 22.1176 42.4493V32.9601C22.1176 32.1888 22.7524 31.554 23.5237 31.554H24.8093C25.5806 31.554 26.2154 32.1888 26.2154 32.9601V42.4493C26.2154 43.2206 25.5806 43.8554 24.8093 43.8554ZM23.5237 32.7593C23.4112 32.7593 23.3228 32.8477 23.3228 32.9601V42.4493C23.3228 42.5618 23.4112 42.6502 23.5237 42.6502H24.8093C24.9218 42.6502 25.0101 42.5618 25.0101 42.4493V32.9601C25.0101 32.8477 24.9218 32.7593 24.8093 32.7593H23.5237Z" fill="#012677"/>
<path d="M30.5941 43.8542H29.3085C28.5372 43.8542 27.9024 43.2195 27.9024 42.4481V30.3958C27.9024 29.6245 28.5372 28.9897 29.3085 28.9897H30.5941C31.3654 28.9897 32.0002 29.6245 32.0002 30.3958V42.4481C32.0002 43.2195 31.3654 43.8542 30.5941 43.8542ZM29.3085 30.195C29.196 30.195 29.1076 30.2834 29.1076 30.3958V42.4481C29.1076 42.5606 29.196 42.649 29.3085 42.649H30.5941C30.7065 42.649 30.7949 42.5606 30.7949 42.4481V30.3958C30.7949 30.2834 30.7065 30.195 30.5941 30.195H29.3085Z" fill="#012677"/>
<path d="M18.0625 41.4983C17.936 41.4983 17.8021 41.4537 17.6979 41.3644C17.4673 41.1635 17.4375 40.8139 17.6384 40.5758L21.0532 36.5881C21.4252 36.1566 21.9608 35.8963 22.5262 35.8739C23.0917 35.8591 23.6496 36.0674 24.0514 36.4691L24.7581 37.1759C24.9441 37.3619 25.1896 37.4511 25.45 37.4511C25.7104 37.4437 25.9485 37.3247 26.1196 37.1238L29.5344 33.1362C29.7352 32.9055 30.0849 32.8758 30.323 33.0766C30.5536 33.2775 30.5833 33.6272 30.3825 33.8652L26.9677 37.8529C26.5957 38.2844 26.0601 38.5448 25.4946 38.5671C24.9292 38.582 24.3713 38.3737 23.9695 37.9719L23.2702 37.2652C23.0842 37.0792 22.8387 36.9825 22.5783 36.9899C22.3179 36.9973 22.0799 37.1164 21.9088 37.3172L18.494 41.3049C18.3749 41.4313 18.2187 41.4983 18.0625 41.4983Z" fill="#012677"/>
</g>
<defs>
<filter id="filter0_b_774_17092" x="-15.6666" y="-2" width="80" height="80" filterUnits="userSpaceOnUse" color-interpolation-filters="sRGB">
<feFlood flood-opacity="0" result="BackgroundImageFix"/>
<feGaussianBlur in="BackgroundImageFix" stdDeviation="8"/>
<feComposite in2="SourceAlpha" operator="in" result="effect1_backgroundBlur_774_17092"/>
<feBlend mode="normal" in="SourceGraphic" in2="effect1_backgroundBlur_774_17092" result="shape"/>
</filter>
</defs>
</svg>
