<svg width="63" height="62" viewBox="0 0 63 62" fill="none" xmlns="http://www.w3.org/2000/svg">
<rect x="16.0299" y="0.605469" width="48" height="48" rx="8" transform="rotate(15 16.0299 0.605469)" fill="#9EBCFE"/>
<g filter="url(#filter0_b_774_17083)">
<rect x="0.666626" y="14" width="48" height="48" rx="8" fill="white" fill-opacity="0.6"/>
<rect x="1.16663" y="14.5" width="47" height="47" rx="7.5" stroke="white" stroke-opacity="0.6"/>
<g clip-path="url(#clip0_774_17083)">
<path d="M31.2472 42.5C31.8091 42.5 32.2561 42.1464 32.6575 41.6519C33.4791 40.6396 32.1301 39.8306 31.6156 39.4345C31.0926 39.0317 30.5087 38.8036 29.9166 38.75M29.1666 37.25C30.2022 37.25 31.0416 36.4105 31.0416 35.375C31.0416 34.3395 30.2022 33.5 29.1666 33.5" stroke="#012677" stroke-width="1.5" stroke-linecap="round"/>
<path d="M18.0861 42.5C17.5241 42.5 17.0771 42.1464 16.6758 41.6519C15.8542 40.6396 17.2031 39.8306 17.7176 39.4345C18.2406 39.0317 18.8246 38.8036 19.4166 38.75M19.7916 37.25C18.7561 37.25 17.9166 36.4105 17.9166 35.375C17.9166 34.3395 18.7561 33.5 19.7916 33.5" stroke="#012677" stroke-width="1.5" stroke-linecap="round"/>
<path d="M21.7295 40.3334C20.9631 40.8072 18.9539 41.7748 20.1777 42.9856C20.7755 43.577 21.4413 44 22.2783 44H27.0549C27.892 44 28.5578 43.577 29.1556 42.9856C30.3794 41.7748 28.3701 40.8072 27.6038 40.3334C25.8067 39.2222 23.5265 39.2222 21.7295 40.3334Z" stroke="#012677" stroke-width="1.5" stroke-linecap="round" stroke-linejoin="round"/>
<path d="M27.2916 34.625C27.2916 36.0747 26.1164 37.25 24.6666 37.25C23.2169 37.25 22.0416 36.0747 22.0416 34.625C22.0416 33.1753 23.2169 32 24.6666 32C26.1164 32 27.2916 33.1753 27.2916 34.625Z" stroke="#012677" stroke-width="1.5"/>
</g>
</g>
<defs>
<filter id="filter0_b_774_17083" x="-15.3334" y="-2" width="80" height="80" filterUnits="userSpaceOnUse" color-interpolation-filters="sRGB">
<feFlood flood-opacity="0" result="BackgroundImageFix"/>
<feGaussianBlur in="BackgroundImageFix" stdDeviation="8"/>
<feComposite in2="SourceAlpha" operator="in" result="effect1_backgroundBlur_774_17083"/>
<feBlend mode="normal" in="SourceGraphic" in2="effect1_backgroundBlur_774_17083" result="shape"/>
</filter>
<clipPath id="clip0_774_17083">
<rect width="18" height="18" fill="white" transform="translate(15.6666 29)"/>
</clipPath>
</defs>
</svg>
