<svg width="628" height="581" viewBox="0 0 628 581" fill="none" xmlns="http://www.w3.org/2000/svg">
<rect y="0.320068" width="628" height="580" rx="16" fill="#EAECF0"/>
<rect y="0.320068" width="628" height="580" rx="16" fill="#F3FAFA"/>
<rect y="0.320068" width="628" height="580" rx="16" fill="#F4F7FE"/>
<g filter="url(#filter0_d_925_10505)">
<rect x="71" y="82.3201" width="485.716" height="415.108" rx="16" fill="url(#paint0_linear_925_10505)" shape-rendering="crispEdges"/>
<path d="M435.314 291.38H192.4V291.501H435.314V291.38Z" fill="#EBEBEB"/>
<path d="M248.43 296.005H236.348V296.127H248.43V296.005Z" fill="#EBEBEB"/>
<path d="M279.767 294.689H266.406V294.81H279.767V294.689Z" fill="#EBEBEB"/>
<path d="M243.792 300.519H215.561V300.64H243.792V300.519Z" fill="#EBEBEB"/>
<path d="M410.974 299.703H400.48V299.824H410.974V299.703Z" fill="#EBEBEB"/>
<path d="M310.321 295.626H296.752V295.748H310.321V295.626Z" fill="#EBEBEB"/>
<path d="M372.589 297.652H338.475V297.774H372.589V297.652Z" fill="#EBEBEB"/>
<path d="M307.543 269.712H213.734C212.999 269.711 212.295 269.418 211.776 268.898C211.256 268.378 210.965 267.673 210.965 266.938V135.07C210.971 134.339 211.266 133.641 211.784 133.126C212.303 132.611 213.003 132.321 213.734 132.32H307.543C308.278 132.32 308.984 132.612 309.504 133.133C310.024 133.653 310.317 134.358 310.317 135.094V266.938C310.317 267.674 310.024 268.379 309.504 268.9C308.984 269.42 308.278 269.712 307.543 269.712ZM213.734 132.417C213.031 132.419 212.358 132.699 211.862 133.196C211.365 133.693 211.086 134.367 211.086 135.07V266.938C211.086 267.641 211.365 268.315 211.862 268.812C212.358 269.309 213.031 269.589 213.734 269.591H307.543C308.246 269.589 308.92 269.31 309.417 268.812C309.914 268.315 310.194 267.641 310.195 266.938V135.07C310.194 134.367 309.914 133.693 309.417 133.196C308.92 132.698 308.246 132.419 307.543 132.417H213.734Z" fill="#EBEBEB"/>
<path d="M412.632 269.712H318.819C318.084 269.711 317.379 269.418 316.859 268.898C316.339 268.378 316.046 267.673 316.045 266.938V135.07C316.053 134.339 316.348 133.64 316.867 133.125C317.387 132.611 318.088 132.321 318.819 132.32H412.632C413.362 132.323 414.062 132.613 414.579 133.127C415.097 133.642 415.39 134.34 415.397 135.07V266.938C415.397 267.672 415.106 268.376 414.588 268.896C414.07 269.416 413.366 269.71 412.632 269.712ZM318.819 132.417C318.116 132.419 317.442 132.698 316.945 133.196C316.448 133.693 316.168 134.367 316.166 135.07V266.938C316.168 267.641 316.448 268.315 316.945 268.812C317.442 269.31 318.116 269.589 318.819 269.591H412.632C413.335 269.589 414.009 269.31 414.507 268.812C415.004 268.315 415.284 267.641 415.285 266.938V135.07C415.284 134.367 415.004 133.693 414.507 133.196C414.009 132.698 413.335 132.419 412.632 132.417H318.819Z" fill="#EBEBEB"/>
<path d="M295.396 146.171H221.385V238.352H295.396V146.171Z" fill="#E6E6E6"/>
<path d="M297.029 146.171H222.148V238.352H297.029V146.171Z" fill="#F5F5F5"/>
<path d="M222.404 144.913H296.366C296.539 144.913 296.705 144.844 296.827 144.722C296.949 144.6 297.017 144.434 297.017 144.262C297.016 144.09 296.947 143.925 296.825 143.804C296.703 143.683 296.538 143.615 296.366 143.615H222.404C222.233 143.617 222.069 143.685 221.948 143.806C221.828 143.927 221.759 144.091 221.758 144.262C221.758 144.433 221.826 144.598 221.947 144.72C222.068 144.842 222.232 144.911 222.404 144.913Z" fill="#E6E6E6"/>
<path d="M295.396 238.352H221.385V239.635H295.396V238.352Z" fill="#E6E6E6"/>
<path d="M304.531 238.352H233.24V239.635H304.531V238.352Z" fill="#F5F5F5"/>
<path d="M294.734 235.369V149.154H224.445V235.369H294.734Z" fill="#FAFAFA"/>
<path d="M248.857 235.369L254.279 149.154H264.03L258.608 235.369H248.857Z" fill="white"/>
<path d="M261.369 235.369L266.791 149.154H271.314L265.892 235.369H261.369Z" fill="white"/>
<path d="M294.734 206.783V148.751H294.443V206.783H294.734Z" fill="#E6E6E6"/>
<g opacity="0.4">
<path d="M219.66 149.004V232.177C223.969 232.177 227.861 228.179 229.624 221.975C233.361 208.892 239.118 187.481 240.896 148.542C241.168 142.528 239.924 142.304 238.282 142.304H221.463C220.467 142.319 219.66 145.311 219.66 149.004Z" fill="#E6E6E6"/>
</g>
<g opacity="0.4">
<path d="M298.908 149.004V232.177C294.603 232.177 290.712 228.179 288.943 221.975C285.212 208.892 279.455 187.481 277.672 148.542C277.4 142.527 278.644 142.304 280.286 142.304H297.105C298.101 142.319 298.908 145.311 298.908 149.004Z" fill="#E6E6E6"/>
</g>
<path d="M279.766 253.835H271.182V291.375H279.766V253.835Z" fill="#E6E6E6"/>
<path d="M276.05 291.38H279.767V285.152H275.963L276.05 291.38Z" fill="#F5F5F5"/>
<path d="M230.286 253.835H221.701V291.375H230.286V253.835Z" fill="#E6E6E6"/>
<path d="M279.766 253.835H227.039V289.233H279.766V253.835Z" fill="#F5F5F5"/>
<path d="M230.756 291.38H227.039V285.152H230.848L230.756 291.38Z" fill="#F5F5F5"/>
<path d="M276.886 256.814H229.926V269.868H276.886V256.814Z" fill="#F0F0F0"/>
<path d="M253.406 265.578C252.652 265.579 251.914 265.356 251.286 264.937C250.658 264.518 250.168 263.923 249.879 263.226C249.59 262.529 249.514 261.761 249.661 261.021C249.808 260.281 250.171 259.601 250.705 259.067C251.239 258.534 251.919 258.17 252.659 258.023C253.399 257.876 254.166 257.952 254.863 258.241C255.56 258.531 256.156 259.02 256.575 259.648C256.993 260.276 257.216 261.014 257.215 261.769C257.214 262.779 256.812 263.747 256.098 264.461C255.384 265.175 254.416 265.576 253.406 265.578ZM253.406 258.358C252.734 258.358 252.076 258.558 251.517 258.931C250.958 259.305 250.522 259.836 250.265 260.458C250.007 261.079 249.94 261.763 250.071 262.423C250.202 263.082 250.526 263.688 251.002 264.164C251.477 264.639 252.083 264.963 252.743 265.095C253.403 265.226 254.087 265.158 254.708 264.901C255.329 264.644 255.86 264.208 256.234 263.648C256.608 263.089 256.807 262.432 256.807 261.759C256.807 260.857 256.449 259.992 255.811 259.354C255.173 258.717 254.308 258.358 253.406 258.358Z" fill="white"/>
<path d="M276.886 273.026H229.926V286.08H276.886V273.026Z" fill="#F0F0F0"/>
<path d="M253.406 281.79C252.652 281.791 251.914 281.568 251.286 281.15C250.659 280.731 250.169 280.136 249.88 279.439C249.59 278.742 249.514 277.975 249.661 277.235C249.807 276.495 250.17 275.815 250.703 275.281C251.236 274.747 251.916 274.384 252.656 274.236C253.396 274.089 254.163 274.164 254.86 274.452C255.557 274.741 256.153 275.23 256.572 275.857C256.992 276.484 257.215 277.222 257.215 277.976C257.214 278.987 256.813 279.955 256.099 280.67C255.385 281.385 254.417 281.788 253.406 281.79ZM253.406 274.566C252.734 274.566 252.076 274.765 251.517 275.139C250.958 275.513 250.522 276.044 250.265 276.665C250.007 277.287 249.94 277.97 250.071 278.63C250.202 279.29 250.526 279.896 251.002 280.371C251.477 280.847 252.083 281.171 252.743 281.302C253.403 281.433 254.087 281.366 254.708 281.109C255.329 280.851 255.86 280.415 256.234 279.856C256.608 279.297 256.807 278.639 256.807 277.967C256.807 277.065 256.449 276.2 255.811 275.562C255.173 274.924 254.308 274.566 253.406 274.566Z" fill="white"/>
<path d="M337.207 291.38H366.502V247.961H337.207V291.38Z" fill="#E6E6E6"/>
<path d="M405.004 247.957H366.502V291.375H405.004V247.957Z" fill="#F0F0F0"/>
<g style="mix-blend-mode:multiply" opacity="0.7">
<path d="M337.211 248.759H405.004V244.26H337.211V248.759Z" fill="#E6E6E6"/>
</g>
<path d="M335.73 247.957H366.502V243.798H335.73V247.957Z" fill="#E6E6E6"/>
<path d="M406.481 243.803H366.502V247.962H406.481V243.803Z" fill="#F0F0F0"/>
<path d="M302.071 291.38H326.037V264.582H302.071V291.38Z" fill="#EBEBEB"/>
<path d="M357.533 264.577H326.037V291.375H357.533V264.577Z" fill="#F5F5F5"/>
<g style="mix-blend-mode:multiply" opacity="0.7">
<path d="M302.071 265.233H357.533V261.555H302.071V265.233Z" fill="#E6E6E6"/>
</g>
<path d="M300.862 264.577H326.037V261.176H300.862V264.577Z" fill="#EBEBEB"/>
<path d="M358.743 261.176H326.037V264.577H358.743V261.176Z" fill="#F5F5F5"/>
<path d="M392.859 153.075H344.004V228.655H392.859V153.075Z" fill="#E6E6E6"/>
<path d="M397.037 153.075H344.713V228.655H397.037V153.075Z" fill="#F5F5F5"/>
<path d="M393.703 222.699V159.036C393.703 157.587 392.529 156.412 391.08 156.412H350.673C349.224 156.412 348.05 157.587 348.05 159.036V222.699C348.05 224.148 349.224 225.322 350.673 225.322H391.08C392.529 225.322 393.703 224.148 393.703 222.699Z" fill="white"/>
<path d="M380.623 183.851L377.889 181.116L361.128 197.877L363.862 200.612L380.623 183.851Z" fill="#F5F5F5"/>
<path d="M373.729 176.958L370.994 174.224L354.233 190.985L356.968 193.719L373.729 176.958Z" fill="#F5F5F5"/>
<path d="M387.518 190.749L384.783 188.014L368.022 204.775L370.757 207.51L387.518 190.749Z" fill="#F5F5F5"/>
<path d="M313.857 313.32C365.881 313.32 408.055 310.858 408.055 307.821C408.055 304.783 365.881 302.321 313.857 302.321C261.834 302.321 219.66 304.783 219.66 307.821C219.66 310.858 261.834 313.32 313.857 313.32Z" fill="#F5F5F5"/>
<path d="M352.141 222.838L350.975 224.857L351.395 225.1L352.562 223.081L352.141 222.838Z" fill="#012677" fill-opacity="0.4"/>
<path d="M357.564 213.468L353.34 220.779L353.76 221.022L357.985 213.711L357.564 213.468Z" fill="#012677" fill-opacity="0.4"/>
<path d="M371.19 166.984L337.401 182.351H350.484L305.725 259.821H329.38L374.139 182.351H387.222L371.19 166.984Z" fill="#012677" fill-opacity="0.4"/>
<path d="M329.38 259.821H305.725L289.635 231.963H313.285L329.38 259.821Z" fill="#012677" fill-opacity="0.4"/>
<path opacity="0.3" d="M329.38 259.821H305.725L289.635 231.963H313.285L329.38 259.821Z" fill="black"/>
<path d="M313.29 231.963H289.63L244.871 309.438H268.526L313.29 231.963Z" fill="#012677" fill-opacity="0.4"/>
<path d="M181.592 353.347L176.561 344.976H179.861L183.099 350.699L186.338 344.976H189.495L184.403 353.347V359.417H181.592V353.347ZM193.642 357.258C194.966 357.258 196.188 356.3 196.188 354.406C196.188 352.512 194.966 351.555 193.642 351.555C192.319 351.555 191.096 352.512 191.096 354.406C191.096 356.28 192.319 357.258 193.642 357.258ZM193.642 349.09C196.636 349.09 198.897 351.31 198.897 354.406C198.897 357.482 196.636 359.722 193.642 359.722C190.648 359.722 188.388 357.482 188.388 354.406C188.388 351.31 190.648 349.09 193.642 349.09ZM207.554 359.417C207.514 359.213 207.473 358.744 207.473 358.337C206.923 359.274 205.762 359.681 204.703 359.681C202.279 359.681 200.894 357.909 200.894 355.73V349.396H203.603V355.18C203.603 356.3 204.173 357.196 205.436 357.196C206.638 357.196 207.33 356.382 207.33 355.221V349.396H210.039V357.604C210.039 358.378 210.1 359.07 210.141 359.417H207.554ZM227.515 344.67V357.604C227.515 358.276 227.556 359.009 227.596 359.417H225.01C224.969 359.213 224.908 358.724 224.908 358.256C224.46 359.05 223.441 359.661 222.097 359.661C219.246 359.661 217.209 357.42 217.209 354.386C217.209 351.453 219.184 349.151 222.016 349.151C223.747 349.151 224.562 349.864 224.847 350.394V344.67H227.515ZM219.938 354.386C219.938 356.178 220.997 357.237 222.423 357.237C223.808 357.237 224.887 356.178 224.887 354.365C224.887 352.573 223.808 351.575 222.423 351.575C221.038 351.575 219.938 352.593 219.938 354.386ZM234.955 357.258C236.279 357.258 237.501 356.3 237.501 354.406C237.501 352.512 236.279 351.555 234.955 351.555C233.631 351.555 232.409 352.512 232.409 354.406C232.409 356.28 233.631 357.258 234.955 357.258ZM234.955 349.09C237.949 349.09 240.21 351.31 240.21 354.406C240.21 357.482 237.949 359.722 234.955 359.722C231.961 359.722 229.7 357.482 229.7 354.406C229.7 351.31 231.961 349.09 234.955 349.09ZM250.089 353.652V359.417H247.38V349.396H250.008V350.638C250.619 349.599 251.821 349.131 252.9 349.131C255.385 349.131 256.526 350.903 256.526 353.102V359.417H253.817V353.571C253.817 352.451 253.267 351.575 251.963 351.575C250.782 351.575 250.089 352.491 250.089 353.652ZM263.776 357.258C265.1 357.258 266.322 356.3 266.322 354.406C266.322 352.512 265.1 351.555 263.776 351.555C262.452 351.555 261.23 352.512 261.23 354.406C261.23 356.28 262.452 357.258 263.776 357.258ZM263.776 349.09C266.77 349.09 269.031 351.31 269.031 354.406C269.031 357.482 266.77 359.722 263.776 359.722C260.782 359.722 258.521 357.482 258.521 354.406C258.521 351.31 260.782 349.09 263.776 349.09ZM274.47 346.401V349.396H276.486V351.799H274.47V355.995C274.47 356.871 274.877 357.156 275.651 357.156C275.977 357.156 276.344 357.115 276.486 357.074V359.315C276.242 359.417 275.753 359.559 274.959 359.559C273.004 359.559 271.781 358.398 271.781 356.463V351.799H269.969V349.396H270.478C271.537 349.396 272.026 348.703 272.026 347.807V346.401H274.47ZM286.469 353.53V359.417H283.76V344.67H286.469V350.231C287.121 349.457 288.221 349.131 289.178 349.131C291.724 349.131 292.905 350.903 292.905 353.102V359.417H290.196V353.571C290.196 352.451 289.646 351.575 288.343 351.575C287.202 351.575 286.53 352.43 286.469 353.53ZM295.044 356.687C295.044 354.895 296.368 353.897 298.038 353.652L300.502 353.286C301.073 353.204 301.256 352.919 301.256 352.573C301.256 351.86 300.706 351.269 299.565 351.269C298.384 351.269 297.732 352.023 297.651 352.899L295.247 352.39C295.41 350.821 296.856 349.09 299.545 349.09C302.722 349.09 303.904 350.882 303.904 352.899V357.828C303.904 358.357 303.965 359.07 304.026 359.417H301.541C301.48 359.152 301.439 358.602 301.439 358.215C300.93 359.009 299.973 359.702 298.486 359.702C296.347 359.702 295.044 358.256 295.044 356.687ZM299.056 357.685C300.197 357.685 301.256 357.135 301.256 355.363V354.915L298.995 355.261C298.302 355.363 297.753 355.75 297.753 356.524C297.753 357.115 298.18 357.685 299.056 357.685ZM315.906 349.396L312.016 359.417H309.307L305.213 349.396H308.186L310.671 356.117L313.054 349.396H315.906ZM319.231 353.265H323.712C323.672 352.267 323.02 351.29 321.472 351.29C320.066 351.29 319.293 352.349 319.231 353.265ZM323.977 355.872L326.238 356.545C325.729 358.276 324.14 359.722 321.676 359.722C318.926 359.722 316.502 357.746 316.502 354.365C316.502 351.168 318.865 349.09 321.431 349.09C324.527 349.09 326.381 351.066 326.381 354.284C326.381 354.671 326.34 355.078 326.34 355.119H319.17C319.231 356.443 320.352 357.4 321.696 357.4C322.959 357.4 323.651 356.769 323.977 355.872ZM332.935 356.687C332.935 354.895 334.259 353.897 335.929 353.652L338.394 353.286C338.964 353.204 339.147 352.919 339.147 352.573C339.147 351.86 338.597 351.269 337.457 351.269C336.275 351.269 335.624 352.023 335.542 352.899L333.139 352.39C333.302 350.821 334.748 349.09 337.436 349.09C340.614 349.09 341.795 350.882 341.795 352.899V357.828C341.795 358.357 341.856 359.07 341.917 359.417H339.432C339.371 359.152 339.331 358.602 339.331 358.215C338.821 359.009 337.864 359.702 336.377 359.702C334.239 359.702 332.935 358.256 332.935 356.687ZM336.947 357.685C338.088 357.685 339.147 357.135 339.147 355.363V354.915L336.886 355.261C336.194 355.363 335.644 355.75 335.644 356.524C335.644 357.115 336.072 357.685 336.947 357.685ZM347.234 353.652V359.417H344.526V349.396H347.153V350.638C347.764 349.599 348.966 349.131 350.045 349.131C352.53 349.131 353.671 350.903 353.671 353.102V359.417H350.962V353.571C350.962 352.451 350.412 351.575 349.108 351.575C347.927 351.575 347.234 352.491 347.234 353.652ZM359.704 363.368H356.832L359.194 358.154L354.938 349.396H357.972L360.641 355.261L363.105 349.396H365.997L359.704 363.368ZM378.781 349.355V352.084C378.475 352.023 378.211 352.003 377.966 352.003C376.581 352.003 375.38 352.675 375.38 354.834V359.417H372.671V349.396H375.298V350.882C375.909 349.558 377.294 349.314 378.15 349.314C378.374 349.314 378.577 349.334 378.781 349.355ZM380.135 356.687C380.135 354.895 381.459 353.897 383.129 353.652L385.594 353.286C386.164 353.204 386.347 352.919 386.347 352.573C386.347 351.86 385.797 351.269 384.657 351.269C383.475 351.269 382.824 352.023 382.742 352.899L380.339 352.39C380.502 350.821 381.948 349.09 384.636 349.09C387.814 349.09 388.995 350.882 388.995 352.899V357.828C388.995 358.357 389.056 359.07 389.117 359.417H386.632C386.571 359.152 386.531 358.602 386.531 358.215C386.021 359.009 385.064 359.702 383.577 359.702C381.439 359.702 380.135 358.256 380.135 356.687ZM384.148 357.685C385.288 357.685 386.347 357.135 386.347 355.363V354.915L384.086 355.261C383.394 355.363 382.844 355.75 382.844 356.524C382.844 357.115 383.272 357.685 384.148 357.685ZM394.435 359.417H391.726V349.396H394.435V359.417ZM391.4 346.116C391.4 345.179 392.153 344.426 393.07 344.426C394.007 344.426 394.74 345.179 394.74 346.116C394.74 347.012 394.007 347.766 393.07 347.766C392.153 347.766 391.4 347.012 391.4 346.116ZM396.479 356.626L398.801 356.117C398.862 356.911 399.453 357.645 400.634 357.645C401.531 357.645 401.958 357.176 401.958 356.646C401.958 356.198 401.653 355.832 400.879 355.669L399.555 355.363C397.62 354.936 396.744 353.775 396.744 352.369C396.744 350.577 398.333 349.09 400.492 349.09C403.343 349.09 404.301 350.903 404.423 351.982L402.162 352.491C402.081 351.901 401.653 351.147 400.512 351.147C399.799 351.147 399.229 351.575 399.229 352.145C399.229 352.634 399.596 352.94 400.146 353.041L401.571 353.347C403.547 353.754 404.545 354.956 404.545 356.422C404.545 358.052 403.282 359.722 400.655 359.722C397.64 359.722 396.602 357.767 396.479 356.626ZM408.659 353.265H413.14C413.099 352.267 412.447 351.29 410.899 351.29C409.494 351.29 408.72 352.349 408.659 353.265ZM413.405 355.872L415.666 356.545C415.156 358.276 413.568 359.722 411.103 359.722C408.353 359.722 405.93 357.746 405.93 354.365C405.93 351.168 408.292 349.09 410.859 349.09C413.955 349.09 415.808 351.066 415.808 354.284C415.808 354.671 415.767 355.078 415.767 355.119H408.598C408.659 356.443 409.779 357.4 411.124 357.4C412.386 357.4 413.079 356.769 413.405 355.872ZM426.436 363.368H423.564L425.927 358.154L421.67 349.396H424.705L427.373 355.261L429.838 349.396H432.73L426.436 363.368ZM435.869 353.265H440.35C440.309 352.267 439.658 351.29 438.11 351.29C436.704 351.29 435.93 352.349 435.869 353.265ZM440.615 355.872L442.876 356.545C442.367 358.276 440.778 359.722 438.313 359.722C435.564 359.722 433.14 357.746 433.14 354.365C433.14 351.168 435.503 349.09 438.069 349.09C441.165 349.09 443.018 351.066 443.018 354.284C443.018 354.671 442.978 355.078 442.978 355.119H435.808C435.869 356.443 436.989 357.4 438.334 357.4C439.597 357.4 440.289 356.769 440.615 355.872ZM448.492 346.401V349.396H450.508V351.799H448.492V355.995C448.492 356.871 448.899 357.156 449.673 357.156C449.999 357.156 450.366 357.115 450.508 357.074V359.315C450.264 359.417 449.775 359.559 448.981 359.559C447.025 359.559 445.803 358.398 445.803 356.463V351.799H443.991V349.396H444.5C445.559 349.396 446.048 348.703 446.048 347.807V346.401H448.492Z" fill="#393854"/>
<path d="M129.421 379.872H128.423V376.664H124.737V379.872H123.739V372.652H124.737V375.737H128.423V372.652H129.421V379.872ZM131.843 379.872H130.896V374.974H131.843V379.872ZM130.875 373.609C130.746 373.473 130.682 373.31 130.682 373.12C130.682 372.93 130.746 372.767 130.875 372.631C131.011 372.496 131.174 372.428 131.364 372.428C131.554 372.428 131.717 372.496 131.853 372.631C131.989 372.76 132.057 372.923 132.057 373.12C132.057 373.31 131.989 373.473 131.853 373.609C131.717 373.738 131.554 373.802 131.364 373.802C131.174 373.802 131.011 373.738 130.875 373.609ZM136.781 373.426V374.974H137.84V375.839H136.781V378.385C136.781 378.616 136.832 378.786 136.934 378.894C137.043 379.003 137.219 379.057 137.464 379.057C137.606 379.057 137.732 379.044 137.84 379.017V379.831C137.677 379.892 137.46 379.923 137.189 379.923C136.768 379.923 136.435 379.801 136.191 379.556C135.946 379.312 135.824 378.969 135.824 378.528V375.839H134.887V374.974H135.152C135.403 374.974 135.59 374.906 135.712 374.77C135.841 374.627 135.905 374.444 135.905 374.22V373.426H136.781ZM139.816 376.99V379.872H138.858V372.499H139.816V375.544C140.142 375.069 140.637 374.831 141.303 374.831C141.866 374.831 142.297 375.011 142.596 375.371C142.902 375.731 143.054 376.196 143.054 376.766V379.872H142.097V376.929C142.097 376.107 141.717 375.697 140.956 375.697C140.603 375.697 140.328 375.819 140.131 376.063C139.935 376.301 139.829 376.61 139.816 376.99ZM144.939 376.919H147.617C147.603 376.552 147.481 376.253 147.25 376.023C147.019 375.785 146.694 375.666 146.273 375.666C145.892 375.666 145.58 375.792 145.336 376.043C145.091 376.287 144.959 376.579 144.939 376.919ZM147.759 378.192L148.584 378.477C148.442 378.932 148.177 379.305 147.79 379.597C147.403 379.882 146.935 380.025 146.385 380.025C145.699 380.025 145.115 379.791 144.633 379.322C144.158 378.847 143.92 378.209 143.92 377.408C143.92 376.661 144.151 376.043 144.613 375.554C145.074 375.065 145.624 374.821 146.262 374.821C147.002 374.821 147.58 375.055 147.994 375.524C148.408 375.985 148.615 376.606 148.615 377.387C148.615 377.509 148.608 377.611 148.595 377.693H144.908C144.915 378.127 145.057 378.484 145.336 378.762C145.621 379.04 145.971 379.18 146.385 379.18C147.084 379.18 147.542 378.85 147.759 378.192ZM152.296 374.923V375.941C152.154 375.921 152.015 375.911 151.879 375.911C150.983 375.911 150.535 376.413 150.535 377.418V379.872H149.577V374.974H150.514V375.829C150.813 375.204 151.302 374.892 151.981 374.892C152.089 374.892 152.195 374.902 152.296 374.923ZM153.628 376.919H156.307C156.293 376.552 156.171 376.253 155.94 376.023C155.709 375.785 155.383 375.666 154.963 375.666C154.582 375.666 154.27 375.792 154.026 376.043C153.781 376.287 153.649 376.579 153.628 376.919ZM156.449 378.192L157.274 378.477C157.132 378.932 156.867 379.305 156.48 379.597C156.093 379.882 155.624 380.025 155.075 380.025C154.389 380.025 153.805 379.791 153.323 379.322C152.848 378.847 152.61 378.209 152.61 377.408C152.61 376.661 152.841 376.043 153.303 375.554C153.764 375.065 154.314 374.821 154.952 374.821C155.692 374.821 156.269 375.055 156.684 375.524C157.098 375.985 157.305 376.606 157.305 377.387C157.305 377.509 157.298 377.611 157.284 377.693H153.598C153.605 378.127 153.747 378.484 154.026 378.762C154.311 379.04 154.66 379.18 155.075 379.18C155.774 379.18 156.232 378.85 156.449 378.192ZM159.632 372.652L159.377 377.805H158.695L158.43 372.652H159.632ZM158.562 379.729C158.433 379.6 158.369 379.444 158.369 379.261C158.369 379.078 158.433 378.922 158.562 378.793C158.691 378.657 158.848 378.589 159.031 378.589C159.214 378.589 159.37 378.657 159.499 378.793C159.635 378.922 159.703 379.078 159.703 379.261C159.703 379.444 159.635 379.6 159.499 379.729C159.37 379.858 159.214 379.923 159.031 379.923C158.848 379.923 158.691 379.858 158.562 379.729ZM162.535 372.652L162.28 377.805H161.598L161.333 372.652H162.535ZM161.465 379.729C161.336 379.6 161.272 379.444 161.272 379.261C161.272 379.078 161.336 378.922 161.465 378.793C161.594 378.657 161.751 378.589 161.934 378.589C162.117 378.589 162.273 378.657 162.402 378.793C162.538 378.922 162.606 379.078 162.606 379.261C162.606 379.444 162.538 379.6 162.402 379.729C162.273 379.858 162.117 379.923 161.934 379.923C161.751 379.923 161.594 379.858 161.465 379.729ZM168.192 376.786L165.646 372.652H166.848L168.722 375.87L170.596 372.652H171.736L169.19 376.786V379.872H168.192V376.786ZM172.488 378.711C172.787 379.017 173.15 379.169 173.578 379.169C174.006 379.169 174.365 379.017 174.657 378.711C174.956 378.399 175.105 377.968 175.105 377.418C175.105 376.875 174.956 376.45 174.657 376.145C174.365 375.832 174.006 375.676 173.578 375.676C173.15 375.676 172.787 375.832 172.488 376.145C172.196 376.45 172.05 376.875 172.05 377.418C172.05 377.968 172.196 378.399 172.488 378.711ZM171.775 375.564C172.251 375.069 172.851 374.821 173.578 374.821C174.304 374.821 174.902 375.069 175.37 375.564C175.845 376.053 176.083 376.671 176.083 377.418C176.083 378.171 175.849 378.796 175.38 379.292C174.912 379.78 174.311 380.025 173.578 380.025C172.845 380.025 172.244 379.78 171.775 379.292C171.307 378.796 171.073 378.171 171.073 377.418C171.073 376.671 171.307 376.053 171.775 375.564ZM180.227 379.281C180.098 379.526 179.901 379.713 179.636 379.842C179.371 379.964 179.086 380.025 178.781 380.025C178.224 380.025 177.779 379.842 177.447 379.475C177.114 379.101 176.947 378.63 176.947 378.059V374.974H177.905V377.917C177.905 378.283 177.993 378.586 178.17 378.823C178.353 379.061 178.635 379.18 179.015 379.18C179.395 379.18 179.684 379.068 179.88 378.843C180.077 378.613 180.176 378.307 180.176 377.927V374.974H181.133V378.966C181.133 379.285 181.15 379.587 181.184 379.872H180.267C180.24 379.723 180.227 379.526 180.227 379.281ZM186.85 375.707C186.436 375.707 186.083 375.856 185.791 376.155C185.506 376.454 185.364 376.875 185.364 377.418C185.364 377.954 185.506 378.375 185.791 378.681C186.083 378.986 186.44 379.139 186.861 379.139C187.268 379.139 187.577 379.037 187.787 378.833C188.005 378.63 188.151 378.395 188.225 378.131L189.071 378.497C188.935 378.905 188.677 379.261 188.297 379.567C187.923 379.872 187.444 380.025 186.861 380.025C186.148 380.025 185.557 379.777 185.089 379.281C184.62 378.786 184.386 378.165 184.386 377.418C184.386 376.657 184.62 376.036 185.089 375.554C185.557 375.065 186.144 374.821 186.85 374.821C187.448 374.821 187.93 374.974 188.297 375.279C188.67 375.585 188.914 375.951 189.03 376.379L188.164 376.746C188.089 376.46 187.947 376.216 187.736 376.012C187.526 375.809 187.231 375.707 186.85 375.707ZM193.112 379.281C192.983 379.526 192.787 379.713 192.522 379.842C192.257 379.964 191.972 380.025 191.666 380.025C191.11 380.025 190.665 379.842 190.332 379.475C190 379.101 189.833 378.63 189.833 378.059V374.974H190.79V377.917C190.79 378.283 190.879 378.586 191.055 378.823C191.239 379.061 191.52 379.18 191.901 379.18C192.281 379.18 192.569 379.068 192.766 378.843C192.963 378.613 193.061 378.307 193.061 377.927V374.974H194.019V378.966C194.019 379.285 194.036 379.587 194.07 379.872H193.153C193.126 379.723 193.112 379.526 193.112 379.281ZM198.112 374.923V375.941C197.969 375.921 197.83 375.911 197.694 375.911C196.798 375.911 196.35 376.413 196.35 377.418V379.872H195.393V374.974H196.33V375.829C196.628 375.204 197.117 374.892 197.796 374.892C197.905 374.892 198.01 374.902 198.112 374.923ZM201.591 374.923V375.941C201.449 375.921 201.31 375.911 201.174 375.911C200.278 375.911 199.83 376.413 199.83 377.418V379.872H198.872V374.974H199.809V375.829C200.108 375.204 200.597 374.892 201.276 374.892C201.384 374.892 201.49 374.902 201.591 374.923ZM202.924 376.919H205.602C205.588 376.552 205.466 376.253 205.235 376.023C205.005 375.785 204.679 375.666 204.258 375.666C203.877 375.666 203.565 375.792 203.321 376.043C203.076 376.287 202.944 376.579 202.924 376.919ZM205.745 378.192L206.569 378.477C206.427 378.932 206.162 379.305 205.775 379.597C205.388 379.882 204.92 380.025 204.37 380.025C203.684 380.025 203.1 379.791 202.618 379.322C202.143 378.847 201.905 378.209 201.905 377.408C201.905 376.661 202.136 376.043 202.598 375.554C203.059 375.065 203.609 374.821 204.248 374.821C204.988 374.821 205.565 375.055 205.979 375.524C206.393 375.985 206.6 376.606 206.6 377.387C206.6 377.509 206.593 377.611 206.58 377.693H202.893C202.9 378.127 203.042 378.484 203.321 378.762C203.606 379.04 203.956 379.18 204.37 379.18C205.069 379.18 205.527 378.85 205.745 378.192ZM208.52 377.041V379.872H207.562V374.974H208.499V375.676C208.825 375.113 209.328 374.831 210.006 374.831C210.57 374.831 211.001 375.011 211.3 375.371C211.605 375.731 211.758 376.196 211.758 376.766V379.872H210.801V376.929C210.801 376.107 210.421 375.697 209.66 375.697C209.3 375.697 209.019 375.826 208.815 376.084C208.618 376.335 208.52 376.654 208.52 377.041ZM214.304 373.426V374.974H215.363V375.839H214.304V378.385C214.304 378.616 214.355 378.786 214.457 378.894C214.566 379.003 214.742 379.057 214.987 379.057C215.129 379.057 215.255 379.044 215.363 379.017V379.831C215.2 379.892 214.983 379.923 214.712 379.923C214.291 379.923 213.958 379.801 213.714 379.556C213.469 379.312 213.347 378.969 213.347 378.528V375.839H212.41V374.974H212.675C212.926 374.974 213.113 374.906 213.235 374.77C213.364 374.627 213.428 374.444 213.428 374.22V373.426H214.304ZM217.339 379.872H216.381V372.499H217.339V379.872ZM219.93 381.919H218.881L220.103 379.332L217.995 374.974H219.095L220.622 378.355L222.089 374.974H223.117L219.93 381.919ZM226.635 377.408C226.635 377.924 226.761 378.344 227.012 378.67C227.27 378.996 227.623 379.159 228.071 379.159C228.499 379.159 228.842 378.993 229.1 378.66C229.358 378.328 229.487 377.903 229.487 377.387C229.487 376.878 229.361 376.467 229.11 376.155C228.859 375.843 228.516 375.686 228.081 375.686C227.647 375.686 227.297 375.846 227.032 376.165C226.768 376.484 226.635 376.898 226.635 377.408ZM229.497 379.21V379.129C229.368 379.38 229.171 379.59 228.906 379.76C228.648 379.923 228.339 380.004 227.979 380.004C227.28 380.004 226.717 379.76 226.289 379.271C225.868 378.776 225.657 378.154 225.657 377.408C225.657 376.695 225.875 376.09 226.309 375.595C226.744 375.092 227.3 374.841 227.979 374.841C228.38 374.841 228.706 374.923 228.957 375.086C229.208 375.242 229.381 375.435 229.476 375.666V372.499H230.424V378.966C230.424 379.298 230.441 379.6 230.474 379.872H229.548C229.514 379.682 229.497 379.461 229.497 379.21ZM232.8 378.711C233.099 379.017 233.462 379.169 233.89 379.169C234.318 379.169 234.678 379.017 234.97 378.711C235.268 378.399 235.418 377.968 235.418 377.418C235.418 376.875 235.268 376.45 234.97 376.145C234.678 375.832 234.318 375.676 233.89 375.676C233.462 375.676 233.099 375.832 232.8 376.145C232.508 376.45 232.362 376.875 232.362 377.418C232.362 377.968 232.508 378.399 232.8 378.711ZM232.087 375.564C232.563 375.069 233.164 374.821 233.89 374.821C234.617 374.821 235.214 375.069 235.682 375.564C236.158 376.053 236.395 376.671 236.395 377.418C236.395 378.171 236.161 378.796 235.693 379.292C235.224 379.78 234.623 380.025 233.89 380.025C233.157 380.025 232.556 379.78 232.087 379.292C231.619 378.796 231.385 378.171 231.385 377.418C231.385 376.671 231.619 376.053 232.087 375.564ZM240.604 377.041V379.872H239.647V374.974H240.584V375.676C240.909 375.113 241.412 374.831 242.091 374.831C242.654 374.831 243.085 375.011 243.384 375.371C243.69 375.731 243.842 376.196 243.842 376.766V379.872H242.885V376.929C242.885 376.107 242.505 375.697 241.745 375.697C241.385 375.697 241.103 375.826 240.899 376.084C240.702 376.335 240.604 376.654 240.604 377.041ZM246.114 378.711C246.412 379.017 246.776 379.169 247.203 379.169C247.631 379.169 247.991 379.017 248.283 378.711C248.582 378.399 248.731 377.968 248.731 377.418C248.731 376.875 248.582 376.45 248.283 376.145C247.991 375.832 247.631 375.676 247.203 375.676C246.776 375.676 246.412 375.832 246.114 376.145C245.822 376.45 245.676 376.875 245.676 377.418C245.676 377.968 245.822 378.399 246.114 378.711ZM245.401 375.564C245.876 375.069 246.477 374.821 247.203 374.821C247.93 374.821 248.527 375.069 248.996 375.564C249.471 376.053 249.709 376.671 249.709 377.418C249.709 378.171 249.474 378.796 249.006 379.292C248.537 379.78 247.937 380.025 247.203 380.025C246.47 380.025 245.869 379.78 245.401 379.292C244.932 378.796 244.698 378.171 244.698 377.418C244.698 376.671 244.932 376.053 245.401 375.564ZM251.907 373.426V374.974H252.966V375.839H251.907V378.385C251.907 378.616 251.958 378.786 252.06 378.894C252.169 379.003 252.345 379.057 252.589 379.057C252.732 379.057 252.858 379.044 252.966 379.017V379.831C252.803 379.892 252.586 379.923 252.315 379.923C251.894 379.923 251.561 379.801 251.317 379.556C251.072 379.312 250.95 378.969 250.95 378.528V375.839H250.013V374.974H250.278C250.529 374.974 250.716 374.906 250.838 374.77C250.967 374.627 251.031 374.444 251.031 374.22V373.426H251.907ZM259.514 376.99V379.872H258.557V372.499H259.514V375.544C259.84 375.069 260.336 374.831 261.001 374.831C261.565 374.831 261.996 375.011 262.294 375.371C262.6 375.731 262.753 376.196 262.753 376.766V379.872H261.795V376.929C261.795 376.107 261.415 375.697 260.655 375.697C260.302 375.697 260.027 375.819 259.83 376.063C259.633 376.301 259.528 376.61 259.514 376.99ZM263.71 378.558C263.71 378.137 263.846 377.801 264.118 377.55C264.389 377.292 264.749 377.133 265.197 377.071L266.521 376.878C266.772 376.844 266.898 376.722 266.898 376.511C266.898 376.253 266.81 376.043 266.633 375.88C266.457 375.717 266.192 375.636 265.839 375.636C265.513 375.636 265.255 375.727 265.065 375.911C264.875 376.087 264.763 376.325 264.729 376.623L263.812 376.41C263.86 375.941 264.073 375.561 264.454 375.269C264.834 374.97 265.289 374.821 265.818 374.821C266.511 374.821 267.023 374.991 267.356 375.33C267.689 375.663 267.855 376.09 267.855 376.613V379.068C267.855 379.359 267.875 379.628 267.916 379.872H266.979C266.945 379.668 266.928 379.448 266.928 379.21C266.793 379.427 266.592 379.617 266.328 379.78C266.07 379.943 265.744 380.025 265.35 380.025C264.868 380.025 264.474 379.882 264.169 379.597C263.863 379.305 263.71 378.959 263.71 378.558ZM265.482 379.22C265.91 379.22 266.253 379.105 266.511 378.874C266.769 378.643 266.898 378.277 266.898 377.774V377.55L265.401 377.774C265.184 377.808 265.01 377.886 264.881 378.008C264.752 378.131 264.688 378.297 264.688 378.507C264.688 378.698 264.759 378.864 264.902 379.006C265.051 379.149 265.245 379.22 265.482 379.22ZM273.283 374.974L271.327 379.872H270.36L268.374 374.974H269.453L270.849 378.752L272.254 374.974H273.283ZM274.411 376.919H277.089C277.076 376.552 276.954 376.253 276.723 376.023C276.492 375.785 276.166 375.666 275.745 375.666C275.365 375.666 275.053 375.792 274.808 376.043C274.564 376.287 274.431 376.579 274.411 376.919ZM277.232 378.192L278.057 378.477C277.914 378.932 277.649 379.305 277.262 379.597C276.875 379.882 276.407 380.025 275.857 380.025C275.171 380.025 274.587 379.791 274.105 379.322C273.63 378.847 273.393 378.209 273.393 377.408C273.393 376.661 273.623 376.043 274.085 375.554C274.547 375.065 275.097 374.821 275.735 374.821C276.475 374.821 277.052 375.055 277.466 375.524C277.88 375.985 278.087 376.606 278.087 377.387C278.087 377.509 278.081 377.611 278.067 377.693H274.38C274.387 378.127 274.53 378.484 274.808 378.762C275.093 379.04 275.443 379.18 275.857 379.18C276.556 379.18 277.015 378.85 277.232 378.192ZM283.317 378.558C283.317 378.137 283.452 377.801 283.724 377.55C283.996 377.292 284.355 377.133 284.804 377.071L286.127 376.878C286.379 376.844 286.504 376.722 286.504 376.511C286.504 376.253 286.416 376.043 286.239 375.88C286.063 375.717 285.798 375.636 285.445 375.636C285.119 375.636 284.861 375.727 284.671 375.911C284.481 376.087 284.369 376.325 284.335 376.623L283.419 376.41C283.466 375.941 283.68 375.561 284.06 375.269C284.44 374.97 284.895 374.821 285.425 374.821C286.117 374.821 286.63 374.991 286.963 375.33C287.295 375.663 287.462 376.09 287.462 376.613V379.068C287.462 379.359 287.482 379.628 287.523 379.872H286.586C286.552 379.668 286.535 379.448 286.535 379.21C286.399 379.427 286.199 379.617 285.934 379.78C285.676 379.943 285.35 380.025 284.956 380.025C284.474 380.025 284.081 379.882 283.775 379.597C283.469 379.305 283.317 378.959 283.317 378.558ZM285.089 379.22C285.516 379.22 285.859 379.105 286.117 378.874C286.375 378.643 286.504 378.277 286.504 377.774V377.55L285.007 377.774C284.79 377.808 284.617 377.886 284.488 378.008C284.359 378.131 284.294 378.297 284.294 378.507C284.294 378.698 284.366 378.864 284.508 379.006C284.658 379.149 284.851 379.22 285.089 379.22ZM289.65 377.041V379.872H288.693V374.974H289.63V375.676C289.956 375.113 290.458 374.831 291.137 374.831C291.701 374.831 292.132 375.011 292.431 375.371C292.736 375.731 292.889 376.196 292.889 376.766V379.872H291.932V376.929C291.932 376.107 291.551 375.697 290.791 375.697C290.431 375.697 290.149 375.826 289.946 376.084C289.749 376.335 289.65 376.654 289.65 377.041ZM295.374 381.919H294.325L295.547 379.332L293.439 374.974H294.539L296.067 378.355L297.533 374.974H298.562L295.374 381.919ZM304.228 374.923V375.941C304.086 375.921 303.947 375.911 303.811 375.911C302.915 375.911 302.467 376.413 302.467 377.418V379.872H301.509V374.974H302.446V375.829C302.745 375.204 303.234 374.892 303.913 374.892C304.021 374.892 304.127 374.902 304.228 374.923ZM304.683 378.558C304.683 378.137 304.819 377.801 305.091 377.55C305.362 377.292 305.722 377.133 306.17 377.071L307.494 376.878C307.745 376.844 307.871 376.722 307.871 376.511C307.871 376.253 307.783 376.043 307.606 375.88C307.43 375.717 307.165 375.636 306.812 375.636C306.486 375.636 306.228 375.727 306.038 375.911C305.848 376.087 305.736 376.325 305.702 376.623L304.785 376.41C304.833 375.941 305.047 375.561 305.427 375.269C305.807 374.97 306.262 374.821 306.792 374.821C307.484 374.821 307.997 374.991 308.329 375.33C308.662 375.663 308.828 376.09 308.828 376.613V379.068C308.828 379.359 308.849 379.628 308.889 379.872H307.953C307.919 379.668 307.902 379.448 307.902 379.21C307.766 379.427 307.566 379.617 307.301 379.78C307.043 379.943 306.717 380.025 306.323 380.025C305.841 380.025 305.447 379.882 305.142 379.597C304.836 379.305 304.683 378.959 304.683 378.558ZM306.455 379.22C306.883 379.22 307.226 379.105 307.484 378.874C307.742 378.643 307.871 378.277 307.871 377.774V377.55L306.374 377.774C306.157 377.808 305.984 377.886 305.855 378.008C305.726 378.131 305.661 378.297 305.661 378.507C305.661 378.698 305.732 378.864 305.875 379.006C306.024 379.149 306.218 379.22 306.455 379.22ZM311.007 379.872H310.06V374.974H311.007V379.872ZM310.04 373.609C309.911 373.473 309.846 373.31 309.846 373.12C309.846 372.93 309.911 372.767 310.04 372.631C310.175 372.496 310.338 372.428 310.528 372.428C310.718 372.428 310.881 372.496 311.017 372.631C311.153 372.76 311.221 372.923 311.221 373.12C311.221 373.31 311.153 373.473 311.017 373.609C310.881 373.738 310.718 373.802 310.528 373.802C310.338 373.802 310.175 373.738 310.04 373.609ZM311.918 378.599L312.783 378.294C312.817 378.558 312.933 378.779 313.13 378.956C313.327 379.125 313.591 379.21 313.924 379.21C314.182 379.21 314.386 379.149 314.535 379.027C314.684 378.898 314.759 378.742 314.759 378.558C314.759 378.232 314.549 378.022 314.128 377.927L313.293 377.744C312.912 377.662 312.614 377.499 312.396 377.255C312.179 377.01 312.071 376.715 312.071 376.369C312.071 375.948 312.24 375.585 312.58 375.279C312.926 374.974 313.337 374.821 313.812 374.821C314.124 374.821 314.403 374.868 314.647 374.963C314.892 375.052 315.082 375.17 315.217 375.32C315.353 375.469 315.455 375.608 315.523 375.737C315.591 375.866 315.642 375.999 315.676 376.135L314.83 376.45C314.817 376.369 314.793 376.291 314.759 376.216C314.725 376.135 314.671 376.046 314.596 375.951C314.528 375.856 314.426 375.782 314.291 375.727C314.155 375.666 313.995 375.636 313.812 375.636C313.574 375.636 313.377 375.7 313.221 375.829C313.072 375.958 312.997 376.111 312.997 376.287C312.997 376.6 313.184 376.797 313.557 376.878L314.352 377.051C314.786 377.146 315.119 377.323 315.35 377.581C315.587 377.832 315.706 378.141 315.706 378.507C315.706 378.894 315.547 379.244 315.228 379.556C314.915 379.869 314.477 380.025 313.914 380.025C313.31 380.025 312.838 379.875 312.498 379.577C312.159 379.271 311.965 378.945 311.918 378.599ZM317.293 376.919H319.971C319.957 376.552 319.835 376.253 319.604 376.023C319.373 375.785 319.048 375.666 318.627 375.666C318.246 375.666 317.934 375.792 317.69 376.043C317.445 376.287 317.313 376.579 317.293 376.919ZM320.113 378.192L320.938 378.477C320.796 378.932 320.531 379.305 320.144 379.597C319.757 379.882 319.289 380.025 318.739 380.025C318.053 380.025 317.469 379.791 316.987 379.322C316.512 378.847 316.274 378.209 316.274 377.408C316.274 376.661 316.505 376.043 316.967 375.554C317.428 375.065 317.978 374.821 318.616 374.821C319.356 374.821 319.934 375.055 320.348 375.524C320.762 375.985 320.969 376.606 320.969 377.387C320.969 377.509 320.962 377.611 320.949 377.693H317.262C317.269 378.127 317.411 378.484 317.69 378.762C317.975 379.04 318.324 379.18 318.739 379.18C319.438 379.18 319.896 378.85 320.113 378.192ZM325.44 381.919H324.391L325.613 379.332L323.505 374.974H324.604L326.132 378.355L327.599 374.974H328.627L325.44 381.919ZM329.711 376.919H332.389C332.376 376.552 332.253 376.253 332.023 376.023C331.792 375.785 331.466 375.666 331.045 375.666C330.665 375.666 330.352 375.792 330.108 376.043C329.864 376.287 329.731 376.579 329.711 376.919ZM332.532 378.192L333.357 378.477C333.214 378.932 332.949 379.305 332.562 379.597C332.175 379.882 331.707 380.025 331.157 380.025C330.471 380.025 329.887 379.791 329.405 379.322C328.93 378.847 328.692 378.209 328.692 377.408C328.692 376.661 328.923 376.043 329.385 375.554C329.847 375.065 330.396 374.821 331.035 374.821C331.775 374.821 332.352 375.055 332.766 375.524C333.18 375.985 333.387 376.606 333.387 377.387C333.387 377.509 333.38 377.611 333.367 377.693H329.68C329.687 378.127 329.83 378.484 330.108 378.762C330.393 379.04 330.743 379.18 331.157 379.18C331.856 379.18 332.314 378.85 332.532 378.192ZM335.633 373.426V374.974H336.692V375.839H335.633V378.385C335.633 378.616 335.684 378.786 335.785 378.894C335.894 379.003 336.071 379.057 336.315 379.057C336.458 379.057 336.583 379.044 336.692 379.017V379.831C336.529 379.892 336.312 379.923 336.04 379.923C335.619 379.923 335.286 379.801 335.042 379.556C334.798 379.312 334.675 378.969 334.675 378.528V375.839H333.738V374.974H334.003C334.254 374.974 334.441 374.906 334.563 374.77C334.692 374.627 334.757 374.444 334.757 374.22V373.426H335.633ZM337.812 379.719C337.676 379.584 337.608 379.417 337.608 379.22C337.608 379.023 337.676 378.857 337.812 378.721C337.947 378.579 338.114 378.507 338.311 378.507C338.508 378.507 338.674 378.579 338.81 378.721C338.952 378.857 339.024 379.023 339.024 379.22C339.024 379.417 338.952 379.584 338.81 379.719C338.674 379.855 338.508 379.923 338.311 379.923C338.114 379.923 337.947 379.855 337.812 379.719ZM345.809 380.025C344.825 380.025 343.979 379.685 343.273 379.006C342.574 378.328 342.224 377.411 342.224 376.257C342.224 375.483 342.401 374.804 342.754 374.22C343.107 373.636 343.552 373.205 344.088 372.927C344.624 372.641 345.198 372.499 345.809 372.499C346.624 372.499 347.31 372.706 347.866 373.12C348.43 373.527 348.803 374.084 348.986 374.79L348.06 375.116C347.924 374.573 347.663 374.155 347.276 373.864C346.889 373.565 346.4 373.415 345.809 373.415C345.103 373.415 344.499 373.667 343.996 374.169C343.494 374.665 343.243 375.361 343.243 376.257C343.243 377.153 343.494 377.852 343.996 378.355C344.499 378.857 345.103 379.108 345.809 379.108C346.4 379.108 346.892 378.952 347.286 378.64C347.68 378.321 347.955 377.9 348.111 377.377L348.997 377.703C348.8 378.402 348.42 378.966 347.856 379.393C347.299 379.814 346.617 380.025 345.809 380.025ZM350.817 379.872H349.86V372.499H350.817V379.872ZM353.133 379.872H352.186V374.974H353.133V379.872ZM352.165 373.609C352.036 373.473 351.972 373.31 351.972 373.12C351.972 372.93 352.036 372.767 352.165 372.631C352.301 372.496 352.464 372.428 352.654 372.428C352.844 372.428 353.007 372.496 353.143 372.631C353.279 372.76 353.347 372.923 353.347 373.12C353.347 373.31 353.279 373.473 353.143 373.609C353.007 373.738 352.844 373.802 352.654 373.802C352.464 373.802 352.301 373.738 352.165 373.609ZM356.559 375.707C356.145 375.707 355.792 375.856 355.5 376.155C355.215 376.454 355.072 376.875 355.072 377.418C355.072 377.954 355.215 378.375 355.5 378.681C355.792 378.986 356.148 379.139 356.569 379.139C356.976 379.139 357.285 379.037 357.496 378.833C357.713 378.63 357.859 378.395 357.934 378.131L358.779 378.497C358.643 378.905 358.385 379.261 358.005 379.567C357.632 379.872 357.153 380.025 356.569 380.025C355.856 380.025 355.266 379.777 354.797 379.281C354.329 378.786 354.094 378.165 354.094 377.418C354.094 376.657 354.329 376.036 354.797 375.554C355.266 375.065 355.853 374.821 356.559 374.821C357.156 374.821 357.638 374.974 358.005 375.279C358.378 375.585 358.623 375.951 358.738 376.379L357.873 376.746C357.798 376.46 357.655 376.216 357.445 376.012C357.234 375.809 356.939 375.707 356.559 375.707ZM364.032 374.974L361.944 377.041L364.072 379.872H362.871L361.272 377.713L360.589 378.395V379.872H359.642V372.499H360.589V377.143L362.708 374.974H364.032ZM373.059 379.872H372.02L368.119 373.986V379.872H367.121V372.652H368.455L372.061 378.192V372.652H373.059V379.872ZM375.148 376.919H377.827C377.813 376.552 377.691 376.253 377.46 376.023C377.229 375.785 376.903 375.666 376.482 375.666C376.102 375.666 375.79 375.792 375.545 376.043C375.301 376.287 375.169 376.579 375.148 376.919ZM377.969 378.192L378.794 378.477C378.652 378.932 378.387 379.305 378 379.597C377.613 379.882 377.144 380.025 376.594 380.025C375.909 380.025 375.325 379.791 374.843 379.322C374.368 378.847 374.13 378.209 374.13 377.408C374.13 376.661 374.361 376.043 374.822 375.554C375.284 375.065 375.834 374.821 376.472 374.821C377.212 374.821 377.789 375.055 378.203 375.524C378.618 375.985 378.825 376.606 378.825 377.387C378.825 377.509 378.818 377.611 378.804 377.693H375.118C375.125 378.127 375.267 378.484 375.545 378.762C375.831 379.04 376.18 379.18 376.594 379.18C377.294 379.18 377.752 378.85 377.969 378.192ZM382.497 374.974H383.485L384.758 378.66L385.837 374.974H386.846L385.257 379.872H384.269L382.966 376.145L381.693 379.872H380.684L379.075 374.974H380.124L381.224 378.66L382.497 374.974ZM392.558 374.923V375.941C392.416 375.921 392.277 375.911 392.141 375.911C391.245 375.911 390.797 376.413 390.797 377.418V379.872H389.839V374.974H390.776V375.829C391.075 375.204 391.564 374.892 392.243 374.892C392.351 374.892 392.457 374.902 392.558 374.923ZM393.014 378.558C393.014 378.137 393.149 377.801 393.421 377.55C393.693 377.292 394.052 377.133 394.5 377.071L395.824 376.878C396.076 376.844 396.201 376.722 396.201 376.511C396.201 376.253 396.113 376.043 395.936 375.88C395.76 375.717 395.495 375.636 395.142 375.636C394.816 375.636 394.558 375.727 394.368 375.911C394.178 376.087 394.066 376.325 394.032 376.623L393.115 376.41C393.163 375.941 393.377 375.561 393.757 375.269C394.137 374.97 394.592 374.821 395.122 374.821C395.814 374.821 396.327 374.991 396.659 375.33C396.992 375.663 397.158 376.09 397.158 376.613V379.068C397.158 379.359 397.179 379.628 397.22 379.872H396.283C396.249 379.668 396.232 379.448 396.232 379.21C396.096 379.427 395.896 379.617 395.631 379.78C395.373 379.943 395.047 380.025 394.653 380.025C394.171 380.025 393.777 379.882 393.472 379.597C393.166 379.305 393.014 378.959 393.014 378.558ZM394.786 379.22C395.213 379.22 395.556 379.105 395.814 378.874C396.072 378.643 396.201 378.277 396.201 377.774V377.55L394.704 377.774C394.487 377.808 394.314 377.886 394.185 378.008C394.056 378.131 393.991 378.297 393.991 378.507C393.991 378.698 394.063 378.864 394.205 379.006C394.354 379.149 394.548 379.22 394.786 379.22ZM399.337 379.872H398.39V374.974H399.337V379.872ZM398.37 373.609C398.241 373.473 398.176 373.31 398.176 373.12C398.176 372.93 398.241 372.767 398.37 372.631C398.506 372.496 398.668 372.428 398.859 372.428C399.049 372.428 399.212 372.496 399.347 372.631C399.483 372.76 399.551 372.923 399.551 373.12C399.551 373.31 399.483 373.473 399.347 373.609C399.212 373.738 399.049 373.802 398.859 373.802C398.668 373.802 398.506 373.738 398.37 373.609ZM400.248 378.599L401.114 378.294C401.147 378.558 401.263 378.779 401.46 378.956C401.657 379.125 401.921 379.21 402.254 379.21C402.512 379.21 402.716 379.149 402.865 379.027C403.015 378.898 403.089 378.742 403.089 378.558C403.089 378.232 402.879 378.022 402.458 377.927L401.623 377.744C401.243 377.662 400.944 377.499 400.727 377.255C400.509 377.01 400.401 376.715 400.401 376.369C400.401 375.948 400.57 375.585 400.91 375.279C401.256 374.974 401.667 374.821 402.142 374.821C402.454 374.821 402.733 374.868 402.977 374.963C403.222 375.052 403.412 375.17 403.548 375.32C403.683 375.469 403.785 375.608 403.853 375.737C403.921 375.866 403.972 375.999 404.006 376.135L403.161 376.45C403.147 376.369 403.123 376.291 403.089 376.216C403.055 376.135 403.001 376.046 402.926 375.951C402.858 375.856 402.757 375.782 402.621 375.727C402.485 375.666 402.325 375.636 402.142 375.636C401.905 375.636 401.708 375.7 401.551 375.829C401.402 375.958 401.327 376.111 401.327 376.287C401.327 376.6 401.514 376.797 401.888 376.878L402.682 377.051C403.116 377.146 403.449 377.323 403.68 377.581C403.918 377.832 404.036 378.141 404.036 378.507C404.036 378.894 403.877 379.244 403.558 379.556C403.245 379.869 402.807 380.025 402.244 380.025C401.64 380.025 401.168 379.875 400.828 379.577C400.489 379.271 400.295 378.945 400.248 378.599ZM405.623 376.919H408.301C408.287 376.552 408.165 376.253 407.934 376.023C407.704 375.785 407.378 375.666 406.957 375.666C406.577 375.666 406.264 375.792 406.02 376.043C405.775 376.287 405.643 376.579 405.623 376.919ZM408.444 378.192L409.268 378.477C409.126 378.932 408.861 379.305 408.474 379.597C408.087 379.882 407.619 380.025 407.069 380.025C406.383 380.025 405.799 379.791 405.317 379.322C404.842 378.847 404.604 378.209 404.604 377.408C404.604 376.661 404.835 376.043 405.297 375.554C405.758 375.065 406.308 374.821 406.947 374.821C407.687 374.821 408.264 375.055 408.678 375.524C409.092 375.985 409.299 376.606 409.299 377.387C409.299 377.509 409.292 377.611 409.279 377.693H405.592C405.599 378.127 405.741 378.484 406.02 378.762C406.305 379.04 406.655 379.18 407.069 379.18C407.768 379.18 408.226 378.85 408.444 378.192ZM413.495 379.872H412.548V372.499H413.495V375.666C413.624 375.428 413.827 375.232 414.106 375.075C414.391 374.912 414.727 374.831 415.114 374.831C415.827 374.831 416.38 375.072 416.774 375.554C417.168 376.036 417.365 376.651 417.365 377.397C417.365 378.151 417.161 378.776 416.754 379.271C416.346 379.76 415.79 380.004 415.083 380.004C414.35 380.004 413.821 379.723 413.495 379.159V379.872ZM415.99 378.67C416.255 378.351 416.387 377.927 416.387 377.397C416.387 376.868 416.255 376.45 415.99 376.145C415.732 375.832 415.382 375.676 414.941 375.676C414.513 375.676 414.163 375.832 413.892 376.145C413.62 376.457 413.485 376.875 413.485 377.397C413.485 377.92 413.62 378.344 413.892 378.67C414.163 378.989 414.513 379.149 414.941 379.149C415.375 379.149 415.725 378.989 415.99 378.67ZM421.503 379.281C421.374 379.526 421.177 379.713 420.913 379.842C420.648 379.964 420.363 380.025 420.057 380.025C419.5 380.025 419.056 379.842 418.723 379.475C418.39 379.101 418.224 378.63 418.224 378.059V374.974H419.181V377.917C419.181 378.283 419.27 378.586 419.446 378.823C419.629 379.061 419.911 379.18 420.291 379.18C420.672 379.18 420.96 379.068 421.157 378.843C421.354 378.613 421.452 378.307 421.452 377.927V374.974H422.41V378.966C422.41 379.285 422.427 379.587 422.461 379.872H421.544C421.517 379.723 421.503 379.526 421.503 379.281ZM425.067 373.426V374.974H426.126V375.839H425.067V378.385C425.067 378.616 425.118 378.786 425.219 378.894C425.328 379.003 425.505 379.057 425.749 379.057C425.892 379.057 426.017 379.044 426.126 379.017V379.831C425.963 379.892 425.746 379.923 425.474 379.923C425.053 379.923 424.72 379.801 424.476 379.556C424.232 379.312 424.109 378.969 424.109 378.528V375.839H423.172V374.974H423.437C423.688 374.974 423.875 374.906 423.997 374.77C424.126 374.627 424.191 374.444 424.191 374.22V373.426H425.067ZM428.427 373.426V374.974H429.486V375.839H428.427V378.385C428.427 378.616 428.478 378.786 428.58 378.894C428.689 379.003 428.865 379.057 429.109 379.057C429.252 379.057 429.378 379.044 429.486 379.017V379.831C429.323 379.892 429.106 379.923 428.834 379.923C428.414 379.923 428.081 379.801 427.836 379.556C427.592 379.312 427.47 378.969 427.47 378.528V375.839H426.533V374.974H426.798C427.049 374.974 427.236 374.906 427.358 374.77C427.487 374.627 427.551 374.444 427.551 374.22V373.426H428.427ZM431.463 378.711C431.761 379.017 432.125 379.169 432.552 379.169C432.98 379.169 433.34 379.017 433.632 378.711C433.931 378.399 434.08 377.968 434.08 377.418C434.08 376.875 433.931 376.45 433.632 376.145C433.34 375.832 432.98 375.676 432.552 375.676C432.125 375.676 431.761 375.832 431.463 376.145C431.171 376.45 431.025 376.875 431.025 377.418C431.025 377.968 431.171 378.399 431.463 378.711ZM430.75 375.564C431.225 375.069 431.826 374.821 432.552 374.821C433.279 374.821 433.876 375.069 434.345 375.564C434.82 376.053 435.058 376.671 435.058 377.418C435.058 378.171 434.823 378.796 434.355 379.292C433.887 379.78 433.286 380.025 432.552 380.025C431.819 380.025 431.218 379.78 430.75 379.292C430.281 378.796 430.047 378.171 430.047 377.418C430.047 376.671 430.281 376.053 430.75 375.564ZM436.98 377.041V379.872H436.023V374.974H436.96V375.676C437.286 375.113 437.788 374.831 438.467 374.831C439.03 374.831 439.462 375.011 439.76 375.371C440.066 375.731 440.219 376.196 440.219 376.766V379.872H439.261V376.929C439.261 376.107 438.881 375.697 438.121 375.697C437.761 375.697 437.479 375.826 437.275 376.084C437.079 376.335 436.98 376.654 436.98 377.041ZM445.051 373.426V374.974H446.11V375.839H445.051V378.385C445.051 378.616 445.102 378.786 445.204 378.894C445.312 379.003 445.489 379.057 445.733 379.057C445.876 379.057 446.002 379.044 446.11 379.017V379.831C445.947 379.892 445.73 379.923 445.458 379.923C445.037 379.923 444.705 379.801 444.46 379.556C444.216 379.312 444.094 378.969 444.094 378.528V375.839H443.157V374.974H443.422C443.673 374.974 443.86 374.906 443.982 374.77C444.111 374.627 444.175 374.444 444.175 374.22V373.426H445.051ZM448.087 378.711C448.386 379.017 448.749 379.169 449.176 379.169C449.604 379.169 449.964 379.017 450.256 378.711C450.555 378.399 450.704 377.968 450.704 377.418C450.704 376.875 450.555 376.45 450.256 376.145C449.964 375.832 449.604 375.676 449.176 375.676C448.749 375.676 448.386 375.832 448.087 376.145C447.795 376.45 447.649 376.875 447.649 377.418C447.649 377.968 447.795 378.399 448.087 378.711ZM447.374 375.564C447.849 375.069 448.45 374.821 449.176 374.821C449.903 374.821 450.5 375.069 450.969 375.564C451.444 376.053 451.682 376.671 451.682 377.418C451.682 378.171 451.447 378.796 450.979 379.292C450.511 379.78 449.91 380.025 449.176 380.025C448.443 380.025 447.842 379.78 447.374 379.292C446.905 378.796 446.671 378.171 446.671 377.418C446.671 376.671 446.905 376.053 447.374 375.564ZM454.475 378.599L455.34 378.294C455.374 378.558 455.49 378.779 455.687 378.956C455.884 379.125 456.148 379.21 456.481 379.21C456.739 379.21 456.943 379.149 457.092 379.027C457.241 378.898 457.316 378.742 457.316 378.558C457.316 378.232 457.106 378.022 456.685 377.927L455.85 377.744C455.469 377.662 455.171 377.499 454.953 377.255C454.736 377.01 454.628 376.715 454.628 376.369C454.628 375.948 454.797 375.585 455.137 375.279C455.483 374.974 455.894 374.821 456.369 374.821C456.681 374.821 456.96 374.868 457.204 374.963C457.448 375.052 457.639 375.17 457.774 375.32C457.91 375.469 458.012 375.608 458.08 375.737C458.148 375.866 458.199 375.999 458.233 376.135L457.387 376.45C457.374 376.369 457.35 376.291 457.316 376.216C457.282 376.135 457.228 376.046 457.153 375.951C457.085 375.856 456.983 375.782 456.848 375.727C456.712 375.666 456.552 375.636 456.369 375.636C456.131 375.636 455.934 375.7 455.778 375.829C455.629 375.958 455.554 376.111 455.554 376.287C455.554 376.6 455.741 376.797 456.114 376.878L456.909 377.051C457.343 377.146 457.676 377.323 457.907 377.581C458.144 377.832 458.263 378.141 458.263 378.507C458.263 378.894 458.104 379.244 457.785 379.556C457.472 379.869 457.034 380.025 456.471 380.025C455.867 380.025 455.395 379.875 455.055 379.577C454.716 379.271 454.522 378.945 454.475 378.599ZM460.561 373.426V374.974H461.62V375.839H460.561V378.385C460.561 378.616 460.612 378.786 460.714 378.894C460.823 379.003 460.999 379.057 461.244 379.057C461.386 379.057 461.512 379.044 461.62 379.017V379.831C461.457 379.892 461.24 379.923 460.969 379.923C460.548 379.923 460.215 379.801 459.971 379.556C459.726 379.312 459.604 378.969 459.604 378.528V375.839H458.667V374.974H458.932C459.183 374.974 459.37 374.906 459.492 374.77C459.621 374.627 459.685 374.444 459.685 374.22V373.426H460.561ZM462.333 378.558C462.333 378.137 462.469 377.801 462.74 377.55C463.012 377.292 463.372 377.133 463.82 377.071L465.144 376.878C465.395 376.844 465.52 376.722 465.52 376.511C465.52 376.253 465.432 376.043 465.256 375.88C465.079 375.717 464.814 375.636 464.461 375.636C464.135 375.636 463.877 375.727 463.687 375.911C463.497 376.087 463.385 376.325 463.351 376.623L462.435 376.41C462.482 375.941 462.696 375.561 463.076 375.269C463.456 374.97 463.911 374.821 464.441 374.821C465.133 374.821 465.646 374.991 465.979 375.33C466.311 375.663 466.478 376.09 466.478 376.613V379.068C466.478 379.359 466.498 379.628 466.539 379.872H465.602C465.568 379.668 465.551 379.448 465.551 379.21C465.415 379.427 465.215 379.617 464.95 379.78C464.692 379.943 464.366 380.025 463.972 380.025C463.49 380.025 463.097 379.882 462.791 379.597C462.486 379.305 462.333 378.959 462.333 378.558ZM464.105 379.22C464.533 379.22 464.875 379.105 465.133 378.874C465.391 378.643 465.52 378.277 465.52 377.774V377.55L464.023 377.774C463.806 377.808 463.633 377.886 463.504 378.008C463.375 378.131 463.311 378.297 463.311 378.507C463.311 378.698 463.382 378.864 463.524 379.006C463.674 379.149 463.867 379.22 464.105 379.22ZM470.428 374.923V375.941C470.286 375.921 470.147 375.911 470.011 375.911C469.115 375.911 468.667 376.413 468.667 377.418V379.872H467.709V374.974H468.646V375.829C468.945 375.204 469.434 374.892 470.113 374.892C470.221 374.892 470.327 374.902 470.428 374.923ZM472.731 373.426V374.974H473.79V375.839H472.731V378.385C472.731 378.616 472.782 378.786 472.884 378.894C472.992 379.003 473.169 379.057 473.413 379.057C473.556 379.057 473.681 379.044 473.79 379.017V379.831C473.627 379.892 473.41 379.923 473.138 379.923C472.717 379.923 472.385 379.801 472.14 379.556C471.896 379.312 471.774 378.969 471.774 378.528V375.839H470.837V374.974H471.101C471.353 374.974 471.539 374.906 471.662 374.77C471.791 374.627 471.855 374.444 471.855 374.22V373.426H472.731ZM479.813 374.923V375.941C479.671 375.921 479.532 375.911 479.396 375.911C478.5 375.911 478.052 376.413 478.052 377.418V379.872H477.094V374.974H478.031V375.829C478.33 375.204 478.819 374.892 479.498 374.892C479.606 374.892 479.712 374.902 479.813 374.923ZM480.269 378.558C480.269 378.137 480.404 377.801 480.676 377.55C480.947 377.292 481.307 377.133 481.755 377.071L483.079 376.878C483.331 376.844 483.456 376.722 483.456 376.511C483.456 376.253 483.368 376.043 483.191 375.88C483.015 375.717 482.75 375.636 482.397 375.636C482.071 375.636 481.813 375.727 481.623 375.911C481.433 376.087 481.321 376.325 481.287 376.623L480.37 376.41C480.418 375.941 480.632 375.561 481.012 375.269C481.392 374.97 481.847 374.821 482.377 374.821C483.069 374.821 483.582 374.991 483.914 375.33C484.247 375.663 484.413 376.09 484.413 376.613V379.068C484.413 379.359 484.434 379.628 484.474 379.872H483.538C483.504 379.668 483.487 379.448 483.487 379.21C483.351 379.427 483.151 379.617 482.886 379.78C482.628 379.943 482.302 380.025 481.908 380.025C481.426 380.025 481.032 379.882 480.727 379.597C480.421 379.305 480.269 378.959 480.269 378.558ZM482.041 379.22C482.468 379.22 482.811 379.105 483.069 378.874C483.327 378.643 483.456 378.277 483.456 377.774V377.55L481.959 377.774C481.742 377.808 481.569 377.886 481.44 378.008C481.311 378.131 481.246 378.297 481.246 378.507C481.246 378.698 481.317 378.864 481.46 379.006C481.609 379.149 481.803 379.22 482.041 379.22ZM486.592 379.872H485.645V374.974H486.592V379.872ZM485.625 373.609C485.496 373.473 485.431 373.31 485.431 373.12C485.431 372.93 485.496 372.767 485.625 372.631C485.76 372.496 485.923 372.428 486.113 372.428C486.304 372.428 486.467 372.496 486.602 372.631C486.738 372.76 486.806 372.923 486.806 373.12C486.806 373.31 486.738 373.473 486.602 373.609C486.467 373.738 486.304 373.802 486.113 373.802C485.923 373.802 485.76 373.738 485.625 373.609ZM487.503 378.599L488.368 378.294C488.402 378.558 488.518 378.779 488.715 378.956C488.912 379.125 489.176 379.21 489.509 379.21C489.767 379.21 489.971 379.149 490.12 379.027C490.269 378.898 490.344 378.742 490.344 378.558C490.344 378.232 490.134 378.022 489.713 377.927L488.878 377.744C488.497 377.662 488.199 377.499 487.982 377.255C487.764 377.01 487.656 376.715 487.656 376.369C487.656 375.948 487.825 375.585 488.165 375.279C488.511 374.974 488.922 374.821 489.397 374.821C489.709 374.821 489.988 374.868 490.232 374.963C490.477 375.052 490.667 375.17 490.802 375.32C490.938 375.469 491.04 375.608 491.108 375.737C491.176 375.866 491.227 375.999 491.261 376.135L490.415 376.45C490.402 376.369 490.378 376.291 490.344 376.216C490.31 376.135 490.256 376.046 490.181 375.951C490.113 375.856 490.012 375.782 489.876 375.727C489.74 375.666 489.58 375.636 489.397 375.636C489.159 375.636 488.963 375.7 488.806 375.829C488.657 375.958 488.582 376.111 488.582 376.287C488.582 376.6 488.769 376.797 489.142 376.878L489.937 377.051C490.371 377.146 490.704 377.323 490.935 377.581C491.172 377.832 491.291 378.141 491.291 378.507C491.291 378.894 491.132 379.244 490.813 379.556C490.5 379.869 490.062 380.025 489.499 380.025C488.895 380.025 488.423 379.875 488.083 379.577C487.744 379.271 487.55 378.945 487.503 378.599ZM493.253 379.872H492.306V374.974H493.253V379.872ZM492.286 373.609C492.157 373.473 492.092 373.31 492.092 373.12C492.092 372.93 492.157 372.767 492.286 372.631C492.422 372.496 492.584 372.428 492.775 372.428C492.965 372.428 493.128 372.496 493.263 372.631C493.399 372.76 493.467 372.923 493.467 373.12C493.467 373.31 493.399 373.473 493.263 373.609C493.128 373.738 492.965 373.802 492.775 373.802C492.584 373.802 492.422 373.738 492.286 373.609ZM495.579 377.041V379.872H494.622V374.974H495.559V375.676C495.885 375.113 496.387 374.831 497.066 374.831C497.63 374.831 498.061 375.011 498.36 375.371C498.665 375.731 498.818 376.196 498.818 376.766V379.872H497.861V376.929C497.861 376.107 497.48 375.697 496.72 375.697C496.36 375.697 496.079 375.826 495.875 376.084C495.678 376.335 495.579 376.654 495.579 377.041ZM499.725 380.137L500.651 379.923C500.685 380.269 500.824 380.554 501.069 380.778C501.313 381.009 501.619 381.125 501.985 381.125C502.983 381.125 503.483 380.595 503.483 379.536V378.833C503.36 379.071 503.167 379.264 502.902 379.414C502.644 379.563 502.339 379.638 501.985 379.638C501.334 379.638 500.794 379.417 500.366 378.976C499.945 378.528 499.735 377.957 499.735 377.265C499.735 376.593 499.945 376.029 500.366 375.574C500.787 375.113 501.327 374.882 501.985 374.882C502.732 374.882 503.235 375.14 503.493 375.656V374.974H504.44V379.505C504.44 379.831 504.396 380.133 504.307 380.412C504.226 380.697 504.094 380.958 503.91 381.196C503.727 381.434 503.469 381.62 503.136 381.756C502.81 381.892 502.427 381.96 501.985 381.96C501.381 381.96 500.869 381.787 500.448 381.44C500.027 381.101 499.786 380.666 499.725 380.137ZM502.128 378.833C502.542 378.833 502.878 378.691 503.136 378.406C503.394 378.114 503.523 377.733 503.523 377.265C503.523 376.797 503.394 376.42 503.136 376.135C502.878 375.843 502.542 375.697 502.128 375.697C501.707 375.697 501.364 375.839 501.099 376.124C500.841 376.41 500.712 376.79 500.712 377.265C500.712 377.747 500.838 378.131 501.089 378.416C501.347 378.694 501.694 378.833 502.128 378.833ZM278.007 388.839H276.825V392.872H275.838V388.839H274.931V387.974H275.838V387.149C275.838 386.626 275.99 386.215 276.296 385.916C276.601 385.618 276.985 385.468 277.447 385.468C277.739 385.468 277.929 385.502 278.017 385.57V386.426C277.915 386.385 277.776 386.365 277.599 386.365C277.389 386.365 277.206 386.429 277.049 386.558C276.9 386.68 276.825 386.894 276.825 387.2V387.974H278.007V388.839ZM279.583 391.711C279.881 392.017 280.245 392.169 280.672 392.169C281.1 392.169 281.46 392.017 281.752 391.711C282.051 391.399 282.2 390.968 282.2 390.418C282.2 389.875 282.051 389.45 281.752 389.145C281.46 388.832 281.1 388.676 280.672 388.676C280.245 388.676 279.881 388.832 279.583 389.145C279.291 389.45 279.145 389.875 279.145 390.418C279.145 390.968 279.291 391.399 279.583 391.711ZM278.87 388.564C279.345 388.069 279.946 387.821 280.672 387.821C281.399 387.821 281.996 388.069 282.465 388.564C282.94 389.053 283.178 389.671 283.178 390.418C283.178 391.171 282.943 391.796 282.475 392.292C282.006 392.78 281.406 393.025 280.672 393.025C279.939 393.025 279.338 392.78 278.87 392.292C278.401 391.796 278.167 391.171 278.167 390.418C278.167 389.671 278.401 389.053 278.87 388.564ZM286.862 387.923V388.941C286.719 388.921 286.58 388.911 286.444 388.911C285.548 388.911 285.1 389.413 285.1 390.418V392.872H284.143V387.974H285.08V388.829C285.378 388.204 285.867 387.892 286.546 387.892C286.655 387.892 286.76 387.902 286.862 387.923ZM291.131 394.919H290.082L291.304 392.332L289.196 387.974H290.296L291.823 391.355L293.29 387.974H294.318L291.131 394.919ZM295.789 391.711C296.088 392.017 296.451 392.169 296.879 392.169C297.306 392.169 297.666 392.017 297.958 391.711C298.257 391.399 298.406 390.968 298.406 390.418C298.406 389.875 298.257 389.45 297.958 389.145C297.666 388.832 297.306 388.676 296.879 388.676C296.451 388.676 296.088 388.832 295.789 389.145C295.497 389.45 295.351 389.875 295.351 390.418C295.351 390.968 295.497 391.399 295.789 391.711ZM295.076 388.564C295.551 388.069 296.152 387.821 296.879 387.821C297.605 387.821 298.203 388.069 298.671 388.564C299.146 389.053 299.384 389.671 299.384 390.418C299.384 391.171 299.15 391.796 298.681 392.292C298.213 392.78 297.612 393.025 296.879 393.025C296.145 393.025 295.545 392.78 295.076 392.292C294.608 391.796 294.373 391.171 294.373 390.418C294.373 389.671 294.608 389.053 295.076 388.564ZM303.528 392.281C303.399 392.526 303.202 392.713 302.937 392.842C302.672 392.964 302.387 393.025 302.081 393.025C301.525 393.025 301.08 392.842 300.747 392.475C300.415 392.101 300.248 391.63 300.248 391.059V387.974H301.206V390.917C301.206 391.283 301.294 391.586 301.47 391.823C301.654 392.061 301.935 392.18 302.316 392.18C302.696 392.18 302.984 392.068 303.181 391.843C303.378 391.613 303.477 391.307 303.477 390.927V387.974H304.434V391.966C304.434 392.285 304.451 392.587 304.485 392.872H303.568C303.541 392.723 303.528 392.526 303.528 392.281ZM308.527 387.923V388.941C308.384 388.921 308.245 388.911 308.109 388.911C307.213 388.911 306.765 389.413 306.765 390.418V392.872H305.808V387.974H306.745V388.829C307.043 388.204 307.532 387.892 308.211 387.892C308.32 387.892 308.425 387.902 308.527 387.923ZM313.631 388.707C313.217 388.707 312.864 388.856 312.572 389.155C312.287 389.454 312.144 389.875 312.144 390.418C312.144 390.954 312.287 391.375 312.572 391.681C312.864 391.986 313.22 392.139 313.641 392.139C314.049 392.139 314.357 392.037 314.568 391.833C314.785 391.63 314.931 391.395 315.006 391.131L315.851 391.497C315.715 391.905 315.457 392.261 315.077 392.567C314.704 392.872 314.225 393.025 313.641 393.025C312.928 393.025 312.338 392.777 311.869 392.281C311.401 391.786 311.166 391.165 311.166 390.418C311.166 389.657 311.401 389.036 311.869 388.554C312.338 388.065 312.925 387.821 313.631 387.821C314.228 387.821 314.71 387.974 315.077 388.279C315.45 388.585 315.695 388.951 315.81 389.379L314.945 389.746C314.87 389.46 314.727 389.216 314.517 389.012C314.306 388.809 314.011 388.707 313.631 388.707ZM317.673 391.711C317.972 392.017 318.335 392.169 318.763 392.169C319.19 392.169 319.55 392.017 319.842 391.711C320.141 391.399 320.29 390.968 320.29 390.418C320.29 389.875 320.141 389.45 319.842 389.145C319.55 388.832 319.19 388.676 318.763 388.676C318.335 388.676 317.972 388.832 317.673 389.145C317.381 389.45 317.235 389.875 317.235 390.418C317.235 390.968 317.381 391.399 317.673 391.711ZM316.96 388.564C317.435 388.069 318.036 387.821 318.763 387.821C319.489 387.821 320.086 388.069 320.555 388.564C321.03 389.053 321.268 389.671 321.268 390.418C321.268 391.171 321.034 391.796 320.565 392.292C320.097 392.78 319.496 393.025 318.763 393.025C318.029 393.025 317.428 392.78 316.96 392.292C316.492 391.796 316.257 391.171 316.257 390.418C316.257 389.671 316.492 389.053 316.96 388.564ZM323.18 392.872H322.233V387.974H323.149V388.625C323.299 388.367 323.509 388.17 323.781 388.035C324.052 387.899 324.338 387.831 324.636 387.831C324.955 387.831 325.247 387.909 325.512 388.065C325.777 388.221 325.974 388.452 326.103 388.758C326.442 388.14 326.989 387.831 327.742 387.831C328.211 387.831 328.608 387.991 328.934 388.31C329.267 388.629 329.433 389.09 329.433 389.695V392.872H328.486V389.797C328.486 389.457 328.398 389.185 328.221 388.982C328.051 388.778 327.793 388.676 327.447 388.676C327.114 388.676 326.843 388.795 326.632 389.033C326.422 389.264 326.317 389.556 326.317 389.909V392.872H325.359V389.797C325.359 389.457 325.271 389.185 325.095 388.982C324.925 388.778 324.667 388.676 324.321 388.676C323.981 388.676 323.706 388.792 323.496 389.023C323.285 389.253 323.18 389.552 323.18 389.919V392.872ZM331.652 394.807H330.705V387.974H331.632V388.737C331.774 388.479 331.988 388.269 332.273 388.106C332.559 387.943 332.891 387.862 333.271 387.862C333.978 387.862 334.527 388.103 334.921 388.585C335.322 389.067 335.522 389.678 335.522 390.418C335.522 391.165 335.315 391.782 334.901 392.271C334.494 392.76 333.94 393.004 333.241 393.004C332.881 393.004 332.562 392.93 332.284 392.78C332.005 392.631 331.795 392.441 331.652 392.21V394.807ZM334.544 390.418C334.544 389.922 334.412 389.515 334.147 389.196C333.889 388.87 333.54 388.707 333.098 388.707C332.664 388.707 332.311 388.87 332.039 389.196C331.774 389.515 331.642 389.922 331.642 390.418C331.642 390.927 331.774 391.344 332.039 391.67C332.311 391.989 332.664 392.149 333.098 392.149C333.533 392.149 333.882 391.989 334.147 391.67C334.412 391.344 334.544 390.927 334.544 390.418ZM336.177 391.558C336.177 391.137 336.312 390.801 336.584 390.55C336.856 390.292 337.215 390.133 337.664 390.071L338.987 389.878C339.239 389.844 339.364 389.722 339.364 389.511C339.364 389.253 339.276 389.043 339.099 388.88C338.923 388.717 338.658 388.636 338.305 388.636C337.979 388.636 337.721 388.727 337.531 388.911C337.341 389.087 337.229 389.325 337.195 389.623L336.279 389.41C336.326 388.941 336.54 388.561 336.92 388.269C337.3 387.97 337.755 387.821 338.285 387.821C338.977 387.821 339.49 387.991 339.823 388.33C340.155 388.663 340.322 389.09 340.322 389.613V392.068C340.322 392.359 340.342 392.628 340.383 392.872H339.446C339.412 392.668 339.395 392.448 339.395 392.21C339.259 392.427 339.059 392.617 338.794 392.78C338.536 392.943 338.21 393.025 337.816 393.025C337.334 393.025 336.94 392.882 336.635 392.597C336.329 392.305 336.177 391.959 336.177 391.558ZM337.949 392.22C338.376 392.22 338.719 392.105 338.977 391.874C339.235 391.643 339.364 391.277 339.364 390.774V390.55L337.867 390.774C337.65 390.808 337.477 390.886 337.348 391.008C337.219 391.131 337.154 391.297 337.154 391.507C337.154 391.698 337.226 391.864 337.368 392.006C337.518 392.149 337.711 392.22 337.949 392.22ZM342.51 390.041V392.872H341.553V387.974H342.49V388.676C342.816 388.113 343.318 387.831 343.997 387.831C344.561 387.831 344.992 388.011 345.291 388.371C345.596 388.731 345.749 389.196 345.749 389.766V392.872H344.792V389.929C344.792 389.107 344.411 388.697 343.651 388.697C343.291 388.697 343.009 388.826 342.806 389.084C342.609 389.335 342.51 389.654 342.51 390.041ZM348.234 394.919H347.185L348.407 392.332L346.299 387.974H347.399L348.927 391.355L350.393 387.974H351.422L348.234 394.919ZM351.061 392.719C350.925 392.584 350.857 392.417 350.857 392.22C350.857 392.023 350.925 391.857 351.061 391.721C351.197 391.579 351.363 391.507 351.56 391.507C351.757 391.507 351.923 391.579 352.059 391.721C352.202 391.857 352.273 392.023 352.273 392.22C352.273 392.417 352.202 392.584 352.059 392.719C351.923 392.855 351.757 392.923 351.56 392.923C351.363 392.923 351.197 392.855 351.061 392.719Z" fill="#7C7D90"/>
<rect x="228.568" y="416.876" width="170.581" height="30.5518" rx="5.09196" fill="#012677"/>
<path d="M286.308 430.312L285.346 430.615C285.305 430.372 285.183 430.149 284.981 429.947C284.779 429.745 284.488 429.644 284.107 429.644C283.793 429.644 283.531 429.733 283.323 429.911C283.121 430.089 283.02 430.303 283.02 430.553C283.02 430.987 283.267 431.257 283.76 431.364L284.669 431.551C285.215 431.658 285.637 431.875 285.934 432.201C286.231 432.528 286.38 432.917 286.38 433.369C286.38 433.891 286.178 434.343 285.774 434.723C285.376 435.097 284.832 435.285 284.143 435.285C283.401 435.285 282.821 435.091 282.405 434.705C281.99 434.313 281.755 433.859 281.702 433.342L282.7 433.057C282.735 433.413 282.878 433.713 283.127 433.957C283.377 434.2 283.715 434.322 284.143 434.322C284.511 434.322 284.794 434.242 284.99 434.082C285.192 433.915 285.293 433.704 285.293 433.449C285.293 433.241 285.218 433.063 285.07 432.914C284.921 432.76 284.713 432.653 284.446 432.593L283.555 432.406C283.062 432.305 282.67 432.1 282.379 431.791C282.094 431.483 281.951 431.096 281.951 430.633C281.951 430.104 282.162 429.65 282.584 429.27C283.005 428.889 283.51 428.699 284.099 428.699C284.77 428.699 285.284 428.863 285.64 429.189C285.997 429.51 286.219 429.885 286.308 430.312ZM288.694 429.484V430.811H289.594V431.729H288.694V433.743C288.694 433.933 288.738 434.073 288.827 434.162C288.917 434.245 289.056 434.287 289.246 434.287C289.365 434.287 289.484 434.275 289.603 434.251V435.106C289.448 435.172 289.237 435.204 288.97 435.204C288.566 435.204 288.248 435.091 288.017 434.866C287.785 434.634 287.669 434.316 287.669 433.912V431.729H286.867V430.811H287.09C287.31 430.811 287.476 430.749 287.589 430.624C287.702 430.499 287.758 430.336 287.758 430.134V429.484H288.694ZM290.397 433.975C290.397 433.606 290.516 433.312 290.754 433.092C290.997 432.867 291.315 432.724 291.707 432.665L292.821 432.495C293.035 432.466 293.142 432.362 293.142 432.184C293.142 431.987 293.073 431.83 292.937 431.711C292.8 431.587 292.595 431.524 292.322 431.524C292.061 431.524 291.853 431.598 291.698 431.747C291.544 431.889 291.455 432.077 291.431 432.308L290.486 432.094C290.528 431.702 290.715 431.37 291.048 431.096C291.38 430.817 291.802 430.678 292.313 430.678C292.943 430.678 293.406 430.829 293.703 431.132C294.006 431.435 294.158 431.824 294.158 432.299V434.456C294.158 434.741 294.175 434.973 294.211 435.151H293.249C293.219 435.062 293.204 434.878 293.204 434.598C292.919 435.056 292.473 435.285 291.868 435.285C291.428 435.285 291.071 435.157 290.798 434.901C290.531 434.64 290.397 434.331 290.397 433.975ZM292.064 434.474C292.384 434.474 292.643 434.388 292.839 434.215C293.041 434.037 293.142 433.749 293.142 433.351V433.155L292.01 433.324C291.624 433.389 291.431 433.586 291.431 433.912C291.431 434.067 291.487 434.2 291.6 434.313C291.713 434.42 291.868 434.474 292.064 434.474ZM297.947 430.785V431.836C297.828 431.818 297.715 431.809 297.608 431.809C296.83 431.809 296.441 432.234 296.441 433.084V435.151H295.407V430.811H296.414V431.506C296.515 431.275 296.678 431.093 296.904 430.963C297.13 430.826 297.385 430.758 297.671 430.758C297.766 430.758 297.858 430.767 297.947 430.785ZM300.311 429.484V430.811H301.211V431.729H300.311V433.743C300.311 433.933 300.356 434.073 300.445 434.162C300.534 434.245 300.673 434.287 300.864 434.287C300.982 434.287 301.101 434.275 301.22 434.251V435.106C301.065 435.172 300.855 435.204 300.587 435.204C300.183 435.204 299.865 435.091 299.634 434.866C299.402 434.634 299.286 434.316 299.286 433.912V431.729H298.484V430.811H298.707C298.927 430.811 299.093 430.749 299.206 430.624C299.319 430.499 299.375 430.336 299.375 430.134V429.484H300.311ZM309.857 435.151H308.743L305.624 430.366V435.151H304.555V428.833H305.919L308.788 433.315V428.833H309.857V435.151ZM311.984 432.504H314.114C314.102 432.231 314.004 432.002 313.82 431.818C313.642 431.634 313.383 431.542 313.045 431.542C312.736 431.542 312.486 431.64 312.296 431.836C312.106 432.026 312.002 432.249 311.984 432.504ZM314.23 433.636L315.103 433.912C314.978 434.31 314.744 434.64 314.399 434.901C314.06 435.157 313.642 435.285 313.143 435.285C312.525 435.285 311.999 435.074 311.565 434.652C311.138 434.23 310.924 433.666 310.924 432.959C310.924 432.293 311.132 431.747 311.548 431.319C311.969 430.891 312.465 430.678 313.036 430.678C313.701 430.678 314.221 430.883 314.595 431.292C314.969 431.696 315.156 432.243 315.156 432.932C315.156 433.116 315.148 433.226 315.13 433.262H311.957C311.969 433.588 312.088 433.859 312.314 434.073C312.546 434.287 312.822 434.393 313.143 434.393C313.701 434.393 314.063 434.141 314.23 433.636ZM318.543 430.811H319.612L320.637 433.814L321.501 430.811H322.553L321.163 435.151H320.129L319.051 432.032L317.999 435.151H316.939L315.531 430.811H316.636L317.518 433.814L318.543 430.811ZM328.83 435.151L327.503 432.656H326.719V435.151H325.64V428.833H328.064C328.658 428.833 329.136 429.017 329.499 429.386C329.861 429.748 330.042 430.202 330.042 430.749C330.042 431.2 329.915 431.587 329.659 431.907C329.404 432.228 329.056 432.442 328.617 432.549L330.042 435.151H328.83ZM326.719 431.711H327.868C328.195 431.711 328.456 431.625 328.652 431.453C328.854 431.275 328.955 431.04 328.955 430.749C328.955 430.452 328.854 430.217 328.652 430.045C328.456 429.867 328.195 429.778 327.868 429.778H326.719V431.711ZM330.766 433.975C330.766 433.606 330.885 433.312 331.123 433.092C331.366 432.867 331.684 432.724 332.076 432.665L333.19 432.495C333.404 432.466 333.511 432.362 333.511 432.184C333.511 431.987 333.442 431.83 333.306 431.711C333.169 431.587 332.964 431.524 332.691 431.524C332.43 431.524 332.222 431.598 332.067 431.747C331.913 431.889 331.824 432.077 331.8 432.308L330.855 432.094C330.897 431.702 331.084 431.37 331.417 431.096C331.749 430.817 332.171 430.678 332.682 430.678C333.312 430.678 333.775 430.829 334.072 431.132C334.375 431.435 334.527 431.824 334.527 432.299V434.456C334.527 434.741 334.544 434.973 334.58 435.151H333.618C333.588 435.062 333.573 434.878 333.573 434.598C333.288 435.056 332.842 435.285 332.236 435.285C331.797 435.285 331.44 435.157 331.167 434.901C330.9 434.64 330.766 434.331 330.766 433.975ZM332.433 434.474C332.753 434.474 333.012 434.388 333.208 434.215C333.41 434.037 333.511 433.749 333.511 433.351V433.155L332.379 433.324C331.993 433.389 331.8 433.586 331.8 433.912C331.8 434.067 331.856 434.2 331.969 434.313C332.082 434.42 332.236 434.474 332.433 434.474ZM336.801 435.151H335.776V430.811H336.801V435.151ZM335.812 429.76C335.681 429.629 335.616 429.472 335.616 429.287C335.616 429.103 335.681 428.946 335.812 428.815C335.942 428.679 336.1 428.61 336.284 428.61C336.474 428.61 336.635 428.676 336.765 428.806C336.896 428.937 336.961 429.097 336.961 429.287C336.961 429.472 336.896 429.629 336.765 429.76C336.635 429.89 336.474 429.956 336.284 429.956C336.1 429.956 335.942 429.89 335.812 429.76ZM337.751 433.975L338.651 433.725C338.669 433.933 338.755 434.108 338.91 434.251C339.064 434.393 339.272 434.465 339.533 434.465C339.735 434.465 339.893 434.417 340.006 434.322C340.125 434.227 340.184 434.108 340.184 433.966C340.184 433.716 340.015 433.556 339.676 433.485L339.034 433.342C338.66 433.259 338.372 433.104 338.17 432.879C337.968 432.653 337.867 432.386 337.867 432.077C337.867 431.696 338.022 431.37 338.33 431.096C338.639 430.817 339.017 430.678 339.462 430.678C339.747 430.678 340 430.719 340.22 430.802C340.439 430.886 340.609 430.995 340.727 431.132C340.852 431.263 340.947 431.39 341.013 431.515C341.078 431.64 341.12 431.765 341.137 431.889L340.264 432.139C340.24 431.973 340.163 431.824 340.032 431.693C339.908 431.557 339.718 431.488 339.462 431.488C339.284 431.488 339.135 431.539 339.017 431.64C338.898 431.735 338.838 431.851 338.838 431.987C338.838 432.231 338.984 432.383 339.275 432.442L339.934 432.576C340.338 432.665 340.647 432.825 340.861 433.057C341.075 433.288 341.182 433.568 341.182 433.894C341.182 434.257 341.036 434.581 340.745 434.866C340.46 435.145 340.059 435.285 339.542 435.285C339.245 435.285 338.978 435.24 338.74 435.151C338.509 435.062 338.325 434.949 338.188 434.812C338.057 434.67 337.953 434.53 337.876 434.393C337.805 434.251 337.763 434.111 337.751 433.975ZM342.903 432.504H345.032C345.02 432.231 344.922 432.002 344.738 431.818C344.56 431.634 344.302 431.542 343.963 431.542C343.654 431.542 343.405 431.64 343.215 431.836C343.024 432.026 342.92 432.249 342.903 432.504ZM345.148 433.636L346.021 433.912C345.897 434.31 345.662 434.64 345.318 434.901C344.979 435.157 344.56 435.285 344.061 435.285C343.443 435.285 342.918 435.074 342.484 434.652C342.056 434.23 341.842 433.666 341.842 432.959C341.842 432.293 342.05 431.747 342.466 431.319C342.888 430.891 343.384 430.678 343.954 430.678C344.62 430.678 345.139 430.883 345.514 431.292C345.888 431.696 346.075 432.243 346.075 432.932C346.075 433.116 346.066 433.226 346.048 433.262H342.876C342.888 433.588 343.007 433.859 343.232 434.073C343.464 434.287 343.74 434.393 344.061 434.393C344.62 434.393 344.982 434.141 345.148 433.636Z" fill="white"/>
</g>
<path d="M349.715 465.021L349.713 465.021L342.351 465.141C342.35 465.141 342.349 465.141 342.348 465.141C339.867 465.174 337.494 466.309 336.015 468.356L331.794 474.086L331.791 474.091C329.04 477.854 322.82 475.869 322.735 471.226L322.294 445.449C322.294 445.448 322.294 445.446 322.294 445.445C322.253 441.696 326.579 439.312 330.001 441.608L330.001 441.608L330.007 441.612L352.29 456.394C352.29 456.394 352.291 456.395 352.292 456.395C356.251 459.043 354.527 464.949 349.715 465.021Z" fill="#0D58FD" stroke="white" stroke-width="3.09427"/>
<defs>
<filter id="filter0_d_925_10505" x="55" y="82.3201" width="501.717" height="415.108" filterUnits="userSpaceOnUse" color-interpolation-filters="sRGB">
<feFlood flood-opacity="0" result="BackgroundImageFix"/>
<feColorMatrix in="SourceAlpha" type="matrix" values="0 0 0 0 0 0 0 0 0 0 0 0 0 0 0 0 0 0 127 0" result="hardAlpha"/>
<feOffset dx="-16"/>
<feComposite in2="hardAlpha" operator="out"/>
<feColorMatrix type="matrix" values="0 0 0 0 0.25098 0 0 0 0 0.482353 0 0 0 0 1 0 0 0 0.1 0"/>
<feBlend mode="normal" in2="BackgroundImageFix" result="effect1_dropShadow_925_10505"/>
<feBlend mode="normal" in="SourceGraphic" in2="effect1_dropShadow_925_10505" result="shape"/>
</filter>
<linearGradient id="paint0_linear_925_10505" x1="313.858" y1="82.3201" x2="313.858" y2="497.428" gradientUnits="userSpaceOnUse">
<stop stop-color="#EEF3FD"/>
<stop offset="1" stop-color="white"/>
</linearGradient>
</defs>
</svg>
