<svg width="592" height="391" viewBox="0 0 592 391" fill="none" xmlns="http://www.w3.org/2000/svg">
<g clip-path="url(#clip0_789_7108)">
<rect width="591.989" height="390.44" transform="translate(0 0.439941)" fill="#F4F7FE"/>
<g filter="url(#filter0_d_789_7108)">
<rect x="60" y="61" width="788.058" height="554.188" rx="12.1473" fill="url(#paint0_linear_789_7108)"/>
<path d="M100.238 103.072H104.794C108.59 103.072 110.108 101.554 110.108 97.7579V93.2026C110.108 89.4066 108.59 87.8882 104.794 87.8882H100.238C96.4422 87.8882 94.9238 89.4066 94.9238 93.2026V97.7579C94.9238 101.554 96.4422 103.072 100.238 103.072Z" stroke="black" stroke-width="1.13881" stroke-linecap="round" stroke-linejoin="round"/>
<path d="M103.472 98.1602L100.8 95.4802L103.472 92.8002" stroke="black" stroke-width="1.13881" stroke-linecap="round" stroke-linejoin="round"/>
<path d="M131.062 102.254C129.252 102.254 127.709 101.64 126.434 100.413C125.17 99.1863 124.539 97.5586 124.539 95.53C124.539 93.5135 125.183 91.8858 126.47 90.6468C127.758 89.4077 129.282 88.7882 131.044 88.7882C132.598 88.7882 133.874 89.183 134.87 89.9726C135.878 90.7622 136.54 91.7643 136.856 92.979L134.797 93.6714C134.591 92.8333 134.172 92.153 133.54 91.6307C132.908 91.1084 132.076 90.8472 131.044 90.8472C129.89 90.8472 128.887 91.2602 128.037 92.0862C127.199 92.9001 126.78 94.048 126.78 95.53C126.78 96.9755 127.199 98.1113 128.037 98.9373C128.875 99.7512 129.884 100.158 131.062 100.158C132.07 100.158 132.902 99.8848 133.558 99.3382C134.214 98.7915 134.664 98.1174 134.906 97.3156L136.911 97.9716C136.595 99.1742 135.927 100.188 134.906 101.015C133.898 101.841 132.617 102.254 131.062 102.254ZM143.928 93.0519V95.202C143.685 95.1656 143.454 95.1473 143.235 95.1473C141.644 95.1473 140.848 96.0159 140.848 97.753V101.98H138.735V93.1066H140.794V94.5278C141 94.0541 141.334 93.6836 141.796 93.4164C142.257 93.137 142.78 92.9973 143.363 92.9973C143.557 92.9973 143.745 93.0155 143.928 93.0519ZM147.079 96.5686H151.434C151.409 96.0098 151.209 95.5421 150.832 95.1656C150.468 94.789 149.94 94.6007 149.247 94.6007C148.616 94.6007 148.105 94.8011 147.717 95.202C147.328 95.5907 147.115 96.0463 147.079 96.5686ZM151.671 98.8827L153.456 99.4475C153.201 100.261 152.721 100.936 152.017 101.47C151.324 101.992 150.468 102.254 149.448 102.254C148.184 102.254 147.109 101.822 146.223 100.96C145.348 100.097 144.911 98.9434 144.911 97.4979C144.911 96.1374 145.336 95.0198 146.186 94.1452C147.049 93.2706 148.063 92.8333 149.229 92.8333C150.59 92.8333 151.652 93.2524 152.418 94.0905C153.183 94.9165 153.566 96.0341 153.566 97.4432C153.566 97.8198 153.547 98.0445 153.511 98.1174H147.024C147.049 98.7855 147.292 99.3382 147.753 99.7755C148.227 100.213 148.792 100.431 149.448 100.431C150.59 100.431 151.331 99.9152 151.671 98.8827ZM155.039 99.5751C155.039 98.8219 155.282 98.2206 155.768 97.7712C156.266 97.3096 156.916 97.018 157.717 96.8966L159.995 96.5504C160.432 96.4896 160.651 96.2771 160.651 95.9126C160.651 95.5118 160.511 95.1899 160.232 94.9469C159.952 94.6918 159.533 94.5643 158.975 94.5643C158.44 94.5643 158.015 94.7161 157.699 95.0198C157.383 95.3113 157.201 95.694 157.152 96.1677L155.221 95.7304C155.306 94.9287 155.689 94.2484 156.369 93.6897C157.049 93.1187 157.912 92.8333 158.956 92.8333C160.244 92.8333 161.191 93.143 161.799 93.7626C162.418 94.3821 162.728 95.1777 162.728 96.1495V100.559C162.728 101.142 162.765 101.616 162.837 101.98H160.87C160.809 101.798 160.778 101.421 160.778 100.851C160.195 101.786 159.284 102.254 158.045 102.254C157.146 102.254 156.418 101.992 155.859 101.47C155.312 100.936 155.039 100.304 155.039 99.5751ZM158.446 100.595C159.102 100.595 159.631 100.419 160.031 100.067C160.444 99.7026 160.651 99.1135 160.651 98.2996V97.8987L158.337 98.2449C157.547 98.3785 157.152 98.7794 157.152 99.4475C157.152 99.7633 157.268 100.037 157.499 100.267C157.729 100.486 158.045 100.595 158.446 100.595ZM167.926 90.3917V93.1066H169.766V94.9834H167.926V99.1013C167.926 99.49 168.017 99.7755 168.199 99.9577C168.382 100.128 168.667 100.213 169.056 100.213C169.299 100.213 169.542 100.188 169.785 100.14V101.889C169.469 102.023 169.038 102.09 168.491 102.09C167.665 102.09 167.015 101.859 166.541 101.397C166.068 100.923 165.831 100.274 165.831 99.4475V94.9834H164.191V93.1066H164.646C165.096 93.1066 165.436 92.979 165.667 92.724C165.897 92.4689 166.013 92.1348 166.013 91.7218V90.3917H167.926ZM173.325 96.5686H177.68C177.656 96.0098 177.455 95.5421 177.079 95.1656C176.714 94.789 176.186 94.6007 175.493 94.6007C174.862 94.6007 174.351 94.8011 173.963 95.202C173.574 95.5907 173.361 96.0463 173.325 96.5686ZM177.917 98.8827L179.702 99.4475C179.447 100.261 178.967 100.936 178.263 101.47C177.571 101.992 176.714 102.254 175.694 102.254C174.43 102.254 173.355 101.822 172.469 100.96C171.594 100.097 171.157 98.9434 171.157 97.4979C171.157 96.1374 171.582 95.0198 172.432 94.1452C173.295 93.2706 174.309 92.8333 175.475 92.8333C176.836 92.8333 177.898 93.2524 178.664 94.0905C179.429 94.9165 179.812 96.0341 179.812 97.4432C179.812 97.8198 179.793 98.0445 179.757 98.1174H173.27C173.295 98.7855 173.538 99.3382 173.999 99.7755C174.473 100.213 175.038 100.431 175.694 100.431C176.836 100.431 177.577 99.9152 177.917 98.8827ZM197.375 101.98H195.097L188.72 92.1955V101.98H186.533V89.0615H189.321L195.188 98.2267V89.0615H197.375V101.98ZM201.724 96.5686H206.079C206.055 96.0098 205.854 95.5421 205.478 95.1656C205.113 94.789 204.585 94.6007 203.892 94.6007C203.261 94.6007 202.751 94.8011 202.362 95.202C201.973 95.5907 201.761 96.0463 201.724 96.5686ZM206.316 98.8827L208.102 99.4475C207.846 100.261 207.367 100.936 206.662 101.47C205.97 101.992 205.113 102.254 204.093 102.254C202.83 102.254 201.755 101.822 200.868 100.96C199.993 100.097 199.556 98.9434 199.556 97.4979C199.556 96.1374 199.981 95.0198 200.831 94.1452C201.694 93.2706 202.708 92.8333 203.874 92.8333C205.235 92.8333 206.298 93.2524 207.063 94.0905C207.828 94.9165 208.211 96.0341 208.211 97.4432C208.211 97.8198 208.193 98.0445 208.156 98.1174H201.669C201.694 98.7855 201.937 99.3382 202.398 99.7755C202.872 100.213 203.437 100.431 204.093 100.431C205.235 100.431 205.976 99.9152 206.316 98.8827ZM215.135 93.1066H217.322L219.417 99.2471L221.184 93.1066H223.335L220.492 101.98H218.378L216.174 95.6029L214.024 101.98H211.855L208.976 93.1066H211.236L213.04 99.2471L215.135 93.1066ZM236.171 101.98L233.456 96.8783H231.853V101.98H229.648V89.0615H234.604C235.819 89.0615 236.797 89.4381 237.538 90.1912C238.279 90.9322 238.649 91.8615 238.649 92.979C238.649 93.9022 238.388 94.6918 237.866 95.3478C237.343 96.0037 236.633 96.441 235.734 96.6597L238.649 101.98H236.171ZM231.853 94.9469H234.203C234.871 94.9469 235.406 94.7708 235.807 94.4185C236.22 94.0541 236.426 93.5743 236.426 92.979C236.426 92.3717 236.22 91.8919 235.807 91.5396C235.406 91.1752 234.871 90.993 234.203 90.993H231.853V94.9469ZM240.129 99.5751C240.129 98.8219 240.372 98.2206 240.858 97.7712C241.356 97.3096 242.006 97.018 242.808 96.8966L245.086 96.5504C245.523 96.4896 245.742 96.2771 245.742 95.9126C245.742 95.5118 245.602 95.1899 245.322 94.9469C245.043 94.6918 244.624 94.5643 244.065 94.5643C243.531 94.5643 243.106 94.7161 242.79 95.0198C242.474 95.3113 242.292 95.694 242.243 96.1677L240.312 95.7304C240.397 94.9287 240.779 94.2484 241.46 93.6897C242.14 93.1187 243.002 92.8333 244.047 92.8333C245.335 92.8333 246.282 93.143 246.889 93.7626C247.509 94.3821 247.819 95.1777 247.819 96.1495V100.559C247.819 101.142 247.855 101.616 247.928 101.98H245.96C245.899 101.798 245.869 101.421 245.869 100.851C245.286 101.786 244.375 102.254 243.136 102.254C242.237 102.254 241.508 101.992 240.949 101.47C240.403 100.936 240.129 100.304 240.129 99.5751ZM243.537 100.595C244.193 100.595 244.721 100.419 245.122 100.067C245.535 99.7026 245.742 99.1135 245.742 98.2996V97.8987L243.427 98.2449C242.638 98.3785 242.243 98.7794 242.243 99.4475C242.243 99.7633 242.359 100.037 242.589 100.267C242.82 100.486 243.136 100.595 243.537 100.595ZM252.469 101.98H250.374V93.1066H252.469V101.98ZM250.447 90.9565C250.179 90.6893 250.046 90.3674 250.046 89.9908C250.046 89.6142 250.179 89.2923 250.447 89.0251C250.714 88.7457 251.036 88.606 251.412 88.606C251.801 88.606 252.129 88.7396 252.396 89.0069C252.664 89.2741 252.797 89.6021 252.797 89.9908C252.797 90.3674 252.664 90.6893 252.396 90.9565C252.129 91.2238 251.801 91.3574 251.412 91.3574C251.036 91.3574 250.714 91.2238 250.447 90.9565ZM254.412 99.5751L256.253 99.0649C256.289 99.49 256.465 99.8484 256.781 100.14C257.097 100.431 257.522 100.577 258.057 100.577C258.47 100.577 258.792 100.48 259.022 100.286C259.265 100.091 259.387 99.8484 259.387 99.5568C259.387 99.0466 259.041 98.7187 258.348 98.5729L257.036 98.2814C256.271 98.1113 255.682 97.7955 255.269 97.3339C254.856 96.8723 254.649 96.3256 254.649 95.694C254.649 94.9165 254.965 94.2484 255.597 93.6897C256.228 93.1187 257 92.8333 257.911 92.8333C258.494 92.8333 259.01 92.9183 259.46 93.0884C259.909 93.2584 260.255 93.4832 260.498 93.7626C260.753 94.0298 260.948 94.291 261.081 94.5461C261.215 94.8011 261.3 95.0562 261.336 95.3113L259.551 95.8215C259.502 95.4814 259.344 95.1777 259.077 94.9105C258.822 94.6311 258.433 94.4914 257.911 94.4914C257.546 94.4914 257.243 94.5946 257 94.8011C256.757 94.9955 256.635 95.2324 256.635 95.5118C256.635 96.0098 256.933 96.3196 257.528 96.441L258.877 96.7144C259.703 96.8966 260.334 97.2245 260.772 97.6983C261.209 98.172 261.428 98.743 261.428 99.4111C261.428 100.152 261.13 100.814 260.535 101.397C259.952 101.968 259.132 102.254 258.075 102.254C257.468 102.254 256.921 102.162 256.435 101.98C255.961 101.798 255.585 101.567 255.305 101.288C255.038 100.996 254.825 100.711 254.668 100.431C254.522 100.14 254.437 99.8544 254.412 99.5751ZM264.946 96.5686H269.301C269.277 96.0098 269.076 95.5421 268.7 95.1656C268.335 94.789 267.807 94.6007 267.114 94.6007C266.483 94.6007 265.973 94.8011 265.584 95.202C265.195 95.5907 264.982 96.0463 264.946 96.5686ZM269.538 98.8827L271.323 99.4475C271.068 100.261 270.588 100.936 269.884 101.47C269.192 101.992 268.335 102.254 267.315 102.254C266.051 102.254 264.976 101.822 264.09 100.96C263.215 100.097 262.778 98.9434 262.778 97.4979C262.778 96.1374 263.203 95.0198 264.053 94.1452C264.916 93.2706 265.93 92.8333 267.096 92.8333C268.457 92.8333 269.52 93.2524 270.285 94.0905C271.05 94.9165 271.433 96.0341 271.433 97.4432C271.433 97.8198 271.415 98.0445 271.378 98.1174H264.891C264.916 98.7855 265.159 99.3382 265.62 99.7755C266.094 100.213 266.659 100.431 267.315 100.431C268.457 100.431 269.198 99.9152 269.538 98.8827Z" fill="black"/>
<path d="M95.4035 148.312H94.3619V140.776H98.9429V141.743H95.4035V144.166H98.6134V145.144H95.4035V148.312ZM101.046 148.312H100.058V143.199H101.046V148.312ZM100.037 141.775C99.902 141.633 99.8347 141.463 99.8347 141.265C99.8347 141.066 99.902 140.896 100.037 140.755C100.178 140.613 100.348 140.542 100.547 140.542C100.745 140.542 100.915 140.613 101.057 140.755C101.199 140.889 101.27 141.059 101.27 141.265C101.27 141.463 101.199 141.633 101.057 141.775C100.915 141.91 100.745 141.977 100.547 141.977C100.348 141.977 100.178 141.91 100.037 141.775ZM103.745 148.312H102.746V140.616H103.745V148.312ZM106.444 148.312H105.445V140.616H106.444V148.312ZM112.14 141.584V143.199H113.246V144.103H112.14V146.76C112.14 147.001 112.193 147.178 112.3 147.291C112.413 147.405 112.597 147.461 112.852 147.461C113.001 147.461 113.132 147.447 113.246 147.419V148.269C113.076 148.333 112.849 148.365 112.565 148.365C112.126 148.365 111.779 148.237 111.524 147.982C111.269 147.727 111.141 147.369 111.141 146.909V144.103H110.163V143.199H110.44C110.702 143.199 110.897 143.128 111.024 142.987C111.159 142.838 111.226 142.647 111.226 142.413V141.584H112.14ZM115.578 145.304V148.312H114.579V140.616H115.578V143.794C115.918 143.298 116.436 143.05 117.13 143.05C117.718 143.05 118.168 143.238 118.48 143.614C118.799 143.989 118.958 144.475 118.958 145.07V148.312H117.959V145.24C117.959 144.383 117.562 143.954 116.769 143.954C116.4 143.954 116.113 144.081 115.908 144.337C115.702 144.585 115.593 144.907 115.578 145.304ZM121.196 145.229H123.991C123.977 144.847 123.85 144.535 123.609 144.294C123.368 144.046 123.028 143.922 122.588 143.922C122.192 143.922 121.866 144.053 121.611 144.315C121.355 144.57 121.217 144.875 121.196 145.229ZM124.14 146.558L125.001 146.856C124.852 147.33 124.576 147.72 124.172 148.025C123.768 148.322 123.279 148.471 122.705 148.471C121.99 148.471 121.38 148.227 120.877 147.738C120.381 147.242 120.133 146.576 120.133 145.74C120.133 144.96 120.374 144.315 120.856 143.805C121.338 143.295 121.912 143.04 122.578 143.04C123.35 143.04 123.952 143.284 124.385 143.773C124.817 144.255 125.033 144.903 125.033 145.718C125.033 145.846 125.026 145.952 125.012 146.037H121.164C121.171 146.491 121.32 146.863 121.611 147.153C121.908 147.444 122.273 147.589 122.705 147.589C123.435 147.589 123.913 147.245 124.14 146.558ZM131.538 144.103H130.305V148.312H129.274V144.103H128.328V143.199H129.274V142.338C129.274 141.793 129.433 141.364 129.752 141.052C130.071 140.74 130.471 140.585 130.953 140.585C131.258 140.585 131.456 140.62 131.548 140.691V141.584C131.442 141.541 131.297 141.52 131.113 141.52C130.893 141.52 130.702 141.587 130.539 141.722C130.383 141.849 130.305 142.073 130.305 142.391V143.199H131.538V144.103ZM133.454 147.1C133.765 147.419 134.145 147.578 134.591 147.578C135.037 147.578 135.413 147.419 135.718 147.1C136.029 146.774 136.185 146.324 136.185 145.75C136.185 145.183 136.029 144.74 135.718 144.422C135.413 144.096 135.037 143.933 134.591 143.933C134.145 143.933 133.765 144.096 133.454 144.422C133.149 144.74 132.997 145.183 132.997 145.75C132.997 146.324 133.149 146.774 133.454 147.1ZM132.71 143.816C133.206 143.298 133.833 143.04 134.591 143.04C135.349 143.04 135.973 143.298 136.462 143.816C136.958 144.326 137.206 144.971 137.206 145.75C137.206 146.537 136.961 147.189 136.472 147.706C135.983 148.216 135.356 148.471 134.591 148.471C133.826 148.471 133.199 148.216 132.71 147.706C132.221 147.189 131.976 146.537 131.976 145.75C131.976 144.971 132.221 144.326 132.71 143.816ZM141.322 143.146V144.209C141.173 144.188 141.028 144.177 140.886 144.177C139.951 144.177 139.483 144.701 139.483 145.75V148.312H138.484V143.199H139.462V144.092C139.774 143.44 140.284 143.114 140.992 143.114C141.106 143.114 141.216 143.125 141.322 143.146ZM143.375 148.312H142.387V143.199H143.343V143.88C143.499 143.61 143.719 143.405 144.002 143.263C144.286 143.121 144.583 143.05 144.895 143.05C145.228 143.05 145.533 143.132 145.809 143.295C146.086 143.458 146.291 143.699 146.426 144.018C146.78 143.373 147.35 143.05 148.137 143.05C148.626 143.05 149.04 143.217 149.381 143.55C149.728 143.883 149.901 144.365 149.901 144.996V148.312H148.913V145.102C148.913 144.748 148.821 144.464 148.637 144.252C148.459 144.039 148.19 143.933 147.829 143.933C147.482 143.933 147.198 144.057 146.978 144.305C146.759 144.546 146.649 144.85 146.649 145.219V148.312H145.65V145.102C145.65 144.748 145.558 144.464 145.373 144.252C145.196 144.039 144.927 143.933 144.566 143.933C144.211 143.933 143.924 144.053 143.705 144.294C143.485 144.535 143.375 144.847 143.375 145.229V148.312ZM155.497 141.584V143.199H156.602V144.103H155.497V146.76C155.497 147.001 155.55 147.178 155.656 147.291C155.769 147.405 155.954 147.461 156.209 147.461C156.358 147.461 156.489 147.447 156.602 147.419V148.269C156.432 148.333 156.205 148.365 155.922 148.365C155.482 148.365 155.135 148.237 154.88 147.982C154.625 147.727 154.498 147.369 154.498 146.909V144.103H153.52V143.199H153.796C154.058 143.199 154.253 143.128 154.381 142.987C154.515 142.838 154.583 142.647 154.583 142.413V141.584H155.497ZM158.936 147.1C159.248 147.419 159.627 147.578 160.073 147.578C160.52 147.578 160.895 147.419 161.2 147.1C161.512 146.774 161.668 146.324 161.668 145.75C161.668 145.183 161.512 144.74 161.2 144.422C160.895 144.096 160.52 143.933 160.073 143.933C159.627 143.933 159.248 144.096 158.936 144.422C158.631 144.74 158.479 145.183 158.479 145.75C158.479 146.324 158.631 146.774 158.936 147.1ZM158.192 143.816C158.688 143.298 159.315 143.04 160.073 143.04C160.832 143.04 161.455 143.298 161.944 143.816C162.44 144.326 162.688 144.971 162.688 145.75C162.688 146.537 162.444 147.189 161.955 147.706C161.466 148.216 160.839 148.471 160.073 148.471C159.308 148.471 158.681 148.216 158.192 147.706C157.703 147.189 157.459 146.537 157.459 145.75C157.459 144.971 157.703 144.326 158.192 143.816ZM168.771 143.965C168.338 143.965 167.97 144.12 167.665 144.432C167.368 144.744 167.219 145.183 167.219 145.75C167.219 146.31 167.368 146.749 167.665 147.068C167.97 147.387 168.342 147.546 168.781 147.546C169.206 147.546 169.529 147.44 169.748 147.228C169.975 147.015 170.128 146.771 170.206 146.494L171.088 146.877C170.946 147.302 170.677 147.674 170.28 147.993C169.89 148.312 169.391 148.471 168.781 148.471C168.037 148.471 167.421 148.213 166.932 147.695C166.443 147.178 166.198 146.53 166.198 145.75C166.198 144.957 166.443 144.308 166.932 143.805C167.421 143.295 168.034 143.04 168.771 143.04C169.394 143.04 169.897 143.199 170.28 143.518C170.67 143.837 170.925 144.22 171.045 144.666L170.142 145.049C170.064 144.751 169.915 144.496 169.695 144.283C169.476 144.071 169.167 143.965 168.771 143.965ZM175.098 143.146V144.209C174.949 144.188 174.804 144.177 174.662 144.177C173.727 144.177 173.259 144.701 173.259 145.75V148.312H172.26V143.199H173.238V144.092C173.549 143.44 174.06 143.114 174.768 143.114C174.882 143.114 174.991 143.125 175.098 143.146ZM176.759 145.229H179.554C179.54 144.847 179.413 144.535 179.172 144.294C178.931 144.046 178.591 143.922 178.151 143.922C177.755 143.922 177.429 144.053 177.174 144.315C176.919 144.57 176.78 144.875 176.759 145.229ZM179.703 146.558L180.564 146.856C180.415 147.33 180.139 147.72 179.735 148.025C179.331 148.322 178.842 148.471 178.268 148.471C177.553 148.471 176.943 148.227 176.44 147.738C175.944 147.242 175.696 146.576 175.696 145.74C175.696 144.96 175.937 144.315 176.419 143.805C176.901 143.295 177.475 143.04 178.141 143.04C178.913 143.04 179.516 143.284 179.948 143.773C180.38 144.255 180.596 144.903 180.596 145.718C180.596 145.846 180.589 145.952 180.575 146.037H176.727C176.734 146.491 176.883 146.863 177.174 147.153C177.471 147.444 177.836 147.589 178.268 147.589C178.998 147.589 179.477 147.245 179.703 146.558ZM181.553 146.941C181.553 146.501 181.694 146.151 181.978 145.888C182.261 145.619 182.637 145.453 183.104 145.389L184.486 145.187C184.748 145.151 184.879 145.024 184.879 144.804C184.879 144.535 184.787 144.315 184.603 144.145C184.419 143.975 184.143 143.89 183.774 143.89C183.434 143.89 183.165 143.986 182.966 144.177C182.768 144.361 182.651 144.609 182.616 144.921L181.659 144.698C181.709 144.209 181.932 143.812 182.329 143.507C182.725 143.196 183.2 143.04 183.753 143.04C184.476 143.04 185.011 143.217 185.358 143.571C185.705 143.918 185.879 144.365 185.879 144.911V147.472C185.879 147.777 185.9 148.057 185.942 148.312H184.965C184.929 148.099 184.911 147.869 184.911 147.621C184.77 147.848 184.561 148.046 184.284 148.216C184.015 148.386 183.675 148.471 183.264 148.471C182.761 148.471 182.35 148.322 182.031 148.025C181.712 147.72 181.553 147.359 181.553 146.941ZM183.402 147.632C183.848 147.632 184.206 147.511 184.476 147.27C184.745 147.029 184.879 146.647 184.879 146.122V145.888L183.317 146.122C183.09 146.158 182.91 146.239 182.775 146.367C182.64 146.494 182.573 146.668 182.573 146.887C182.573 147.086 182.647 147.26 182.796 147.408C182.952 147.557 183.154 147.632 183.402 147.632ZM188.774 141.584V143.199H189.88V144.103H188.774V146.76C188.774 147.001 188.827 147.178 188.934 147.291C189.047 147.405 189.231 147.461 189.486 147.461C189.635 147.461 189.766 147.447 189.88 147.419V148.269C189.71 148.333 189.483 148.365 189.199 148.365C188.76 148.365 188.413 148.237 188.158 147.982C187.903 147.727 187.775 147.369 187.775 146.909V144.103H186.797V143.199H187.074C187.336 143.199 187.531 143.128 187.658 142.987C187.793 142.838 187.86 142.647 187.86 142.413V141.584H188.774ZM191.81 145.229H194.605C194.591 144.847 194.463 144.535 194.223 144.294C193.982 144.046 193.642 143.922 193.202 143.922C192.805 143.922 192.479 144.053 192.224 144.315C191.969 144.57 191.831 144.875 191.81 145.229ZM194.754 146.558L195.615 146.856C195.466 147.33 195.19 147.72 194.786 148.025C194.382 148.322 193.893 148.471 193.319 148.471C192.603 148.471 191.994 148.227 191.491 147.738C190.995 147.242 190.747 146.576 190.747 145.74C190.747 144.96 190.988 144.315 191.47 143.805C191.952 143.295 192.525 143.04 193.192 143.04C193.964 143.04 194.566 143.284 194.998 143.773C195.431 144.255 195.647 144.903 195.647 145.718C195.647 145.846 195.64 145.952 195.626 146.037H191.778C191.785 146.491 191.934 146.863 192.224 147.153C192.522 147.444 192.887 147.589 193.319 147.589C194.049 147.589 194.527 147.245 194.754 146.558ZM203.587 148.312L201.865 145.229H200.738V148.312H199.686V140.776H202.524C203.218 140.776 203.774 140.992 204.192 141.424C204.618 141.849 204.83 142.381 204.83 143.019C204.83 143.564 204.667 144.032 204.341 144.422C204.015 144.804 203.569 145.049 203.002 145.155L204.798 148.312H203.587ZM200.738 144.294H202.332C202.757 144.294 203.101 144.181 203.363 143.954C203.626 143.72 203.757 143.408 203.757 143.019C203.757 142.622 203.626 142.306 203.363 142.073C203.101 141.832 202.757 141.711 202.332 141.711H200.738V144.294ZM205.789 146.941C205.789 146.501 205.931 146.151 206.215 145.888C206.498 145.619 206.874 145.453 207.341 145.389L208.723 145.187C208.985 145.151 209.116 145.024 209.116 144.804C209.116 144.535 209.024 144.315 208.84 144.145C208.656 143.975 208.379 143.89 208.011 143.89C207.671 143.89 207.402 143.986 207.203 144.177C207.005 144.361 206.888 144.609 206.852 144.921L205.896 144.698C205.945 144.209 206.169 143.812 206.565 143.507C206.962 143.196 207.437 143.04 207.99 143.04C208.712 143.04 209.247 143.217 209.595 143.571C209.942 143.918 210.115 144.365 210.115 144.911V147.472C210.115 147.777 210.137 148.057 210.179 148.312H209.201C209.166 148.099 209.148 147.869 209.148 147.621C209.006 147.848 208.797 148.046 208.521 148.216C208.252 148.386 207.912 148.471 207.501 148.471C206.998 148.471 206.587 148.322 206.268 148.025C205.949 147.72 205.789 147.359 205.789 146.941ZM207.639 147.632C208.085 147.632 208.443 147.511 208.712 147.27C208.982 147.029 209.116 146.647 209.116 146.122V145.888L207.554 146.122C207.327 146.158 207.146 146.239 207.012 146.367C206.877 146.494 206.81 146.668 206.81 146.887C206.81 147.086 206.884 147.26 207.033 147.408C207.189 147.557 207.391 147.632 207.639 147.632ZM212.66 148.312H211.672V143.199H212.66V148.312ZM211.651 141.775C211.516 141.633 211.449 141.463 211.449 141.265C211.449 141.066 211.516 140.896 211.651 140.755C211.792 140.613 211.962 140.542 212.161 140.542C212.359 140.542 212.529 140.613 212.671 140.755C212.813 140.889 212.884 141.059 212.884 141.265C212.884 141.463 212.813 141.633 212.671 141.775C212.529 141.91 212.359 141.977 212.161 141.977C211.962 141.977 211.792 141.91 211.651 141.775ZM213.882 146.983L214.785 146.664C214.821 146.941 214.941 147.171 215.147 147.355C215.352 147.532 215.629 147.621 215.976 147.621C216.245 147.621 216.458 147.557 216.614 147.43C216.769 147.295 216.847 147.132 216.847 146.941C216.847 146.601 216.628 146.381 216.188 146.282L215.317 146.09C214.92 146.005 214.608 145.835 214.382 145.58C214.155 145.325 214.041 145.017 214.041 144.655C214.041 144.216 214.219 143.837 214.573 143.518C214.934 143.199 215.363 143.04 215.859 143.04C216.185 143.04 216.475 143.089 216.731 143.189C216.986 143.281 217.184 143.405 217.326 143.561C217.467 143.717 217.574 143.862 217.645 143.996C217.715 144.131 217.769 144.269 217.804 144.411L216.922 144.74C216.908 144.655 216.883 144.574 216.847 144.496C216.812 144.411 216.755 144.319 216.677 144.22C216.607 144.12 216.5 144.042 216.359 143.986C216.217 143.922 216.05 143.89 215.859 143.89C215.611 143.89 215.405 143.957 215.242 144.092C215.087 144.227 215.009 144.386 215.009 144.57C215.009 144.896 215.204 145.102 215.593 145.187L216.422 145.368C216.876 145.467 217.223 145.651 217.464 145.92C217.712 146.182 217.836 146.505 217.836 146.887C217.836 147.291 217.669 147.656 217.336 147.982C217.01 148.308 216.553 148.471 215.965 148.471C215.335 148.471 214.842 148.315 214.488 148.004C214.134 147.685 213.932 147.345 213.882 146.983ZM219.763 145.229H222.558C222.544 144.847 222.416 144.535 222.175 144.294C221.934 144.046 221.594 143.922 221.155 143.922C220.758 143.922 220.432 144.053 220.177 144.315C219.922 144.57 219.784 144.875 219.763 145.229ZM222.707 146.558L223.568 146.856C223.419 147.33 223.143 147.72 222.739 148.025C222.335 148.322 221.846 148.471 221.272 148.471C220.556 148.471 219.947 148.227 219.444 147.738C218.948 147.242 218.7 146.576 218.7 145.74C218.7 144.96 218.941 144.315 219.422 143.805C219.904 143.295 220.478 143.04 221.144 143.04C221.917 143.04 222.519 143.284 222.951 143.773C223.384 144.255 223.6 144.903 223.6 145.718C223.6 145.846 223.593 145.952 223.578 146.037H219.731C219.738 146.491 219.887 146.863 220.177 147.153C220.475 147.444 220.84 147.589 221.272 147.589C222.002 147.589 222.48 147.245 222.707 146.558ZM230.104 144.103H228.871V148.312H227.84V144.103H226.895V143.199H227.84V142.338C227.84 141.793 228 141.364 228.319 141.052C228.638 140.74 229.038 140.585 229.52 140.585C229.825 140.585 230.023 140.62 230.115 140.691V141.584C230.009 141.541 229.864 141.52 229.679 141.52C229.46 141.52 229.268 141.587 229.105 141.722C228.949 141.849 228.871 142.073 228.871 142.391V143.199H230.104V144.103ZM232.02 147.1C232.332 147.419 232.711 147.578 233.158 147.578C233.604 147.578 233.979 147.419 234.284 147.1C234.596 146.774 234.752 146.324 234.752 145.75C234.752 145.183 234.596 144.74 234.284 144.422C233.979 144.096 233.604 143.933 233.158 143.933C232.711 143.933 232.332 144.096 232.02 144.422C231.716 144.74 231.563 145.183 231.563 145.75C231.563 146.324 231.716 146.774 232.02 147.1ZM231.276 143.816C231.772 143.298 232.399 143.04 233.158 143.04C233.916 143.04 234.539 143.298 235.028 143.816C235.524 144.326 235.772 144.971 235.772 145.75C235.772 146.537 235.528 147.189 235.039 147.706C234.55 148.216 233.923 148.471 233.158 148.471C232.392 148.471 231.765 148.216 231.276 147.706C230.787 147.189 230.543 146.537 230.543 145.75C230.543 144.971 230.787 144.326 231.276 143.816ZM239.888 143.146V144.209C239.74 144.188 239.594 144.177 239.453 144.177C238.517 144.177 238.05 144.701 238.05 145.75V148.312H237.051V143.199H238.028V144.092C238.34 143.44 238.85 143.114 239.559 143.114C239.672 143.114 239.782 143.125 239.888 143.146ZM244.886 150.448H243.791L245.067 147.748L242.867 143.199H244.014L245.609 146.728L247.139 143.199H248.213L244.886 150.448ZM250.019 147.1C250.331 147.419 250.71 147.578 251.156 147.578C251.603 147.578 251.978 147.419 252.283 147.1C252.595 146.774 252.75 146.324 252.75 145.75C252.75 145.183 252.595 144.74 252.283 144.422C251.978 144.096 251.603 143.933 251.156 143.933C250.71 143.933 250.331 144.096 250.019 144.422C249.714 144.74 249.562 145.183 249.562 145.75C249.562 146.324 249.714 146.774 250.019 147.1ZM249.275 143.816C249.771 143.298 250.398 143.04 251.156 143.04C251.914 143.04 252.538 143.298 253.027 143.816C253.523 144.326 253.771 144.971 253.771 145.75C253.771 146.537 253.526 147.189 253.037 147.706C252.548 148.216 251.921 148.471 251.156 148.471C250.391 148.471 249.764 148.216 249.275 147.706C248.786 147.189 248.541 146.537 248.541 145.75C248.541 144.971 248.786 144.326 249.275 143.816ZM258.367 147.695C258.232 147.95 258.026 148.145 257.75 148.28C257.474 148.407 257.176 148.471 256.857 148.471C256.276 148.471 255.812 148.28 255.465 147.897C255.118 147.508 254.944 147.015 254.944 146.42V143.199H255.943V146.271C255.943 146.654 256.035 146.969 256.22 147.217C256.411 147.465 256.705 147.589 257.102 147.589C257.499 147.589 257.8 147.472 258.005 147.238C258.211 146.997 258.313 146.678 258.313 146.282V143.199H259.313V147.366C259.313 147.699 259.33 148.014 259.366 148.312H258.409C258.381 148.156 258.367 147.95 258.367 147.695ZM263.855 143.146V144.209C263.707 144.188 263.561 144.177 263.42 144.177C262.484 144.177 262.017 144.701 262.017 145.75V148.312H261.017V143.199H261.995V144.092C262.307 143.44 262.817 143.114 263.526 143.114C263.639 143.114 263.749 143.125 263.855 143.146ZM267.099 146.983L268.003 146.664C268.038 146.941 268.159 147.171 268.364 147.355C268.57 147.532 268.846 147.621 269.193 147.621C269.462 147.621 269.675 147.557 269.831 147.43C269.987 147.295 270.065 147.132 270.065 146.941C270.065 146.601 269.845 146.381 269.406 146.282L268.534 146.09C268.137 146.005 267.826 145.835 267.599 145.58C267.372 145.325 267.259 145.017 267.259 144.655C267.259 144.216 267.436 143.837 267.79 143.518C268.151 143.199 268.58 143.04 269.076 143.04C269.402 143.04 269.693 143.089 269.948 143.189C270.203 143.281 270.401 143.405 270.543 143.561C270.685 143.717 270.791 143.862 270.862 143.996C270.933 144.131 270.986 144.269 271.021 144.411L270.139 144.74C270.125 144.655 270.1 144.574 270.065 144.496C270.029 144.411 269.973 144.319 269.895 144.22C269.824 144.12 269.717 144.042 269.576 143.986C269.434 143.922 269.268 143.89 269.076 143.89C268.828 143.89 268.623 143.957 268.46 144.092C268.304 144.227 268.226 144.386 268.226 144.57C268.226 144.896 268.421 145.102 268.81 145.187L269.64 145.368C270.093 145.467 270.44 145.651 270.681 145.92C270.929 146.182 271.053 146.505 271.053 146.887C271.053 147.291 270.887 147.656 270.554 147.982C270.228 148.308 269.771 148.471 269.182 148.471C268.552 148.471 268.059 148.315 267.705 148.004C267.351 147.685 267.149 147.345 267.099 146.983ZM273.723 141.584V143.199H274.828V144.103H273.723V146.76C273.723 147.001 273.776 147.178 273.882 147.291C273.995 147.405 274.18 147.461 274.435 147.461C274.584 147.461 274.715 147.447 274.828 147.419V148.269C274.658 148.333 274.431 148.365 274.148 148.365C273.708 148.365 273.361 148.237 273.106 147.982C272.851 147.727 272.724 147.369 272.724 146.909V144.103H271.746V143.199H272.022C272.284 143.199 272.479 143.128 272.607 142.987C272.741 142.838 272.809 142.647 272.809 142.413V141.584H273.723ZM275.843 146.941C275.843 146.501 275.984 146.151 276.268 145.888C276.551 145.619 276.927 145.453 277.395 145.389L278.776 145.187C279.039 145.151 279.17 145.024 279.17 144.804C279.17 144.535 279.077 144.315 278.893 144.145C278.709 143.975 278.433 143.89 278.064 143.89C277.724 143.89 277.455 143.986 277.256 144.177C277.058 144.361 276.941 144.609 276.906 144.921L275.949 144.698C275.999 144.209 276.222 143.812 276.619 143.507C277.015 143.196 277.49 143.04 278.043 143.04C278.766 143.04 279.301 143.217 279.648 143.571C279.995 143.918 280.169 144.365 280.169 144.911V147.472C280.169 147.777 280.19 148.057 280.232 148.312H279.255C279.219 148.099 279.201 147.869 279.201 147.621C279.06 147.848 278.851 148.046 278.574 148.216C278.305 148.386 277.965 148.471 277.554 148.471C277.051 148.471 276.64 148.322 276.321 148.025C276.002 147.72 275.843 147.359 275.843 146.941ZM277.692 147.632C278.139 147.632 278.496 147.511 278.766 147.27C279.035 147.029 279.17 146.647 279.17 146.122V145.888L277.607 146.122C277.38 146.158 277.2 146.239 277.065 146.367C276.93 146.494 276.863 146.668 276.863 146.887C276.863 147.086 276.938 147.26 277.086 147.408C277.242 147.557 277.444 147.632 277.692 147.632ZM284.563 143.146V144.209C284.414 144.188 284.269 144.177 284.127 144.177C283.192 144.177 282.724 144.701 282.724 145.75V148.312H281.725V143.199H282.703V144.092C283.015 143.44 283.525 143.114 284.234 143.114C284.347 143.114 284.457 143.125 284.563 143.146ZM287.237 141.584V143.199H288.343V144.103H287.237V146.76C287.237 147.001 287.29 147.178 287.397 147.291C287.51 147.405 287.694 147.461 287.949 147.461C288.098 147.461 288.229 147.447 288.343 147.419V148.269C288.172 148.333 287.946 148.365 287.662 148.365C287.223 148.365 286.876 148.237 286.621 147.982C286.366 147.727 286.238 147.369 286.238 146.909V144.103H285.26V143.199H285.536C285.799 143.199 285.994 143.128 286.121 142.987C286.256 142.838 286.323 142.647 286.323 142.413V141.584H287.237ZM293.046 147.695C292.911 147.95 292.705 148.145 292.429 148.28C292.153 148.407 291.855 148.471 291.536 148.471C290.955 148.471 290.491 148.28 290.144 147.897C289.797 147.508 289.623 147.015 289.623 146.42V143.199H290.622V146.271C290.622 146.654 290.714 146.969 290.898 147.217C291.09 147.465 291.384 147.589 291.781 147.589C292.177 147.589 292.479 147.472 292.684 147.238C292.89 146.997 292.992 146.678 292.992 146.282V143.199H293.991V147.366C293.991 147.699 294.009 148.014 294.045 148.312H293.088C293.06 148.156 293.046 147.95 293.046 147.695ZM296.685 150.331H295.696V143.199H296.664V143.996C296.812 143.727 297.036 143.507 297.333 143.337C297.631 143.167 297.978 143.082 298.375 143.082C299.112 143.082 299.686 143.334 300.097 143.837C300.515 144.34 300.724 144.978 300.724 145.75C300.724 146.53 300.508 147.174 300.076 147.685C299.65 148.195 299.073 148.45 298.343 148.45C297.967 148.45 297.634 148.372 297.344 148.216C297.053 148.06 296.834 147.862 296.685 147.621V150.331ZM299.704 145.75C299.704 145.233 299.565 144.808 299.289 144.475C299.02 144.135 298.655 143.965 298.194 143.965C297.741 143.965 297.372 144.135 297.089 144.475C296.812 144.808 296.674 145.233 296.674 145.75C296.674 146.282 296.812 146.717 297.089 147.058C297.372 147.391 297.741 147.557 298.194 147.557C298.648 147.557 299.013 147.391 299.289 147.058C299.565 146.717 299.704 146.282 299.704 145.75ZM301.948 148.152C301.806 148.011 301.735 147.837 301.735 147.632C301.735 147.426 301.806 147.252 301.948 147.111C302.089 146.962 302.263 146.887 302.468 146.887C302.674 146.887 302.847 146.962 302.989 147.111C303.138 147.252 303.212 147.426 303.212 147.632C303.212 147.837 303.138 148.011 302.989 148.152C302.847 148.294 302.674 148.365 302.468 148.365C302.263 148.365 302.089 148.294 301.948 148.152Z" fill="black"/>
<rect opacity="0.6" x="93.4053" y="230.27" width="349.995" height="48.5893" rx="6.07367" fill="#EEF3FD" fill-opacity="0.55" stroke="black" stroke-width="0.759208" stroke-linecap="square"/>
<path d="M115.741 258.213H114.657L110.586 252.069V258.213H109.544V250.677H110.937L114.7 256.459V250.677H115.741V258.213ZM117.174 256.842C117.174 256.402 117.316 256.052 117.599 255.789C117.883 255.52 118.258 255.354 118.726 255.29L120.108 255.088C120.37 255.053 120.501 254.925 120.501 254.705C120.501 254.436 120.409 254.216 120.225 254.046C120.04 253.876 119.764 253.791 119.396 253.791C119.055 253.791 118.786 253.887 118.588 254.078C118.389 254.262 118.272 254.51 118.237 254.822L117.28 254.599C117.33 254.11 117.553 253.713 117.95 253.409C118.347 253.097 118.822 252.941 119.374 252.941C120.097 252.941 120.632 253.118 120.979 253.472C121.326 253.82 121.5 254.266 121.5 254.812V257.373C121.5 257.678 121.521 257.958 121.564 258.213H120.586C120.551 258 120.533 257.77 120.533 257.522C120.391 257.749 120.182 257.947 119.906 258.117C119.636 258.287 119.296 258.372 118.885 258.372C118.382 258.372 117.971 258.224 117.652 257.926C117.333 257.621 117.174 257.26 117.174 256.842ZM119.023 257.533C119.47 257.533 119.828 257.412 120.097 257.171C120.366 256.93 120.501 256.548 120.501 256.023V255.789L118.938 256.023C118.712 256.059 118.531 256.14 118.396 256.268C118.262 256.395 118.194 256.569 118.194 256.789C118.194 256.987 118.269 257.161 118.418 257.309C118.574 257.458 118.775 257.533 119.023 257.533ZM124.045 258.213H123.057V253.1H124.013V253.781C124.169 253.511 124.389 253.306 124.672 253.164C124.956 253.022 125.253 252.952 125.565 252.952C125.898 252.952 126.203 253.033 126.479 253.196C126.755 253.359 126.961 253.6 127.095 253.919C127.45 253.274 128.02 252.952 128.807 252.952C129.296 252.952 129.71 253.118 130.05 253.451C130.398 253.784 130.571 254.266 130.571 254.897V258.213H129.583V255.003C129.583 254.649 129.491 254.365 129.306 254.153C129.129 253.94 128.86 253.834 128.499 253.834C128.151 253.834 127.868 253.958 127.648 254.206C127.429 254.447 127.319 254.751 127.319 255.12V258.213H126.32V255.003C126.32 254.649 126.227 254.365 126.043 254.153C125.866 253.94 125.597 253.834 125.235 253.834C124.881 253.834 124.594 253.954 124.374 254.195C124.155 254.436 124.045 254.748 124.045 255.131V258.213ZM132.818 255.131H135.614C135.6 254.748 135.472 254.436 135.231 254.195C134.99 253.947 134.65 253.823 134.211 253.823C133.814 253.823 133.488 253.954 133.233 254.216C132.978 254.472 132.84 254.776 132.818 255.131ZM135.763 256.459L136.623 256.757C136.475 257.231 136.198 257.621 135.794 257.926C135.391 258.224 134.902 258.372 134.328 258.372C133.612 258.372 133.003 258.128 132.499 257.639C132.003 257.143 131.755 256.477 131.755 255.641C131.755 254.861 131.996 254.216 132.478 253.706C132.96 253.196 133.534 252.941 134.2 252.941C134.972 252.941 135.575 253.185 136.007 253.674C136.439 254.156 136.655 254.805 136.655 255.619C136.655 255.747 136.648 255.853 136.634 255.938H132.786C132.794 256.392 132.942 256.764 133.233 257.054C133.53 257.345 133.895 257.49 134.328 257.49C135.057 257.49 135.536 257.146 135.763 256.459Z" fill="black"/>
<path d="M99.734 218.493H94.4985V209.881H99.734V210.986H95.689V213.634H99.3575V214.752H95.689V217.388H99.734V218.493ZM102.399 215.116V218.493H101.257V212.65H102.375V213.489C102.764 212.816 103.363 212.48 104.173 212.48C104.845 212.48 105.359 212.695 105.715 213.124C106.08 213.553 106.262 214.108 106.262 214.788V218.493H105.12V214.983C105.12 214.003 104.667 213.513 103.76 213.513C103.331 213.513 102.994 213.667 102.752 213.974C102.517 214.274 102.399 214.655 102.399 215.116ZM109.609 210.804V212.65H110.872V213.683H109.609V216.72C109.609 216.995 109.67 217.198 109.791 217.327C109.921 217.457 110.131 217.521 110.423 217.521C110.593 217.521 110.743 217.505 110.872 217.473V218.445C110.678 218.518 110.419 218.554 110.095 218.554C109.593 218.554 109.196 218.408 108.904 218.117C108.613 217.825 108.467 217.416 108.467 216.89V213.683H107.35V212.65H107.665C107.965 212.65 108.188 212.569 108.333 212.407C108.487 212.237 108.564 212.019 108.564 211.752V210.804H109.609ZM113.078 214.971H116.273C116.257 214.533 116.111 214.177 115.836 213.902C115.56 213.618 115.171 213.476 114.669 213.476C114.216 213.476 113.843 213.626 113.552 213.926C113.26 214.217 113.102 214.566 113.078 214.971ZM116.443 216.489L117.427 216.829C117.257 217.372 116.941 217.817 116.479 218.165C116.018 218.505 115.459 218.675 114.803 218.675C113.985 218.675 113.289 218.396 112.714 217.837C112.147 217.27 111.863 216.509 111.863 215.554C111.863 214.663 112.139 213.926 112.689 213.343C113.24 212.76 113.896 212.468 114.657 212.468C115.54 212.468 116.228 212.748 116.722 213.306C117.216 213.857 117.463 214.598 117.463 215.529C117.463 215.675 117.455 215.797 117.439 215.894H113.042C113.05 216.412 113.22 216.837 113.552 217.169C113.892 217.501 114.309 217.667 114.803 217.667C115.637 217.667 116.184 217.275 116.443 216.489ZM122.164 212.59V213.804C121.994 213.78 121.828 213.768 121.666 213.768C120.597 213.768 120.063 214.367 120.063 215.566V218.493H118.921V212.65H120.038V213.671C120.395 212.926 120.978 212.553 121.788 212.553C121.917 212.553 122.043 212.565 122.164 212.59ZM130.998 218.493L129.03 214.971H127.742V218.493H126.539V209.881H129.783C130.576 209.881 131.212 210.128 131.69 210.622C132.176 211.108 132.419 211.715 132.419 212.444C132.419 213.067 132.233 213.602 131.86 214.047C131.488 214.485 130.977 214.764 130.329 214.886L132.382 218.493H130.998ZM127.742 213.902H129.564C130.05 213.902 130.443 213.772 130.742 213.513C131.042 213.246 131.192 212.889 131.192 212.444C131.192 211.99 131.042 211.63 130.742 211.363C130.443 211.087 130.05 210.95 129.564 210.95H127.742V213.902ZM133.515 216.926C133.515 216.424 133.677 216.023 134.001 215.724C134.325 215.416 134.754 215.226 135.289 215.153L136.868 214.922C137.167 214.881 137.317 214.736 137.317 214.485C137.317 214.177 137.212 213.926 137.001 213.732C136.791 213.537 136.475 213.44 136.054 213.44C135.665 213.44 135.358 213.549 135.131 213.768C134.904 213.979 134.77 214.262 134.73 214.618L133.637 214.363C133.693 213.804 133.948 213.351 134.402 213.003C134.855 212.646 135.398 212.468 136.03 212.468C136.856 212.468 137.467 212.671 137.864 213.076C138.261 213.472 138.459 213.983 138.459 214.606V217.534C138.459 217.882 138.483 218.202 138.532 218.493H137.414C137.374 218.25 137.354 217.987 137.354 217.704C137.192 217.963 136.953 218.19 136.637 218.384C136.329 218.578 135.941 218.675 135.471 218.675C134.896 218.675 134.426 218.505 134.062 218.165C133.697 217.817 133.515 217.404 133.515 216.926ZM135.629 217.716C136.139 217.716 136.548 217.578 136.856 217.303C137.163 217.028 137.317 216.59 137.317 215.991V215.724L135.532 215.991C135.273 216.031 135.066 216.125 134.912 216.27C134.758 216.416 134.681 216.614 134.681 216.866C134.681 217.092 134.766 217.291 134.936 217.461C135.115 217.631 135.345 217.716 135.629 217.716ZM141.368 218.493H140.238V212.65H141.368V218.493ZM140.214 211.023C140.06 210.861 139.983 210.666 139.983 210.44C139.983 210.213 140.06 210.018 140.214 209.857C140.376 209.695 140.57 209.614 140.797 209.614C141.024 209.614 141.218 209.695 141.38 209.857C141.542 210.01 141.623 210.205 141.623 210.44C141.623 210.666 141.542 210.861 141.38 211.023C141.218 211.177 141.024 211.253 140.797 211.253C140.57 211.253 140.376 211.177 140.214 211.023ZM142.764 216.975L143.796 216.61C143.837 216.926 143.974 217.189 144.209 217.4C144.444 217.602 144.76 217.704 145.157 217.704C145.465 217.704 145.707 217.631 145.886 217.485C146.064 217.331 146.153 217.145 146.153 216.926C146.153 216.538 145.902 216.287 145.4 216.173L144.404 215.954C143.95 215.857 143.594 215.663 143.335 215.371C143.076 215.08 142.946 214.728 142.946 214.315C142.946 213.813 143.148 213.379 143.553 213.015C143.966 212.65 144.456 212.468 145.023 212.468C145.396 212.468 145.728 212.525 146.019 212.638C146.311 212.744 146.538 212.885 146.7 213.063C146.861 213.242 146.983 213.408 147.064 213.561C147.145 213.715 147.206 213.873 147.246 214.035L146.238 214.412C146.222 214.315 146.193 214.221 146.153 214.132C146.112 214.035 146.048 213.93 145.959 213.817C145.878 213.703 145.756 213.614 145.594 213.549C145.432 213.476 145.242 213.44 145.023 213.44C144.74 213.44 144.505 213.517 144.319 213.671C144.14 213.825 144.051 214.007 144.051 214.217C144.051 214.59 144.274 214.825 144.72 214.922L145.667 215.128C146.185 215.242 146.582 215.452 146.857 215.76C147.141 216.06 147.283 216.428 147.283 216.866C147.283 217.327 147.092 217.744 146.712 218.117C146.339 218.489 145.817 218.675 145.145 218.675C144.424 218.675 143.861 218.497 143.456 218.141C143.051 217.777 142.82 217.388 142.764 216.975ZM149.484 214.971H152.679C152.663 214.533 152.517 214.177 152.242 213.902C151.967 213.618 151.578 213.476 151.076 213.476C150.622 213.476 150.25 213.626 149.958 213.926C149.667 214.217 149.509 214.566 149.484 214.971ZM152.849 216.489L153.833 216.829C153.663 217.372 153.347 217.817 152.886 218.165C152.424 218.505 151.865 218.675 151.209 218.675C150.391 218.675 149.695 218.396 149.12 217.837C148.553 217.27 148.27 216.509 148.27 215.554C148.27 214.663 148.545 213.926 149.096 213.343C149.646 212.76 150.302 212.468 151.064 212.468C151.946 212.468 152.635 212.748 153.129 213.306C153.623 213.857 153.87 214.598 153.87 215.529C153.87 215.675 153.862 215.797 153.845 215.894H149.448C149.456 216.412 149.626 216.837 149.958 217.169C150.298 217.501 150.715 217.667 151.209 217.667C152.044 217.667 152.59 217.275 152.849 216.489ZM159.506 215.116V218.493H158.364V212.65H159.482V213.489C159.87 212.816 160.47 212.48 161.279 212.48C161.952 212.48 162.466 212.695 162.822 213.124C163.187 213.553 163.369 214.108 163.369 214.788V218.493H162.227V214.983C162.227 214.003 161.773 213.513 160.866 213.513C160.437 213.513 160.101 213.667 159.858 213.974C159.623 214.274 159.506 214.655 159.506 215.116ZM164.821 216.926C164.821 216.424 164.983 216.023 165.307 215.724C165.63 215.416 166.06 215.226 166.594 215.153L168.173 214.922C168.473 214.881 168.623 214.736 168.623 214.485C168.623 214.177 168.518 213.926 168.307 213.732C168.096 213.537 167.781 213.44 167.359 213.44C166.971 213.44 166.663 213.549 166.436 213.768C166.21 213.979 166.076 214.262 166.035 214.618L164.942 214.363C164.999 213.804 165.254 213.351 165.707 213.003C166.161 212.646 166.704 212.468 167.335 212.468C168.161 212.468 168.773 212.671 169.169 213.076C169.566 213.472 169.765 213.983 169.765 214.606V217.534C169.765 217.882 169.789 218.202 169.838 218.493H168.72C168.679 218.25 168.659 217.987 168.659 217.704C168.497 217.963 168.258 218.19 167.943 218.384C167.635 218.578 167.246 218.675 166.776 218.675C166.201 218.675 165.732 218.505 165.367 218.165C165.003 217.817 164.821 217.404 164.821 216.926ZM166.934 217.716C167.445 217.716 167.853 217.578 168.161 217.303C168.469 217.028 168.623 216.59 168.623 215.991V215.724L166.837 215.991C166.578 216.031 166.371 216.125 166.218 216.27C166.064 216.416 165.987 216.614 165.987 216.866C165.987 217.092 166.072 217.291 166.242 217.461C166.42 217.631 166.651 217.716 166.934 217.716ZM172.673 218.493H171.543V212.65H172.637V213.428C172.815 213.12 173.066 212.885 173.39 212.723C173.714 212.561 174.054 212.48 174.41 212.48C174.791 212.48 175.139 212.573 175.455 212.76C175.771 212.946 176.006 213.221 176.159 213.586C176.564 212.849 177.216 212.48 178.115 212.48C178.674 212.48 179.148 212.671 179.536 213.051C179.933 213.432 180.132 213.983 180.132 214.703V218.493H179.002V214.825C179.002 214.42 178.897 214.096 178.686 213.853C178.484 213.61 178.176 213.489 177.763 213.489C177.366 213.489 177.042 213.63 176.791 213.914C176.54 214.189 176.415 214.537 176.415 214.958V218.493H175.273V214.825C175.273 214.42 175.167 214.096 174.957 213.853C174.754 213.61 174.447 213.489 174.034 213.489C173.629 213.489 173.301 213.626 173.05 213.902C172.799 214.177 172.673 214.533 172.673 214.971V218.493ZM182.7 214.971H185.895C185.878 214.533 185.733 214.177 185.457 213.902C185.182 213.618 184.793 213.476 184.291 213.476C183.838 213.476 183.465 213.626 183.174 213.926C182.882 214.217 182.724 214.566 182.7 214.971ZM186.065 216.489L187.049 216.829C186.879 217.372 186.563 217.817 186.101 218.165C185.639 218.505 185.081 218.675 184.425 218.675C183.607 218.675 182.91 218.396 182.335 217.837C181.769 217.27 181.485 216.509 181.485 215.554C181.485 214.663 181.76 213.926 182.311 213.343C182.862 212.76 183.518 212.468 184.279 212.468C185.162 212.468 185.85 212.748 186.344 213.306C186.838 213.857 187.085 214.598 187.085 215.529C187.085 215.675 187.077 215.797 187.061 215.894H182.663C182.671 216.412 182.842 216.837 183.174 217.169C183.514 217.501 183.931 217.667 184.425 217.667C185.259 217.667 185.806 217.275 186.065 216.489Z" fill="black"/>
<path d="M99.9891 321.162L98.9202 321.539C98.8635 321.167 98.6813 320.83 98.3735 320.531C98.0658 320.223 97.6406 320.069 97.0981 320.069C96.6203 320.069 96.2235 320.207 95.9076 320.482C95.5918 320.758 95.4339 321.098 95.4339 321.503C95.4339 321.818 95.527 322.086 95.7133 322.304C95.9076 322.523 96.183 322.673 96.5393 322.754L97.8269 323.033C98.5395 323.187 99.0902 323.479 99.4789 323.908C99.8677 324.329 100.062 324.843 100.062 325.45C100.062 326.147 99.7867 326.746 99.236 327.248C98.6853 327.75 97.9686 328.001 97.0859 328.001C96.1222 328.001 95.365 327.75 94.8144 327.248C94.2718 326.738 93.956 326.135 93.8669 325.438L95.0087 325.074C95.0573 325.592 95.2598 326.03 95.6161 326.386C95.9724 326.742 96.4583 326.92 97.0738 326.92C97.6406 326.92 98.0779 326.791 98.3857 326.532C98.6934 326.272 98.8473 325.944 98.8473 325.548C98.8473 325.224 98.738 324.944 98.5193 324.709C98.3006 324.467 97.9808 324.301 97.5597 324.211L96.3328 323.944C95.693 323.807 95.1828 323.535 94.8022 323.13C94.4216 322.725 94.2313 322.211 94.2313 321.588C94.2313 320.907 94.5066 320.312 95.0573 319.802C95.6161 319.284 96.2882 319.025 97.0738 319.025C97.9565 319.025 98.6327 319.239 99.1024 319.668C99.5721 320.098 99.8677 320.596 99.9891 321.162ZM102.2 324.296H105.395C105.379 323.859 105.233 323.503 104.957 323.228C104.682 322.944 104.293 322.802 103.791 322.802C103.338 322.802 102.965 322.952 102.674 323.252C102.382 323.543 102.224 323.892 102.2 324.296ZM105.565 325.815L106.549 326.155C106.379 326.698 106.063 327.143 105.601 327.491C105.14 327.831 104.581 328.001 103.925 328.001C103.107 328.001 102.411 327.722 101.836 327.163C101.269 326.596 100.985 325.835 100.985 324.88C100.985 323.989 101.261 323.252 101.811 322.669C102.362 322.086 103.018 321.794 103.779 321.794C104.662 321.794 105.35 322.074 105.844 322.632C106.338 323.183 106.585 323.924 106.585 324.855C106.585 325.001 106.577 325.123 106.561 325.22H102.164C102.172 325.738 102.342 326.163 102.674 326.495C103.014 326.827 103.431 326.993 103.925 326.993C104.759 326.993 105.306 326.6 105.565 325.815ZM109.185 327.819H108.043V319.025H109.185V327.819ZM111.868 324.296H115.063C115.047 323.859 114.901 323.503 114.626 323.228C114.35 322.944 113.961 322.802 113.459 322.802C113.006 322.802 112.633 322.952 112.342 323.252C112.05 323.543 111.892 323.892 111.868 324.296ZM115.233 325.815L116.217 326.155C116.047 326.698 115.731 327.143 115.269 327.491C114.808 327.831 114.249 328.001 113.593 328.001C112.775 328.001 112.079 327.722 111.504 327.163C110.937 326.596 110.653 325.835 110.653 324.88C110.653 323.989 110.929 323.252 111.479 322.669C112.03 322.086 112.686 321.794 113.447 321.794C114.33 321.794 115.018 322.074 115.512 322.632C116.006 323.183 116.253 323.924 116.253 324.855C116.253 325.001 116.245 325.123 116.229 325.22H111.832C111.84 325.738 112.01 326.163 112.342 326.495C112.682 326.827 113.099 326.993 113.593 326.993C114.427 326.993 114.974 326.6 115.233 325.815ZM120.165 322.851C119.671 322.851 119.25 323.029 118.901 323.385C118.561 323.742 118.391 324.244 118.391 324.892C118.391 325.531 118.561 326.034 118.901 326.398C119.25 326.762 119.675 326.945 120.177 326.945C120.663 326.945 121.031 326.823 121.282 326.58C121.541 326.337 121.715 326.058 121.805 325.742L122.813 326.179C122.651 326.665 122.343 327.09 121.89 327.455C121.444 327.819 120.873 328.001 120.177 328.001C119.326 328.001 118.622 327.706 118.063 327.115C117.504 326.523 117.225 325.783 117.225 324.892C117.225 323.985 117.504 323.244 118.063 322.669C118.622 322.086 119.322 321.794 120.165 321.794C120.877 321.794 121.452 321.976 121.89 322.341C122.335 322.705 122.626 323.142 122.764 323.653L121.732 324.09C121.643 323.75 121.472 323.458 121.221 323.215C120.97 322.972 120.618 322.851 120.165 322.851ZM125.683 320.13V321.976H126.946V323.009H125.683V326.046C125.683 326.321 125.744 326.523 125.865 326.653C125.995 326.783 126.205 326.847 126.497 326.847C126.667 326.847 126.817 326.831 126.946 326.799V327.771C126.752 327.844 126.493 327.88 126.169 327.88C125.667 327.88 125.27 327.734 124.978 327.443C124.687 327.151 124.541 326.742 124.541 326.216V323.009H123.423V321.976H123.739C124.039 321.976 124.262 321.895 124.407 321.733C124.561 321.563 124.638 321.345 124.638 321.077V320.13H125.683ZM137.119 321.162L136.05 321.539C135.994 321.167 135.811 320.83 135.504 320.531C135.196 320.223 134.771 320.069 134.228 320.069C133.75 320.069 133.353 320.207 133.038 320.482C132.722 320.758 132.564 321.098 132.564 321.503C132.564 321.818 132.657 322.086 132.843 322.304C133.038 322.523 133.313 322.673 133.669 322.754L134.957 323.033C135.67 323.187 136.22 323.479 136.609 323.908C136.998 324.329 137.192 324.843 137.192 325.45C137.192 326.147 136.917 326.746 136.366 327.248C135.815 327.75 135.099 328.001 134.216 328.001C133.252 328.001 132.495 327.75 131.944 327.248C131.402 326.738 131.086 326.135 130.997 325.438L132.139 325.074C132.187 325.592 132.39 326.03 132.746 326.386C133.102 326.742 133.588 326.92 134.204 326.92C134.771 326.92 135.208 326.791 135.516 326.532C135.823 326.272 135.977 325.944 135.977 325.548C135.977 325.224 135.868 324.944 135.649 324.709C135.431 324.467 135.111 324.301 134.69 324.211L133.463 323.944C132.823 323.807 132.313 323.535 131.932 323.13C131.552 322.725 131.361 322.211 131.361 321.588C131.361 320.907 131.637 320.312 132.187 319.802C132.746 319.284 133.418 319.025 134.204 319.025C135.087 319.025 135.763 319.239 136.232 319.668C136.702 320.098 136.998 320.596 137.119 321.162ZM139.79 324.382V327.819H138.648V319.025H139.79V322.657C140.179 322.09 140.77 321.806 141.564 321.806C142.236 321.806 142.75 322.021 143.106 322.45C143.471 322.879 143.653 323.434 143.653 324.114V327.819H142.511V324.309C142.511 323.329 142.058 322.839 141.151 322.839C140.73 322.839 140.402 322.985 140.167 323.276C139.932 323.56 139.806 323.928 139.79 324.382ZM145.105 326.252C145.105 325.75 145.267 325.349 145.591 325.05C145.915 324.742 146.344 324.552 146.878 324.479L148.458 324.248C148.757 324.207 148.907 324.062 148.907 323.811C148.907 323.503 148.802 323.252 148.591 323.057C148.381 322.863 148.065 322.766 147.644 322.766C147.255 322.766 146.947 322.875 146.721 323.094C146.494 323.304 146.36 323.588 146.32 323.944L145.226 323.689C145.283 323.13 145.538 322.677 145.992 322.329C146.445 321.972 146.988 321.794 147.619 321.794C148.446 321.794 149.057 321.997 149.454 322.402C149.851 322.798 150.049 323.309 150.049 323.932V326.86C150.049 327.208 150.073 327.528 150.122 327.819H149.004C148.964 327.576 148.944 327.313 148.944 327.03C148.782 327.289 148.543 327.516 148.227 327.71C147.919 327.904 147.53 328.001 147.061 328.001C146.486 328.001 146.016 327.831 145.652 327.491C145.287 327.143 145.105 326.73 145.105 326.252ZM147.219 327.042C147.729 327.042 148.138 326.904 148.446 326.629C148.753 326.353 148.907 325.916 148.907 325.317V325.05L147.121 325.317C146.862 325.357 146.656 325.45 146.502 325.596C146.348 325.742 146.271 325.94 146.271 326.191C146.271 326.418 146.356 326.617 146.526 326.787C146.704 326.957 146.935 327.042 147.219 327.042ZM155.071 321.916V323.13C154.901 323.106 154.735 323.094 154.573 323.094C153.504 323.094 152.97 323.693 152.97 324.892V327.819H151.828V321.976H152.945V322.997C153.302 322.252 153.885 321.879 154.695 321.879C154.824 321.879 154.95 321.891 155.071 321.916ZM156.97 324.296H160.165C160.148 323.859 160.003 323.503 159.727 323.228C159.452 322.944 159.063 322.802 158.561 322.802C158.108 322.802 157.735 322.952 157.444 323.252C157.152 323.543 156.994 323.892 156.97 324.296ZM160.335 325.815L161.319 326.155C161.148 326.698 160.833 327.143 160.371 327.491C159.909 327.831 159.351 328.001 158.695 328.001C157.877 328.001 157.18 327.722 156.605 327.163C156.039 326.596 155.755 325.835 155.755 324.88C155.755 323.989 156.03 323.252 156.581 322.669C157.132 322.086 157.788 321.794 158.549 321.794C159.432 321.794 160.12 322.074 160.614 322.632C161.108 323.183 161.355 323.924 161.355 324.855C161.355 325.001 161.347 325.123 161.331 325.22H156.933C156.941 325.738 157.112 326.163 157.444 326.495C157.784 326.827 158.201 326.993 158.695 326.993C159.529 326.993 160.075 326.6 160.335 325.815ZM171.947 320.312H169.068V327.819H167.878V320.312H164.999V319.207H171.947V320.312ZM173.642 330.261H172.391L173.848 327.175L171.334 321.976H172.646L174.468 326.009L176.217 321.976H177.444L173.642 330.261ZM179.672 330.127H178.542V321.976H179.648V322.887C179.818 322.58 180.073 322.329 180.413 322.134C180.753 321.94 181.15 321.843 181.604 321.843C182.446 321.843 183.102 322.13 183.571 322.705C184.049 323.28 184.288 324.009 184.288 324.892C184.288 325.783 184.041 326.519 183.547 327.103C183.061 327.686 182.401 327.977 181.567 327.977C181.138 327.977 180.757 327.888 180.425 327.71C180.093 327.532 179.842 327.305 179.672 327.03V330.127ZM183.122 324.892C183.122 324.301 182.964 323.815 182.648 323.434C182.34 323.045 181.923 322.851 181.397 322.851C180.879 322.851 180.458 323.045 180.134 323.434C179.818 323.815 179.66 324.301 179.66 324.892C179.66 325.499 179.818 325.997 180.134 326.386C180.458 326.766 180.879 326.957 181.397 326.957C181.915 326.957 182.332 326.766 182.648 326.386C182.964 325.997 183.122 325.499 183.122 324.892ZM186.484 324.296H189.679C189.663 323.859 189.517 323.503 189.241 323.228C188.966 322.944 188.577 322.802 188.075 322.802C187.622 322.802 187.249 322.952 186.958 323.252C186.666 323.543 186.508 323.892 186.484 324.296ZM189.849 325.815L190.833 326.155C190.663 326.698 190.347 327.143 189.885 327.491C189.424 327.831 188.865 328.001 188.209 328.001C187.391 328.001 186.695 327.722 186.12 327.163C185.553 326.596 185.269 325.835 185.269 324.88C185.269 323.989 185.545 323.252 186.095 322.669C186.646 322.086 187.302 321.794 188.063 321.794C188.946 321.794 189.634 322.074 190.128 322.632C190.622 323.183 190.869 323.924 190.869 324.855C190.869 325.001 190.861 325.123 190.845 325.22H186.448C186.456 325.738 186.626 326.163 186.958 326.495C187.298 326.827 187.715 326.993 188.209 326.993C189.043 326.993 189.59 326.6 189.849 325.815Z" fill="black"/>
<rect opacity="0.6" x="93.4053" y="339.596" width="349.995" height="48.5893" rx="6.07367" fill="#EEF3FD" fill-opacity="0.76" stroke="black" stroke-width="0.759208" stroke-linecap="square"/>
<path d="M115.743 367.539H114.659L110.588 361.395V367.539H109.546V360.003H110.939L114.701 365.785V360.003H115.743V367.539ZM118.195 364.457H120.991C120.976 364.074 120.849 363.762 120.608 363.521C120.367 363.273 120.027 363.149 119.588 363.149C119.191 363.149 118.865 363.28 118.61 363.542C118.355 363.798 118.216 364.102 118.195 364.457ZM121.139 365.785L122 366.083C121.851 366.558 121.575 366.947 121.171 367.252C120.767 367.55 120.278 367.698 119.704 367.698C118.989 367.698 118.379 367.454 117.876 366.965C117.38 366.469 117.132 365.803 117.132 364.967C117.132 364.187 117.373 363.542 117.855 363.032C118.337 362.522 118.911 362.267 119.577 362.267C120.349 362.267 120.952 362.511 121.384 363C121.816 363.482 122.032 364.131 122.032 364.945C122.032 365.073 122.025 365.179 122.011 365.264H118.163C118.17 365.718 118.319 366.09 118.61 366.38C118.907 366.671 119.272 366.816 119.704 366.816C120.434 366.816 120.913 366.473 121.139 365.785ZM126.136 362.426H127.167L128.496 366.274L129.622 362.426H130.675L129.017 367.539H127.986L126.625 363.649L125.296 367.539H124.244L122.565 362.426H123.66L124.807 366.274L126.136 362.426ZM139.252 361.714L138.317 362.044C138.267 361.718 138.107 361.424 137.838 361.162C137.569 360.892 137.197 360.758 136.722 360.758C136.304 360.758 135.957 360.878 135.681 361.119C135.404 361.36 135.266 361.658 135.266 362.012C135.266 362.288 135.348 362.522 135.51 362.713C135.681 362.905 135.921 363.036 136.233 363.107L137.36 363.351C137.983 363.486 138.465 363.741 138.805 364.116C139.146 364.485 139.316 364.935 139.316 365.466C139.316 366.076 139.075 366.6 138.593 367.039C138.111 367.479 137.484 367.698 136.712 367.698C135.868 367.698 135.206 367.479 134.724 367.039C134.249 366.593 133.973 366.065 133.895 365.456L134.894 365.137C134.937 365.59 135.114 365.973 135.425 366.285C135.737 366.597 136.162 366.752 136.701 366.752C137.197 366.752 137.58 366.639 137.849 366.412C138.118 366.186 138.253 365.899 138.253 365.551C138.253 365.268 138.157 365.023 137.966 364.818C137.774 364.605 137.495 364.46 137.126 364.382L136.053 364.148C135.493 364.028 135.046 363.79 134.713 363.436C134.38 363.082 134.214 362.632 134.214 362.086C134.214 361.491 134.455 360.97 134.937 360.524C135.425 360.07 136.014 359.844 136.701 359.844C137.473 359.844 138.065 360.031 138.476 360.407C138.887 360.782 139.146 361.218 139.252 361.714ZM141.589 364.531V367.539H140.59V359.844H141.589V363.022C141.929 362.526 142.446 362.278 143.141 362.278C143.729 362.278 144.179 362.465 144.491 362.841C144.81 363.217 144.969 363.702 144.969 364.297V367.539H143.97V364.467C143.97 363.61 143.573 363.181 142.78 363.181C142.411 363.181 142.124 363.309 141.919 363.564C141.713 363.812 141.603 364.134 141.589 364.531ZM146.239 366.168C146.239 365.728 146.381 365.378 146.665 365.116C146.948 364.846 147.324 364.68 147.791 364.616L149.173 364.414C149.435 364.379 149.566 364.251 149.566 364.031C149.566 363.762 149.474 363.542 149.29 363.372C149.106 363.202 148.829 363.117 148.461 363.117C148.121 363.117 147.852 363.213 147.653 363.404C147.455 363.589 147.338 363.837 147.302 364.148L146.346 363.925C146.395 363.436 146.619 363.039 147.015 362.735C147.412 362.423 147.887 362.267 148.44 362.267C149.162 362.267 149.697 362.444 150.045 362.798C150.392 363.146 150.565 363.592 150.565 364.138V366.699C150.565 367.004 150.587 367.284 150.629 367.539H149.651C149.616 367.326 149.598 367.096 149.598 366.848C149.456 367.075 149.247 367.273 148.971 367.443C148.702 367.613 148.362 367.698 147.951 367.698C147.448 367.698 147.037 367.55 146.718 367.252C146.399 366.947 146.239 366.586 146.239 366.168ZM148.089 366.859C148.535 366.859 148.893 366.738 149.162 366.497C149.432 366.256 149.566 365.874 149.566 365.349V365.116L148.004 365.349C147.777 365.385 147.596 365.466 147.462 365.594C147.327 365.721 147.26 365.895 147.26 366.115C147.26 366.313 147.334 366.487 147.483 366.635C147.639 366.784 147.841 366.859 148.089 366.859ZM154.96 362.373V363.436C154.811 363.415 154.666 363.404 154.524 363.404C153.589 363.404 153.121 363.929 153.121 364.977V367.539H152.122V362.426H153.1V363.319C153.412 362.667 153.922 362.341 154.63 362.341C154.744 362.341 154.854 362.352 154.96 362.373ZM156.621 364.457H159.417C159.402 364.074 159.275 363.762 159.034 363.521C158.793 363.273 158.453 363.149 158.014 363.149C157.617 363.149 157.291 363.28 157.036 363.542C156.781 363.798 156.642 364.102 156.621 364.457ZM159.565 365.785L160.426 366.083C160.278 366.558 160.001 366.947 159.597 367.252C159.193 367.55 158.704 367.698 158.13 367.698C157.415 367.698 156.805 367.454 156.302 366.965C155.806 366.469 155.558 365.803 155.558 364.967C155.558 364.187 155.799 363.542 156.281 363.032C156.763 362.522 157.337 362.267 158.003 362.267C158.775 362.267 159.378 362.511 159.81 363C160.242 363.482 160.458 364.131 160.458 364.945C160.458 365.073 160.451 365.179 160.437 365.264H156.589C156.596 365.718 156.745 366.09 157.036 366.38C157.333 366.671 157.698 366.816 158.13 366.816C158.86 366.816 159.339 366.473 159.565 365.785ZM169.727 360.97H167.207V367.539H166.166V360.97H163.647V360.003H169.727V360.97ZM171.209 369.675H170.114L171.39 366.976L169.19 362.426H170.338L171.932 365.955L173.462 362.426H174.536L171.209 369.675ZM176.486 369.558H175.497V362.426H176.464V363.224C176.613 362.954 176.836 362.735 177.134 362.565C177.432 362.395 177.779 362.31 178.176 362.31C178.913 362.31 179.487 362.561 179.898 363.064C180.316 363.567 180.525 364.205 180.525 364.977C180.525 365.757 180.309 366.402 179.876 366.912C179.451 367.422 178.874 367.677 178.144 367.677C177.768 367.677 177.435 367.599 177.145 367.443C176.854 367.287 176.635 367.089 176.486 366.848V369.558ZM179.504 364.977C179.504 364.46 179.366 364.035 179.09 363.702C178.821 363.362 178.456 363.192 177.995 363.192C177.542 363.192 177.173 363.362 176.89 363.702C176.613 364.035 176.475 364.46 176.475 364.977C176.475 365.509 176.613 365.945 176.89 366.285C177.173 366.618 177.542 366.784 177.995 366.784C178.449 366.784 178.813 366.618 179.09 366.285C179.366 365.945 179.504 365.509 179.504 364.977ZM182.446 364.457H185.242C185.227 364.074 185.1 363.762 184.859 363.521C184.618 363.273 184.278 363.149 183.839 363.149C183.442 363.149 183.116 363.28 182.861 363.542C182.606 363.798 182.467 364.102 182.446 364.457ZM185.39 365.785L186.251 366.083C186.102 366.558 185.826 366.947 185.422 367.252C185.018 367.55 184.529 367.698 183.955 367.698C183.24 367.698 182.63 367.454 182.127 366.965C181.631 366.469 181.383 365.803 181.383 364.967C181.383 364.187 181.624 363.542 182.106 363.032C182.588 362.522 183.162 362.267 183.828 362.267C184.6 362.267 185.203 362.511 185.635 363C186.067 363.482 186.283 364.131 186.283 364.945C186.283 365.073 186.276 365.179 186.262 365.264H182.414C182.421 365.718 182.57 366.09 182.861 366.38C183.158 366.671 183.523 366.816 183.955 366.816C184.685 366.816 185.164 366.473 185.39 365.785Z" fill="black"/>
<path d="M412.272 372.242H416.828C420.624 372.242 422.142 370.723 422.142 366.927V362.372C422.142 358.576 420.624 357.057 416.828 357.057H412.272C408.476 357.057 406.958 358.576 406.958 362.372V366.927C406.958 370.723 408.476 372.242 412.272 372.242Z" stroke="black" stroke-width="1.13881" stroke-linecap="round" stroke-linejoin="round"/>
<path d="M411.87 363.617L414.55 366.289L417.23 363.617" stroke="black" stroke-width="1.13881" stroke-linecap="round" stroke-linejoin="round"/>
<path d="M471.242 204.261L470.173 204.638C470.116 204.265 469.934 203.929 469.626 203.629C469.319 203.322 468.894 203.168 468.351 203.168C467.873 203.168 467.476 203.306 467.161 203.581C466.845 203.856 466.687 204.196 466.687 204.601C466.687 204.917 466.78 205.184 466.966 205.403C467.161 205.622 467.436 205.771 467.792 205.852L469.08 206.132C469.792 206.286 470.343 206.577 470.732 207.006C471.121 207.428 471.315 207.942 471.315 208.549C471.315 209.246 471.04 209.845 470.489 210.347C469.938 210.849 469.222 211.1 468.339 211.1C467.375 211.1 466.618 210.849 466.067 210.347C465.525 209.837 465.209 209.233 465.12 208.537L466.262 208.173C466.31 208.691 466.513 209.128 466.869 209.484C467.225 209.841 467.711 210.019 468.327 210.019C468.894 210.019 469.331 209.889 469.639 209.63C469.946 209.371 470.1 209.043 470.1 208.646C470.1 208.322 469.991 208.043 469.772 207.808C469.554 207.565 469.234 207.399 468.813 207.31L467.586 207.043C466.946 206.905 466.436 206.634 466.055 206.229C465.675 205.824 465.484 205.31 465.484 204.686C465.484 204.006 465.76 203.411 466.31 202.901C466.869 202.382 467.541 202.123 468.327 202.123C469.209 202.123 469.886 202.338 470.355 202.767C470.825 203.196 471.121 203.694 471.242 204.261ZM473.453 207.395H476.648C476.632 206.958 476.486 206.601 476.21 206.326C475.935 206.043 475.546 205.901 475.044 205.901C474.591 205.901 474.218 206.051 473.927 206.35C473.635 206.642 473.477 206.99 473.453 207.395ZM476.818 208.914L477.802 209.254C477.632 209.796 477.316 210.242 476.854 210.59C476.393 210.93 475.834 211.1 475.178 211.1C474.36 211.1 473.664 210.821 473.089 210.262C472.522 209.695 472.238 208.934 472.238 207.978C472.238 207.087 472.514 206.35 473.064 205.767C473.615 205.184 474.271 204.893 475.032 204.893C475.915 204.893 476.603 205.172 477.097 205.731C477.591 206.282 477.838 207.023 477.838 207.954C477.838 208.1 477.83 208.221 477.814 208.318H473.417C473.425 208.837 473.595 209.262 473.927 209.594C474.267 209.926 474.684 210.092 475.178 210.092C476.012 210.092 476.559 209.699 476.818 208.914ZM480.438 210.918H479.296V202.123H480.438V210.918ZM483.121 207.395H486.316C486.3 206.958 486.154 206.601 485.878 206.326C485.603 206.043 485.214 205.901 484.712 205.901C484.259 205.901 483.886 206.051 483.595 206.35C483.303 206.642 483.145 206.99 483.121 207.395ZM486.486 208.914L487.47 209.254C487.3 209.796 486.984 210.242 486.522 210.59C486.061 210.93 485.502 211.1 484.846 211.1C484.028 211.1 483.332 210.821 482.757 210.262C482.19 209.695 481.906 208.934 481.906 207.978C481.906 207.087 482.182 206.35 482.732 205.767C483.283 205.184 483.939 204.893 484.7 204.893C485.583 204.893 486.271 205.172 486.765 205.731C487.259 206.282 487.506 207.023 487.506 207.954C487.506 208.1 487.498 208.221 487.482 208.318H483.085C483.093 208.837 483.263 209.262 483.595 209.594C483.935 209.926 484.352 210.092 484.846 210.092C485.68 210.092 486.227 209.699 486.486 208.914ZM491.418 205.95C490.924 205.95 490.502 206.128 490.154 206.484C489.814 206.84 489.644 207.342 489.644 207.99C489.644 208.63 489.814 209.132 490.154 209.497C490.502 209.861 490.928 210.043 491.43 210.043C491.916 210.043 492.284 209.922 492.535 209.679C492.794 209.436 492.968 209.156 493.057 208.841L494.066 209.278C493.904 209.764 493.596 210.189 493.142 210.553C492.697 210.918 492.126 211.1 491.43 211.1C490.579 211.1 489.875 210.804 489.316 210.213C488.757 209.622 488.478 208.881 488.478 207.99C488.478 207.083 488.757 206.342 489.316 205.767C489.875 205.184 490.575 204.893 491.418 204.893C492.13 204.893 492.705 205.075 493.142 205.439C493.588 205.804 493.879 206.241 494.017 206.751L492.985 207.189C492.895 206.848 492.725 206.557 492.474 206.314C492.223 206.071 491.871 205.95 491.418 205.95ZM496.936 203.229V205.075H498.199V206.108H496.936V209.144C496.936 209.42 496.996 209.622 497.118 209.752C497.248 209.881 497.458 209.946 497.75 209.946C497.92 209.946 498.07 209.93 498.199 209.897V210.869C498.005 210.942 497.746 210.979 497.422 210.979C496.92 210.979 496.523 210.833 496.231 210.541C495.94 210.25 495.794 209.841 495.794 209.314V206.108H494.676V205.075H494.992C495.292 205.075 495.515 204.994 495.66 204.832C495.814 204.662 495.891 204.443 495.891 204.176V203.229H496.936ZM507.34 210.918L505.372 207.395H504.084V210.918H502.881V202.305H506.125C506.918 202.305 507.554 202.552 508.032 203.046C508.518 203.532 508.761 204.14 508.761 204.868C508.761 205.492 508.575 206.027 508.202 206.472C507.83 206.909 507.319 207.189 506.671 207.31L508.724 210.918H507.34ZM504.084 206.326H505.906C506.392 206.326 506.785 206.197 507.084 205.937C507.384 205.67 507.534 205.314 507.534 204.868C507.534 204.415 507.384 204.055 507.084 203.787C506.785 203.512 506.392 203.374 505.906 203.374H504.084V206.326ZM509.857 209.351C509.857 208.849 510.019 208.448 510.343 208.148C510.667 207.841 511.096 207.65 511.631 207.577L513.21 207.347C513.509 207.306 513.659 207.16 513.659 206.909C513.659 206.601 513.554 206.35 513.343 206.156C513.133 205.962 512.817 205.865 512.396 205.865C512.007 205.865 511.7 205.974 511.473 206.193C511.246 206.403 511.112 206.687 511.072 207.043L509.979 206.788C510.035 206.229 510.29 205.775 510.744 205.427C511.197 205.071 511.74 204.893 512.372 204.893C513.198 204.893 513.809 205.095 514.206 205.5C514.603 205.897 514.801 206.407 514.801 207.031V209.958C514.801 210.306 514.825 210.626 514.874 210.918H513.756C513.716 210.675 513.696 210.412 513.696 210.128C513.534 210.387 513.295 210.614 512.979 210.809C512.671 211.003 512.283 211.1 511.813 211.1C511.238 211.1 510.768 210.93 510.404 210.59C510.039 210.242 509.857 209.829 509.857 209.351ZM511.971 210.14C512.481 210.14 512.89 210.003 513.198 209.727C513.505 209.452 513.659 209.015 513.659 208.415V208.148L511.874 208.415C511.615 208.456 511.408 208.549 511.254 208.695C511.1 208.841 511.023 209.039 511.023 209.29C511.023 209.517 511.108 209.715 511.278 209.885C511.457 210.055 511.687 210.14 511.971 210.14ZM517.71 210.918H516.58V205.075H517.71V210.918ZM516.556 203.447C516.402 203.285 516.325 203.091 516.325 202.864C516.325 202.637 516.402 202.443 516.556 202.281C516.718 202.119 516.912 202.038 517.139 202.038C517.366 202.038 517.56 202.119 517.722 202.281C517.884 202.435 517.965 202.629 517.965 202.864C517.965 203.091 517.884 203.285 517.722 203.447C517.56 203.601 517.366 203.678 517.139 203.678C516.912 203.678 516.718 203.601 516.556 203.447ZM519.106 209.399L520.138 209.035C520.179 209.351 520.316 209.614 520.551 209.825C520.786 210.027 521.102 210.128 521.499 210.128C521.807 210.128 522.049 210.055 522.228 209.91C522.406 209.756 522.495 209.569 522.495 209.351C522.495 208.962 522.244 208.711 521.742 208.598L520.746 208.379C520.292 208.282 519.936 208.088 519.677 207.796C519.418 207.504 519.288 207.152 519.288 206.739C519.288 206.237 519.49 205.804 519.895 205.439C520.308 205.075 520.798 204.893 521.365 204.893C521.738 204.893 522.07 204.949 522.361 205.063C522.653 205.168 522.88 205.31 523.042 205.488C523.203 205.666 523.325 205.832 523.406 205.986C523.487 206.14 523.548 206.298 523.588 206.46L522.58 206.836C522.564 206.739 522.535 206.646 522.495 206.557C522.454 206.46 522.39 206.354 522.301 206.241C522.22 206.128 522.098 206.039 521.936 205.974C521.774 205.901 521.584 205.865 521.365 205.865C521.082 205.865 520.847 205.941 520.661 206.095C520.482 206.249 520.393 206.431 520.393 206.642C520.393 207.015 520.616 207.249 521.061 207.347L522.009 207.553C522.527 207.666 522.924 207.877 523.199 208.185C523.483 208.484 523.625 208.853 523.625 209.29C523.625 209.752 523.434 210.169 523.054 210.541C522.681 210.914 522.159 211.1 521.487 211.1C520.766 211.1 520.203 210.922 519.798 210.566C519.393 210.201 519.162 209.812 519.106 209.399ZM525.826 207.395H529.021C529.005 206.958 528.859 206.601 528.584 206.326C528.309 206.043 527.92 205.901 527.418 205.901C526.964 205.901 526.592 206.051 526.3 206.35C526.009 206.642 525.851 206.99 525.826 207.395ZM529.191 208.914L530.175 209.254C530.005 209.796 529.689 210.242 529.228 210.59C528.766 210.93 528.207 211.1 527.551 211.1C526.733 211.1 526.037 210.821 525.462 210.262C524.895 209.695 524.612 208.934 524.612 207.978C524.612 207.087 524.887 206.35 525.438 205.767C525.988 205.184 526.644 204.893 527.406 204.893C528.288 204.893 528.977 205.172 529.471 205.731C529.965 206.282 530.212 207.023 530.212 207.954C530.212 208.1 530.204 208.221 530.187 208.318H525.79C525.798 208.837 525.968 209.262 526.3 209.594C526.64 209.926 527.057 210.092 527.551 210.092C528.386 210.092 528.932 209.699 529.191 208.914ZM540.804 203.411H537.925V210.918H536.735V203.411H533.856V202.305H540.804V203.411ZM542.498 213.359H541.247L542.705 210.274L540.19 205.075H541.502L543.324 209.108L545.074 205.075H546.301L542.498 213.359ZM548.529 213.226H547.399V205.075H548.505V205.986C548.675 205.678 548.93 205.427 549.27 205.233C549.61 205.039 550.007 204.941 550.46 204.941C551.302 204.941 551.958 205.229 552.428 205.804C552.906 206.379 553.145 207.108 553.145 207.99C553.145 208.881 552.898 209.618 552.404 210.201C551.918 210.784 551.258 211.076 550.424 211.076C549.995 211.076 549.614 210.987 549.282 210.809C548.95 210.63 548.699 210.404 548.529 210.128V213.226ZM551.979 207.99C551.979 207.399 551.821 206.913 551.505 206.533C551.197 206.144 550.78 205.95 550.254 205.95C549.735 205.95 549.314 206.144 548.99 206.533C548.675 206.913 548.517 207.399 548.517 207.99C548.517 208.598 548.675 209.096 548.99 209.484C549.314 209.865 549.735 210.055 550.254 210.055C550.772 210.055 551.189 209.865 551.505 209.484C551.821 209.096 551.979 208.598 551.979 207.99ZM555.341 207.395H558.535C558.519 206.958 558.373 206.601 558.098 206.326C557.823 206.043 557.434 205.901 556.932 205.901C556.479 205.901 556.106 206.051 555.814 206.35C555.523 206.642 555.365 206.99 555.341 207.395ZM558.706 208.914L559.689 209.254C559.519 209.796 559.204 210.242 558.742 210.59C558.28 210.93 557.722 211.1 557.066 211.1C556.248 211.1 555.551 210.821 554.976 210.262C554.409 209.695 554.126 208.934 554.126 207.978C554.126 207.087 554.401 206.35 554.952 205.767C555.503 205.184 556.159 204.893 556.92 204.893C557.803 204.893 558.491 205.172 558.985 205.731C559.479 206.282 559.726 207.023 559.726 207.954C559.726 208.1 559.718 208.221 559.702 208.318H555.304C555.312 208.837 555.482 209.262 555.814 209.594C556.155 209.926 556.572 210.092 557.066 210.092C557.9 210.092 558.446 209.699 558.706 208.914Z" fill="black"/>
<rect opacity="0.6" x="464.658" y="222.694" width="349.995" height="48.5893" rx="6.07367" fill="#EEF3FD" fill-opacity="0.55" stroke="black" stroke-width="0.759208" stroke-linecap="square"/>
<path d="M485.38 250.637H480.799V243.101H485.38V244.069H481.841V246.386H485.051V247.364H481.841V249.67H485.38V250.637ZM491.243 252.657H490.254V249.915C490.119 250.177 489.91 250.386 489.627 250.542C489.351 250.698 489.028 250.776 488.66 250.776C487.944 250.776 487.359 250.517 486.906 250C486.46 249.475 486.236 248.83 486.236 248.065C486.236 247.314 486.452 246.683 486.885 246.173C487.324 245.656 487.909 245.397 488.638 245.397C489.049 245.397 489.393 245.486 489.669 245.663C489.953 245.84 490.155 246.056 490.275 246.311V245.525H491.243V252.657ZM487.661 246.779C487.391 247.105 487.257 247.534 487.257 248.065C487.257 248.597 487.391 249.036 487.661 249.383C487.937 249.723 488.302 249.893 488.755 249.893C489.202 249.893 489.563 249.723 489.84 249.383C490.123 249.036 490.265 248.597 490.265 248.065C490.265 247.534 490.127 247.105 489.85 246.779C489.574 246.446 489.209 246.279 488.755 246.279C488.295 246.279 487.93 246.446 487.661 246.779ZM496.207 250.021C496.072 250.276 495.867 250.471 495.59 250.605C495.314 250.733 495.016 250.797 494.698 250.797C494.116 250.797 493.652 250.605 493.305 250.223C492.958 249.833 492.784 249.341 492.784 248.745V245.525H493.783V248.597C493.783 248.979 493.876 249.295 494.06 249.543C494.251 249.791 494.545 249.915 494.942 249.915C495.339 249.915 495.64 249.798 495.845 249.564C496.051 249.323 496.154 249.004 496.154 248.607V245.525H497.153V249.691C497.153 250.024 497.171 250.34 497.206 250.637H496.249C496.221 250.481 496.207 250.276 496.207 250.021ZM499.846 250.637H498.858V245.525H499.846V250.637ZM498.836 244.101C498.702 243.959 498.635 243.789 498.635 243.59C498.635 243.392 498.702 243.222 498.836 243.08C498.978 242.938 499.148 242.868 499.347 242.868C499.545 242.868 499.715 242.938 499.857 243.08C499.999 243.215 500.069 243.385 500.069 243.59C500.069 243.789 499.999 243.959 499.857 244.101C499.715 244.235 499.545 244.302 499.347 244.302C499.148 244.302 498.978 244.235 498.836 244.101ZM502.885 243.909V245.525H503.991V246.428H502.885V249.086C502.885 249.326 502.938 249.504 503.045 249.617C503.158 249.73 503.342 249.787 503.597 249.787C503.746 249.787 503.877 249.773 503.991 249.744V250.595C503.821 250.659 503.594 250.69 503.311 250.69C502.871 250.69 502.524 250.563 502.269 250.308C502.014 250.053 501.886 249.695 501.886 249.234V246.428H500.908V245.525H501.185C501.447 245.525 501.642 245.454 501.769 245.312C501.904 245.163 501.971 244.972 501.971 244.738V243.909H502.885ZM506.652 252.774H505.557L506.832 250.074L504.632 245.525H505.78L507.374 249.054L508.905 245.525H509.979L506.652 252.774Z" fill="black"/>
<path d="M485.38 250.637H480.799V243.101H485.38V244.069H481.841V246.386H485.051V247.364H481.841V249.67H485.38V250.637ZM491.243 252.657H490.254V249.915C490.119 250.177 489.91 250.386 489.627 250.542C489.351 250.698 489.028 250.776 488.66 250.776C487.944 250.776 487.359 250.517 486.906 250C486.46 249.475 486.236 248.83 486.236 248.065C486.236 247.314 486.452 246.683 486.885 246.173C487.324 245.656 487.909 245.397 488.638 245.397C489.049 245.397 489.393 245.486 489.669 245.663C489.953 245.84 490.155 246.056 490.275 246.311V245.525H491.243V252.657ZM487.661 246.779C487.391 247.105 487.257 247.534 487.257 248.065C487.257 248.597 487.391 249.036 487.661 249.383C487.937 249.723 488.302 249.893 488.755 249.893C489.202 249.893 489.563 249.723 489.84 249.383C490.123 249.036 490.265 248.597 490.265 248.065C490.265 247.534 490.127 247.105 489.85 246.779C489.574 246.446 489.209 246.279 488.755 246.279C488.295 246.279 487.93 246.446 487.661 246.779ZM496.207 250.021C496.072 250.276 495.867 250.471 495.59 250.605C495.314 250.733 495.016 250.797 494.698 250.797C494.116 250.797 493.652 250.605 493.305 250.223C492.958 249.833 492.784 249.341 492.784 248.745V245.525H493.783V248.597C493.783 248.979 493.876 249.295 494.06 249.543C494.251 249.791 494.545 249.915 494.942 249.915C495.339 249.915 495.64 249.798 495.845 249.564C496.051 249.323 496.154 249.004 496.154 248.607V245.525H497.153V249.691C497.153 250.024 497.171 250.34 497.206 250.637H496.249C496.221 250.481 496.207 250.276 496.207 250.021ZM499.846 250.637H498.858V245.525H499.846V250.637ZM498.836 244.101C498.702 243.959 498.635 243.789 498.635 243.59C498.635 243.392 498.702 243.222 498.836 243.08C498.978 242.938 499.148 242.868 499.347 242.868C499.545 242.868 499.715 242.938 499.857 243.08C499.999 243.215 500.069 243.385 500.069 243.59C500.069 243.789 499.999 243.959 499.857 244.101C499.715 244.235 499.545 244.302 499.347 244.302C499.148 244.302 498.978 244.235 498.836 244.101ZM502.885 243.909V245.525H503.991V246.428H502.885V249.086C502.885 249.326 502.938 249.504 503.045 249.617C503.158 249.73 503.342 249.787 503.597 249.787C503.746 249.787 503.877 249.773 503.991 249.744V250.595C503.821 250.659 503.594 250.69 503.311 250.69C502.871 250.69 502.524 250.563 502.269 250.308C502.014 250.053 501.886 249.695 501.886 249.234V246.428H500.908V245.525H501.185C501.447 245.525 501.642 245.454 501.769 245.312C501.904 245.163 501.971 244.972 501.971 244.738V243.909H502.885ZM506.652 252.774H505.557L506.832 250.074L504.632 245.525H505.78L507.374 249.054L508.905 245.525H509.979L506.652 252.774Z" fill="black"/>
<rect opacity="0.6" x="464.658" y="327.465" width="349.995" height="48.5893" rx="6.07367" fill="#EEF3FD" fill-opacity="0.55" stroke="black" stroke-width="0.759208" stroke-linecap="square"/>
<path d="M484.062 355.568C483.035 355.568 482.153 355.213 481.416 354.505C480.686 353.796 480.321 352.84 480.321 351.635C480.321 350.827 480.505 350.119 480.874 349.509C481.242 348.9 481.706 348.45 482.266 348.159C482.826 347.862 483.425 347.713 484.062 347.713C484.913 347.713 485.628 347.929 486.209 348.361C486.798 348.786 487.187 349.367 487.379 350.104L486.411 350.444C486.27 349.878 485.997 349.442 485.593 349.137C485.189 348.825 484.679 348.669 484.062 348.669C483.326 348.669 482.695 348.932 482.171 349.456C481.646 349.973 481.384 350.7 481.384 351.635C481.384 352.57 481.646 353.3 482.171 353.824C482.695 354.349 483.326 354.611 484.062 354.611C484.679 354.611 485.193 354.448 485.604 354.122C486.015 353.789 486.302 353.35 486.465 352.804L487.389 353.144C487.184 353.874 486.787 354.462 486.199 354.909C485.618 355.348 484.906 355.568 484.062 355.568ZM489.56 352.4V355.408H488.561V347.713H489.56V350.891C489.9 350.395 490.417 350.147 491.112 350.147C491.7 350.147 492.15 350.335 492.462 350.71C492.781 351.086 492.94 351.571 492.94 352.166V355.408H491.941V352.336C491.941 351.479 491.544 351.05 490.751 351.05C490.382 351.05 490.095 351.178 489.89 351.433C489.684 351.681 489.574 352.003 489.56 352.4ZM495.582 354.197C495.893 354.515 496.273 354.675 496.719 354.675C497.165 354.675 497.541 354.515 497.846 354.197C498.157 353.871 498.313 353.421 498.313 352.847C498.313 352.28 498.157 351.837 497.846 351.518C497.541 351.192 497.165 351.029 496.719 351.029C496.273 351.029 495.893 351.192 495.582 351.518C495.277 351.837 495.125 352.28 495.125 352.847C495.125 353.421 495.277 353.871 495.582 354.197ZM494.838 350.912C495.334 350.395 495.961 350.136 496.719 350.136C497.477 350.136 498.101 350.395 498.59 350.912C499.086 351.422 499.334 352.067 499.334 352.847C499.334 353.633 499.089 354.285 498.6 354.802C498.111 355.313 497.484 355.568 496.719 355.568C495.954 355.568 495.327 355.313 494.838 354.802C494.349 354.285 494.104 353.633 494.104 352.847C494.104 352.067 494.349 351.422 494.838 350.912ZM501.664 354.197C501.976 354.515 502.355 354.675 502.801 354.675C503.248 354.675 503.623 354.515 503.928 354.197C504.24 353.871 504.396 353.421 504.396 352.847C504.396 352.28 504.24 351.837 503.928 351.518C503.623 351.192 503.248 351.029 502.801 351.029C502.355 351.029 501.976 351.192 501.664 351.518C501.359 351.837 501.207 352.28 501.207 352.847C501.207 353.421 501.359 353.871 501.664 354.197ZM500.92 350.912C501.416 350.395 502.043 350.136 502.801 350.136C503.56 350.136 504.183 350.395 504.672 350.912C505.168 351.422 505.416 352.067 505.416 352.847C505.416 353.633 505.172 354.285 504.683 354.802C504.194 355.313 503.567 355.568 502.801 355.568C502.036 355.568 501.409 355.313 500.92 354.802C500.431 354.285 500.187 353.633 500.187 352.847C500.187 352.067 500.431 351.422 500.92 350.912ZM506.216 354.08L507.12 353.761C507.155 354.037 507.276 354.267 507.481 354.452C507.687 354.629 507.963 354.717 508.31 354.717C508.579 354.717 508.792 354.654 508.948 354.526C509.104 354.391 509.182 354.228 509.182 354.037C509.182 353.697 508.962 353.477 508.523 353.378L507.651 353.187C507.254 353.102 506.943 352.932 506.716 352.677C506.489 352.421 506.376 352.113 506.376 351.752C506.376 351.313 506.553 350.933 506.907 350.615C507.268 350.296 507.697 350.136 508.193 350.136C508.519 350.136 508.81 350.186 509.065 350.285C509.32 350.377 509.518 350.501 509.66 350.657C509.802 350.813 509.908 350.958 509.979 351.093C510.05 351.227 510.103 351.366 510.138 351.507L509.256 351.837C509.242 351.752 509.217 351.67 509.182 351.592C509.146 351.507 509.09 351.415 509.012 351.316C508.941 351.217 508.834 351.139 508.693 351.082C508.551 351.018 508.384 350.987 508.193 350.987C507.945 350.987 507.74 351.054 507.577 351.189C507.421 351.323 507.343 351.483 507.343 351.667C507.343 351.993 507.538 352.198 507.927 352.283L508.757 352.464C509.21 352.563 509.557 352.747 509.798 353.017C510.046 353.279 510.17 353.601 510.17 353.984C510.17 354.388 510.004 354.753 509.671 355.079C509.345 355.405 508.888 355.568 508.299 355.568C507.669 355.568 507.176 355.412 506.822 355.1C506.468 354.781 506.266 354.441 506.216 354.08ZM512.097 352.326H514.892C514.878 351.943 514.75 351.631 514.51 351.39C514.269 351.142 513.929 351.018 513.489 351.018C513.092 351.018 512.766 351.15 512.511 351.412C512.256 351.667 512.118 351.972 512.097 352.326ZM515.041 353.654L515.902 353.952C515.753 354.427 515.477 354.817 515.073 355.121C514.669 355.419 514.18 355.568 513.606 355.568C512.89 355.568 512.281 355.323 511.778 354.834C511.282 354.338 511.034 353.672 511.034 352.836C511.034 352.057 511.275 351.412 511.757 350.902C512.239 350.391 512.812 350.136 513.479 350.136C514.251 350.136 514.853 350.381 515.285 350.87C515.718 351.351 515.934 352 515.934 352.815C515.934 352.942 515.927 353.049 515.913 353.134H512.065C512.072 353.587 512.221 353.959 512.511 354.25C512.809 354.54 513.174 354.685 513.606 354.685C514.336 354.685 514.814 354.342 515.041 353.654ZM520.462 352.836C520.462 353.375 520.593 353.814 520.855 354.154C521.124 354.494 521.493 354.664 521.96 354.664C522.407 354.664 522.765 354.491 523.034 354.143C523.303 353.796 523.438 353.353 523.438 352.815C523.438 352.283 523.307 351.855 523.045 351.529C522.782 351.203 522.424 351.04 521.971 351.04C521.517 351.04 521.153 351.206 520.876 351.539C520.6 351.872 520.462 352.305 520.462 352.836ZM523.448 354.717V354.632C523.314 354.894 523.108 355.114 522.832 355.291C522.563 355.461 522.24 355.546 521.865 355.546C521.135 355.546 520.547 355.291 520.1 354.781C519.661 354.264 519.441 353.615 519.441 352.836C519.441 352.092 519.668 351.461 520.122 350.944C520.575 350.42 521.156 350.158 521.865 350.158C522.283 350.158 522.623 350.243 522.885 350.413C523.147 350.576 523.328 350.778 523.427 351.018V347.713H524.416V354.462C524.416 354.809 524.433 355.125 524.469 355.408H523.502C523.466 355.21 523.448 354.98 523.448 354.717ZM525.796 354.037C525.796 353.598 525.938 353.247 526.221 352.985C526.505 352.716 526.88 352.549 527.348 352.485L528.73 352.283C528.992 352.248 529.123 352.12 529.123 351.901C529.123 351.631 529.031 351.412 528.847 351.242C528.663 351.072 528.386 350.987 528.018 350.987C527.678 350.987 527.408 351.082 527.21 351.274C527.011 351.458 526.895 351.706 526.859 352.018L525.903 351.794C525.952 351.305 526.175 350.909 526.572 350.604C526.969 350.292 527.444 350.136 527.996 350.136C528.719 350.136 529.254 350.313 529.601 350.668C529.949 351.015 530.122 351.461 530.122 352.007V354.569C530.122 354.873 530.143 355.153 530.186 355.408H529.208C529.173 355.196 529.155 354.965 529.155 354.717C529.013 354.944 528.804 355.142 528.528 355.313C528.259 355.483 527.918 355.568 527.507 355.568C527.004 355.568 526.593 355.419 526.275 355.121C525.956 354.817 525.796 354.455 525.796 354.037ZM527.646 354.728C528.092 354.728 528.45 354.607 528.719 354.367C528.988 354.126 529.123 353.743 529.123 353.219V352.985L527.561 353.219C527.334 353.254 527.153 353.336 527.019 353.463C526.884 353.591 526.817 353.764 526.817 353.984C526.817 354.182 526.891 354.356 527.04 354.505C527.196 354.654 527.398 354.728 527.646 354.728ZM533.018 348.68V350.296H534.123V351.199H533.018V353.856C533.018 354.097 533.071 354.274 533.177 354.388C533.291 354.501 533.475 354.558 533.73 354.558C533.879 354.558 534.01 354.544 534.123 354.515V355.366C533.953 355.429 533.727 355.461 533.443 355.461C533.004 355.461 532.657 355.334 532.401 355.079C532.146 354.824 532.019 354.466 532.019 354.005V351.199H531.041V350.296H531.317C531.579 350.296 531.774 350.225 531.902 350.083C532.037 349.934 532.104 349.743 532.104 349.509V348.68H533.018ZM536.053 352.326H538.849C538.835 351.943 538.707 351.631 538.466 351.39C538.225 351.142 537.885 351.018 537.446 351.018C537.049 351.018 536.723 351.15 536.468 351.412C536.213 351.667 536.075 351.972 536.053 352.326ZM538.998 353.654L539.859 353.952C539.71 354.427 539.433 354.817 539.029 355.121C538.626 355.419 538.137 355.568 537.563 355.568C536.847 355.568 536.238 355.323 535.735 354.834C535.239 354.338 534.99 353.672 534.99 352.836C534.99 352.057 535.231 351.412 535.713 350.902C536.195 350.391 536.769 350.136 537.435 350.136C538.208 350.136 538.81 350.381 539.242 350.87C539.674 351.351 539.89 352 539.89 352.815C539.89 352.942 539.883 353.049 539.869 353.134H536.022C536.029 353.587 536.177 353.959 536.468 354.25C536.766 354.54 537.13 354.685 537.563 354.685C538.293 354.685 538.771 354.342 538.998 353.654Z" fill="black"/>
<path d="M469.481 315.871C468.306 315.871 467.298 315.466 466.456 314.656C465.622 313.846 465.205 312.753 465.205 311.376C465.205 310.453 465.415 309.643 465.836 308.947C466.258 308.251 466.788 307.736 467.428 307.404C468.068 307.064 468.752 306.894 469.481 306.894C470.452 306.894 471.27 307.141 471.934 307.635C472.607 308.121 473.052 308.785 473.271 309.627L472.165 310.016C472.003 309.368 471.692 308.87 471.23 308.522C470.768 308.165 470.185 307.987 469.481 307.987C468.638 307.987 467.918 308.287 467.318 308.886C466.719 309.477 466.42 310.307 466.42 311.376C466.42 312.445 466.719 313.279 467.318 313.879C467.918 314.478 468.638 314.778 469.481 314.778C470.185 314.778 470.772 314.591 471.242 314.219C471.712 313.838 472.04 313.336 472.226 312.713L473.283 313.101C473.048 313.935 472.594 314.608 471.922 315.118C471.258 315.62 470.444 315.871 469.481 315.871ZM475.764 315.689H474.622V306.894H475.764V315.689ZM478.909 314.304C479.265 314.668 479.698 314.851 480.208 314.851C480.719 314.851 481.148 314.668 481.496 314.304C481.852 313.931 482.031 313.417 482.031 312.761C482.031 312.113 481.852 311.607 481.496 311.243C481.148 310.87 480.719 310.684 480.208 310.684C479.698 310.684 479.265 310.87 478.909 311.243C478.561 311.607 478.386 312.113 478.386 312.761C478.386 313.417 478.561 313.931 478.909 314.304ZM478.058 310.55C478.625 309.959 479.342 309.664 480.208 309.664C481.075 309.664 481.788 309.959 482.346 310.55C482.913 311.133 483.197 311.87 483.197 312.761C483.197 313.66 482.917 314.405 482.359 314.996C481.8 315.579 481.083 315.871 480.208 315.871C479.334 315.871 478.617 315.579 478.058 314.996C477.5 314.405 477.22 313.66 477.22 312.761C477.22 311.87 477.5 311.133 478.058 310.55ZM484.111 314.17L485.144 313.806C485.184 314.122 485.322 314.385 485.557 314.595C485.791 314.798 486.107 314.899 486.504 314.899C486.812 314.899 487.055 314.826 487.233 314.68C487.411 314.527 487.5 314.34 487.5 314.122C487.5 313.733 487.249 313.482 486.747 313.369L485.751 313.15C485.297 313.053 484.941 312.858 484.682 312.567C484.423 312.275 484.293 311.923 484.293 311.51C484.293 311.008 484.496 310.575 484.901 310.21C485.314 309.846 485.804 309.664 486.37 309.664C486.743 309.664 487.075 309.72 487.367 309.834C487.658 309.939 487.885 310.081 488.047 310.259C488.209 310.437 488.33 310.603 488.411 310.757C488.492 310.911 488.553 311.069 488.593 311.231L487.585 311.607C487.569 311.51 487.541 311.417 487.5 311.328C487.46 311.231 487.395 311.125 487.306 311.012C487.225 310.899 487.103 310.81 486.941 310.745C486.779 310.672 486.589 310.635 486.37 310.635C486.087 310.635 485.852 310.712 485.666 310.866C485.488 311.02 485.399 311.202 485.399 311.413C485.399 311.785 485.621 312.02 486.067 312.117L487.014 312.324C487.533 312.437 487.929 312.648 488.205 312.956C488.488 313.255 488.63 313.624 488.63 314.061C488.63 314.523 488.44 314.94 488.059 315.312C487.686 315.685 487.164 315.871 486.492 315.871C485.771 315.871 485.208 315.693 484.803 315.336C484.399 314.972 484.168 314.583 484.111 314.17ZM491.28 315.689H490.15V309.846H491.28V315.689ZM490.126 308.218C489.972 308.056 489.895 307.862 489.895 307.635C489.895 307.408 489.972 307.214 490.126 307.052C490.288 306.89 490.482 306.809 490.709 306.809C490.936 306.809 491.13 306.89 491.292 307.052C491.454 307.206 491.535 307.4 491.535 307.635C491.535 307.862 491.454 308.056 491.292 308.218C491.13 308.372 490.936 308.449 490.709 308.449C490.482 308.449 490.288 308.372 490.126 308.218ZM494.364 312.312V315.689H493.222V309.846H494.34V310.684C494.729 310.012 495.328 309.676 496.138 309.676C496.81 309.676 497.324 309.89 497.681 310.32C498.045 310.749 498.227 311.304 498.227 311.984V315.689H497.085V312.178C497.085 311.198 496.632 310.708 495.725 310.708C495.296 310.708 494.96 310.862 494.717 311.17C494.482 311.47 494.364 311.85 494.364 312.312ZM499.618 316.005L500.724 315.749C500.764 316.162 500.93 316.503 501.222 316.77C501.513 317.045 501.878 317.183 502.315 317.183C503.505 317.183 504.101 316.551 504.101 315.288V314.45C503.955 314.733 503.724 314.964 503.408 315.142C503.101 315.32 502.736 315.409 502.315 315.409C501.538 315.409 500.894 315.146 500.384 314.62C499.882 314.085 499.63 313.405 499.63 312.579C499.63 311.777 499.882 311.105 500.384 310.563C500.886 310.012 501.53 309.737 502.315 309.737C503.206 309.737 503.805 310.044 504.113 310.66V309.846H505.243V315.251C505.243 315.64 505.19 316.001 505.085 316.333C504.987 316.673 504.83 316.984 504.611 317.268C504.392 317.551 504.084 317.774 503.688 317.936C503.299 318.098 502.841 318.179 502.315 318.179C501.594 318.179 500.983 317.972 500.481 317.559C499.979 317.154 499.691 316.636 499.618 316.005ZM502.485 314.45C502.979 314.45 503.38 314.28 503.688 313.94C503.995 313.591 504.149 313.138 504.149 312.579C504.149 312.02 503.995 311.571 503.688 311.231C503.38 310.882 502.979 310.708 502.485 310.708C501.983 310.708 501.574 310.878 501.258 311.219C500.95 311.559 500.797 312.012 500.797 312.579C500.797 313.154 500.946 313.612 501.246 313.952C501.554 314.284 501.967 314.45 502.485 314.45ZM510.783 312.749C510.783 313.365 510.933 313.867 511.233 314.255C511.54 314.644 511.962 314.838 512.496 314.838C513.006 314.838 513.415 314.64 513.723 314.243C514.031 313.846 514.184 313.34 514.184 312.725C514.184 312.117 514.035 311.627 513.735 311.255C513.435 310.882 513.026 310.696 512.508 310.696C511.99 310.696 511.573 310.886 511.257 311.267C510.941 311.648 510.783 312.142 510.783 312.749ZM514.197 314.899V314.802C514.043 315.102 513.808 315.353 513.492 315.555C513.184 315.749 512.816 315.847 512.387 315.847C511.553 315.847 510.88 315.555 510.37 314.972C509.868 314.381 509.617 313.64 509.617 312.749C509.617 311.899 509.876 311.178 510.395 310.587C510.913 309.988 511.577 309.688 512.387 309.688C512.864 309.688 513.253 309.785 513.553 309.979C513.852 310.166 514.059 310.397 514.172 310.672V306.894H515.302V314.608C515.302 315.004 515.322 315.365 515.363 315.689H514.257C514.217 315.462 514.197 315.199 514.197 314.899ZM516.88 314.122C516.88 313.62 517.042 313.219 517.366 312.919C517.69 312.611 518.119 312.421 518.653 312.348L520.233 312.117C520.532 312.077 520.682 311.931 520.682 311.68C520.682 311.372 520.577 311.121 520.366 310.927C520.156 310.733 519.84 310.635 519.419 310.635C519.03 310.635 518.722 310.745 518.495 310.963C518.269 311.174 518.135 311.457 518.095 311.814L517.001 311.559C517.058 311 517.313 310.546 517.767 310.198C518.22 309.842 518.763 309.664 519.394 309.664C520.22 309.664 520.832 309.866 521.229 310.271C521.625 310.668 521.824 311.178 521.824 311.802V314.729C521.824 315.077 521.848 315.397 521.897 315.689H520.779C520.739 315.446 520.718 315.183 520.718 314.899C520.556 315.158 520.318 315.385 520.002 315.579C519.694 315.774 519.305 315.871 518.836 315.871C518.261 315.871 517.791 315.701 517.427 315.361C517.062 315.013 516.88 314.6 516.88 314.122ZM518.994 314.911C519.504 314.911 519.913 314.774 520.22 314.498C520.528 314.223 520.682 313.786 520.682 313.186V312.919L518.896 313.186C518.637 313.227 518.431 313.32 518.277 313.466C518.123 313.612 518.046 313.81 518.046 314.061C518.046 314.288 518.131 314.486 518.301 314.656C518.479 314.826 518.71 314.911 518.994 314.911ZM525.133 307.999V309.846H526.397V310.878H525.133V313.915C525.133 314.191 525.194 314.393 525.315 314.523C525.445 314.652 525.656 314.717 525.947 314.717C526.117 314.717 526.267 314.701 526.397 314.668V315.64C526.202 315.713 525.943 315.749 525.619 315.749C525.117 315.749 524.72 315.604 524.429 315.312C524.137 315.021 523.991 314.612 523.991 314.085V310.878H522.874V309.846H523.19C523.489 309.846 523.712 309.765 523.858 309.603C524.012 309.433 524.089 309.214 524.089 308.947V307.999H525.133ZM528.602 312.166H531.797C531.781 311.729 531.635 311.372 531.36 311.097C531.084 310.814 530.696 310.672 530.194 310.672C529.74 310.672 529.368 310.822 529.076 311.121C528.785 311.413 528.627 311.761 528.602 312.166ZM531.967 313.684L532.951 314.025C532.781 314.567 532.465 315.013 532.004 315.361C531.542 315.701 530.983 315.871 530.327 315.871C529.509 315.871 528.813 315.592 528.238 315.033C527.671 314.466 527.388 313.705 527.388 312.749C527.388 311.858 527.663 311.121 528.214 310.538C528.764 309.955 529.42 309.664 530.181 309.664C531.064 309.664 531.753 309.943 532.247 310.502C532.741 311.052 532.988 311.793 532.988 312.725C532.988 312.871 532.979 312.992 532.963 313.089H528.566C528.574 313.607 528.744 314.033 529.076 314.365C529.416 314.697 529.833 314.863 530.327 314.863C531.161 314.863 531.708 314.47 531.967 313.684Z" fill="black"/>
</g>
</g>
<defs>
<filter id="filter0_d_789_7108" x="44" y="61" width="804.059" height="554.188" filterUnits="userSpaceOnUse" color-interpolation-filters="sRGB">
<feFlood flood-opacity="0" result="BackgroundImageFix"/>
<feColorMatrix in="SourceAlpha" type="matrix" values="0 0 0 0 0 0 0 0 0 0 0 0 0 0 0 0 0 0 127 0" result="hardAlpha"/>
<feOffset dx="-16"/>
<feComposite in2="hardAlpha" operator="out"/>
<feColorMatrix type="matrix" values="0 0 0 0 0.25098 0 0 0 0 0.482353 0 0 0 0 1 0 0 0 0.1 0"/>
<feBlend mode="normal" in2="BackgroundImageFix" result="effect1_dropShadow_789_7108"/>
<feBlend mode="normal" in="SourceGraphic" in2="effect1_dropShadow_789_7108" result="shape"/>
</filter>
<linearGradient id="paint0_linear_789_7108" x1="454.029" y1="61" x2="454.029" y2="615.188" gradientUnits="userSpaceOnUse">
<stop stop-color="#EEF3FD"/>
<stop offset="1" stop-color="white"/>
</linearGradient>
<clipPath id="clip0_789_7108">
<rect width="591.989" height="390.44" fill="white" transform="translate(0 0.439941)"/>
</clipPath>
</defs>
</svg>
