<svg width="585" height="415" viewBox="0 0 585 415" fill="none" xmlns="http://www.w3.org/2000/svg">
<g filter="url(#filter0_d_1022_33423)">
<g filter="url(#filter1_d_1022_33423)">
<rect x="16.4795" y="10.4064" width="550.104" height="371.995" rx="6.50532" fill="url(#paint0_linear_1022_33423)"/>
<rect x="16.4795" y="10.4064" width="550.104" height="371.995" rx="6.50532" fill="url(#paint1_linear_1022_33423)"/>
<rect x="16.4795" y="10.4064" width="550.104" height="371.995" rx="6.50532" fill="url(#paint2_linear_1022_33423)"/>
<rect width="85.6583" height="16.2633" transform="translate(32.8457 336.962)" fill="url(#paint3_linear_1022_33423)"/>
<path d="M33.2442 346.594V342.496H34.8636C34.9034 342.496 34.9509 342.497 35.0059 342.501C35.0609 342.503 35.114 342.509 35.1653 342.518C35.3873 342.552 35.5732 342.628 35.7231 342.746C35.8749 342.864 35.9887 343.013 36.0646 343.193C36.1405 343.371 36.1785 343.569 36.1785 343.788C36.1785 344.105 36.0959 344.38 35.9309 344.613C35.7658 344.844 35.5239 344.99 35.2051 345.048L35.0116 345.08H33.7508V346.594H33.2442ZM35.6832 346.594L34.875 344.926L35.3759 344.772L36.2638 346.594H35.6832ZM33.7508 344.599H34.8465C34.8825 344.599 34.9233 344.597 34.9689 344.593C35.0163 344.589 35.0609 344.583 35.1026 344.573C35.2336 344.543 35.3398 344.488 35.4214 344.408C35.5049 344.326 35.5656 344.232 35.6036 344.123C35.6415 344.013 35.6605 343.901 35.6605 343.788C35.6605 343.674 35.6415 343.563 35.6036 343.455C35.5656 343.345 35.5049 343.249 35.4214 343.167C35.3398 343.086 35.2336 343.031 35.1026 343.002C35.0609 342.991 35.0163 342.984 34.9689 342.982C34.9233 342.978 34.8825 342.977 34.8465 342.977H33.7508V344.599ZM38.2227 346.679C37.921 346.679 37.6572 346.613 37.4314 346.48C37.2076 346.345 37.033 346.158 36.9078 345.919C36.7825 345.678 36.7199 345.398 36.7199 345.077C36.7199 344.741 36.7816 344.451 36.9049 344.206C37.0283 343.959 37.2 343.77 37.4201 343.637C37.6421 343.502 37.902 343.435 38.1999 343.435C38.5092 343.435 38.772 343.506 38.9883 343.648C39.2065 343.79 39.3696 343.994 39.4778 344.257C39.5878 344.521 39.6353 344.835 39.6201 345.199H39.1078V345.017C39.1021 344.64 39.0253 344.358 38.8773 344.172C38.7293 343.984 38.5092 343.89 38.217 343.89C37.9039 343.89 37.6658 343.991 37.5026 344.192C37.3394 344.393 37.2578 344.681 37.2578 345.057C37.2578 345.419 37.3394 345.7 37.5026 345.899C37.6658 346.099 37.8982 346.198 38.1999 346.198C38.4029 346.198 38.5794 346.152 38.7293 346.059C38.8792 345.966 38.9968 345.832 39.0822 345.658L39.5689 345.825C39.4493 346.097 39.2691 346.307 39.0281 346.457C38.789 346.605 38.5205 346.679 38.2227 346.679ZM37.0871 345.199V344.792H39.3582V345.199H37.0871ZM41.4149 346.676C41.0487 346.676 40.748 346.597 40.5127 346.437C40.2794 346.276 40.1361 346.051 40.083 345.763L40.601 345.68C40.6427 345.847 40.7385 345.98 40.8884 346.079C41.0383 346.175 41.2242 346.224 41.4462 346.224C41.6569 346.224 41.8219 346.18 41.9415 346.093C42.061 346.006 42.1208 345.887 42.1208 345.737C42.1208 345.65 42.1008 345.58 42.061 345.527C42.0212 345.472 41.9386 345.42 41.8134 345.373C41.6901 345.325 41.5032 345.269 41.2527 345.202C40.9814 345.13 40.7679 345.055 40.6123 344.977C40.4568 344.9 40.3458 344.809 40.2794 344.707C40.2129 344.604 40.1797 344.48 40.1797 344.334C40.1797 344.154 40.2291 343.996 40.3277 343.862C40.4264 343.725 40.564 343.62 40.7404 343.546C40.9188 343.472 41.1256 343.435 41.3609 343.435C41.5942 343.435 41.803 343.472 41.987 343.546C42.171 343.62 42.319 343.725 42.431 343.862C42.5448 343.996 42.6122 344.154 42.6331 344.334L42.1151 344.428C42.0904 344.263 42.0107 344.133 41.876 344.038C41.7432 343.943 41.5715 343.893 41.3609 343.887C41.1616 343.88 40.9994 343.915 40.8742 343.993C40.7509 344.07 40.6892 344.176 40.6892 344.308C40.6892 344.382 40.712 344.446 40.7575 344.499C40.8049 344.552 40.8913 344.603 41.0165 344.65C41.1436 344.697 41.3277 344.752 41.5686 344.812C41.84 344.881 42.0534 344.955 42.209 345.037C42.3665 345.117 42.4784 345.212 42.5448 345.322C42.6112 345.43 42.6444 345.564 42.6444 345.723C42.6444 346.019 42.5353 346.252 42.3171 346.423C42.0989 346.592 41.7982 346.676 41.4149 346.676ZM44.439 346.674C44.2417 346.674 44.0719 346.642 43.9296 346.58C43.7892 346.517 43.6725 346.434 43.5795 346.329C43.4865 346.225 43.4135 346.109 43.3604 345.982C43.3072 345.855 43.2693 345.725 43.2465 345.592C43.2257 345.459 43.2152 345.335 43.2152 345.219V343.52H43.7275V345.06C43.7275 345.204 43.7408 345.343 43.7674 345.478C43.7939 345.613 43.8385 345.734 43.9011 345.843C43.9656 345.951 44.051 346.036 44.1573 346.099C44.2654 346.161 44.4001 346.193 44.5614 346.193C44.6885 346.193 44.8043 346.171 44.9086 346.127C45.013 346.083 45.1022 346.019 45.1762 345.934C45.2502 345.846 45.3071 345.736 45.3469 345.603C45.3868 345.471 45.4067 345.316 45.4067 345.14L45.7397 345.242C45.7397 345.538 45.6856 345.793 45.5775 346.008C45.4712 346.222 45.3204 346.387 45.1249 346.503C44.9314 346.617 44.7028 346.674 44.439 346.674ZM45.4636 346.594V345.771H45.4067V343.52H45.9161V346.594H45.4636ZM46.7699 346.594V342.41H47.2765V346.594H46.7699ZM49.8467 346.594C49.6645 346.63 49.4843 346.644 49.3059 346.637C49.1295 346.631 48.972 346.596 48.8335 346.531C48.695 346.465 48.5896 346.362 48.5175 346.224C48.4568 346.102 48.4236 345.98 48.4179 345.857C48.4141 345.732 48.4122 345.59 48.4122 345.433V342.666H48.9188V345.41C48.9188 345.535 48.9198 345.642 48.9217 345.732C48.9255 345.821 48.9454 345.898 48.9815 345.962C49.0498 346.083 49.1579 346.155 49.3059 346.175C49.4558 346.196 49.6361 346.191 49.8467 346.158V346.594ZM47.789 343.938V343.52H49.8467V343.938H47.789ZM51.6319 346.676C51.2657 346.676 50.965 346.597 50.7297 346.437C50.4963 346.276 50.3531 346.051 50.3 345.763L50.8179 345.68C50.8597 345.847 50.9555 345.98 51.1054 346.079C51.2553 346.175 51.4412 346.224 51.6632 346.224C51.8738 346.224 52.0389 346.18 52.1584 346.093C52.278 346.006 52.3377 345.887 52.3377 345.737C52.3377 345.65 52.3178 345.58 52.278 345.527C52.2381 345.472 52.1556 345.42 52.0304 345.373C51.907 345.325 51.7201 345.269 51.4697 345.202C51.1984 345.13 50.9849 345.055 50.8293 344.977C50.6737 344.9 50.5627 344.809 50.4963 344.707C50.4299 344.604 50.3967 344.48 50.3967 344.334C50.3967 344.154 50.446 343.996 50.5447 343.862C50.6434 343.725 50.7809 343.62 50.9574 343.546C51.1357 343.472 51.3426 343.435 51.5778 343.435C51.8112 343.435 52.0199 343.472 52.204 343.546C52.388 343.62 52.536 343.725 52.648 343.862C52.7618 343.996 52.8292 344.154 52.85 344.334L52.3321 344.428C52.3074 344.263 52.2277 344.133 52.093 344.038C51.9602 343.943 51.7884 343.893 51.5778 343.887C51.3786 343.88 51.2164 343.915 51.0912 343.993C50.9678 344.07 50.9062 344.176 50.9062 344.308C50.9062 344.382 50.9289 344.446 50.9745 344.499C51.0219 344.552 51.1082 344.603 51.2335 344.65C51.3606 344.697 51.5446 344.752 51.7856 344.812C52.0569 344.881 52.2704 344.955 52.426 345.037C52.5835 345.117 52.6954 345.212 52.7618 345.322C52.8282 345.43 52.8614 345.564 52.8614 345.723C52.8614 346.019 52.7523 346.252 52.5341 346.423C52.3159 346.592 52.0152 346.676 51.6319 346.676ZM56.0403 346.679C55.7519 346.679 55.509 346.608 55.3117 346.466C55.1144 346.322 54.9645 346.127 54.862 345.882C54.7615 345.636 54.7112 345.36 54.7112 345.054C54.7112 344.745 54.7615 344.468 54.862 344.223C54.9645 343.978 55.1144 343.786 55.3117 343.645C55.5109 343.505 55.7548 343.435 56.0432 343.435C56.3278 343.435 56.5725 343.506 56.7774 343.648C56.9843 343.789 57.1427 343.981 57.2527 344.226C57.3628 344.471 57.4178 344.747 57.4178 345.054C57.4178 345.362 57.3628 345.638 57.2527 345.882C57.1427 346.127 56.9843 346.322 56.7774 346.466C56.5725 346.608 56.3268 346.679 56.0403 346.679ZM54.6258 347.96V343.52H55.0783V345.783H55.1353V347.96H54.6258ZM55.9777 346.215C56.1807 346.215 56.3486 346.164 56.4815 346.062C56.6143 345.959 56.7139 345.821 56.7803 345.646C56.8467 345.47 56.8799 345.272 56.8799 345.054C56.8799 344.838 56.8467 344.642 56.7803 344.468C56.7158 344.293 56.6152 344.155 56.4786 344.052C56.3439 343.95 56.1722 343.899 55.9635 343.899C55.7642 343.899 55.5992 343.948 55.4683 344.047C55.3373 344.143 55.2396 344.279 55.1751 344.454C55.1106 344.626 55.0783 344.826 55.0783 345.054C55.0783 345.278 55.1096 345.478 55.1723 345.655C55.2368 345.829 55.3354 345.967 55.4683 346.067C55.6011 346.166 55.7709 346.215 55.9777 346.215ZM59.3737 346.679C59.072 346.679 58.8083 346.613 58.5825 346.48C58.3586 346.345 58.184 346.158 58.0588 345.919C57.9336 345.678 57.871 345.398 57.871 345.077C57.871 344.741 57.9326 344.451 58.056 344.206C58.1793 343.959 58.351 343.77 58.5711 343.637C58.7931 343.502 59.053 343.435 59.3509 343.435C59.6602 343.435 59.923 343.506 60.1393 343.648C60.3575 343.79 60.5207 343.994 60.6288 344.257C60.7389 344.521 60.7863 344.835 60.7711 345.199H60.2588V345.017C60.2531 344.64 60.1763 344.358 60.0283 344.172C59.8803 343.984 59.6602 343.89 59.368 343.89C59.0549 343.89 58.8168 343.991 58.6536 344.192C58.4905 344.393 58.4089 344.681 58.4089 345.057C58.4089 345.419 58.4905 345.7 58.6536 345.899C58.8168 346.099 59.0492 346.198 59.3509 346.198C59.5539 346.198 59.7304 346.152 59.8803 346.059C60.0302 345.966 60.1478 345.832 60.2332 345.658L60.7199 345.825C60.6004 346.097 60.4201 346.307 60.1791 346.457C59.9401 346.605 59.6716 346.679 59.3737 346.679ZM58.2381 345.199V344.792H60.5093V345.199H58.2381ZM61.4048 346.594V343.52H61.8573V344.263L61.7833 344.166C61.8194 344.071 61.8658 343.984 61.9228 343.904C61.9816 343.825 62.047 343.759 62.1191 343.708C62.1988 343.643 62.289 343.594 62.3895 343.56C62.4901 343.526 62.5925 343.506 62.6969 343.5C62.8012 343.493 62.899 343.499 62.99 343.52V343.995C62.8838 343.967 62.7671 343.959 62.64 343.973C62.5128 343.986 62.3952 344.032 62.2871 344.112C62.1884 344.182 62.1115 344.268 62.0565 344.368C62.0034 344.469 61.9664 344.578 61.9455 344.696C61.9247 344.811 61.9142 344.93 61.9142 345.051V346.594H61.4048ZM66.0794 346.679C65.791 346.679 65.5481 346.608 65.3508 346.466C65.1535 346.322 65.0036 346.127 64.9011 345.882C64.8006 345.636 64.7503 345.36 64.7503 345.054C64.7503 344.745 64.8006 344.468 64.9011 344.223C65.0036 343.978 65.1535 343.786 65.3508 343.645C65.55 343.505 65.7939 343.435 66.0823 343.435C66.3669 343.435 66.6116 343.506 66.8165 343.648C67.0234 343.789 67.1818 343.981 67.2918 344.226C67.4019 344.471 67.4569 344.747 67.4569 345.054C67.4569 345.362 67.4019 345.638 67.2918 345.882C67.1818 346.127 67.0234 346.322 66.8165 346.466C66.6116 346.608 66.3659 346.679 66.0794 346.679ZM64.6649 347.96V343.52H65.1174V345.783H65.1744V347.96H64.6649ZM66.0168 346.215C66.2198 346.215 66.3877 346.164 66.5206 346.062C66.6534 345.959 66.753 345.821 66.8194 345.646C66.8858 345.47 66.919 345.272 66.919 345.054C66.919 344.838 66.8858 344.642 66.8194 344.468C66.7549 344.293 66.6543 344.155 66.5177 344.052C66.383 343.95 66.2113 343.899 66.0026 343.899C65.8033 343.899 65.6383 343.948 65.5074 344.047C65.3764 344.143 65.2787 344.279 65.2142 344.454C65.1497 344.626 65.1174 344.826 65.1174 345.054C65.1174 345.278 65.1487 345.478 65.2114 345.655C65.2759 345.829 65.3745 345.967 65.5074 346.067C65.6402 346.166 65.81 346.215 66.0168 346.215ZM68.9546 346.679C68.725 346.679 68.5324 346.638 68.3768 346.554C68.2231 346.469 68.1064 346.357 68.0268 346.218C67.949 346.08 67.9101 345.928 67.9101 345.763C67.9101 345.602 67.9404 345.462 68.0011 345.344C68.0638 345.225 68.151 345.126 68.263 345.048C68.3749 344.969 68.5087 344.906 68.6643 344.861C68.8104 344.821 68.9735 344.787 69.1538 344.758C69.3359 344.728 69.52 344.7 69.7059 344.676C69.8919 344.651 70.0655 344.627 70.2268 344.604L70.0446 344.71C70.0503 344.437 69.9953 344.234 69.8795 344.104C69.7657 343.973 69.5684 343.907 69.2876 343.907C69.1016 343.907 68.9384 343.95 68.798 344.035C68.6595 344.119 68.5618 344.255 68.5049 344.445L68.0239 344.3C68.0979 344.031 68.2412 343.819 68.4537 343.665C68.6662 343.512 68.946 343.435 69.2933 343.435C69.5722 343.435 69.8112 343.485 70.0105 343.586C70.2116 343.684 70.3558 343.834 70.4431 344.035C70.4867 344.13 70.5142 344.234 70.5256 344.345C70.537 344.456 70.5427 344.571 70.5427 344.693V346.594H70.093V345.857L70.1983 345.925C70.0826 346.174 69.9203 346.361 69.7116 346.489C69.5048 346.616 69.2525 346.679 68.9546 346.679ZM69.0314 346.255C69.2136 346.255 69.3711 346.223 69.5039 346.158C69.6386 346.092 69.7467 346.006 69.8283 345.899C69.9099 345.791 69.963 345.674 69.9877 345.547C70.0162 345.452 70.0313 345.346 70.0332 345.231C70.037 345.113 70.0389 345.023 70.0389 344.96L70.2154 345.037C70.0503 345.06 69.8881 345.082 69.7287 345.103C69.5693 345.123 69.4185 345.146 69.2762 345.171C69.1339 345.194 69.0058 345.221 68.892 345.253C68.8085 345.28 68.7297 345.314 68.6557 345.356C68.5836 345.398 68.5248 345.452 68.4793 345.518C68.4356 345.583 68.4138 345.663 68.4138 345.76C68.4138 345.843 68.4347 345.923 68.4764 345.999C68.5201 346.075 68.5865 346.137 68.6757 346.184C68.7667 346.231 68.8853 346.255 69.0314 346.255ZM72.5264 348.045C72.3651 348.045 72.2076 348.021 72.054 347.971C71.9003 347.922 71.7589 347.847 71.6299 347.747C71.5028 347.648 71.3965 347.523 71.3111 347.371L71.775 347.126C71.8509 347.276 71.9581 347.385 72.0966 347.453C72.2371 347.522 72.3813 347.556 72.5293 347.556C72.7247 347.556 72.8869 347.52 73.0159 347.448C73.145 347.377 73.2398 347.272 73.3005 347.132C73.3632 346.991 73.3935 346.817 73.3916 346.608V345.769H73.4514V343.52H73.9011V346.614C73.9011 346.697 73.8982 346.778 73.8925 346.856C73.8887 346.934 73.8792 347.01 73.8641 347.086C73.8242 347.304 73.7455 347.484 73.6278 347.624C73.5102 347.766 73.3584 347.872 73.1725 347.94C72.9865 348.01 72.7712 348.045 72.5264 348.045ZM72.4894 346.679C72.2029 346.679 71.9572 346.608 71.7523 346.466C71.5474 346.322 71.3889 346.127 71.277 345.882C71.1669 345.638 71.1119 345.362 71.1119 345.054C71.1119 344.747 71.1669 344.471 71.277 344.226C71.3889 343.981 71.5474 343.789 71.7523 343.648C71.9572 343.506 72.202 343.435 72.4866 343.435C72.7769 343.435 73.0207 343.505 73.218 343.645C73.4153 343.786 73.5643 343.978 73.6648 344.223C73.7673 344.468 73.8185 344.745 73.8185 345.054C73.8185 345.36 73.7673 345.636 73.6648 345.882C73.5643 346.127 73.4153 346.322 73.218 346.466C73.0207 346.608 72.7778 346.679 72.4894 346.679ZM72.552 346.215C72.7588 346.215 72.9286 346.166 73.0615 346.067C73.1943 345.967 73.292 345.829 73.3546 345.655C73.4191 345.478 73.4514 345.278 73.4514 345.054C73.4514 344.826 73.4191 344.626 73.3546 344.454C73.292 344.279 73.1952 344.143 73.0643 344.047C72.9334 343.948 72.7674 343.899 72.5662 343.899C72.3575 343.899 72.1849 343.95 72.0483 344.052C71.9135 344.155 71.813 344.293 71.7466 344.468C71.6821 344.642 71.6498 344.838 71.6498 345.054C71.6498 345.272 71.683 345.47 71.7494 345.646C71.8158 345.821 71.9154 345.959 72.0483 346.062C72.183 346.164 72.3509 346.215 72.552 346.215ZM76.0277 346.679C75.726 346.679 75.4623 346.613 75.2365 346.48C75.0126 346.345 74.838 346.158 74.7128 345.919C74.5876 345.678 74.525 345.398 74.525 345.077C74.525 344.741 74.5866 344.451 74.71 344.206C74.8333 343.959 75.005 343.77 75.2251 343.637C75.4471 343.502 75.707 343.435 76.0049 343.435C76.3142 343.435 76.577 343.506 76.7933 343.648C77.0115 343.79 77.1747 343.994 77.2828 344.257C77.3929 344.521 77.4403 344.835 77.4251 345.199H76.9128V345.017C76.9071 344.64 76.8303 344.358 76.6823 344.172C76.5343 343.984 76.3142 343.89 76.022 343.89C75.7089 343.89 75.4708 343.991 75.3076 344.192C75.1445 344.393 75.0629 344.681 75.0629 345.057C75.0629 345.419 75.1445 345.7 75.3076 345.899C75.4708 346.099 75.7033 346.198 76.0049 346.198C76.208 346.198 76.3844 346.152 76.5343 346.059C76.6842 345.966 76.8018 345.832 76.8872 345.658L77.3739 345.825C77.2544 346.097 77.0741 346.307 76.8331 346.457C76.5941 346.605 76.3256 346.679 76.0277 346.679ZM74.8921 345.199V344.792H77.1633V345.199H74.8921Z" fill="#5B5A72"/>
<rect x="87.8068" y="337.165" width="30.4937" height="15.8567" rx="3.04937" fill="#FEFEFE"/>
<rect x="87.8068" y="337.165" width="30.4937" height="15.8567" rx="3.04937" stroke="#D6D6D6" stroke-width="0.406583"/>
<path d="M92.526 346.595V343.245L91.7575 343.715V342.958L92.526 342.497H93.2261V346.595H92.526ZM95.7846 346.68C95.4943 346.68 95.2382 346.619 95.0162 346.495C94.7942 346.37 94.6206 346.197 94.4953 345.975C94.372 345.753 94.3103 345.497 94.3103 345.206V343.886C94.3103 343.595 94.372 343.339 94.4953 343.117C94.6206 342.895 94.7942 342.723 95.0162 342.599C95.2382 342.474 95.4943 342.411 95.7846 342.411C96.0749 342.411 96.3301 342.474 96.5502 342.599C96.7722 342.723 96.9458 342.895 97.071 343.117C97.1963 343.339 97.2589 343.595 97.2589 343.886V345.206C97.2589 345.497 97.1963 345.753 97.071 345.975C96.9458 346.197 96.7722 346.37 96.5502 346.495C96.3301 346.619 96.0749 346.68 95.7846 346.68ZM95.7846 346.029C95.9288 346.029 96.0597 345.995 96.1774 345.926C96.295 345.856 96.388 345.763 96.4563 345.647C96.5246 345.53 96.5587 345.399 96.5587 345.255V343.834C96.5587 343.688 96.5246 343.557 96.4563 343.442C96.388 343.324 96.295 343.231 96.1774 343.163C96.0597 343.093 95.9288 343.057 95.7846 343.057C95.6404 343.057 95.5095 343.093 95.3919 343.163C95.2742 343.231 95.1812 343.324 95.1129 343.442C95.0446 343.557 95.0105 343.688 95.0105 343.834V345.255C95.0105 345.399 95.0446 345.53 95.1129 345.647C95.1812 345.763 95.2742 345.856 95.3919 345.926C95.5095 345.995 95.6404 346.029 95.7846 346.029Z" fill="#5B5A72"/>
<g clip-path="url(#clip0_1022_33423)">
<path d="M109.799 345.572L111.812 343.559L112.387 344.134L109.799 346.721L107.212 344.134L107.787 343.559L109.799 345.572Z" fill="#EEF3FD"/>
</g>
<rect width="78.5373" height="16.2633" transform="translate(468.98 336.962)" fill="url(#paint4_linear_1022_33423)"/>
<rect x="468.98" y="336.962" width="16.2633" height="16.2633" rx="3.25266" fill="#F1F0F0"/>
<g clip-path="url(#clip1_1022_33423)">
<path d="M476.637 345.095L478.65 347.108L478.075 347.683L475.487 345.095L478.075 342.508L478.65 343.082L476.637 345.095Z" fill="#EEF3FD"/>
</g>
<path d="M492.859 346.594V343.244L492.091 343.714V342.957L492.859 342.496H493.559V346.594H492.859ZM495.726 345.068V344.53H497.434V345.068H495.726ZM500.024 346.594V343.244L499.256 343.714V342.957L500.024 342.496H500.724V346.594H500.024ZM503.283 346.679C502.993 346.679 502.736 346.618 502.514 346.494C502.292 346.369 502.119 346.195 501.994 345.973C501.87 345.751 501.809 345.495 501.809 345.205V343.884C501.809 343.594 501.87 343.338 501.994 343.116C502.119 342.894 502.292 342.721 502.514 342.598C502.736 342.473 502.993 342.41 503.283 342.41C503.573 342.41 503.828 342.473 504.048 342.598C504.27 342.721 504.444 342.894 504.569 343.116C504.695 343.338 504.757 343.594 504.757 343.884V345.205C504.757 345.495 504.695 345.751 504.569 345.973C504.444 346.195 504.27 346.369 504.048 346.494C503.828 346.618 503.573 346.679 503.283 346.679ZM503.283 346.028C503.427 346.028 503.558 345.993 503.676 345.925C503.793 345.855 503.886 345.762 503.955 345.646C504.023 345.528 504.057 345.398 504.057 345.253V343.833C504.057 343.687 504.023 343.556 503.955 343.44C503.886 343.323 503.793 343.23 503.676 343.162C503.558 343.091 503.427 343.056 503.283 343.056C503.139 343.056 503.008 343.091 502.89 343.162C502.772 343.23 502.679 343.323 502.611 343.44C502.543 343.556 502.509 343.687 502.509 343.833V345.253C502.509 345.398 502.543 345.528 502.611 345.646C502.679 345.762 502.772 345.855 502.89 345.925C503.008 345.993 503.139 346.028 503.283 346.028ZM508.052 346.679C507.745 346.679 507.476 346.61 507.247 346.471C507.017 346.333 506.839 346.142 506.712 345.899C506.587 345.655 506.524 345.374 506.524 345.057C506.524 344.734 506.588 344.452 506.717 344.209C506.847 343.966 507.026 343.776 507.255 343.64C507.485 343.503 507.751 343.435 508.052 343.435C508.362 343.435 508.631 343.504 508.861 343.642C509.09 343.781 509.269 343.973 509.396 344.217C509.523 344.46 509.586 344.74 509.586 345.057C509.586 345.376 509.522 345.658 509.393 345.902C509.266 346.145 509.087 346.336 508.858 346.474C508.628 346.611 508.36 346.679 508.052 346.679ZM508.052 346.036C508.326 346.036 508.529 345.945 508.661 345.763C508.794 345.581 508.861 345.345 508.861 345.057C508.861 344.759 508.793 344.522 508.659 344.345C508.524 344.167 508.322 344.078 508.052 344.078C507.868 344.078 507.716 344.12 507.597 344.203C507.479 344.285 507.392 344.4 507.335 344.548C507.278 344.694 507.25 344.863 507.25 345.057C507.25 345.355 507.317 345.593 507.452 345.771C507.588 345.948 507.789 346.036 508.052 346.036ZM510.481 346.594V343.472C510.481 343.394 510.484 343.309 510.489 343.216C510.495 343.121 510.511 343.027 510.538 342.934C510.564 342.841 510.613 342.756 510.683 342.681C510.77 342.584 510.864 342.517 510.965 342.481C511.067 342.443 511.168 342.422 511.266 342.419C511.365 342.413 511.451 342.41 511.525 342.41H511.91V342.968H511.554C511.423 342.968 511.325 343.001 511.261 343.068C511.198 343.132 511.167 343.217 511.167 343.324V346.594H510.481ZM509.986 344.058V343.52H511.91V344.058H509.986ZM513.39 346.588V345.991L515.144 344.428C515.28 344.307 515.375 344.192 515.428 344.084C515.481 343.975 515.508 343.871 515.508 343.771C515.508 343.634 515.478 343.513 515.42 343.406C515.361 343.298 515.279 343.213 515.175 343.15C515.072 343.088 514.954 343.056 514.819 343.056C514.677 343.056 514.551 343.089 514.441 343.156C514.332 343.22 514.248 343.307 514.187 343.415C514.127 343.523 514.098 343.64 514.102 343.765H513.396C513.396 343.492 513.457 343.254 513.578 343.051C513.702 342.847 513.87 342.69 514.085 342.578C514.301 342.466 514.551 342.41 514.833 342.41C515.095 342.41 515.33 342.469 515.539 342.587C515.748 342.702 515.912 342.864 516.032 343.07C516.151 343.275 516.211 343.512 516.211 343.779C516.211 343.975 516.184 344.139 516.131 344.271C516.078 344.404 515.998 344.527 515.892 344.639C515.788 344.751 515.658 344.875 515.502 345.011L514.258 346.113L514.196 345.942H516.211V346.588H513.39ZM518.369 346.679C518.079 346.679 517.823 346.618 517.601 346.494C517.379 346.369 517.205 346.195 517.08 345.973C516.957 345.751 516.895 345.495 516.895 345.205V343.884C516.895 343.594 516.957 343.338 517.08 343.116C517.205 342.894 517.379 342.721 517.601 342.598C517.823 342.473 518.079 342.41 518.369 342.41C518.66 342.41 518.915 342.473 519.135 342.598C519.357 342.721 519.53 342.894 519.656 343.116C519.781 343.338 519.844 343.594 519.844 343.884V345.205C519.844 345.495 519.781 345.751 519.656 345.973C519.53 346.195 519.357 346.369 519.135 346.494C518.915 346.618 518.66 346.679 518.369 346.679ZM518.369 346.028C518.513 346.028 518.644 345.993 518.762 345.925C518.88 345.855 518.973 345.762 519.041 345.646C519.109 345.528 519.143 345.398 519.143 345.253V343.833C519.143 343.687 519.109 343.556 519.041 343.44C518.973 343.323 518.88 343.23 518.762 343.162C518.644 343.091 518.513 343.056 518.369 343.056C518.225 343.056 518.094 343.091 517.977 343.162C517.859 343.23 517.766 343.323 517.698 343.44C517.629 343.556 517.595 343.687 517.595 343.833V345.253C517.595 345.398 517.629 345.528 517.698 345.646C517.766 345.762 517.859 345.855 517.977 345.925C518.094 345.993 518.225 346.028 518.369 346.028ZM522.116 346.679C521.826 346.679 521.569 346.618 521.347 346.494C521.125 346.369 520.952 346.195 520.827 345.973C520.703 345.751 520.642 345.495 520.642 345.205V343.884C520.642 343.594 520.703 343.338 520.827 343.116C520.952 342.894 521.125 342.721 521.347 342.598C521.569 342.473 521.826 342.41 522.116 342.41C522.406 342.41 522.661 342.473 522.881 342.598C523.103 342.721 523.277 342.894 523.402 343.116C523.528 343.338 523.59 343.594 523.59 343.884V345.205C523.59 345.495 523.528 345.751 523.402 345.973C523.277 346.195 523.103 346.369 522.881 346.494C522.661 346.618 522.406 346.679 522.116 346.679ZM522.116 346.028C522.26 346.028 522.391 345.993 522.509 345.925C522.626 345.855 522.719 345.762 522.788 345.646C522.856 345.528 522.89 345.398 522.89 345.253V343.833C522.89 343.687 522.856 343.556 522.788 343.44C522.719 343.323 522.626 343.23 522.509 343.162C522.391 343.091 522.26 343.056 522.116 343.056C521.972 343.056 521.841 343.091 521.723 343.162C521.605 343.23 521.513 343.323 521.444 343.44C521.376 343.556 521.342 343.687 521.342 343.833V345.253C521.342 345.398 521.376 345.528 521.444 345.646C521.513 345.762 521.605 345.855 521.723 345.925C521.841 345.993 521.972 346.028 522.116 346.028Z" fill="#5B5A72"/>
<rect x="531.255" y="336.962" width="16.2633" height="16.2633" rx="3.25266" fill="white"/>
<g clip-path="url(#clip2_1022_33423)">
<path d="M539.856 345.095L537.844 343.082L538.419 342.508L541.006 345.095L538.419 347.683L537.844 347.108L539.856 345.095Z" fill="#EEF3FD"/>
</g>
</g>
<path d="M35.891 26.9031H35.2811L33.5734 24.2831V26.9031H32.988V23.4439H33.7344L35.3055 25.898V23.4439H35.891V26.9031ZM36.5092 26.259C36.5092 25.8346 36.8215 25.6004 37.2264 25.5418L37.8363 25.4491C37.9729 25.4296 38.0119 25.3613 38.0119 25.2784C38.0119 25.0783 37.8753 24.9173 37.5631 24.9173C37.2655 24.9173 37.0996 25.1076 37.0752 25.3467L36.558 25.2296C36.6019 24.8197 36.9727 24.4538 37.5582 24.4538C38.29 24.4538 38.5682 24.8685 38.5682 25.3418V26.5225C38.5682 26.7372 38.5925 26.8787 38.5974 26.9031H38.0705C38.0656 26.8884 38.0461 26.7909 38.0461 26.6006C37.9339 26.7811 37.6997 26.9763 37.3143 26.9763C36.8166 26.9763 36.5092 26.6347 36.5092 26.259ZM37.4216 26.5323C37.7387 26.5323 38.0119 26.381 38.0119 25.9175V25.8102L37.3923 25.9029C37.2167 25.9322 37.0752 26.0297 37.0752 26.2249C37.0752 26.3859 37.1972 26.5323 37.4216 26.5323ZM39.8134 26.9031H39.2523V24.527H39.7939V24.8295C39.9305 24.5856 40.2281 24.4587 40.4965 24.4587C40.8087 24.4587 41.0819 24.6002 41.2088 24.8783C41.3942 24.566 41.6723 24.4587 41.9797 24.4587C42.409 24.4587 42.8189 24.7319 42.8189 25.3613V26.9031H42.2724V25.454C42.2724 25.1759 42.1309 24.9661 41.8138 24.9661C41.5162 24.9661 41.321 25.2003 41.321 25.493V26.9031H40.7648V25.454C40.7648 25.1808 40.6282 24.9661 40.3062 24.9661C40.0037 24.9661 39.8134 25.1905 39.8134 25.493V26.9031ZM43.9071 25.454H45.0732C45.0634 25.1759 44.878 24.9271 44.4877 24.9271C44.1315 24.9271 43.9266 25.2003 43.9071 25.454ZM45.1366 26.0736L45.6148 26.2249C45.4879 26.6396 45.1122 26.9763 44.5414 26.9763C43.8973 26.9763 43.3265 26.5079 43.3265 25.7028C43.3265 24.9515 43.8827 24.4538 44.4828 24.4538C45.2147 24.4538 45.644 24.9368 45.644 25.6882C45.644 25.7809 45.6343 25.859 45.6294 25.8687H43.8925C43.9071 26.2298 44.1901 26.4884 44.5414 26.4884C44.8829 26.4884 45.0585 26.3078 45.1366 26.0736ZM48.4392 26.4688C48.7905 26.4688 49.1027 26.2103 49.1027 25.7126C49.1027 25.2198 48.7905 24.9661 48.4392 24.9661C48.0928 24.9661 47.7756 25.2198 47.7756 25.7126C47.7756 26.2054 48.0928 26.4688 48.4392 26.4688ZM48.4392 24.4538C49.1515 24.4538 49.6736 24.9856 49.6736 25.7126C49.6736 26.4445 49.1515 26.9763 48.4392 26.9763C47.7317 26.9763 47.2097 26.4445 47.2097 25.7126C47.2097 24.9856 47.7317 24.4538 48.4392 24.4538ZM51.2744 23.8537C51.1231 23.8537 50.9231 23.922 50.9231 24.2148V24.527H51.4744V25.0198H50.9231V26.9031H50.3523V25.0198H49.9375V24.527H50.3523V24.2001C50.3523 23.6683 50.6938 23.3463 51.1817 23.3463C51.3232 23.3463 51.4403 23.3756 51.4793 23.3951V23.8781C51.4451 23.8683 51.3817 23.8537 51.2744 23.8537ZM53.7707 25.0344H54.3806C54.7514 25.0344 54.9759 24.8295 54.9759 24.5026C54.9759 24.1708 54.7514 23.961 54.3806 23.961H53.7707V25.0344ZM54.4684 25.5516H53.7707V26.9031H53.1853V23.4439H54.4684C55.132 23.4439 55.5711 23.8927 55.5711 24.4977C55.5711 25.1076 55.132 25.5516 54.4684 25.5516ZM55.8108 26.259C55.8108 25.8346 56.123 25.6004 56.528 25.5418L57.1379 25.4491C57.2745 25.4296 57.3135 25.3613 57.3135 25.2784C57.3135 25.0783 57.1769 24.9173 56.8646 24.9173C56.567 24.9173 56.4011 25.1076 56.3767 25.3467L55.8596 25.2296C55.9035 24.8197 56.2743 24.4538 56.8598 24.4538C57.5916 24.4538 57.8697 24.8685 57.8697 25.3418V26.5225C57.8697 26.7372 57.8941 26.8787 57.899 26.9031H57.3721C57.3672 26.8884 57.3477 26.7909 57.3477 26.6006C57.2354 26.7811 57.0013 26.9763 56.6158 26.9763C56.1182 26.9763 55.8108 26.6347 55.8108 26.259ZM56.7232 26.5323C57.0403 26.5323 57.3135 26.381 57.3135 25.9175V25.8102L56.6939 25.9029C56.5182 25.9322 56.3767 26.0297 56.3767 26.2249C56.3767 26.3859 56.4987 26.5323 56.7232 26.5323ZM59.9444 24.5124V25.0881C59.881 25.0783 59.8175 25.0735 59.759 25.0735C59.3199 25.0735 59.1198 25.3272 59.1198 25.7711V26.9031H58.5539V24.527H59.1052V24.9076C59.2174 24.649 59.4809 24.4977 59.7931 24.4977C59.8614 24.4977 59.92 24.5075 59.9444 24.5124ZM61.2389 23.8V24.527H61.7317V25.0295H61.2389V26.1322C61.2389 26.342 61.3316 26.4298 61.5414 26.4298C61.6194 26.4298 61.7121 26.4152 61.7365 26.4103V26.8787C61.7024 26.8933 61.5951 26.9324 61.3901 26.9324C60.951 26.9324 60.6778 26.6689 60.6778 26.2249V25.0295H60.2387V24.527H60.3607C60.6144 24.527 60.7266 24.366 60.7266 24.1562V23.8H61.2389ZM62.8363 25.5321V26.9031H62.2703V24.527H62.8216V24.8441C62.9778 24.5709 63.2607 24.4587 63.5242 24.4587C64.1048 24.4587 64.3829 24.8783 64.3829 25.4003V26.9031H63.8169V25.4979C63.8169 25.2052 63.6852 24.971 63.329 24.971C63.007 24.971 62.8363 25.2198 62.8363 25.5321ZM65.4671 25.454H66.6332C66.6234 25.1759 66.438 24.9271 66.0477 24.9271C65.6915 24.9271 65.4866 25.2003 65.4671 25.454ZM66.6966 26.0736L67.1748 26.2249C67.0479 26.6396 66.6722 26.9763 66.1014 26.9763C65.4573 26.9763 64.8865 26.5079 64.8865 25.7028C64.8865 24.9515 65.4427 24.4538 66.0428 24.4538C66.7747 24.4538 67.204 24.9368 67.204 25.6882C67.204 25.7809 67.1943 25.859 67.1894 25.8687H65.4525C65.4671 26.2298 65.7501 26.4884 66.1014 26.4884C66.4429 26.4884 66.6185 26.3078 66.6966 26.0736ZM69.1354 24.5124V25.0881C69.072 25.0783 69.0085 25.0735 68.95 25.0735C68.5109 25.0735 68.3108 25.3272 68.3108 25.7711V26.9031H67.7449V24.527H68.2962V24.9076C68.4084 24.649 68.6719 24.4977 68.9841 24.4977C69.0524 24.4977 69.111 24.5075 69.1354 24.5124Z" fill="#121212"/>
<path d="M128.74 26.2769H129.457C130.157 26.2769 130.738 25.8273 130.738 24.8937C130.738 23.9488 130.163 23.4935 129.463 23.4935H128.74V26.2769ZM129.48 26.9031H128.057V22.8673H129.486C130.584 22.8673 131.45 23.5959 131.45 24.8937C131.45 26.1859 130.573 26.9031 129.48 26.9031ZM131.937 26.1517C131.937 25.6565 132.302 25.3833 132.774 25.315L133.486 25.2068C133.645 25.184 133.69 25.1044 133.69 25.0076C133.69 24.7742 133.531 24.5864 133.167 24.5864C132.82 24.5864 132.626 24.8084 132.598 25.0873L131.994 24.9507C132.045 24.4725 132.478 24.0456 133.161 24.0456C134.015 24.0456 134.339 24.5294 134.339 25.0816V26.4591C134.339 26.7095 134.368 26.8746 134.374 26.9031H133.759C133.753 26.886 133.73 26.7722 133.73 26.5502C133.599 26.7608 133.326 26.9885 132.877 26.9885C132.296 26.9885 131.937 26.59 131.937 26.1517ZM133.002 26.4705C133.372 26.4705 133.69 26.294 133.69 25.7533V25.628L132.968 25.7362C132.763 25.7703 132.598 25.8842 132.598 26.1119C132.598 26.2997 132.74 26.4705 133.002 26.4705ZM135.963 23.2829V24.131H136.538V24.7173H135.963V26.0037C135.963 26.2485 136.071 26.3509 136.316 26.3509C136.407 26.3509 136.515 26.3339 136.544 26.3282V26.8746C136.504 26.8917 136.379 26.9372 136.14 26.9372C135.627 26.9372 135.309 26.6299 135.309 26.1119V24.7173H134.796V24.131H134.939C135.235 24.131 135.366 23.9432 135.366 23.6984V23.2829H135.963ZM137.65 25.2125H139.01C138.999 24.8881 138.783 24.5978 138.327 24.5978C137.912 24.5978 137.673 24.9165 137.65 25.2125ZM139.084 25.9354L139.642 26.1119C139.494 26.5957 139.056 26.9885 138.39 26.9885C137.638 26.9885 136.972 26.442 136.972 25.5028C136.972 24.6262 137.621 24.0456 138.322 24.0456C139.175 24.0456 139.676 24.6091 139.676 25.4857C139.676 25.5939 139.665 25.685 139.659 25.6963H137.633C137.65 26.1176 137.98 26.4192 138.39 26.4192C138.788 26.4192 138.993 26.2086 139.084 25.9354ZM141.719 27.1308V24.131H142.379V27.182C142.379 27.7 142.066 28.07 141.554 28.07C141.332 28.07 141.207 28.0301 141.178 28.0187V27.4723C141.207 27.478 141.304 27.4894 141.378 27.4894C141.628 27.4894 141.719 27.3584 141.719 27.1308ZM141.617 23.1519C141.617 22.9129 141.81 22.7193 142.044 22.7193C142.283 22.7193 142.476 22.9129 142.476 23.1519C142.476 23.3853 142.283 23.5789 142.044 23.5789C141.81 23.5789 141.617 23.3853 141.617 23.1519ZM144.449 26.3965C144.859 26.3965 145.223 26.0948 145.223 25.5142C145.223 24.9393 144.859 24.6433 144.449 24.6433C144.045 24.6433 143.675 24.9393 143.675 25.5142C143.675 26.0891 144.045 26.3965 144.449 26.3965ZM144.449 24.0456C145.28 24.0456 145.889 24.6661 145.889 25.5142C145.889 26.368 145.28 26.9885 144.449 26.9885C143.624 26.9885 143.015 26.368 143.015 25.5142C143.015 24.6661 143.624 24.0456 144.449 24.0456ZM147.182 26.9031H146.527V24.131H147.182V26.9031ZM146.425 23.1576C146.425 22.9186 146.619 22.725 146.852 22.725C147.091 22.725 147.285 22.9186 147.285 23.1576C147.285 23.3967 147.091 23.5845 146.852 23.5845C146.619 23.5845 146.425 23.3967 146.425 23.1576ZM148.694 25.3036V26.9031H148.034V24.131H148.677V24.501C148.859 24.1822 149.189 24.0513 149.497 24.0513C150.174 24.0513 150.499 24.5408 150.499 25.1499V26.9031H149.838V25.2637C149.838 24.9222 149.685 24.649 149.269 24.649C148.893 24.649 148.694 24.9393 148.694 25.3036ZM151.763 25.2125H153.124C153.113 24.8881 152.896 24.5978 152.441 24.5978C152.025 24.5978 151.786 24.9165 151.763 25.2125ZM153.198 25.9354L153.756 26.1119C153.608 26.5957 153.169 26.9885 152.503 26.9885C151.752 26.9885 151.086 26.442 151.086 25.5028C151.086 24.6262 151.735 24.0456 152.435 24.0456C153.289 24.0456 153.79 24.6091 153.79 25.4857C153.79 25.5939 153.779 25.685 153.773 25.6963H151.746C151.763 26.1176 152.094 26.4192 152.503 26.4192C152.902 26.4192 153.107 26.2086 153.198 25.9354ZM154.865 25.5085C154.865 26.0379 155.161 26.3908 155.611 26.3908C156.043 26.3908 156.345 26.0322 156.345 25.5028C156.345 24.9734 156.049 24.6433 155.616 24.6433C155.184 24.6433 154.865 24.9791 154.865 25.5085ZM156.982 22.782V26.3965C156.982 26.6469 157.005 26.8575 157.011 26.9031H156.379C156.368 26.8405 156.351 26.6583 156.351 26.5445C156.22 26.7778 155.929 26.9714 155.537 26.9714C154.74 26.9714 154.205 26.3452 154.205 25.5085C154.205 24.7116 154.745 24.057 155.525 24.057C156.009 24.057 156.254 24.279 156.339 24.4554V22.782H156.982Z" fill="#121212"/>
<path d="M217.85 26.9885C216.763 26.9885 215.812 26.2029 215.812 24.8881C215.812 23.5732 216.797 22.782 217.844 22.782C218.869 22.782 219.478 23.3853 219.66 24.0911L219.017 24.3075C218.897 23.8179 218.522 23.4252 217.844 23.4252C217.178 23.4252 216.512 23.909 216.512 24.8881C216.512 25.833 217.161 26.3339 217.85 26.3339C218.527 26.3339 218.915 25.9013 219.051 25.4459L219.677 25.6508C219.495 26.3339 218.88 26.9885 217.85 26.9885ZM220.048 26.1517C220.048 25.6565 220.413 25.3833 220.885 25.315L221.597 25.2068C221.756 25.184 221.802 25.1044 221.802 25.0076C221.802 24.7742 221.642 24.5864 221.278 24.5864C220.931 24.5864 220.737 24.8084 220.709 25.0873L220.105 24.9507C220.157 24.4725 220.589 24.0456 221.272 24.0456C222.126 24.0456 222.451 24.5294 222.451 25.0816V26.4591C222.451 26.7095 222.479 26.8746 222.485 26.9031H221.87C221.864 26.886 221.842 26.7722 221.842 26.5502C221.711 26.7608 221.437 26.9885 220.988 26.9885C220.407 26.9885 220.048 26.59 220.048 26.1517ZM221.113 26.4705C221.483 26.4705 221.802 26.294 221.802 25.7533V25.628L221.079 25.7362C220.874 25.7703 220.709 25.8842 220.709 26.1119C220.709 26.2997 220.851 26.4705 221.113 26.4705ZM223.903 27.9846H223.249V24.131H223.886V24.5067C224.023 24.2676 224.342 24.0684 224.769 24.0684C225.588 24.0684 226.049 24.6945 226.049 25.5142C226.049 26.3452 225.543 26.9714 224.746 26.9714C224.347 26.9714 224.046 26.8006 223.903 26.59V27.9846ZM225.389 25.5142C225.389 24.9962 225.087 24.6547 224.643 24.6547C224.211 24.6547 223.898 24.9962 223.898 25.5142C223.898 26.0436 224.211 26.3851 224.643 26.3851C225.082 26.3851 225.389 26.0436 225.389 25.5142ZM227.339 26.9031H226.684V24.131H227.339V26.9031ZM226.582 23.1576C226.582 22.9186 226.775 22.725 227.009 22.725C227.248 22.725 227.441 22.9186 227.441 23.1576C227.441 23.3967 227.248 23.5845 227.009 23.5845C226.775 23.5845 226.582 23.3967 226.582 23.1576ZM229.027 23.2829V24.131H229.602V24.7173H229.027V26.0037C229.027 26.2485 229.135 26.3509 229.38 26.3509C229.471 26.3509 229.579 26.3339 229.608 26.3282V26.8746C229.568 26.8917 229.443 26.9372 229.204 26.9372C228.691 26.9372 228.373 26.6299 228.373 26.1119V24.7173H227.86V24.131H228.003C228.299 24.131 228.43 23.9432 228.43 23.6984V23.2829H229.027ZM230.115 26.1517C230.115 25.6565 230.48 25.3833 230.952 25.315L231.664 25.2068C231.823 25.184 231.869 25.1044 231.869 25.0076C231.869 24.7742 231.709 24.5864 231.345 24.5864C230.998 24.5864 230.804 24.8084 230.776 25.0873L230.172 24.9507C230.224 24.4725 230.656 24.0456 231.339 24.0456C232.193 24.0456 232.517 24.5294 232.517 25.0816V26.4591C232.517 26.7095 232.546 26.8746 232.552 26.9031H231.937C231.931 26.886 231.908 26.7722 231.908 26.5502C231.777 26.7608 231.504 26.9885 231.055 26.9885C230.474 26.9885 230.115 26.59 230.115 26.1517ZM231.18 26.4705C231.55 26.4705 231.869 26.294 231.869 25.7533V25.628L231.146 25.7362C230.941 25.7703 230.776 25.8842 230.776 26.1119C230.776 26.2997 230.918 26.4705 231.18 26.4705ZM233.976 26.9031H233.316V22.782H233.976V26.9031ZM237.446 24.6547C237.042 24.6547 236.684 24.9564 236.684 25.5142C236.684 26.072 237.042 26.3851 237.458 26.3851C237.89 26.3851 238.09 26.0834 238.152 25.8728L238.733 26.0834C238.602 26.516 238.186 26.9885 237.458 26.9885C236.644 26.9885 236.023 26.3566 236.023 25.5142C236.023 24.6604 236.644 24.0456 237.441 24.0456C238.186 24.0456 238.596 24.5124 238.71 24.9564L238.118 25.1727C238.055 24.9279 237.868 24.6547 237.446 24.6547ZM240.509 26.3965C240.919 26.3965 241.284 26.0948 241.284 25.5142C241.284 24.9393 240.919 24.6433 240.509 24.6433C240.105 24.6433 239.735 24.9393 239.735 25.5142C239.735 26.0891 240.105 26.3965 240.509 26.3965ZM240.509 24.0456C241.34 24.0456 241.95 24.6661 241.95 25.5142C241.95 26.368 241.34 26.9885 240.509 26.9885C239.684 26.9885 239.075 26.368 239.075 25.5142C239.075 24.6661 239.684 24.0456 240.509 24.0456ZM243.242 26.9031H242.588V24.131H243.219V24.4839C243.379 24.1993 243.726 24.0513 244.039 24.0513C244.403 24.0513 244.722 24.2164 244.87 24.5408C245.087 24.1765 245.411 24.0513 245.77 24.0513C246.27 24.0513 246.749 24.3701 246.749 25.1044V26.9031H246.111V25.2125C246.111 24.8881 245.946 24.6433 245.576 24.6433C245.229 24.6433 245.001 24.9165 245.001 25.258V26.9031H244.352V25.2125C244.352 24.8937 244.193 24.6433 243.817 24.6433C243.464 24.6433 243.242 24.9051 243.242 25.258V26.9031ZM248.212 26.9031H247.557V24.131H248.189V24.4839C248.348 24.1993 248.696 24.0513 249.009 24.0513C249.373 24.0513 249.692 24.2164 249.84 24.5408C250.056 24.1765 250.38 24.0513 250.739 24.0513C251.24 24.0513 251.718 24.3701 251.718 25.1044V26.9031H251.081V25.2125C251.081 24.8881 250.916 24.6433 250.546 24.6433C250.198 24.6433 249.971 24.9165 249.971 25.258V26.9031H249.322V25.2125C249.322 24.8937 249.162 24.6433 248.787 24.6433C248.434 24.6433 248.212 24.9051 248.212 25.258V26.9031ZM253.181 26.9031H252.527V24.131H253.181V26.9031ZM252.424 23.1576C252.424 22.9186 252.618 22.725 252.851 22.725C253.09 22.725 253.284 22.9186 253.284 23.1576C253.284 23.3967 253.09 23.5845 252.851 23.5845C252.618 23.5845 252.424 23.3967 252.424 23.1576ZM254.87 23.2829V24.131H255.445V24.7173H254.87V26.0037C254.87 26.2485 254.978 26.3509 255.223 26.3509C255.314 26.3509 255.422 26.3339 255.45 26.3282V26.8746C255.411 26.8917 255.285 26.9372 255.046 26.9372C254.534 26.9372 254.215 26.6299 254.215 26.1119V24.7173H253.703V24.131H253.845C254.141 24.131 254.272 23.9432 254.272 23.6984V23.2829H254.87ZM256.949 23.2829V24.131H257.524V24.7173H256.949V26.0037C256.949 26.2485 257.057 26.3509 257.302 26.3509C257.393 26.3509 257.501 26.3339 257.529 26.3282V26.8746C257.49 26.8917 257.364 26.9372 257.125 26.9372C256.613 26.9372 256.294 26.6299 256.294 26.1119V24.7173H255.782V24.131H255.924C256.22 24.131 256.351 23.9432 256.351 23.6984V23.2829H256.949ZM258.635 25.2125H259.996C259.984 24.8881 259.768 24.5978 259.313 24.5978C258.897 24.5978 258.658 24.9165 258.635 25.2125ZM260.07 25.9354L260.628 26.1119C260.48 26.5957 260.041 26.9885 259.375 26.9885C258.624 26.9885 257.958 26.442 257.958 25.5028C257.958 24.6262 258.607 24.0456 259.307 24.0456C260.161 24.0456 260.662 24.6091 260.662 25.4857C260.662 25.5939 260.65 25.685 260.645 25.6963H258.618C258.635 26.1176 258.966 26.4192 259.375 26.4192C259.774 26.4192 259.979 26.2086 260.07 25.9354ZM261.737 25.5085C261.737 26.0379 262.033 26.3908 262.482 26.3908C262.915 26.3908 263.217 26.0322 263.217 25.5028C263.217 24.9734 262.921 24.6433 262.488 24.6433C262.056 24.6433 261.737 24.9791 261.737 25.5085ZM263.854 22.782V26.3965C263.854 26.6469 263.877 26.8575 263.883 26.9031H263.251C263.24 26.8405 263.222 26.6583 263.222 26.5445C263.092 26.7778 262.801 26.9714 262.408 26.9714C261.612 26.9714 261.077 26.3452 261.077 25.5085C261.077 24.7116 261.617 24.057 262.397 24.057C262.881 24.057 263.126 24.279 263.211 24.4554V22.782H263.854Z" fill="#121212"/>
<path d="M324.85 26.9885C323.763 26.9885 322.812 26.2029 322.812 24.8881C322.812 23.5732 323.797 22.782 324.844 22.782C325.869 22.782 326.478 23.3853 326.66 24.0911L326.017 24.3075C325.897 23.8179 325.522 23.4252 324.844 23.4252C324.178 23.4252 323.512 23.909 323.512 24.8881C323.512 25.833 324.161 26.3339 324.85 26.3339C325.527 26.3339 325.915 25.9013 326.051 25.4459L326.677 25.6508C326.495 26.3339 325.88 26.9885 324.85 26.9885ZM327.048 26.1517C327.048 25.6565 327.413 25.3833 327.885 25.315L328.597 25.2068C328.756 25.184 328.802 25.1044 328.802 25.0076C328.802 24.7742 328.642 24.5864 328.278 24.5864C327.931 24.5864 327.737 24.8084 327.709 25.0873L327.105 24.9507C327.157 24.4725 327.589 24.0456 328.272 24.0456C329.126 24.0456 329.451 24.5294 329.451 25.0816V26.4591C329.451 26.7095 329.479 26.8746 329.485 26.9031H328.87C328.864 26.886 328.842 26.7722 328.842 26.5502C328.711 26.7608 328.437 26.9885 327.988 26.9885C327.407 26.9885 327.048 26.59 327.048 26.1517ZM328.113 26.4705C328.483 26.4705 328.802 26.294 328.802 25.7533V25.628L328.079 25.7362C327.874 25.7703 327.709 25.8842 327.709 26.1119C327.709 26.2997 327.851 26.4705 328.113 26.4705ZM330.903 27.9846H330.249V24.131H330.886V24.5067C331.023 24.2676 331.342 24.0684 331.769 24.0684C332.588 24.0684 333.049 24.6945 333.049 25.5142C333.049 26.3452 332.543 26.9714 331.746 26.9714C331.347 26.9714 331.046 26.8006 330.903 26.59V27.9846ZM332.389 25.5142C332.389 24.9962 332.087 24.6547 331.643 24.6547C331.211 24.6547 330.898 24.9962 330.898 25.5142C330.898 26.0436 331.211 26.3851 331.643 26.3851C332.082 26.3851 332.389 26.0436 332.389 25.5142ZM334.339 26.9031H333.684V24.131H334.339V26.9031ZM333.582 23.1576C333.582 22.9186 333.775 22.725 334.009 22.725C334.248 22.725 334.441 22.9186 334.441 23.1576C334.441 23.3967 334.248 23.5845 334.009 23.5845C333.775 23.5845 333.582 23.3967 333.582 23.1576ZM336.027 23.2829V24.131H336.602V24.7173H336.027V26.0037C336.027 26.2485 336.135 26.3509 336.38 26.3509C336.471 26.3509 336.579 26.3339 336.608 26.3282V26.8746C336.568 26.8917 336.443 26.9372 336.204 26.9372C335.691 26.9372 335.373 26.6299 335.373 26.1119V24.7173H334.86V24.131H335.003C335.299 24.131 335.43 23.9432 335.43 23.6984V23.2829H336.027ZM337.115 26.1517C337.115 25.6565 337.48 25.3833 337.952 25.315L338.664 25.2068C338.823 25.184 338.869 25.1044 338.869 25.0076C338.869 24.7742 338.709 24.5864 338.345 24.5864C337.998 24.5864 337.804 24.8084 337.776 25.0873L337.172 24.9507C337.224 24.4725 337.656 24.0456 338.339 24.0456C339.193 24.0456 339.517 24.5294 339.517 25.0816V26.4591C339.517 26.7095 339.546 26.8746 339.552 26.9031H338.937C338.931 26.886 338.908 26.7722 338.908 26.5502C338.777 26.7608 338.504 26.9885 338.055 26.9885C337.474 26.9885 337.115 26.59 337.115 26.1517ZM338.18 26.4705C338.55 26.4705 338.869 26.294 338.869 25.7533V25.628L338.146 25.7362C337.941 25.7703 337.776 25.8842 337.776 26.1119C337.776 26.2997 337.918 26.4705 338.18 26.4705ZM340.976 26.9031H340.316V22.782H340.976V26.9031ZM343.98 26.2769H344.697C345.397 26.2769 345.977 25.8273 345.977 24.8937C345.977 23.9488 345.403 23.4935 344.702 23.4935H343.98V26.2769ZM344.72 26.9031H343.296V22.8673H344.725C345.824 22.8673 346.689 23.5959 346.689 24.8937C346.689 26.1859 345.812 26.9031 344.72 26.9031ZM347.82 25.2125H349.18C349.169 24.8881 348.952 24.5978 348.497 24.5978C348.081 24.5978 347.842 24.9165 347.82 25.2125ZM349.254 25.9354L349.812 26.1119C349.664 26.5957 349.226 26.9885 348.56 26.9885C347.808 26.9885 347.142 26.442 347.142 25.5028C347.142 24.6262 347.791 24.0456 348.491 24.0456C349.345 24.0456 349.846 24.6091 349.846 25.4857C349.846 25.5939 349.835 25.685 349.829 25.6963H347.803C347.82 26.1176 348.15 26.4192 348.56 26.4192C348.958 26.4192 349.163 26.2086 349.254 25.9354ZM351.132 27.9846H350.477V24.131H351.115V24.5067C351.251 24.2676 351.57 24.0684 351.997 24.0684C352.817 24.0684 353.278 24.6945 353.278 25.5142C353.278 26.3452 352.771 26.9714 351.974 26.9714C351.576 26.9714 351.274 26.8006 351.132 26.59V27.9846ZM352.617 25.5142C352.617 24.9962 352.316 24.6547 351.872 24.6547C351.439 24.6547 351.126 24.9962 351.126 25.5142C351.126 26.0436 351.439 26.3851 351.872 26.3851C352.31 26.3851 352.617 26.0436 352.617 25.5142ZM354.573 26.9031H353.912V22.782H354.573V26.9031ZM356.642 26.3965C357.052 26.3965 357.417 26.0948 357.417 25.5142C357.417 24.9393 357.052 24.6433 356.642 24.6433C356.238 24.6433 355.868 24.9393 355.868 25.5142C355.868 26.0891 356.238 26.3965 356.642 26.3965ZM356.642 24.0456C357.474 24.0456 358.083 24.6661 358.083 25.5142C358.083 26.368 357.474 26.9885 356.642 26.9885C355.817 26.9885 355.208 26.368 355.208 25.5142C355.208 24.6661 355.817 24.0456 356.642 24.0456ZM359.435 28.0244H358.729L359.395 26.5729L358.211 24.131H358.957L359.754 25.8842L360.5 24.131H361.2L359.435 28.0244ZM362.017 25.2125H363.377C363.366 24.8881 363.149 24.5978 362.694 24.5978C362.279 24.5978 362.039 24.9165 362.017 25.2125ZM363.451 25.9354L364.009 26.1119C363.861 26.5957 363.423 26.9885 362.757 26.9885C362.005 26.9885 361.339 26.442 361.339 25.5028C361.339 24.6262 361.988 24.0456 362.688 24.0456C363.542 24.0456 364.043 24.6091 364.043 25.4857C364.043 25.5939 364.032 25.685 364.026 25.6963H362C362.017 26.1176 362.347 26.4192 362.757 26.4192C363.155 26.4192 363.36 26.2086 363.451 25.9354ZM365.118 25.5085C365.118 26.0379 365.414 26.3908 365.864 26.3908C366.296 26.3908 366.598 26.0322 366.598 25.5028C366.598 24.9734 366.302 24.6433 365.869 24.6433C365.437 24.6433 365.118 24.9791 365.118 25.5085ZM367.236 22.782V26.3965C367.236 26.6469 367.258 26.8575 367.264 26.9031H366.632C366.621 26.8405 366.604 26.6583 366.604 26.5445C366.473 26.7778 366.183 26.9714 365.79 26.9714C364.993 26.9714 364.458 26.3452 364.458 25.5085C364.458 24.7116 364.999 24.057 365.778 24.057C366.262 24.057 366.507 24.279 366.592 24.4554V22.782H367.236Z" fill="#121212"/>
<path d="M429.095 26.9031L428.247 25.3093H427.746V26.9031H427.057V22.8673H428.605C429.385 22.8673 429.869 23.4081 429.869 24.0911C429.869 24.6661 429.522 25.1044 428.958 25.241L429.869 26.9031H429.095ZM427.746 24.7059H428.48C428.901 24.7059 429.175 24.4611 429.175 24.0911C429.175 23.7155 428.901 23.4707 428.48 23.4707H427.746V24.7059ZM430.908 25.2125H432.268C432.257 24.8881 432.04 24.5978 431.585 24.5978C431.169 24.5978 430.93 24.9165 430.908 25.2125ZM432.342 25.9354L432.9 26.1119C432.752 26.5957 432.314 26.9885 431.648 26.9885C430.896 26.9885 430.23 26.442 430.23 25.5028C430.23 24.6262 430.879 24.0456 431.579 24.0456C432.433 24.0456 432.934 24.6091 432.934 25.4857C432.934 25.5939 432.923 25.685 432.917 25.6963H430.891C430.908 26.1176 431.238 26.4192 431.648 26.4192C432.046 26.4192 432.251 26.2086 432.342 25.9354ZM434.22 26.9031H433.565V24.131H434.197V24.4839C434.356 24.1993 434.703 24.0513 435.017 24.0513C435.381 24.0513 435.7 24.2164 435.848 24.5408C436.064 24.1765 436.388 24.0513 436.747 24.0513C437.248 24.0513 437.726 24.3701 437.726 25.1044V26.9031H437.088V25.2125C437.088 24.8881 436.923 24.6433 436.553 24.6433C436.206 24.6433 435.979 24.9165 435.979 25.258V26.9031H435.33V25.2125C435.33 24.8937 435.17 24.6433 434.795 24.6433C434.442 24.6433 434.22 24.9051 434.22 25.258V26.9031ZM438.364 26.1517C438.364 25.6565 438.728 25.3833 439.201 25.315L439.912 25.2068C440.071 25.184 440.117 25.1044 440.117 25.0076C440.117 24.7742 439.958 24.5864 439.593 24.5864C439.246 24.5864 439.053 24.8084 439.024 25.0873L438.421 24.9507C438.472 24.4725 438.905 24.0456 439.588 24.0456C440.441 24.0456 440.766 24.5294 440.766 25.0816V26.4591C440.766 26.7095 440.794 26.8746 440.8 26.9031H440.185C440.18 26.886 440.157 26.7722 440.157 26.5502C440.026 26.7608 439.753 26.9885 439.303 26.9885C438.722 26.9885 438.364 26.59 438.364 26.1517ZM439.428 26.4705C439.798 26.4705 440.117 26.294 440.117 25.7533V25.628L439.394 25.7362C439.189 25.7703 439.024 25.8842 439.024 26.1119C439.024 26.2997 439.166 26.4705 439.428 26.4705ZM442.219 26.9031H441.564V24.131H442.219V26.9031ZM441.462 23.1576C441.462 22.9186 441.655 22.725 441.889 22.725C442.128 22.725 442.321 22.9186 442.321 23.1576C442.321 23.3967 442.128 23.5845 441.889 23.5845C441.655 23.5845 441.462 23.3967 441.462 23.1576ZM443.731 25.3036V26.9031H443.07V24.131H443.714V24.501C443.896 24.1822 444.226 24.0513 444.533 24.0513C445.211 24.0513 445.535 24.5408 445.535 25.1499V26.9031H444.875V25.2637C444.875 24.9222 444.721 24.649 444.306 24.649C443.93 24.649 443.731 24.9393 443.731 25.3036ZM446.994 26.9031H446.339V24.131H446.994V26.9031ZM446.237 23.1576C446.237 22.9186 446.43 22.725 446.663 22.725C446.903 22.725 447.096 22.9186 447.096 23.1576C447.096 23.3967 446.903 23.5845 446.663 23.5845C446.43 23.5845 446.237 23.3967 446.237 23.1576ZM448.506 25.3036V26.9031H447.845V24.131H448.489V24.501C448.671 24.1822 449.001 24.0513 449.308 24.0513C449.986 24.0513 450.31 24.5408 450.31 25.1499V26.9031H449.65V25.2637C449.65 24.9222 449.496 24.649 449.081 24.649C448.705 24.649 448.506 24.9393 448.506 25.3036ZM450.915 27.0568L451.524 26.8974C451.569 27.2389 451.837 27.4951 452.218 27.4951C452.742 27.4951 453.004 27.2275 453.004 26.664V26.3737C452.884 26.59 452.605 26.7778 452.201 26.7778C451.461 26.7778 450.92 26.2086 450.92 25.4288C450.92 24.6888 451.438 24.0798 452.201 24.0798C452.634 24.0798 452.901 24.2562 453.021 24.4839V24.131H453.658V26.6412C453.658 27.3812 453.277 28.07 452.235 28.07C451.501 28.07 450.989 27.6146 450.915 27.0568ZM452.309 26.2143C452.731 26.2143 453.021 25.9069 453.021 25.4288C453.021 24.9564 452.719 24.649 452.309 24.649C451.888 24.649 451.586 24.9564 451.586 25.4288C451.586 25.9126 451.877 26.2143 452.309 26.2143ZM457.085 24.6547C456.68 24.6547 456.322 24.9564 456.322 25.5142C456.322 26.072 456.68 26.3851 457.096 26.3851C457.529 26.3851 457.728 26.0834 457.79 25.8728L458.371 26.0834C458.24 26.516 457.825 26.9885 457.096 26.9885C456.282 26.9885 455.662 26.3566 455.662 25.5142C455.662 24.6604 456.282 24.0456 457.079 24.0456C457.825 24.0456 458.234 24.5124 458.348 24.9564L457.756 25.1727C457.694 24.9279 457.506 24.6547 457.085 24.6547ZM458.77 26.1517C458.77 25.6565 459.134 25.3833 459.607 25.315L460.318 25.2068C460.478 25.184 460.523 25.1044 460.523 25.0076C460.523 24.7742 460.364 24.5864 459.999 24.5864C459.652 24.5864 459.459 24.8084 459.43 25.0873L458.827 24.9507C458.878 24.4725 459.311 24.0456 459.994 24.0456C460.848 24.0456 461.172 24.5294 461.172 25.0816V26.4591C461.172 26.7095 461.201 26.8746 461.206 26.9031H460.591C460.586 26.886 460.563 26.7722 460.563 26.5502C460.432 26.7608 460.159 26.9885 459.709 26.9885C459.129 26.9885 458.77 26.59 458.77 26.1517ZM459.834 26.4705C460.204 26.4705 460.523 26.294 460.523 25.7533V25.628L459.8 25.7362C459.595 25.7703 459.43 25.8842 459.43 26.1119C459.43 26.2997 459.573 26.4705 459.834 26.4705ZM462.625 27.9846H461.97V24.131H462.608V24.5067C462.744 24.2676 463.063 24.0684 463.49 24.0684C464.31 24.0684 464.771 24.6945 464.771 25.5142C464.771 26.3452 464.264 26.9714 463.467 26.9714C463.069 26.9714 462.767 26.8006 462.625 26.59V27.9846ZM464.11 25.5142C464.11 24.9962 463.809 24.6547 463.365 24.6547C462.932 24.6547 462.619 24.9962 462.619 25.5142C462.619 26.0436 462.932 26.3851 463.365 26.3851C463.803 26.3851 464.11 26.0436 464.11 25.5142ZM466.06 26.9031H465.406V24.131H466.06V26.9031ZM465.303 23.1576C465.303 22.9186 465.497 22.725 465.73 22.725C465.969 22.725 466.163 22.9186 466.163 23.1576C466.163 23.3967 465.969 23.5845 465.73 23.5845C465.497 23.5845 465.303 23.3967 465.303 23.1576ZM467.749 23.2829V24.131H468.324V24.7173H467.749V26.0037C467.749 26.2485 467.857 26.3509 468.102 26.3509C468.193 26.3509 468.301 26.3339 468.329 26.3282V26.8746C468.289 26.8917 468.164 26.9372 467.925 26.9372C467.413 26.9372 467.094 26.6299 467.094 26.1119V24.7173H466.582V24.131H466.724C467.02 24.131 467.151 23.9432 467.151 23.6984V23.2829H467.749ZM468.837 26.1517C468.837 25.6565 469.201 25.3833 469.674 25.315L470.385 25.2068C470.544 25.184 470.59 25.1044 470.59 25.0076C470.59 24.7742 470.431 24.5864 470.066 24.5864C469.719 24.5864 469.526 24.8084 469.497 25.0873L468.894 24.9507C468.945 24.4725 469.378 24.0456 470.061 24.0456C470.914 24.0456 471.239 24.5294 471.239 25.0816V26.4591C471.239 26.7095 471.267 26.8746 471.273 26.9031H470.658C470.653 26.886 470.63 26.7722 470.63 26.5502C470.499 26.7608 470.226 26.9885 469.776 26.9885C469.195 26.9885 468.837 26.59 468.837 26.1517ZM469.901 26.4705C470.271 26.4705 470.59 26.294 470.59 25.7533V25.628L469.867 25.7362C469.662 25.7703 469.497 25.8842 469.497 26.1119C469.497 26.2997 469.639 26.4705 469.901 26.4705ZM472.697 26.9031H472.037V22.782H472.697V26.9031Z" fill="#121212"/>
<path d="M534.354 26.9031L534.027 26.0346H532.564L532.242 26.9031H531.622L532.969 23.4439H533.647L534.993 26.9031H534.354ZM533.296 24.0781L532.769 25.493H533.822L533.296 24.0781ZM536.395 24.9759C536.048 24.9759 535.741 25.2345 535.741 25.7126C535.741 26.1907 536.048 26.4591 536.404 26.4591C536.775 26.4591 536.946 26.2005 537 26.02L537.497 26.2005C537.385 26.5713 537.029 26.9763 536.404 26.9763C535.707 26.9763 535.175 26.4347 535.175 25.7126C535.175 24.9808 535.707 24.4538 536.39 24.4538C537.029 24.4538 537.38 24.8539 537.478 25.2345L536.97 25.4199C536.917 25.2101 536.756 24.9759 536.395 24.9759ZM538.717 23.8V24.527H539.21V25.0295H538.717V26.1322C538.717 26.342 538.81 26.4298 539.019 26.4298C539.098 26.4298 539.19 26.4152 539.215 26.4103V26.8787C539.181 26.8933 539.073 26.9324 538.868 26.9324C538.429 26.9324 538.156 26.6689 538.156 26.2249V25.0295H537.717V24.527H537.839C538.092 24.527 538.205 24.366 538.205 24.1562V23.8H538.717ZM540.352 26.9031H539.791V24.527H540.352V26.9031ZM539.703 23.6927C539.703 23.4878 539.869 23.3219 540.069 23.3219C540.274 23.3219 540.44 23.4878 540.44 23.6927C540.44 23.8976 540.274 24.0586 540.069 24.0586C539.869 24.0586 539.703 23.8976 539.703 23.6927ZM542.127 26.4688C542.478 26.4688 542.79 26.2103 542.79 25.7126C542.79 25.2198 542.478 24.9661 542.127 24.9661C541.78 24.9661 541.463 25.2198 541.463 25.7126C541.463 26.2054 541.78 26.4688 542.127 26.4688ZM542.127 24.4538C542.839 24.4538 543.361 24.9856 543.361 25.7126C543.361 26.4445 542.839 26.9763 542.127 26.9763C541.419 26.9763 540.897 26.4445 540.897 25.7126C540.897 24.9856 541.419 24.4538 542.127 24.4538ZM544.474 25.5321V26.9031H543.908V24.527H544.459V24.8441C544.615 24.5709 544.898 24.4587 545.162 24.4587C545.742 24.4587 546.021 24.8783 546.021 25.4003V26.9031H545.455V25.4979C545.455 25.2052 545.323 24.971 544.967 24.971C544.645 24.971 544.474 25.2198 544.474 25.5321Z" fill="#121212"/>
<rect width="518.734" height="15.4462" transform="translate(34.499 56.7449)" fill="url(#paint5_linear_1022_33423)"/>
<rect width="521.531" height="255.584" transform="translate(36.4873 60.9923)" fill="url(#paint6_linear_1022_33423)"/>
<rect x="43.9795" y="60.9923" width="22.943" height="5.23532" rx="2.61766" fill="#D1D5DB"/>
<rect x="140.7" y="60.9923" width="22.943" height="5.23532" rx="2.61766" fill="#D1D5DB"/>
<rect x="237.421" y="60.9923" width="22.943" height="5.23532" rx="2.61766" fill="#D1D5DB"/>
<rect x="334.142" y="60.9923" width="22.943" height="5.23532" rx="2.61766" fill="#D1D5DB"/>
<rect x="430.862" y="60.9923" width="22.943" height="5.23532" rx="2.61766" fill="#D1D5DB"/>
<rect x="527.583" y="60.9923" width="22.943" height="5.23532" rx="2.61766" fill="#D1D5DB"/>
<line x1="36.4873" y1="74.9069" x2="558.019" y2="74.907" stroke="#D1D5DB" stroke-width="0.449863"/>
<rect x="43.9795" y="95.4843" width="22.943" height="5.23532" rx="2.61766" fill="#D1D5DB"/>
<rect x="140.7" y="95.4843" width="22.943" height="5.23532" rx="2.61766" fill="#D1D5DB"/>
<rect x="237.421" y="95.4843" width="22.943" height="5.23532" rx="2.61766" fill="#D1D5DB"/>
<rect x="334.142" y="95.4843" width="22.943" height="5.23532" rx="2.61766" fill="#D1D5DB"/>
<rect x="430.862" y="95.4843" width="22.943" height="5.23532" rx="2.61766" fill="#D1D5DB"/>
<rect x="527.583" y="95.4843" width="22.943" height="5.23532" rx="2.61766" fill="#D1D5DB"/>
<line x1="36.4873" y1="109.399" x2="558.019" y2="109.399" stroke="#D1D5DB" stroke-width="0.449863"/>
<rect x="43.9795" y="129.976" width="22.943" height="5.23532" rx="2.61766" fill="#D1D5DB"/>
<rect x="140.7" y="129.976" width="22.943" height="5.23532" rx="2.61766" fill="#D1D5DB"/>
<rect x="237.421" y="129.976" width="22.943" height="5.23532" rx="2.61766" fill="#D1D5DB"/>
<rect x="334.142" y="129.976" width="22.943" height="5.23532" rx="2.61766" fill="#D1D5DB"/>
<rect x="430.862" y="129.976" width="22.943" height="5.23532" rx="2.61766" fill="#D1D5DB"/>
<rect x="527.583" y="129.976" width="22.943" height="5.23532" rx="2.61766" fill="#D1D5DB"/>
<line x1="36.4873" y1="143.891" x2="558.019" y2="143.891" stroke="#D1D5DB" stroke-width="0.449863"/>
<rect x="43.9795" y="164.468" width="22.943" height="5.23532" rx="2.61766" fill="#D1D5DB"/>
<rect x="140.7" y="164.468" width="22.943" height="5.23532" rx="2.61766" fill="#D1D5DB"/>
<rect x="237.421" y="164.468" width="22.943" height="5.23532" rx="2.61766" fill="#D1D5DB"/>
<rect x="334.142" y="164.468" width="22.943" height="5.23532" rx="2.61766" fill="#D1D5DB"/>
<rect x="430.862" y="164.468" width="22.943" height="5.23532" rx="2.61766" fill="#D1D5DB"/>
<rect x="527.583" y="164.468" width="22.943" height="5.23532" rx="2.61766" fill="#D1D5DB"/>
<line x1="36.4873" y1="178.383" x2="558.019" y2="178.383" stroke="#D1D5DB" stroke-width="0.449863"/>
<rect x="43.9795" y="198.96" width="22.943" height="5.23532" rx="2.61766" fill="#D1D5DB"/>
<rect x="140.7" y="198.96" width="22.943" height="5.23532" rx="2.61766" fill="#D1D5DB"/>
<rect x="237.421" y="198.96" width="22.943" height="5.23532" rx="2.61766" fill="#D1D5DB"/>
<rect x="334.142" y="198.96" width="22.943" height="5.23532" rx="2.61766" fill="#D1D5DB"/>
<rect x="430.862" y="198.96" width="22.943" height="5.23532" rx="2.61766" fill="#D1D5DB"/>
<rect x="527.583" y="198.96" width="22.943" height="5.23532" rx="2.61766" fill="#D1D5DB"/>
<line x1="36.4873" y1="212.875" x2="558.019" y2="212.875" stroke="#D1D5DB" stroke-width="0.449863"/>
<rect x="43.9795" y="233.452" width="22.943" height="5.23532" rx="2.61766" fill="#D1D5DB"/>
<rect x="140.7" y="233.452" width="22.943" height="5.23532" rx="2.61766" fill="#D1D5DB"/>
<rect x="237.421" y="233.452" width="22.943" height="5.23532" rx="2.61766" fill="#D1D5DB"/>
<rect x="334.142" y="233.452" width="22.943" height="5.23532" rx="2.61766" fill="#D1D5DB"/>
<rect x="430.862" y="233.452" width="22.943" height="5.23532" rx="2.61766" fill="#D1D5DB"/>
<rect x="527.583" y="233.452" width="22.943" height="5.23532" rx="2.61766" fill="#D1D5DB"/>
<line x1="36.4873" y1="247.367" x2="558.019" y2="247.367" stroke="#D1D5DB" stroke-width="0.449863"/>
<rect x="43.9795" y="267.944" width="22.943" height="5.23532" rx="2.61766" fill="#D1D5DB"/>
<rect x="140.7" y="267.944" width="22.943" height="5.23532" rx="2.61766" fill="#D1D5DB"/>
<rect x="237.421" y="267.944" width="22.943" height="5.23532" rx="2.61766" fill="#D1D5DB"/>
<rect x="334.142" y="267.944" width="22.943" height="5.23532" rx="2.61766" fill="#D1D5DB"/>
<rect x="430.862" y="267.944" width="22.943" height="5.23532" rx="2.61766" fill="#D1D5DB"/>
<rect x="527.583" y="267.944" width="22.943" height="5.23532" rx="2.61766" fill="#D1D5DB"/>
<line x1="36.4873" y1="281.859" x2="558.019" y2="281.859" stroke="#D1D5DB" stroke-width="0.449863"/>
<rect x="43.9795" y="302.436" width="22.943" height="5.23532" rx="2.61766" fill="#D1D5DB"/>
<rect x="140.7" y="302.436" width="22.943" height="5.23532" rx="2.61766" fill="#D1D5DB"/>
<rect x="237.421" y="302.436" width="22.943" height="5.23532" rx="2.61766" fill="#D1D5DB"/>
<rect x="334.142" y="302.436" width="22.943" height="5.23532" rx="2.61766" fill="#D1D5DB"/>
<rect x="430.862" y="302.436" width="22.943" height="5.23532" rx="2.61766" fill="#D1D5DB"/>
<rect x="527.583" y="302.436" width="22.943" height="5.23532" rx="2.61766" fill="#D1D5DB"/>
<line x1="36.4873" y1="316.351" x2="558.019" y2="316.351" stroke="#D1D5DB" stroke-width="0.449863"/>
</g>
<defs>
<filter id="filter0_d_1022_33423" x="0.679492" y="10.4064" width="581.704" height="403.795" filterUnits="userSpaceOnUse" color-interpolation-filters="sRGB">
<feFlood flood-opacity="0" result="BackgroundImageFix"/>
<feColorMatrix in="SourceAlpha" type="matrix" values="0 0 0 0 0 0 0 0 0 0 0 0 0 0 0 0 0 0 127 0" result="hardAlpha"/>
<feOffset dy="16"/>
<feGaussianBlur stdDeviation="7.9"/>
<feComposite in2="hardAlpha" operator="out"/>
<feColorMatrix type="matrix" values="0 0 0 0 0.00784314 0 0 0 0 0.270588 0 0 0 0 0.847059 0 0 0 0.1 0"/>
<feBlend mode="normal" in2="BackgroundImageFix" result="effect1_dropShadow_1022_33423"/>
<feBlend mode="normal" in="SourceGraphic" in2="effect1_dropShadow_1022_33423" result="shape"/>
</filter>
<filter id="filter1_d_1022_33423" x="13.6334" y="8.37346" width="555.796" height="377.687" filterUnits="userSpaceOnUse" color-interpolation-filters="sRGB">
<feFlood flood-opacity="0" result="BackgroundImageFix"/>
<feColorMatrix in="SourceAlpha" type="matrix" values="0 0 0 0 0 0 0 0 0 0 0 0 0 0 0 0 0 0 127 0" result="hardAlpha"/>
<feOffset dy="0.813165"/>
<feGaussianBlur stdDeviation="1.42304"/>
<feColorMatrix type="matrix" values="0 0 0 0 0 0 0 0 0 0 0 0 0 0 0 0 0 0 0.07 0"/>
<feBlend mode="normal" in2="BackgroundImageFix" result="effect1_dropShadow_1022_33423"/>
<feBlend mode="normal" in="SourceGraphic" in2="effect1_dropShadow_1022_33423" result="shape"/>
</filter>
<linearGradient id="paint0_linear_1022_33423" x1="291.531" y1="10.4064" x2="294.5" y2="456.5" gradientUnits="userSpaceOnUse">
<stop stop-color="#EEF3FD"/>
<stop offset="1" stop-color="white"/>
</linearGradient>
<linearGradient id="paint1_linear_1022_33423" x1="291.531" y1="10.4064" x2="294.5" y2="456.5" gradientUnits="userSpaceOnUse">
<stop stop-color="#EEF3FD"/>
<stop offset="1" stop-color="white"/>
</linearGradient>
<linearGradient id="paint2_linear_1022_33423" x1="291.531" y1="10.4064" x2="294.5" y2="456.5" gradientUnits="userSpaceOnUse">
<stop stop-color="#EEF3FD"/>
<stop offset="1" stop-color="white"/>
</linearGradient>
<linearGradient id="paint3_linear_1022_33423" x1="42.8291" y1="5.72009e-09" x2="42.8656" y2="19.5036" gradientUnits="userSpaceOnUse">
<stop stop-color="#EEF3FD"/>
<stop offset="1" stop-color="white"/>
</linearGradient>
<linearGradient id="paint4_linear_1022_33423" x1="39.2686" y1="5.72009e-09" x2="39.3084" y2="19.5036" gradientUnits="userSpaceOnUse">
<stop stop-color="#EEF3FD"/>
<stop offset="1" stop-color="white"/>
</linearGradient>
<linearGradient id="paint5_linear_1022_33423" x1="259.367" y1="5.43268e-09" x2="259.372" y2="18.5237" gradientUnits="userSpaceOnUse">
<stop stop-color="#EEF3FD"/>
<stop offset="1" stop-color="white"/>
</linearGradient>
<linearGradient id="paint6_linear_1022_33423" x1="260.766" y1="8.98932e-08" x2="262.244" y2="306.5" gradientUnits="userSpaceOnUse">
<stop stop-color="#EEF3FD"/>
<stop offset="1" stop-color="white"/>
</linearGradient>
<clipPath id="clip0_1022_33423">
<rect width="9.75799" height="9.75799" fill="white" transform="translate(104.921 340.216)"/>
</clipPath>
<clipPath id="clip1_1022_33423">
<rect width="9.75799" height="9.75799" fill="white" transform="translate(472.234 340.216)"/>
</clipPath>
<clipPath id="clip2_1022_33423">
<rect width="9.75799" height="9.75799" fill="white" transform="translate(534.501 340.216)"/>
</clipPath>
</defs>
</svg>
