<svg width="583" height="488" viewBox="0 0 583 488" fill="none" xmlns="http://www.w3.org/2000/svg">
<g filter="url(#filter0_d_1022_33530)">
<rect width="550" height="411" transform="translate(16.4795)" fill="url(#paint0_linear_1022_33530)"/>
<path d="M498.613 36.8203H64.8444C63.3371 36.8203 62.1152 38.0422 62.1152 39.5495V213.747C62.1152 215.254 63.3371 216.476 64.8444 216.476H498.613C500.121 216.476 501.342 215.254 501.342 213.747V39.5495C501.342 38.0422 500.121 36.8203 498.613 36.8203Z" fill="white"/>
<mask id="mask0_1022_33530" style="mask-type:luminance" maskUnits="userSpaceOnUse" x="86" y="98" width="392" height="24">
<path d="M477.442 98.9844H86.0254V121.525H477.442V98.9844Z" fill="white"/>
</mask>
<g mask="url(#mask0_1022_33530)">
<path d="M97.2918 121.523C103.516 121.523 108.562 116.477 108.562 110.253C108.562 104.028 103.516 98.9824 97.2918 98.9824C91.0674 98.9824 86.0215 104.028 86.0215 110.253C86.0215 116.477 91.0674 121.523 97.2918 121.523Z" fill="#D7DDEB"/>
<path d="M97.2921 122.203C103.892 122.203 109.242 116.853 109.242 110.253C109.242 103.653 103.892 98.3027 97.2921 98.3027C90.6922 98.3027 85.3418 103.653 85.3418 110.253C85.3418 116.853 90.6922 122.203 97.2921 122.203Z" stroke="white" stroke-width="1.36912"/>
<path d="M272.623 109.047H273.911V114.007H275.28V107.098H274.273C274.019 107.823 273.584 108.15 272.623 108.15V109.047ZM282.279 110.57C282.279 108.286 281.146 106.998 279.296 106.998C277.447 106.998 276.322 108.286 276.322 110.57C276.322 112.855 277.456 114.143 279.296 114.143C281.137 114.143 282.279 112.855 282.279 110.57ZM280.838 110.57C280.838 112.23 280.366 113.037 279.296 113.037C278.226 113.037 277.764 112.23 277.764 110.57C277.764 108.911 278.236 108.104 279.296 108.104C280.357 108.104 280.838 108.911 280.838 110.57ZM284.891 112.855L285.988 111.985C287.031 111.151 287.883 110.38 287.883 109.165C287.883 107.95 287.049 106.998 285.417 106.998C283.893 106.998 282.878 107.923 282.878 109.374C282.878 109.582 282.914 109.8 282.95 110.017L284.301 110.072C284.247 109.89 284.229 109.7 284.229 109.473C284.229 108.675 284.61 108.15 285.38 108.15C286.151 108.15 286.45 108.612 286.45 109.247C286.45 110.081 285.861 110.625 284.791 111.522L282.869 113.109V114.025H288.064V112.864H284.909L284.891 112.855ZM288.762 114.016H289.415C289.415 114.478 289.216 114.66 288.762 114.687V115.376C289.805 115.358 290.231 114.877 290.231 113.952V112.556H288.762V114.025V114.016ZM293.559 108.004C294.257 108.004 294.719 108.358 294.719 109.047C294.719 109.682 294.257 110.026 293.559 110.026C292.861 110.026 292.425 109.673 292.425 109.047C292.425 108.358 292.888 108.004 293.559 108.004ZM293.559 110.997C294.402 110.997 294.883 111.359 294.883 112.048C294.883 112.737 294.402 113.118 293.559 113.118C292.716 113.118 292.235 112.728 292.235 112.048C292.235 111.368 292.716 110.997 293.559 110.997ZM293.559 114.143C295.263 114.143 296.27 113.381 296.27 112.166C296.27 111.278 295.671 110.67 294.928 110.498C295.635 110.226 296.043 109.709 296.043 108.911C296.043 107.723 295 106.998 293.559 106.998C292.117 106.998 291.074 107.723 291.074 108.911C291.074 109.709 291.482 110.226 292.19 110.498C291.437 110.67 290.848 111.287 290.848 112.166C290.848 113.381 291.845 114.143 293.559 114.143ZM298.827 112.855L299.924 111.985C300.967 111.151 301.819 110.38 301.819 109.165C301.819 107.95 300.985 106.998 299.353 106.998C297.829 106.998 296.814 107.923 296.814 109.374C296.814 109.582 296.85 109.8 296.886 110.017L298.237 110.072C298.183 109.89 298.165 109.7 298.165 109.473C298.165 108.675 298.546 108.15 299.316 108.15C300.087 108.15 300.386 108.612 300.386 109.247C300.386 110.081 299.797 110.625 298.727 111.522L296.805 113.109V114.025H302V112.864H298.845L298.827 112.855ZM302.318 109.056H303.605V114.016H304.974V107.107H303.968C303.714 107.832 303.279 108.159 302.318 108.159V109.056ZM306.035 114.016H306.688C306.688 114.478 306.488 114.66 306.035 114.687V115.376C307.078 115.358 307.504 114.877 307.504 113.952V112.556H306.035V114.025V114.016ZM310.641 113.055C309.898 113.055 309.508 112.647 309.417 112.003L308.139 112.039C308.256 113.372 309.199 114.152 310.623 114.152C312.581 114.152 313.543 112.62 313.543 110.489C313.543 108.358 312.545 106.998 310.668 106.998C309.118 106.998 308.066 107.941 308.066 109.383C308.066 110.725 308.982 111.668 310.478 111.668C311.385 111.668 312.019 111.232 312.291 110.616C312.273 112.048 311.738 113.055 310.641 113.055ZM312.01 109.346C312.01 110.126 311.53 110.625 310.696 110.625C309.861 110.625 309.372 110.126 309.372 109.346C309.372 108.567 309.852 108.077 310.686 108.077C311.521 108.077 312.01 108.603 312.01 109.346ZM316.698 113.055C315.954 113.055 315.565 112.647 315.474 112.003L314.195 112.039C314.313 113.372 315.256 114.152 316.68 114.152C318.638 114.152 319.599 112.62 319.599 110.489C319.599 108.358 318.602 106.998 316.725 106.998C315.175 106.998 314.123 107.941 314.123 109.383C314.123 110.725 315.039 111.668 316.535 111.668C317.441 111.668 318.076 111.232 318.348 110.616C318.33 112.048 317.795 113.055 316.698 113.055ZM318.067 109.346C318.067 110.126 317.586 110.625 316.752 110.625C315.918 110.625 315.429 110.126 315.429 109.346C315.429 108.567 315.909 108.077 316.743 108.077C317.577 108.077 318.067 108.603 318.067 109.346ZM324.949 107.125H320.787C320.751 108.258 320.515 110.045 320.343 110.997L321.676 111.096C321.893 110.725 322.274 110.416 322.891 110.416C323.689 110.416 324.151 110.988 324.151 111.731C324.151 112.538 323.661 113.046 322.882 113.046C322.029 113.046 321.567 112.52 321.567 111.695L320.234 111.595C320.18 113.145 321.132 114.152 322.873 114.152C324.378 114.152 325.438 113.2 325.438 111.722C325.438 110.425 324.641 109.374 323.054 109.374C322.365 109.374 321.893 109.627 321.612 109.909C321.676 109.6 321.794 108.685 321.812 108.349H324.958V107.134L324.949 107.125Z" fill="#5E749C"/>
<path d="M369.989 108.085C370.733 108.085 371.123 108.493 371.213 109.137L372.492 109.101C372.374 107.768 371.431 106.988 370.007 106.988C368.049 106.988 367.088 108.521 367.088 110.651C367.088 112.782 368.085 114.142 369.962 114.142C371.513 114.142 372.564 113.199 372.564 111.758C372.564 110.416 371.649 109.473 370.153 109.473C369.246 109.473 368.611 109.908 368.339 110.524C368.357 109.092 368.892 108.085 369.989 108.085ZM368.62 111.794C368.62 111.014 369.101 110.515 369.935 110.515C370.769 110.515 371.259 111.014 371.259 111.794C371.259 112.574 370.778 113.063 369.944 113.063C369.11 113.063 368.62 112.537 368.62 111.794ZM376.037 108.085C376.781 108.085 377.17 108.493 377.261 109.137L378.54 109.101C378.422 107.768 377.479 106.988 376.055 106.988C374.097 106.988 373.136 108.521 373.136 110.651C373.136 112.782 374.133 114.142 376.01 114.142C377.56 114.142 378.612 113.199 378.612 111.758C378.612 110.416 377.696 109.473 376.2 109.473C375.294 109.473 374.659 109.908 374.387 110.524C374.405 109.092 374.94 108.085 376.037 108.085ZM374.668 111.794C374.668 111.014 375.148 110.515 375.983 110.515C376.817 110.515 377.306 111.014 377.306 111.794C377.306 112.574 376.826 113.063 375.992 113.063C375.158 113.063 374.668 112.537 374.668 111.794ZM379.147 114.015H380.616V112.546H379.147V114.015ZM385.775 107.133H384.125L380.933 111.087V112.356H384.433V114.015H385.775V112.356H386.827V111.223H385.775V107.133ZM384.433 108.339V111.223H382.112L384.433 108.339ZM392.004 107.133H387.842C387.806 108.267 387.57 110.053 387.398 111.005L388.731 111.105C388.949 110.733 389.329 110.425 389.946 110.425C390.744 110.425 391.206 110.996 391.206 111.739C391.206 112.546 390.717 113.054 389.937 113.054C389.084 113.054 388.622 112.528 388.622 111.703L387.289 111.603C387.235 113.154 388.187 114.16 389.928 114.16C391.433 114.16 392.494 113.208 392.494 111.73C392.494 110.434 391.696 109.382 390.109 109.382C389.42 109.382 388.948 109.636 388.667 109.917C388.731 109.609 388.849 108.693 388.867 108.357H392.013V107.142L392.004 107.133ZM393.754 108.874C393.754 108.085 394.026 107.777 394.479 107.777C394.933 107.777 395.214 108.085 395.214 108.874C395.214 109.663 394.942 109.971 394.479 109.971C394.017 109.971 393.754 109.654 393.754 108.874ZM392.784 108.874C392.784 110.035 393.564 110.733 394.479 110.733C395.395 110.733 396.184 110.035 396.184 108.874C396.184 107.714 395.404 107.006 394.479 107.006C393.555 107.006 392.784 107.705 392.784 108.874ZM399.602 112.283C399.602 113.072 399.339 113.381 398.877 113.381C398.414 113.381 398.152 113.072 398.152 112.283C398.152 111.495 398.424 111.186 398.877 111.186C399.33 111.186 399.602 111.504 399.602 112.283ZM398.949 107.133H397.988L394.416 114.015H395.377L398.949 107.133ZM400.581 112.283C400.581 111.123 399.82 110.425 398.886 110.425C397.952 110.425 397.19 111.123 397.19 112.283C397.19 113.444 397.97 114.151 398.886 114.151C399.802 114.151 400.581 113.453 400.581 112.283Z" fill="#5E749C"/>
<path d="M445.13 105.831C445.873 105.831 446.263 106.24 446.354 106.883L447.632 106.847C447.515 105.514 446.572 104.734 445.148 104.734C443.19 104.734 442.229 106.267 442.229 108.397C442.229 110.528 443.226 111.888 445.103 111.888C446.653 111.888 447.705 110.945 447.705 109.504C447.705 108.162 446.789 107.219 445.293 107.219C444.386 107.219 443.752 107.654 443.48 108.271C443.498 106.838 444.033 105.831 445.13 105.831ZM443.761 109.54C443.761 108.76 444.241 108.261 445.076 108.261C445.91 108.261 446.399 108.76 446.399 109.54C446.399 110.32 445.919 110.809 445.085 110.809C444.25 110.809 443.761 110.283 443.761 109.54ZM454.242 108.316C454.242 106.031 453.109 104.743 451.259 104.743C449.41 104.743 448.285 106.031 448.285 108.316C448.285 110.601 449.419 111.888 451.259 111.888C453.1 111.888 454.242 110.601 454.242 108.316ZM452.801 108.316C452.801 109.975 452.329 110.782 451.259 110.782C450.189 110.782 449.727 109.975 449.727 108.316C449.727 106.657 450.198 105.85 451.259 105.85C452.32 105.85 452.801 106.657 452.801 108.316ZM454.614 111.761H456.083V110.292H454.614V111.761ZM459.32 105.841C460.063 105.841 460.453 106.249 460.544 106.892L461.822 106.856C461.704 105.523 460.762 104.743 459.338 104.743C457.38 104.743 456.418 106.276 456.418 108.407C456.418 110.537 457.416 111.897 459.293 111.897C460.843 111.897 461.895 110.954 461.895 109.513C461.895 108.171 460.979 107.228 459.483 107.228C458.576 107.228 457.942 107.663 457.67 108.28C457.688 106.847 458.223 105.841 459.32 105.841ZM457.951 109.549C457.951 108.769 458.431 108.271 459.265 108.271C460.1 108.271 460.589 108.769 460.589 109.549C460.589 110.329 460.109 110.818 459.275 110.818C458.44 110.818 457.951 110.292 457.951 109.549ZM467.181 104.879H465.531L462.339 108.833V110.102H465.839V111.761H467.181V110.102H468.233V108.969H467.181V104.879ZM465.839 106.085V108.969H463.518L465.839 106.085ZM469.194 106.62C469.194 105.831 469.466 105.523 469.919 105.523C470.373 105.523 470.654 105.831 470.654 106.62C470.654 107.409 470.382 107.717 469.919 107.717C469.457 107.717 469.194 107.4 469.194 106.62ZM468.224 106.62C468.224 107.781 469.003 108.479 469.919 108.479C470.835 108.479 471.624 107.781 471.624 106.62C471.624 105.46 470.844 104.753 469.919 104.753C468.994 104.753 468.224 105.451 468.224 106.62ZM475.042 110.03C475.042 110.818 474.779 111.127 474.317 111.127C473.854 111.127 473.591 110.818 473.591 110.03C473.591 109.241 473.863 108.932 474.317 108.932C474.77 108.932 475.042 109.25 475.042 110.03ZM474.389 104.879H473.428L469.856 111.761H470.817L474.389 104.879ZM476.021 110.03C476.021 108.869 475.26 108.171 474.326 108.171C473.392 108.171 472.63 108.869 472.63 110.03C472.63 111.19 473.41 111.897 474.326 111.897C475.242 111.897 476.021 111.199 476.021 110.03Z" fill="#5E749C"/>
<path d="M445.13 118.535C445.873 118.535 446.263 118.943 446.354 119.586L447.632 119.55C447.515 118.217 446.572 117.438 445.148 117.438C443.19 117.438 442.229 118.97 442.229 121.101C442.229 123.231 443.226 124.591 445.103 124.591C446.653 124.591 447.705 123.648 447.705 122.207C447.705 120.865 446.789 119.922 445.293 119.922C444.386 119.922 443.752 120.357 443.48 120.974C443.498 119.541 444.033 118.535 445.13 118.535ZM443.761 122.243C443.761 121.463 444.241 120.965 445.076 120.965C445.91 120.965 446.399 121.463 446.399 122.243C446.399 123.023 445.919 123.512 445.085 123.512C444.25 123.512 443.761 122.987 443.761 122.243ZM454.242 121.019C454.242 118.734 453.109 117.447 451.259 117.447C449.41 117.447 448.285 118.734 448.285 121.019C448.285 123.304 449.419 124.591 451.259 124.591C453.1 124.591 454.242 123.304 454.242 121.019ZM452.801 121.019C452.801 122.678 452.329 123.485 451.259 123.485C450.189 123.485 449.727 122.678 449.727 121.019C449.727 119.36 450.198 118.553 451.259 118.553C452.32 118.553 452.801 119.36 452.801 121.019ZM454.614 124.464H456.083V122.996H454.614V124.464ZM459.32 118.544C460.063 118.544 460.453 118.952 460.544 119.595L461.822 119.559C461.704 118.226 460.762 117.447 459.338 117.447C457.38 117.447 456.418 118.979 456.418 121.11C456.418 123.24 457.416 124.6 459.293 124.6C460.843 124.6 461.895 123.657 461.895 122.216C461.895 120.874 460.979 119.931 459.483 119.931C458.576 119.931 457.942 120.366 457.67 120.983C457.688 119.55 458.223 118.544 459.32 118.544ZM457.951 122.252C457.951 121.472 458.431 120.974 459.265 120.974C460.1 120.974 460.589 121.472 460.589 122.252C460.589 123.032 460.109 123.521 459.275 123.521C458.44 123.521 457.951 122.996 457.951 122.252ZM467.181 117.583H465.531L462.339 121.536V122.805H465.839V124.464H467.181V122.805H468.233V121.672H467.181V117.583ZM465.839 118.788V121.672H463.518L465.839 118.788ZM469.194 119.323C469.194 118.535 469.466 118.226 469.919 118.226C470.373 118.226 470.654 118.535 470.654 119.323C470.654 120.112 470.382 120.421 469.919 120.421C469.457 120.421 469.194 120.103 469.194 119.323ZM468.224 119.323C468.224 120.484 469.003 121.182 469.919 121.182C470.835 121.182 471.624 120.484 471.624 119.323C471.624 118.163 470.844 117.456 469.919 117.456C468.994 117.456 468.224 118.154 468.224 119.323ZM475.042 122.733C475.042 123.521 474.779 123.83 474.317 123.83C473.854 123.83 473.591 123.521 473.591 122.733C473.591 121.944 473.863 121.636 474.317 121.636C474.77 121.636 475.042 121.953 475.042 122.733ZM474.389 117.583H473.428L469.856 124.464H470.817L474.389 117.583ZM476.021 122.733C476.021 121.572 475.26 120.874 474.326 120.874C473.392 120.874 472.63 121.572 472.63 122.733C472.63 123.893 473.41 124.6 474.326 124.6C475.242 124.6 476.021 123.902 476.021 122.733Z" fill="#5E749C"/>
</g>
<mask id="mask1_1022_33530" style="mask-type:luminance" maskUnits="userSpaceOnUse" x="86" y="135" width="392" height="23">
<path d="M477.442 135.191H86.0254V157.732H477.442V135.191Z" fill="white"/>
</mask>
<g mask="url(#mask1_1022_33530)">
<path d="M97.2918 157.73C103.516 157.73 108.562 152.684 108.562 146.46C108.562 140.235 103.516 135.189 97.2918 135.189C91.0674 135.189 86.0215 140.235 86.0215 146.46C86.0215 152.684 91.0674 157.73 97.2918 157.73Z" fill="#D7DDEB"/>
<path d="M97.2921 158.41C103.892 158.41 109.242 153.06 109.242 146.46C109.242 139.86 103.892 134.51 97.2921 134.51C90.6922 134.51 85.3418 139.86 85.3418 146.46C85.3418 153.06 90.6922 158.41 97.2921 158.41Z" stroke="white" stroke-width="1.36912"/>
<path d="M283.635 145.255H284.922V150.214H286.291V143.305H285.285C285.031 144.031 284.596 144.357 283.635 144.357V145.255ZM287.352 150.214H288.005C288.005 150.677 287.806 150.858 287.352 150.885V151.575C288.395 151.556 288.821 151.076 288.821 150.151V148.755H287.352V150.224V150.214ZM295.168 146.769C295.168 144.484 294.035 143.197 292.185 143.197C290.335 143.197 289.211 144.484 289.211 146.769C289.211 149.054 290.344 150.341 292.185 150.341C294.026 150.341 295.168 149.054 295.168 146.769ZM293.726 146.769C293.726 148.428 293.255 149.235 292.185 149.235C291.115 149.235 290.653 148.428 290.653 146.769C290.653 145.11 291.124 144.303 292.185 144.303C293.246 144.303 293.726 145.11 293.726 146.769ZM298.314 149.253C297.571 149.253 297.181 148.845 297.09 148.202L295.812 148.238C295.93 149.571 296.873 150.35 298.296 150.35C300.255 150.35 301.216 148.818 301.216 146.687C301.216 144.557 300.218 143.197 298.341 143.197C296.791 143.197 295.739 144.14 295.739 145.581C295.739 146.923 296.655 147.866 298.151 147.866C299.058 147.866 299.692 147.431 299.964 146.814C299.946 148.247 299.411 149.253 298.314 149.253ZM299.683 145.545C299.683 146.325 299.203 146.823 298.369 146.823C297.535 146.823 297.045 146.325 297.045 145.545C297.045 144.765 297.525 144.276 298.36 144.276C299.194 144.276 299.683 144.801 299.683 145.545ZM305.033 144.566C303.655 146.044 302.993 147.866 302.957 150.214H304.453C304.462 147.975 304.788 146.107 306.538 144.321V143.324H301.497V144.557H305.024L305.033 144.566ZM306.357 150.214H307.01C307.01 150.677 306.81 150.858 306.357 150.885V151.575C307.399 151.556 307.826 151.076 307.826 150.151V148.755H306.357V150.224V150.214ZM311.153 144.203C311.851 144.203 312.314 144.557 312.314 145.246C312.314 145.88 311.851 146.225 311.153 146.225C310.455 146.225 310.02 145.871 310.02 145.246C310.02 144.557 310.482 144.203 311.153 144.203ZM311.153 147.195C311.996 147.195 312.477 147.558 312.477 148.247C312.477 148.936 311.996 149.317 311.153 149.317C310.31 149.317 309.829 148.927 309.829 148.247C309.829 147.567 310.31 147.195 311.153 147.195ZM311.153 150.341C312.858 150.341 313.864 149.58 313.864 148.365C313.864 147.476 313.266 146.869 312.522 146.696C313.23 146.424 313.638 145.908 313.638 145.11C313.638 143.922 312.595 143.197 311.153 143.197C309.712 143.197 308.669 143.922 308.669 145.11C308.669 145.908 309.077 146.424 309.784 146.696C309.032 146.869 308.442 147.485 308.442 148.365C308.442 149.58 309.44 150.341 311.153 150.341ZM319.15 143.324H314.989C314.952 144.457 314.717 146.243 314.544 147.195L315.877 147.295C316.095 146.923 316.476 146.615 317.092 146.615C317.89 146.615 318.352 147.186 318.352 147.93C318.352 148.737 317.863 149.244 317.083 149.244C316.231 149.244 315.768 148.718 315.768 147.893L314.435 147.794C314.381 149.344 315.333 150.35 317.074 150.35C318.579 150.35 319.64 149.398 319.64 147.92C319.64 146.624 318.842 145.572 317.255 145.572C316.566 145.572 316.095 145.826 315.814 146.107C315.877 145.799 315.995 144.883 316.013 144.548H319.159V143.333L319.15 143.324ZM322.841 144.194C323.539 144.194 324.001 144.548 324.001 145.237C324.001 145.871 323.539 146.216 322.841 146.216C322.142 146.216 321.707 145.862 321.707 145.237C321.707 144.548 322.17 144.194 322.841 144.194ZM322.841 147.186C323.684 147.186 324.164 147.549 324.164 148.238C324.164 148.927 323.684 149.308 322.841 149.308C321.997 149.308 321.517 148.918 321.517 148.238C321.517 147.558 321.997 147.186 322.841 147.186ZM322.841 150.332C324.545 150.332 325.552 149.571 325.552 148.356C325.552 147.467 324.953 146.86 324.21 146.687C324.917 146.415 325.325 145.899 325.325 145.101C325.325 143.913 324.282 143.188 322.841 143.188C321.399 143.188 320.356 143.913 320.356 145.101C320.356 145.899 320.764 146.415 321.471 146.687C320.719 146.86 320.13 147.476 320.13 148.356C320.13 149.571 321.127 150.332 322.841 150.332Z" fill="#5E749C"/>
<path d="M382.67 146.777C382.67 144.493 381.537 143.205 379.687 143.205C377.837 143.205 376.713 144.493 376.713 146.777C376.713 149.062 377.846 150.35 379.687 150.35C381.527 150.35 382.67 149.062 382.67 146.777ZM381.228 146.777C381.228 148.437 380.757 149.244 379.687 149.244C378.617 149.244 378.155 148.437 378.155 146.777C378.155 145.118 378.626 144.311 379.687 144.311C380.748 144.311 381.228 145.118 381.228 146.777ZM383.042 150.223H384.511V148.754H383.042V150.223ZM388.01 144.574C386.632 146.052 385.97 147.875 385.934 150.223H387.43C387.439 147.983 387.766 146.116 389.516 144.329V143.332H384.474V144.565H388.001L388.01 144.574ZM389.905 145.263H391.193V150.223H392.562V143.314H391.556C391.302 144.039 390.867 144.366 389.905 144.366V145.263ZM394.521 145.082C394.521 144.293 394.793 143.985 395.246 143.985C395.699 143.985 395.98 144.293 395.98 145.082C395.98 145.871 395.708 146.179 395.246 146.179C394.783 146.179 394.521 145.862 394.521 145.082ZM393.55 145.082C393.55 146.243 394.33 146.941 395.246 146.941C396.162 146.941 396.95 146.243 396.95 145.082C396.95 143.921 396.171 143.214 395.246 143.214C394.321 143.214 393.55 143.912 393.55 145.082ZM400.369 148.491C400.369 149.28 400.106 149.588 399.643 149.588C399.181 149.588 398.918 149.28 398.918 148.491C398.918 147.702 399.19 147.394 399.643 147.394C400.097 147.394 400.369 147.711 400.369 148.491ZM399.716 143.341H398.755L395.182 150.223H396.144L399.716 143.341ZM401.348 148.491C401.348 147.331 400.586 146.632 399.652 146.632C398.719 146.632 397.957 147.331 397.957 148.491C397.957 149.652 398.737 150.359 399.652 150.359C400.568 150.359 401.348 149.661 401.348 148.491Z" fill="#5E749C"/>
<path d="M455.635 146.777C455.635 144.493 454.501 143.205 452.652 143.205C450.802 143.205 449.678 144.493 449.678 146.777C449.678 149.062 450.811 150.35 452.652 150.35C454.492 150.35 455.635 149.062 455.635 146.777ZM454.193 146.777C454.193 148.437 453.722 149.244 452.652 149.244C451.582 149.244 451.119 148.437 451.119 146.777C451.119 145.118 451.591 144.311 452.652 144.311C453.713 144.311 454.193 145.118 454.193 146.777ZM456.007 150.223H457.475V148.754H456.007V150.223ZM460.712 144.302C461.456 144.302 461.846 144.71 461.936 145.354L463.215 145.318C463.097 143.985 462.154 143.205 460.73 143.205C458.772 143.205 457.811 144.737 457.811 146.868C457.811 148.999 458.808 150.359 460.685 150.359C462.236 150.359 463.287 149.416 463.287 147.974C463.287 146.632 462.372 145.689 460.875 145.689C459.969 145.689 459.334 146.125 459.062 146.741C459.08 145.309 459.615 144.302 460.712 144.302ZM459.343 148.011C459.343 147.231 459.824 146.732 460.658 146.732C461.492 146.732 461.982 147.231 461.982 148.011C461.982 148.79 461.501 149.28 460.667 149.28C459.833 149.28 459.343 148.754 459.343 148.011ZM468.582 143.341H464.421C464.384 144.474 464.149 146.261 463.976 147.213L465.309 147.312C465.527 146.941 465.908 146.632 466.524 146.632C467.322 146.632 467.785 147.204 467.785 147.947C467.785 148.754 467.295 149.262 466.515 149.262C465.663 149.262 465.2 148.736 465.2 147.911L463.868 147.811C463.813 149.362 464.765 150.368 466.506 150.368C468.011 150.368 469.072 149.416 469.072 147.938C469.072 146.641 468.274 145.59 466.687 145.59C465.998 145.59 465.527 145.844 465.246 146.125C465.309 145.816 465.427 144.901 465.445 144.565H468.592V143.35L468.582 143.341ZM470.332 145.082C470.332 144.293 470.604 143.985 471.058 143.985C471.511 143.985 471.792 144.293 471.792 145.082C471.792 145.871 471.52 146.179 471.058 146.179C470.595 146.179 470.332 145.862 470.332 145.082ZM469.362 145.082C469.362 146.243 470.142 146.941 471.058 146.941C471.974 146.941 472.762 146.243 472.762 145.082C472.762 143.921 471.983 143.214 471.058 143.214C470.133 143.214 469.362 143.912 469.362 145.082ZM476.181 148.491C476.181 149.28 475.918 149.588 475.455 149.588C474.993 149.588 474.73 149.28 474.73 148.491C474.73 147.702 475.002 147.394 475.455 147.394C475.909 147.394 476.181 147.711 476.181 148.491ZM475.528 143.341H474.567L470.994 150.223H471.955L475.528 143.341ZM477.16 148.491C477.16 147.331 476.398 146.632 475.464 146.632C474.53 146.632 473.769 147.331 473.769 148.491C473.769 149.652 474.549 150.359 475.464 150.359C476.38 150.359 477.16 149.661 477.16 148.491Z" fill="#5E749C"/>
</g>
<mask id="mask2_1022_33530" style="mask-type:luminance" maskUnits="userSpaceOnUse" x="86" y="171" width="392" height="23">
<path d="M477.442 171.395H86.0254V193.935H477.442V171.395Z" fill="white"/>
</mask>
<g mask="url(#mask2_1022_33530)">
<path d="M97.2918 193.931C103.516 193.931 108.562 188.885 108.562 182.661C108.562 176.437 103.516 171.391 97.2918 171.391C91.0674 171.391 86.0215 176.437 86.0215 182.661C86.0215 188.885 91.0674 193.931 97.2918 193.931Z" fill="#D7DDEB"/>
<path d="M97.2921 194.612C103.892 194.612 109.242 189.261 109.242 182.661C109.242 176.061 103.892 170.711 97.2921 170.711C90.6922 170.711 85.3418 176.061 85.3418 182.661C85.3418 189.261 90.6922 194.612 97.2921 194.612Z" stroke="white" stroke-width="1.36912"/>
<path d="M290.83 184.467C290.83 185.111 290.332 185.446 289.652 185.446C288.808 185.446 288.273 185.011 288.246 184.122L286.904 184.068C286.904 185.6 287.947 186.552 289.661 186.552C291.22 186.552 292.236 185.791 292.236 184.576C292.236 183.705 291.664 183.08 290.794 182.935C291.447 182.844 292.082 182.255 292.082 181.402C292.082 180.214 291.193 179.398 289.624 179.398C288.056 179.398 287.013 180.477 287.013 181.901L288.337 181.955C288.337 181.067 288.799 180.505 289.597 180.505C290.35 180.505 290.722 180.922 290.722 181.529C290.722 182.227 290.196 182.49 289.615 182.49C289.361 182.49 289.153 182.49 289.017 182.472V183.497C289.198 183.479 289.398 183.46 289.606 183.46C290.314 183.46 290.839 183.796 290.839 184.458L290.83 184.467ZM295.69 180.496C296.434 180.496 296.824 180.904 296.914 181.547L298.193 181.511C298.075 180.178 297.132 179.398 295.708 179.398C293.75 179.398 292.789 180.931 292.789 183.062C292.789 185.192 293.786 186.552 295.663 186.552C297.214 186.552 298.265 185.609 298.265 184.168C298.265 182.826 297.35 181.883 295.853 181.883C294.947 181.883 294.312 182.318 294.04 182.935C294.058 181.502 294.593 180.496 295.69 180.496ZM294.321 184.204C294.321 183.424 294.802 182.926 295.636 182.926C296.47 182.926 296.96 183.424 296.96 184.204C296.96 184.984 296.479 185.473 295.645 185.473C294.811 185.473 294.321 184.947 294.321 184.204ZM301.484 180.414C302.182 180.414 302.645 180.768 302.645 181.457C302.645 182.091 302.182 182.436 301.484 182.436C300.786 182.436 300.351 182.082 300.351 181.457C300.351 180.768 300.813 180.414 301.484 180.414ZM301.484 183.406C302.327 183.406 302.808 183.769 302.808 184.458C302.808 185.147 302.327 185.528 301.484 185.528C300.641 185.528 300.16 185.138 300.16 184.458C300.16 183.778 300.641 183.406 301.484 183.406ZM301.484 186.552C303.189 186.552 304.195 185.791 304.195 184.576C304.195 183.687 303.597 183.08 302.853 182.907C303.56 182.635 303.968 182.119 303.968 181.321C303.968 180.133 302.926 179.407 301.484 179.407C300.042 179.407 299 180.133 299 181.321C299 182.119 299.408 182.635 300.115 182.907C299.362 183.08 298.773 183.696 298.773 184.576C298.773 185.791 299.77 186.552 301.484 186.552ZM304.821 186.425H305.474C305.474 186.888 305.274 187.069 304.821 187.096V187.785C305.863 187.767 306.29 187.287 306.29 186.362V184.966H304.821V186.434V186.425ZM309.427 185.464C308.683 185.464 308.293 185.056 308.203 184.413L306.924 184.449C307.042 185.782 307.985 186.561 309.409 186.561C311.367 186.561 312.328 185.029 312.328 182.898C312.328 180.768 311.331 179.407 309.454 179.407C307.904 179.407 306.852 180.35 306.852 181.792C306.852 183.134 307.768 184.077 309.264 184.077C310.17 184.077 310.805 183.642 311.077 183.025C311.059 184.458 310.524 185.464 309.427 185.464ZM310.796 181.756C310.796 182.536 310.315 183.034 309.481 183.034C308.647 183.034 308.157 182.536 308.157 181.756C308.157 180.976 308.638 180.486 309.472 180.486C310.306 180.486 310.796 181.012 310.796 181.756ZM318.911 182.98C318.911 180.695 317.778 179.407 315.928 179.407C314.078 179.407 312.954 180.695 312.954 182.98C312.954 185.265 314.087 186.552 315.928 186.552C317.768 186.552 318.911 185.265 318.911 182.98ZM317.469 182.98C317.469 184.639 316.998 185.446 315.928 185.446C314.858 185.446 314.396 184.639 314.396 182.98C314.396 181.321 314.867 180.514 315.928 180.514C316.989 180.514 317.469 181.321 317.469 182.98ZM325.485 182.98C325.485 180.695 324.351 179.407 322.501 179.407C320.652 179.407 319.527 180.695 319.527 182.98C319.527 185.265 320.661 186.552 322.501 186.552C324.342 186.552 325.485 185.265 325.485 182.98ZM324.043 182.98C324.043 184.639 323.571 185.446 322.501 185.446C321.432 185.446 320.969 184.639 320.969 182.98C320.969 181.321 321.441 180.514 322.501 180.514C323.562 180.514 324.043 181.321 324.043 182.98Z" fill="#5E749C"/>
<path d="M379.705 182.979C379.705 180.694 378.572 179.406 376.722 179.406C374.872 179.406 373.748 180.694 373.748 182.979C373.748 185.264 374.881 186.551 376.722 186.551C378.563 186.551 379.705 185.264 379.705 182.979ZM378.263 182.979C378.263 184.638 377.792 185.445 376.722 185.445C375.652 185.445 375.19 184.638 375.19 182.979C375.19 181.319 375.661 180.512 376.722 180.512C377.783 180.512 378.263 181.319 378.263 182.979ZM380.077 186.424H381.546V184.955H380.077V186.424ZM384.293 185.264L385.39 184.393C386.433 183.559 387.285 182.788 387.285 181.573C387.285 180.358 386.451 179.406 384.819 179.406C383.296 179.406 382.28 180.331 382.28 181.782C382.28 181.99 382.316 182.208 382.353 182.426L383.704 182.48C383.649 182.299 383.631 182.108 383.631 181.882C383.631 181.084 384.012 180.558 384.783 180.558C385.553 180.558 385.853 181.02 385.853 181.655C385.853 182.489 385.263 183.033 384.193 183.931L382.271 185.517V186.433H387.466V185.273H384.311L384.293 185.264ZM392.499 179.533H390.848L387.657 183.486V184.756H391.157V186.415H392.499V184.756H393.55V183.622H392.499V179.533ZM391.157 180.739V183.622H388.836L391.157 180.739ZM394.512 181.274C394.512 180.485 394.784 180.177 395.237 180.177C395.69 180.177 395.971 180.485 395.971 181.274C395.971 182.063 395.699 182.371 395.237 182.371C394.775 182.371 394.512 182.054 394.512 181.274ZM393.541 181.274C393.541 182.435 394.321 183.133 395.237 183.133C396.153 183.133 396.942 182.435 396.942 181.274C396.942 180.113 396.162 179.406 395.237 179.406C394.312 179.406 393.541 180.104 393.541 181.274ZM400.36 184.683C400.36 185.472 400.097 185.78 399.634 185.78C399.172 185.78 398.909 185.472 398.909 184.683C398.909 183.894 399.181 183.586 399.634 183.586C400.088 183.586 400.36 183.904 400.36 184.683ZM399.707 179.533H398.746L395.173 186.415H396.135L399.707 179.533ZM401.339 184.683C401.339 183.523 400.577 182.825 399.643 182.825C398.71 182.825 397.948 183.523 397.948 184.683C397.948 185.844 398.728 186.551 399.643 186.551C400.559 186.551 401.339 185.853 401.339 184.683Z" fill="#5E749C"/>
<path d="M455.482 182.979C455.482 180.694 454.349 179.406 452.499 179.406C450.65 179.406 449.525 180.694 449.525 182.979C449.525 185.264 450.659 186.551 452.499 186.551C454.34 186.551 455.482 185.264 455.482 182.979ZM454.041 182.979C454.041 184.638 453.569 185.445 452.499 185.445C451.429 185.445 450.967 184.638 450.967 182.979C450.967 181.319 451.439 180.512 452.499 180.512C453.56 180.512 454.041 181.319 454.041 182.979ZM455.854 186.424H457.323V184.955H455.854V186.424ZM460.07 185.264L461.167 184.393C462.21 183.559 463.062 182.788 463.062 181.573C463.062 180.358 462.228 179.406 460.596 179.406C459.073 179.406 458.057 180.331 458.057 181.782C458.057 181.99 458.094 182.208 458.13 182.426L459.481 182.48C459.427 182.299 459.408 182.108 459.408 181.882C459.408 181.084 459.789 180.558 460.56 180.558C461.331 180.558 461.63 181.02 461.63 181.655C461.63 182.489 461.041 183.033 459.971 183.931L458.048 185.517V186.433H463.244V185.273H460.088L460.07 185.264ZM465.692 185.264L466.789 184.393C467.832 183.559 468.684 182.788 468.684 181.573C468.684 180.358 467.85 179.406 466.218 179.406C464.695 179.406 463.679 180.331 463.679 181.782C463.679 181.99 463.715 182.208 463.752 182.426L465.112 182.48C465.057 182.299 465.039 182.108 465.039 181.882C465.039 181.084 465.42 180.558 466.191 180.558C466.961 180.558 467.261 181.02 467.261 181.655C467.261 182.489 466.671 183.033 465.601 183.931L463.679 185.517V186.433H468.874V185.273H465.719L465.692 185.264ZM470.343 181.274C470.343 180.485 470.615 180.177 471.069 180.177C471.522 180.177 471.803 180.485 471.803 181.274C471.803 182.063 471.531 182.371 471.069 182.371C470.606 182.371 470.343 182.054 470.343 181.274ZM469.373 181.274C469.373 182.435 470.153 183.133 471.069 183.133C471.984 183.133 472.773 182.435 472.773 181.274C472.773 180.113 471.994 179.406 471.069 179.406C470.144 179.406 469.373 180.104 469.373 181.274ZM476.192 184.683C476.192 185.472 475.929 185.78 475.466 185.78C475.004 185.78 474.741 185.472 474.741 184.683C474.741 183.894 475.013 183.586 475.466 183.586C475.92 183.586 476.192 183.904 476.192 184.683ZM475.539 179.533H474.578L471.005 186.415H471.966L475.539 179.533ZM477.171 184.683C477.171 183.523 476.409 182.825 475.475 182.825C474.541 182.825 473.78 183.523 473.78 184.683C473.78 185.844 474.559 186.551 475.475 186.551C476.391 186.551 477.171 185.853 477.171 184.683Z" fill="#5E749C"/>
</g>
<path d="M204.201 77.123H88.0706C86.9389 77.123 86.0215 78.0405 86.0215 79.1722V80.2421C86.0215 81.3738 86.9389 82.2913 88.0706 82.2913H204.201C205.333 82.2913 206.25 81.3738 206.25 80.2421V79.1722C206.25 78.0405 205.333 77.123 204.201 77.123Z" fill="#D7DDEB"/>
<path d="M323.734 77.123H289.578C288.447 77.123 287.529 78.0405 287.529 79.1722V80.2421C287.529 81.3738 288.447 82.2913 289.578 82.2913H323.734C324.866 82.2913 325.783 81.3738 325.783 80.2421V79.1722C325.783 78.0405 324.866 77.123 323.734 77.123Z" fill="#D7DDEB"/>
<path d="M399.562 77.123H365.407C364.275 77.123 363.357 78.0405 363.357 79.1722V80.2421C363.357 81.3738 364.275 82.2913 365.407 82.2913H399.562C400.694 82.2913 401.611 81.3738 401.611 80.2421V79.1722C401.611 78.0405 400.694 77.123 399.562 77.123Z" fill="#D7DDEB"/>
<path d="M475.394 77.123H441.239C440.107 77.123 439.189 78.0405 439.189 79.1722V80.2421C439.189 81.3738 440.107 82.2913 441.239 82.2913H475.394C476.526 82.2913 477.443 81.3738 477.443 80.2421V79.1722C477.443 78.0405 476.526 77.123 475.394 77.123Z" fill="#D7DDEB"/>
<path d="M115.375 63.0062C115.375 60.6216 113.706 58.9895 111.449 58.9895C109.191 58.9895 107.514 60.6216 107.514 63.0062C107.514 65.3909 109.182 67.0229 111.449 67.0229C113.716 67.0229 115.375 65.3909 115.375 63.0062ZM113.788 63.0062C113.788 64.6292 112.881 65.6719 111.449 65.6719C110.016 65.6719 109.109 64.6292 109.109 63.0062C109.109 61.3832 110.016 60.3405 111.449 60.3405C112.881 60.3405 113.788 61.3832 113.788 63.0062ZM120.081 61.5283C119.917 61.3923 119.654 61.3107 119.319 61.3107C118.566 61.3107 118.004 61.8728 117.805 62.4894V61.4558H116.327V66.8779H117.805V64.194C117.805 63.2148 118.322 62.6708 119.083 62.6708C119.437 62.6708 119.682 62.7433 119.972 62.9065L120.081 61.5283ZM124.65 64.2665C124.65 65.2639 124.052 65.8623 123.209 65.8623C122.284 65.8623 121.803 65.1823 121.803 64.1668C121.803 63.1513 122.284 62.4622 123.209 62.4622C124.043 62.4622 124.65 63.0788 124.65 64.058V64.2665ZM124.641 66.8688H126.119V59.1255H124.641V62.4985C124.396 61.8366 123.735 61.3016 122.773 61.3016C121.16 61.3016 120.325 62.571 120.325 64.1668C120.325 65.7626 121.16 67.0229 122.773 67.0229C123.735 67.0229 124.396 66.497 124.641 65.8442V66.8779V66.8688ZM127.361 61.4467V66.8688H128.839V61.4467H127.361ZM127.334 60.5581H128.848V59.1165H127.334V60.5581ZM131.55 63.9673C131.55 63.0606 132.022 62.4713 132.765 62.4713C133.509 62.4713 133.826 62.9518 133.826 63.786V66.8688H135.304V63.4868C135.304 62.2809 134.778 61.3016 133.328 61.3016C132.511 61.3016 131.831 61.7187 131.559 62.3353V61.4467H130.082V66.8688H131.559V63.9673H131.55ZM139.747 64.5204C139.747 65.3909 139.158 65.9802 138.378 65.9802C137.906 65.9802 137.625 65.7626 137.625 65.3909C137.625 64.8468 138.079 64.738 138.722 64.602L139.747 64.3844V64.5204ZM141.189 63.387C141.189 61.9635 140.264 61.2926 138.867 61.2926C137.471 61.2926 136.583 62.0633 136.392 63.1694L137.734 63.2964C137.861 62.7705 138.187 62.3987 138.804 62.3987C139.421 62.3987 139.747 62.7705 139.747 63.3689V63.4958L138.26 63.7951C137.027 64.0399 136.193 64.4751 136.193 65.4997C136.193 66.4336 136.882 66.9957 138.015 66.9957C138.813 66.9957 139.557 66.6602 139.856 66.0346C139.992 66.624 140.382 66.9776 140.998 66.9776C141.488 66.9776 141.787 66.8144 142.023 66.633V65.8442C141.86 65.9167 141.715 65.953 141.569 65.953C141.334 65.953 141.189 65.817 141.189 65.5359V63.3689V63.387ZM146.475 61.5192C146.312 61.3832 146.049 61.3016 145.713 61.3016C144.961 61.3016 144.398 61.8638 144.199 62.4803V61.4467H142.721V66.8688H144.199V64.1849C144.199 63.2057 144.716 62.6617 145.477 62.6617C145.831 62.6617 146.076 62.7342 146.366 62.8974L146.475 61.5192ZM149.567 68.8817L152.677 61.4467H151.235L149.775 65.146H149.73L148.252 61.4467H146.701L148.95 66.896L148.116 68.8907H149.567V68.8817ZM155.188 64.1124C155.188 65.9802 156.63 67.0139 158.615 67.0139C160.365 67.0139 161.68 66.1888 161.68 64.6655C161.68 63.4142 160.964 62.6889 159.441 62.3987L158.017 62.1449C157.319 62.0089 156.911 61.8094 156.911 61.2472C156.911 60.5853 157.428 60.1773 158.334 60.1773C159.395 60.1773 160.084 60.7304 160.13 61.7912L161.544 61.7459C161.517 60.0232 160.374 58.9805 158.343 58.9805C156.539 58.9805 155.397 59.9144 155.397 61.3651C155.397 62.6435 156.231 63.3054 157.437 63.5321L158.915 63.8041C159.731 63.9673 160.193 64.1849 160.193 64.7743C160.193 65.4271 159.577 65.8079 158.615 65.8079C157.536 65.8079 156.657 65.2639 156.603 64.058L155.188 64.1215V64.1124ZM164.119 63.9673C164.119 63.0606 164.591 62.4713 165.334 62.4713C166.078 62.4713 166.395 62.9518 166.395 63.786V66.8688H167.873V63.4868C167.873 62.2809 167.347 61.3016 165.896 61.3016C165.08 61.3016 164.4 61.7187 164.128 62.3353V59.1255H162.65V66.8688H164.128V63.9673H164.119ZM172.316 64.5204C172.316 65.3909 171.726 65.9802 170.947 65.9802C170.475 65.9802 170.194 65.7626 170.194 65.3909C170.194 64.8468 170.647 64.738 171.291 64.602L172.316 64.3844V64.5204ZM173.757 63.387C173.757 61.9635 172.833 61.2926 171.436 61.2926C170.04 61.2926 169.151 62.0633 168.961 63.1694L170.303 63.2964C170.43 62.7705 170.756 62.3987 171.373 62.3987C171.989 62.3987 172.316 62.7705 172.316 63.3689V63.4958L170.829 63.7951C169.596 64.0399 168.761 64.4751 168.761 65.4997C168.761 66.4336 169.451 66.9957 170.584 66.9957C171.382 66.9957 172.125 66.6602 172.425 66.0346C172.561 66.624 172.95 66.9776 173.567 66.9776C174.057 66.9776 174.356 66.8144 174.592 66.633V65.8442C174.428 65.9167 174.283 65.953 174.138 65.953C173.902 65.953 173.757 65.817 173.757 65.5359V63.3689V63.387ZM179.043 61.5192C178.88 61.3832 178.617 61.3016 178.282 61.3016C177.529 61.3016 176.967 61.8638 176.768 62.4803V61.4467H175.29V66.8688H176.768V64.1849C176.768 63.2057 177.284 62.6617 178.046 62.6617C178.4 62.6617 178.645 62.7342 178.935 62.8974L179.043 61.5192ZM183.577 64.9738C183.368 65.5903 182.933 65.8986 182.208 65.8986C181.41 65.8986 180.784 65.3365 180.73 64.5295H184.801V64.0036C184.801 62.5257 183.894 61.3016 182.117 61.3016C180.494 61.3016 179.279 62.5347 179.279 64.2393C179.279 65.9439 180.485 67.0139 182.153 67.0139C183.541 67.0139 184.475 66.2976 184.756 65.0916L183.559 64.9647L183.577 64.9738ZM180.757 63.6047C180.893 62.9246 181.301 62.3715 182.108 62.3715C182.915 62.3715 183.314 62.97 183.359 63.6047H180.757ZM185.381 65.0644C185.481 66.3882 186.56 67.0048 187.975 67.0048C189.389 67.0048 190.332 66.3882 190.332 65.2821C190.332 64.2575 189.652 63.786 188.509 63.5956L187.476 63.4233C187.086 63.3598 186.886 63.1876 186.886 62.8974C186.886 62.5257 187.231 62.299 187.757 62.299C188.528 62.299 188.954 62.6073 189.044 63.2238L190.259 63.1785C190.16 61.9726 189.262 61.3016 187.766 61.3016C186.388 61.3016 185.517 62.0179 185.517 63.0516C185.517 64.0852 186.161 64.4932 187.313 64.6746L188.174 64.8196C188.718 64.9012 188.963 65.0644 188.963 65.4362C188.963 65.8261 188.519 66.0165 187.984 66.0165C187.231 66.0165 186.741 65.681 186.66 65.0372L185.381 65.0826V65.0644Z" fill="#5E749C"/>
<path d="M498.613 230.141H64.8444C63.3371 230.141 62.1152 231.363 62.1152 232.87V372.231C62.1152 373.738 63.3371 374.96 64.8444 374.96H498.613C500.121 374.96 501.342 373.738 501.342 372.231V232.87C501.342 231.363 500.121 230.141 498.613 230.141Z" fill="white"/>
<mask id="mask3_1022_33530" style="mask-type:luminance" maskUnits="userSpaceOnUse" x="86" y="292" width="391" height="23">
<path d="M476.073 292.305H86.0254V314.846H476.073V292.305Z" fill="white"/>
</mask>
<g mask="url(#mask3_1022_33530)">
<path d="M97.2918 314.843C103.516 314.843 108.562 309.798 108.562 303.573C108.562 297.349 103.516 292.303 97.2918 292.303C91.0674 292.303 86.0215 297.349 86.0215 303.573C86.0215 309.798 91.0674 314.843 97.2918 314.843Z" fill="#D7DDEB"/>
<path d="M97.2921 315.524C103.892 315.524 109.242 310.173 109.242 303.573C109.242 296.973 103.892 291.623 97.2921 291.623C90.6922 291.623 85.3418 296.973 85.3418 303.573C85.3418 310.173 90.6922 315.524 97.2921 315.524Z" stroke="white" stroke-width="1.36912"/>
<path d="M121.83 303.884C121.83 306.005 123.326 307.456 125.285 307.456C127.243 307.456 128.44 306.187 128.567 304.437L127.252 304.382C127.152 305.407 126.545 306.25 125.285 306.25C124.024 306.25 123.254 305.334 123.254 303.874C123.254 302.415 124.061 301.499 125.285 301.499C126.509 301.499 127.152 302.342 127.252 303.367L128.567 303.312C128.449 301.571 127.325 300.293 125.285 300.293C123.245 300.293 121.83 301.744 121.83 303.865V303.884ZM129.392 300.438V307.32H130.707V300.438H129.392ZM134.696 305.235C134.696 306.014 134.17 306.531 133.481 306.531C133.064 306.531 132.81 306.332 132.81 306.005C132.81 305.525 133.218 305.425 133.78 305.307L134.687 305.108V305.225L134.696 305.235ZM135.975 304.228C135.975 302.959 135.159 302.369 133.907 302.369C132.656 302.369 131.876 303.058 131.713 304.038L132.901 304.146C133.01 303.675 133.309 303.349 133.853 303.349C134.397 303.349 134.696 303.675 134.696 304.21V304.319L133.372 304.582C132.275 304.799 131.532 305.18 131.532 306.105C131.532 306.939 132.148 307.438 133.146 307.438C133.853 307.438 134.515 307.139 134.787 306.585C134.905 307.111 135.258 307.429 135.802 307.429C136.238 307.429 136.501 307.284 136.709 307.12V306.422C136.564 306.486 136.437 306.522 136.301 306.522C136.093 306.522 135.966 306.404 135.966 306.15V304.228H135.975ZM139.13 309.115L141.895 302.505H140.617L139.32 305.797H139.275L137.96 302.505H136.582L138.586 307.347L137.842 309.115H139.13ZM142.711 306.096C142.711 307.12 143.337 307.447 144.081 307.447C144.67 307.447 145.06 307.293 145.413 307.03V306.168C145.132 306.295 144.86 306.395 144.597 306.395C144.208 306.395 144.017 306.214 144.017 305.797V303.412H145.332V302.496H144.017V301.163H143.219L143.065 301.816C142.956 302.261 142.82 302.505 142.358 302.578L142.031 302.632V303.412H142.721V306.087L142.711 306.096ZM147.172 304.917C147.172 304.001 147.59 303.367 148.387 303.367C149.185 303.367 149.611 304.001 149.611 304.917C149.611 305.833 149.194 306.459 148.387 306.459C147.58 306.459 147.172 305.824 147.172 304.917ZM150.935 304.917C150.935 303.421 149.883 302.369 148.387 302.369C146.891 302.369 145.849 303.421 145.849 304.917C145.849 306.413 146.9 307.456 148.387 307.456C149.874 307.456 150.935 306.413 150.935 304.917ZM153.075 304.745C153.075 303.938 153.492 303.412 154.154 303.412C154.816 303.412 155.097 303.838 155.097 304.582V307.329H156.412V304.328C156.412 303.258 155.94 302.378 154.653 302.378C153.927 302.378 153.32 302.75 153.075 303.294V302.505H151.76V307.329H153.075V304.754V304.745ZM162.505 307.456C163.484 307.456 164.354 307.075 164.69 306.304V307.32H165.905V303.847H162.804V304.863H164.626C164.427 305.733 163.72 306.295 162.75 306.295C161.408 306.295 160.574 305.352 160.574 303.884C160.574 302.415 161.38 301.508 162.641 301.508C163.792 301.508 164.463 302.179 164.554 303.194L165.887 303.14C165.742 301.399 164.599 300.311 162.605 300.311C160.61 300.311 159.15 301.762 159.15 303.884C159.15 306.005 160.583 307.456 162.505 307.456ZM170.348 302.569C170.203 302.451 169.967 302.369 169.668 302.369C168.997 302.369 168.498 302.868 168.326 303.421V302.505H167.011V307.329H168.326V304.944C168.326 304.074 168.788 303.593 169.459 303.593C169.777 303.593 169.994 303.657 170.248 303.802L170.348 302.578V302.569ZM173.775 305.235C173.775 306.014 173.249 306.531 172.56 306.531C172.143 306.531 171.889 306.332 171.889 306.005C171.889 305.525 172.297 305.425 172.859 305.307L173.766 305.108V305.225L173.775 305.235ZM175.054 304.228C175.054 302.959 174.238 302.369 172.986 302.369C171.735 302.369 170.955 303.058 170.792 304.038L171.98 304.146C172.089 303.675 172.388 303.349 172.932 303.349C173.476 303.349 173.775 303.675 173.775 304.21V304.319L172.451 304.582C171.354 304.799 170.611 305.18 170.611 306.105C170.611 306.939 171.227 307.438 172.225 307.438C172.932 307.438 173.594 307.139 173.866 306.585C173.984 307.111 174.337 307.429 174.881 307.429C175.317 307.429 175.579 307.284 175.788 307.12V306.422C175.643 306.486 175.516 306.522 175.38 306.522C175.171 306.522 175.044 306.404 175.044 306.15V304.228H175.054ZM177.728 304.745C177.728 303.938 178.145 303.412 178.807 303.412C179.469 303.412 179.75 303.838 179.75 304.582V307.329H181.065V304.328C181.065 303.258 180.594 302.378 179.306 302.378C178.581 302.378 177.973 302.75 177.728 303.294V302.505H176.414V307.329H177.728V304.754V304.745ZM182.28 306.096C182.28 307.12 182.906 307.447 183.649 307.447C184.238 307.447 184.628 307.293 184.982 307.03V306.168C184.701 306.295 184.429 306.395 184.166 306.395C183.776 306.395 183.586 306.214 183.586 305.797V303.412H184.9V302.496H183.586V301.163H182.788L182.634 301.816C182.525 302.261 182.389 302.505 181.926 302.578L181.6 302.632V303.412H182.289V306.087L182.28 306.096Z" fill="#5E749C"/>
<path d="M272.623 302.369H273.911V307.328H275.28V300.419H274.273C274.019 301.145 273.584 301.471 272.623 301.471V302.369ZM279.677 301.68C278.299 303.158 277.637 304.98 277.601 307.328H279.097C279.106 305.089 279.432 303.221 281.182 301.435V300.437H276.141V301.671H279.668L279.677 301.68ZM283.649 306.168L284.746 305.297C285.788 304.463 286.641 303.693 286.641 302.478C286.641 301.263 285.807 300.311 284.174 300.311C282.651 300.311 281.636 301.235 281.636 302.686C281.636 302.895 281.672 303.112 281.708 303.33L283.068 303.384C283.014 303.203 282.996 303.013 282.996 302.786C282.996 301.988 283.377 301.462 284.147 301.462C284.918 301.462 285.217 301.924 285.217 302.559C285.217 303.393 284.628 303.937 283.558 304.835L281.636 306.422V307.337H286.831V306.177H283.676L283.649 306.168ZM287.52 307.328H288.173C288.173 307.791 287.974 307.972 287.52 307.999V308.688C288.563 308.67 288.989 308.19 288.989 307.265V305.869H287.52V307.337V307.328ZM294.148 300.447H292.498L289.306 304.4V305.669H292.806V307.328H294.148V305.669H295.2V304.536H294.148V300.447ZM292.806 301.652V304.536H290.485L292.806 301.652ZM297.594 306.177L298.691 305.306C299.733 304.472 300.586 303.702 300.586 302.487C300.586 301.272 299.752 300.32 298.12 300.32C296.596 300.32 295.581 301.244 295.581 302.695C295.581 302.904 295.617 303.121 295.653 303.339L297.004 303.393C296.95 303.212 296.932 303.022 296.932 302.795C296.932 301.997 297.313 301.471 298.083 301.471C298.854 301.471 299.153 301.934 299.153 302.568C299.153 303.402 298.564 303.946 297.494 304.844L295.572 306.431V307.347H300.767V306.186H297.612L297.594 306.177ZM301.084 302.378H302.372V307.337H303.741V300.428H302.735C302.481 301.154 302.046 301.48 301.084 301.48V302.378ZM304.802 307.337H305.455C305.455 307.8 305.255 307.981 304.802 308.008V308.698C305.845 308.679 306.271 308.199 306.271 307.274V305.878H304.802V307.347V307.337ZM311.539 300.456H307.377C307.341 301.589 307.105 303.375 306.933 304.327L308.266 304.427C308.483 304.055 308.864 303.747 309.481 303.747C310.278 303.747 310.741 304.318 310.741 305.062C310.741 305.869 310.251 306.376 309.471 306.376C308.619 306.376 308.157 305.85 308.157 305.025L306.824 304.926C306.769 306.476 307.722 307.483 309.462 307.483C310.968 307.483 312.028 306.531 312.028 305.053C312.028 303.756 311.23 302.704 309.644 302.704C308.955 302.704 308.483 302.958 308.202 303.239C308.266 302.931 308.383 302.015 308.402 301.68H311.548V300.465L311.539 300.456ZM315.102 306.376C314.359 306.376 313.969 305.968 313.878 305.325L312.6 305.361C312.717 306.694 313.66 307.473 315.084 307.473C317.042 307.473 318.004 305.941 318.004 303.81C318.004 301.68 317.006 300.32 315.129 300.32C313.579 300.32 312.527 301.263 312.527 302.704C312.527 304.046 313.443 304.989 314.939 304.989C315.846 304.989 316.48 304.554 316.752 303.937C316.734 305.37 316.199 306.376 315.102 306.376ZM316.471 302.668C316.471 303.448 315.991 303.946 315.156 303.946C314.322 303.946 313.833 303.448 313.833 302.668C313.833 301.888 314.313 301.399 315.147 301.399C315.982 301.399 316.471 301.924 316.471 302.668ZM323.353 300.447H319.191C319.155 301.58 318.919 303.366 318.747 304.318L320.08 304.418C320.297 304.046 320.678 303.738 321.295 303.738C322.093 303.738 322.555 304.309 322.555 305.053C322.555 305.86 322.066 306.367 321.286 306.367C320.434 306.367 319.971 305.841 319.971 305.016L318.638 304.917C318.584 306.467 319.536 307.473 321.277 307.473C322.782 307.473 323.843 306.521 323.843 305.044C323.843 303.747 323.045 302.695 321.458 302.695C320.769 302.695 320.298 302.949 320.016 303.23C320.08 302.922 320.198 302.006 320.216 301.671H323.362V300.456L323.353 300.447Z" fill="#5E749C"/>
<path d="M370.491 301.679C369.113 303.157 368.451 304.98 368.415 307.328H369.911C369.92 305.088 370.246 303.221 371.996 301.434V300.437H366.955V301.67H370.482L370.491 301.679ZM376.566 300.446H374.916L371.724 304.399V305.669H375.224V307.328H376.566V305.669H377.618V304.535H376.566V300.446ZM375.224 301.652V304.535H372.903L375.224 301.652ZM378.062 307.337H379.531V305.868H378.062V307.337ZM384.799 300.455H380.637C380.601 301.588 380.365 303.375 380.193 304.327L381.526 304.426C381.743 304.055 382.124 303.746 382.741 303.746C383.539 303.746 384.001 304.318 384.001 305.061C384.001 305.868 383.511 306.376 382.732 306.376C381.879 306.376 381.417 305.85 381.417 305.025L380.084 304.925C380.03 306.476 380.982 307.482 382.723 307.482C384.228 307.482 385.289 306.53 385.289 305.052C385.289 303.755 384.491 302.704 382.904 302.704C382.215 302.704 381.743 302.958 381.462 303.239C381.526 302.93 381.644 302.015 381.662 301.679H384.808V300.464L384.799 300.455ZM390.566 300.455H386.404C386.368 301.588 386.132 303.375 385.96 304.327L387.292 304.426C387.51 304.055 387.891 303.746 388.507 303.746C389.305 303.746 389.768 304.318 389.768 305.061C389.768 305.868 389.278 306.376 388.498 306.376C387.646 306.376 387.184 305.85 387.184 305.025L385.851 304.925C385.796 306.476 386.748 307.482 388.489 307.482C389.994 307.482 391.055 306.53 391.055 305.052C391.055 303.755 390.257 302.704 388.671 302.704C387.982 302.704 387.51 302.958 387.229 303.239C387.292 302.93 387.41 302.015 387.428 301.679H390.575V300.464L390.566 300.455ZM392.316 302.196C392.316 301.407 392.588 301.099 393.041 301.099C393.494 301.099 393.775 301.407 393.775 302.196C393.775 302.985 393.503 303.293 393.041 303.293C392.579 303.293 392.316 302.976 392.316 302.196ZM391.345 302.196C391.345 303.357 392.125 304.055 393.041 304.055C393.957 304.055 394.746 303.357 394.746 302.196C394.746 301.035 393.966 300.328 393.041 300.328C392.116 300.328 391.345 301.026 391.345 302.196ZM398.164 305.605C398.164 306.394 397.901 306.702 397.438 306.702C396.976 306.702 396.713 306.394 396.713 305.605C396.713 304.816 396.985 304.508 397.438 304.508C397.892 304.508 398.164 304.825 398.164 305.605ZM397.511 300.455H396.55L392.977 307.337H393.939L397.511 300.455ZM399.143 305.605C399.143 304.445 398.381 303.746 397.448 303.746C396.514 303.746 395.752 304.445 395.752 305.605C395.752 306.766 396.532 307.473 397.448 307.473C398.363 307.473 399.143 306.775 399.143 305.605Z" fill="#5E749C"/>
<path d="M446.957 300.447H442.796C442.759 301.58 442.524 303.366 442.351 304.318L443.684 304.418C443.902 304.046 444.283 303.738 444.899 303.738C445.697 303.738 446.159 304.309 446.159 305.053C446.159 305.86 445.67 306.367 444.89 306.367C444.038 306.367 443.575 305.841 443.575 305.016L442.242 304.917C442.188 306.467 443.14 307.473 444.881 307.473C446.386 307.473 447.447 306.521 447.447 305.044C447.447 303.747 446.649 302.695 445.062 302.695C444.373 302.695 443.902 302.949 443.621 303.23C443.684 302.922 443.802 302.006 443.82 301.671H446.966V300.456L446.957 300.447ZM451.817 305.379C451.817 306.023 451.319 306.358 450.639 306.358C449.795 306.358 449.26 305.923 449.233 305.034L447.891 304.98C447.891 306.512 448.934 307.464 450.648 307.464C452.207 307.464 453.223 306.703 453.223 305.488C453.223 304.617 452.651 303.992 451.781 303.847C452.434 303.756 453.068 303.167 453.068 302.314C453.068 301.127 452.18 300.311 450.611 300.311C449.043 300.311 448 301.39 448 302.813L449.324 302.867C449.324 301.979 449.786 301.417 450.584 301.417C451.337 301.417 451.708 301.834 451.708 302.441C451.708 303.139 451.183 303.402 450.602 303.402C450.348 303.402 450.14 303.402 450.004 303.384V304.409C450.185 304.391 450.385 304.373 450.593 304.373C451.3 304.373 451.826 304.708 451.826 305.37L451.817 305.379ZM453.785 307.337H455.254V305.869H453.785V307.337ZM458.754 301.689C457.375 303.167 456.713 304.989 456.677 307.337H458.173C458.182 305.098 458.509 303.23 460.259 301.444V300.447H455.217V301.68H458.744L458.754 301.689ZM464.828 300.456H463.178L459.987 304.409V305.678H463.486V307.337H464.828V305.678H465.88V304.545H464.828V300.456ZM463.486 301.662V304.545H461.165L463.486 301.662ZM466.841 302.196C466.841 301.408 467.113 301.099 467.567 301.099C468.02 301.099 468.301 301.408 468.301 302.196C468.301 302.985 468.029 303.294 467.567 303.294C467.104 303.294 466.841 302.976 466.841 302.196ZM465.871 302.196C465.871 303.357 466.651 304.055 467.567 304.055C468.482 304.055 469.271 303.357 469.271 302.196C469.271 301.036 468.491 300.329 467.567 300.329C466.642 300.329 465.871 301.027 465.871 302.196ZM472.69 305.606C472.69 306.395 472.427 306.703 471.964 306.703C471.502 306.703 471.239 306.395 471.239 305.606C471.239 304.817 471.511 304.509 471.964 304.509C472.418 304.509 472.69 304.826 472.69 305.606ZM472.037 300.456H471.076L467.503 307.337H468.464L472.037 300.456ZM473.669 305.606C473.669 304.445 472.907 303.747 471.973 303.747C471.039 303.747 470.278 304.445 470.278 305.606C470.278 306.766 471.057 307.473 471.973 307.473C472.889 307.473 473.669 306.775 473.669 305.606Z" fill="#5E749C"/>
</g>
<mask id="mask4_1022_33530" style="mask-type:luminance" maskUnits="userSpaceOnUse" x="86" y="328" width="392" height="24">
<path d="M477.442 328.508H86.0254V351.049H477.442V328.508Z" fill="white"/>
</mask>
<g mask="url(#mask4_1022_33530)">
<path d="M97.2918 351.046C103.516 351.046 108.562 346.001 108.562 339.776C108.562 333.552 103.516 328.506 97.2918 328.506C91.0674 328.506 86.0215 333.552 86.0215 339.776C86.0215 346.001 91.0674 351.046 97.2918 351.046Z" fill="#D7DDEB"/>
<path d="M97.2921 351.727C103.892 351.727 109.242 346.377 109.242 339.777C109.242 333.177 103.892 327.826 97.2921 327.826C90.6922 327.826 85.3418 333.177 85.3418 339.777C85.3418 346.377 90.6922 351.727 97.2921 351.727Z" stroke="white" stroke-width="1.36912"/>
<path d="M125.522 336.648V341.027C125.522 342.034 125.132 342.514 124.298 342.514C123.464 342.514 123.029 341.934 122.965 340.936L121.65 340.991C121.696 342.732 122.702 343.657 124.298 343.657C125.894 343.657 126.891 342.85 126.891 341.109V336.639H125.522V336.648ZM128.986 341.127C128.986 340.211 129.403 339.576 130.201 339.576C130.999 339.576 131.425 340.211 131.425 341.127C131.425 342.043 131.008 342.668 130.201 342.668C129.394 342.668 128.986 342.034 128.986 341.127ZM132.748 341.127C132.748 339.631 131.697 338.579 130.201 338.579C128.705 338.579 127.662 339.631 127.662 341.127C127.662 342.623 128.714 343.666 130.201 343.666C131.688 343.666 132.748 342.623 132.748 341.127ZM134.888 340.955C134.888 340.148 135.305 339.622 135.967 339.622C136.629 339.622 136.91 340.048 136.91 340.791V343.539H138.225V340.537C138.225 339.468 137.753 338.588 136.466 338.588C135.741 338.588 135.133 338.96 134.888 339.504V338.715H133.574V343.539H134.888V340.964V340.955ZM142.169 341.444C142.169 342.224 141.643 342.741 140.954 342.741C140.537 342.741 140.283 342.541 140.283 342.215C140.283 341.734 140.691 341.635 141.253 341.517L142.16 341.317V341.435L142.169 341.444ZM143.448 340.438C143.448 339.168 142.632 338.579 141.38 338.579C140.129 338.579 139.349 339.268 139.186 340.247L140.374 340.356C140.483 339.885 140.782 339.558 141.326 339.558C141.87 339.558 142.169 339.885 142.169 340.42V340.528L140.845 340.791C139.748 341.009 139.005 341.39 139.005 342.315C139.005 343.149 139.621 343.647 140.619 343.647C141.326 343.647 141.988 343.348 142.26 342.795C142.378 343.321 142.731 343.638 143.275 343.638C143.71 343.638 143.973 343.493 144.182 343.33V342.632C144.037 342.695 143.91 342.732 143.774 342.732C143.565 342.732 143.438 342.614 143.438 342.36V340.438H143.448ZM144.925 342.306C144.925 343.33 145.551 343.657 146.295 343.657C146.884 343.657 147.274 343.502 147.627 343.239V342.378C147.346 342.505 147.074 342.605 146.811 342.605C146.422 342.605 146.231 342.423 146.231 342.006V339.622H147.546V338.706H146.231V337.373H145.433L145.279 338.026C145.17 338.47 145.034 338.715 144.572 338.788L144.245 338.842V339.622H144.935V342.296L144.925 342.306ZM149.677 340.955C149.677 340.148 150.094 339.622 150.756 339.622C151.417 339.622 151.699 340.048 151.699 340.791V343.539H153.013V340.537C153.013 339.468 152.542 338.588 151.254 338.588C150.529 338.588 149.921 338.96 149.677 339.504V336.648H148.362V343.53H149.677V340.955ZM156.957 341.444C156.957 342.224 156.432 342.741 155.742 342.741C155.325 342.741 155.071 342.541 155.071 342.215C155.071 341.734 155.479 341.635 156.042 341.517L156.948 341.317V341.435L156.957 341.444ZM158.236 340.438C158.236 339.168 157.42 338.579 156.169 338.579C154.917 338.579 154.138 339.268 153.974 340.247L155.162 340.356C155.271 339.885 155.57 339.558 156.114 339.558C156.658 339.558 156.957 339.885 156.957 340.42V340.528L155.634 340.791C154.537 341.009 153.793 341.39 153.793 342.315C153.793 343.149 154.41 343.647 155.407 343.647C156.114 343.647 156.776 343.348 157.048 342.795C157.166 343.321 157.52 343.638 158.064 343.638C158.499 343.638 158.762 343.493 158.97 343.33V342.632C158.825 342.695 158.698 342.732 158.562 342.732C158.354 342.732 158.227 342.614 158.227 342.36V340.438H158.236ZM160.911 340.955C160.911 340.148 161.328 339.622 161.99 339.622C162.652 339.622 162.933 340.048 162.933 340.791V343.539H164.247V340.537C164.247 339.468 163.776 338.588 162.488 338.588C161.763 338.588 161.155 338.96 160.911 339.504V338.715H159.596V343.539H160.911V340.964V340.955ZM168.672 343.53V340.728H171.428V339.613H168.672V337.772H172.235V336.639H167.303V343.521H168.672V343.53ZM173.051 336.648V343.53H174.366V336.648H173.051ZM176.506 341.127C176.506 340.211 176.923 339.576 177.721 339.576C178.519 339.576 178.945 340.211 178.945 341.127C178.945 342.043 178.528 342.668 177.721 342.668C176.914 342.668 176.506 342.034 176.506 341.127ZM180.269 341.127C180.269 339.631 179.217 338.579 177.721 338.579C176.225 338.579 175.182 339.631 175.182 341.127C175.182 342.623 176.234 343.666 177.721 343.666C179.208 343.666 180.269 342.623 180.269 341.127ZM184.431 338.778C184.285 338.661 184.05 338.579 183.75 338.579C183.08 338.579 182.581 339.078 182.409 339.631V338.715H181.094V343.539H182.409V341.154C182.409 340.284 182.871 339.803 183.542 339.803C183.859 339.803 184.077 339.867 184.331 340.012L184.431 338.788V338.778ZM188.456 341.852C188.275 342.396 187.885 342.668 187.241 342.668C186.534 342.668 185.972 342.17 185.927 341.453H189.544V340.982C189.544 339.667 188.737 338.579 187.16 338.579C185.718 338.579 184.639 339.676 184.639 341.19C184.639 342.705 185.709 343.657 187.196 343.657C188.429 343.657 189.263 343.022 189.517 341.952L188.456 341.843V341.852ZM185.954 340.637C186.072 340.039 186.434 339.54 187.16 339.54C187.885 339.54 188.23 340.075 188.275 340.637H185.954ZM190.061 341.934C190.152 343.113 191.113 343.657 192.364 343.657C193.615 343.657 194.459 343.113 194.459 342.124C194.459 341.218 193.86 340.791 192.845 340.628L191.929 340.474C191.575 340.42 191.403 340.265 191.403 340.003C191.403 339.676 191.711 339.468 192.183 339.468C192.872 339.468 193.244 339.74 193.334 340.284L194.413 340.238C194.323 339.168 193.525 338.57 192.192 338.57C190.968 338.57 190.188 339.205 190.188 340.12C190.188 341.036 190.759 341.399 191.784 341.562L192.546 341.689C193.026 341.762 193.244 341.907 193.244 342.233C193.244 342.587 192.854 342.75 192.373 342.75C191.702 342.75 191.267 342.451 191.195 341.879L190.061 341.925V341.934Z" fill="#5E749C"/>
<path d="M285.899 342.371L286.996 341.501C288.039 340.666 288.891 339.896 288.891 338.681C288.891 337.466 288.057 336.514 286.425 336.514C284.902 336.514 283.886 337.439 283.886 338.889C283.886 339.098 283.922 339.315 283.959 339.533L285.31 339.587C285.255 339.406 285.237 339.216 285.237 338.989C285.237 338.191 285.618 337.665 286.389 337.665C287.159 337.665 287.458 338.128 287.458 338.762C287.458 339.596 286.869 340.14 285.799 341.038L283.877 342.625V343.541H289.072V342.38H285.917L285.899 342.371ZM289.771 343.532H290.423C290.423 343.994 290.224 344.175 289.771 344.203V344.892C290.813 344.873 291.239 344.393 291.239 343.468V342.072H289.771V343.541V343.532ZM291.076 338.572H292.364V343.532H293.733V336.622H292.726C292.473 337.348 292.037 337.674 291.076 337.674V338.572ZM299.499 336.65H295.338C295.301 337.783 295.066 339.569 294.893 340.521L296.226 340.621C296.444 340.249 296.825 339.941 297.441 339.941C298.239 339.941 298.702 340.512 298.702 341.256C298.702 342.063 298.212 342.57 297.432 342.57C296.58 342.57 296.117 342.045 296.117 341.219L294.785 341.12C294.73 342.67 295.682 343.677 297.423 343.677C298.928 343.677 299.989 342.725 299.989 341.247C299.989 339.95 299.191 338.898 297.604 338.898C296.915 338.898 296.444 339.152 296.163 339.433C296.226 339.125 296.344 338.209 296.362 337.874H299.509V336.659L299.499 336.65ZM303.435 337.611C304.178 337.611 304.568 338.019 304.659 338.663L305.937 338.626C305.819 337.293 304.876 336.514 303.453 336.514C301.494 336.514 300.533 338.046 300.533 340.177C300.533 342.308 301.53 343.668 303.407 343.668C304.958 343.668 306.01 342.725 306.01 341.283C306.01 339.941 305.094 338.998 303.598 338.998C302.691 338.998 302.056 339.433 301.784 340.05C301.802 338.617 302.337 337.611 303.435 337.611ZM302.065 341.319C302.065 340.539 302.546 340.041 303.38 340.041C304.214 340.041 304.704 340.539 304.704 341.319C304.704 342.099 304.223 342.589 303.389 342.589C302.555 342.589 302.065 342.063 302.065 341.319ZM306.545 343.541H307.197C307.197 344.003 306.998 344.184 306.545 344.212V344.901C307.587 344.883 308.013 344.402 308.013 343.477V342.081H306.545V343.55V343.541ZM310.761 342.38L311.858 341.51C312.901 340.675 313.753 339.905 313.753 338.69C313.753 337.475 312.919 336.523 311.287 336.523C309.763 336.523 308.748 337.448 308.748 338.898C308.748 339.107 308.784 339.324 308.82 339.542L310.171 339.596C310.117 339.415 310.099 339.225 310.099 338.998C310.099 338.2 310.48 337.674 311.25 337.674C312.021 337.674 312.32 338.137 312.32 338.771C312.32 339.606 311.731 340.15 310.661 341.047L308.739 342.634V343.55H313.934V342.389H310.779L310.761 342.38ZM318.214 341.582C318.214 342.226 317.715 342.561 317.035 342.561C316.192 342.561 315.657 342.126 315.63 341.238L314.288 341.183C314.288 342.716 315.331 343.668 317.044 343.668C318.604 343.668 319.619 342.906 319.619 341.691C319.619 340.821 319.048 340.195 318.178 340.05C318.83 339.959 319.465 339.37 319.465 338.517C319.465 337.33 318.576 336.514 317.008 336.514C315.439 336.514 314.397 337.593 314.397 339.016L315.72 339.071C315.72 338.182 316.183 337.62 316.981 337.62C317.733 337.62 318.105 338.037 318.105 338.644C318.105 339.343 317.579 339.606 316.999 339.606C316.745 339.606 316.536 339.606 316.4 339.587V340.612C316.582 340.594 316.781 340.576 316.99 340.576C317.697 340.576 318.223 340.911 318.223 341.573L318.214 341.582ZM322.82 337.529C323.518 337.529 323.98 337.883 323.98 338.572C323.98 339.207 323.518 339.551 322.82 339.551C322.122 339.551 321.686 339.198 321.686 338.572C321.686 337.883 322.149 337.529 322.82 337.529ZM322.82 340.521C323.663 340.521 324.144 340.884 324.144 341.573C324.144 342.262 323.663 342.643 322.82 342.643C321.977 342.643 321.496 342.253 321.496 341.573C321.496 340.893 321.977 340.521 322.82 340.521ZM322.82 343.668C324.524 343.668 325.531 342.906 325.531 341.691C325.531 340.802 324.932 340.195 324.189 340.023C324.896 339.751 325.304 339.234 325.304 338.436C325.304 337.248 324.262 336.523 322.82 336.523C321.378 336.523 320.335 337.248 320.335 338.436C320.335 339.234 320.744 339.751 321.451 340.023C320.698 340.195 320.109 340.811 320.109 341.691C320.109 342.906 321.106 343.668 322.82 343.668Z" fill="#5E749C"/>
<path d="M376.494 338.572H377.782V343.532H379.151V336.622H378.144C377.89 337.348 377.455 337.674 376.494 337.674V338.572ZM380.212 343.532H381.68V342.063H380.212V343.532ZM384.428 342.371L385.525 341.501C386.568 340.666 387.42 339.896 387.42 338.681C387.42 337.466 386.586 336.514 384.954 336.514C383.43 336.514 382.415 337.439 382.415 338.889C382.415 339.098 382.451 339.315 382.487 339.533L383.838 339.587C383.784 339.406 383.766 339.216 383.766 338.989C383.766 338.191 384.147 337.665 384.917 337.665C385.688 337.665 385.987 338.128 385.987 338.762C385.987 339.596 385.398 340.14 384.328 341.038L382.406 342.625V343.541H387.601V342.38H384.446L384.428 342.371ZM392.76 336.641H388.599C388.562 337.774 388.327 339.56 388.154 340.512L389.487 340.612C389.705 340.24 390.086 339.932 390.702 339.932C391.5 339.932 391.962 340.503 391.962 341.247C391.962 342.054 391.473 342.561 390.693 342.561C389.841 342.561 389.378 342.035 389.378 341.21L388.046 341.111C387.991 342.661 388.943 343.668 390.684 343.668C392.189 343.668 393.25 342.716 393.25 341.238C393.25 339.941 392.452 338.889 390.865 338.889C390.176 338.889 389.705 339.143 389.424 339.424C389.487 339.116 389.605 338.2 389.623 337.865H392.769V336.65L392.76 336.641ZM394.51 338.381C394.51 337.593 394.782 337.284 395.236 337.284C395.689 337.284 395.97 337.593 395.97 338.381C395.97 339.17 395.698 339.479 395.236 339.479C394.773 339.479 394.51 339.161 394.51 338.381ZM393.54 338.381C393.54 339.542 394.32 340.24 395.236 340.24C396.151 340.24 396.94 339.542 396.94 338.381C396.94 337.221 396.161 336.514 395.236 336.514C394.311 336.514 393.54 337.212 393.54 338.381ZM400.359 341.791C400.359 342.58 400.096 342.888 399.633 342.888C399.171 342.888 398.908 342.58 398.908 341.791C398.908 341.002 399.18 340.694 399.633 340.694C400.087 340.694 400.359 341.011 400.359 341.791ZM399.706 336.641H398.745L395.172 343.522H396.133L399.706 336.641ZM401.338 341.791C401.338 340.63 400.576 339.932 399.642 339.932C398.708 339.932 397.947 340.63 397.947 341.791C397.947 342.951 398.727 343.658 399.642 343.658C400.558 343.658 401.338 342.96 401.338 341.791Z" fill="#5E749C"/>
<path d="M452.051 342.37L453.148 341.5C454.191 340.666 455.043 339.895 455.043 338.68C455.043 337.465 454.209 336.513 452.577 336.513C451.054 336.513 450.038 337.438 450.038 338.889C450.038 339.097 450.075 339.315 450.111 339.532L451.462 339.587C451.408 339.405 451.389 339.215 451.389 338.988C451.389 338.19 451.77 337.664 452.541 337.664C453.312 337.664 453.611 338.127 453.611 338.762C453.611 339.596 453.021 340.14 451.952 341.037L450.029 342.624V343.54H455.225V342.379H452.069L452.051 342.37ZM459.504 341.572C459.504 342.216 459.006 342.552 458.326 342.552C457.482 342.552 456.947 342.116 456.92 341.228L455.578 341.173C455.578 342.706 456.621 343.658 458.335 343.658C459.894 343.658 460.91 342.896 460.91 341.681C460.91 340.811 460.339 340.185 459.468 340.04C460.121 339.949 460.756 339.36 460.756 338.508C460.756 337.32 459.867 336.504 458.298 336.504C456.73 336.504 455.687 337.583 455.687 339.006L457.011 339.061C457.011 338.172 457.473 337.61 458.271 337.61C459.024 337.61 459.396 338.027 459.396 338.635C459.396 339.333 458.87 339.596 458.289 339.596C458.036 339.596 457.827 339.596 457.691 339.578V340.602C457.872 340.584 458.072 340.566 458.28 340.566C458.988 340.566 459.513 340.901 459.513 341.563L459.504 341.572ZM461.481 343.531H462.95V342.062H461.481V343.531ZM465.697 342.37L466.794 341.5C467.837 340.666 468.689 339.895 468.689 338.68C468.689 337.465 467.855 336.513 466.223 336.513C464.7 336.513 463.684 337.438 463.684 338.889C463.684 339.097 463.721 339.315 463.757 339.532L465.117 339.587C465.062 339.405 465.044 339.215 465.044 338.988C465.044 338.19 465.425 337.664 466.196 337.664C466.967 337.664 467.266 338.127 467.266 338.762C467.266 339.596 466.676 340.14 465.606 341.037L463.684 342.624V343.54H468.88V342.379H465.724L465.697 342.37ZM470.349 338.381C470.349 337.592 470.621 337.284 471.074 337.284C471.527 337.284 471.808 337.592 471.808 338.381C471.808 339.17 471.536 339.478 471.074 339.478C470.611 339.478 470.349 339.161 470.349 338.381ZM469.378 338.381C469.378 339.541 470.158 340.24 471.074 340.24C471.99 340.24 472.778 339.541 472.778 338.381C472.778 337.22 471.999 336.513 471.074 336.513C470.149 336.513 469.378 337.211 469.378 338.381ZM476.197 341.79C476.197 342.579 475.934 342.887 475.471 342.887C475.009 342.887 474.746 342.579 474.746 341.79C474.746 341.001 475.018 340.693 475.471 340.693C475.925 340.693 476.197 341.01 476.197 341.79ZM475.544 336.64H474.583L471.01 343.522H471.972L475.544 336.64ZM477.176 341.79C477.176 340.629 476.414 339.931 475.48 339.931C474.547 339.931 473.785 340.629 473.785 341.79C473.785 342.951 474.565 343.658 475.48 343.658C476.396 343.658 477.176 342.96 477.176 341.79Z" fill="#5E749C"/>
</g>
<path d="M204.201 270.441H88.0706C86.9389 270.441 86.0215 271.359 86.0215 272.491V273.56C86.0215 274.692 86.9389 275.61 88.0706 275.61H204.201C205.333 275.61 206.25 274.692 206.25 273.56V272.491C206.25 271.359 205.333 270.441 204.201 270.441Z" fill="#D7DDEB"/>
<path d="M323.734 270.441H289.578C288.447 270.441 287.529 271.359 287.529 272.491V273.56C287.529 274.692 288.447 275.61 289.578 275.61H323.734C324.866 275.61 325.783 274.692 325.783 273.56V272.491C325.783 271.359 324.866 270.441 323.734 270.441Z" fill="#D7DDEB"/>
<path d="M399.562 270.441H365.407C364.275 270.441 363.357 271.359 363.357 272.491V273.56C363.357 274.692 364.275 275.61 365.407 275.61H399.562C400.694 275.61 401.611 274.692 401.611 273.56V272.491C401.611 271.359 400.694 270.441 399.562 270.441Z" fill="#D7DDEB"/>
<path d="M475.394 270.441H441.239C440.107 270.441 439.189 271.359 439.189 272.491V273.56C439.189 274.692 440.107 275.61 441.239 275.61H475.394C476.526 275.61 477.443 274.692 477.443 273.56V272.491C477.443 271.359 476.526 270.441 475.394 270.441Z" fill="#D7DDEB"/>
<path d="M109.4 256.271V253.687H110.914C112.066 253.687 112.574 254.158 112.574 254.992C112.574 255.826 112.066 256.271 110.914 256.271H109.4ZM109.4 257.522H110.96C112.936 257.522 114.07 256.588 114.07 254.974C114.07 253.36 112.936 252.444 110.96 252.444H107.877V260.188H109.4V257.522ZM118.621 254.838C118.458 254.702 118.195 254.621 117.86 254.621C117.107 254.621 116.545 255.183 116.346 255.799V254.766H114.868V260.188H116.346V257.504C116.346 256.525 116.862 255.981 117.624 255.981C117.978 255.981 118.222 256.053 118.513 256.216L118.621 254.838ZM123.155 258.293C122.946 258.909 122.511 259.218 121.786 259.218C120.988 259.218 120.362 258.655 120.308 257.848H124.379V257.323C124.379 255.845 123.472 254.621 121.695 254.621C120.072 254.621 118.857 255.854 118.857 257.558C118.857 259.263 120.063 260.333 121.731 260.333C123.119 260.333 124.053 259.616 124.334 258.411L123.137 258.284L123.155 258.293ZM120.335 256.924C120.471 256.244 120.879 255.69 121.686 255.69C122.493 255.69 122.892 256.289 122.937 256.924H120.335ZM125.54 255.79V260.179H126.999V255.79H128.45V254.757H126.999V254.194C126.999 253.687 127.199 253.342 127.652 253.342C128.033 253.342 128.269 253.578 128.387 253.922L129.33 253.614C129.094 252.753 128.495 252.29 127.507 252.29C126.292 252.29 125.53 253.043 125.53 254.303V254.757H124.733V255.79H125.53H125.54ZM132.984 258.284C132.775 258.9 132.34 259.208 131.614 259.208C130.817 259.208 130.191 258.646 130.137 257.839H134.208V257.313C134.208 255.836 133.301 254.611 131.524 254.611C129.901 254.611 128.686 255.845 128.686 257.549C128.686 259.254 129.892 260.324 131.56 260.324C132.947 260.324 133.881 259.607 134.162 258.401L132.965 258.275L132.984 258.284ZM130.164 256.914C130.3 256.234 130.708 255.681 131.515 255.681C132.322 255.681 132.721 256.28 132.766 256.914H130.164ZM138.904 254.82C138.741 254.684 138.478 254.602 138.143 254.602C137.39 254.602 136.828 255.165 136.629 255.781V254.747H135.151V260.17H136.629V257.486C136.629 256.506 137.145 255.962 137.907 255.962C138.261 255.962 138.505 256.035 138.796 256.198L138.904 254.82ZM143.438 258.275C143.229 258.891 142.794 259.199 142.069 259.199C141.271 259.199 140.645 258.637 140.591 257.83H144.662V257.304C144.662 255.826 143.755 254.602 141.978 254.602C140.355 254.602 139.14 255.836 139.14 257.54C139.14 259.245 140.346 260.315 142.014 260.315C143.402 260.315 144.335 259.598 144.617 258.392L143.42 258.265L143.438 258.275ZM140.618 256.905C140.754 256.225 141.162 255.672 141.969 255.672C142.776 255.672 143.175 256.271 143.22 256.905H140.618ZM147.083 257.259C147.083 256.352 147.554 255.763 148.298 255.763C149.041 255.763 149.359 256.244 149.359 257.078V260.161H150.837V256.778C150.837 255.573 150.311 254.593 148.86 254.593C148.044 254.593 147.364 255.01 147.092 255.627V254.738H145.614V260.161H147.092V257.259H147.083ZM151.698 257.459C151.698 259.181 152.895 260.315 154.563 260.315C156.231 260.315 157.057 259.254 157.183 257.957L155.941 257.848C155.832 258.673 155.379 259.19 154.563 259.19C153.747 259.19 153.185 258.592 153.185 257.468C153.185 256.343 153.747 255.736 154.563 255.736C155.379 255.736 155.832 256.244 155.941 257.051L157.183 256.969C157.057 255.663 156.177 254.611 154.563 254.611C152.949 254.611 151.698 255.754 151.698 257.477V257.459ZM162.116 258.275C161.907 258.891 161.472 259.199 160.747 259.199C159.949 259.199 159.323 258.637 159.269 257.83H163.34V257.304C163.34 255.826 162.433 254.602 160.656 254.602C159.033 254.602 157.818 255.836 157.818 257.54C157.818 259.245 159.024 260.315 160.692 260.315C162.08 260.315 163.014 259.598 163.295 258.392L162.098 258.265L162.116 258.275ZM159.296 256.905C159.432 256.225 159.84 255.672 160.647 255.672C161.454 255.672 161.853 256.271 161.898 256.905H159.296ZM166.133 257.413C166.133 259.281 167.574 260.315 169.56 260.315C171.31 260.315 172.625 259.49 172.625 257.966C172.625 256.715 171.908 255.99 170.385 255.7L168.962 255.446C168.263 255.31 167.855 255.11 167.855 254.548C167.855 253.886 168.372 253.478 169.279 253.478C170.34 253.478 171.029 254.031 171.074 255.092L172.489 255.047C172.461 253.324 171.319 252.281 169.288 252.281C167.484 252.281 166.341 253.215 166.341 254.666C166.341 255.944 167.175 256.606 168.381 256.833L169.859 257.105C170.675 257.268 171.138 257.486 171.138 258.075C171.138 258.728 170.521 259.109 169.56 259.109C168.481 259.109 167.602 258.565 167.547 257.359L166.133 257.422V257.413ZM175.064 257.268C175.064 256.361 175.535 255.772 176.279 255.772C177.022 255.772 177.339 256.253 177.339 257.087V260.17H178.817V256.788C178.817 255.582 178.292 254.602 176.841 254.602C176.025 254.602 175.345 255.019 175.073 255.636V252.426H173.595V260.17H175.073V257.268H175.064ZM183.26 257.821C183.26 258.692 182.671 259.281 181.891 259.281C181.42 259.281 181.139 259.063 181.139 258.692C181.139 258.148 181.592 258.039 182.236 257.903L183.26 257.685V257.821ZM184.702 256.688C184.702 255.264 183.777 254.593 182.381 254.593C180.984 254.593 180.096 255.364 179.905 256.47L181.247 256.597C181.374 256.071 181.701 255.7 182.317 255.7C182.934 255.7 183.26 256.071 183.26 256.67V256.797L181.773 257.096C180.54 257.341 179.706 257.776 179.706 258.8C179.706 259.734 180.395 260.297 181.528 260.297C182.326 260.297 183.07 259.961 183.369 259.335C183.505 259.925 183.895 260.278 184.512 260.278C185.001 260.278 185.3 260.115 185.536 259.934V259.145C185.373 259.218 185.228 259.254 185.083 259.254C184.847 259.254 184.702 259.118 184.702 258.837V256.67V256.688ZM189.988 254.82C189.825 254.684 189.562 254.602 189.226 254.602C188.474 254.602 187.912 255.165 187.712 255.781V254.747H186.234V260.17H187.712V257.486C187.712 256.506 188.229 255.962 188.991 255.962C189.344 255.962 189.589 256.035 189.879 256.198L189.988 254.82ZM194.522 258.275C194.313 258.891 193.878 259.199 193.152 259.199C192.354 259.199 191.729 258.637 191.674 257.83H195.746V257.304C195.746 255.826 194.839 254.602 193.062 254.602C191.439 254.602 190.224 255.836 190.224 257.54C190.224 259.245 191.43 260.315 193.098 260.315C194.485 260.315 195.419 259.598 195.7 258.392L194.503 258.265L194.522 258.275ZM191.702 256.905C191.838 256.225 192.246 255.672 193.053 255.672C193.86 255.672 194.259 256.271 194.304 256.905H191.702ZM196.326 258.365C196.426 259.689 197.505 260.306 198.919 260.306C200.333 260.306 201.276 259.689 201.276 258.583C201.276 257.558 200.596 257.087 199.454 256.896L198.42 256.724C198.03 256.661 197.831 256.488 197.831 256.198C197.831 255.826 198.176 255.6 198.701 255.6C199.472 255.6 199.898 255.908 199.989 256.525L201.204 256.479C201.104 255.273 200.207 254.602 198.71 254.602C197.332 254.602 196.462 255.319 196.462 256.352C196.462 257.386 197.106 257.794 198.257 257.975L199.118 258.12C199.663 258.202 199.907 258.365 199.907 258.737C199.907 259.127 199.463 259.317 198.928 259.317C198.176 259.317 197.686 258.982 197.604 258.338L196.326 258.383V258.365Z" fill="#5E749C"/>
<path opacity="0.15" d="M91.5674 72.4434C96.7403 72.4434 100.934 68.25 100.934 63.0772C100.934 57.9043 96.7403 53.7109 91.5674 53.7109C86.3946 53.7109 82.2012 57.9043 82.2012 63.0772C82.2012 68.25 86.3946 72.4434 91.5674 72.4434Z" fill="#23E5AF"/>
<path d="M91.5681 68.099C94.3423 68.099 96.5912 65.8501 96.5912 63.0759C96.5912 60.3017 94.3423 58.0527 91.5681 58.0527C88.7939 58.0527 86.5449 60.3017 86.5449 63.0759C86.5449 65.8501 88.7939 68.099 91.5681 68.099Z" fill="#23E5AF"/>
<path opacity="0.15" d="M91.5674 265.684C96.7403 265.684 100.934 261.49 100.934 256.317C100.934 251.145 96.7403 246.951 91.5674 246.951C86.3946 246.951 82.2012 251.145 82.2012 256.317C82.2012 261.49 86.3946 265.684 91.5674 265.684Z" fill="#23E5AF"/>
<path d="M91.5681 261.339C94.3423 261.339 96.5912 259.09 96.5912 256.316C96.5912 253.542 94.3423 251.293 91.5681 251.293C88.7939 251.293 86.5449 253.542 86.5449 256.316C86.5449 259.09 88.7939 261.339 91.5681 261.339Z" fill="#23E5AF"/>
<path d="M506.13 216.475H62.1152V385.884H506.13V216.475Z" fill="url(#paint1_linear_1022_33530)"/>
</g>
<defs>
<filter id="filter0_d_1022_33530" x="0.679492" y="0" width="581.6" height="487.607" filterUnits="userSpaceOnUse" color-interpolation-filters="sRGB">
<feFlood flood-opacity="0" result="BackgroundImageFix"/>
<feColorMatrix in="SourceAlpha" type="matrix" values="0 0 0 0 0 0 0 0 0 0 0 0 0 0 0 0 0 0 127 0" result="hardAlpha"/>
<feOffset dy="16"/>
<feGaussianBlur stdDeviation="7.9"/>
<feComposite in2="hardAlpha" operator="out"/>
<feColorMatrix type="matrix" values="0 0 0 0 0.00784314 0 0 0 0 0.270588 0 0 0 0 0.847059 0 0 0 0.1 0"/>
<feBlend mode="normal" in2="BackgroundImageFix" result="effect1_dropShadow_1022_33530"/>
<feBlend mode="normal" in="SourceGraphic" in2="effect1_dropShadow_1022_33530" result="shape"/>
</filter>
<linearGradient id="paint0_linear_1022_33530" x1="275" y1="0" x2="274.521" y2="505.5" gradientUnits="userSpaceOnUse">
<stop stop-color="#EEF3FD"/>
<stop offset="1" stop-color="white"/>
</linearGradient>
<linearGradient id="paint1_linear_1022_33530" x1="284.123" y1="227.237" x2="284.123" y2="373.58" gradientUnits="userSpaceOnUse">
<stop stop-color="white" stop-opacity="0"/>
<stop offset="0.58" stop-color="white" stop-opacity="0.83"/>
<stop offset="1" stop-color="white"/>
</linearGradient>
</defs>
</svg>
