<svg width="792" height="545" viewBox="0 0 792 545" fill="none" xmlns="http://www.w3.org/2000/svg">
<rect x="233.038" y="227" width="426.924" height="231" rx="22.9695" fill="white" fill-opacity="0.46"/>
<g filter="url(#filter0_d_1184_9404)">
<rect x="250.18" y="245.274" width="392.64" height="194.452" rx="20" fill="white" shape-rendering="crispEdges"/>
<circle cx="282.816" cy="270.189" r="17.1947" fill="#EDEBFE"/>
<path d="M290.183 274.216V276.222H276.81V274.216C276.81 273.848 277.11 273.547 277.478 273.547H289.515C289.882 273.547 290.183 273.848 290.183 274.216Z" fill="#7E3AF2" stroke="#7E3AF2" stroke-width="1.00302" stroke-miterlimit="10" stroke-linecap="round" stroke-linejoin="round"/>
<path d="M280.154 268.866H278.816V273.547H280.154V268.866Z" fill="#7E3AF2"/>
<path d="M282.829 268.866H281.491V273.547H282.829V268.866Z" fill="#7E3AF2"/>
<path d="M285.503 268.866H284.166V273.547H285.503V268.866Z" fill="#7E3AF2"/>
<path d="M288.177 268.866H286.84V273.547H288.177V268.866Z" fill="#7E3AF2"/>
<path d="M290.852 276.723H276.141C275.867 276.723 275.64 276.496 275.64 276.222C275.64 275.948 275.867 275.72 276.141 275.72H290.852C291.126 275.72 291.354 275.948 291.354 276.222C291.354 276.496 291.126 276.723 290.852 276.723Z" fill="#7E3AF2"/>
<path d="M289.762 265.356L283.744 262.948C283.61 262.895 283.383 262.895 283.249 262.948L277.231 265.356C276.997 265.449 276.81 265.723 276.81 265.977V268.197C276.81 268.565 277.11 268.866 277.478 268.866H289.515C289.882 268.866 290.183 268.565 290.183 268.197V265.977C290.183 265.723 289.996 265.449 289.762 265.356ZM283.496 267.194C282.941 267.194 282.493 266.746 282.493 266.191C282.493 265.636 282.941 265.188 283.496 265.188C284.051 265.188 284.499 265.636 284.499 266.191C284.499 266.746 284.051 267.194 283.496 267.194Z" fill="#7E3AF2"/>
<path d="M288.849 274.216V276.222H275.476V274.216C275.476 273.848 275.776 273.547 276.144 273.547H288.181C288.548 273.547 288.849 273.848 288.849 274.216Z" fill="white" stroke="white" stroke-width="1.00302" stroke-miterlimit="10" stroke-linecap="round" stroke-linejoin="round"/>
<path d="M278.82 268.866H277.482V273.547H278.82V268.866Z" fill="white"/>
<path d="M281.495 268.866H280.157V273.547H281.495V268.866Z" fill="white"/>
<path d="M284.169 268.866H282.832V273.547H284.169V268.866Z" fill="white"/>
<path d="M286.843 268.866H285.506V273.547H286.843V268.866Z" fill="white"/>
<path d="M289.518 276.723H274.807C274.533 276.723 274.306 276.496 274.306 276.222C274.306 275.948 274.533 275.72 274.807 275.72H289.518C289.792 275.72 290.02 275.948 290.02 276.222C290.02 276.496 289.792 276.723 289.518 276.723Z" fill="white"/>
<path d="M288.428 265.356L282.41 262.948C282.276 262.895 282.049 262.895 281.915 262.948L275.897 265.356C275.663 265.449 275.476 265.723 275.476 265.977V268.197C275.476 268.565 275.776 268.866 276.144 268.866H288.181C288.548 268.866 288.849 268.565 288.849 268.197V265.977C288.849 265.723 288.662 265.449 288.428 265.356ZM282.162 267.194C281.607 267.194 281.159 266.746 281.159 266.191C281.159 265.636 281.607 265.188 282.162 265.188C282.717 265.188 283.165 265.636 283.165 266.191C283.165 266.746 282.717 267.194 282.162 267.194Z" fill="white"/>
<path d="M320.849 274.081L320.021 271.882H316.315L315.5 274.081H313.931L317.34 265.322H319.057L322.467 274.081H320.849ZM318.168 266.928L316.834 270.511H319.502L318.168 266.928ZM325.147 274.081H323.64V265.322H325.147V274.081ZM332.743 274.081H327.246V265.322H328.729V272.672H332.743V274.081ZM335.601 267.373C335.025 267.925 334.737 268.699 334.737 269.695C334.737 270.692 335.025 271.47 335.601 272.03C336.178 272.582 336.866 272.858 337.664 272.858C338.463 272.858 339.151 272.582 339.727 272.03C340.312 271.47 340.604 270.692 340.604 269.695C340.604 268.699 340.312 267.925 339.727 267.373C339.151 266.813 338.463 266.533 337.664 266.533C336.866 266.533 336.178 266.813 335.601 267.373ZM333.847 272.141C333.427 271.433 333.217 270.618 333.217 269.695C333.217 268.773 333.427 267.962 333.847 267.262C334.276 266.554 334.823 266.022 335.49 265.668C336.157 265.314 336.882 265.137 337.664 265.137C338.447 265.137 339.171 265.314 339.838 265.668C340.506 266.022 341.053 266.554 341.481 267.262C341.91 267.962 342.124 268.773 342.124 269.695C342.124 270.618 341.91 271.433 341.481 272.141C341.053 272.849 340.506 273.381 339.838 273.735C339.171 274.089 338.447 274.266 337.664 274.266C336.882 274.266 336.157 274.089 335.49 273.735C334.823 273.381 334.276 272.849 333.847 272.141ZM348.26 274.081H346.753V265.322H348.26V274.081ZM357.71 274.081H356.165L351.842 267.447V274.081H350.36V265.322H352.25L356.227 271.536V265.322H357.71V274.081ZM363.696 274.266C362.469 274.266 361.423 273.85 360.559 273.018C359.702 272.186 359.274 271.083 359.274 269.708C359.274 268.341 359.711 267.237 360.583 266.397C361.456 265.557 362.49 265.137 363.684 265.137C364.738 265.137 365.603 265.405 366.278 265.94C366.962 266.475 367.41 267.155 367.625 267.978L366.229 268.448C366.089 267.879 365.805 267.418 365.376 267.064C364.948 266.71 364.384 266.533 363.684 266.533C362.902 266.533 362.222 266.813 361.646 267.373C361.078 267.925 360.793 268.703 360.793 269.708C360.793 270.688 361.078 271.458 361.646 272.018C362.214 272.569 362.898 272.845 363.696 272.845C364.38 272.845 364.944 272.66 365.389 272.289C365.833 271.919 366.138 271.462 366.303 270.918L367.662 271.363C367.447 272.178 366.995 272.866 366.303 273.426C365.619 273.986 364.75 274.266 363.696 274.266Z" fill="black"/>
<rect x="419.462" y="260.581" width="33.9335" height="18" rx="2.96191" fill="#F5F6F7"/>
<rect x="419.462" y="260.581" width="33.9335" height="18" rx="2.96191" stroke="#BDBDBD"/>
<path d="M426.285 271.581H425.616V266.736H428.561V267.358H426.285V268.916H428.349V269.544H426.285V271.581ZM429.913 271.581H429.278V268.294H429.913V271.581ZM429.264 267.378C429.178 267.287 429.134 267.178 429.134 267.05C429.134 266.922 429.178 266.813 429.264 266.722C429.355 266.631 429.465 266.585 429.592 266.585C429.72 266.585 429.829 266.631 429.92 266.722C430.011 266.809 430.057 266.918 430.057 267.05C430.057 267.178 430.011 267.287 429.92 267.378C429.829 267.465 429.72 267.508 429.592 267.508C429.465 267.508 429.355 267.465 429.264 267.378ZM431.649 269.681V271.581H431.006V268.294H431.635V268.765C431.854 268.387 432.191 268.198 432.646 268.198C433.024 268.198 433.314 268.319 433.514 268.56C433.719 268.802 433.822 269.114 433.822 269.496V271.581H433.179V269.606C433.179 269.054 432.924 268.779 432.414 268.779C432.172 268.779 431.983 268.865 431.847 269.039C431.715 269.207 431.649 269.421 431.649 269.681ZM435.704 267.255V268.294H436.415V268.875H435.704V270.583C435.704 270.738 435.738 270.852 435.807 270.925C435.88 270.997 435.998 271.034 436.162 271.034C436.258 271.034 436.342 271.025 436.415 271.007V271.553C436.306 271.594 436.16 271.615 435.978 271.615C435.695 271.615 435.472 271.533 435.308 271.369C435.144 271.205 435.062 270.975 435.062 270.679V268.875H434.433V268.294H434.611C434.78 268.294 434.905 268.248 434.987 268.157C435.073 268.061 435.117 267.938 435.117 267.788V267.255H435.704ZM437.656 269.599H439.453C439.444 269.353 439.362 269.152 439.207 268.998C439.052 268.838 438.833 268.758 438.551 268.758C438.296 268.758 438.086 268.843 437.922 269.011C437.758 269.175 437.669 269.371 437.656 269.599ZM439.549 270.453L440.102 270.644C440.007 270.95 439.829 271.2 439.569 271.396C439.309 271.587 438.995 271.683 438.626 271.683C438.166 271.683 437.774 271.526 437.451 271.212C437.132 270.893 436.972 270.464 436.972 269.927C436.972 269.426 437.127 269.011 437.437 268.683C437.747 268.355 438.116 268.191 438.544 268.191C439.041 268.191 439.428 268.348 439.706 268.663C439.984 268.972 440.123 269.389 440.123 269.913C440.123 269.995 440.118 270.064 440.109 270.118H437.635C437.64 270.41 437.736 270.649 437.922 270.836C438.114 271.023 438.348 271.116 438.626 271.116C439.095 271.116 439.403 270.895 439.549 270.453ZM442.323 268.786C442.045 268.786 441.808 268.886 441.612 269.086C441.421 269.287 441.325 269.569 441.325 269.934C441.325 270.294 441.421 270.576 441.612 270.781C441.808 270.986 442.047 271.089 442.33 271.089C442.603 271.089 442.81 271.02 442.952 270.884C443.097 270.747 443.195 270.59 443.245 270.412L443.813 270.658C443.722 270.931 443.548 271.171 443.293 271.376C443.043 271.581 442.722 271.683 442.33 271.683C441.851 271.683 441.455 271.517 441.141 271.184C440.826 270.852 440.669 270.435 440.669 269.934C440.669 269.423 440.826 269.007 441.141 268.683C441.455 268.355 441.849 268.191 442.323 268.191C442.724 268.191 443.047 268.294 443.293 268.499C443.544 268.704 443.708 268.95 443.785 269.237L443.204 269.483C443.154 269.291 443.059 269.127 442.917 268.991C442.776 268.854 442.578 268.786 442.323 268.786ZM445.209 269.647V271.581H444.566V266.633H445.209V268.676C445.427 268.357 445.76 268.198 446.206 268.198C446.584 268.198 446.874 268.319 447.074 268.56C447.279 268.802 447.382 269.114 447.382 269.496V271.581H446.739V269.606C446.739 269.054 446.484 268.779 445.974 268.779C445.737 268.779 445.552 268.861 445.42 269.025C445.288 269.184 445.218 269.392 445.209 269.647Z" fill="black"/>
<rect x="459.319" y="260.581" width="32.9335" height="18" rx="2.96191" fill="#CDEEFC"/>
<rect x="459.319" y="260.581" width="32.9335" height="18" rx="2.96191" stroke="#2F80ED"/>
<path d="M468.639 271.581H465.694V266.736H468.639V267.358H466.364V268.847H468.427V269.476H466.364V270.959H468.639V271.581ZM469.845 269.927C469.845 270.273 469.93 270.556 470.098 270.774C470.271 270.993 470.508 271.102 470.809 271.102C471.096 271.102 471.326 270.991 471.499 270.767C471.672 270.544 471.759 270.259 471.759 269.913C471.759 269.572 471.674 269.296 471.506 269.086C471.337 268.877 471.107 268.772 470.816 268.772C470.524 268.772 470.29 268.879 470.112 269.093C469.934 269.307 469.845 269.585 469.845 269.927ZM471.766 271.136V271.082C471.679 271.25 471.547 271.392 471.369 271.505C471.196 271.615 470.989 271.669 470.747 271.669C470.278 271.669 469.9 271.505 469.613 271.177C469.331 270.845 469.189 270.428 469.189 269.927C469.189 269.449 469.335 269.043 469.627 268.711C469.918 268.373 470.292 268.205 470.747 268.205C471.016 268.205 471.235 268.26 471.403 268.369C471.572 268.474 471.688 268.603 471.752 268.758V266.633H472.387V270.972C472.387 271.196 472.399 271.398 472.422 271.581H471.8C471.777 271.453 471.766 271.305 471.766 271.136ZM474.341 267.255V268.294H475.052V268.875H474.341V270.583C474.341 270.738 474.375 270.852 474.444 270.925C474.516 270.997 474.635 271.034 474.799 271.034C474.895 271.034 474.979 271.025 475.052 271.007V271.553C474.942 271.594 474.797 271.615 474.614 271.615C474.332 271.615 474.109 271.533 473.945 271.369C473.781 271.205 473.699 270.975 473.699 270.679V268.875H473.07V268.294H473.248C473.416 268.294 473.541 268.248 473.623 268.157C473.71 268.061 473.753 267.938 473.753 267.788V267.255H474.341ZM476.293 269.599H478.09C478.081 269.353 477.999 269.152 477.844 268.998C477.689 268.838 477.47 268.758 477.188 268.758C476.933 268.758 476.723 268.843 476.559 269.011C476.395 269.175 476.306 269.371 476.293 269.599ZM478.185 270.453L478.739 270.644C478.643 270.95 478.466 271.2 478.206 271.396C477.946 271.587 477.632 271.683 477.263 271.683C476.803 271.683 476.411 271.526 476.088 271.212C475.769 270.893 475.609 270.464 475.609 269.927C475.609 269.426 475.764 269.011 476.074 268.683C476.384 268.355 476.753 268.191 477.181 268.191C477.677 268.191 478.065 268.348 478.343 268.663C478.62 268.972 478.759 269.389 478.759 269.913C478.759 269.995 478.755 270.064 478.746 270.118H476.272C476.277 270.41 476.372 270.649 476.559 270.836C476.75 271.023 476.985 271.116 477.263 271.116C477.732 271.116 478.04 270.895 478.185 270.453ZM480.96 268.786C480.682 268.786 480.445 268.886 480.249 269.086C480.058 269.287 479.962 269.569 479.962 269.934C479.962 270.294 480.058 270.576 480.249 270.781C480.445 270.986 480.684 271.089 480.967 271.089C481.24 271.089 481.447 271.02 481.588 270.884C481.734 270.747 481.832 270.59 481.882 270.412L482.449 270.658C482.358 270.931 482.185 271.171 481.93 271.376C481.679 271.581 481.358 271.683 480.967 271.683C480.488 271.683 480.092 271.517 479.778 271.184C479.463 270.852 479.306 270.435 479.306 269.934C479.306 269.423 479.463 269.007 479.778 268.683C480.092 268.355 480.486 268.191 480.96 268.191C481.361 268.191 481.684 268.294 481.93 268.499C482.181 268.704 482.345 268.95 482.422 269.237L481.841 269.483C481.791 269.291 481.695 269.127 481.554 268.991C481.413 268.854 481.215 268.786 480.96 268.786ZM483.845 269.647V271.581H483.203V266.633H483.845V268.676C484.064 268.357 484.396 268.198 484.843 268.198C485.221 268.198 485.51 268.319 485.711 268.56C485.916 268.802 486.018 269.114 486.018 269.496V271.581H485.376V269.606C485.376 269.054 485.121 268.779 484.611 268.779C484.374 268.779 484.189 268.861 484.057 269.025C483.925 269.184 483.854 269.392 483.845 269.647Z" fill="#058FC6"/>
<rect x="498.177" y="260.581" width="39.9335" height="18" rx="2.96191" fill="#E6F6DA"/>
<rect x="498.177" y="260.581" width="39.9335" height="18" rx="2.96191" stroke="#27AE60"/>
<path d="M507.833 271.581L507.307 270.228H505.161L504.649 271.581H503.931L505.858 266.736H506.63L508.557 271.581H507.833ZM506.227 267.433L505.4 269.606H507.068L506.227 267.433ZM508.868 271.758L509.49 271.615C509.513 271.847 509.606 272.038 509.77 272.189C509.934 272.344 510.139 272.421 510.385 272.421C511.055 272.421 511.39 272.066 511.39 271.355V270.884C511.308 271.043 511.178 271.173 511 271.273C510.827 271.373 510.622 271.423 510.385 271.423C509.948 271.423 509.586 271.275 509.299 270.979C509.016 270.679 508.875 270.296 508.875 269.831C508.875 269.38 509.016 269.002 509.299 268.697C509.581 268.387 509.943 268.232 510.385 268.232C510.886 268.232 511.224 268.405 511.397 268.752V268.294H512.032V271.335C512.032 271.553 512.003 271.756 511.943 271.943C511.889 272.134 511.8 272.309 511.677 272.469C511.554 272.628 511.381 272.754 511.157 272.845C510.939 272.936 510.681 272.981 510.385 272.981C509.98 272.981 509.636 272.865 509.353 272.633C509.071 272.405 508.909 272.114 508.868 271.758ZM510.481 270.884C510.759 270.884 510.984 270.788 511.157 270.597C511.331 270.401 511.417 270.146 511.417 269.831C511.417 269.517 511.331 269.264 511.157 269.073C510.984 268.877 510.759 268.779 510.481 268.779C510.199 268.779 509.968 268.875 509.791 269.066C509.618 269.257 509.531 269.512 509.531 269.831C509.531 270.155 509.615 270.412 509.784 270.603C509.957 270.79 510.189 270.884 510.481 270.884ZM514.883 268.26V268.943C514.787 268.929 514.693 268.922 514.602 268.922C514.001 268.922 513.7 269.259 513.7 269.934V271.581H513.058V268.294H513.687V268.868C513.887 268.449 514.215 268.239 514.671 268.239C514.744 268.239 514.814 268.246 514.883 268.26ZM516.21 270.802C516.411 271.007 516.654 271.109 516.941 271.109C517.228 271.109 517.47 271.007 517.666 270.802C517.866 270.592 517.966 270.303 517.966 269.934C517.966 269.569 517.866 269.285 517.666 269.08C517.47 268.87 517.228 268.765 516.941 268.765C516.654 268.765 516.411 268.87 516.21 269.08C516.014 269.285 515.916 269.569 515.916 269.934C515.916 270.303 516.014 270.592 516.21 270.802ZM515.732 268.69C516.051 268.357 516.454 268.191 516.941 268.191C517.429 268.191 517.83 268.357 518.144 268.69C518.463 269.018 518.622 269.433 518.622 269.934C518.622 270.439 518.465 270.859 518.151 271.191C517.837 271.519 517.433 271.683 516.941 271.683C516.449 271.683 516.046 271.519 515.732 271.191C515.418 270.859 515.26 270.439 515.26 269.934C515.26 269.433 515.418 269.018 515.732 268.69ZM520.272 267.255V268.294H520.983V268.875H520.272V270.583C520.272 270.738 520.306 270.852 520.374 270.925C520.447 270.997 520.566 271.034 520.73 271.034C520.825 271.034 520.91 271.025 520.983 271.007V271.553C520.873 271.594 520.728 271.615 520.545 271.615C520.263 271.615 520.04 271.533 519.876 271.369C519.712 271.205 519.63 270.975 519.63 270.679V268.875H519.001V268.294H519.179C519.347 268.294 519.472 268.248 519.554 268.157C519.641 268.061 519.684 267.938 519.684 267.788V267.255H520.272ZM522.223 269.599H524.021C524.012 269.353 523.93 269.152 523.775 268.998C523.62 268.838 523.401 268.758 523.119 268.758C522.864 268.758 522.654 268.843 522.49 269.011C522.326 269.175 522.237 269.371 522.223 269.599ZM524.116 270.453L524.67 270.644C524.574 270.95 524.396 271.2 524.137 271.396C523.877 271.587 523.563 271.683 523.194 271.683C522.734 271.683 522.342 271.526 522.018 271.212C521.7 270.893 521.54 270.464 521.54 269.927C521.54 269.426 521.695 269.011 522.005 268.683C522.315 268.355 522.684 268.191 523.112 268.191C523.608 268.191 523.996 268.348 524.273 268.663C524.551 268.972 524.69 269.389 524.69 269.913C524.69 269.995 524.686 270.064 524.677 270.118H522.203C522.208 270.41 522.303 270.649 522.49 270.836C522.681 271.023 522.916 271.116 523.194 271.116C523.663 271.116 523.971 270.895 524.116 270.453ZM526.891 268.786C526.613 268.786 526.376 268.886 526.18 269.086C525.989 269.287 525.893 269.569 525.893 269.934C525.893 270.294 525.989 270.576 526.18 270.781C526.376 270.986 526.615 271.089 526.897 271.089C527.171 271.089 527.378 271.02 527.519 270.884C527.665 270.747 527.763 270.59 527.813 270.412L528.38 270.658C528.289 270.931 528.116 271.171 527.861 271.376C527.61 271.581 527.289 271.683 526.897 271.683C526.419 271.683 526.023 271.517 525.708 271.184C525.394 270.852 525.237 270.435 525.237 269.934C525.237 269.423 525.394 269.007 525.708 268.683C526.023 268.355 526.417 268.191 526.891 268.191C527.292 268.191 527.615 268.294 527.861 268.499C528.112 268.704 528.276 268.95 528.353 269.237L527.772 269.483C527.722 269.291 527.626 269.127 527.485 268.991C527.344 268.854 527.146 268.786 526.891 268.786ZM529.776 269.647V271.581H529.134V266.633H529.776V268.676C529.995 268.357 530.327 268.198 530.774 268.198C531.152 268.198 531.441 268.319 531.642 268.56C531.847 268.802 531.949 269.114 531.949 269.496V271.581H531.307V269.606C531.307 269.054 531.052 268.779 530.542 268.779C530.305 268.779 530.12 268.861 529.988 269.025C529.856 269.184 529.785 269.392 529.776 269.647Z" fill="#27AE60"/>
<rect x="589.275" y="261.419" width="37.9371" height="16.3221" rx="0.829304" fill="#EEF3FD"/>
<rect x="589.275" y="261.419" width="37.9371" height="16.3221" rx="0.829304" stroke="#9CA3AF" stroke-width="0.331721"/>
<path d="M597.569 272.58H596.64V265.995H597.569V272.58ZM600.023 269.998V272.58H599.15V268.112H600.005V268.753C600.302 268.239 600.76 267.982 601.379 267.982C601.893 267.982 602.287 268.147 602.559 268.475C602.838 268.803 602.977 269.227 602.977 269.747V272.58H602.104V269.896C602.104 269.147 601.757 268.772 601.064 268.772C600.735 268.772 600.478 268.89 600.293 269.125C600.113 269.354 600.023 269.645 600.023 269.998ZM608.193 268.112L606.409 272.58H605.527L603.716 268.112H604.7L605.973 271.558L607.254 268.112H608.193ZM609.459 269.886H611.901C611.889 269.552 611.777 269.28 611.567 269.069C611.356 268.852 611.059 268.744 610.675 268.744C610.329 268.744 610.044 268.859 609.821 269.088C609.598 269.311 609.477 269.577 609.459 269.886ZM612.031 271.048L612.784 271.308C612.654 271.722 612.412 272.063 612.059 272.329C611.706 272.589 611.279 272.719 610.777 272.719C610.152 272.719 609.62 272.506 609.18 272.079C608.746 271.645 608.53 271.063 608.53 270.332C608.53 269.651 608.74 269.088 609.161 268.642C609.582 268.196 610.084 267.973 610.666 267.973C611.341 267.973 611.867 268.187 612.245 268.614C612.623 269.035 612.812 269.602 612.812 270.314C612.812 270.425 612.805 270.518 612.793 270.592H609.431C609.437 270.989 609.567 271.314 609.821 271.568C610.081 271.822 610.4 271.948 610.777 271.948C611.415 271.948 611.833 271.648 612.031 271.048ZM613.508 271.419L614.298 271.14C614.329 271.382 614.434 271.583 614.613 271.744C614.793 271.899 615.034 271.976 615.338 271.976C615.573 271.976 615.759 271.921 615.895 271.809C616.031 271.692 616.1 271.549 616.1 271.382C616.1 271.085 615.908 270.893 615.524 270.806L614.762 270.639C614.415 270.565 614.143 270.416 613.945 270.193C613.747 269.97 613.647 269.701 613.647 269.385C613.647 269.001 613.802 268.67 614.112 268.391C614.428 268.112 614.802 267.973 615.236 267.973C615.521 267.973 615.774 268.016 615.997 268.103C616.22 268.184 616.394 268.292 616.517 268.428C616.641 268.564 616.734 268.691 616.796 268.809C616.858 268.927 616.905 269.047 616.935 269.171L616.165 269.459C616.152 269.385 616.13 269.314 616.1 269.246C616.069 269.171 616.019 269.091 615.951 269.004C615.889 268.917 615.796 268.849 615.672 268.8C615.548 268.744 615.403 268.716 615.236 268.716C615.019 268.716 614.839 268.775 614.697 268.893C614.561 269.01 614.493 269.15 614.493 269.311C614.493 269.595 614.663 269.775 615.004 269.849L615.728 270.007C616.124 270.094 616.428 270.255 616.638 270.49C616.855 270.719 616.963 271.001 616.963 271.335C616.963 271.688 616.818 272.007 616.527 272.292C616.242 272.577 615.843 272.719 615.329 272.719C614.778 272.719 614.347 272.583 614.038 272.311C613.728 272.032 613.551 271.735 613.508 271.419ZM619.296 266.701V268.112H620.262V268.902H619.296V271.224C619.296 271.435 619.342 271.589 619.435 271.688C619.534 271.787 619.695 271.837 619.918 271.837C620.048 271.837 620.163 271.825 620.262 271.8V272.543C620.113 272.599 619.915 272.627 619.668 272.627C619.284 272.627 618.98 272.515 618.757 272.292C618.534 272.069 618.423 271.757 618.423 271.354V268.902H617.568V268.112H617.81C618.039 268.112 618.209 268.051 618.321 267.927C618.438 267.797 618.497 267.629 618.497 267.425V266.701H619.296Z" fill="#6B7280"/>
<circle cx="282.816" cy="318.803" r="17.1947" fill="#EDEBFE"/>
<path d="M290.183 322.829V324.835H276.81V322.829C276.81 322.461 277.11 322.16 277.478 322.16H289.515C289.882 322.16 290.183 322.461 290.183 322.829Z" fill="#7E3AF2" stroke="#7E3AF2" stroke-width="1.00302" stroke-miterlimit="10" stroke-linecap="round" stroke-linejoin="round"/>
<path d="M280.154 317.479H278.816V322.16H280.154V317.479Z" fill="#7E3AF2"/>
<path d="M282.829 317.479H281.491V322.16H282.829V317.479Z" fill="#7E3AF2"/>
<path d="M285.503 317.479H284.166V322.16H285.503V317.479Z" fill="#7E3AF2"/>
<path d="M288.177 317.479H286.84V322.16H288.177V317.479Z" fill="#7E3AF2"/>
<path d="M290.852 325.337H276.141C275.867 325.337 275.64 325.109 275.64 324.835C275.64 324.561 275.867 324.333 276.141 324.333H290.852C291.126 324.333 291.354 324.561 291.354 324.835C291.354 325.109 291.126 325.337 290.852 325.337Z" fill="#7E3AF2"/>
<path d="M289.762 313.969L283.744 311.562C283.61 311.508 283.383 311.508 283.249 311.562L277.231 313.969C276.997 314.062 276.81 314.337 276.81 314.591V316.811C276.81 317.179 277.11 317.479 277.478 317.479H289.515C289.882 317.479 290.183 317.179 290.183 316.811V314.591C290.183 314.337 289.996 314.062 289.762 313.969ZM283.496 315.808C282.941 315.808 282.493 315.36 282.493 314.805C282.493 314.25 282.941 313.802 283.496 313.802C284.051 313.802 284.499 314.25 284.499 314.805C284.499 315.36 284.051 315.808 283.496 315.808Z" fill="#7E3AF2"/>
<path d="M288.849 322.829V324.835H275.476V322.829C275.476 322.461 275.776 322.16 276.144 322.16H288.181C288.548 322.16 288.849 322.461 288.849 322.829Z" fill="white" stroke="white" stroke-width="1.00302" stroke-miterlimit="10" stroke-linecap="round" stroke-linejoin="round"/>
<path d="M278.82 317.479H277.482V322.16H278.82V317.479Z" fill="white"/>
<path d="M281.495 317.479H280.157V322.16H281.495V317.479Z" fill="white"/>
<path d="M284.169 317.479H282.832V322.16H284.169V317.479Z" fill="white"/>
<path d="M286.843 317.479H285.506V322.16H286.843V317.479Z" fill="white"/>
<path d="M289.518 325.337H274.807C274.533 325.337 274.306 325.109 274.306 324.835C274.306 324.561 274.533 324.333 274.807 324.333H289.518C289.792 324.333 290.02 324.561 290.02 324.835C290.02 325.109 289.792 325.337 289.518 325.337Z" fill="white"/>
<path d="M288.428 313.969L282.41 311.562C282.276 311.508 282.049 311.508 281.915 311.562L275.897 313.969C275.663 314.062 275.476 314.337 275.476 314.591V316.811C275.476 317.179 275.776 317.479 276.144 317.479H288.181C288.548 317.479 288.849 317.179 288.849 316.811V314.591C288.849 314.337 288.662 314.062 288.428 313.969ZM282.162 315.808C281.607 315.808 281.159 315.36 281.159 314.805C281.159 314.25 281.607 313.802 282.162 313.802C282.717 313.802 283.165 314.25 283.165 314.805C283.165 315.36 282.717 315.808 282.162 315.808Z" fill="white"/>
<path d="M324.497 322.694H323.027V316.246L320.297 322.694H319.012L316.307 316.27V322.694H314.862V313.936H316.838L319.679 320.619L322.483 313.936H324.497V322.694ZM332.096 322.694H326.599V313.936H328.082V321.286H332.096V322.694ZM336.992 322.879C335.765 322.879 334.72 322.463 333.855 321.632C332.998 320.8 332.57 319.696 332.57 318.321C332.57 316.954 333.007 315.85 333.88 315.01C334.752 314.17 335.786 313.75 336.98 313.75C338.034 313.75 338.899 314.018 339.574 314.553C340.258 315.089 340.706 315.768 340.921 316.592L339.525 317.061C339.385 316.493 339.101 316.032 338.672 315.677C338.244 315.323 337.68 315.146 336.98 315.146C336.198 315.146 335.518 315.426 334.942 315.986C334.374 316.538 334.09 317.316 334.09 318.321C334.09 319.301 334.374 320.071 334.942 320.631C335.51 321.183 336.194 321.459 336.992 321.459C337.676 321.459 338.24 321.273 338.685 320.903C339.129 320.532 339.434 320.075 339.599 319.532L340.958 319.976C340.744 320.792 340.291 321.479 339.599 322.039C338.915 322.599 338.047 322.879 336.992 322.879ZM343.945 317.963H345.489C345.958 317.963 346.325 317.843 346.588 317.605C346.86 317.357 346.996 317.028 346.996 316.616C346.996 316.196 346.86 315.863 346.588 315.616C346.325 315.369 345.958 315.245 345.489 315.245H343.945V317.963ZM345.711 319.272H343.945V322.694H342.462V313.936H345.711C346.543 313.936 347.214 314.187 347.725 314.689C348.243 315.192 348.503 315.83 348.503 316.604C348.503 317.386 348.243 318.029 347.725 318.531C347.214 319.025 346.543 319.272 345.711 319.272ZM356.849 322.879C355.622 322.879 354.576 322.463 353.711 321.632C352.854 320.8 352.426 319.696 352.426 318.321C352.426 316.954 352.863 315.85 353.736 315.01C354.609 314.17 355.642 313.75 356.836 313.75C357.89 313.75 358.755 314.018 359.43 314.553C360.114 315.089 360.563 315.768 360.777 316.592L359.381 317.061C359.241 316.493 358.957 316.032 358.529 315.677C358.1 315.323 357.536 315.146 356.836 315.146C356.054 315.146 355.374 315.426 354.798 315.986C354.23 316.538 353.946 317.316 353.946 318.321C353.946 319.301 354.23 320.071 354.798 320.631C355.366 321.183 356.05 321.459 356.849 321.459C357.532 321.459 358.096 321.273 358.541 320.903C358.986 320.532 359.29 320.075 359.455 319.532L360.814 319.976C360.6 320.792 360.147 321.479 359.455 322.039C358.771 322.599 357.903 322.879 356.849 322.879ZM364.075 315.986C363.498 316.538 363.21 317.312 363.21 318.309C363.21 319.305 363.498 320.083 364.075 320.643C364.651 321.195 365.339 321.471 366.138 321.471C366.937 321.471 367.624 321.195 368.201 320.643C368.785 320.083 369.078 319.305 369.078 318.309C369.078 317.312 368.785 316.538 368.201 315.986C367.624 315.426 366.937 315.146 366.138 315.146C365.339 315.146 364.651 315.426 364.075 315.986ZM362.321 320.754C361.901 320.046 361.691 319.231 361.691 318.309C361.691 317.386 361.901 316.575 362.321 315.875C362.749 315.167 363.297 314.636 363.964 314.282C364.631 313.927 365.356 313.75 366.138 313.75C366.92 313.75 367.645 313.927 368.312 314.282C368.979 314.636 369.527 315.167 369.955 315.875C370.383 316.575 370.597 317.386 370.597 318.309C370.597 319.231 370.383 320.046 369.955 320.754C369.527 321.463 368.979 321.994 368.312 322.348C367.645 322.702 366.92 322.879 366.138 322.879C365.356 322.879 364.631 322.702 363.964 322.348C363.297 321.994 362.749 321.463 362.321 320.754Z" fill="black"/>
<rect x="420.101" y="309.194" width="33.9335" height="18" rx="2.96191" fill="#F5F6F7"/>
<rect x="420.101" y="309.194" width="33.9335" height="18" rx="2.96191" stroke="#BDBDBD"/>
<path d="M426.924 320.194H426.254V315.349H429.2V315.971H426.924V317.529H428.988V318.157H426.924V320.194ZM430.552 320.194H429.916V316.907H430.552V320.194ZM429.903 315.991C429.816 315.9 429.773 315.791 429.773 315.663C429.773 315.536 429.816 315.426 429.903 315.335C429.994 315.244 430.103 315.199 430.231 315.199C430.358 315.199 430.468 315.244 430.559 315.335C430.65 315.422 430.695 315.531 430.695 315.663C430.695 315.791 430.65 315.9 430.559 315.991C430.468 316.078 430.358 316.121 430.231 316.121C430.103 316.121 429.994 316.078 429.903 315.991ZM432.287 318.294V320.194H431.645V316.907H432.274V317.378C432.492 317 432.829 316.811 433.285 316.811C433.663 316.811 433.952 316.932 434.153 317.173C434.358 317.415 434.46 317.727 434.46 318.11V320.194H433.818V318.219C433.818 317.668 433.563 317.392 433.053 317.392C432.811 317.392 432.622 317.479 432.485 317.652C432.353 317.82 432.287 318.034 432.287 318.294ZM436.343 315.868V316.907H437.054V317.488H436.343V319.196C436.343 319.351 436.377 319.465 436.445 319.538C436.518 319.611 436.637 319.647 436.801 319.647C436.896 319.647 436.981 319.638 437.054 319.62V320.167C436.944 320.208 436.799 320.228 436.616 320.228C436.334 320.228 436.111 320.146 435.947 319.982C435.783 319.818 435.701 319.588 435.701 319.292V317.488H435.072V316.907H435.25C435.418 316.907 435.543 316.861 435.625 316.77C435.712 316.675 435.755 316.552 435.755 316.401V315.868H436.343ZM438.294 318.212H440.092C440.083 317.966 440.001 317.766 439.846 317.611C439.691 317.451 439.472 317.372 439.19 317.372C438.935 317.372 438.725 317.456 438.561 317.624C438.397 317.788 438.308 317.984 438.294 318.212ZM440.187 319.066L440.741 319.258C440.645 319.563 440.468 319.813 440.208 320.009C439.948 320.201 439.634 320.296 439.265 320.296C438.805 320.296 438.413 320.139 438.089 319.825C437.771 319.506 437.611 319.078 437.611 318.54C437.611 318.039 437.766 317.624 438.076 317.296C438.386 316.968 438.755 316.804 439.183 316.804C439.679 316.804 440.067 316.962 440.345 317.276C440.622 317.586 440.761 318.003 440.761 318.526C440.761 318.608 440.757 318.677 440.748 318.731H438.274C438.279 319.023 438.374 319.262 438.561 319.449C438.752 319.636 438.987 319.729 439.265 319.729C439.734 319.729 440.042 319.508 440.187 319.066ZM442.962 317.399C442.684 317.399 442.447 317.499 442.251 317.7C442.06 317.9 441.964 318.183 441.964 318.547C441.964 318.907 442.06 319.189 442.251 319.394C442.447 319.599 442.686 319.702 442.968 319.702C443.242 319.702 443.449 319.634 443.59 319.497C443.736 319.36 443.834 319.203 443.884 319.025L444.451 319.271C444.36 319.545 444.187 319.784 443.932 319.989C443.681 320.194 443.36 320.296 442.968 320.296C442.49 320.296 442.094 320.13 441.779 319.798C441.465 319.465 441.308 319.048 441.308 318.547C441.308 318.037 441.465 317.62 441.779 317.296C442.094 316.968 442.488 316.804 442.962 316.804C443.363 316.804 443.686 316.907 443.932 317.112C444.183 317.317 444.347 317.563 444.424 317.85L443.843 318.096C443.793 317.905 443.697 317.741 443.556 317.604C443.415 317.467 443.217 317.399 442.962 317.399ZM445.847 318.26V320.194H445.205V315.246H445.847V317.29C446.066 316.971 446.398 316.811 446.845 316.811C447.223 316.811 447.512 316.932 447.713 317.173C447.918 317.415 448.02 317.727 448.02 318.11V320.194H447.378V318.219C447.378 317.668 447.123 317.392 446.613 317.392C446.376 317.392 446.191 317.474 446.059 317.638C445.927 317.798 445.856 318.005 445.847 318.26Z" fill="black"/>
<rect x="459.958" y="309.194" width="32.9335" height="18" rx="2.96191" fill="#CDEEFC"/>
<rect x="459.958" y="309.194" width="32.9335" height="18" rx="2.96191" stroke="#2F80ED"/>
<path d="M469.278 320.194H466.333V315.349H469.278V315.971H467.002V317.46H469.066V318.089H467.002V319.572H469.278V320.194ZM470.484 318.54C470.484 318.886 470.568 319.169 470.737 319.388C470.91 319.606 471.147 319.716 471.448 319.716C471.735 319.716 471.965 319.604 472.138 319.381C472.311 319.157 472.397 318.873 472.397 318.526C472.397 318.185 472.313 317.909 472.145 317.7C471.976 317.49 471.746 317.385 471.454 317.385C471.163 317.385 470.928 317.492 470.751 317.706C470.573 317.921 470.484 318.198 470.484 318.54ZM472.404 319.75V319.695C472.318 319.864 472.186 320.005 472.008 320.119C471.835 320.228 471.627 320.283 471.386 320.283C470.917 320.283 470.539 320.119 470.252 319.791C469.969 319.458 469.828 319.041 469.828 318.54C469.828 318.062 469.974 317.656 470.265 317.324C470.557 316.987 470.93 316.818 471.386 316.818C471.655 316.818 471.873 316.873 472.042 316.982C472.211 317.087 472.327 317.217 472.391 317.372V315.246H473.026V319.586C473.026 319.809 473.037 320.012 473.06 320.194H472.438C472.416 320.066 472.404 319.918 472.404 319.75ZM474.98 315.868V316.907H475.69V317.488H474.98V319.196C474.98 319.351 475.014 319.465 475.082 319.538C475.155 319.611 475.274 319.647 475.438 319.647C475.533 319.647 475.617 319.638 475.69 319.62V320.167C475.581 320.208 475.435 320.228 475.253 320.228C474.971 320.228 474.747 320.146 474.583 319.982C474.419 319.818 474.337 319.588 474.337 319.292V317.488H473.709V316.907H473.886C474.055 316.907 474.18 316.861 474.262 316.77C474.349 316.675 474.392 316.552 474.392 316.401V315.868H474.98ZM476.931 318.212H478.728C478.719 317.966 478.637 317.766 478.482 317.611C478.327 317.451 478.109 317.372 477.826 317.372C477.571 317.372 477.362 317.456 477.198 317.624C477.034 317.788 476.945 317.984 476.931 318.212ZM478.824 319.066L479.378 319.258C479.282 319.563 479.104 319.813 478.845 320.009C478.585 320.201 478.271 320.296 477.902 320.296C477.441 320.296 477.05 320.139 476.726 319.825C476.407 319.506 476.248 319.078 476.248 318.54C476.248 318.039 476.403 317.624 476.713 317.296C477.022 316.968 477.391 316.804 477.82 316.804C478.316 316.804 478.703 316.962 478.981 317.276C479.259 317.586 479.398 318.003 479.398 318.526C479.398 318.608 479.394 318.677 479.384 318.731H476.911C476.915 319.023 477.011 319.262 477.198 319.449C477.389 319.636 477.624 319.729 477.902 319.729C478.371 319.729 478.678 319.508 478.824 319.066ZM481.598 317.399C481.32 317.399 481.084 317.499 480.888 317.7C480.696 317.9 480.601 318.183 480.601 318.547C480.601 318.907 480.696 319.189 480.888 319.394C481.084 319.599 481.323 319.702 481.605 319.702C481.879 319.702 482.086 319.634 482.227 319.497C482.373 319.36 482.471 319.203 482.521 319.025L483.088 319.271C482.997 319.545 482.824 319.784 482.569 319.989C482.318 320.194 481.997 320.296 481.605 320.296C481.127 320.296 480.731 320.13 480.416 319.798C480.102 319.465 479.945 319.048 479.945 318.547C479.945 318.037 480.102 317.62 480.416 317.296C480.731 316.968 481.125 316.804 481.598 316.804C481.999 316.804 482.323 316.907 482.569 317.112C482.819 317.317 482.983 317.563 483.061 317.85L482.48 318.096C482.43 317.905 482.334 317.741 482.193 317.604C482.052 317.467 481.853 317.399 481.598 317.399ZM484.484 318.26V320.194H483.842V315.246H484.484V317.29C484.703 316.971 485.035 316.811 485.482 316.811C485.86 316.811 486.149 316.932 486.349 317.173C486.554 317.415 486.657 317.727 486.657 318.11V320.194H486.015V318.219C486.015 317.668 485.759 317.392 485.249 317.392C485.012 317.392 484.828 317.474 484.696 317.638C484.564 317.798 484.493 318.005 484.484 318.26Z" fill="#058FC6"/>
<rect x="498.815" y="309.194" width="39.9335" height="18" rx="2.96191" fill="#E6F6DA"/>
<rect x="498.815" y="309.194" width="39.9335" height="18" rx="2.96191" stroke="#27AE60"/>
<path d="M508.472 320.194L507.946 318.841H505.8L505.287 320.194H504.57L506.497 315.349H507.269L509.196 320.194H508.472ZM506.866 316.046L506.039 318.219H507.706L506.866 316.046ZM509.507 320.372L510.129 320.228C510.152 320.46 510.245 320.652 510.409 320.802C510.573 320.957 510.778 321.034 511.024 321.034C511.694 321.034 512.028 320.679 512.028 319.968V319.497C511.946 319.656 511.817 319.786 511.639 319.886C511.466 319.987 511.261 320.037 511.024 320.037C510.587 320.037 510.224 319.889 509.937 319.593C509.655 319.292 509.514 318.909 509.514 318.444C509.514 317.993 509.655 317.615 509.937 317.31C510.22 317 510.582 316.845 511.024 316.845C511.525 316.845 511.862 317.019 512.035 317.365V316.907H512.671V319.948C512.671 320.167 512.641 320.369 512.582 320.556C512.527 320.747 512.438 320.923 512.315 321.082C512.192 321.242 512.019 321.367 511.796 321.458C511.577 321.549 511.32 321.595 511.024 321.595C510.619 321.595 510.275 321.479 509.992 321.246C509.71 321.018 509.548 320.727 509.507 320.372ZM511.12 319.497C511.398 319.497 511.623 319.401 511.796 319.21C511.969 319.014 512.056 318.759 512.056 318.444C512.056 318.13 511.969 317.877 511.796 317.686C511.623 317.49 511.398 317.392 511.12 317.392C510.837 317.392 510.607 317.488 510.429 317.679C510.256 317.87 510.17 318.126 510.17 318.444C510.17 318.768 510.254 319.025 510.423 319.217C510.596 319.403 510.828 319.497 511.12 319.497ZM515.521 316.873V317.556C515.426 317.542 515.332 317.536 515.241 317.536C514.64 317.536 514.339 317.873 514.339 318.547V320.194H513.697V316.907H514.325V317.481C514.526 317.062 514.854 316.852 515.309 316.852C515.382 316.852 515.453 316.859 515.521 316.873ZM516.849 319.415C517.049 319.62 517.293 319.722 517.58 319.722C517.867 319.722 518.109 319.62 518.304 319.415C518.505 319.205 518.605 318.916 518.605 318.547C518.605 318.183 518.505 317.898 518.304 317.693C518.109 317.483 517.867 317.378 517.58 317.378C517.293 317.378 517.049 317.483 516.849 317.693C516.653 317.898 516.555 318.183 516.555 318.547C516.555 318.916 516.653 319.205 516.849 319.415ZM516.371 317.303C516.69 316.971 517.093 316.804 517.58 316.804C518.068 316.804 518.468 316.971 518.783 317.303C519.102 317.631 519.261 318.046 519.261 318.547C519.261 319.053 519.104 319.472 518.79 319.804C518.475 320.132 518.072 320.296 517.58 320.296C517.088 320.296 516.685 320.132 516.371 319.804C516.056 319.472 515.899 319.053 515.899 318.547C515.899 318.046 516.056 317.631 516.371 317.303ZM520.911 315.868V316.907H521.621V317.488H520.911V319.196C520.911 319.351 520.945 319.465 521.013 319.538C521.086 319.611 521.204 319.647 521.368 319.647C521.464 319.647 521.548 319.638 521.621 319.62V320.167C521.512 320.208 521.366 320.228 521.184 320.228C520.902 320.228 520.678 320.146 520.514 319.982C520.35 319.818 520.268 319.588 520.268 319.292V317.488H519.64V316.907H519.817C519.986 316.907 520.111 316.861 520.193 316.77C520.28 316.675 520.323 316.552 520.323 316.401V315.868H520.911ZM522.862 318.212H524.659C524.65 317.966 524.568 317.766 524.413 317.611C524.258 317.451 524.04 317.372 523.757 317.372C523.502 317.372 523.293 317.456 523.129 317.624C522.965 317.788 522.876 317.984 522.862 318.212ZM524.755 319.066L525.309 319.258C525.213 319.563 525.035 319.813 524.775 320.009C524.516 320.201 524.201 320.296 523.832 320.296C523.372 320.296 522.981 320.139 522.657 319.825C522.338 319.506 522.179 319.078 522.179 318.54C522.179 318.039 522.334 317.624 522.643 317.296C522.953 316.968 523.322 316.804 523.75 316.804C524.247 316.804 524.634 316.962 524.912 317.276C525.19 317.586 525.329 318.003 525.329 318.526C525.329 318.608 525.324 318.677 525.315 318.731H522.842C522.846 319.023 522.942 319.262 523.129 319.449C523.32 319.636 523.555 319.729 523.832 319.729C524.302 319.729 524.609 319.508 524.755 319.066ZM527.529 317.399C527.251 317.399 527.015 317.499 526.819 317.7C526.627 317.9 526.532 318.183 526.532 318.547C526.532 318.907 526.627 319.189 526.819 319.394C527.015 319.599 527.254 319.702 527.536 319.702C527.809 319.702 528.017 319.634 528.158 319.497C528.304 319.36 528.402 319.203 528.452 319.025L529.019 319.271C528.928 319.545 528.755 319.784 528.5 319.989C528.249 320.194 527.928 320.296 527.536 320.296C527.058 320.296 526.661 320.13 526.347 319.798C526.033 319.465 525.876 319.048 525.876 318.547C525.876 318.037 526.033 317.62 526.347 317.296C526.661 316.968 527.056 316.804 527.529 316.804C527.93 316.804 528.254 316.907 528.5 317.112C528.75 317.317 528.914 317.563 528.992 317.85L528.411 318.096C528.361 317.905 528.265 317.741 528.124 317.604C527.983 317.467 527.784 317.399 527.529 317.399ZM530.415 318.26V320.194H529.773V315.246H530.415V317.29C530.634 316.971 530.966 316.811 531.413 316.811C531.791 316.811 532.08 316.932 532.28 317.173C532.485 317.415 532.588 317.727 532.588 318.11V320.194H531.946V318.219C531.946 317.668 531.69 317.392 531.18 317.392C530.943 317.392 530.759 317.474 530.627 317.638C530.495 317.798 530.424 318.005 530.415 318.26Z" fill="#27AE60"/>
<rect x="587.554" y="310.033" width="37.9371" height="16.3221" rx="0.829304" fill="#EEF3FD"/>
<rect x="587.554" y="310.033" width="37.9371" height="16.3221" rx="0.829304" stroke="#9CA3AF" stroke-width="0.331721"/>
<path d="M595.847 321.193H594.918V314.608H595.847V321.193ZM598.302 318.611V321.193H597.429V316.726H598.283V317.367C598.58 316.853 599.039 316.596 599.658 316.596C600.172 316.596 600.565 316.76 600.837 317.088C601.116 317.416 601.255 317.84 601.255 318.36V321.193H600.382V318.509C600.382 317.76 600.035 317.385 599.342 317.385C599.014 317.385 598.757 317.503 598.571 317.738C598.391 317.967 598.302 318.258 598.302 318.611ZM606.471 316.726L604.687 321.193H603.805L601.994 316.726H602.978L604.251 320.172L605.533 316.726H606.471ZM607.737 318.5H610.18C610.167 318.165 610.056 317.893 609.845 317.682C609.635 317.466 609.338 317.357 608.954 317.357C608.607 317.357 608.322 317.472 608.099 317.701C607.876 317.924 607.755 318.19 607.737 318.5ZM610.31 319.661L611.062 319.921C610.932 320.336 610.691 320.676 610.338 320.943C609.985 321.203 609.557 321.333 609.056 321.333C608.43 321.333 607.898 321.119 607.458 320.692C607.025 320.258 606.808 319.676 606.808 318.946C606.808 318.264 607.019 317.701 607.44 317.255C607.861 316.809 608.362 316.586 608.944 316.586C609.619 316.586 610.146 316.8 610.523 317.227C610.901 317.648 611.09 318.215 611.09 318.927C611.09 319.038 611.084 319.131 611.071 319.206H607.709C607.715 319.602 607.845 319.927 608.099 320.181C608.359 320.435 608.678 320.562 609.056 320.562C609.694 320.562 610.112 320.261 610.31 319.661ZM611.786 320.032L612.576 319.754C612.607 319.995 612.712 320.196 612.892 320.357C613.071 320.512 613.313 320.59 613.616 320.59C613.852 320.59 614.037 320.534 614.174 320.422C614.31 320.305 614.378 320.162 614.378 319.995C614.378 319.698 614.186 319.506 613.802 319.419L613.04 319.252C612.694 319.178 612.421 319.029 612.223 318.806C612.025 318.583 611.926 318.314 611.926 317.998C611.926 317.614 612.081 317.283 612.39 317.004C612.706 316.726 613.081 316.586 613.514 316.586C613.799 316.586 614.053 316.63 614.276 316.716C614.499 316.797 614.672 316.905 614.796 317.042C614.92 317.178 615.013 317.305 615.074 317.422C615.136 317.54 615.183 317.661 615.214 317.785L614.443 318.073C614.43 317.998 614.409 317.927 614.378 317.859C614.347 317.785 614.297 317.704 614.229 317.617C614.167 317.531 614.074 317.463 613.951 317.413C613.827 317.357 613.681 317.329 613.514 317.329C613.297 317.329 613.118 317.388 612.975 317.506C612.839 317.624 612.771 317.763 612.771 317.924C612.771 318.209 612.941 318.388 613.282 318.463L614.006 318.621C614.403 318.707 614.706 318.868 614.917 319.104C615.133 319.333 615.242 319.614 615.242 319.949C615.242 320.302 615.096 320.621 614.805 320.905C614.52 321.19 614.121 321.333 613.607 321.333C613.056 321.333 612.625 321.196 612.316 320.924C612.006 320.645 611.83 320.348 611.786 320.032ZM617.574 315.314V316.726H618.54V317.515H617.574V319.837C617.574 320.048 617.621 320.203 617.714 320.302C617.813 320.401 617.974 320.45 618.197 320.45C618.327 320.45 618.441 320.438 618.54 320.413V321.156C618.392 321.212 618.194 321.24 617.946 321.24C617.562 321.24 617.259 321.128 617.036 320.905C616.813 320.683 616.701 320.37 616.701 319.967V317.515H615.847V316.726H616.088C616.317 316.726 616.488 316.664 616.599 316.54C616.717 316.41 616.776 316.243 616.776 316.038V315.314H617.574Z" fill="#6B7280"/>
<circle cx="282.816" cy="367.415" r="17.1947" fill="#EDEBFE"/>
<path d="M290.183 371.441V373.447H276.81V371.441C276.81 371.073 277.11 370.772 277.478 370.772H289.515C289.882 370.772 290.183 371.073 290.183 371.441Z" fill="#7E3AF2" stroke="#7E3AF2" stroke-width="1.00302" stroke-miterlimit="10" stroke-linecap="round" stroke-linejoin="round"/>
<path d="M280.154 366.092H278.816V370.773H280.154V366.092Z" fill="#7E3AF2"/>
<path d="M282.829 366.092H281.491V370.773H282.829V366.092Z" fill="#7E3AF2"/>
<path d="M285.503 366.092H284.166V370.773H285.503V366.092Z" fill="#7E3AF2"/>
<path d="M288.177 366.092H286.84V370.773H288.177V366.092Z" fill="#7E3AF2"/>
<path d="M290.852 373.949H276.141C275.867 373.949 275.64 373.721 275.64 373.447C275.64 373.173 275.867 372.946 276.141 372.946H290.852C291.126 372.946 291.354 373.173 291.354 373.447C291.354 373.721 291.126 373.949 290.852 373.949Z" fill="#7E3AF2"/>
<path d="M289.762 362.581L283.744 360.174C283.61 360.12 283.383 360.12 283.249 360.174L277.231 362.581C276.997 362.675 276.81 362.949 276.81 363.203V365.423C276.81 365.791 277.11 366.092 277.478 366.092H289.515C289.882 366.092 290.183 365.791 290.183 365.423V363.203C290.183 362.949 289.996 362.675 289.762 362.581ZM283.496 364.42C282.941 364.42 282.493 363.972 282.493 363.417C282.493 362.862 282.941 362.414 283.496 362.414C284.051 362.414 284.499 362.862 284.499 363.417C284.499 363.972 284.051 364.42 283.496 364.42Z" fill="#7E3AF2"/>
<path d="M288.849 371.441V373.447H275.476V371.441C275.476 371.073 275.776 370.772 276.144 370.772H288.181C288.548 370.772 288.849 371.073 288.849 371.441Z" fill="white" stroke="white" stroke-width="1.00302" stroke-miterlimit="10" stroke-linecap="round" stroke-linejoin="round"/>
<path d="M278.82 366.092H277.482V370.773H278.82V366.092Z" fill="white"/>
<path d="M281.495 366.092H280.157V370.773H281.495V366.092Z" fill="white"/>
<path d="M284.169 366.092H282.832V370.773H284.169V366.092Z" fill="white"/>
<path d="M286.843 366.092H285.506V370.773H286.843V366.092Z" fill="white"/>
<path d="M289.518 373.949H274.807C274.533 373.949 274.306 373.721 274.306 373.447C274.306 373.173 274.533 372.946 274.807 372.946H289.518C289.792 372.946 290.02 373.173 290.02 373.447C290.02 373.721 289.792 373.949 289.518 373.949Z" fill="white"/>
<path d="M288.428 362.581L282.41 360.174C282.276 360.12 282.049 360.12 281.915 360.174L275.897 362.581C275.663 362.675 275.476 362.949 275.476 363.203V365.423C275.476 365.791 275.776 366.092 276.144 366.092H288.181C288.548 366.092 288.849 365.791 288.849 365.423V363.203C288.849 362.949 288.662 362.675 288.428 362.581ZM282.162 364.42C281.607 364.42 281.159 363.972 281.159 363.417C281.159 362.862 281.607 362.414 282.162 362.414C282.717 362.414 283.165 362.862 283.165 363.417C283.165 363.972 282.717 364.42 282.162 364.42Z" fill="white"/>
<path d="M318.762 371.492C317.535 371.492 316.489 371.076 315.625 370.244C314.768 369.413 314.34 368.309 314.34 366.934C314.34 365.567 314.776 364.463 315.649 363.623C316.522 362.783 317.556 362.363 318.75 362.363C319.804 362.363 320.669 362.631 321.344 363.166C322.027 363.701 322.476 364.381 322.69 365.204L321.294 365.674C321.154 365.106 320.87 364.644 320.442 364.29C320.014 363.936 319.45 363.759 318.75 363.759C317.967 363.759 317.288 364.039 316.712 364.599C316.143 365.151 315.859 365.929 315.859 366.934C315.859 367.914 316.143 368.684 316.712 369.244C317.28 369.795 317.963 370.071 318.762 370.071C319.446 370.071 320.01 369.886 320.454 369.515C320.899 369.145 321.204 368.688 321.369 368.144L322.727 368.589C322.513 369.404 322.06 370.092 321.369 370.652C320.685 371.212 319.816 371.492 318.762 371.492ZM325.739 371.307H324.232V362.549H325.739V371.307ZM334.127 363.944H331.273V371.307H329.791V363.944H326.95V362.549H334.127V363.944ZM336.849 371.307H335.342V362.549H336.849V371.307ZM340.432 366.576H341.976C342.445 366.576 342.812 366.456 343.075 366.217C343.347 365.97 343.483 365.641 343.483 365.229C343.483 364.809 343.347 364.476 343.075 364.228C342.812 363.981 342.445 363.858 341.976 363.858H340.432V366.576ZM342.198 367.885H340.432V371.307H338.949V362.549H342.198C343.03 362.549 343.701 362.8 344.212 363.302C344.73 363.804 344.99 364.443 344.99 365.217C344.99 365.999 344.73 366.641 344.212 367.144C343.701 367.638 343.03 367.885 342.198 367.885ZM347.863 371.307H346.356V362.549H347.863V371.307ZM355.374 371.307H349.963V362.549H355.374V363.932H351.445V366.254H355.003V367.601H351.445V369.923H355.374V371.307Z" fill="black"/>
<rect x="413.462" y="357.807" width="33.9335" height="18" rx="2.96191" fill="#F5F6F7"/>
<rect x="413.462" y="357.807" width="33.9335" height="18" rx="2.96191" stroke="#BDBDBD"/>
<path d="M420.285 368.807H419.616V363.962H422.561V364.584H420.285V366.142H422.349V366.77H420.285V368.807ZM423.913 368.807H423.278V365.52H423.913V368.807ZM423.264 364.604C423.178 364.513 423.134 364.404 423.134 364.276C423.134 364.149 423.178 364.039 423.264 363.948C423.355 363.857 423.465 363.811 423.592 363.811C423.72 363.811 423.829 363.857 423.92 363.948C424.011 364.035 424.057 364.144 424.057 364.276C424.057 364.404 424.011 364.513 423.92 364.604C423.829 364.691 423.72 364.734 423.592 364.734C423.465 364.734 423.355 364.691 423.264 364.604ZM425.649 366.907V368.807H425.006V365.52H425.635V365.991C425.854 365.613 426.191 365.424 426.646 365.424C427.024 365.424 427.314 365.545 427.514 365.786C427.719 366.028 427.822 366.34 427.822 366.722V368.807H427.179V366.832C427.179 366.281 426.924 366.005 426.414 366.005C426.172 366.005 425.983 366.091 425.847 366.265C425.715 366.433 425.649 366.647 425.649 366.907ZM429.704 364.481V365.52H430.415V366.101H429.704V367.809C429.704 367.964 429.738 368.078 429.807 368.151C429.88 368.224 429.998 368.26 430.162 368.26C430.258 368.26 430.342 368.251 430.415 368.233V368.779C430.306 368.82 430.16 368.841 429.978 368.841C429.695 368.841 429.472 368.759 429.308 368.595C429.144 368.431 429.062 368.201 429.062 367.905V366.101H428.433V365.52H428.611C428.78 365.52 428.905 365.474 428.987 365.383C429.073 365.287 429.117 365.164 429.117 365.014V364.481H429.704ZM431.656 366.825H433.453C433.444 366.579 433.362 366.379 433.207 366.224C433.052 366.064 432.833 365.984 432.551 365.984C432.296 365.984 432.086 366.069 431.922 366.237C431.758 366.401 431.669 366.597 431.656 366.825ZM433.549 367.679L434.102 367.87C434.007 368.176 433.829 368.426 433.569 368.622C433.309 368.813 432.995 368.909 432.626 368.909C432.166 368.909 431.774 368.752 431.451 368.438C431.132 368.119 430.972 367.691 430.972 367.153C430.972 366.652 431.127 366.237 431.437 365.909C431.747 365.581 432.116 365.417 432.544 365.417C433.041 365.417 433.428 365.574 433.706 365.889C433.984 366.199 434.123 366.615 434.123 367.139C434.123 367.221 434.118 367.29 434.109 367.344H431.635C431.64 367.636 431.736 367.875 431.922 368.062C432.114 368.249 432.348 368.342 432.626 368.342C433.095 368.342 433.403 368.121 433.549 367.679ZM436.323 366.012C436.045 366.012 435.808 366.112 435.612 366.312C435.421 366.513 435.325 366.795 435.325 367.16C435.325 367.52 435.421 367.802 435.612 368.007C435.808 368.212 436.047 368.315 436.33 368.315C436.603 368.315 436.81 368.246 436.952 368.11C437.097 367.973 437.195 367.816 437.245 367.638L437.813 367.884C437.722 368.157 437.548 368.397 437.293 368.602C437.043 368.807 436.722 368.909 436.33 368.909C435.851 368.909 435.455 368.743 435.141 368.41C434.826 368.078 434.669 367.661 434.669 367.16C434.669 366.65 434.826 366.233 435.141 365.909C435.455 365.581 435.849 365.417 436.323 365.417C436.724 365.417 437.047 365.52 437.293 365.725C437.544 365.93 437.708 366.176 437.785 366.463L437.204 366.709C437.154 366.517 437.059 366.353 436.917 366.217C436.776 366.08 436.578 366.012 436.323 366.012ZM439.209 366.873V368.807H438.566V363.859H439.209V365.902C439.427 365.584 439.76 365.424 440.206 365.424C440.584 365.424 440.874 365.545 441.074 365.786C441.279 366.028 441.382 366.34 441.382 366.722V368.807H440.739V366.832C440.739 366.281 440.484 366.005 439.974 366.005C439.737 366.005 439.552 366.087 439.42 366.251C439.288 366.41 439.218 366.618 439.209 366.873Z" fill="black"/>
<rect x="453.319" y="357.807" width="32.9335" height="18" rx="2.96191" fill="#CDEEFC"/>
<rect x="453.319" y="357.807" width="32.9335" height="18" rx="2.96191" stroke="#2F80ED"/>
<path d="M462.639 368.807H459.694V363.962H462.639V364.584H460.364V366.073H462.427V366.702H460.364V368.185H462.639V368.807ZM463.845 367.153C463.845 367.499 463.93 367.782 464.098 368C464.271 368.219 464.508 368.328 464.809 368.328C465.096 368.328 465.326 368.217 465.499 367.993C465.672 367.77 465.759 367.486 465.759 367.139C465.759 366.798 465.674 366.522 465.506 366.312C465.337 366.103 465.107 365.998 464.816 365.998C464.524 365.998 464.29 366.105 464.112 366.319C463.934 366.533 463.845 366.811 463.845 367.153ZM465.766 368.362V368.308C465.679 368.476 465.547 368.618 465.369 368.731C465.196 368.841 464.989 368.895 464.747 368.895C464.278 368.895 463.9 368.731 463.613 368.403C463.331 368.071 463.189 367.654 463.189 367.153C463.189 366.675 463.335 366.269 463.627 365.937C463.918 365.599 464.292 365.431 464.747 365.431C465.016 365.431 465.235 365.486 465.403 365.595C465.572 365.7 465.688 365.83 465.752 365.984V363.859H466.387V368.198C466.387 368.422 466.399 368.624 466.422 368.807H465.8C465.777 368.679 465.766 368.531 465.766 368.362ZM468.341 364.481V365.52H469.052V366.101H468.341V367.809C468.341 367.964 468.375 368.078 468.444 368.151C468.516 368.224 468.635 368.26 468.799 368.26C468.895 368.26 468.979 368.251 469.052 368.233V368.779C468.942 368.82 468.797 368.841 468.614 368.841C468.332 368.841 468.109 368.759 467.945 368.595C467.781 368.431 467.699 368.201 467.699 367.905V366.101H467.07V365.52H467.248C467.416 365.52 467.541 365.474 467.623 365.383C467.71 365.287 467.753 365.164 467.753 365.014V364.481H468.341ZM470.293 366.825H472.09C472.081 366.579 471.999 366.379 471.844 366.224C471.689 366.064 471.47 365.984 471.188 365.984C470.933 365.984 470.723 366.069 470.559 366.237C470.395 366.401 470.306 366.597 470.293 366.825ZM472.185 367.679L472.739 367.87C472.643 368.176 472.466 368.426 472.206 368.622C471.946 368.813 471.632 368.909 471.263 368.909C470.803 368.909 470.411 368.752 470.088 368.438C469.769 368.119 469.609 367.691 469.609 367.153C469.609 366.652 469.764 366.237 470.074 365.909C470.384 365.581 470.753 365.417 471.181 365.417C471.677 365.417 472.065 365.574 472.343 365.889C472.62 366.199 472.759 366.615 472.759 367.139C472.759 367.221 472.755 367.29 472.746 367.344H470.272C470.277 367.636 470.372 367.875 470.559 368.062C470.75 368.249 470.985 368.342 471.263 368.342C471.732 368.342 472.04 368.121 472.185 367.679ZM474.96 366.012C474.682 366.012 474.445 366.112 474.249 366.312C474.058 366.513 473.962 366.795 473.962 367.16C473.962 367.52 474.058 367.802 474.249 368.007C474.445 368.212 474.684 368.315 474.967 368.315C475.24 368.315 475.447 368.246 475.588 368.11C475.734 367.973 475.832 367.816 475.882 367.638L476.449 367.884C476.358 368.157 476.185 368.397 475.93 368.602C475.679 368.807 475.358 368.909 474.967 368.909C474.488 368.909 474.092 368.743 473.778 368.41C473.463 368.078 473.306 367.661 473.306 367.16C473.306 366.65 473.463 366.233 473.778 365.909C474.092 365.581 474.486 365.417 474.96 365.417C475.361 365.417 475.684 365.52 475.93 365.725C476.181 365.93 476.345 366.176 476.422 366.463L475.841 366.709C475.791 366.517 475.695 366.353 475.554 366.217C475.413 366.08 475.215 366.012 474.96 366.012ZM477.845 366.873V368.807H477.203V363.859H477.845V365.902C478.064 365.584 478.396 365.424 478.843 365.424C479.221 365.424 479.51 365.545 479.711 365.786C479.916 366.028 480.018 366.34 480.018 366.722V368.807H479.376V366.832C479.376 366.281 479.121 366.005 478.611 366.005C478.374 366.005 478.189 366.087 478.057 366.251C477.925 366.41 477.854 366.618 477.845 366.873Z" fill="#058FC6"/>
<rect x="492.177" y="357.807" width="39.9335" height="18" rx="2.96191" fill="#E6F6DA"/>
<rect x="492.177" y="357.807" width="39.9335" height="18" rx="2.96191" stroke="#27AE60"/>
<path d="M501.833 368.807L501.307 367.454H499.161L498.649 368.807H497.931L499.858 363.962H500.63L502.557 368.807H501.833ZM500.227 364.659L499.4 366.832H501.068L500.227 364.659ZM502.868 368.984L503.49 368.841C503.513 369.073 503.606 369.264 503.77 369.415C503.934 369.57 504.139 369.647 504.385 369.647C505.055 369.647 505.39 369.292 505.39 368.581V368.11C505.308 368.269 505.178 368.399 505 368.499C504.827 368.599 504.622 368.649 504.385 368.649C503.948 368.649 503.586 368.501 503.299 368.205C503.016 367.905 502.875 367.522 502.875 367.057C502.875 366.606 503.016 366.228 503.299 365.923C503.581 365.613 503.943 365.458 504.385 365.458C504.886 365.458 505.224 365.631 505.397 365.978V365.52H506.032V368.561C506.032 368.779 506.003 368.982 505.943 369.169C505.889 369.36 505.8 369.536 505.677 369.695C505.554 369.854 505.381 369.98 505.157 370.071C504.939 370.162 504.681 370.207 504.385 370.207C503.98 370.207 503.636 370.091 503.353 369.859C503.071 369.631 502.909 369.34 502.868 368.984ZM504.481 368.11C504.759 368.11 504.984 368.014 505.157 367.823C505.331 367.627 505.417 367.372 505.417 367.057C505.417 366.743 505.331 366.49 505.157 366.299C504.984 366.103 504.759 366.005 504.481 366.005C504.199 366.005 503.968 366.101 503.791 366.292C503.618 366.483 503.531 366.738 503.531 367.057C503.531 367.381 503.615 367.638 503.784 367.829C503.957 368.016 504.189 368.11 504.481 368.11ZM508.883 365.486V366.169C508.787 366.155 508.693 366.148 508.602 366.148C508.001 366.148 507.7 366.486 507.7 367.16V368.807H507.058V365.52H507.687V366.094C507.887 365.675 508.215 365.465 508.671 365.465C508.744 365.465 508.814 365.472 508.883 365.486ZM510.21 368.028C510.411 368.233 510.654 368.335 510.941 368.335C511.228 368.335 511.47 368.233 511.666 368.028C511.866 367.818 511.966 367.529 511.966 367.16C511.966 366.795 511.866 366.511 511.666 366.306C511.47 366.096 511.228 365.991 510.941 365.991C510.654 365.991 510.411 366.096 510.21 366.306C510.014 366.511 509.916 366.795 509.916 367.16C509.916 367.529 510.014 367.818 510.21 368.028ZM509.732 365.916C510.051 365.584 510.454 365.417 510.941 365.417C511.429 365.417 511.83 365.584 512.144 365.916C512.463 366.244 512.622 366.659 512.622 367.16C512.622 367.665 512.465 368.085 512.151 368.417C511.837 368.745 511.433 368.909 510.941 368.909C510.449 368.909 510.046 368.745 509.732 368.417C509.418 368.085 509.26 367.665 509.26 367.16C509.26 366.659 509.418 366.244 509.732 365.916ZM514.272 364.481V365.52H514.983V366.101H514.272V367.809C514.272 367.964 514.306 368.078 514.374 368.151C514.447 368.224 514.566 368.26 514.73 368.26C514.825 368.26 514.91 368.251 514.983 368.233V368.779C514.873 368.82 514.728 368.841 514.545 368.841C514.263 368.841 514.04 368.759 513.876 368.595C513.712 368.431 513.63 368.201 513.63 367.905V366.101H513.001V365.52H513.179C513.347 365.52 513.472 365.474 513.554 365.383C513.641 365.287 513.684 365.164 513.684 365.014V364.481H514.272ZM516.223 366.825H518.021C518.012 366.579 517.93 366.379 517.775 366.224C517.62 366.064 517.401 365.984 517.119 365.984C516.864 365.984 516.654 366.069 516.49 366.237C516.326 366.401 516.237 366.597 516.223 366.825ZM518.116 367.679L518.67 367.87C518.574 368.176 518.396 368.426 518.137 368.622C517.877 368.813 517.563 368.909 517.194 368.909C516.734 368.909 516.342 368.752 516.018 368.438C515.7 368.119 515.54 367.691 515.54 367.153C515.54 366.652 515.695 366.237 516.005 365.909C516.315 365.581 516.684 365.417 517.112 365.417C517.608 365.417 517.996 365.574 518.273 365.889C518.551 366.199 518.69 366.615 518.69 367.139C518.69 367.221 518.686 367.29 518.677 367.344H516.203C516.208 367.636 516.303 367.875 516.49 368.062C516.681 368.249 516.916 368.342 517.194 368.342C517.663 368.342 517.971 368.121 518.116 367.679ZM520.891 366.012C520.613 366.012 520.376 366.112 520.18 366.312C519.989 366.513 519.893 366.795 519.893 367.16C519.893 367.52 519.989 367.802 520.18 368.007C520.376 368.212 520.615 368.315 520.897 368.315C521.171 368.315 521.378 368.246 521.519 368.11C521.665 367.973 521.763 367.816 521.813 367.638L522.38 367.884C522.289 368.157 522.116 368.397 521.861 368.602C521.61 368.807 521.289 368.909 520.897 368.909C520.419 368.909 520.023 368.743 519.708 368.41C519.394 368.078 519.237 367.661 519.237 367.16C519.237 366.65 519.394 366.233 519.708 365.909C520.023 365.581 520.417 365.417 520.891 365.417C521.292 365.417 521.615 365.52 521.861 365.725C522.112 365.93 522.276 366.176 522.353 366.463L521.772 366.709C521.722 366.517 521.626 366.353 521.485 366.217C521.344 366.08 521.146 366.012 520.891 366.012ZM523.776 366.873V368.807H523.134V363.859H523.776V365.902C523.995 365.584 524.327 365.424 524.774 365.424C525.152 365.424 525.441 365.545 525.642 365.786C525.847 366.028 525.949 366.34 525.949 366.722V368.807H525.307V366.832C525.307 366.281 525.052 366.005 524.542 366.005C524.305 366.005 524.12 366.087 523.988 366.251C523.856 366.41 523.785 366.618 523.776 366.873Z" fill="#27AE60"/>
<rect x="589.275" y="358.645" width="37.9371" height="16.3221" rx="0.829304" fill="#EEF3FD"/>
<rect x="589.275" y="358.645" width="37.9371" height="16.3221" rx="0.829304" stroke="#9CA3AF" stroke-width="0.331721"/>
<path d="M597.569 369.806H596.64V363.221H597.569V369.806ZM600.023 367.224V369.806H599.15V365.339H600.005V365.979C600.302 365.465 600.76 365.208 601.379 365.208C601.893 365.208 602.287 365.373 602.559 365.701C602.838 366.029 602.977 366.453 602.977 366.973V369.806H602.104V367.122C602.104 366.373 601.757 365.998 601.064 365.998C600.735 365.998 600.478 366.116 600.293 366.351C600.113 366.58 600.023 366.871 600.023 367.224ZM608.193 365.339L606.409 369.806H605.527L603.716 365.339H604.7L605.973 368.784L607.254 365.339H608.193ZM609.459 367.113H611.901C611.889 366.778 611.777 366.506 611.567 366.295C611.356 366.078 611.059 365.97 610.675 365.97C610.329 365.97 610.044 366.085 609.821 366.314C609.598 366.537 609.477 366.803 609.459 367.113ZM612.031 368.274L612.784 368.534C612.654 368.949 612.412 369.289 612.059 369.555C611.706 369.815 611.279 369.945 610.777 369.945C610.152 369.945 609.62 369.732 609.18 369.305C608.746 368.871 608.53 368.289 608.53 367.558C608.53 366.877 608.74 366.314 609.161 365.868C609.582 365.422 610.084 365.199 610.666 365.199C611.341 365.199 611.867 365.413 612.245 365.84C612.623 366.261 612.812 366.828 612.812 367.54C612.812 367.651 612.805 367.744 612.793 367.818H609.431C609.437 368.215 609.567 368.54 609.821 368.794C610.081 369.048 610.4 369.175 610.777 369.175C611.415 369.175 611.833 368.874 612.031 368.274ZM613.508 368.645L614.298 368.366C614.329 368.608 614.434 368.809 614.613 368.97C614.793 369.125 615.034 369.202 615.338 369.202C615.573 369.202 615.759 369.147 615.895 369.035C616.031 368.918 616.1 368.775 616.1 368.608C616.1 368.311 615.908 368.119 615.524 368.032L614.762 367.865C614.415 367.791 614.143 367.642 613.945 367.419C613.747 367.196 613.647 366.927 613.647 366.611C613.647 366.227 613.802 365.896 614.112 365.617C614.428 365.339 614.802 365.199 615.236 365.199C615.521 365.199 615.774 365.243 615.997 365.329C616.22 365.41 616.394 365.518 616.517 365.654C616.641 365.791 616.734 365.917 616.796 366.035C616.858 366.153 616.905 366.274 616.935 366.397L616.165 366.685C616.152 366.611 616.13 366.54 616.1 366.472C616.069 366.397 616.019 366.317 615.951 366.23C615.889 366.144 615.796 366.075 615.672 366.026C615.548 365.97 615.403 365.942 615.236 365.942C615.019 365.942 614.839 366.001 614.697 366.119C614.561 366.236 614.493 366.376 614.493 366.537C614.493 366.822 614.663 367.001 615.004 367.075L615.728 367.233C616.124 367.32 616.428 367.481 616.638 367.716C616.855 367.945 616.963 368.227 616.963 368.562C616.963 368.914 616.818 369.233 616.527 369.518C616.242 369.803 615.843 369.945 615.329 369.945C614.778 369.945 614.347 369.809 614.038 369.537C613.728 369.258 613.551 368.961 613.508 368.645ZM619.296 363.927V365.339H620.262V366.128H619.296V368.45C619.296 368.661 619.342 368.815 619.435 368.914C619.534 369.014 619.695 369.063 619.918 369.063C620.048 369.063 620.163 369.051 620.262 369.026V369.769C620.113 369.825 619.915 369.853 619.668 369.853C619.284 369.853 618.98 369.741 618.757 369.518C618.534 369.295 618.423 368.983 618.423 368.58V366.128H617.568V365.339H617.81C618.039 365.339 618.209 365.277 618.321 365.153C618.438 365.023 618.497 364.856 618.497 364.651V363.927H619.296Z" fill="#6B7280"/>
<circle cx="282.816" cy="416.029" r="17.1947" fill="#EDEBFE"/>
<path d="M290.183 420.054V422.06H276.81V420.054C276.81 419.687 277.11 419.386 277.478 419.386H289.515C289.882 419.386 290.183 419.687 290.183 420.054Z" fill="#7E3AF2" stroke="#7E3AF2" stroke-width="1.00302" stroke-miterlimit="10" stroke-linecap="round" stroke-linejoin="round"/>
<path d="M280.154 414.705H278.816V419.386H280.154V414.705Z" fill="#7E3AF2"/>
<path d="M282.829 414.705H281.491V419.386H282.829V414.705Z" fill="#7E3AF2"/>
<path d="M285.503 414.705H284.166V419.386H285.503V414.705Z" fill="#7E3AF2"/>
<path d="M288.177 414.705H286.84V419.386H288.177V414.705Z" fill="#7E3AF2"/>
<path d="M290.852 422.562H276.141C275.867 422.562 275.64 422.335 275.64 422.061C275.64 421.786 275.867 421.559 276.141 421.559H290.852C291.126 421.559 291.354 421.786 291.354 422.061C291.354 422.335 291.126 422.562 290.852 422.562Z" fill="#7E3AF2"/>
<path d="M289.762 411.194L283.744 408.787C283.61 408.734 283.383 408.734 283.249 408.787L277.231 411.194C276.997 411.288 276.81 411.562 276.81 411.816V414.036C276.81 414.404 277.11 414.705 277.478 414.705H289.515C289.882 414.705 290.183 414.404 290.183 414.036V411.816C290.183 411.562 289.996 411.288 289.762 411.194ZM283.496 413.033C282.941 413.033 282.493 412.585 282.493 412.03C282.493 411.475 282.941 411.027 283.496 411.027C284.051 411.027 284.499 411.475 284.499 412.03C284.499 412.585 284.051 413.033 283.496 413.033Z" fill="#7E3AF2"/>
<path d="M288.849 420.054V422.06H275.476V420.054C275.476 419.687 275.776 419.386 276.144 419.386H288.181C288.548 419.386 288.849 419.687 288.849 420.054Z" fill="white" stroke="white" stroke-width="1.00302" stroke-miterlimit="10" stroke-linecap="round" stroke-linejoin="round"/>
<path d="M278.82 414.705H277.482V419.386H278.82V414.705Z" fill="white"/>
<path d="M281.495 414.705H280.157V419.386H281.495V414.705Z" fill="white"/>
<path d="M284.169 414.705H282.832V419.386H284.169V414.705Z" fill="white"/>
<path d="M286.843 414.705H285.506V419.386H286.843V414.705Z" fill="white"/>
<path d="M289.518 422.562H274.807C274.533 422.562 274.306 422.335 274.306 422.061C274.306 421.786 274.533 421.559 274.807 421.559H289.518C289.792 421.559 290.02 421.786 290.02 422.061C290.02 422.335 289.792 422.562 289.518 422.562Z" fill="white"/>
<path d="M288.428 411.194L282.41 408.787C282.276 408.734 282.049 408.734 281.915 408.787L275.897 411.194C275.663 411.288 275.476 411.562 275.476 411.816V414.036C275.476 414.404 275.776 414.705 276.144 414.705H288.181C288.548 414.705 288.849 414.404 288.849 414.036V411.816C288.849 411.562 288.662 411.288 288.428 411.194ZM282.162 413.033C281.607 413.033 281.159 412.585 281.159 412.03C281.159 411.475 281.607 411.027 282.162 411.027C282.717 411.027 283.165 411.475 283.165 412.03C283.165 412.585 282.717 413.033 282.162 413.033Z" fill="white"/>
<path d="M320.018 419.92H314.521V411.162H316.003V418.512H320.018V419.92ZM331.008 419.92H329.538V413.472L326.808 419.92H325.523L322.818 413.496V419.92H321.373V411.162H323.349L326.19 417.845L328.995 411.162H331.008V419.92ZM334.593 418.561H336.149C336.956 418.561 337.619 418.306 338.138 417.795C338.665 417.276 338.929 416.531 338.929 415.559C338.929 414.579 338.669 413.83 338.15 413.311C337.632 412.784 336.969 412.521 336.162 412.521H334.593V418.561ZM336.199 419.92H333.11V411.162H336.211C337.446 411.162 338.463 411.553 339.262 412.335C340.069 413.118 340.473 414.192 340.473 415.559C340.473 416.918 340.069 417.985 339.262 418.759C338.455 419.533 337.434 419.92 336.199 419.92ZM346.596 419.92H345.089V411.162H346.596V419.92ZM356.046 419.92H354.502L350.179 413.286V419.92H348.696V411.162H350.586L354.564 417.375V411.162H356.046V419.92ZM362.033 420.105C360.806 420.105 359.76 419.689 358.895 418.858C358.039 418.026 357.611 416.922 357.611 415.547C357.611 414.18 358.047 413.076 358.92 412.236C359.793 411.397 360.826 410.977 362.021 410.977C363.075 410.977 363.939 411.244 364.615 411.779C365.298 412.315 365.747 412.994 365.961 413.818L364.565 414.287C364.425 413.719 364.141 413.258 363.713 412.904C363.285 412.549 362.72 412.372 362.021 412.372C361.238 412.372 360.559 412.652 359.982 413.212C359.414 413.764 359.13 414.542 359.13 415.547C359.13 416.527 359.414 417.297 359.982 417.857C360.551 418.409 361.234 418.685 362.033 418.685C362.716 418.685 363.28 418.499 363.725 418.129C364.17 417.758 364.475 417.301 364.639 416.758L365.998 417.202C365.784 418.018 365.331 418.705 364.639 419.265C363.956 419.825 363.087 420.105 362.033 420.105Z" fill="black"/>
<rect x="418.462" y="406.42" width="33.9335" height="18" rx="2.96191" fill="#F5F6F7"/>
<rect x="418.462" y="406.42" width="33.9335" height="18" rx="2.96191" stroke="#BDBDBD"/>
<path d="M425.285 417.42H424.616V412.575H427.561V413.197H425.285V414.755H427.349V415.384H425.285V417.42ZM428.913 417.42H428.278V414.133H428.913V417.42ZM428.264 413.217C428.178 413.126 428.134 413.017 428.134 412.889C428.134 412.762 428.178 412.652 428.264 412.561C428.355 412.47 428.465 412.425 428.592 412.425C428.72 412.425 428.829 412.47 428.92 412.561C429.011 412.648 429.057 412.757 429.057 412.889C429.057 413.017 429.011 413.126 428.92 413.217C428.829 413.304 428.72 413.347 428.592 413.347C428.465 413.347 428.355 413.304 428.264 413.217ZM430.649 415.52V417.42H430.006V414.133H430.635V414.605C430.854 414.226 431.191 414.037 431.646 414.037C432.024 414.037 432.314 414.158 432.514 414.4C432.719 414.641 432.822 414.953 432.822 415.336V417.42H432.179V415.445C432.179 414.894 431.924 414.618 431.414 414.618C431.172 414.618 430.983 414.705 430.847 414.878C430.715 415.046 430.649 415.261 430.649 415.52ZM434.704 413.094V414.133H435.415V414.714H434.704V416.422C434.704 416.577 434.738 416.691 434.807 416.764C434.88 416.837 434.998 416.873 435.162 416.873C435.258 416.873 435.342 416.864 435.415 416.846V417.393C435.306 417.434 435.16 417.454 434.978 417.454C434.695 417.454 434.472 417.372 434.308 417.208C434.144 417.044 434.062 416.814 434.062 416.518V414.714H433.433V414.133H433.611C433.78 414.133 433.905 414.087 433.987 413.996C434.073 413.901 434.117 413.778 434.117 413.627V413.094H434.704ZM436.656 415.438H438.453C438.444 415.192 438.362 414.992 438.207 414.837C438.052 414.677 437.833 414.598 437.551 414.598C437.296 414.598 437.086 414.682 436.922 414.851C436.758 415.015 436.669 415.21 436.656 415.438ZM438.549 416.292L439.102 416.484C439.007 416.789 438.829 417.04 438.569 417.235C438.309 417.427 437.995 417.522 437.626 417.522C437.166 417.522 436.774 417.365 436.451 417.051C436.132 416.732 435.972 416.304 435.972 415.766C435.972 415.265 436.127 414.851 436.437 414.523C436.747 414.195 437.116 414.031 437.544 414.031C438.041 414.031 438.428 414.188 438.706 414.502C438.984 414.812 439.123 415.229 439.123 415.753C439.123 415.835 439.118 415.903 439.109 415.958H436.635C436.64 416.249 436.736 416.488 436.922 416.675C437.114 416.862 437.348 416.955 437.626 416.955C438.095 416.955 438.403 416.734 438.549 416.292ZM441.323 414.625C441.045 414.625 440.808 414.725 440.612 414.926C440.421 415.126 440.325 415.409 440.325 415.773C440.325 416.133 440.421 416.415 440.612 416.62C440.808 416.825 441.047 416.928 441.33 416.928C441.603 416.928 441.81 416.86 441.952 416.723C442.097 416.586 442.195 416.429 442.245 416.251L442.813 416.497C442.722 416.771 442.548 417.01 442.293 417.215C442.043 417.42 441.722 417.522 441.33 417.522C440.851 417.522 440.455 417.356 440.141 417.024C439.826 416.691 439.669 416.274 439.669 415.773C439.669 415.263 439.826 414.846 440.141 414.523C440.455 414.195 440.849 414.031 441.323 414.031C441.724 414.031 442.047 414.133 442.293 414.338C442.544 414.543 442.708 414.789 442.785 415.076L442.204 415.322C442.154 415.131 442.059 414.967 441.917 414.83C441.776 414.693 441.578 414.625 441.323 414.625ZM444.209 415.486V417.42H443.566V412.473H444.209V414.516C444.427 414.197 444.76 414.037 445.206 414.037C445.584 414.037 445.874 414.158 446.074 414.4C446.279 414.641 446.382 414.953 446.382 415.336V417.42H445.739V415.445C445.739 414.894 445.484 414.618 444.974 414.618C444.737 414.618 444.552 414.7 444.42 414.864C444.288 415.024 444.218 415.231 444.209 415.486Z" fill="black"/>
<rect x="458.319" y="406.42" width="32.9335" height="18" rx="2.96191" fill="#CDEEFC"/>
<rect x="458.319" y="406.42" width="32.9335" height="18" rx="2.96191" stroke="#2F80ED"/>
<path d="M467.639 417.42H464.694V412.575H467.639V413.197H465.364V414.687H467.427V415.315H465.364V416.798H467.639V417.42ZM468.845 415.766C468.845 416.112 468.93 416.395 469.098 416.614C469.271 416.832 469.508 416.942 469.809 416.942C470.096 416.942 470.326 416.83 470.499 416.607C470.672 416.384 470.759 416.099 470.759 415.753C470.759 415.411 470.674 415.135 470.506 414.926C470.337 414.716 470.107 414.611 469.816 414.611C469.524 414.611 469.29 414.718 469.112 414.933C468.934 415.147 468.845 415.425 468.845 415.766ZM470.766 416.976V416.921C470.679 417.09 470.547 417.231 470.369 417.345C470.196 417.454 469.989 417.509 469.747 417.509C469.278 417.509 468.9 417.345 468.613 417.017C468.331 416.684 468.189 416.267 468.189 415.766C468.189 415.288 468.335 414.882 468.627 414.55C468.918 414.213 469.292 414.044 469.747 414.044C470.016 414.044 470.235 414.099 470.403 414.208C470.572 414.313 470.688 414.443 470.752 414.598V412.473H471.387V416.812C471.387 417.035 471.399 417.238 471.422 417.42H470.8C470.777 417.292 470.766 417.144 470.766 416.976ZM473.341 413.094V414.133H474.052V414.714H473.341V416.422C473.341 416.577 473.375 416.691 473.444 416.764C473.516 416.837 473.635 416.873 473.799 416.873C473.895 416.873 473.979 416.864 474.052 416.846V417.393C473.942 417.434 473.797 417.454 473.614 417.454C473.332 417.454 473.109 417.372 472.945 417.208C472.781 417.044 472.699 416.814 472.699 416.518V414.714H472.07V414.133H472.248C472.416 414.133 472.541 414.087 472.623 413.996C472.71 413.901 472.753 413.778 472.753 413.627V413.094H473.341ZM475.293 415.438H477.09C477.081 415.192 476.999 414.992 476.844 414.837C476.689 414.677 476.47 414.598 476.188 414.598C475.933 414.598 475.723 414.682 475.559 414.851C475.395 415.015 475.306 415.21 475.293 415.438ZM477.185 416.292L477.739 416.484C477.643 416.789 477.466 417.04 477.206 417.235C476.946 417.427 476.632 417.522 476.263 417.522C475.803 417.522 475.411 417.365 475.088 417.051C474.769 416.732 474.609 416.304 474.609 415.766C474.609 415.265 474.764 414.851 475.074 414.523C475.384 414.195 475.753 414.031 476.181 414.031C476.677 414.031 477.065 414.188 477.343 414.502C477.62 414.812 477.759 415.229 477.759 415.753C477.759 415.835 477.755 415.903 477.746 415.958H475.272C475.277 416.249 475.372 416.488 475.559 416.675C475.75 416.862 475.985 416.955 476.263 416.955C476.732 416.955 477.04 416.734 477.185 416.292ZM479.96 414.625C479.682 414.625 479.445 414.725 479.249 414.926C479.058 415.126 478.962 415.409 478.962 415.773C478.962 416.133 479.058 416.415 479.249 416.62C479.445 416.825 479.684 416.928 479.967 416.928C480.24 416.928 480.447 416.86 480.588 416.723C480.734 416.586 480.832 416.429 480.882 416.251L481.449 416.497C481.358 416.771 481.185 417.01 480.93 417.215C480.679 417.42 480.358 417.522 479.967 417.522C479.488 417.522 479.092 417.356 478.778 417.024C478.463 416.691 478.306 416.274 478.306 415.773C478.306 415.263 478.463 414.846 478.778 414.523C479.092 414.195 479.486 414.031 479.96 414.031C480.361 414.031 480.684 414.133 480.93 414.338C481.181 414.543 481.345 414.789 481.422 415.076L480.841 415.322C480.791 415.131 480.695 414.967 480.554 414.83C480.413 414.693 480.215 414.625 479.96 414.625ZM482.845 415.486V417.42H482.203V412.473H482.845V414.516C483.064 414.197 483.396 414.037 483.843 414.037C484.221 414.037 484.51 414.158 484.711 414.4C484.916 414.641 485.018 414.953 485.018 415.336V417.42H484.376V415.445C484.376 414.894 484.121 414.618 483.611 414.618C483.374 414.618 483.189 414.7 483.057 414.864C482.925 415.024 482.854 415.231 482.845 415.486Z" fill="#058FC6"/>
<rect x="497.177" y="406.42" width="39.9335" height="18" rx="2.96191" fill="#E6F6DA"/>
<rect x="497.177" y="406.42" width="39.9335" height="18" rx="2.96191" stroke="#27AE60"/>
<path d="M506.833 417.42L506.307 416.067H504.161L503.649 417.42H502.931L504.858 412.575H505.63L507.557 417.42H506.833ZM505.227 413.272L504.4 415.445H506.068L505.227 413.272ZM507.868 417.598L508.49 417.454C508.513 417.686 508.606 417.878 508.77 418.028C508.934 418.183 509.139 418.26 509.385 418.26C510.055 418.26 510.39 417.905 510.39 417.194V416.723C510.308 416.882 510.178 417.012 510 417.112C509.827 417.213 509.622 417.263 509.385 417.263C508.948 417.263 508.586 417.115 508.299 416.819C508.016 416.518 507.875 416.135 507.875 415.671C507.875 415.22 508.016 414.841 508.299 414.536C508.581 414.226 508.943 414.072 509.385 414.072C509.886 414.072 510.224 414.245 510.397 414.591V414.133H511.032V417.174C511.032 417.393 511.003 417.595 510.943 417.782C510.889 417.973 510.8 418.149 510.677 418.308C510.554 418.468 510.381 418.593 510.157 418.684C509.939 418.775 509.681 418.821 509.385 418.821C508.98 418.821 508.636 418.705 508.353 418.472C508.071 418.244 507.909 417.953 507.868 417.598ZM509.481 416.723C509.759 416.723 509.984 416.627 510.157 416.436C510.331 416.24 510.417 415.985 510.417 415.671C510.417 415.356 510.331 415.103 510.157 414.912C509.984 414.716 509.759 414.618 509.481 414.618C509.199 414.618 508.968 414.714 508.791 414.905C508.618 415.097 508.531 415.352 508.531 415.671C508.531 415.994 508.615 416.251 508.784 416.443C508.957 416.63 509.189 416.723 509.481 416.723ZM513.883 414.099V414.782C513.787 414.769 513.693 414.762 513.602 414.762C513.001 414.762 512.7 415.099 512.7 415.773V417.42H512.058V414.133H512.687V414.707C512.887 414.288 513.215 414.078 513.671 414.078C513.744 414.078 513.814 414.085 513.883 414.099ZM515.21 416.641C515.411 416.846 515.654 416.948 515.941 416.948C516.228 416.948 516.47 416.846 516.666 416.641C516.866 416.431 516.966 416.142 516.966 415.773C516.966 415.409 516.866 415.124 516.666 414.919C516.47 414.709 516.228 414.605 515.941 414.605C515.654 414.605 515.411 414.709 515.21 414.919C515.014 415.124 514.916 415.409 514.916 415.773C514.916 416.142 515.014 416.431 515.21 416.641ZM514.732 414.529C515.051 414.197 515.454 414.031 515.941 414.031C516.429 414.031 516.83 414.197 517.144 414.529C517.463 414.857 517.622 415.272 517.622 415.773C517.622 416.279 517.465 416.698 517.151 417.03C516.837 417.358 516.433 417.522 515.941 417.522C515.449 417.522 515.046 417.358 514.732 417.03C514.418 416.698 514.26 416.279 514.26 415.773C514.26 415.272 514.418 414.857 514.732 414.529ZM519.272 413.094V414.133H519.983V414.714H519.272V416.422C519.272 416.577 519.306 416.691 519.374 416.764C519.447 416.837 519.566 416.873 519.73 416.873C519.825 416.873 519.91 416.864 519.983 416.846V417.393C519.873 417.434 519.728 417.454 519.545 417.454C519.263 417.454 519.04 417.372 518.876 417.208C518.712 417.044 518.63 416.814 518.63 416.518V414.714H518.001V414.133H518.179C518.347 414.133 518.472 414.087 518.554 413.996C518.641 413.901 518.684 413.778 518.684 413.627V413.094H519.272ZM521.223 415.438H523.021C523.012 415.192 522.93 414.992 522.775 414.837C522.62 414.677 522.401 414.598 522.119 414.598C521.864 414.598 521.654 414.682 521.49 414.851C521.326 415.015 521.237 415.21 521.223 415.438ZM523.116 416.292L523.67 416.484C523.574 416.789 523.396 417.04 523.137 417.235C522.877 417.427 522.563 417.522 522.194 417.522C521.734 417.522 521.342 417.365 521.018 417.051C520.7 416.732 520.54 416.304 520.54 415.766C520.54 415.265 520.695 414.851 521.005 414.523C521.315 414.195 521.684 414.031 522.112 414.031C522.608 414.031 522.996 414.188 523.273 414.502C523.551 414.812 523.69 415.229 523.69 415.753C523.69 415.835 523.686 415.903 523.677 415.958H521.203C521.208 416.249 521.303 416.488 521.49 416.675C521.681 416.862 521.916 416.955 522.194 416.955C522.663 416.955 522.971 416.734 523.116 416.292ZM525.891 414.625C525.613 414.625 525.376 414.725 525.18 414.926C524.989 415.126 524.893 415.409 524.893 415.773C524.893 416.133 524.989 416.415 525.18 416.62C525.376 416.825 525.615 416.928 525.897 416.928C526.171 416.928 526.378 416.86 526.519 416.723C526.665 416.586 526.763 416.429 526.813 416.251L527.38 416.497C527.289 416.771 527.116 417.01 526.861 417.215C526.61 417.42 526.289 417.522 525.897 417.522C525.419 417.522 525.023 417.356 524.708 417.024C524.394 416.691 524.237 416.274 524.237 415.773C524.237 415.263 524.394 414.846 524.708 414.523C525.023 414.195 525.417 414.031 525.891 414.031C526.292 414.031 526.615 414.133 526.861 414.338C527.112 414.543 527.276 414.789 527.353 415.076L526.772 415.322C526.722 415.131 526.626 414.967 526.485 414.83C526.344 414.693 526.146 414.625 525.891 414.625ZM528.776 415.486V417.42H528.134V412.473H528.776V414.516C528.995 414.197 529.327 414.037 529.774 414.037C530.152 414.037 530.441 414.158 530.642 414.4C530.847 414.641 530.949 414.953 530.949 415.336V417.42H530.307V415.445C530.307 414.894 530.052 414.618 529.542 414.618C529.305 414.618 529.12 414.7 528.988 414.864C528.856 415.024 528.785 415.231 528.776 415.486Z" fill="#27AE60"/>
<rect x="589.275" y="407.259" width="37.9371" height="16.3221" rx="0.829304" fill="#EEF3FD"/>
<rect x="589.275" y="407.259" width="37.9371" height="16.3221" rx="0.829304" stroke="#9CA3AF" stroke-width="0.331721"/>
<path d="M597.569 418.419H596.64V411.834H597.569V418.419ZM600.023 415.837V418.419H599.15V413.952H600.005V414.593C600.302 414.079 600.76 413.822 601.379 413.822C601.893 413.822 602.287 413.986 602.559 414.314C602.838 414.642 602.977 415.066 602.977 415.587V418.419H602.104V415.735C602.104 414.986 601.757 414.611 601.064 414.611C600.735 414.611 600.478 414.729 600.293 414.964C600.113 415.193 600.023 415.484 600.023 415.837ZM608.193 413.952L606.409 418.419H605.527L603.716 413.952H604.7L605.973 417.398L607.254 413.952H608.193ZM609.459 415.726H611.901C611.889 415.391 611.777 415.119 611.567 414.908C611.356 414.692 611.059 414.583 610.675 414.583C610.329 414.583 610.044 414.698 609.821 414.927C609.598 415.15 609.477 415.416 609.459 415.726ZM612.031 416.887L612.784 417.147C612.654 417.562 612.412 417.902 612.059 418.169C611.706 418.429 611.279 418.559 610.777 418.559C610.152 418.559 609.62 418.345 609.18 417.918C608.746 417.484 608.53 416.902 608.53 416.172C608.53 415.491 608.74 414.927 609.161 414.481C609.582 414.035 610.084 413.812 610.666 413.812C611.341 413.812 611.867 414.026 612.245 414.453C612.623 414.874 612.812 415.441 612.812 416.153C612.812 416.265 612.805 416.357 612.793 416.432H609.431C609.437 416.828 609.567 417.153 609.821 417.407C610.081 417.661 610.4 417.788 610.777 417.788C611.415 417.788 611.833 417.488 612.031 416.887ZM613.508 417.258L614.298 416.98C614.329 417.221 614.434 417.422 614.613 417.583C614.793 417.738 615.034 417.816 615.338 417.816C615.573 417.816 615.759 417.76 615.895 417.649C616.031 417.531 616.1 417.388 616.1 417.221C616.1 416.924 615.908 416.732 615.524 416.645L614.762 416.478C614.415 416.404 614.143 416.255 613.945 416.032C613.747 415.809 613.647 415.54 613.647 415.224C613.647 414.84 613.802 414.509 614.112 414.23C614.428 413.952 614.802 413.812 615.236 413.812C615.521 413.812 615.774 413.856 615.997 413.943C616.22 414.023 616.394 414.131 616.517 414.268C616.641 414.404 616.734 414.531 616.796 414.648C616.858 414.766 616.905 414.887 616.935 415.011L616.165 415.299C616.152 415.224 616.13 415.153 616.1 415.085C616.069 415.011 616.019 414.93 615.951 414.843C615.889 414.757 615.796 414.689 615.672 414.639C615.548 414.583 615.403 414.556 615.236 414.556C615.019 414.556 614.839 414.614 614.697 414.732C614.561 414.85 614.493 414.989 614.493 415.15C614.493 415.435 614.663 415.614 615.004 415.689L615.728 415.847C616.124 415.933 616.428 416.094 616.638 416.33C616.855 416.559 616.963 416.84 616.963 417.175C616.963 417.528 616.818 417.847 616.527 418.131C616.242 418.416 615.843 418.559 615.329 418.559C614.778 418.559 614.347 418.423 614.038 418.15C613.728 417.871 613.551 417.574 613.508 417.258ZM619.296 412.54V413.952H620.262V414.741H619.296V417.063C619.296 417.274 619.342 417.429 619.435 417.528C619.534 417.627 619.695 417.676 619.918 417.676C620.048 417.676 620.163 417.664 620.262 417.639V418.382C620.113 418.438 619.915 418.466 619.668 418.466C619.284 418.466 618.98 418.354 618.757 418.131C618.534 417.909 618.423 417.596 618.423 417.193V414.741H617.568V413.952H617.81C618.039 413.952 618.209 413.89 618.321 413.766C618.438 413.636 618.497 413.469 618.497 413.264V412.54H619.296Z" fill="#6B7280"/>
</g>
<defs>
<filter id="filter0_d_1184_9404" x="0.179688" y="0.273926" width="892.64" height="694.453" filterUnits="userSpaceOnUse" color-interpolation-filters="sRGB">
<feFlood flood-opacity="0" result="BackgroundImageFix"/>
<feColorMatrix in="SourceAlpha" type="matrix" values="0 0 0 0 0 0 0 0 0 0 0 0 0 0 0 0 0 0 127 0" result="hardAlpha"/>
<feOffset dy="5"/>
<feGaussianBlur stdDeviation="125"/>
<feComposite in2="hardAlpha" operator="out"/>
<feColorMatrix type="matrix" values="0 0 0 0 0 0 0 0 0 0 0 0 0 0 0 0 0 0 0.05 0"/>
<feBlend mode="normal" in2="BackgroundImageFix" result="effect1_dropShadow_1184_9404"/>
<feBlend mode="normal" in="SourceGraphic" in2="effect1_dropShadow_1184_9404" result="shape"/>
</filter>
</defs>
</svg>
