<svg width="494" height="231" viewBox="0 0 494 231" fill="none" xmlns="http://www.w3.org/2000/svg">
<rect width="494" height="231" rx="8" fill="#F5F8FE"/>
<mask id="path-2-inside-1_1185_11781" fill="white">
<path d="M0 0H494V54H0V0Z"/>
</mask>
<path d="M0 0H494V54H0V0Z" fill="#DCE6FD" fill-opacity="0.6"/>
<path d="M494 53H0V55H494V53Z" fill="black" fill-opacity="0.1" mask="url(#path-2-inside-1_1185_11781)"/>
<path d="M151.119 33V22.8182H157.433V24.1406H152.655V27.2429H156.98V28.5604H152.655V33H151.119ZM163.061 29.8331V25.3636H164.553V33H163.091V31.6776H163.012C162.836 32.0852 162.554 32.425 162.166 32.6967C161.782 32.9652 161.303 33.0994 160.73 33.0994C160.239 33.0994 159.805 32.9917 159.427 32.7763C159.052 32.5575 158.758 32.2344 158.542 31.8068C158.33 31.3793 158.224 30.8506 158.224 30.2209V25.3636H159.71V30.0419C159.71 30.5623 159.855 30.9766 160.143 31.2848C160.431 31.593 160.806 31.7472 161.267 31.7472C161.545 31.7472 161.822 31.6776 162.097 31.5384C162.375 31.3991 162.606 31.1887 162.788 30.907C162.973 30.6252 163.065 30.2673 163.061 29.8331ZM167.537 28.4659V33H166.05V25.3636H167.477V26.6065H167.571C167.747 26.2022 168.022 25.8774 168.397 25.6321C168.775 25.3868 169.25 25.2642 169.824 25.2642C170.344 25.2642 170.8 25.3736 171.191 25.5923C171.582 25.8078 171.885 26.1293 172.1 26.5568C172.316 26.9844 172.424 27.513 172.424 28.1428V33H170.937V28.3217C170.937 27.7682 170.793 27.3357 170.505 27.0241C170.216 26.7093 169.82 26.5518 169.316 26.5518C168.972 26.5518 168.665 26.6264 168.397 26.7756C168.132 26.9247 167.921 27.1435 167.765 27.4318C167.613 27.7169 167.537 28.0616 167.537 28.4659ZM176.776 33.1491C176.159 33.1491 175.609 32.9917 175.125 32.6768C174.645 32.3587 174.267 31.9062 173.992 31.3196C173.72 30.7296 173.584 30.022 173.584 29.1967C173.584 28.3714 173.722 27.6655 173.997 27.0788C174.275 26.4922 174.656 26.0431 175.14 25.7315C175.624 25.42 176.173 25.2642 176.786 25.2642C177.26 25.2642 177.641 25.3438 177.929 25.5028C178.221 25.6586 178.446 25.8409 178.605 26.0497C178.768 26.2585 178.894 26.4425 178.983 26.6016H179.073V22.8182H180.559V33H179.108V31.8118H178.983C178.894 31.9742 178.765 32.1598 178.596 32.3686C178.43 32.5774 178.201 32.7597 177.909 32.9155C177.618 33.0713 177.24 33.1491 176.776 33.1491ZM177.104 31.8814C177.532 31.8814 177.893 31.7687 178.188 31.5433C178.486 31.3146 178.712 30.9981 178.864 30.5938C179.02 30.1894 179.098 29.7187 179.098 29.1818C179.098 28.6515 179.021 28.1875 178.869 27.7898C178.717 27.392 178.493 27.0821 178.198 26.8601C177.903 26.638 177.538 26.527 177.104 26.527C176.657 26.527 176.284 26.643 175.985 26.875C175.687 27.107 175.462 27.4235 175.309 27.8246C175.16 28.2256 175.086 28.678 175.086 29.1818C175.086 29.6922 175.162 30.1513 175.314 30.5589C175.467 30.9666 175.692 31.2898 175.99 31.5284C176.292 31.7637 176.663 31.8814 177.104 31.8814Z" fill="black"/>
<path d="M378.119 33V22.8182H381.748C382.54 22.8182 383.196 22.9624 383.717 23.2507C384.237 23.5391 384.626 23.9335 384.885 24.4339C385.143 24.9311 385.273 25.4912 385.273 26.1143C385.273 26.7408 385.142 27.3042 384.88 27.8047C384.621 28.3018 384.23 28.6963 383.707 28.9879C383.186 29.2763 382.532 29.4205 381.743 29.4205H379.247V28.1179H381.604C382.104 28.1179 382.51 28.0317 382.822 27.8594C383.133 27.6837 383.362 27.4451 383.508 27.1435C383.654 26.8419 383.727 26.4988 383.727 26.1143C383.727 25.7299 383.654 25.3885 383.508 25.0902C383.362 24.7919 383.132 24.5582 382.817 24.3892C382.505 24.2202 382.094 24.1357 381.584 24.1357H379.655V33H378.119ZM389.65 33.1541C388.897 33.1541 388.25 32.9934 387.706 32.6719C387.166 32.3471 386.748 31.8913 386.453 31.3047C386.161 30.7147 386.016 30.0237 386.016 29.2315C386.016 28.4493 386.161 27.7599 386.453 27.1634C386.748 26.5668 387.159 26.1011 387.686 25.7663C388.216 25.4316 388.836 25.2642 389.545 25.2642C389.976 25.2642 390.394 25.3355 390.798 25.478C391.203 25.6205 391.566 25.8442 391.887 26.1491C392.209 26.4541 392.462 26.8501 392.648 27.3374C392.833 27.8213 392.926 28.4096 392.926 29.1023V29.6293H386.856V28.5156H391.469C391.469 28.1245 391.39 27.7782 391.231 27.4766C391.072 27.1716 390.848 26.9313 390.56 26.7557C390.275 26.58 389.94 26.4922 389.555 26.4922C389.138 26.4922 388.773 26.5949 388.462 26.8004C388.153 27.0026 387.915 27.2678 387.746 27.5959C387.58 27.9207 387.497 28.2737 387.497 28.6548V29.5249C387.497 30.0353 387.587 30.4695 387.766 30.8274C387.948 31.1854 388.201 31.4588 388.526 31.6477C388.851 31.8333 389.231 31.9261 389.665 31.9261C389.946 31.9261 390.203 31.8864 390.435 31.8068C390.667 31.724 390.868 31.6013 391.037 31.4389C391.206 31.2765 391.335 31.076 391.425 30.8374L392.832 31.0909C392.719 31.5052 392.517 31.8681 392.225 32.1797C391.937 32.4879 391.574 32.7282 391.136 32.9006C390.702 33.0696 390.207 33.1541 389.65 33.1541ZM395.562 28.4659V33H394.075V25.3636H395.502V26.6065H395.597C395.772 26.2022 396.048 25.8774 396.422 25.6321C396.8 25.3868 397.276 25.2642 397.849 25.2642C398.369 25.2642 398.825 25.3736 399.216 25.5923C399.607 25.8078 399.91 26.1293 400.126 26.5568C400.341 26.9844 400.449 27.513 400.449 28.1428V33H398.963V28.3217C398.963 27.7682 398.818 27.3357 398.53 27.0241C398.242 26.7093 397.846 26.5518 397.342 26.5518C396.997 26.5518 396.691 26.6264 396.422 26.7756C396.157 26.9247 395.946 27.1435 395.791 27.4318C395.638 27.7169 395.562 28.0616 395.562 28.4659ZM404.801 33.1491C404.185 33.1491 403.635 32.9917 403.151 32.6768C402.67 32.3587 402.292 31.9062 402.017 31.3196C401.745 30.7296 401.61 30.022 401.61 29.1967C401.61 28.3714 401.747 27.6655 402.022 27.0788C402.301 26.4922 402.682 26.0431 403.166 25.7315C403.65 25.42 404.198 25.2642 404.811 25.2642C405.285 25.2642 405.666 25.3438 405.955 25.5028C406.246 25.6586 406.472 25.8409 406.631 26.0497C406.793 26.2585 406.919 26.4425 407.009 26.6016H407.098V22.8182H408.585V33H407.133V31.8118H407.009C406.919 31.9742 406.79 32.1598 406.621 32.3686C406.455 32.5774 406.227 32.7597 405.935 32.9155C405.643 33.0713 405.265 33.1491 404.801 33.1491ZM405.129 31.8814C405.557 31.8814 405.918 31.7687 406.213 31.5433C406.512 31.3146 406.737 30.9981 406.889 30.5938C407.045 30.1894 407.123 29.7187 407.123 29.1818C407.123 28.6515 407.047 28.1875 406.894 27.7898C406.742 27.392 406.518 27.0821 406.223 26.8601C405.928 26.638 405.564 26.527 405.129 26.527C404.682 26.527 404.309 26.643 404.011 26.875C403.713 27.107 403.487 27.4235 403.335 27.8246C403.186 28.2256 403.111 28.678 403.111 29.1818C403.111 29.6922 403.187 30.1513 403.34 30.5589C403.492 30.9666 403.718 31.2898 404.016 31.5284C404.317 31.7637 404.689 31.8814 405.129 31.8814ZM410.206 33V25.3636H411.693V33H410.206ZM410.957 24.1854C410.699 24.1854 410.476 24.0992 410.291 23.9268C410.109 23.7512 410.017 23.5424 410.017 23.3004C410.017 23.0552 410.109 22.8464 410.291 22.674C410.476 22.4983 410.699 22.4105 410.957 22.4105C411.216 22.4105 411.436 22.4983 411.618 22.674C411.804 22.8464 411.897 23.0552 411.897 23.3004C411.897 23.5424 411.804 23.7512 411.618 23.9268C411.436 24.0992 411.216 24.1854 410.957 24.1854ZM414.679 28.4659V33H413.193V25.3636H414.619V26.6065H414.714C414.89 26.2022 415.165 25.8774 415.539 25.6321C415.917 25.3868 416.393 25.2642 416.966 25.2642C417.486 25.2642 417.942 25.3736 418.333 25.5923C418.724 25.8078 419.028 26.1293 419.243 26.5568C419.459 26.9844 419.566 27.513 419.566 28.1428V33H418.08V28.3217C418.08 27.7682 417.936 27.3357 417.647 27.0241C417.359 26.7093 416.963 26.5518 416.459 26.5518C416.114 26.5518 415.808 26.6264 415.539 26.7756C415.274 26.9247 415.064 27.1435 414.908 27.4318C414.755 27.7169 414.679 28.0616 414.679 28.4659ZM424.262 36.0227C423.655 36.0227 423.133 35.9432 422.695 35.7841C422.261 35.625 421.907 35.4145 421.632 35.1527C421.356 34.8909 421.151 34.6042 421.015 34.2926L422.293 33.7656C422.382 33.9115 422.502 34.0656 422.651 34.228C422.803 34.3937 423.009 34.5346 423.267 34.6506C423.529 34.7666 423.865 34.8246 424.276 34.8246C424.84 34.8246 425.306 34.687 425.673 34.4119C426.041 34.1402 426.225 33.706 426.225 33.1094V31.608H426.131C426.041 31.7704 425.912 31.951 425.743 32.1499C425.577 32.3487 425.349 32.5211 425.057 32.6669C424.765 32.8127 424.386 32.8857 423.919 32.8857C423.315 32.8857 422.772 32.7448 422.288 32.4631C421.807 32.178 421.426 31.7588 421.144 31.2053C420.866 30.6484 420.727 29.964 420.727 29.152C420.727 28.34 420.864 27.6439 421.139 27.0639C421.418 26.4839 421.799 26.0398 422.283 25.7315C422.767 25.42 423.315 25.2642 423.928 25.2642C424.402 25.2642 424.785 25.3438 425.077 25.5028C425.369 25.6586 425.596 25.8409 425.758 26.0497C425.924 26.2585 426.051 26.4425 426.141 26.6016H426.25V25.3636H427.707V33.169C427.707 33.8253 427.554 34.3639 427.249 34.7848C426.945 35.2057 426.532 35.5173 426.012 35.7195C425.494 35.9216 424.911 36.0227 424.262 36.0227ZM424.247 31.6527C424.674 31.6527 425.035 31.5533 425.33 31.3544C425.629 31.1522 425.854 30.8639 426.007 30.4893C426.162 30.1115 426.24 29.6591 426.24 29.1321C426.24 28.6184 426.164 28.166 426.012 27.7749C425.859 27.3838 425.635 27.0788 425.34 26.8601C425.045 26.638 424.681 26.527 424.247 26.527C423.799 26.527 423.426 26.643 423.128 26.875C422.83 27.1037 422.604 27.4152 422.452 27.8097C422.303 28.2041 422.228 28.6449 422.228 29.1321C422.228 29.6326 422.304 30.0717 422.457 30.4496C422.609 30.8274 422.835 31.1224 423.133 31.3345C423.435 31.5466 423.806 31.6527 424.247 31.6527ZM440.982 26.1293H439.43C439.371 25.7978 439.26 25.5062 439.097 25.2543C438.935 25.0024 438.736 24.7886 438.501 24.6129C438.265 24.4373 438.002 24.3047 437.71 24.2152C437.422 24.1257 437.115 24.081 436.79 24.081C436.204 24.081 435.679 24.2285 435.214 24.5234C434.754 24.8184 434.389 25.2509 434.121 25.821C433.856 26.3911 433.723 27.0871 433.723 27.9091C433.723 28.7377 433.856 29.437 434.121 30.0071C434.389 30.5772 434.755 31.008 435.219 31.2997C435.683 31.5914 436.205 31.7372 436.786 31.7372C437.107 31.7372 437.412 31.6941 437.7 31.608C437.992 31.5185 438.255 31.3875 438.491 31.2152C438.726 31.0429 438.925 30.8324 439.087 30.5838C439.253 30.3319 439.367 30.0436 439.43 29.7188L440.982 29.7237C440.899 30.2242 440.738 30.6849 440.499 31.1058C440.264 31.5234 439.961 31.8847 439.589 32.1896C439.222 32.4912 438.801 32.7249 438.327 32.8906C437.853 33.0563 437.336 33.1392 436.776 33.1392C435.894 33.1392 435.108 32.9304 434.419 32.5128C433.73 32.0919 433.186 31.4903 432.788 30.7081C432.394 29.9259 432.197 28.9929 432.197 27.9091C432.197 26.822 432.396 25.889 432.793 25.1101C433.191 24.3279 433.735 23.728 434.424 23.3104C435.113 22.8894 435.897 22.679 436.776 22.679C437.316 22.679 437.82 22.7569 438.287 22.9126C438.758 23.0651 439.18 23.2905 439.555 23.5888C439.929 23.8838 440.239 24.245 440.484 24.6726C440.73 25.0968 440.895 25.5824 440.982 26.1293ZM444.423 33.169C443.939 33.169 443.501 33.0795 443.11 32.9006C442.719 32.7183 442.409 32.4548 442.181 32.1101C441.955 31.7654 441.843 31.3428 441.843 30.8423C441.843 30.4115 441.925 30.0568 442.091 29.7784C442.257 29.5 442.481 29.2796 442.762 29.1172C443.044 28.9548 443.359 28.8321 443.707 28.7493C444.055 28.6664 444.41 28.6035 444.771 28.5604C445.228 28.5073 445.599 28.4643 445.884 28.4311C446.169 28.3946 446.377 28.3366 446.506 28.2571C446.635 28.1776 446.7 28.0483 446.7 27.8693V27.8345C446.7 27.4003 446.577 27.0639 446.332 26.8253C446.09 26.5866 445.729 26.4673 445.248 26.4673C444.748 26.4673 444.353 26.5784 444.065 26.8004C443.78 27.0192 443.583 27.2628 443.473 27.5312L442.076 27.2131C442.242 26.7491 442.484 26.3745 442.802 26.0895C443.124 25.8011 443.493 25.5923 443.911 25.4631C444.328 25.3305 444.767 25.2642 445.228 25.2642C445.533 25.2642 445.856 25.3007 446.198 25.3736C446.542 25.4432 446.864 25.5724 447.162 25.7614C447.464 25.9503 447.711 26.2204 447.903 26.5717C448.095 26.9197 448.191 27.3722 448.191 27.929V33H446.74V31.956H446.68C446.584 32.1482 446.44 32.3371 446.247 32.5227C446.055 32.7083 445.808 32.8625 445.507 32.9851C445.205 33.1077 444.844 33.169 444.423 33.169ZM444.746 31.9759C445.157 31.9759 445.508 31.8946 445.8 31.7322C446.095 31.5698 446.319 31.3577 446.471 31.0959C446.627 30.8307 446.705 30.5473 446.705 30.2457V29.2614C446.652 29.3144 446.549 29.3641 446.396 29.4105C446.247 29.4536 446.077 29.4917 445.884 29.5249C445.692 29.5547 445.505 29.5829 445.323 29.6094C445.14 29.6326 444.988 29.6525 444.865 29.669C444.577 29.7055 444.313 29.7668 444.075 29.853C443.839 29.9392 443.651 30.0634 443.508 30.2259C443.369 30.3849 443.299 30.5971 443.299 30.8622C443.299 31.2301 443.435 31.5085 443.707 31.6974C443.979 31.883 444.325 31.9759 444.746 31.9759ZM449.671 35.8636V25.3636H451.123V26.6016H451.247C451.333 26.4425 451.458 26.2585 451.62 26.0497C451.782 25.8409 452.008 25.6586 452.296 25.5028C452.585 25.3438 452.966 25.2642 453.44 25.2642C454.056 25.2642 454.606 25.42 455.09 25.7315C455.574 26.0431 455.954 26.4922 456.229 27.0788C456.507 27.6655 456.646 28.3714 456.646 29.1967C456.646 30.022 456.509 30.7296 456.234 31.3196C455.959 31.9062 455.581 32.3587 455.1 32.6768C454.62 32.9917 454.071 33.1491 453.455 33.1491C452.991 33.1491 452.611 33.0713 452.316 32.9155C452.024 32.7597 451.796 32.5774 451.63 32.3686C451.464 32.1598 451.337 31.9742 451.247 31.8118H451.158V35.8636H449.671ZM451.128 29.1818C451.128 29.7187 451.206 30.1894 451.362 30.5938C451.517 30.9981 451.743 31.3146 452.038 31.5433C452.333 31.7687 452.694 31.8814 453.121 31.8814C453.566 31.8814 453.937 31.7637 454.235 31.5284C454.533 31.2898 454.759 30.9666 454.911 30.5589C455.067 30.1513 455.145 29.6922 455.145 29.1818C455.145 28.678 455.069 28.2256 454.916 27.8246C454.767 27.4235 454.542 27.107 454.24 26.875C453.942 26.643 453.569 26.527 453.121 26.527C452.691 26.527 452.326 26.638 452.028 26.8601C451.733 27.0821 451.509 27.392 451.357 27.7898C451.204 28.1875 451.128 28.6515 451.128 29.1818ZM457.812 33V25.3636H459.298V33H457.812ZM458.562 24.1854C458.304 24.1854 458.082 24.0992 457.896 23.9268C457.714 23.7512 457.623 23.5424 457.623 23.3004C457.623 23.0552 457.714 22.8464 457.896 22.674C458.082 22.4983 458.304 22.4105 458.562 22.4105C458.821 22.4105 459.041 22.4983 459.224 22.674C459.409 22.8464 459.502 23.0552 459.502 23.3004C459.502 23.5424 459.409 23.7512 459.224 23.9268C459.041 24.0992 458.821 24.1854 458.562 24.1854ZM464.363 25.3636V26.5568H460.192V25.3636H464.363ZM461.31 23.5341H462.797V30.7578C462.797 31.0462 462.84 31.2633 462.926 31.4091C463.012 31.5516 463.123 31.6494 463.259 31.7024C463.398 31.7521 463.549 31.777 463.711 31.777C463.831 31.777 463.935 31.7687 464.025 31.7521C464.114 31.7356 464.184 31.7223 464.233 31.7124L464.502 32.9403C464.416 32.9735 464.293 33.0066 464.134 33.0398C463.975 33.0762 463.776 33.0961 463.537 33.0994C463.146 33.1061 462.782 33.0365 462.444 32.8906C462.106 32.7448 461.832 32.5194 461.623 32.2145C461.415 31.9096 461.31 31.5268 461.31 31.0661V23.5341ZM467.729 33.169C467.246 33.169 466.808 33.0795 466.417 32.9006C466.026 32.7183 465.716 32.4548 465.487 32.1101C465.262 31.7654 465.149 31.3428 465.149 30.8423C465.149 30.4115 465.232 30.0568 465.398 29.7784C465.563 29.5 465.787 29.2796 466.069 29.1172C466.351 28.9548 466.665 28.8321 467.013 28.7493C467.362 28.6664 467.716 28.6035 468.077 28.5604C468.535 28.5073 468.906 28.4643 469.191 28.4311C469.476 28.3946 469.683 28.3366 469.812 28.2571C469.942 28.1776 470.006 28.0483 470.006 27.8693V27.8345C470.006 27.4003 469.884 27.0639 469.638 26.8253C469.397 26.5866 469.035 26.4673 468.555 26.4673C468.054 26.4673 467.66 26.5784 467.371 26.8004C467.086 27.0192 466.889 27.2628 466.78 27.5312L465.383 27.2131C465.549 26.7491 465.79 26.3745 466.109 26.0895C466.43 25.8011 466.8 25.5923 467.217 25.4631C467.635 25.3305 468.074 25.2642 468.535 25.2642C468.84 25.2642 469.163 25.3007 469.504 25.3736C469.849 25.4432 470.17 25.5724 470.469 25.7614C470.77 25.9503 471.017 26.2204 471.21 26.5717C471.402 26.9197 471.498 27.3722 471.498 27.929V33H470.046V31.956H469.987C469.89 32.1482 469.746 32.3371 469.554 32.5227C469.362 32.7083 469.115 32.8625 468.813 32.9851C468.512 33.1077 468.15 33.169 467.729 33.169ZM468.053 31.9759C468.464 31.9759 468.815 31.8946 469.107 31.7322C469.402 31.5698 469.625 31.3577 469.778 31.0959C469.933 30.8307 470.011 30.5473 470.011 30.2457V29.2614C469.958 29.3144 469.856 29.3641 469.703 29.4105C469.554 29.4536 469.383 29.4917 469.191 29.5249C468.999 29.5547 468.812 29.5829 468.629 29.6094C468.447 29.6326 468.295 29.6525 468.172 29.669C467.884 29.7055 467.62 29.7668 467.381 29.853C467.146 29.9392 466.957 30.0634 466.815 30.2259C466.675 30.3849 466.606 30.5971 466.606 30.8622C466.606 31.2301 466.742 31.5085 467.013 31.6974C467.285 31.883 467.632 31.9759 468.053 31.9759ZM474.464 22.8182V33H472.978V22.8182H474.464Z" fill="black"/>
<path d="M246.575 26.1293H245.024C244.964 25.7978 244.853 25.5062 244.691 25.2543C244.529 25.0024 244.33 24.7886 244.094 24.6129C243.859 24.4373 243.596 24.3047 243.304 24.2152C243.016 24.1257 242.709 24.081 242.384 24.081C241.798 24.081 241.272 24.2285 240.808 24.5234C240.348 24.8184 239.983 25.2509 239.714 25.821C239.449 26.3911 239.317 27.0871 239.317 27.9091C239.317 28.7377 239.449 29.437 239.714 30.0071C239.983 30.5772 240.349 31.008 240.813 31.2997C241.277 31.5914 241.799 31.7372 242.379 31.7372C242.701 31.7372 243.006 31.6941 243.294 31.608C243.586 31.5185 243.849 31.3875 244.085 31.2152C244.32 31.0429 244.519 30.8324 244.681 30.5838C244.847 30.3319 244.961 30.0436 245.024 29.7188L246.575 29.7237C246.492 30.2242 246.332 30.6849 246.093 31.1058C245.858 31.5234 245.554 31.8847 245.183 32.1896C244.815 32.4912 244.394 32.7249 243.92 32.8906C243.446 33.0563 242.929 33.1392 242.369 33.1392C241.488 33.1392 240.702 32.9304 240.013 32.5128C239.323 32.0919 238.78 31.4903 238.382 30.7081C237.988 29.9259 237.79 28.9929 237.79 27.9091C237.79 26.822 237.989 25.889 238.387 25.1101C238.785 24.3279 239.328 23.728 240.018 23.3104C240.707 22.8894 241.491 22.679 242.369 22.679C242.91 22.679 243.413 22.7569 243.881 22.9126C244.351 23.0651 244.774 23.2905 245.148 23.5888C245.523 23.8838 245.833 24.245 246.078 24.6726C246.323 25.0968 246.489 25.5824 246.575 26.1293ZM251.011 33.1541C250.295 33.1541 249.67 32.9901 249.137 32.6619C248.603 32.3338 248.189 31.8748 247.894 31.2848C247.599 30.6948 247.451 30.0054 247.451 29.2166C247.451 28.4245 247.599 27.7318 247.894 27.1385C248.189 26.5452 248.603 26.0845 249.137 25.7564C249.67 25.4283 250.295 25.2642 251.011 25.2642C251.727 25.2642 252.352 25.4283 252.885 25.7564C253.419 26.0845 253.833 26.5452 254.128 27.1385C254.423 27.7318 254.57 28.4245 254.57 29.2166C254.57 30.0054 254.423 30.6948 254.128 31.2848C253.833 31.8748 253.419 32.3338 252.885 32.6619C252.352 32.9901 251.727 33.1541 251.011 33.1541ZM251.016 31.9062C251.48 31.9062 251.864 31.7836 252.169 31.5384C252.474 31.2931 252.7 30.9666 252.845 30.5589C252.994 30.1513 253.069 29.7022 253.069 29.2116C253.069 28.7244 252.994 28.277 252.845 27.8693C252.7 27.4583 252.474 27.1286 252.169 26.88C251.864 26.6314 251.48 26.5071 251.016 26.5071C250.548 26.5071 250.161 26.6314 249.852 26.88C249.548 27.1286 249.32 27.4583 249.171 27.8693C249.026 28.277 248.953 28.7244 248.953 29.2116C248.953 29.7022 249.026 30.1513 249.171 30.5589C249.32 30.9666 249.548 31.2931 249.852 31.5384C250.161 31.7836 250.548 31.9062 251.016 31.9062ZM257.216 28.4659V33H255.73V25.3636H257.157V26.6065H257.251C257.427 26.2022 257.702 25.8774 258.076 25.6321C258.454 25.3868 258.93 25.2642 259.503 25.2642C260.024 25.2642 260.479 25.3736 260.87 25.5923C261.261 25.8078 261.565 26.1293 261.78 26.5568C261.996 26.9844 262.103 27.513 262.103 28.1428V33H260.617V28.3217C260.617 27.7682 260.473 27.3357 260.184 27.0241C259.896 26.7093 259.5 26.5518 258.996 26.5518C258.651 26.5518 258.345 26.6264 258.076 26.7756C257.811 26.9247 257.601 27.1435 257.445 27.4318C257.292 27.7169 257.216 28.0616 257.216 28.4659ZM267.162 25.3636V26.5568H262.99V25.3636H267.162ZM264.109 23.5341H265.596V30.7578C265.596 31.0462 265.639 31.2633 265.725 31.4091C265.811 31.5516 265.922 31.6494 266.058 31.7024C266.197 31.7521 266.348 31.777 266.51 31.777C266.63 31.777 266.734 31.7687 266.824 31.7521C266.913 31.7356 266.983 31.7223 267.032 31.7124L267.301 32.9403C267.215 32.9735 267.092 33.0066 266.933 33.0398C266.774 33.0762 266.575 33.0961 266.336 33.0994C265.945 33.1061 265.581 33.0365 265.243 32.8906C264.904 32.7448 264.631 32.5194 264.422 32.2145C264.213 31.9096 264.109 31.5268 264.109 31.0661V23.5341ZM268.306 33V25.3636H269.743V26.5767H269.822C269.961 26.1657 270.207 25.8426 270.558 25.6072C270.913 25.3686 271.314 25.2493 271.761 25.2493C271.854 25.2493 271.963 25.2526 272.089 25.2592C272.219 25.2659 272.32 25.2741 272.393 25.2841V26.706C272.333 26.6894 272.227 26.6712 272.074 26.6513C271.922 26.6281 271.769 26.6165 271.617 26.6165C271.266 26.6165 270.952 26.6911 270.677 26.8402C270.406 26.986 270.19 27.1899 270.031 27.4517C269.872 27.7102 269.792 28.0052 269.792 28.3366V33H268.306ZM273.179 33V25.3636H274.665V33H273.179ZM273.93 24.1854C273.671 24.1854 273.449 24.0992 273.263 23.9268C273.081 23.7512 272.99 23.5424 272.99 23.3004C272.99 23.0552 273.081 22.8464 273.263 22.674C273.449 22.4983 273.671 22.4105 273.93 22.4105C274.188 22.4105 274.409 22.4983 274.591 22.674C274.777 22.8464 274.869 23.0552 274.869 23.3004C274.869 23.5424 274.777 23.7512 274.591 23.9268C274.409 24.0992 274.188 24.1854 273.93 24.1854ZM276.285 33V22.8182H277.771V26.6016H277.861C277.947 26.4425 278.071 26.2585 278.233 26.0497C278.396 25.8409 278.621 25.6586 278.91 25.5028C279.198 25.3438 279.579 25.2642 280.053 25.2642C280.67 25.2642 281.22 25.42 281.704 25.7315C282.188 26.0431 282.567 26.4922 282.842 27.0788C283.121 27.6655 283.26 28.3714 283.26 29.1967C283.26 30.022 283.122 30.7296 282.847 31.3196C282.572 31.9062 282.194 32.3587 281.714 32.6768C281.233 32.9917 280.684 33.1491 280.068 33.1491C279.604 33.1491 279.224 33.0713 278.93 32.9155C278.638 32.7597 278.409 32.5774 278.243 32.3686C278.078 32.1598 277.95 31.9742 277.861 31.8118H277.736V33H276.285ZM277.741 29.1818C277.741 29.7187 277.819 30.1894 277.975 30.5938C278.131 30.9981 278.356 31.3146 278.651 31.5433C278.946 31.7687 279.307 31.8814 279.735 31.8814C280.179 31.8814 280.55 31.7637 280.849 31.5284C281.147 31.2898 281.372 30.9666 281.525 30.5589C281.68 30.1513 281.758 29.6922 281.758 29.1818C281.758 28.678 281.682 28.2256 281.53 27.8246C281.381 27.4235 281.155 27.107 280.854 26.875C280.555 26.643 280.182 26.527 279.735 26.527C279.304 26.527 278.939 26.638 278.641 26.8601C278.346 27.0821 278.122 27.392 277.97 27.7898C277.818 28.1875 277.741 28.6515 277.741 29.1818ZM289.266 29.8331V25.3636H290.758V33H289.296V31.6776H289.217C289.041 32.0852 288.759 32.425 288.371 32.6967C287.987 32.9652 287.508 33.0994 286.935 33.0994C286.444 33.0994 286.01 32.9917 285.632 32.7763C285.258 32.5575 284.963 32.2344 284.747 31.8068C284.535 31.3793 284.429 30.8506 284.429 30.2209V25.3636H285.915V30.0419C285.915 30.5623 286.06 30.9766 286.348 31.2848C286.636 31.593 287.011 31.7472 287.472 31.7472C287.75 31.7472 288.027 31.6776 288.302 31.5384C288.58 31.3991 288.811 31.1887 288.993 30.907C289.179 30.6252 289.27 30.2673 289.266 29.8331ZM295.82 25.3636V26.5568H291.649V25.3636H295.82ZM292.767 23.5341H294.254V30.7578C294.254 31.0462 294.297 31.2633 294.383 31.4091C294.469 31.5516 294.58 31.6494 294.716 31.7024C294.855 31.7521 295.006 31.777 295.169 31.777C295.288 31.777 295.392 31.7687 295.482 31.7521C295.571 31.7356 295.641 31.7223 295.691 31.7124L295.959 32.9403C295.873 32.9735 295.75 33.0066 295.591 33.0398C295.432 33.0762 295.233 33.0961 294.994 33.0994C294.603 33.1061 294.239 33.0365 293.901 32.8906C293.563 32.7448 293.289 32.5194 293.08 32.2145C292.872 31.9096 292.767 31.5268 292.767 31.0661V23.5341ZM300.173 33.1541C299.421 33.1541 298.773 32.9934 298.229 32.6719C297.689 32.3471 297.272 31.8913 296.977 31.3047C296.685 30.7147 296.539 30.0237 296.539 29.2315C296.539 28.4493 296.685 27.7599 296.977 27.1634C297.272 26.5668 297.683 26.1011 298.21 25.7663C298.74 25.4316 299.36 25.2642 300.069 25.2642C300.5 25.2642 300.917 25.3355 301.322 25.478C301.726 25.6205 302.089 25.8442 302.411 26.1491C302.732 26.4541 302.986 26.8501 303.171 27.3374C303.357 27.8213 303.45 28.4096 303.45 29.1023V29.6293H297.379V28.5156H301.993C301.993 28.1245 301.913 27.7782 301.754 27.4766C301.595 27.1716 301.371 26.9313 301.083 26.7557C300.798 26.58 300.463 26.4922 300.079 26.4922C299.661 26.4922 299.297 26.5949 298.985 26.8004C298.677 27.0026 298.438 27.2678 298.269 27.5959C298.103 27.9207 298.021 28.2737 298.021 28.6548V29.5249C298.021 30.0353 298.11 30.4695 298.289 30.8274C298.471 31.1854 298.725 31.4588 299.05 31.6477C299.375 31.8333 299.754 31.9261 300.188 31.9261C300.47 31.9261 300.727 31.8864 300.959 31.8068C301.191 31.724 301.391 31.6013 301.56 31.4389C301.729 31.2765 301.859 31.076 301.948 30.8374L303.355 31.0909C303.242 31.5052 303.04 31.8681 302.749 32.1797C302.46 32.4879 302.097 32.7282 301.66 32.9006C301.226 33.0696 300.73 33.1541 300.173 33.1541ZM307.458 33.1491C306.841 33.1491 306.291 32.9917 305.807 32.6768C305.326 32.3587 304.949 31.9062 304.673 31.3196C304.402 30.7296 304.266 30.022 304.266 29.1967C304.266 28.3714 304.403 27.6655 304.678 27.0788C304.957 26.4922 305.338 26.0431 305.822 25.7315C306.306 25.42 306.854 25.2642 307.468 25.2642C307.941 25.2642 308.323 25.3438 308.611 25.5028C308.903 25.6586 309.128 25.8409 309.287 26.0497C309.45 26.2585 309.575 26.4425 309.665 26.6016H309.754V22.8182H311.241V33H309.789V31.8118H309.665C309.575 31.9742 309.446 32.1598 309.277 32.3686C309.111 32.5774 308.883 32.7597 308.591 32.9155C308.299 33.0713 307.922 33.1491 307.458 33.1491ZM307.786 31.8814C308.213 31.8814 308.575 31.7687 308.869 31.5433C309.168 31.3146 309.393 30.9981 309.546 30.5938C309.701 30.1894 309.779 29.7187 309.779 29.1818C309.779 28.6515 309.703 28.1875 309.551 27.7898C309.398 27.392 309.174 27.0821 308.879 26.8601C308.584 26.638 308.22 26.527 307.786 26.527C307.338 26.527 306.965 26.643 306.667 26.875C306.369 27.107 306.143 27.4235 305.991 27.8246C305.842 28.2256 305.767 28.678 305.767 29.1818C305.767 29.6922 305.843 30.1513 305.996 30.5589C306.148 30.9666 306.374 31.2898 306.672 31.5284C306.974 31.7637 307.345 31.8814 307.786 31.8814ZM324.644 26.1293H323.093C323.033 25.7978 322.922 25.5062 322.759 25.2543C322.597 25.0024 322.398 24.7886 322.163 24.6129C321.927 24.4373 321.664 24.3047 321.372 24.2152C321.084 24.1257 320.777 24.081 320.453 24.081C319.866 24.081 319.341 24.2285 318.877 24.5234C318.416 24.8184 318.051 25.2509 317.783 25.821C317.518 26.3911 317.385 27.0871 317.385 27.9091C317.385 28.7377 317.518 29.437 317.783 30.0071C318.051 30.5772 318.418 31.008 318.882 31.2997C319.346 31.5914 319.868 31.7372 320.448 31.7372C320.769 31.7372 321.074 31.6941 321.362 31.608C321.654 31.5185 321.918 31.3875 322.153 31.2152C322.388 31.0429 322.587 30.8324 322.749 30.5838C322.915 30.3319 323.03 30.0436 323.093 29.7188L324.644 29.7237C324.561 30.2242 324.4 30.6849 324.161 31.1058C323.926 31.5234 323.623 31.8847 323.252 32.1896C322.884 32.4912 322.463 32.7249 321.989 32.8906C321.515 33.0563 320.998 33.1392 320.438 33.1392C319.556 33.1392 318.771 32.9304 318.081 32.5128C317.392 32.0919 316.848 31.4903 316.45 30.7081C316.056 29.9259 315.859 28.9929 315.859 27.9091C315.859 26.822 316.058 25.889 316.455 25.1101C316.853 24.3279 317.397 23.728 318.086 23.3104C318.776 22.8894 319.559 22.679 320.438 22.679C320.978 22.679 321.482 22.7569 321.949 22.9126C322.42 23.0651 322.842 23.2905 323.217 23.5888C323.591 23.8838 323.901 24.245 324.146 24.6726C324.392 25.0968 324.557 25.5824 324.644 26.1293ZM328.085 33.169C327.601 33.169 327.163 33.0795 326.772 32.9006C326.381 32.7183 326.071 32.4548 325.843 32.1101C325.617 31.7654 325.505 31.3428 325.505 30.8423C325.505 30.4115 325.587 30.0568 325.753 29.7784C325.919 29.5 326.143 29.2796 326.424 29.1172C326.706 28.9548 327.021 28.8321 327.369 28.7493C327.717 28.6664 328.072 28.6035 328.433 28.5604C328.89 28.5073 329.261 28.4643 329.547 28.4311C329.832 28.3946 330.039 28.3366 330.168 28.2571C330.297 28.1776 330.362 28.0483 330.362 27.8693V27.8345C330.362 27.4003 330.239 27.0639 329.994 26.8253C329.752 26.5866 329.391 26.4673 328.91 26.4673C328.41 26.4673 328.015 26.5784 327.727 26.8004C327.442 27.0192 327.245 27.2628 327.135 27.5312L325.738 27.2131C325.904 26.7491 326.146 26.3745 326.464 26.0895C326.786 25.8011 327.155 25.5923 327.573 25.4631C327.99 25.3305 328.43 25.2642 328.89 25.2642C329.195 25.2642 329.518 25.3007 329.86 25.3736C330.204 25.4432 330.526 25.5724 330.824 25.7614C331.126 25.9503 331.373 26.2204 331.565 26.5717C331.757 26.9197 331.853 27.3722 331.853 27.929V33H330.402V31.956H330.342C330.246 32.1482 330.102 32.3371 329.909 32.5227C329.717 32.7083 329.47 32.8625 329.169 32.9851C328.867 33.1077 328.506 33.169 328.085 33.169ZM328.408 31.9759C328.819 31.9759 329.17 31.8946 329.462 31.7322C329.757 31.5698 329.981 31.3577 330.133 31.0959C330.289 30.8307 330.367 30.5473 330.367 30.2457V29.2614C330.314 29.3144 330.211 29.3641 330.059 29.4105C329.909 29.4536 329.739 29.4917 329.547 29.5249C329.354 29.5547 329.167 29.5829 328.985 29.6094C328.802 29.6326 328.65 29.6525 328.527 29.669C328.239 29.7055 327.975 29.7668 327.737 29.853C327.502 29.9392 327.313 30.0634 327.17 30.2259C327.031 30.3849 326.961 30.5971 326.961 30.8622C326.961 31.2301 327.097 31.5085 327.369 31.6974C327.641 31.883 327.987 31.9759 328.408 31.9759ZM333.333 35.8636V25.3636H334.785V26.6016H334.909C334.995 26.4425 335.12 26.2585 335.282 26.0497C335.445 25.8409 335.67 25.6586 335.958 25.5028C336.247 25.3438 336.628 25.2642 337.102 25.2642C337.718 25.2642 338.268 25.42 338.752 25.7315C339.236 26.0431 339.616 26.4922 339.891 27.0788C340.169 27.6655 340.308 28.3714 340.308 29.1967C340.308 30.022 340.171 30.7296 339.896 31.3196C339.621 31.9062 339.243 32.3587 338.762 32.6768C338.282 32.9917 337.733 33.1491 337.117 33.1491C336.653 33.1491 336.273 33.0713 335.978 32.9155C335.686 32.7597 335.458 32.5774 335.292 32.3686C335.126 32.1598 334.999 31.9742 334.909 31.8118H334.82V35.8636H333.333ZM334.79 29.1818C334.79 29.7187 334.868 30.1894 335.024 30.5938C335.179 30.9981 335.405 31.3146 335.7 31.5433C335.995 31.7687 336.356 31.8814 336.784 31.8814C337.228 31.8814 337.599 31.7637 337.897 31.5284C338.195 31.2898 338.421 30.9666 338.573 30.5589C338.729 30.1513 338.807 29.6922 338.807 29.1818C338.807 28.678 338.731 28.2256 338.578 27.8246C338.429 27.4235 338.204 27.107 337.902 26.875C337.604 26.643 337.231 26.527 336.784 26.527C336.353 26.527 335.988 26.638 335.69 26.8601C335.395 27.0821 335.171 27.392 335.019 27.7898C334.866 28.1875 334.79 28.6515 334.79 29.1818ZM341.474 33V25.3636H342.96V33H341.474ZM342.225 24.1854C341.966 24.1854 341.744 24.0992 341.558 23.9268C341.376 23.7512 341.285 23.5424 341.285 23.3004C341.285 23.0552 341.376 22.8464 341.558 22.674C341.744 22.4983 341.966 22.4105 342.225 22.4105C342.483 22.4105 342.704 22.4983 342.886 22.674C343.071 22.8464 343.164 23.0552 343.164 23.3004C343.164 23.5424 343.071 23.7512 342.886 23.9268C342.704 24.0992 342.483 24.1854 342.225 24.1854ZM348.025 25.3636V26.5568H343.854V25.3636H348.025ZM344.972 23.5341H346.459V30.7578C346.459 31.0462 346.502 31.2633 346.588 31.4091C346.674 31.5516 346.785 31.6494 346.921 31.7024C347.06 31.7521 347.211 31.777 347.374 31.777C347.493 31.777 347.597 31.7687 347.687 31.7521C347.776 31.7356 347.846 31.7223 347.896 31.7124L348.164 32.9403C348.078 32.9735 347.955 33.0066 347.796 33.0398C347.637 33.0762 347.438 33.0961 347.2 33.0994C346.808 33.1061 346.444 33.0365 346.106 32.8906C345.768 32.7448 345.494 32.5194 345.286 32.2145C345.077 31.9096 344.972 31.5268 344.972 31.0661V23.5341ZM351.392 33.169C350.908 33.169 350.47 33.0795 350.079 32.9006C349.688 32.7183 349.378 32.4548 349.149 32.1101C348.924 31.7654 348.811 31.3428 348.811 30.8423C348.811 30.4115 348.894 30.0568 349.06 29.7784C349.226 29.5 349.449 29.2796 349.731 29.1172C350.013 28.9548 350.328 28.8321 350.676 28.7493C351.024 28.6664 351.378 28.6035 351.74 28.5604C352.197 28.5073 352.568 28.4643 352.853 28.4311C353.138 28.3946 353.345 28.3366 353.475 28.2571C353.604 28.1776 353.669 28.0483 353.669 27.8693V27.8345C353.669 27.4003 353.546 27.0639 353.301 26.8253C353.059 26.5866 352.697 26.4673 352.217 26.4673C351.716 26.4673 351.322 26.5784 351.034 26.8004C350.749 27.0192 350.551 27.2628 350.442 27.5312L349.045 27.2131C349.211 26.7491 349.453 26.3745 349.771 26.0895C350.092 25.8011 350.462 25.5923 350.879 25.4631C351.297 25.3305 351.736 25.2642 352.197 25.2642C352.502 25.2642 352.825 25.3007 353.166 25.3736C353.511 25.4432 353.833 25.5724 354.131 25.7614C354.432 25.9503 354.679 26.2204 354.872 26.5717C355.064 26.9197 355.16 27.3722 355.16 27.929V33H353.708V31.956H353.649C353.552 32.1482 353.408 32.3371 353.216 32.5227C353.024 32.7083 352.777 32.8625 352.475 32.9851C352.174 33.1077 351.812 33.169 351.392 33.169ZM351.715 31.9759C352.126 31.9759 352.477 31.8946 352.769 31.7322C353.064 31.5698 353.287 31.3577 353.44 31.0959C353.596 30.8307 353.673 30.5473 353.673 30.2457V29.2614C353.62 29.3144 353.518 29.3641 353.365 29.4105C353.216 29.4536 353.045 29.4917 352.853 29.5249C352.661 29.5547 352.474 29.5829 352.291 29.6094C352.109 29.6326 351.957 29.6525 351.834 29.669C351.546 29.7055 351.282 29.7668 351.044 29.853C350.808 29.9392 350.619 30.0634 350.477 30.2259C350.338 30.3849 350.268 30.5971 350.268 30.8622C350.268 31.2301 350.404 31.5085 350.676 31.6974C350.947 31.883 351.294 31.9759 351.715 31.9759ZM358.126 22.8182V33H356.64V22.8182H358.126Z" fill="black"/>
<path d="M27.3366 22.8182V33H25.9247L20.7493 25.5327H20.6548V33H19.1186V22.8182H20.5405L25.7209 30.2955H25.8153V22.8182H27.3366ZM31.1806 33.169C30.6967 33.169 30.2592 33.0795 29.8681 32.9006C29.477 32.7183 29.1671 32.4548 28.9384 32.1101C28.713 31.7654 28.6003 31.3428 28.6003 30.8423C28.6003 30.4115 28.6832 30.0568 28.8489 29.7784C29.0146 29.5 29.2383 29.2796 29.5201 29.1172C29.8018 28.9548 30.1167 28.8321 30.4647 28.7493C30.8127 28.6664 31.1673 28.6035 31.5286 28.5604C31.986 28.5073 32.3572 28.4643 32.6422 28.4311C32.9273 28.3946 33.1344 28.3366 33.2637 28.2571C33.3929 28.1776 33.4576 28.0483 33.4576 27.8693V27.8345C33.4576 27.4003 33.3349 27.0639 33.0897 26.8253C32.8477 26.5866 32.4864 26.4673 32.0059 26.4673C31.5054 26.4673 31.111 26.5784 30.8226 26.8004C30.5376 27.0192 30.3404 27.2628 30.231 27.5312L28.834 27.2131C28.9997 26.7491 29.2417 26.3745 29.5598 26.0895C29.8813 25.8011 30.2509 25.5923 30.6685 25.4631C31.0861 25.3305 31.5253 25.2642 31.986 25.2642C32.2909 25.2642 32.6141 25.3007 32.9554 25.3736C33.3001 25.4432 33.6216 25.5724 33.9199 25.7614C34.2215 25.9503 34.4685 26.2204 34.6607 26.5717C34.8529 26.9197 34.949 27.3722 34.949 27.929V33H33.4973V31.956H33.4377C33.3416 32.1482 33.1974 32.3371 33.0051 32.5227C32.8129 32.7083 32.566 32.8625 32.2644 32.9851C31.9628 33.1077 31.6015 33.169 31.1806 33.169ZM31.5037 31.9759C31.9147 31.9759 32.266 31.8946 32.5577 31.7322C32.8527 31.5698 33.0764 31.3577 33.2289 31.0959C33.3846 30.8307 33.4625 30.5473 33.4625 30.2457V29.2614C33.4095 29.3144 33.3068 29.3641 33.1543 29.4105C33.0051 29.4536 32.8345 29.4917 32.6422 29.5249C32.45 29.5547 32.2627 29.5829 32.0804 29.6094C31.8981 29.6326 31.7457 29.6525 31.623 29.669C31.3347 29.7055 31.0712 29.7668 30.8326 29.853C30.5972 29.9392 30.4083 30.0634 30.2658 30.2259C30.1266 30.3849 30.057 30.5971 30.057 30.8622C30.057 31.2301 30.1929 31.5085 30.4647 31.6974C30.7364 31.883 31.0828 31.9759 31.5037 31.9759ZM36.429 33V25.3636H37.8558V26.6065H37.9503C38.1094 26.1856 38.3696 25.8575 38.7308 25.6222C39.0921 25.3835 39.5246 25.2642 40.0284 25.2642C40.5388 25.2642 40.9664 25.3835 41.3111 25.6222C41.6591 25.8608 41.916 26.1889 42.0817 26.6065H42.1612C42.3435 26.1989 42.6335 25.8741 43.0312 25.6321C43.429 25.3868 43.9029 25.2642 44.4531 25.2642C45.1458 25.2642 45.7109 25.4813 46.1484 25.9155C46.5893 26.3497 46.8097 27.0043 46.8097 27.8793V33H45.3232V28.0185C45.3232 27.5014 45.1823 27.1269 44.9006 26.8949C44.6188 26.6629 44.2824 26.5469 43.8913 26.5469C43.4074 26.5469 43.0312 26.696 42.7628 26.9943C42.4943 27.2893 42.3601 27.6688 42.3601 28.1328V33H40.8786V27.924C40.8786 27.5097 40.7493 27.1766 40.4908 26.9247C40.2322 26.6728 39.8958 26.5469 39.4815 26.5469C39.1998 26.5469 38.9396 26.6214 38.701 26.7706C38.4657 26.9164 38.2751 27.1203 38.1293 27.3821C37.9867 27.6439 37.9155 27.9472 37.9155 28.2919V33H36.429ZM51.5932 33.1541C50.8408 33.1541 50.1929 32.9934 49.6493 32.6719C49.1091 32.3471 48.6915 31.8913 48.3965 31.3047C48.1048 30.7147 47.959 30.0237 47.959 29.2315C47.959 28.4493 48.1048 27.7599 48.3965 27.1634C48.6915 26.5668 49.1025 26.1011 49.6294 25.7663C50.1597 25.4316 50.7795 25.2642 51.4888 25.2642C51.9197 25.2642 52.3373 25.3355 52.7417 25.478C53.146 25.6205 53.5089 25.8442 53.8304 26.1491C54.1519 26.4541 54.4055 26.8501 54.5911 27.3374C54.7767 27.8213 54.8695 28.4096 54.8695 29.1023V29.6293H48.7992V28.5156H53.4128C53.4128 28.1245 53.3333 27.7782 53.1742 27.4766C53.0151 27.1716 52.7914 26.9313 52.503 26.7557C52.218 26.58 51.8832 26.4922 51.4988 26.4922C51.0811 26.4922 50.7166 26.5949 50.405 26.8004C50.0968 27.0026 49.8581 27.2678 49.6891 27.5959C49.5234 27.9207 49.4405 28.2737 49.4405 28.6548V29.5249C49.4405 30.0353 49.53 30.4695 49.709 30.8274C49.8913 31.1854 50.1448 31.4588 50.4696 31.6477C50.7944 31.8333 51.1739 31.9261 51.6081 31.9261C51.8899 31.9261 52.1467 31.8864 52.3787 31.8068C52.6107 31.724 52.8113 31.6013 52.9803 31.4389C53.1493 31.2765 53.2786 31.076 53.3681 30.8374L54.775 31.0909C54.6623 31.5052 54.4602 31.8681 54.1685 32.1797C53.8801 32.4879 53.5172 32.7282 53.0797 32.9006C52.6455 33.0696 52.15 33.1541 51.5932 33.1541Z" fill="black"/>
<mask id="path-8-inside-2_1185_11781" fill="white">
<path d="M1 58H494V110H1V58Z"/>
</mask>
<path d="M494 109H1V111H494V109Z" fill="#DDDCDC" fill-opacity="0.6" mask="url(#path-8-inside-2_1185_11781)"/>
<path d="M25.6761 79.9119V78.8182H33.3125V79.9119H30.1108V89H28.8778V79.9119H25.6761ZM35.0563 89V81.3636H36.2296V89H35.0563ZM35.6529 80.0909C35.4242 80.0909 35.227 80.013 35.0613 79.8572C34.8989 79.7015 34.8176 79.5142 34.8176 79.2955C34.8176 79.0767 34.8989 78.8894 35.0613 78.7337C35.227 78.5779 35.4242 78.5 35.6529 78.5C35.8816 78.5 36.0771 78.5779 36.2395 78.7337C36.4052 78.8894 36.4881 79.0767 36.4881 79.2955C36.4881 79.5142 36.4052 79.7015 36.2395 79.8572C36.0771 80.013 35.8816 80.0909 35.6529 80.0909ZM41.6996 81.3636V82.358H37.7422V81.3636H41.6996ZM38.8956 79.5341H40.0689V86.8125C40.0689 87.1439 40.117 87.3925 40.2131 87.5582C40.3125 87.7206 40.4384 87.83 40.5909 87.8864C40.7467 87.9394 40.9107 87.9659 41.0831 87.9659C41.2124 87.9659 41.3184 87.9593 41.4013 87.946C41.4841 87.9295 41.5504 87.9162 41.6001 87.9062L41.8388 88.9602C41.7592 88.9901 41.6482 89.0199 41.5057 89.0497C41.3632 89.0829 41.1825 89.0994 40.9638 89.0994C40.6323 89.0994 40.3075 89.0282 39.9893 88.8857C39.6745 88.7431 39.4126 88.526 39.2038 88.2344C38.9983 87.9427 38.8956 87.5748 38.8956 87.1307V79.5341ZM48.277 85.8778V81.3636H49.4503V89H48.277V87.7074H48.1974C48.0185 88.0952 47.7401 88.425 47.3622 88.6967C46.9844 88.9652 46.5071 89.0994 45.9304 89.0994C45.4531 89.0994 45.0289 88.995 44.6577 88.7862C44.2865 88.5741 43.9948 88.2559 43.7827 87.8317C43.5705 87.4041 43.4645 86.8655 43.4645 86.2159V81.3636H44.6378V86.1364C44.6378 86.6932 44.7936 87.1373 45.1051 87.4688C45.42 87.8002 45.821 87.9659 46.3082 87.9659C46.5999 87.9659 46.8965 87.8913 47.1982 87.7422C47.5031 87.593 47.7583 87.3643 47.9638 87.0561C48.1726 86.7479 48.277 86.3551 48.277 85.8778ZM57.0083 83.0739L55.9544 83.3722C55.8881 83.1965 55.7903 83.0258 55.661 82.8601C55.5351 82.6911 55.3627 82.5518 55.144 82.4425C54.9252 82.3331 54.6452 82.2784 54.3038 82.2784C53.8365 82.2784 53.447 82.3861 53.1355 82.6016C52.8272 82.8137 52.6731 83.0838 52.6731 83.4119C52.6731 83.7036 52.7792 83.9339 52.9913 84.103C53.2034 84.272 53.5349 84.4129 53.9856 84.5256L55.1191 84.804C55.8019 84.9697 56.3107 85.2232 56.6454 85.5646C56.9802 85.9027 57.1475 86.3385 57.1475 86.8722C57.1475 87.3097 57.0216 87.7008 56.7697 88.0455C56.5211 88.3902 56.1731 88.6619 55.7257 88.8608C55.2782 89.0597 54.7579 89.1591 54.1646 89.1591C53.3857 89.1591 52.7411 88.9901 52.2306 88.652C51.7202 88.3139 51.3971 87.8201 51.2612 87.1705L52.3748 86.892C52.4809 87.303 52.6814 87.6113 52.9764 87.8168C53.2747 88.0223 53.6641 88.125 54.1447 88.125C54.6916 88.125 55.1258 88.009 55.4473 87.777C55.7721 87.5417 55.9345 87.2599 55.9345 86.9318C55.9345 86.6667 55.8417 86.4446 55.6561 86.2656C55.4705 86.0833 55.1854 85.9474 54.801 85.858L53.5282 85.5597C52.8289 85.3939 52.3152 85.1371 51.987 84.7891C51.6622 84.4377 51.4998 83.9986 51.4998 83.4716C51.4998 83.0407 51.6208 82.6596 51.8627 82.3281C52.108 81.9967 52.4411 81.7365 52.862 81.5476C53.2863 81.3587 53.7669 81.2642 54.3038 81.2642C55.0595 81.2642 55.6528 81.4299 56.0836 81.7614C56.5178 82.0928 56.8261 82.5303 57.0083 83.0739ZM63.4279 89H62.1353L65.8739 78.8182H67.1467L70.8853 89H69.5927L66.5501 80.429H66.4705L63.4279 89ZM63.9052 85.0227H69.1154V86.1165H63.9052V85.0227ZM73.1673 89.0795C72.922 89.0795 72.7115 88.9917 72.5359 88.8161C72.3602 88.6404 72.2724 88.4299 72.2724 88.1847C72.2724 87.9394 72.3602 87.7289 72.5359 87.5533C72.7115 87.3776 72.922 87.2898 73.1673 87.2898C73.4125 87.2898 73.623 87.3776 73.7987 87.5533C73.9743 87.7289 74.0621 87.9394 74.0621 88.1847C74.0621 88.3471 74.0207 88.4962 73.9379 88.6321C73.8583 88.768 73.7506 88.8774 73.6147 88.9602C73.4821 89.0398 73.333 89.0795 73.1673 89.0795ZM76.7443 89H75.4517L79.1903 78.8182H80.4631L84.2017 89H82.9091L79.8665 80.429H79.7869L76.7443 89ZM77.2216 85.0227H82.4318V86.1165H77.2216V85.0227Z" fill="#1B1C1E"/>
<path d="M163.766 87.0114V85.7685L168.165 78.8182H169.145V80.6477H168.523L165.376 85.6293V85.7088H171.407V87.0114H163.766ZM168.593 89V86.6335L168.603 86.0668V78.8182H170.06V89H168.593Z" fill="#1B1C1E"/>
<path d="M255.121 90.2727V77.5455H255.937V90.2727H255.121ZM257.672 81.4929C257.619 81.0223 257.4 80.6577 257.016 80.3991C256.631 80.1373 256.147 80.0064 255.564 80.0064C255.146 80.0064 254.785 80.0727 254.48 80.2053C254.175 80.3345 253.938 80.5135 253.769 80.7422C253.603 80.9676 253.521 81.2244 253.521 81.5128C253.521 81.7547 253.577 81.9635 253.69 82.1392C253.806 82.3149 253.956 82.4624 254.142 82.5817C254.331 82.6977 254.533 82.7955 254.749 82.875C254.964 82.9512 255.171 83.0142 255.37 83.0639L256.364 83.3224C256.689 83.402 257.022 83.5097 257.364 83.6456C257.705 83.7815 258.022 83.9605 258.313 84.1825C258.605 84.4046 258.84 84.6797 259.019 85.0078C259.201 85.3359 259.293 85.7287 259.293 86.1861C259.293 86.7628 259.143 87.2749 258.845 87.7223C258.55 88.1697 258.121 88.5227 257.558 88.7812C256.997 89.0398 256.32 89.169 255.524 89.169C254.762 89.169 254.102 89.0481 253.545 88.8061C252.989 88.5642 252.553 88.2211 252.238 87.777C251.923 87.3295 251.749 86.7992 251.716 86.1861H253.257C253.287 86.554 253.406 86.8606 253.615 87.1058C253.827 87.3478 254.097 87.5284 254.425 87.6477C254.757 87.7637 255.12 87.8217 255.514 87.8217C255.948 87.8217 256.335 87.7538 256.673 87.6179C257.014 87.4787 257.282 87.2865 257.478 87.0412C257.674 86.7926 257.771 86.5026 257.771 86.1712C257.771 85.8696 257.685 85.6226 257.513 85.4304C257.344 85.2382 257.113 85.0791 256.822 84.9531C256.533 84.8272 256.207 84.7161 255.842 84.62L254.639 84.2919C253.824 84.0698 253.178 83.7434 252.7 83.3125C252.226 82.8816 251.989 82.3116 251.989 81.6023C251.989 81.0156 252.148 80.5036 252.467 80.0661C252.785 79.6286 253.216 79.2888 253.759 79.0469C254.303 78.8016 254.916 78.679 255.599 78.679C256.288 78.679 256.896 78.8 257.423 79.0419C257.954 79.2839 258.371 79.617 258.676 80.0412C258.981 80.4621 259.14 80.946 259.153 81.4929H257.672ZM265.508 83.2628V84.5554H260.994V83.2628H265.508ZM271.989 83.2628V84.5554H267.475V83.2628H271.989ZM282.174 83.2628V84.5554H277.66V83.2628H282.174ZM288.655 83.2628V84.5554H284.141V83.2628H288.655ZM298.84 83.2628V84.5554H294.326V83.2628H298.84ZM305.321 83.2628V84.5554H300.807V83.2628H305.321Z" fill="#1B1C1E"/>
<path d="M389.121 90.2727V77.5455H389.937V90.2727H389.121ZM391.672 81.4929C391.619 81.0223 391.4 80.6577 391.016 80.3991C390.631 80.1373 390.147 80.0064 389.564 80.0064C389.146 80.0064 388.785 80.0727 388.48 80.2053C388.175 80.3345 387.938 80.5135 387.769 80.7422C387.603 80.9676 387.521 81.2244 387.521 81.5128C387.521 81.7547 387.577 81.9635 387.69 82.1392C387.806 82.3149 387.956 82.4624 388.142 82.5817C388.331 82.6977 388.533 82.7955 388.749 82.875C388.964 82.9512 389.171 83.0142 389.37 83.0639L390.364 83.3224C390.689 83.402 391.022 83.5097 391.364 83.6456C391.705 83.7815 392.022 83.9605 392.313 84.1825C392.605 84.4046 392.84 84.6797 393.019 85.0078C393.201 85.3359 393.293 85.7287 393.293 86.1861C393.293 86.7628 393.143 87.2749 392.845 87.7223C392.55 88.1697 392.121 88.5227 391.558 88.7812C390.997 89.0398 390.32 89.169 389.524 89.169C388.762 89.169 388.102 89.0481 387.545 88.8061C386.989 88.5642 386.553 88.2211 386.238 87.777C385.923 87.3295 385.749 86.7992 385.716 86.1861H387.257C387.287 86.554 387.406 86.8606 387.615 87.1058C387.827 87.3478 388.097 87.5284 388.425 87.6477C388.757 87.7637 389.12 87.8217 389.514 87.8217C389.948 87.8217 390.335 87.7538 390.673 87.6179C391.014 87.4787 391.282 87.2865 391.478 87.0412C391.674 86.7926 391.771 86.5026 391.771 86.1712C391.771 85.8696 391.685 85.6226 391.513 85.4304C391.344 85.2382 391.113 85.0791 390.822 84.9531C390.533 84.8272 390.207 84.7161 389.842 84.62L388.639 84.2919C387.824 84.0698 387.178 83.7434 386.7 83.3125C386.226 82.8816 385.989 82.3116 385.989 81.6023C385.989 81.0156 386.148 80.5036 386.467 80.0661C386.785 79.6286 387.216 79.2888 387.759 79.0469C388.303 78.8016 388.916 78.679 389.599 78.679C390.288 78.679 390.896 78.8 391.423 79.0419C391.954 79.2839 392.371 79.617 392.676 80.0412C392.981 80.4621 393.14 80.946 393.153 81.4929H391.672ZM399.508 83.2628V84.5554H394.994V83.2628H399.508ZM405.989 83.2628V84.5554H401.475V83.2628H405.989ZM416.174 83.2628V84.5554H411.66V83.2628H416.174ZM422.655 83.2628V84.5554H418.141V83.2628H422.655ZM432.84 83.2628V84.5554H428.326V83.2628H432.84ZM439.321 83.2628V84.5554H434.807V83.2628H439.321Z" fill="#1B1C1E"/>
<mask id="path-14-inside-3_1185_11781" fill="white">
<path d="M1 119H494V171H1V119Z"/>
</mask>
<path d="M494 170H1V172H494V170Z" fill="#DDDCDC" fill-opacity="0.6" mask="url(#path-14-inside-3_1185_11781)"/>
<path d="M31.8011 142.364C31.7415 141.86 31.4995 141.469 31.0753 141.19C30.651 140.912 30.1307 140.773 29.5142 140.773C29.0634 140.773 28.669 140.846 28.331 140.991C27.9962 141.137 27.7344 141.338 27.5455 141.593C27.3598 141.848 27.267 142.138 27.267 142.463C27.267 142.735 27.3317 142.969 27.4609 143.164C27.5935 143.356 27.7625 143.517 27.968 143.646C28.1735 143.772 28.389 143.877 28.6143 143.96C28.8397 144.039 29.0469 144.104 29.2358 144.153L30.2699 144.432C30.535 144.501 30.83 144.598 31.1548 144.72C31.483 144.843 31.7962 145.01 32.0945 145.222C32.3961 145.431 32.6446 145.7 32.8402 146.028C33.0357 146.356 33.1335 146.759 33.1335 147.236C33.1335 147.786 32.9893 148.283 32.701 148.727C32.416 149.171 31.9983 149.524 31.4482 149.786C30.9013 150.048 30.2367 150.179 29.4545 150.179C28.7254 150.179 28.094 150.061 27.5604 149.826C27.0301 149.591 26.6125 149.263 26.3075 148.842C26.0059 148.421 25.8352 147.932 25.7955 147.375H27.0682C27.1013 147.759 27.2306 148.078 27.456 148.33C27.6847 148.578 27.973 148.764 28.321 148.886C28.6723 149.006 29.0502 149.065 29.4545 149.065C29.9252 149.065 30.3478 148.989 30.7223 148.837C31.0968 148.681 31.3935 148.465 31.6122 148.19C31.831 147.912 31.9403 147.587 31.9403 147.216C31.9403 146.878 31.8459 146.603 31.657 146.391C31.468 146.179 31.2195 146.006 30.9112 145.874C30.603 145.741 30.2699 145.625 29.9119 145.526L28.6591 145.168C27.8636 144.939 27.2339 144.612 26.7699 144.188C26.3059 143.764 26.0739 143.209 26.0739 142.523C26.0739 141.953 26.228 141.455 26.5362 141.031C26.8478 140.604 27.2654 140.272 27.7891 140.037C28.3161 139.798 28.9044 139.679 29.554 139.679C30.2102 139.679 30.7936 139.797 31.304 140.032C31.8144 140.264 32.2188 140.582 32.517 140.987C32.8187 141.391 32.9777 141.85 32.9943 142.364H31.8011ZM39.8141 146.878V142.364H40.9874V150H39.8141V148.707H39.7346C39.5556 149.095 39.2772 149.425 38.8993 149.697C38.5215 149.965 38.0442 150.099 37.4675 150.099C36.9902 150.099 36.566 149.995 36.1948 149.786C35.8236 149.574 35.5319 149.256 35.3198 148.832C35.1077 148.404 35.0016 147.866 35.0016 147.216V142.364H36.1749V147.136C36.1749 147.693 36.3307 148.137 36.6422 148.469C36.9571 148.8 37.3581 148.966 37.8453 148.966C38.137 148.966 38.4337 148.891 38.7353 148.742C39.0402 148.593 39.2954 148.364 39.5009 148.056C39.7097 147.748 39.8141 147.355 39.8141 146.878ZM47.9489 146.878V142.364H49.1222V150H47.9489V148.707H47.8693C47.6903 149.095 47.4119 149.425 47.0341 149.697C46.6563 149.965 46.179 150.099 45.6023 150.099C45.125 150.099 44.7008 149.995 44.3295 149.786C43.9583 149.574 43.6667 149.256 43.4545 148.832C43.2424 148.404 43.1364 147.866 43.1364 147.216V142.364H44.3097V147.136C44.3097 147.693 44.4654 148.137 44.777 148.469C45.0919 148.8 45.4929 148.966 45.9801 148.966C46.2718 148.966 46.5684 148.891 46.87 148.742C47.175 148.593 47.4302 148.364 47.6357 148.056C47.8445 147.748 47.9489 147.355 47.9489 146.878ZM52.4444 145.406V150H51.2711V142.364H52.4047V143.557H52.5041C52.6831 143.169 52.9548 142.857 53.3194 142.622C53.684 142.384 54.1547 142.264 54.7314 142.264C55.2484 142.264 55.7008 142.37 56.0886 142.582C56.4764 142.791 56.778 143.109 56.9934 143.537C57.2089 143.961 57.3166 144.498 57.3166 145.148V150H56.1433V145.227C56.1433 144.627 55.9875 144.16 55.676 143.825C55.3644 143.487 54.9368 143.318 54.3933 143.318C54.0188 143.318 53.684 143.399 53.389 143.562C53.0974 143.724 52.867 143.961 52.698 144.273C52.5289 144.584 52.4444 144.962 52.4444 145.406ZM59.9428 152.864C59.744 152.864 59.5666 152.847 59.4109 152.814C59.2551 152.784 59.1474 152.754 59.0877 152.724L59.386 151.69C59.671 151.763 59.9229 151.79 60.1417 151.77C60.3604 151.75 60.5543 151.652 60.7234 151.477C60.8957 151.304 61.0531 151.024 61.1957 150.636L61.4144 150.04L58.5906 142.364H59.8633L61.9712 148.449H62.0508L64.1587 142.364H65.4315L62.19 151.114C62.0442 151.508 61.8635 151.835 61.6481 152.093C61.4326 152.355 61.1824 152.549 60.8974 152.675C60.6156 152.801 60.2975 152.864 59.9428 152.864ZM70.5199 140.912V139.818H78.1562V140.912H74.9545V150H73.7216V140.912H70.5199ZM80.2766 150.08C80.0314 150.08 79.8209 149.992 79.6452 149.816C79.4696 149.64 79.3817 149.43 79.3817 149.185C79.3817 148.939 79.4696 148.729 79.6452 148.553C79.8209 148.378 80.0314 148.29 80.2766 148.29C80.5219 148.29 80.7324 148.378 80.908 148.553C81.0837 148.729 81.1715 148.939 81.1715 149.185C81.1715 149.347 81.1301 149.496 81.0472 149.632C80.9677 149.768 80.86 149.877 80.7241 149.96C80.5915 150.04 80.4424 150.08 80.2766 150.08ZM83.8537 150H82.5611L86.2997 139.818H87.5724L91.3111 150H90.0185L86.9759 141.429H86.8963L83.8537 150ZM84.331 146.023H89.5412V147.116H84.331V146.023Z" fill="#1B1C1E"/>
<path d="M170.766 148.011V146.768L175.165 139.818H176.145V141.648H175.523L172.376 146.629V146.709H178.407V148.011H170.766ZM175.593 150V147.634L175.603 147.067V139.818H177.06V150H175.593Z" fill="#1B1C1E"/>
<path d="M262.121 151.273V138.545H262.937V151.273H262.121ZM264.672 142.493C264.619 142.022 264.4 141.658 264.016 141.399C263.631 141.137 263.147 141.006 262.564 141.006C262.146 141.006 261.785 141.073 261.48 141.205C261.175 141.335 260.938 141.513 260.769 141.742C260.603 141.968 260.521 142.224 260.521 142.513C260.521 142.755 260.577 142.964 260.69 143.139C260.806 143.315 260.956 143.462 261.142 143.582C261.331 143.698 261.533 143.795 261.749 143.875C261.964 143.951 262.171 144.014 262.37 144.064L263.364 144.322C263.689 144.402 264.022 144.51 264.364 144.646C264.705 144.781 265.022 144.96 265.313 145.183C265.605 145.405 265.84 145.68 266.019 146.008C266.201 146.336 266.293 146.729 266.293 147.186C266.293 147.763 266.143 148.275 265.845 148.722C265.55 149.17 265.121 149.523 264.558 149.781C263.997 150.04 263.32 150.169 262.524 150.169C261.762 150.169 261.102 150.048 260.545 149.806C259.989 149.564 259.553 149.221 259.238 148.777C258.923 148.33 258.749 147.799 258.716 147.186H260.257C260.287 147.554 260.406 147.861 260.615 148.106C260.827 148.348 261.097 148.528 261.425 148.648C261.757 148.764 262.12 148.822 262.514 148.822C262.948 148.822 263.335 148.754 263.673 148.618C264.014 148.479 264.282 148.286 264.478 148.041C264.674 147.793 264.771 147.503 264.771 147.171C264.771 146.87 264.685 146.623 264.513 146.43C264.344 146.238 264.113 146.079 263.822 145.953C263.533 145.827 263.207 145.716 262.842 145.62L261.639 145.292C260.824 145.07 260.178 144.743 259.7 144.312C259.226 143.882 258.989 143.312 258.989 142.602C258.989 142.016 259.148 141.504 259.467 141.066C259.785 140.629 260.216 140.289 260.759 140.047C261.303 139.802 261.916 139.679 262.599 139.679C263.288 139.679 263.896 139.8 264.423 140.042C264.954 140.284 265.371 140.617 265.676 141.041C265.981 141.462 266.14 141.946 266.153 142.493H264.672ZM272.508 144.263V145.555H267.994V144.263H272.508ZM278.989 144.263V145.555H274.475V144.263H278.989ZM289.174 144.263V145.555H284.66V144.263H289.174ZM295.655 144.263V145.555H291.141V144.263H295.655ZM305.84 144.263V145.555H301.326V144.263H305.84ZM312.321 144.263V145.555H307.807V144.263H312.321Z" fill="#1B1C1E"/>
<path d="M396.121 151.273V138.545H396.937V151.273H396.121ZM398.672 142.493C398.619 142.022 398.4 141.658 398.016 141.399C397.631 141.137 397.147 141.006 396.564 141.006C396.146 141.006 395.785 141.073 395.48 141.205C395.175 141.335 394.938 141.513 394.769 141.742C394.603 141.968 394.521 142.224 394.521 142.513C394.521 142.755 394.577 142.964 394.69 143.139C394.806 143.315 394.956 143.462 395.142 143.582C395.331 143.698 395.533 143.795 395.749 143.875C395.964 143.951 396.171 144.014 396.37 144.064L397.364 144.322C397.689 144.402 398.022 144.51 398.364 144.646C398.705 144.781 399.022 144.96 399.313 145.183C399.605 145.405 399.84 145.68 400.019 146.008C400.201 146.336 400.293 146.729 400.293 147.186C400.293 147.763 400.143 148.275 399.845 148.722C399.55 149.17 399.121 149.523 398.558 149.781C397.997 150.04 397.32 150.169 396.524 150.169C395.762 150.169 395.102 150.048 394.545 149.806C393.989 149.564 393.553 149.221 393.238 148.777C392.923 148.33 392.749 147.799 392.716 147.186H394.257C394.287 147.554 394.406 147.861 394.615 148.106C394.827 148.348 395.097 148.528 395.425 148.648C395.757 148.764 396.12 148.822 396.514 148.822C396.948 148.822 397.335 148.754 397.673 148.618C398.014 148.479 398.282 148.286 398.478 148.041C398.674 147.793 398.771 147.503 398.771 147.171C398.771 146.87 398.685 146.623 398.513 146.43C398.344 146.238 398.113 146.079 397.822 145.953C397.533 145.827 397.207 145.716 396.842 145.62L395.639 145.292C394.824 145.07 394.178 144.743 393.7 144.312C393.226 143.882 392.989 143.312 392.989 142.602C392.989 142.016 393.148 141.504 393.467 141.066C393.785 140.629 394.216 140.289 394.759 140.047C395.303 139.802 395.916 139.679 396.599 139.679C397.288 139.679 397.896 139.8 398.423 140.042C398.954 140.284 399.371 140.617 399.676 141.041C399.981 141.462 400.14 141.946 400.153 142.493H398.672ZM406.508 144.263V145.555H401.994V144.263H406.508ZM412.989 144.263V145.555H408.475V144.263H412.989ZM423.174 144.263V145.555H418.66V144.263H423.174ZM429.655 144.263V145.555H425.141V144.263H429.655ZM439.84 144.263V145.555H435.326V144.263H439.84ZM446.321 144.263V145.555H441.807V144.263H446.321Z" fill="#1B1C1E"/>
<mask id="path-20-inside-4_1185_11781" fill="white">
<path d="M1 174H494V226H1V174Z"/>
</mask>
<path d="M494 225H1V227H494V225Z" fill="#DDDCDC" fill-opacity="0.6" mask="url(#path-20-inside-4_1185_11781)"/>
<path d="M26.233 194.818H27.7045L31.1648 203.27H31.2841L34.7443 194.818H36.2159V205H35.0625V197.264H34.9631L31.7812 205H30.6676L27.4858 197.264H27.3864V205H26.233V194.818ZM40.7761 205.179C40.2922 205.179 39.853 205.088 39.4586 204.906C39.0642 204.72 38.751 204.453 38.519 204.105C38.287 203.754 38.171 203.33 38.171 202.832C38.171 202.395 38.2572 202.04 38.4295 201.768C38.6019 201.493 38.8322 201.278 39.1206 201.122C39.4089 200.966 39.7271 200.85 40.0751 200.774C40.4264 200.695 40.7794 200.632 41.1341 200.585C41.5981 200.526 41.9743 200.481 42.2626 200.451C42.5543 200.418 42.7664 200.363 42.899 200.287C43.0349 200.211 43.1028 200.078 43.1028 199.889V199.849C43.1028 199.359 42.9686 198.978 42.7001 198.706C42.435 198.434 42.0323 198.298 41.492 198.298C40.9319 198.298 40.4927 198.421 40.1745 198.666C39.8564 198.911 39.6326 199.173 39.5034 199.452L38.3897 199.054C38.5886 198.59 38.8538 198.229 39.1852 197.97C39.5199 197.708 39.8845 197.526 40.2789 197.423C40.6767 197.317 41.0678 197.264 41.4522 197.264C41.6975 197.264 41.9792 197.294 42.2974 197.354C42.6189 197.41 42.9288 197.528 43.2271 197.707C43.5287 197.886 43.7789 198.156 43.9778 198.517C44.1767 198.878 44.2761 199.362 44.2761 199.969V205H43.1028V203.966H43.0431C42.9636 204.132 42.831 204.309 42.6454 204.498C42.4598 204.687 42.2129 204.848 41.9047 204.98C41.5964 205.113 41.2202 205.179 40.7761 205.179ZM40.9551 204.125C41.4191 204.125 41.8102 204.034 42.1284 203.852C42.4499 203.669 42.6918 203.434 42.8542 203.146C43.0199 202.857 43.1028 202.554 43.1028 202.236V201.162C43.0531 201.222 42.9437 201.276 42.7747 201.326C42.609 201.372 42.4167 201.414 42.198 201.45C41.9825 201.483 41.7721 201.513 41.5666 201.54C41.3644 201.563 41.2003 201.583 41.0744 201.599C40.7695 201.639 40.4844 201.704 40.2193 201.793C39.9574 201.879 39.7453 202.01 39.5829 202.186C39.4238 202.358 39.3443 202.594 39.3443 202.892C39.3443 203.3 39.4951 203.608 39.7967 203.817C40.1016 204.022 40.4877 204.125 40.9551 204.125ZM49.5199 205.159C48.804 205.159 48.1875 204.99 47.6705 204.652C47.1534 204.314 46.7557 203.848 46.4773 203.255C46.1989 202.662 46.0597 201.984 46.0597 201.222C46.0597 200.446 46.2022 199.762 46.4872 199.168C46.7756 198.572 47.1766 198.106 47.6903 197.771C48.2074 197.433 48.8106 197.264 49.5 197.264C50.0369 197.264 50.5208 197.364 50.9517 197.562C51.3826 197.761 51.7356 198.04 52.0107 198.398C52.2857 198.756 52.4564 199.173 52.5227 199.651H51.3494C51.2599 199.303 51.0611 198.994 50.7528 198.726C50.4479 198.454 50.0369 198.318 49.5199 198.318C49.0625 198.318 48.6615 198.437 48.3168 198.676C47.9754 198.911 47.7086 199.245 47.5163 199.675C47.3274 200.103 47.233 200.605 47.233 201.182C47.233 201.772 47.3258 202.286 47.5114 202.723C47.7003 203.161 47.9654 203.5 48.3068 203.742C48.6515 203.984 49.0559 204.105 49.5199 204.105C49.8248 204.105 50.1016 204.052 50.3501 203.946C50.5987 203.84 50.8092 203.688 50.9815 203.489C51.1539 203.29 51.2765 203.051 51.3494 202.773H52.5227C52.4564 203.223 52.2924 203.629 52.0305 203.991C51.772 204.349 51.429 204.634 51.0014 204.846C50.5772 205.055 50.0833 205.159 49.5199 205.159ZM54.9936 207.864C54.7947 207.864 54.6174 207.847 54.4616 207.814C54.3059 207.784 54.1982 207.754 54.1385 207.724L54.4368 206.69C54.7218 206.763 54.9737 206.79 55.1925 206.77C55.4112 206.75 55.6051 206.652 55.7741 206.477C55.9465 206.304 56.1039 206.024 56.2464 205.636L56.4652 205.04L53.6413 197.364H54.9141L57.022 203.449H57.1016L59.2095 197.364H60.4822L57.2408 206.114C57.0949 206.508 56.9143 206.835 56.6989 207.093C56.4834 207.355 56.2332 207.549 55.9482 207.675C55.6664 207.801 55.3482 207.864 54.9936 207.864ZM66.5451 205H65.2525L68.9911 194.818H70.2638L74.0025 205H72.7099L69.6673 196.429H69.5877L66.5451 205ZM67.0224 201.023H72.2326V202.116H67.0224V201.023ZM76.2844 205.08C76.0392 205.08 75.8287 204.992 75.6531 204.816C75.4774 204.64 75.3896 204.43 75.3896 204.185C75.3896 203.939 75.4774 203.729 75.6531 203.553C75.8287 203.378 76.0392 203.29 76.2844 203.29C76.5297 203.29 76.7402 203.378 76.9158 203.553C77.0915 203.729 77.1793 203.939 77.1793 204.185C77.1793 204.347 77.1379 204.496 77.055 204.632C76.9755 204.768 76.8678 204.877 76.7319 204.96C76.5993 205.04 76.4502 205.08 76.2844 205.08ZM79.4439 194.818H80.9155L84.3757 203.27H84.495L87.9553 194.818H89.4268V205H88.2734V197.264H88.174L84.9922 205H83.8786L80.6967 197.264H80.5973V205H79.4439V194.818Z" fill="#1B1C1E"/>
<path d="M169.766 203.011V201.768L174.165 194.818H175.145V196.648H174.523L171.376 201.629V201.709H177.407V203.011H169.766ZM174.593 205V202.634L174.603 202.067V194.818H176.06V205H174.593Z" fill="#1B1C1E"/>
<path d="M261.121 206.273V193.545H261.937V206.273H261.121ZM263.672 197.493C263.619 197.022 263.4 196.658 263.016 196.399C262.631 196.137 262.147 196.006 261.564 196.006C261.146 196.006 260.785 196.073 260.48 196.205C260.175 196.335 259.938 196.513 259.769 196.742C259.603 196.968 259.521 197.224 259.521 197.513C259.521 197.755 259.577 197.964 259.69 198.139C259.806 198.315 259.956 198.462 260.142 198.582C260.331 198.698 260.533 198.795 260.749 198.875C260.964 198.951 261.171 199.014 261.37 199.064L262.364 199.322C262.689 199.402 263.022 199.51 263.364 199.646C263.705 199.781 264.022 199.96 264.313 200.183C264.605 200.405 264.84 200.68 265.019 201.008C265.201 201.336 265.293 201.729 265.293 202.186C265.293 202.763 265.143 203.275 264.845 203.722C264.55 204.17 264.121 204.523 263.558 204.781C262.997 205.04 262.32 205.169 261.524 205.169C260.762 205.169 260.102 205.048 259.545 204.806C258.989 204.564 258.553 204.221 258.238 203.777C257.923 203.33 257.749 202.799 257.716 202.186H259.257C259.287 202.554 259.406 202.861 259.615 203.106C259.827 203.348 260.097 203.528 260.425 203.648C260.757 203.764 261.12 203.822 261.514 203.822C261.948 203.822 262.335 203.754 262.673 203.618C263.014 203.479 263.282 203.286 263.478 203.041C263.674 202.793 263.771 202.503 263.771 202.171C263.771 201.87 263.685 201.623 263.513 201.43C263.344 201.238 263.113 201.079 262.822 200.953C262.533 200.827 262.207 200.716 261.842 200.62L260.639 200.292C259.824 200.07 259.178 199.743 258.7 199.312C258.226 198.882 257.989 198.312 257.989 197.602C257.989 197.016 258.148 196.504 258.467 196.066C258.785 195.629 259.216 195.289 259.759 195.047C260.303 194.802 260.916 194.679 261.599 194.679C262.288 194.679 262.896 194.8 263.423 195.042C263.954 195.284 264.371 195.617 264.676 196.041C264.981 196.462 265.14 196.946 265.153 197.493H263.672ZM271.508 199.263V200.555H266.994V199.263H271.508ZM277.989 199.263V200.555H273.475V199.263H277.989ZM288.174 199.263V200.555H283.66V199.263H288.174ZM294.655 199.263V200.555H290.141V199.263H294.655ZM304.84 199.263V200.555H300.326V199.263H304.84ZM311.321 199.263V200.555H306.807V199.263H311.321Z" fill="#1B1C1E"/>
<path d="M395.121 206.273V193.545H395.937V206.273H395.121ZM397.672 197.493C397.619 197.022 397.4 196.658 397.016 196.399C396.631 196.137 396.147 196.006 395.564 196.006C395.146 196.006 394.785 196.073 394.48 196.205C394.175 196.335 393.938 196.513 393.769 196.742C393.603 196.968 393.521 197.224 393.521 197.513C393.521 197.755 393.577 197.964 393.69 198.139C393.806 198.315 393.956 198.462 394.142 198.582C394.331 198.698 394.533 198.795 394.749 198.875C394.964 198.951 395.171 199.014 395.37 199.064L396.364 199.322C396.689 199.402 397.022 199.51 397.364 199.646C397.705 199.781 398.022 199.96 398.313 200.183C398.605 200.405 398.84 200.68 399.019 201.008C399.201 201.336 399.293 201.729 399.293 202.186C399.293 202.763 399.143 203.275 398.845 203.722C398.55 204.17 398.121 204.523 397.558 204.781C396.997 205.04 396.32 205.169 395.524 205.169C394.762 205.169 394.102 205.048 393.545 204.806C392.989 204.564 392.553 204.221 392.238 203.777C391.923 203.33 391.749 202.799 391.716 202.186H393.257C393.287 202.554 393.406 202.861 393.615 203.106C393.827 203.348 394.097 203.528 394.425 203.648C394.757 203.764 395.12 203.822 395.514 203.822C395.948 203.822 396.335 203.754 396.673 203.618C397.014 203.479 397.282 203.286 397.478 203.041C397.674 202.793 397.771 202.503 397.771 202.171C397.771 201.87 397.685 201.623 397.513 201.43C397.344 201.238 397.113 201.079 396.822 200.953C396.533 200.827 396.207 200.716 395.842 200.62L394.639 200.292C393.824 200.07 393.178 199.743 392.7 199.312C392.226 198.882 391.989 198.312 391.989 197.602C391.989 197.016 392.148 196.504 392.467 196.066C392.785 195.629 393.216 195.289 393.759 195.047C394.303 194.802 394.916 194.679 395.599 194.679C396.288 194.679 396.896 194.8 397.423 195.042C397.954 195.284 398.371 195.617 398.676 196.041C398.981 196.462 399.14 196.946 399.153 197.493H397.672ZM405.508 199.263V200.555H400.994V199.263H405.508ZM411.989 199.263V200.555H407.475V199.263H411.989ZM422.174 199.263V200.555H417.66V199.263H422.174ZM428.655 199.263V200.555H424.141V199.263H428.655ZM438.84 199.263V200.555H434.326V199.263H438.84ZM445.321 199.263V200.555H440.807V199.263H445.321Z" fill="#1B1C1E"/>
</svg>
