<svg width="425" height="231" viewBox="0 0 425 231" fill="none" xmlns="http://www.w3.org/2000/svg">
<rect x="0.31543" width="424.369" height="231" rx="22.9695" fill="white" fill-opacity="0.46"/>
<rect x="17.4575" y="40.9219" width="390.085" height="149.157" rx="18" fill="url(#paint0_linear_1177_8861)"/>
<path d="M37.4575 81.8374H387.543" stroke="black" stroke-opacity="0.08" stroke-width="0.57377"/>
<path d="M37.4575 111.511H387.543" stroke="black" stroke-opacity="0.07" stroke-width="0.57377"/>
<path d="M37.4575 146.13H387.543" stroke="black" stroke-opacity="0.07" stroke-width="0.57377"/>
<path d="M97.3401 155.022L37.7842 170.079L387.037 170.079V60.9219L328.757 108.349L270.478 135.449L213.049 145.236L155.194 149L97.3401 155.022Z" fill="#94C494" fill-opacity="0.2"/>
<g filter="url(#filter0_d_1177_8861)">
<rect x="191.458" y="66.9219" width="120.593" height="49" rx="5.8652" fill="white" shape-rendering="crispEdges"/>
<rect x="191.824" y="67.2885" width="119.86" height="48.2668" rx="5.49863" stroke="#F9F9F9" stroke-width="0.73315" shape-rendering="crispEdges"/>
<path d="M201.421 79.7871V79.4204L202.798 77.9126C202.96 77.736 203.093 77.5825 203.197 77.4521C203.302 77.3203 203.379 77.1967 203.43 77.0813C203.481 76.9644 203.507 76.8422 203.507 76.7145C203.507 76.5678 203.472 76.4408 203.401 76.3335C203.332 76.2262 203.237 76.1433 203.116 76.0849C202.995 76.0265 202.859 75.9973 202.708 75.9973C202.548 75.9973 202.408 76.0306 202.289 76.0971C202.171 76.1623 202.079 76.254 202.014 76.3722C201.95 76.4904 201.918 76.6289 201.918 76.7879H201.437C201.437 76.5434 201.493 76.3287 201.606 76.144C201.719 75.9593 201.872 75.8153 202.067 75.712C202.262 75.6088 202.482 75.5572 202.725 75.5572C202.969 75.5572 203.186 75.6088 203.375 75.712C203.564 75.8153 203.712 75.9545 203.819 76.1297C203.926 76.305 203.98 76.4999 203.98 76.7145C203.98 76.868 203.952 77.0181 203.896 77.1648C203.842 77.3101 203.747 77.4725 203.611 77.6518C203.477 77.8297 203.29 78.0471 203.051 78.3038L202.113 79.3063V79.3389H204.053V79.7871H201.421ZM206.051 75.5572C206.222 75.5585 206.393 75.5911 206.565 75.655C206.736 75.7188 206.892 75.8248 207.033 75.9728C207.174 76.1195 207.288 76.3199 207.373 76.5739C207.459 76.8279 207.502 77.1465 207.502 77.5295C207.502 77.9004 207.466 78.2298 207.396 78.5177C207.327 78.8043 207.226 79.0461 207.094 79.2431C206.964 79.44 206.805 79.5895 206.617 79.6913C206.431 79.7932 206.221 79.8442 205.986 79.8442C205.752 79.8442 205.544 79.798 205.36 79.7056C205.178 79.6119 205.029 79.4822 204.912 79.3164C204.797 79.1494 204.723 78.9558 204.69 78.7357H205.187C205.232 78.9273 205.321 79.0855 205.454 79.2105C205.589 79.3341 205.766 79.3959 205.986 79.3959C206.308 79.3959 206.562 79.2553 206.748 78.9741C206.935 78.693 207.029 78.2956 207.029 77.7822H206.996C206.92 77.8963 206.83 77.9948 206.725 78.0776C206.621 78.1605 206.505 78.2243 206.377 78.2691C206.249 78.314 206.114 78.3364 205.97 78.3364C205.73 78.3364 205.511 78.2773 205.311 78.1591C205.113 78.0396 204.954 77.8759 204.835 77.6681C204.716 77.4589 204.657 77.2198 204.657 76.9509C204.657 76.6955 204.714 76.4619 204.829 76.2499C204.944 76.0367 205.106 75.8669 205.313 75.7406C205.523 75.6142 205.769 75.5531 206.051 75.5572ZM206.051 76.0054C205.88 76.0054 205.726 76.0482 205.589 76.1338C205.453 76.218 205.345 76.3321 205.265 76.4761C205.186 76.6187 205.146 76.777 205.146 76.9509C205.146 77.1247 205.184 77.283 205.261 77.4256C205.338 77.5669 205.443 77.6796 205.576 77.7638C205.711 77.8467 205.864 77.8881 206.035 77.8881C206.164 77.8881 206.284 77.863 206.395 77.8127C206.507 77.7611 206.604 77.6912 206.687 77.6029C206.771 77.5132 206.837 77.412 206.884 77.2993C206.932 77.1852 206.956 77.0663 206.956 76.9427C206.956 76.7797 206.916 76.6269 206.838 76.4843C206.76 76.3416 206.653 76.2262 206.516 76.1379C206.38 76.0496 206.225 76.0054 206.051 76.0054ZM211.243 75.6142H211.749V78.5972C211.749 78.8634 211.7 79.0896 211.602 79.2757C211.504 79.4618 211.366 79.6031 211.188 79.6995C211.01 79.7959 210.8 79.8442 210.559 79.8442C210.33 79.8442 210.127 79.8027 209.949 79.7199C209.772 79.6357 209.632 79.5161 209.53 79.3613C209.428 79.2064 209.377 79.0224 209.377 78.8091H209.874C209.874 78.9273 209.903 79.0305 209.962 79.1188C210.021 79.2057 210.103 79.2737 210.206 79.3226C210.309 79.3715 210.427 79.3959 210.559 79.3959C210.704 79.3959 210.828 79.3653 210.93 79.3042C211.031 79.2431 211.109 79.1534 211.162 79.0353C211.216 78.9157 211.243 78.7697 211.243 78.5972V75.6142ZM214.496 78.5075V76.6575H214.977V79.7871H214.496V79.2574H214.464C214.39 79.4163 214.276 79.5514 214.121 79.6628C213.966 79.7728 213.771 79.8279 213.535 79.8279C213.339 79.8279 213.165 79.7851 213.013 79.6995C212.861 79.6126 212.741 79.4822 212.654 79.3083C212.567 79.1331 212.524 78.9123 212.524 78.6461V76.6575H213.005V78.6135C213.005 78.8417 213.069 79.0237 213.196 79.1595C213.325 79.2954 213.49 79.3633 213.689 79.3633C213.809 79.3633 213.931 79.3327 214.054 79.2716C214.179 79.2105 214.284 79.1168 214.368 78.9904C214.453 78.8641 214.496 78.7031 214.496 78.5075ZM216.167 75.6142V79.7871H215.686V75.6142H216.167ZM217.185 80.9607C217.103 80.9607 217.031 80.9539 216.967 80.9404C216.903 80.9281 216.859 80.9159 216.834 80.9037L216.957 80.4799C217.073 80.5098 217.177 80.5206 217.266 80.5125C217.356 80.5043 217.435 80.4642 217.505 80.3923C217.575 80.3216 217.64 80.2068 217.698 80.0479L217.788 79.8034L216.631 76.6575H217.152L218.016 79.1514H218.049L218.913 76.6575H219.434L218.106 80.2435C218.046 80.4052 217.972 80.539 217.884 80.6449C217.795 80.7522 217.693 80.8317 217.576 80.8833C217.461 80.9349 217.33 80.9607 217.185 80.9607ZM222.691 79.8442C222.384 79.8442 222.123 79.7606 221.907 79.5935C221.691 79.4251 221.526 79.1813 221.412 78.8621C221.298 78.5415 221.241 78.1544 221.241 77.7007C221.241 77.2497 221.298 76.8646 221.412 76.5454C221.527 76.2248 221.693 75.9803 221.909 75.8119C222.126 75.6421 222.387 75.5572 222.691 75.5572C222.996 75.5572 223.256 75.6421 223.472 75.8119C223.689 75.9803 223.855 76.2248 223.969 76.5454C224.084 76.8646 224.142 77.2497 224.142 77.7007C224.142 78.1544 224.085 78.5415 223.971 78.8621C223.857 79.1813 223.692 79.4251 223.476 79.5935C223.26 79.7606 222.998 79.8442 222.691 79.8442ZM222.691 79.3959C222.996 79.3959 223.232 79.2492 223.4 78.9558C223.569 78.6624 223.653 78.244 223.653 77.7007C223.653 77.3394 223.614 77.0317 223.537 76.7777C223.461 76.5237 223.351 76.3301 223.207 76.197C223.064 76.0639 222.892 75.9973 222.691 75.9973C222.39 75.9973 222.154 76.146 221.984 76.4435C221.815 76.7396 221.73 77.1587 221.73 77.7007C221.73 78.062 221.768 78.369 221.844 78.6216C221.92 78.8743 222.029 79.0665 222.172 79.1983C222.316 79.33 222.489 79.3959 222.691 79.3959ZM226.105 79.8442C225.798 79.8442 225.537 79.7606 225.321 79.5935C225.105 79.4251 224.94 79.1813 224.826 78.8621C224.712 78.5415 224.655 78.1544 224.655 77.7007C224.655 77.2497 224.712 76.8646 224.826 76.5454C224.941 76.2248 225.107 75.9803 225.323 75.8119C225.54 75.6421 225.801 75.5572 226.105 75.5572C226.41 75.5572 226.67 75.6421 226.886 75.8119C227.103 75.9803 227.269 76.2248 227.383 76.5454C227.498 76.8646 227.556 77.2497 227.556 77.7007C227.556 78.1544 227.499 78.5415 227.385 78.8621C227.271 79.1813 227.106 79.4251 226.89 79.5935C226.674 79.7606 226.412 79.8442 226.105 79.8442ZM226.105 79.3959C226.41 79.3959 226.646 79.2492 226.814 78.9558C226.983 78.6624 227.067 78.244 227.067 77.7007C227.067 77.3394 227.028 77.0317 226.951 76.7777C226.875 76.5237 226.765 76.3301 226.621 76.197C226.478 76.0639 226.306 75.9973 226.105 75.9973C225.804 75.9973 225.568 76.146 225.398 76.4435C225.228 76.7396 225.144 77.1587 225.144 77.7007C225.144 78.062 225.182 78.369 225.258 78.6216C225.334 78.8743 225.443 79.0665 225.586 79.1983C225.73 79.33 225.903 79.3959 226.105 79.3959ZM228.517 79.2533C228.416 79.2533 228.33 79.2173 228.258 79.1453C228.186 79.0733 228.15 78.987 228.15 78.8865C228.15 78.786 228.186 78.6997 228.258 78.6278C228.33 78.5558 228.416 78.5198 228.517 78.5198C228.617 78.5198 228.704 78.5558 228.776 78.6278C228.848 78.6997 228.884 78.786 228.884 78.8865C228.884 78.9531 228.867 79.0142 228.833 79.0699C228.8 79.1256 228.756 79.1704 228.7 79.2044C228.646 79.237 228.585 79.2533 228.517 79.2533ZM228.517 77.1424C228.416 77.1424 228.33 77.1064 228.258 77.0344C228.186 76.9624 228.15 76.8762 228.15 76.7756C228.15 76.6751 228.186 76.5889 228.258 76.5169C228.33 76.4449 228.416 76.4089 228.517 76.4089C228.617 76.4089 228.704 76.4449 228.776 76.5169C228.848 76.5889 228.884 76.6751 228.884 76.7756C228.884 76.8422 228.867 76.9033 228.833 76.959C228.8 77.0147 228.756 77.0595 228.7 77.0935C228.646 77.1261 228.585 77.1424 228.517 77.1424ZM230.927 79.8442C230.62 79.8442 230.359 79.7606 230.143 79.5935C229.927 79.4251 229.762 79.1813 229.648 78.8621C229.534 78.5415 229.476 78.1544 229.476 77.7007C229.476 77.2497 229.534 76.8646 229.648 76.5454C229.763 76.2248 229.929 75.9803 230.145 75.8119C230.362 75.6421 230.623 75.5572 230.927 75.5572C231.231 75.5572 231.492 75.6421 231.708 75.8119C231.925 75.9803 232.091 76.2248 232.205 76.5454C232.32 76.8646 232.378 77.2497 232.378 77.7007C232.378 78.1544 232.321 78.5415 232.207 78.8621C232.093 79.1813 231.928 79.4251 231.712 79.5935C231.496 79.7606 231.234 79.8442 230.927 79.8442ZM230.927 79.3959C231.231 79.3959 231.468 79.2492 231.636 78.9558C231.805 78.6624 231.889 78.244 231.889 77.7007C231.889 77.3394 231.85 77.0317 231.773 76.7777C231.697 76.5237 231.587 76.3301 231.443 76.197C231.3 76.0639 231.128 75.9973 230.927 75.9973C230.626 75.9973 230.39 76.146 230.22 76.4435C230.05 76.7396 229.966 77.1587 229.966 77.7007C229.966 78.062 230.004 78.369 230.08 78.6216C230.156 78.8743 230.265 79.0665 230.408 79.1983C230.552 79.33 230.725 79.3959 230.927 79.3959ZM234.341 79.8442C234.034 79.8442 233.773 79.7606 233.557 79.5935C233.341 79.4251 233.176 79.1813 233.062 78.8621C232.947 78.5415 232.89 78.1544 232.89 77.7007C232.89 77.2497 232.947 76.8646 233.062 76.5454C233.177 76.2248 233.343 75.9803 233.559 75.8119C233.776 75.6421 234.037 75.5572 234.341 75.5572C234.645 75.5572 234.906 75.6421 235.122 75.8119C235.339 75.9803 235.505 76.2248 235.619 76.5454C235.734 76.8646 235.792 77.2497 235.792 77.7007C235.792 78.1544 235.735 78.5415 235.621 78.8621C235.507 79.1813 235.342 79.4251 235.126 79.5935C234.91 79.7606 234.648 79.8442 234.341 79.8442ZM234.341 79.3959C234.645 79.3959 234.882 79.2492 235.05 78.9558C235.219 78.6624 235.303 78.244 235.303 77.7007C235.303 77.3394 235.264 77.0317 235.187 76.7777C235.111 76.5237 235.001 76.3301 234.857 76.197C234.714 76.0639 234.542 75.9973 234.341 75.9973C234.04 75.9973 233.804 76.146 233.634 76.4435C233.464 76.7396 233.379 77.1587 233.379 77.7007C233.379 78.062 233.417 78.369 233.494 78.6216C233.57 78.8743 233.679 79.0665 233.822 79.1983C233.966 79.33 234.139 79.3959 234.341 79.3959Z" fill="#7A7A7A"/>
<path d="M204.103 100.339V90.7208H204.719V100.339H204.103ZM206.03 93.704C205.99 93.3484 205.825 93.0728 205.535 92.8775C205.244 92.6796 204.878 92.5806 204.437 92.5806C204.122 92.5806 203.849 92.6307 203.618 92.7309C203.388 92.8286 203.209 92.9639 203.081 93.1367C202.956 93.307 202.893 93.5012 202.893 93.7191C202.893 93.9019 202.936 94.0597 203.021 94.1925C203.109 94.3252 203.223 94.4367 203.363 94.5269C203.506 94.6145 203.658 94.6884 203.821 94.7486C203.984 94.8062 204.141 94.8538 204.291 94.8913L205.042 95.0867C205.288 95.1468 205.54 95.2282 205.798 95.3309C206.056 95.4336 206.295 95.5689 206.515 95.7367C206.736 95.9045 206.913 96.1124 207.049 96.3604C207.186 96.6084 207.255 96.9052 207.255 97.2509C207.255 97.6867 207.143 98.0737 206.917 98.4118C206.694 98.75 206.37 99.0167 205.944 99.2121C205.521 99.4075 205.008 99.5052 204.407 99.5052C203.831 99.5052 203.333 99.4138 202.912 99.2309C202.491 99.0481 202.162 98.7888 201.924 98.4532C201.686 98.115 201.554 97.7142 201.529 97.2509H202.694C202.717 97.5289 202.807 97.7606 202.965 97.9459C203.125 98.1288 203.329 98.2653 203.577 98.3555C203.827 98.4431 204.102 98.487 204.4 98.487C204.728 98.487 205.02 98.4356 205.275 98.3329C205.533 98.2277 205.736 98.0825 205.884 97.8971C206.032 97.7092 206.106 97.4901 206.106 97.2396C206.106 97.0116 206.04 96.825 205.91 96.6798C205.782 96.5345 205.608 96.4143 205.388 96.3191C205.17 96.2239 204.923 96.14 204.648 96.0673L203.739 95.8194C203.122 95.6515 202.634 95.4048 202.273 95.0792C201.915 94.7536 201.736 94.3227 201.736 93.7867C201.736 93.3434 201.856 92.9564 202.097 92.6257C202.337 92.2951 202.663 92.0384 203.074 91.8555C203.484 91.6701 203.948 91.5775 204.464 91.5775C204.985 91.5775 205.444 91.6689 205.843 91.8517C206.243 92.0346 206.559 92.2863 206.789 92.6069C207.02 92.9251 207.14 93.2908 207.15 93.704H206.03ZM208.537 99.3774V98.5358L211.141 95.8381C211.419 95.5451 211.648 95.2883 211.829 95.0679C212.012 94.845 212.148 94.6333 212.238 94.4329C212.328 94.2326 212.374 94.0197 212.374 93.7942C212.374 93.5387 212.313 93.3183 212.193 93.133C212.073 92.9451 211.909 92.8011 211.701 92.7009C211.493 92.5982 211.259 92.5468 210.998 92.5468C210.723 92.5468 210.482 92.6032 210.277 92.7159C210.072 92.8286 209.914 92.9877 209.804 93.1931C209.693 93.3985 209.638 93.6389 209.638 93.9145H208.53C208.53 93.4461 208.638 93.0365 208.853 92.6858C209.068 92.3352 209.364 92.0634 209.74 91.8705C210.115 91.6752 210.543 91.5775 211.021 91.5775C211.504 91.5775 211.93 91.6739 212.298 91.8668C212.669 92.0571 212.958 92.3176 213.166 92.6483C213.374 92.9764 213.478 93.3471 213.478 93.7604C213.478 94.046 213.424 94.3252 213.317 94.5983C213.211 94.8713 213.027 95.1756 212.764 95.5113C212.501 95.8444 212.136 96.2489 211.667 96.7248L210.138 98.3254V98.3818H213.602V99.3774H208.537ZM215.026 99.3774V98.5358L217.63 95.8381C217.908 95.5451 218.137 95.2883 218.317 95.0679C218.5 94.845 218.637 94.6333 218.727 94.4329C218.817 94.2326 218.862 94.0197 218.862 93.7942C218.862 93.5387 218.802 93.3183 218.682 93.133C218.562 92.9451 218.398 92.8011 218.19 92.7009C217.982 92.5982 217.748 92.5468 217.487 92.5468C217.212 92.5468 216.971 92.6032 216.766 92.7159C216.56 92.8286 216.403 92.9877 216.292 93.1931C216.182 93.3985 216.127 93.6389 216.127 93.9145H215.019C215.019 93.4461 215.126 93.0365 215.342 92.6858C215.557 92.3352 215.853 92.0634 216.228 91.8705C216.604 91.6752 217.031 91.5775 217.51 91.5775C217.993 91.5775 218.419 91.6739 218.787 91.8668C219.158 92.0571 219.447 92.3176 219.655 92.6483C219.863 92.9764 219.967 93.3471 219.967 93.7604C219.967 94.046 219.913 94.3252 219.805 94.5983C219.7 94.8713 219.516 95.1756 219.253 95.5113C218.99 95.8444 218.624 96.2489 218.156 96.7248L216.627 98.3254V98.3818H220.091V99.3774H215.026ZM224.194 99.5052C223.6 99.5027 223.093 99.3461 222.672 99.0355C222.251 98.7249 221.929 98.2728 221.706 97.6792C221.484 97.0855 221.372 96.3704 221.372 95.5338C221.372 94.6997 221.484 93.9871 221.706 93.396C221.932 92.8048 222.255 92.354 222.676 92.0434C223.099 91.7328 223.605 91.5775 224.194 91.5775C224.782 91.5775 225.287 91.734 225.708 92.0471C226.129 92.3577 226.451 92.8086 226.674 93.3997C226.899 93.9883 227.012 94.6997 227.012 95.5338C227.012 96.3729 226.9 97.0893 226.677 97.6829C226.454 98.2741 226.132 98.7262 225.712 99.0393C225.291 99.3499 224.785 99.5052 224.194 99.5052ZM224.194 98.502C224.715 98.502 225.122 98.2478 225.415 97.7393C225.71 97.2308 225.858 96.4957 225.858 95.5338C225.858 94.8951 225.791 94.3553 225.655 93.9145C225.523 93.4711 225.331 93.1355 225.08 92.9075C224.832 92.6771 224.537 92.5619 224.194 92.5619C223.675 92.5619 223.268 92.8173 222.973 93.3283C222.677 93.8393 222.528 94.5745 222.526 95.5338C222.526 96.175 222.592 96.7173 222.725 97.1607C222.86 97.6015 223.052 97.9359 223.3 98.1639C223.548 98.3893 223.846 98.502 224.194 98.502ZM229.542 98.3254L229.486 98.735C229.448 99.0355 229.384 99.3486 229.294 99.6743C229.207 100.002 229.115 100.307 229.02 100.587C228.927 100.868 228.851 101.091 228.791 101.256H227.994C228.027 101.101 228.072 100.89 228.129 100.625C228.187 100.362 228.243 100.068 228.299 99.7419C228.354 99.4163 228.395 99.0844 228.423 98.7462L228.46 98.3254H229.542ZM233.514 99.4826C232.998 99.4826 232.537 99.3937 232.131 99.2159C231.728 99.038 231.408 98.7913 231.173 98.4757C230.94 98.1576 230.815 97.7894 230.797 97.3711H231.977C231.992 97.599 232.068 97.7969 232.206 97.9647C232.346 98.13 232.529 98.2578 232.755 98.348C232.98 98.4381 233.23 98.4832 233.506 98.4832C233.809 98.4832 234.077 98.4306 234.31 98.3254C234.546 98.2202 234.73 98.0737 234.862 97.8858C234.995 97.6955 235.062 97.4763 235.062 97.2283C235.062 96.9703 234.995 96.7436 234.862 96.5483C234.732 96.3504 234.541 96.1951 234.288 96.0824C234.037 95.9696 233.734 95.9133 233.378 95.9133H232.728V94.9665H233.378C233.664 94.9665 233.914 94.9151 234.13 94.8124C234.348 94.7097 234.518 94.567 234.641 94.3841C234.763 94.1987 234.825 93.9821 234.825 93.7341C234.825 93.4961 234.771 93.2895 234.663 93.1142C234.558 92.9363 234.408 92.7973 234.212 92.6971C234.02 92.5969 233.792 92.5468 233.529 92.5468C233.278 92.5468 233.044 92.5932 232.826 92.6858C232.611 92.776 232.435 92.9063 232.3 93.0766C232.165 93.2444 232.092 93.4461 232.082 93.6815H230.959C230.971 93.2657 231.094 92.9 231.327 92.5844C231.562 92.2688 231.873 92.0221 232.259 91.8442C232.644 91.6664 233.073 91.5775 233.544 91.5775C234.037 91.5775 234.463 91.6739 234.821 91.8668C235.182 92.0571 235.46 92.3114 235.655 92.6295C235.853 92.9476 235.951 93.2958 235.948 93.674C235.951 94.1048 235.83 94.4705 235.588 94.7711C235.347 95.0717 235.026 95.2733 234.626 95.376V95.4361C235.137 95.5138 235.532 95.7167 235.813 96.0448C236.096 96.3729 236.236 96.78 236.234 97.2659C236.236 97.6892 236.119 98.0687 235.881 98.4043C235.645 98.74 235.323 99.0042 234.915 99.1971C234.507 99.3875 234.04 99.4826 233.514 99.4826ZM237.492 97.8746V96.9353L240.818 91.6827H241.558V93.0653H241.088L238.71 96.8301V96.8902H243.267V97.8746H237.492ZM241.141 99.3774V97.589L241.148 97.1607V91.6827H242.249V99.3774H241.141ZM244.577 99.3774V98.5358L247.18 95.8381C247.458 95.5451 247.688 95.2883 247.868 95.0679C248.051 94.845 248.187 94.6333 248.278 94.4329C248.368 94.2326 248.413 94.0197 248.413 93.7942C248.413 93.5387 248.353 93.3183 248.232 93.133C248.112 92.9451 247.948 92.8011 247.74 92.7009C247.532 92.5982 247.298 92.5468 247.038 92.5468C246.762 92.5468 246.522 92.6032 246.316 92.7159C246.111 92.8286 245.953 92.9877 245.843 93.1931C245.733 93.3985 245.678 93.6389 245.678 93.9145H244.569C244.569 93.4461 244.677 93.0365 244.892 92.6858C245.108 92.3352 245.403 92.0634 245.779 91.8705C246.155 91.6752 246.582 91.5775 247.06 91.5775C247.544 91.5775 247.969 91.6739 248.338 91.8668C248.708 92.0571 248.998 92.3176 249.206 92.6483C249.413 92.9764 249.517 93.3471 249.517 93.7604C249.517 94.046 249.464 94.3252 249.356 94.5983C249.251 94.8713 249.067 95.1756 248.804 95.5113C248.541 95.8444 248.175 96.2489 247.706 96.7248L246.177 98.3254V98.3818H249.641V99.3774H244.577ZM251.821 99.4488C251.615 99.4488 251.439 99.3762 251.291 99.2309C251.143 99.0831 251.069 98.9053 251.069 98.6974C251.069 98.492 251.143 98.3167 251.291 98.1714C251.439 98.0236 251.615 97.9497 251.821 97.9497C252.026 97.9497 252.203 98.0236 252.35 98.1714C252.498 98.3167 252.572 98.492 252.572 98.6974C252.572 98.8352 252.537 98.9616 252.467 99.0769C252.399 99.1896 252.309 99.2798 252.196 99.3474C252.084 99.415 251.958 99.4488 251.821 99.4488ZM254.125 99.3774L257.484 92.7347V92.6783H253.599V91.6827H258.686V92.7121L255.338 99.3774H254.125ZM262.514 99.4826C262.17 99.4776 261.832 99.415 261.499 99.2948C261.169 99.1746 260.868 98.9742 260.597 98.6936C260.327 98.4131 260.11 98.0361 259.947 97.5627C259.787 97.0893 259.707 96.4982 259.707 95.7893C259.707 95.118 259.773 94.5219 259.906 94.0009C260.041 93.4799 260.235 93.0403 260.488 92.6821C260.741 92.3214 261.047 92.0471 261.405 91.8593C261.763 91.6714 262.165 91.5775 262.611 91.5775C263.07 91.5775 263.477 91.6676 263.832 91.848C264.188 92.0283 264.476 92.2776 264.697 92.5957C264.919 92.9138 265.061 93.2757 265.121 93.6815H263.975C263.897 93.3609 263.743 93.0991 263.513 92.8962C263.283 92.6934 262.982 92.5919 262.611 92.5919C262.048 92.5919 261.608 92.8374 261.292 93.3283C260.979 93.8193 260.822 94.5018 260.819 95.376H260.875C261.008 95.1581 261.171 94.9727 261.364 94.8199C261.559 94.6646 261.777 94.5457 262.018 94.463C262.261 94.3778 262.516 94.3353 262.784 94.3353C263.23 94.3353 263.633 94.4442 263.994 94.6621C264.357 94.8776 264.646 95.1756 264.862 95.5564C265.077 95.9371 265.185 96.3729 265.185 96.8639C265.185 97.3548 265.074 97.7994 264.851 98.1977C264.63 98.5959 264.32 98.9115 263.919 99.1445C263.518 99.3749 263.05 99.4877 262.514 99.4826ZM262.51 98.5058C262.805 98.5058 263.07 98.4331 263.303 98.2878C263.536 98.1426 263.72 97.9472 263.855 97.7017C263.99 97.4563 264.058 97.182 264.058 96.8789C264.058 96.5833 263.991 96.3141 263.859 96.0711C263.728 95.8281 263.548 95.6353 263.318 95.4925C263.09 95.3497 262.829 95.2783 262.536 95.2783C262.313 95.2783 262.107 95.3209 261.916 95.4061C261.728 95.4912 261.563 95.609 261.42 95.7592C261.277 95.9095 261.165 96.0824 261.082 96.2777C261.002 96.4706 260.962 96.6748 260.962 96.8902C260.962 97.1782 261.028 97.445 261.161 97.6905C261.296 97.9359 261.48 98.1338 261.713 98.2841C261.949 98.4319 262.214 98.5058 262.51 98.5058Z" fill="#242424"/>
<rect x="270.387" y="88.3774" width="32.8652" height="14.9326" rx="2.9326" fill="#E0F0E4"/>
<path d="M275.934 97.769V93.5451H276.775V97.769H275.934ZM274.244 96.0757V95.2384H278.468V96.0757H274.244ZM282.042 98.9312C281.613 98.9312 281.23 98.8573 280.892 98.7094C280.557 98.5615 280.292 98.3564 280.096 98.0939C279.902 97.8294 279.798 97.5232 279.783 97.1754H280.764C280.777 97.365 280.84 97.5295 280.955 97.669C281.072 97.8065 281.224 97.9127 281.411 97.9877C281.598 98.0627 281.807 98.1002 282.036 98.1002C282.288 98.1002 282.511 98.0564 282.704 97.969C282.9 97.8815 283.053 97.7596 283.164 97.6034C283.274 97.4451 283.329 97.2629 283.329 97.0567C283.329 96.8422 283.274 96.6537 283.164 96.4912C283.055 96.3267 282.896 96.1975 282.686 96.1038C282.477 96.0101 282.225 95.9632 281.93 95.9632H281.389V95.1759H281.93C282.167 95.1759 282.375 95.1332 282.554 95.0478C282.736 94.9624 282.877 94.8437 282.979 94.6917C283.081 94.5375 283.132 94.3574 283.132 94.1512C283.132 93.9533 283.088 93.7815 282.998 93.6357C282.911 93.4878 282.786 93.3722 282.623 93.2889C282.463 93.2056 282.273 93.1639 282.055 93.1639C281.846 93.1639 281.652 93.2025 281.47 93.2795C281.291 93.3545 281.145 93.4628 281.033 93.6044C280.921 93.744 280.86 93.9116 280.852 94.1074H279.918C279.928 93.7617 280.03 93.4576 280.224 93.1952C280.42 92.9327 280.678 92.7276 280.999 92.5797C281.319 92.4318 281.676 92.3579 282.067 92.3579C282.477 92.3579 282.831 92.4381 283.129 92.5984C283.429 92.7567 283.66 92.9681 283.823 93.2327C283.987 93.4972 284.069 93.7867 284.067 94.1012C284.069 94.4594 283.969 94.7635 283.767 95.0135C283.567 95.2634 283.3 95.4311 282.967 95.5165V95.5664C283.392 95.631 283.721 95.7997 283.954 96.0726C284.189 96.3454 284.306 96.6839 284.304 97.0879C284.306 97.4399 284.208 97.7555 284.01 98.0346C283.815 98.3137 283.547 98.5334 283.207 98.6938C282.868 98.8521 282.48 98.9312 282.042 98.9312ZM285.924 98.9031C285.753 98.9031 285.606 98.8427 285.483 98.7219C285.361 98.599 285.299 98.4511 285.299 98.2783C285.299 98.1075 285.361 97.9617 285.483 97.8409C285.606 97.718 285.753 97.6565 285.924 97.6565C286.095 97.6565 286.242 97.718 286.364 97.8409C286.487 97.9617 286.549 98.1075 286.549 98.2783C286.549 98.3928 286.52 98.498 286.461 98.5938C286.405 98.6875 286.33 98.7625 286.236 98.8188C286.143 98.875 286.039 98.9031 285.924 98.9031ZM287.653 97.5941V96.813L290.418 92.4453H291.034V93.5951H290.643L288.665 96.7255V96.7755H292.455V97.5941H287.653ZM290.687 98.8438V97.3566L290.693 97.0005V92.4453H291.608V98.8438H290.687ZM296.884 97.644V97.3066C296.884 97.065 296.934 96.8442 297.034 96.6443C297.136 96.4423 297.284 96.2808 297.477 96.16C297.673 96.0372 297.91 95.9757 298.187 95.9757C298.47 95.9757 298.707 96.0361 298.899 96.1569C299.09 96.2777 299.235 96.4391 299.333 96.6412C299.433 96.8432 299.483 97.065 299.483 97.3066V97.644C299.483 97.8857 299.433 98.1075 299.333 98.3095C299.233 98.5095 299.086 98.6709 298.893 98.7938C298.701 98.9146 298.466 98.975 298.187 98.975C297.905 98.975 297.668 98.9146 297.474 98.7938C297.28 98.6709 297.134 98.5095 297.034 98.3095C296.934 98.1075 296.884 97.8857 296.884 97.644ZM297.612 97.3066V97.644C297.612 97.8232 297.654 97.9856 297.74 98.1314C297.825 98.2772 297.974 98.3501 298.187 98.3501C298.397 98.3501 298.544 98.2772 298.627 98.1314C298.71 97.9856 298.752 97.8232 298.752 97.644V97.3066C298.752 97.1275 298.711 96.9651 298.63 96.8193C298.551 96.6735 298.403 96.6006 298.187 96.6006C297.978 96.6006 297.83 96.6735 297.743 96.8193C297.655 96.9651 297.612 97.1275 297.612 97.3066ZM293.666 93.9825V93.645C293.666 93.4034 293.716 93.1816 293.816 92.9796C293.918 92.7776 294.066 92.6161 294.259 92.4953C294.455 92.3745 294.692 92.3141 294.969 92.3141C295.252 92.3141 295.489 92.3745 295.681 92.4953C295.873 92.6161 296.017 92.7776 296.115 92.9796C296.213 93.1816 296.262 93.4034 296.262 93.645V93.9825C296.262 94.2241 296.212 94.4459 296.112 94.6479C296.014 94.8479 295.868 95.0093 295.675 95.1322C295.483 95.253 295.248 95.3134 294.969 95.3134C294.685 95.3134 294.447 95.253 294.253 95.1322C294.062 95.0093 293.916 94.8479 293.816 94.6479C293.716 94.4459 293.666 94.2241 293.666 93.9825ZM294.397 93.645V93.9825C294.397 94.1616 294.438 94.324 294.522 94.4698C294.607 94.6156 294.756 94.6885 294.969 94.6885C295.177 94.6885 295.323 94.6156 295.406 94.4698C295.491 94.324 295.534 94.1616 295.534 93.9825V93.645C295.534 93.4659 295.493 93.3035 295.412 93.1577C295.331 93.0119 295.183 92.939 294.969 92.939C294.76 92.939 294.612 93.0119 294.525 93.1577C294.44 93.3035 294.397 93.4659 294.397 93.645ZM293.963 98.8438L298.361 92.4453H299.108L294.709 98.8438H293.963Z" fill="#377E36"/>
</g>
<defs>
<filter id="filter0_d_1177_8861" x="183.935" y="60.8661" width="135.637" height="64.0442" filterUnits="userSpaceOnUse" color-interpolation-filters="sRGB">
<feFlood flood-opacity="0" result="BackgroundImageFix"/>
<feColorMatrix in="SourceAlpha" type="matrix" values="0 0 0 0 0 0 0 0 0 0 0 0 0 0 0 0 0 0 127 0" result="hardAlpha"/>
<feOffset dy="1.4663"/>
<feGaussianBlur stdDeviation="3.76106"/>
<feComposite in2="hardAlpha" operator="out"/>
<feColorMatrix type="matrix" values="0 0 0 0 0 0 0 0 0 0 0 0 0 0 0 0 0 0 0.05 0"/>
<feBlend mode="normal" in2="BackgroundImageFix" result="effect1_dropShadow_1177_8861"/>
<feBlend mode="normal" in="SourceGraphic" in2="effect1_dropShadow_1177_8861" result="shape"/>
</filter>
<linearGradient id="paint0_linear_1177_8861" x1="212.5" y1="40.9219" x2="212.5" y2="190.079" gradientUnits="userSpaceOnUse">
<stop stop-color="#EEF3FD"/>
<stop offset="1" stop-color="white"/>
</linearGradient>
</defs>
</svg>
