<svg width="782" height="545" viewBox="0 0 782 545" fill="none" xmlns="http://www.w3.org/2000/svg">
<g filter="url(#filter0_d_1177_8715)">
<rect x="250.18" y="245.274" width="372.64" height="194.452" rx="20" fill="url(#paint0_linear_1177_8715)" shape-rendering="crispEdges"/>
<circle cx="282.816" cy="270.189" r="17.1947" fill="#E1EFFE"/>
<path fill-rule="evenodd" clip-rule="evenodd" d="M279.97 264.912H286.851C287.062 264.912 287.233 265.083 287.233 265.294V267.588C287.233 267.591 287.233 267.595 287.233 267.598C287.219 267.598 287.205 267.598 287.191 267.598H279.588C279.588 267.595 279.588 267.591 279.588 267.588V265.294C279.588 265.083 279.759 264.912 279.97 264.912ZM278.451 267.763C278.444 267.706 278.441 267.647 278.441 267.588V265.294C278.441 264.449 279.125 263.765 279.97 263.765H286.851C287.696 263.765 288.38 264.449 288.38 265.294V267.588C288.38 267.652 288.376 267.716 288.368 267.778C289.89 268.278 291 269.71 291 271.407V272.929C291 273.085 290.992 273.241 290.984 273.389C290.836 276.121 289.314 277.495 286.426 277.495H280.338C280.143 277.495 279.964 277.479 279.784 277.456C277.302 277.292 275.975 275.965 275.804 273.483C275.78 273.296 275.765 273.116 275.765 272.929V271.407C275.765 269.838 276.717 268.488 278.075 267.902C278.198 267.849 278.323 267.803 278.451 267.763Z" fill="#3E7AFD"/>
<path fill-rule="evenodd" clip-rule="evenodd" d="M278.822 264.912H285.704C285.915 264.912 286.086 265.083 286.086 265.294V267.588C286.086 267.591 286.086 267.595 286.086 267.598C286.072 267.598 286.058 267.598 286.044 267.598H278.44C278.44 267.595 278.44 267.591 278.44 267.588V265.294C278.44 265.083 278.611 264.912 278.822 264.912ZM277.303 267.763C277.297 267.706 277.293 267.647 277.293 267.588V265.294C277.293 264.449 277.978 263.765 278.822 263.765H285.704C286.548 263.765 287.233 264.449 287.233 265.294V267.588C287.233 267.652 287.229 267.716 287.221 267.778C288.743 268.278 289.853 269.71 289.853 271.407V272.929C289.853 273.085 289.845 273.241 289.837 273.389C289.689 276.121 288.167 277.495 285.279 277.495H279.191C278.996 277.495 278.816 277.479 278.637 277.456C276.155 277.292 274.828 275.965 274.656 273.483C274.633 273.296 274.617 273.116 274.617 272.929V271.407C274.617 269.838 275.569 268.488 276.927 267.902C277.051 267.849 277.176 267.803 277.303 267.763ZM284.077 273.639C284.077 272.812 283.593 272.546 283.234 272.421L282.641 272.211V270.892H282.711C283.015 270.892 283.265 271.165 283.265 271.493C283.265 271.719 283.445 271.899 283.671 271.899C283.897 271.899 284.077 271.719 284.077 271.493C284.077 270.712 283.46 270.08 282.711 270.08H282.641V269.908C282.641 269.682 282.461 269.502 282.235 269.502C282.009 269.502 281.829 269.682 281.829 269.908V270.08H281.634C280.947 270.08 280.393 270.65 280.393 271.36C280.393 272.187 280.877 272.453 281.236 272.578L281.829 272.788V274.107H281.759C281.454 274.107 281.205 273.834 281.205 273.506C281.205 273.28 281.025 273.101 280.799 273.101C280.572 273.101 280.393 273.28 280.393 273.506C280.393 274.287 281.01 274.919 281.759 274.919H281.829V275.091C281.829 275.317 282.009 275.497 282.235 275.497C282.461 275.497 282.641 275.317 282.641 275.091V274.919H282.836C283.523 274.919 284.077 274.349 284.077 273.639ZM281.041 271.36C281.041 271.687 281.135 271.734 281.338 271.812L281.666 271.929V270.891H281.471C281.229 270.891 281.041 271.102 281.041 271.36ZM282.48 274.106H282.675C282.91 274.106 283.105 273.896 283.105 273.638C283.105 273.31 283.011 273.263 282.808 273.185L282.48 273.068V274.106Z" fill="#EBF5FF"/>
<path d="M316.262 274.081H314.78V265.322H320.228V266.718H316.262V269.177H319.82V270.548H316.262V274.081ZM324.93 273.414C324.79 273.677 324.559 273.883 324.238 274.031C323.925 274.179 323.587 274.254 323.225 274.254C322.525 274.254 321.969 274.027 321.557 273.574C321.154 273.121 320.952 272.549 320.952 271.857V268.065H322.385V271.598C322.385 272.001 322.484 272.331 322.681 272.586C322.879 272.841 323.184 272.969 323.595 272.969C323.999 272.969 324.308 272.845 324.522 272.598C324.744 272.351 324.855 272.026 324.855 271.622V268.065H326.288V272.981C326.288 273.344 326.309 273.71 326.35 274.081H324.979C324.946 273.899 324.93 273.677 324.93 273.414ZM329.576 270.609V274.081H328.143V268.065H329.539V268.868C329.728 268.538 329.98 268.295 330.293 268.139C330.614 267.974 330.955 267.892 331.318 267.892C332.026 267.892 332.565 268.114 332.936 268.559C333.307 269.004 333.492 269.576 333.492 270.276V274.081H332.059V270.523C332.059 270.119 331.96 269.798 331.762 269.559C331.565 269.312 331.252 269.189 330.824 269.189C330.428 269.189 330.12 269.325 329.897 269.597C329.683 269.86 329.576 270.198 329.576 270.609ZM336.2 271.054C336.2 271.631 336.348 272.096 336.645 272.45C336.941 272.796 337.332 272.969 337.818 272.969C338.287 272.969 338.67 272.792 338.967 272.438C339.263 272.084 339.412 271.618 339.412 271.042C339.412 270.474 339.267 270.021 338.979 269.683C338.691 269.345 338.308 269.177 337.83 269.177C337.353 269.177 336.962 269.349 336.657 269.695C336.352 270.033 336.2 270.486 336.2 271.054ZM340.795 265.137V272.981C340.795 273.385 340.816 273.751 340.857 274.081H339.486C339.445 273.85 339.424 273.591 339.424 273.302C339.276 273.574 339.045 273.796 338.732 273.969C338.419 274.142 338.061 274.229 337.657 274.229C336.801 274.229 336.105 273.928 335.57 273.327C335.035 272.726 334.767 271.968 334.767 271.054C334.767 270.173 335.035 269.428 335.57 268.818C336.113 268.209 336.801 267.904 337.633 267.904C338.11 267.904 338.493 267.991 338.782 268.164C339.078 268.337 339.284 268.538 339.399 268.769V265.137H340.795ZM351.846 274.081L351.018 271.882H347.313L346.497 274.081H344.928L348.338 265.322H350.055L353.464 274.081H351.846ZM349.165 266.928L347.831 270.511H350.5L349.165 266.928ZM356.144 274.081H354.637V265.322H356.144V274.081Z" fill="black"/>
<rect x="403.462" y="260.581" width="33.9335" height="18" rx="2.96191" fill="#F5F6F7"/>
<rect x="403.462" y="260.581" width="33.9335" height="18" rx="2.96191" stroke="#BDBDBD"/>
<path d="M410.285 271.581H409.616V266.736H412.561V267.358H410.285V268.916H412.349V269.544H410.285V271.581ZM413.913 271.581H413.278V268.294H413.913V271.581ZM413.264 267.378C413.178 267.287 413.134 267.178 413.134 267.05C413.134 266.922 413.178 266.813 413.264 266.722C413.355 266.631 413.465 266.585 413.592 266.585C413.72 266.585 413.829 266.631 413.92 266.722C414.011 266.809 414.057 266.918 414.057 267.05C414.057 267.178 414.011 267.287 413.92 267.378C413.829 267.465 413.72 267.508 413.592 267.508C413.465 267.508 413.355 267.465 413.264 267.378ZM415.649 269.681V271.581H415.006V268.294H415.635V268.765C415.854 268.387 416.191 268.198 416.646 268.198C417.024 268.198 417.314 268.319 417.514 268.56C417.719 268.802 417.822 269.114 417.822 269.496V271.581H417.179V269.606C417.179 269.054 416.924 268.779 416.414 268.779C416.172 268.779 415.983 268.865 415.847 269.039C415.715 269.207 415.649 269.421 415.649 269.681ZM419.704 267.255V268.294H420.415V268.875H419.704V270.583C419.704 270.738 419.738 270.852 419.807 270.925C419.88 270.997 419.998 271.034 420.162 271.034C420.258 271.034 420.342 271.025 420.415 271.007V271.553C420.306 271.594 420.16 271.615 419.978 271.615C419.695 271.615 419.472 271.533 419.308 271.369C419.144 271.205 419.062 270.975 419.062 270.679V268.875H418.433V268.294H418.611C418.78 268.294 418.905 268.248 418.987 268.157C419.073 268.061 419.117 267.938 419.117 267.788V267.255H419.704ZM421.656 269.599H423.453C423.444 269.353 423.362 269.152 423.207 268.998C423.052 268.838 422.833 268.758 422.551 268.758C422.296 268.758 422.086 268.843 421.922 269.011C421.758 269.175 421.669 269.371 421.656 269.599ZM423.549 270.453L424.102 270.644C424.007 270.95 423.829 271.2 423.569 271.396C423.309 271.587 422.995 271.683 422.626 271.683C422.166 271.683 421.774 271.526 421.451 271.212C421.132 270.893 420.972 270.464 420.972 269.927C420.972 269.426 421.127 269.011 421.437 268.683C421.747 268.355 422.116 268.191 422.544 268.191C423.041 268.191 423.428 268.348 423.706 268.663C423.984 268.972 424.123 269.389 424.123 269.913C424.123 269.995 424.118 270.064 424.109 270.118H421.635C421.64 270.41 421.736 270.649 421.922 270.836C422.114 271.023 422.348 271.116 422.626 271.116C423.095 271.116 423.403 270.895 423.549 270.453ZM426.323 268.786C426.045 268.786 425.808 268.886 425.612 269.086C425.421 269.287 425.325 269.569 425.325 269.934C425.325 270.294 425.421 270.576 425.612 270.781C425.808 270.986 426.047 271.089 426.33 271.089C426.603 271.089 426.81 271.02 426.952 270.884C427.097 270.747 427.195 270.59 427.245 270.412L427.813 270.658C427.722 270.931 427.548 271.171 427.293 271.376C427.043 271.581 426.722 271.683 426.33 271.683C425.851 271.683 425.455 271.517 425.141 271.184C424.826 270.852 424.669 270.435 424.669 269.934C424.669 269.423 424.826 269.007 425.141 268.683C425.455 268.355 425.849 268.191 426.323 268.191C426.724 268.191 427.047 268.294 427.293 268.499C427.544 268.704 427.708 268.95 427.785 269.237L427.204 269.483C427.154 269.291 427.059 269.127 426.917 268.991C426.776 268.854 426.578 268.786 426.323 268.786ZM429.209 269.647V271.581H428.566V266.633H429.209V268.676C429.427 268.357 429.76 268.198 430.206 268.198C430.584 268.198 430.874 268.319 431.074 268.56C431.279 268.802 431.382 269.114 431.382 269.496V271.581H430.739V269.606C430.739 269.054 430.484 268.779 429.974 268.779C429.737 268.779 429.552 268.861 429.42 269.025C429.288 269.184 429.218 269.392 429.209 269.647Z" fill="black"/>
<rect x="443.319" y="260.581" width="32.9335" height="18" rx="2.96191" fill="#CDEEFC"/>
<rect x="443.319" y="260.581" width="32.9335" height="18" rx="2.96191" stroke="#2F80ED"/>
<path d="M452.639 271.581H449.694V266.736H452.639V267.358H450.364V268.847H452.427V269.476H450.364V270.959H452.639V271.581ZM453.845 269.927C453.845 270.273 453.93 270.556 454.098 270.774C454.271 270.993 454.508 271.102 454.809 271.102C455.096 271.102 455.326 270.991 455.499 270.767C455.672 270.544 455.759 270.259 455.759 269.913C455.759 269.572 455.674 269.296 455.506 269.086C455.337 268.877 455.107 268.772 454.816 268.772C454.524 268.772 454.29 268.879 454.112 269.093C453.934 269.307 453.845 269.585 453.845 269.927ZM455.766 271.136V271.082C455.679 271.25 455.547 271.392 455.369 271.505C455.196 271.615 454.989 271.669 454.747 271.669C454.278 271.669 453.9 271.505 453.613 271.177C453.331 270.845 453.189 270.428 453.189 269.927C453.189 269.449 453.335 269.043 453.627 268.711C453.918 268.373 454.292 268.205 454.747 268.205C455.016 268.205 455.235 268.26 455.403 268.369C455.572 268.474 455.688 268.603 455.752 268.758V266.633H456.387V270.972C456.387 271.196 456.399 271.398 456.422 271.581H455.8C455.777 271.453 455.766 271.305 455.766 271.136ZM458.341 267.255V268.294H459.052V268.875H458.341V270.583C458.341 270.738 458.375 270.852 458.444 270.925C458.516 270.997 458.635 271.034 458.799 271.034C458.895 271.034 458.979 271.025 459.052 271.007V271.553C458.942 271.594 458.797 271.615 458.614 271.615C458.332 271.615 458.109 271.533 457.945 271.369C457.781 271.205 457.699 270.975 457.699 270.679V268.875H457.07V268.294H457.248C457.416 268.294 457.541 268.248 457.623 268.157C457.71 268.061 457.753 267.938 457.753 267.788V267.255H458.341ZM460.293 269.599H462.09C462.081 269.353 461.999 269.152 461.844 268.998C461.689 268.838 461.47 268.758 461.188 268.758C460.933 268.758 460.723 268.843 460.559 269.011C460.395 269.175 460.306 269.371 460.293 269.599ZM462.185 270.453L462.739 270.644C462.643 270.95 462.466 271.2 462.206 271.396C461.946 271.587 461.632 271.683 461.263 271.683C460.803 271.683 460.411 271.526 460.088 271.212C459.769 270.893 459.609 270.464 459.609 269.927C459.609 269.426 459.764 269.011 460.074 268.683C460.384 268.355 460.753 268.191 461.181 268.191C461.677 268.191 462.065 268.348 462.343 268.663C462.62 268.972 462.759 269.389 462.759 269.913C462.759 269.995 462.755 270.064 462.746 270.118H460.272C460.277 270.41 460.372 270.649 460.559 270.836C460.75 271.023 460.985 271.116 461.263 271.116C461.732 271.116 462.04 270.895 462.185 270.453ZM464.96 268.786C464.682 268.786 464.445 268.886 464.249 269.086C464.058 269.287 463.962 269.569 463.962 269.934C463.962 270.294 464.058 270.576 464.249 270.781C464.445 270.986 464.684 271.089 464.967 271.089C465.24 271.089 465.447 271.02 465.588 270.884C465.734 270.747 465.832 270.59 465.882 270.412L466.449 270.658C466.358 270.931 466.185 271.171 465.93 271.376C465.679 271.581 465.358 271.683 464.967 271.683C464.488 271.683 464.092 271.517 463.778 271.184C463.463 270.852 463.306 270.435 463.306 269.934C463.306 269.423 463.463 269.007 463.778 268.683C464.092 268.355 464.486 268.191 464.96 268.191C465.361 268.191 465.684 268.294 465.93 268.499C466.181 268.704 466.345 268.95 466.422 269.237L465.841 269.483C465.791 269.291 465.695 269.127 465.554 268.991C465.413 268.854 465.215 268.786 464.96 268.786ZM467.845 269.647V271.581H467.203V266.633H467.845V268.676C468.064 268.357 468.396 268.198 468.843 268.198C469.221 268.198 469.51 268.319 469.711 268.56C469.916 268.802 470.018 269.114 470.018 269.496V271.581H469.376V269.606C469.376 269.054 469.121 268.779 468.611 268.779C468.374 268.779 468.189 268.861 468.057 269.025C467.925 269.184 467.854 269.392 467.845 269.647Z" fill="#058FC6"/>
<rect x="482.177" y="260.581" width="39.9335" height="18" rx="2.96191" fill="#E6F6DA"/>
<rect x="482.177" y="260.581" width="39.9335" height="18" rx="2.96191" stroke="#27AE60"/>
<path d="M491.833 271.581L491.307 270.228H489.161L488.649 271.581H487.931L489.858 266.736H490.63L492.557 271.581H491.833ZM490.227 267.433L489.4 269.606H491.068L490.227 267.433ZM492.868 271.758L493.49 271.615C493.513 271.847 493.606 272.038 493.77 272.189C493.934 272.344 494.139 272.421 494.385 272.421C495.055 272.421 495.39 272.066 495.39 271.355V270.884C495.308 271.043 495.178 271.173 495 271.273C494.827 271.373 494.622 271.423 494.385 271.423C493.948 271.423 493.586 271.275 493.299 270.979C493.016 270.679 492.875 270.296 492.875 269.831C492.875 269.38 493.016 269.002 493.299 268.697C493.581 268.387 493.943 268.232 494.385 268.232C494.886 268.232 495.224 268.405 495.397 268.752V268.294H496.032V271.335C496.032 271.553 496.003 271.756 495.943 271.943C495.889 272.134 495.8 272.309 495.677 272.469C495.554 272.628 495.381 272.754 495.157 272.845C494.939 272.936 494.681 272.981 494.385 272.981C493.98 272.981 493.636 272.865 493.353 272.633C493.071 272.405 492.909 272.114 492.868 271.758ZM494.481 270.884C494.759 270.884 494.984 270.788 495.157 270.597C495.331 270.401 495.417 270.146 495.417 269.831C495.417 269.517 495.331 269.264 495.157 269.073C494.984 268.877 494.759 268.779 494.481 268.779C494.199 268.779 493.968 268.875 493.791 269.066C493.618 269.257 493.531 269.512 493.531 269.831C493.531 270.155 493.615 270.412 493.784 270.603C493.957 270.79 494.189 270.884 494.481 270.884ZM498.883 268.26V268.943C498.787 268.929 498.693 268.922 498.602 268.922C498.001 268.922 497.7 269.259 497.7 269.934V271.581H497.058V268.294H497.687V268.868C497.887 268.449 498.215 268.239 498.671 268.239C498.744 268.239 498.814 268.246 498.883 268.26ZM500.21 270.802C500.411 271.007 500.654 271.109 500.941 271.109C501.228 271.109 501.47 271.007 501.666 270.802C501.866 270.592 501.966 270.303 501.966 269.934C501.966 269.569 501.866 269.285 501.666 269.08C501.47 268.87 501.228 268.765 500.941 268.765C500.654 268.765 500.411 268.87 500.21 269.08C500.014 269.285 499.916 269.569 499.916 269.934C499.916 270.303 500.014 270.592 500.21 270.802ZM499.732 268.69C500.051 268.357 500.454 268.191 500.941 268.191C501.429 268.191 501.83 268.357 502.144 268.69C502.463 269.018 502.622 269.433 502.622 269.934C502.622 270.439 502.465 270.859 502.151 271.191C501.837 271.519 501.433 271.683 500.941 271.683C500.449 271.683 500.046 271.519 499.732 271.191C499.418 270.859 499.26 270.439 499.26 269.934C499.26 269.433 499.418 269.018 499.732 268.69ZM504.272 267.255V268.294H504.983V268.875H504.272V270.583C504.272 270.738 504.306 270.852 504.374 270.925C504.447 270.997 504.566 271.034 504.73 271.034C504.825 271.034 504.91 271.025 504.983 271.007V271.553C504.873 271.594 504.728 271.615 504.545 271.615C504.263 271.615 504.04 271.533 503.876 271.369C503.712 271.205 503.63 270.975 503.63 270.679V268.875H503.001V268.294H503.179C503.347 268.294 503.472 268.248 503.554 268.157C503.641 268.061 503.684 267.938 503.684 267.788V267.255H504.272ZM506.223 269.599H508.021C508.012 269.353 507.93 269.152 507.775 268.998C507.62 268.838 507.401 268.758 507.119 268.758C506.864 268.758 506.654 268.843 506.49 269.011C506.326 269.175 506.237 269.371 506.223 269.599ZM508.116 270.453L508.67 270.644C508.574 270.95 508.396 271.2 508.137 271.396C507.877 271.587 507.563 271.683 507.194 271.683C506.734 271.683 506.342 271.526 506.018 271.212C505.7 270.893 505.54 270.464 505.54 269.927C505.54 269.426 505.695 269.011 506.005 268.683C506.315 268.355 506.684 268.191 507.112 268.191C507.608 268.191 507.996 268.348 508.273 268.663C508.551 268.972 508.69 269.389 508.69 269.913C508.69 269.995 508.686 270.064 508.677 270.118H506.203C506.208 270.41 506.303 270.649 506.49 270.836C506.681 271.023 506.916 271.116 507.194 271.116C507.663 271.116 507.971 270.895 508.116 270.453ZM510.891 268.786C510.613 268.786 510.376 268.886 510.18 269.086C509.989 269.287 509.893 269.569 509.893 269.934C509.893 270.294 509.989 270.576 510.18 270.781C510.376 270.986 510.615 271.089 510.897 271.089C511.171 271.089 511.378 271.02 511.519 270.884C511.665 270.747 511.763 270.59 511.813 270.412L512.38 270.658C512.289 270.931 512.116 271.171 511.861 271.376C511.61 271.581 511.289 271.683 510.897 271.683C510.419 271.683 510.023 271.517 509.708 271.184C509.394 270.852 509.237 270.435 509.237 269.934C509.237 269.423 509.394 269.007 509.708 268.683C510.023 268.355 510.417 268.191 510.891 268.191C511.292 268.191 511.615 268.294 511.861 268.499C512.112 268.704 512.276 268.95 512.353 269.237L511.772 269.483C511.722 269.291 511.626 269.127 511.485 268.991C511.344 268.854 511.146 268.786 510.891 268.786ZM513.776 269.647V271.581H513.134V266.633H513.776V268.676C513.995 268.357 514.327 268.198 514.774 268.198C515.152 268.198 515.441 268.319 515.642 268.56C515.847 268.802 515.949 269.114 515.949 269.496V271.581H515.307V269.606C515.307 269.054 515.052 268.779 514.542 268.779C514.305 268.779 514.12 268.861 513.988 269.025C513.856 269.184 513.785 269.392 513.776 269.647Z" fill="#27AE60"/>
<rect x="568.275" y="261.419" width="37.9371" height="16.3221" rx="0.829304" fill="#EEF3FD"/>
<rect x="568.275" y="261.419" width="37.9371" height="16.3221" rx="0.829304" stroke="#9CA3AF" stroke-width="0.331721"/>
<path d="M576.569 272.58H575.64V265.995H576.569V272.58ZM579.023 269.998V272.58H578.15V268.112H579.005V268.753C579.302 268.239 579.76 267.982 580.379 267.982C580.893 267.982 581.287 268.147 581.559 268.475C581.838 268.803 581.977 269.227 581.977 269.747V272.58H581.104V269.896C581.104 269.147 580.757 268.772 580.064 268.772C579.735 268.772 579.478 268.89 579.293 269.125C579.113 269.354 579.023 269.645 579.023 269.998ZM587.193 268.112L585.409 272.58H584.527L582.716 268.112H583.7L584.973 271.558L586.254 268.112H587.193ZM588.459 269.886H590.901C590.889 269.552 590.777 269.28 590.567 269.069C590.356 268.852 590.059 268.744 589.675 268.744C589.329 268.744 589.044 268.859 588.821 269.088C588.598 269.311 588.477 269.577 588.459 269.886ZM591.031 271.048L591.784 271.308C591.654 271.722 591.412 272.063 591.059 272.329C590.706 272.589 590.279 272.719 589.777 272.719C589.152 272.719 588.62 272.506 588.18 272.079C587.746 271.645 587.53 271.063 587.53 270.332C587.53 269.651 587.74 269.088 588.161 268.642C588.582 268.196 589.084 267.973 589.666 267.973C590.341 267.973 590.867 268.187 591.245 268.614C591.623 269.035 591.812 269.602 591.812 270.314C591.812 270.425 591.805 270.518 591.793 270.592H588.431C588.437 270.989 588.567 271.314 588.821 271.568C589.081 271.822 589.4 271.948 589.777 271.948C590.415 271.948 590.833 271.648 591.031 271.048ZM592.508 271.419L593.298 271.14C593.329 271.382 593.434 271.583 593.613 271.744C593.793 271.899 594.034 271.976 594.338 271.976C594.573 271.976 594.759 271.921 594.895 271.809C595.031 271.692 595.1 271.549 595.1 271.382C595.1 271.085 594.908 270.893 594.524 270.806L593.762 270.639C593.415 270.565 593.143 270.416 592.945 270.193C592.747 269.97 592.647 269.701 592.647 269.385C592.647 269.001 592.802 268.67 593.112 268.391C593.428 268.112 593.802 267.973 594.236 267.973C594.521 267.973 594.774 268.016 594.997 268.103C595.22 268.184 595.394 268.292 595.517 268.428C595.641 268.564 595.734 268.691 595.796 268.809C595.858 268.927 595.905 269.047 595.935 269.171L595.165 269.459C595.152 269.385 595.13 269.314 595.1 269.246C595.069 269.171 595.019 269.091 594.951 269.004C594.889 268.917 594.796 268.849 594.672 268.8C594.548 268.744 594.403 268.716 594.236 268.716C594.019 268.716 593.839 268.775 593.697 268.893C593.561 269.01 593.493 269.15 593.493 269.311C593.493 269.595 593.663 269.775 594.004 269.849L594.728 270.007C595.124 270.094 595.428 270.255 595.638 270.49C595.855 270.719 595.963 271.001 595.963 271.335C595.963 271.688 595.818 272.007 595.527 272.292C595.242 272.577 594.843 272.719 594.329 272.719C593.778 272.719 593.347 272.583 593.038 272.311C592.728 272.032 592.551 271.735 592.508 271.419ZM598.296 266.701V268.112H599.262V268.902H598.296V271.224C598.296 271.435 598.342 271.589 598.435 271.688C598.534 271.787 598.695 271.837 598.918 271.837C599.048 271.837 599.163 271.825 599.262 271.8V272.543C599.113 272.599 598.915 272.627 598.668 272.627C598.284 272.627 597.98 272.515 597.757 272.292C597.534 272.069 597.423 271.757 597.423 271.354V268.902H596.568V268.112H596.81C597.039 268.112 597.209 268.051 597.321 267.927C597.438 267.797 597.497 267.629 597.497 267.425V266.701H598.296Z" fill="#6B7280"/>
<circle cx="282.816" cy="318.803" r="17.1947" fill="#E1EFFE"/>
<path fill-rule="evenodd" clip-rule="evenodd" d="M279.97 313.525H286.851C287.062 313.525 287.233 313.696 287.233 313.907V316.201C287.233 316.204 287.233 316.208 287.233 316.211C287.219 316.211 287.205 316.211 287.191 316.211H279.588C279.588 316.208 279.588 316.204 279.588 316.201V313.907C279.588 313.696 279.759 313.525 279.97 313.525ZM278.451 316.377C278.444 316.319 278.441 316.26 278.441 316.201V313.907C278.441 313.063 279.125 312.378 279.97 312.378H286.851C287.696 312.378 288.38 313.063 288.38 313.907V316.201C288.38 316.265 288.376 316.329 288.368 316.392C289.89 316.891 291 318.324 291 320.02V321.542C291 321.698 290.992 321.854 290.984 322.003C290.836 324.734 289.314 326.108 286.426 326.108H280.338C280.143 326.108 279.964 326.092 279.784 326.069C277.302 325.905 275.975 324.578 275.804 322.096C275.78 321.909 275.765 321.729 275.765 321.542V320.02C275.765 318.451 276.717 317.101 278.075 316.516C278.198 316.462 278.323 316.416 278.451 316.377Z" fill="#3E7AFD"/>
<path fill-rule="evenodd" clip-rule="evenodd" d="M278.822 313.525H285.704C285.915 313.525 286.086 313.696 286.086 313.907V316.201C286.086 316.204 286.086 316.208 286.086 316.211C286.072 316.211 286.058 316.211 286.044 316.211H278.44C278.44 316.208 278.44 316.204 278.44 316.201V313.907C278.44 313.696 278.611 313.525 278.822 313.525ZM277.303 316.377C277.297 316.319 277.293 316.26 277.293 316.201V313.907C277.293 313.063 277.978 312.378 278.822 312.378H285.704C286.548 312.378 287.233 313.063 287.233 313.907V316.201C287.233 316.265 287.229 316.329 287.221 316.392C288.743 316.891 289.853 318.324 289.853 320.02V321.542C289.853 321.698 289.845 321.854 289.837 322.003C289.689 324.734 288.167 326.108 285.279 326.108H279.191C278.996 326.108 278.816 326.092 278.637 326.069C276.155 325.905 274.828 324.578 274.656 322.096C274.633 321.909 274.617 321.729 274.617 321.542V320.02C274.617 318.451 275.569 317.101 276.927 316.516C277.051 316.462 277.176 316.416 277.303 316.377ZM284.077 322.252C284.077 321.425 283.593 321.16 283.234 321.035L282.641 320.824V319.505H282.711C283.015 319.505 283.265 319.778 283.265 320.106C283.265 320.332 283.445 320.512 283.671 320.512C283.897 320.512 284.077 320.332 284.077 320.106C284.077 319.325 283.46 318.693 282.711 318.693H282.641V318.522C282.641 318.295 282.461 318.116 282.235 318.116C282.009 318.116 281.829 318.295 281.829 318.522V318.693H281.634C280.947 318.693 280.393 319.263 280.393 319.973C280.393 320.801 280.877 321.066 281.236 321.191L281.829 321.402V322.721H281.759C281.454 322.721 281.205 322.447 281.205 322.12C281.205 321.893 281.025 321.714 280.799 321.714C280.572 321.714 280.393 321.893 280.393 322.12C280.393 322.9 281.01 323.532 281.759 323.532H281.829V323.704C281.829 323.93 282.009 324.11 282.235 324.11C282.461 324.11 282.641 323.93 282.641 323.704V323.532H282.836C283.523 323.532 284.077 322.963 284.077 322.252ZM281.041 319.973C281.041 320.301 281.135 320.348 281.338 320.426L281.666 320.543V319.505H281.471C281.229 319.505 281.041 319.715 281.041 319.973ZM282.48 322.72H282.675C282.91 322.72 283.105 322.509 283.105 322.251C283.105 321.923 283.011 321.877 282.808 321.799L282.48 321.682V322.72Z" fill="#EBF5FF"/>
<path d="M320.155 322.694H314.745V313.936H320.155V315.319H316.227V317.642H319.785V318.988H316.227V321.31H320.155V322.694ZM322.594 319.667C322.594 320.244 322.742 320.709 323.038 321.063C323.335 321.409 323.726 321.582 324.212 321.582C324.681 321.582 325.064 321.405 325.361 321.051C325.657 320.697 325.805 320.232 325.805 319.655C325.805 319.087 325.661 318.634 325.373 318.296C325.085 317.959 324.702 317.79 324.224 317.79C323.747 317.79 323.355 317.963 323.051 318.309C322.746 318.646 322.594 319.099 322.594 319.667ZM327.189 313.75V321.594C327.189 321.998 327.21 322.364 327.251 322.694H325.88C325.838 322.463 325.818 322.204 325.818 321.916C325.67 322.187 325.439 322.41 325.126 322.583C324.813 322.756 324.455 322.842 324.051 322.842C323.195 322.842 322.499 322.541 321.964 321.94C321.428 321.339 321.161 320.582 321.161 319.667C321.161 318.786 321.428 318.041 321.964 317.432C322.507 316.822 323.195 316.517 324.027 316.517C324.504 316.517 324.887 316.604 325.175 316.777C325.472 316.95 325.678 317.152 325.793 317.382V313.75H327.189ZM330.877 314.837V316.678H332.125V317.95H330.877V320.742C330.877 321.006 330.939 321.199 331.062 321.323C331.186 321.438 331.379 321.496 331.643 321.496C331.808 321.496 331.972 321.479 332.137 321.446V322.632C331.923 322.723 331.631 322.768 331.26 322.768C330.7 322.768 330.259 322.611 329.938 322.299C329.617 321.977 329.456 321.537 329.456 320.977V317.95H328.345V316.678H328.654C328.958 316.678 329.189 316.592 329.345 316.419C329.502 316.246 329.58 316.019 329.58 315.739V314.837H330.877ZM334.537 319.025H337.49C337.473 318.646 337.337 318.329 337.082 318.074C336.835 317.819 336.477 317.691 336.007 317.691C335.579 317.691 335.233 317.827 334.97 318.099C334.706 318.362 334.562 318.671 334.537 319.025ZM337.65 320.594L338.861 320.977C338.688 321.529 338.362 321.986 337.885 322.348C337.415 322.702 336.835 322.879 336.143 322.879C335.287 322.879 334.558 322.587 333.957 322.002C333.364 321.417 333.067 320.635 333.067 319.655C333.067 318.733 333.355 317.975 333.932 317.382C334.517 316.789 335.204 316.493 335.995 316.493C336.917 316.493 337.638 316.777 338.157 317.345C338.675 317.905 338.935 318.663 338.935 319.618C338.935 319.873 338.922 320.026 338.898 320.075H334.5C334.517 320.528 334.681 320.903 334.994 321.199C335.315 321.496 335.698 321.644 336.143 321.644C336.917 321.644 337.42 321.294 337.65 320.594ZM342.923 317.814C342.462 317.814 342.071 317.983 341.749 318.321C341.428 318.65 341.268 319.103 341.268 319.68C341.268 320.264 341.428 320.726 341.749 321.063C342.079 321.401 342.478 321.57 342.948 321.57C343.368 321.57 343.701 321.459 343.948 321.236C344.203 321.006 344.372 320.746 344.455 320.458L345.715 320.915C345.55 321.45 345.229 321.912 344.751 322.299C344.282 322.686 343.681 322.879 342.948 322.879C342.066 322.879 341.325 322.574 340.724 321.965C340.131 321.356 339.835 320.594 339.835 319.68C339.835 318.757 340.127 317.996 340.712 317.395C341.305 316.793 342.038 316.493 342.911 316.493C343.66 316.493 344.269 316.686 344.739 317.073C345.216 317.46 345.525 317.926 345.665 318.469L344.381 318.939C344.298 318.626 344.138 318.362 343.899 318.148C343.668 317.926 343.343 317.814 342.923 317.814ZM348.42 319.161V322.694H346.987V313.75H348.42V317.259C348.807 316.756 349.379 316.505 350.137 316.505C350.845 316.505 351.389 316.727 351.768 317.172C352.147 317.617 352.336 318.189 352.336 318.889V322.694H350.903V319.136C350.903 318.733 350.804 318.412 350.607 318.173C350.409 317.926 350.096 317.802 349.668 317.802C349.289 317.802 348.988 317.93 348.766 318.185C348.552 318.44 348.437 318.766 348.42 319.161ZM358.75 322.694H357.268V313.936H362.716V315.332H358.75V317.79H362.308V319.161H358.75V322.694ZM367.418 322.027C367.278 322.29 367.047 322.496 366.726 322.644C366.413 322.793 366.075 322.867 365.713 322.867C365.013 322.867 364.457 322.64 364.045 322.187C363.642 321.734 363.44 321.162 363.44 320.47V316.678H364.873V320.211C364.873 320.614 364.972 320.944 365.169 321.199C365.367 321.454 365.672 321.582 366.083 321.582C366.487 321.582 366.796 321.459 367.01 321.212C367.232 320.964 367.343 320.639 367.343 320.236V316.678H368.776V321.594C368.776 321.957 368.797 322.323 368.838 322.694H367.467C367.434 322.513 367.418 322.29 367.418 322.027ZM372.064 319.223V322.694H370.631V316.678H372.027V317.481C372.216 317.152 372.468 316.909 372.781 316.752C373.102 316.587 373.443 316.505 373.806 316.505C374.514 316.505 375.053 316.727 375.424 317.172C375.795 317.617 375.98 318.189 375.98 318.889V322.694H374.547V319.136C374.547 318.733 374.448 318.412 374.251 318.173C374.053 317.926 373.74 317.802 373.312 317.802C372.916 317.802 372.608 317.938 372.385 318.21C372.171 318.473 372.064 318.811 372.064 319.223ZM378.688 319.667C378.688 320.244 378.836 320.709 379.133 321.063C379.429 321.409 379.82 321.582 380.306 321.582C380.775 321.582 381.158 321.405 381.455 321.051C381.751 320.697 381.9 320.232 381.9 319.655C381.9 319.087 381.755 318.634 381.467 318.296C381.179 317.959 380.796 317.79 380.318 317.79C379.841 317.79 379.45 317.963 379.145 318.309C378.84 318.646 378.688 319.099 378.688 319.667ZM383.283 313.75V321.594C383.283 321.998 383.304 322.364 383.345 322.694H381.974C381.933 322.463 381.912 322.204 381.912 321.916C381.764 322.187 381.533 322.41 381.22 322.583C380.907 322.756 380.549 322.842 380.145 322.842C379.289 322.842 378.593 322.541 378.058 321.94C377.523 321.339 377.255 320.582 377.255 319.667C377.255 318.786 377.523 318.041 378.058 317.432C378.601 316.822 379.289 316.517 380.121 316.517C380.598 316.517 380.981 316.604 381.27 316.777C381.566 316.95 381.772 317.152 381.887 317.382V313.75H383.283Z" fill="black"/>
<rect x="403.462" y="309.194" width="33.9335" height="18" rx="2.96191" fill="#F5F6F7"/>
<rect x="403.462" y="309.194" width="33.9335" height="18" rx="2.96191" stroke="#BDBDBD"/>
<path d="M410.285 320.194H409.616V315.349H412.561V315.971H410.285V317.529H412.349V318.157H410.285V320.194ZM413.913 320.194H413.278V316.907H413.913V320.194ZM413.264 315.991C413.178 315.9 413.134 315.791 413.134 315.663C413.134 315.536 413.178 315.426 413.264 315.335C413.355 315.244 413.465 315.199 413.592 315.199C413.72 315.199 413.829 315.244 413.92 315.335C414.011 315.422 414.057 315.531 414.057 315.663C414.057 315.791 414.011 315.9 413.92 315.991C413.829 316.078 413.72 316.121 413.592 316.121C413.465 316.121 413.355 316.078 413.264 315.991ZM415.649 318.294V320.194H415.006V316.907H415.635V317.378C415.854 317 416.191 316.811 416.646 316.811C417.024 316.811 417.314 316.932 417.514 317.173C417.719 317.415 417.822 317.727 417.822 318.11V320.194H417.179V318.219C417.179 317.668 416.924 317.392 416.414 317.392C416.172 317.392 415.983 317.479 415.847 317.652C415.715 317.82 415.649 318.034 415.649 318.294ZM419.704 315.868V316.907H420.415V317.488H419.704V319.196C419.704 319.351 419.738 319.465 419.807 319.538C419.88 319.611 419.998 319.647 420.162 319.647C420.258 319.647 420.342 319.638 420.415 319.62V320.167C420.306 320.208 420.16 320.228 419.978 320.228C419.695 320.228 419.472 320.146 419.308 319.982C419.144 319.818 419.062 319.588 419.062 319.292V317.488H418.433V316.907H418.611C418.78 316.907 418.905 316.861 418.987 316.77C419.073 316.675 419.117 316.552 419.117 316.401V315.868H419.704ZM421.656 318.212H423.453C423.444 317.966 423.362 317.766 423.207 317.611C423.052 317.451 422.833 317.372 422.551 317.372C422.296 317.372 422.086 317.456 421.922 317.624C421.758 317.788 421.669 317.984 421.656 318.212ZM423.549 319.066L424.102 319.258C424.007 319.563 423.829 319.813 423.569 320.009C423.309 320.201 422.995 320.296 422.626 320.296C422.166 320.296 421.774 320.139 421.451 319.825C421.132 319.506 420.972 319.078 420.972 318.54C420.972 318.039 421.127 317.624 421.437 317.296C421.747 316.968 422.116 316.804 422.544 316.804C423.041 316.804 423.428 316.962 423.706 317.276C423.984 317.586 424.123 318.003 424.123 318.526C424.123 318.608 424.118 318.677 424.109 318.731H421.635C421.64 319.023 421.736 319.262 421.922 319.449C422.114 319.636 422.348 319.729 422.626 319.729C423.095 319.729 423.403 319.508 423.549 319.066ZM426.323 317.399C426.045 317.399 425.808 317.499 425.612 317.7C425.421 317.9 425.325 318.183 425.325 318.547C425.325 318.907 425.421 319.189 425.612 319.394C425.808 319.599 426.047 319.702 426.33 319.702C426.603 319.702 426.81 319.634 426.952 319.497C427.097 319.36 427.195 319.203 427.245 319.025L427.813 319.271C427.722 319.545 427.548 319.784 427.293 319.989C427.043 320.194 426.722 320.296 426.33 320.296C425.851 320.296 425.455 320.13 425.141 319.798C424.826 319.465 424.669 319.048 424.669 318.547C424.669 318.037 424.826 317.62 425.141 317.296C425.455 316.968 425.849 316.804 426.323 316.804C426.724 316.804 427.047 316.907 427.293 317.112C427.544 317.317 427.708 317.563 427.785 317.85L427.204 318.096C427.154 317.905 427.059 317.741 426.917 317.604C426.776 317.467 426.578 317.399 426.323 317.399ZM429.209 318.26V320.194H428.566V315.246H429.209V317.29C429.427 316.971 429.76 316.811 430.206 316.811C430.584 316.811 430.874 316.932 431.074 317.173C431.279 317.415 431.382 317.727 431.382 318.11V320.194H430.739V318.219C430.739 317.668 430.484 317.392 429.974 317.392C429.737 317.392 429.552 317.474 429.42 317.638C429.288 317.798 429.218 318.005 429.209 318.26Z" fill="black"/>
<rect x="443.319" y="309.194" width="32.9335" height="18" rx="2.96191" fill="#CDEEFC"/>
<rect x="443.319" y="309.194" width="32.9335" height="18" rx="2.96191" stroke="#2F80ED"/>
<path d="M452.639 320.194H449.694V315.349H452.639V315.971H450.364V317.46H452.427V318.089H450.364V319.572H452.639V320.194ZM453.845 318.54C453.845 318.886 453.93 319.169 454.098 319.388C454.271 319.606 454.508 319.716 454.809 319.716C455.096 319.716 455.326 319.604 455.499 319.381C455.672 319.157 455.759 318.873 455.759 318.526C455.759 318.185 455.674 317.909 455.506 317.7C455.337 317.49 455.107 317.385 454.816 317.385C454.524 317.385 454.29 317.492 454.112 317.706C453.934 317.921 453.845 318.198 453.845 318.54ZM455.766 319.75V319.695C455.679 319.864 455.547 320.005 455.369 320.119C455.196 320.228 454.989 320.283 454.747 320.283C454.278 320.283 453.9 320.119 453.613 319.791C453.331 319.458 453.189 319.041 453.189 318.54C453.189 318.062 453.335 317.656 453.627 317.324C453.918 316.987 454.292 316.818 454.747 316.818C455.016 316.818 455.235 316.873 455.403 316.982C455.572 317.087 455.688 317.217 455.752 317.372V315.246H456.387V319.586C456.387 319.809 456.399 320.012 456.422 320.194H455.8C455.777 320.066 455.766 319.918 455.766 319.75ZM458.341 315.868V316.907H459.052V317.488H458.341V319.196C458.341 319.351 458.375 319.465 458.444 319.538C458.516 319.611 458.635 319.647 458.799 319.647C458.895 319.647 458.979 319.638 459.052 319.62V320.167C458.942 320.208 458.797 320.228 458.614 320.228C458.332 320.228 458.109 320.146 457.945 319.982C457.781 319.818 457.699 319.588 457.699 319.292V317.488H457.07V316.907H457.248C457.416 316.907 457.541 316.861 457.623 316.77C457.71 316.675 457.753 316.552 457.753 316.401V315.868H458.341ZM460.293 318.212H462.09C462.081 317.966 461.999 317.766 461.844 317.611C461.689 317.451 461.47 317.372 461.188 317.372C460.933 317.372 460.723 317.456 460.559 317.624C460.395 317.788 460.306 317.984 460.293 318.212ZM462.185 319.066L462.739 319.258C462.643 319.563 462.466 319.813 462.206 320.009C461.946 320.201 461.632 320.296 461.263 320.296C460.803 320.296 460.411 320.139 460.088 319.825C459.769 319.506 459.609 319.078 459.609 318.54C459.609 318.039 459.764 317.624 460.074 317.296C460.384 316.968 460.753 316.804 461.181 316.804C461.677 316.804 462.065 316.962 462.343 317.276C462.62 317.586 462.759 318.003 462.759 318.526C462.759 318.608 462.755 318.677 462.746 318.731H460.272C460.277 319.023 460.372 319.262 460.559 319.449C460.75 319.636 460.985 319.729 461.263 319.729C461.732 319.729 462.04 319.508 462.185 319.066ZM464.96 317.399C464.682 317.399 464.445 317.499 464.249 317.7C464.058 317.9 463.962 318.183 463.962 318.547C463.962 318.907 464.058 319.189 464.249 319.394C464.445 319.599 464.684 319.702 464.967 319.702C465.24 319.702 465.447 319.634 465.588 319.497C465.734 319.36 465.832 319.203 465.882 319.025L466.449 319.271C466.358 319.545 466.185 319.784 465.93 319.989C465.679 320.194 465.358 320.296 464.967 320.296C464.488 320.296 464.092 320.13 463.778 319.798C463.463 319.465 463.306 319.048 463.306 318.547C463.306 318.037 463.463 317.62 463.778 317.296C464.092 316.968 464.486 316.804 464.96 316.804C465.361 316.804 465.684 316.907 465.93 317.112C466.181 317.317 466.345 317.563 466.422 317.85L465.841 318.096C465.791 317.905 465.695 317.741 465.554 317.604C465.413 317.467 465.215 317.399 464.96 317.399ZM467.845 318.26V320.194H467.203V315.246H467.845V317.29C468.064 316.971 468.396 316.811 468.843 316.811C469.221 316.811 469.51 316.932 469.711 317.173C469.916 317.415 470.018 317.727 470.018 318.11V320.194H469.376V318.219C469.376 317.668 469.121 317.392 468.611 317.392C468.374 317.392 468.189 317.474 468.057 317.638C467.925 317.798 467.854 318.005 467.845 318.26Z" fill="#058FC6"/>
<rect x="482.177" y="309.194" width="39.9335" height="18" rx="2.96191" fill="#E6F6DA"/>
<rect x="482.177" y="309.194" width="39.9335" height="18" rx="2.96191" stroke="#27AE60"/>
<path d="M491.833 320.194L491.307 318.841H489.161L488.649 320.194H487.931L489.858 315.349H490.63L492.557 320.194H491.833ZM490.227 316.046L489.4 318.219H491.068L490.227 316.046ZM492.868 320.372L493.49 320.228C493.513 320.46 493.606 320.652 493.77 320.802C493.934 320.957 494.139 321.034 494.385 321.034C495.055 321.034 495.39 320.679 495.39 319.968V319.497C495.308 319.656 495.178 319.786 495 319.886C494.827 319.987 494.622 320.037 494.385 320.037C493.948 320.037 493.586 319.889 493.299 319.593C493.016 319.292 492.875 318.909 492.875 318.444C492.875 317.993 493.016 317.615 493.299 317.31C493.581 317 493.943 316.845 494.385 316.845C494.886 316.845 495.224 317.019 495.397 317.365V316.907H496.032V319.948C496.032 320.167 496.003 320.369 495.943 320.556C495.889 320.747 495.8 320.923 495.677 321.082C495.554 321.242 495.381 321.367 495.157 321.458C494.939 321.549 494.681 321.595 494.385 321.595C493.98 321.595 493.636 321.479 493.353 321.246C493.071 321.018 492.909 320.727 492.868 320.372ZM494.481 319.497C494.759 319.497 494.984 319.401 495.157 319.21C495.331 319.014 495.417 318.759 495.417 318.444C495.417 318.13 495.331 317.877 495.157 317.686C494.984 317.49 494.759 317.392 494.481 317.392C494.199 317.392 493.968 317.488 493.791 317.679C493.618 317.87 493.531 318.126 493.531 318.444C493.531 318.768 493.615 319.025 493.784 319.217C493.957 319.403 494.189 319.497 494.481 319.497ZM498.883 316.873V317.556C498.787 317.542 498.693 317.536 498.602 317.536C498.001 317.536 497.7 317.873 497.7 318.547V320.194H497.058V316.907H497.687V317.481C497.887 317.062 498.215 316.852 498.671 316.852C498.744 316.852 498.814 316.859 498.883 316.873ZM500.21 319.415C500.411 319.62 500.654 319.722 500.941 319.722C501.228 319.722 501.47 319.62 501.666 319.415C501.866 319.205 501.966 318.916 501.966 318.547C501.966 318.183 501.866 317.898 501.666 317.693C501.47 317.483 501.228 317.378 500.941 317.378C500.654 317.378 500.411 317.483 500.21 317.693C500.014 317.898 499.916 318.183 499.916 318.547C499.916 318.916 500.014 319.205 500.21 319.415ZM499.732 317.303C500.051 316.971 500.454 316.804 500.941 316.804C501.429 316.804 501.83 316.971 502.144 317.303C502.463 317.631 502.622 318.046 502.622 318.547C502.622 319.053 502.465 319.472 502.151 319.804C501.837 320.132 501.433 320.296 500.941 320.296C500.449 320.296 500.046 320.132 499.732 319.804C499.418 319.472 499.26 319.053 499.26 318.547C499.26 318.046 499.418 317.631 499.732 317.303ZM504.272 315.868V316.907H504.983V317.488H504.272V319.196C504.272 319.351 504.306 319.465 504.374 319.538C504.447 319.611 504.566 319.647 504.73 319.647C504.825 319.647 504.91 319.638 504.983 319.62V320.167C504.873 320.208 504.728 320.228 504.545 320.228C504.263 320.228 504.04 320.146 503.876 319.982C503.712 319.818 503.63 319.588 503.63 319.292V317.488H503.001V316.907H503.179C503.347 316.907 503.472 316.861 503.554 316.77C503.641 316.675 503.684 316.552 503.684 316.401V315.868H504.272ZM506.223 318.212H508.021C508.012 317.966 507.93 317.766 507.775 317.611C507.62 317.451 507.401 317.372 507.119 317.372C506.864 317.372 506.654 317.456 506.49 317.624C506.326 317.788 506.237 317.984 506.223 318.212ZM508.116 319.066L508.67 319.258C508.574 319.563 508.396 319.813 508.137 320.009C507.877 320.201 507.563 320.296 507.194 320.296C506.734 320.296 506.342 320.139 506.018 319.825C505.7 319.506 505.54 319.078 505.54 318.54C505.54 318.039 505.695 317.624 506.005 317.296C506.315 316.968 506.684 316.804 507.112 316.804C507.608 316.804 507.996 316.962 508.273 317.276C508.551 317.586 508.69 318.003 508.69 318.526C508.69 318.608 508.686 318.677 508.677 318.731H506.203C506.208 319.023 506.303 319.262 506.49 319.449C506.681 319.636 506.916 319.729 507.194 319.729C507.663 319.729 507.971 319.508 508.116 319.066ZM510.891 317.399C510.613 317.399 510.376 317.499 510.18 317.7C509.989 317.9 509.893 318.183 509.893 318.547C509.893 318.907 509.989 319.189 510.18 319.394C510.376 319.599 510.615 319.702 510.897 319.702C511.171 319.702 511.378 319.634 511.519 319.497C511.665 319.36 511.763 319.203 511.813 319.025L512.38 319.271C512.289 319.545 512.116 319.784 511.861 319.989C511.61 320.194 511.289 320.296 510.897 320.296C510.419 320.296 510.023 320.13 509.708 319.798C509.394 319.465 509.237 319.048 509.237 318.547C509.237 318.037 509.394 317.62 509.708 317.296C510.023 316.968 510.417 316.804 510.891 316.804C511.292 316.804 511.615 316.907 511.861 317.112C512.112 317.317 512.276 317.563 512.353 317.85L511.772 318.096C511.722 317.905 511.626 317.741 511.485 317.604C511.344 317.467 511.146 317.399 510.891 317.399ZM513.776 318.26V320.194H513.134V315.246H513.776V317.29C513.995 316.971 514.327 316.811 514.774 316.811C515.152 316.811 515.441 316.932 515.642 317.173C515.847 317.415 515.949 317.727 515.949 318.11V320.194H515.307V318.219C515.307 317.668 515.052 317.392 514.542 317.392C514.305 317.392 514.12 317.474 513.988 317.638C513.856 317.798 513.785 318.005 513.776 318.26Z" fill="#27AE60"/>
<rect x="569.275" y="310.033" width="37.9371" height="16.3221" rx="0.829304" fill="#EEF3FD"/>
<rect x="569.275" y="310.033" width="37.9371" height="16.3221" rx="0.829304" stroke="#9CA3AF" stroke-width="0.331721"/>
<path d="M577.569 321.193H576.64V314.608H577.569V321.193ZM580.023 318.611V321.193H579.15V316.726H580.005V317.367C580.302 316.853 580.76 316.596 581.379 316.596C581.893 316.596 582.287 316.76 582.559 317.088C582.838 317.416 582.977 317.84 582.977 318.36V321.193H582.104V318.509C582.104 317.76 581.757 317.385 581.064 317.385C580.735 317.385 580.478 317.503 580.293 317.738C580.113 317.967 580.023 318.258 580.023 318.611ZM588.193 316.726L586.409 321.193H585.527L583.716 316.726H584.7L585.973 320.172L587.254 316.726H588.193ZM589.459 318.5H591.901C591.889 318.165 591.777 317.893 591.567 317.682C591.356 317.466 591.059 317.357 590.675 317.357C590.329 317.357 590.044 317.472 589.821 317.701C589.598 317.924 589.477 318.19 589.459 318.5ZM592.031 319.661L592.784 319.921C592.654 320.336 592.412 320.676 592.059 320.943C591.706 321.203 591.279 321.333 590.777 321.333C590.152 321.333 589.62 321.119 589.18 320.692C588.746 320.258 588.53 319.676 588.53 318.946C588.53 318.264 588.74 317.701 589.161 317.255C589.582 316.809 590.084 316.586 590.666 316.586C591.341 316.586 591.867 316.8 592.245 317.227C592.623 317.648 592.812 318.215 592.812 318.927C592.812 319.038 592.805 319.131 592.793 319.206H589.431C589.437 319.602 589.567 319.927 589.821 320.181C590.081 320.435 590.4 320.562 590.777 320.562C591.415 320.562 591.833 320.261 592.031 319.661ZM593.508 320.032L594.298 319.754C594.329 319.995 594.434 320.196 594.613 320.357C594.793 320.512 595.034 320.59 595.338 320.59C595.573 320.59 595.759 320.534 595.895 320.422C596.031 320.305 596.1 320.162 596.1 319.995C596.1 319.698 595.908 319.506 595.524 319.419L594.762 319.252C594.415 319.178 594.143 319.029 593.945 318.806C593.747 318.583 593.647 318.314 593.647 317.998C593.647 317.614 593.802 317.283 594.112 317.004C594.428 316.726 594.802 316.586 595.236 316.586C595.521 316.586 595.774 316.63 595.997 316.716C596.22 316.797 596.394 316.905 596.517 317.042C596.641 317.178 596.734 317.305 596.796 317.422C596.858 317.54 596.905 317.661 596.935 317.785L596.165 318.073C596.152 317.998 596.13 317.927 596.1 317.859C596.069 317.785 596.019 317.704 595.951 317.617C595.889 317.531 595.796 317.463 595.672 317.413C595.548 317.357 595.403 317.329 595.236 317.329C595.019 317.329 594.839 317.388 594.697 317.506C594.561 317.624 594.493 317.763 594.493 317.924C594.493 318.209 594.663 318.388 595.004 318.463L595.728 318.621C596.124 318.707 596.428 318.868 596.638 319.104C596.855 319.333 596.963 319.614 596.963 319.949C596.963 320.302 596.818 320.621 596.527 320.905C596.242 321.19 595.843 321.333 595.329 321.333C594.778 321.333 594.347 321.196 594.038 320.924C593.728 320.645 593.551 320.348 593.508 320.032ZM599.296 315.314V316.726H600.262V317.515H599.296V319.837C599.296 320.048 599.342 320.203 599.435 320.302C599.534 320.401 599.695 320.45 599.918 320.45C600.048 320.45 600.163 320.438 600.262 320.413V321.156C600.113 321.212 599.915 321.24 599.668 321.24C599.284 321.24 598.98 321.128 598.757 320.905C598.534 320.683 598.423 320.37 598.423 319.967V317.515H597.568V316.726H597.81C598.039 316.726 598.209 316.664 598.321 316.54C598.438 316.41 598.497 316.243 598.497 316.038V315.314H599.296Z" fill="#6B7280"/>
<circle cx="282.816" cy="367.415" r="17.1947" fill="#E1EFFE"/>
<path fill-rule="evenodd" clip-rule="evenodd" d="M279.97 362.138H286.851C287.062 362.138 287.233 362.309 287.233 362.52V364.814C287.233 364.817 287.233 364.821 287.233 364.824C287.219 364.824 287.205 364.824 287.191 364.824H279.588C279.588 364.821 279.588 364.817 279.588 364.814V362.52C279.588 362.309 279.759 362.138 279.97 362.138ZM278.451 364.989C278.444 364.932 278.441 364.873 278.441 364.814V362.52C278.441 361.675 279.125 360.991 279.97 360.991H286.851C287.696 360.991 288.38 361.675 288.38 362.52V364.814C288.38 364.878 288.376 364.942 288.368 365.004C289.89 365.504 291 366.936 291 368.633V370.155C291 370.311 290.992 370.467 290.984 370.615C290.836 373.347 289.314 374.721 286.426 374.721H280.338C280.143 374.721 279.964 374.705 279.784 374.682C277.302 374.518 275.975 373.191 275.804 370.709C275.78 370.522 275.765 370.342 275.765 370.155V368.633C275.765 367.064 276.717 365.714 278.075 365.128C278.198 365.075 278.323 365.029 278.451 364.989Z" fill="#3E7AFD"/>
<path fill-rule="evenodd" clip-rule="evenodd" d="M278.822 362.138H285.704C285.915 362.138 286.086 362.309 286.086 362.52V364.814C286.086 364.817 286.086 364.821 286.086 364.824C286.072 364.824 286.058 364.824 286.044 364.824H278.44C278.44 364.821 278.44 364.817 278.44 364.814V362.52C278.44 362.309 278.611 362.138 278.822 362.138ZM277.303 364.989C277.297 364.932 277.293 364.873 277.293 364.814V362.52C277.293 361.675 277.978 360.991 278.822 360.991H285.704C286.548 360.991 287.233 361.675 287.233 362.52V364.814C287.233 364.878 287.229 364.942 287.221 365.004C288.743 365.504 289.853 366.936 289.853 368.633V370.155C289.853 370.311 289.845 370.467 289.837 370.615C289.689 373.347 288.167 374.721 285.279 374.721H279.191C278.996 374.721 278.816 374.705 278.637 374.682C276.155 374.518 274.828 373.191 274.656 370.709C274.633 370.522 274.617 370.342 274.617 370.155V368.633C274.617 367.064 275.569 365.714 276.927 365.128C277.051 365.075 277.176 365.029 277.303 364.989ZM284.077 370.865C284.077 370.038 283.593 369.772 283.234 369.648L282.641 369.437V368.118H282.711C283.015 368.118 283.265 368.391 283.265 368.719C283.265 368.945 283.445 369.125 283.671 369.125C283.897 369.125 284.077 368.945 284.077 368.719C284.077 367.938 283.46 367.306 282.711 367.306H282.641V367.134C282.641 366.908 282.461 366.728 282.235 366.728C282.009 366.728 281.829 366.908 281.829 367.134V367.306H281.634C280.947 367.306 280.393 367.876 280.393 368.586C280.393 369.413 280.877 369.679 281.236 369.804L281.829 370.014V371.333H281.759C281.454 371.333 281.205 371.06 281.205 370.732C281.205 370.506 281.025 370.327 280.799 370.327C280.572 370.327 280.393 370.506 280.393 370.732C280.393 371.513 281.01 372.145 281.759 372.145H281.829V372.317C281.829 372.543 282.009 372.723 282.235 372.723C282.461 372.723 282.641 372.543 282.641 372.317V372.145H282.836C283.523 372.145 284.077 371.575 284.077 370.865ZM281.041 368.586C281.041 368.914 281.135 368.96 281.338 369.038L281.666 369.155V368.117H281.471C281.229 368.117 281.041 368.328 281.041 368.586ZM282.48 371.332H282.675C282.91 371.332 283.105 371.122 283.105 370.864C283.105 370.536 283.011 370.489 282.808 370.411L282.48 370.294V371.332Z" fill="#EBF5FF"/>
<path d="M324.41 371.307H322.94V364.858L320.21 371.307H318.925L316.22 364.883V371.307H314.774V362.549H316.751L319.592 369.231L322.396 362.549H324.41V371.307ZM330.304 370.64C330.164 370.903 329.934 371.109 329.613 371.257C329.3 371.405 328.962 371.48 328.6 371.48C327.9 371.48 327.344 371.253 326.932 370.8C326.529 370.347 326.327 369.775 326.327 369.083V365.291H327.76V368.824C327.76 369.227 327.858 369.557 328.056 369.812C328.254 370.067 328.558 370.195 328.97 370.195C329.374 370.195 329.683 370.071 329.897 369.824C330.119 369.577 330.23 369.252 330.23 368.848V365.291H331.663V370.207C331.663 370.57 331.684 370.936 331.725 371.307H330.354C330.321 371.125 330.304 370.903 330.304 370.64ZM335.334 363.45V365.291H336.581V366.563H335.334V369.355C335.334 369.618 335.396 369.812 335.519 369.935C335.643 370.051 335.836 370.108 336.1 370.108C336.264 370.108 336.429 370.092 336.594 370.059V371.245C336.38 371.335 336.087 371.381 335.717 371.381C335.157 371.381 334.716 371.224 334.395 370.911C334.074 370.59 333.913 370.15 333.913 369.59V366.563H332.801V365.291H333.11C333.415 365.291 333.646 365.204 333.802 365.031C333.958 364.858 334.037 364.632 334.037 364.352V363.45H335.334ZM341.982 370.64C341.842 370.903 341.611 371.109 341.29 371.257C340.977 371.405 340.639 371.48 340.277 371.48C339.577 371.48 339.021 371.253 338.609 370.8C338.206 370.347 338.004 369.775 338.004 369.083V365.291H339.437V368.824C339.437 369.227 339.536 369.557 339.733 369.812C339.931 370.067 340.236 370.195 340.647 370.195C341.051 370.195 341.36 370.071 341.574 369.824C341.796 369.577 341.907 369.252 341.907 368.848V365.291H343.34V370.207C343.34 370.57 343.361 370.936 343.402 371.307H342.031C341.998 371.125 341.982 370.903 341.982 370.64ZM344.825 369.676C344.825 369.165 344.989 368.758 345.319 368.453C345.656 368.14 346.097 367.943 346.64 367.86L348.185 367.626C348.481 367.584 348.629 367.44 348.629 367.193C348.629 366.921 348.535 366.703 348.345 366.538C348.156 366.366 347.872 366.279 347.493 366.279C347.13 366.279 346.842 366.382 346.628 366.588C346.414 366.786 346.29 367.045 346.257 367.366L344.948 367.07C345.006 366.526 345.265 366.065 345.726 365.686C346.187 365.299 346.772 365.106 347.48 365.106C348.353 365.106 348.996 365.316 349.407 365.736C349.827 366.156 350.037 366.695 350.037 367.354V370.343C350.037 370.738 350.062 371.06 350.112 371.307H348.777C348.736 371.183 348.716 370.928 348.716 370.541C348.32 371.175 347.703 371.492 346.863 371.492C346.253 371.492 345.759 371.315 345.38 370.961C345.01 370.598 344.825 370.17 344.825 369.676ZM347.135 370.368C347.579 370.368 347.937 370.248 348.209 370.01C348.489 369.763 348.629 369.363 348.629 368.811V368.54L347.06 368.774C346.525 368.865 346.257 369.137 346.257 369.59C346.257 369.804 346.336 369.989 346.492 370.145C346.649 370.294 346.863 370.368 347.135 370.368ZM353.203 371.307H351.77V362.363H353.203V371.307ZM359.721 371.307H358.238V362.549H363.686V363.944H359.721V366.403H363.278V367.774H359.721V371.307ZM368.388 370.64C368.248 370.903 368.017 371.109 367.696 371.257C367.383 371.405 367.046 371.48 366.683 371.48C365.983 371.48 365.428 371.253 365.016 370.8C364.612 370.347 364.41 369.775 364.41 369.083V365.291H365.843V368.824C365.843 369.227 365.942 369.557 366.14 369.812C366.338 370.067 366.642 370.195 367.054 370.195C367.457 370.195 367.766 370.071 367.98 369.824C368.203 369.577 368.314 369.252 368.314 368.848V365.291H369.747V370.207C369.747 370.57 369.767 370.936 369.809 371.307H368.437C368.405 371.125 368.388 370.903 368.388 370.64ZM373.035 367.836V371.307H371.602V365.291H372.997V366.094C373.187 365.764 373.438 365.521 373.751 365.365C374.072 365.2 374.414 365.118 374.776 365.118C375.485 365.118 376.024 365.34 376.395 365.785C376.765 366.23 376.95 366.802 376.95 367.502V371.307H375.517V367.749C375.517 367.346 375.419 367.024 375.221 366.786C375.023 366.538 374.71 366.415 374.282 366.415C373.887 366.415 373.578 366.551 373.356 366.823C373.142 367.086 373.035 367.424 373.035 367.836ZM379.658 368.28C379.658 368.857 379.807 369.322 380.103 369.676C380.399 370.022 380.791 370.195 381.277 370.195C381.746 370.195 382.129 370.018 382.425 369.664C382.722 369.31 382.87 368.844 382.87 368.268C382.87 367.7 382.726 367.247 382.438 366.909C382.149 366.571 381.767 366.403 381.289 366.403C380.811 366.403 380.42 366.576 380.115 366.921C379.811 367.259 379.658 367.712 379.658 368.28ZM384.254 362.363V370.207C384.254 370.611 384.274 370.977 384.315 371.307H382.944C382.903 371.076 382.882 370.817 382.882 370.528C382.734 370.8 382.504 371.023 382.191 371.195C381.878 371.368 381.519 371.455 381.116 371.455C380.26 371.455 379.564 371.154 379.028 370.553C378.493 369.952 378.225 369.194 378.225 368.28C378.225 367.399 378.493 366.654 379.028 366.044C379.572 365.435 380.26 365.13 381.091 365.13C381.569 365.13 381.952 365.217 382.24 365.39C382.537 365.563 382.742 365.764 382.858 365.995V362.363H384.254Z" fill="black"/>
<rect x="402.462" y="357.807" width="33.9335" height="18" rx="2.96191" fill="#F5F6F7"/>
<rect x="402.462" y="357.807" width="33.9335" height="18" rx="2.96191" stroke="#BDBDBD"/>
<path d="M409.285 368.807H408.616V363.962H411.561V364.584H409.285V366.142H411.349V366.77H409.285V368.807ZM412.913 368.807H412.278V365.52H412.913V368.807ZM412.264 364.604C412.178 364.513 412.134 364.404 412.134 364.276C412.134 364.149 412.178 364.039 412.264 363.948C412.355 363.857 412.465 363.811 412.592 363.811C412.72 363.811 412.829 363.857 412.92 363.948C413.011 364.035 413.057 364.144 413.057 364.276C413.057 364.404 413.011 364.513 412.92 364.604C412.829 364.691 412.72 364.734 412.592 364.734C412.465 364.734 412.355 364.691 412.264 364.604ZM414.649 366.907V368.807H414.006V365.52H414.635V365.991C414.854 365.613 415.191 365.424 415.646 365.424C416.024 365.424 416.314 365.545 416.514 365.786C416.719 366.028 416.822 366.34 416.822 366.722V368.807H416.179V366.832C416.179 366.281 415.924 366.005 415.414 366.005C415.172 366.005 414.983 366.091 414.847 366.265C414.715 366.433 414.649 366.647 414.649 366.907ZM418.704 364.481V365.52H419.415V366.101H418.704V367.809C418.704 367.964 418.738 368.078 418.807 368.151C418.88 368.224 418.998 368.26 419.162 368.26C419.258 368.26 419.342 368.251 419.415 368.233V368.779C419.306 368.82 419.16 368.841 418.978 368.841C418.695 368.841 418.472 368.759 418.308 368.595C418.144 368.431 418.062 368.201 418.062 367.905V366.101H417.433V365.52H417.611C417.78 365.52 417.905 365.474 417.987 365.383C418.073 365.287 418.117 365.164 418.117 365.014V364.481H418.704ZM420.656 366.825H422.453C422.444 366.579 422.362 366.379 422.207 366.224C422.052 366.064 421.833 365.984 421.551 365.984C421.296 365.984 421.086 366.069 420.922 366.237C420.758 366.401 420.669 366.597 420.656 366.825ZM422.549 367.679L423.102 367.87C423.007 368.176 422.829 368.426 422.569 368.622C422.309 368.813 421.995 368.909 421.626 368.909C421.166 368.909 420.774 368.752 420.451 368.438C420.132 368.119 419.972 367.691 419.972 367.153C419.972 366.652 420.127 366.237 420.437 365.909C420.747 365.581 421.116 365.417 421.544 365.417C422.041 365.417 422.428 365.574 422.706 365.889C422.984 366.199 423.123 366.615 423.123 367.139C423.123 367.221 423.118 367.29 423.109 367.344H420.635C420.64 367.636 420.736 367.875 420.922 368.062C421.114 368.249 421.348 368.342 421.626 368.342C422.095 368.342 422.403 368.121 422.549 367.679ZM425.323 366.012C425.045 366.012 424.808 366.112 424.612 366.312C424.421 366.513 424.325 366.795 424.325 367.16C424.325 367.52 424.421 367.802 424.612 368.007C424.808 368.212 425.047 368.315 425.33 368.315C425.603 368.315 425.81 368.246 425.952 368.11C426.097 367.973 426.195 367.816 426.245 367.638L426.813 367.884C426.722 368.157 426.548 368.397 426.293 368.602C426.043 368.807 425.722 368.909 425.33 368.909C424.851 368.909 424.455 368.743 424.141 368.41C423.826 368.078 423.669 367.661 423.669 367.16C423.669 366.65 423.826 366.233 424.141 365.909C424.455 365.581 424.849 365.417 425.323 365.417C425.724 365.417 426.047 365.52 426.293 365.725C426.544 365.93 426.708 366.176 426.785 366.463L426.204 366.709C426.154 366.517 426.059 366.353 425.917 366.217C425.776 366.08 425.578 366.012 425.323 366.012ZM428.209 366.873V368.807H427.566V363.859H428.209V365.902C428.427 365.584 428.76 365.424 429.206 365.424C429.584 365.424 429.874 365.545 430.074 365.786C430.279 366.028 430.382 366.34 430.382 366.722V368.807H429.739V366.832C429.739 366.281 429.484 366.005 428.974 366.005C428.737 366.005 428.552 366.087 428.42 366.251C428.288 366.41 428.218 366.618 428.209 366.873Z" fill="black"/>
<rect x="442.319" y="357.807" width="32.9335" height="18" rx="2.96191" fill="#CDEEFC"/>
<rect x="442.319" y="357.807" width="32.9335" height="18" rx="2.96191" stroke="#2F80ED"/>
<path d="M451.639 368.807H448.694V363.962H451.639V364.584H449.364V366.073H451.427V366.702H449.364V368.185H451.639V368.807ZM452.845 367.153C452.845 367.499 452.93 367.782 453.098 368C453.271 368.219 453.508 368.328 453.809 368.328C454.096 368.328 454.326 368.217 454.499 367.993C454.672 367.77 454.759 367.486 454.759 367.139C454.759 366.798 454.674 366.522 454.506 366.312C454.337 366.103 454.107 365.998 453.816 365.998C453.524 365.998 453.29 366.105 453.112 366.319C452.934 366.533 452.845 366.811 452.845 367.153ZM454.766 368.362V368.308C454.679 368.476 454.547 368.618 454.369 368.731C454.196 368.841 453.989 368.895 453.747 368.895C453.278 368.895 452.9 368.731 452.613 368.403C452.331 368.071 452.189 367.654 452.189 367.153C452.189 366.675 452.335 366.269 452.627 365.937C452.918 365.599 453.292 365.431 453.747 365.431C454.016 365.431 454.235 365.486 454.403 365.595C454.572 365.7 454.688 365.83 454.752 365.984V363.859H455.387V368.198C455.387 368.422 455.399 368.624 455.422 368.807H454.8C454.777 368.679 454.766 368.531 454.766 368.362ZM457.341 364.481V365.52H458.052V366.101H457.341V367.809C457.341 367.964 457.375 368.078 457.444 368.151C457.516 368.224 457.635 368.26 457.799 368.26C457.895 368.26 457.979 368.251 458.052 368.233V368.779C457.942 368.82 457.797 368.841 457.614 368.841C457.332 368.841 457.109 368.759 456.945 368.595C456.781 368.431 456.699 368.201 456.699 367.905V366.101H456.07V365.52H456.248C456.416 365.52 456.541 365.474 456.623 365.383C456.71 365.287 456.753 365.164 456.753 365.014V364.481H457.341ZM459.293 366.825H461.09C461.081 366.579 460.999 366.379 460.844 366.224C460.689 366.064 460.47 365.984 460.188 365.984C459.933 365.984 459.723 366.069 459.559 366.237C459.395 366.401 459.306 366.597 459.293 366.825ZM461.185 367.679L461.739 367.87C461.643 368.176 461.466 368.426 461.206 368.622C460.946 368.813 460.632 368.909 460.263 368.909C459.803 368.909 459.411 368.752 459.088 368.438C458.769 368.119 458.609 367.691 458.609 367.153C458.609 366.652 458.764 366.237 459.074 365.909C459.384 365.581 459.753 365.417 460.181 365.417C460.677 365.417 461.065 365.574 461.343 365.889C461.62 366.199 461.759 366.615 461.759 367.139C461.759 367.221 461.755 367.29 461.746 367.344H459.272C459.277 367.636 459.372 367.875 459.559 368.062C459.75 368.249 459.985 368.342 460.263 368.342C460.732 368.342 461.04 368.121 461.185 367.679ZM463.96 366.012C463.682 366.012 463.445 366.112 463.249 366.312C463.058 366.513 462.962 366.795 462.962 367.16C462.962 367.52 463.058 367.802 463.249 368.007C463.445 368.212 463.684 368.315 463.967 368.315C464.24 368.315 464.447 368.246 464.588 368.11C464.734 367.973 464.832 367.816 464.882 367.638L465.449 367.884C465.358 368.157 465.185 368.397 464.93 368.602C464.679 368.807 464.358 368.909 463.967 368.909C463.488 368.909 463.092 368.743 462.778 368.41C462.463 368.078 462.306 367.661 462.306 367.16C462.306 366.65 462.463 366.233 462.778 365.909C463.092 365.581 463.486 365.417 463.96 365.417C464.361 365.417 464.684 365.52 464.93 365.725C465.181 365.93 465.345 366.176 465.422 366.463L464.841 366.709C464.791 366.517 464.695 366.353 464.554 366.217C464.413 366.08 464.215 366.012 463.96 366.012ZM466.845 366.873V368.807H466.203V363.859H466.845V365.902C467.064 365.584 467.396 365.424 467.843 365.424C468.221 365.424 468.51 365.545 468.711 365.786C468.916 366.028 469.018 366.34 469.018 366.722V368.807H468.376V366.832C468.376 366.281 468.121 366.005 467.611 366.005C467.374 366.005 467.189 366.087 467.057 366.251C466.925 366.41 466.854 366.618 466.845 366.873Z" fill="#058FC6"/>
<rect x="481.177" y="357.807" width="39.9335" height="18" rx="2.96191" fill="#E6F6DA"/>
<rect x="481.177" y="357.807" width="39.9335" height="18" rx="2.96191" stroke="#27AE60"/>
<path d="M490.833 368.807L490.307 367.454H488.161L487.649 368.807H486.931L488.858 363.962H489.63L491.557 368.807H490.833ZM489.227 364.659L488.4 366.832H490.068L489.227 364.659ZM491.868 368.984L492.49 368.841C492.513 369.073 492.606 369.264 492.77 369.415C492.934 369.57 493.139 369.647 493.385 369.647C494.055 369.647 494.39 369.292 494.39 368.581V368.11C494.308 368.269 494.178 368.399 494 368.499C493.827 368.599 493.622 368.649 493.385 368.649C492.948 368.649 492.586 368.501 492.299 368.205C492.016 367.905 491.875 367.522 491.875 367.057C491.875 366.606 492.016 366.228 492.299 365.923C492.581 365.613 492.943 365.458 493.385 365.458C493.886 365.458 494.224 365.631 494.397 365.978V365.52H495.032V368.561C495.032 368.779 495.003 368.982 494.943 369.169C494.889 369.36 494.8 369.536 494.677 369.695C494.554 369.854 494.381 369.98 494.157 370.071C493.939 370.162 493.681 370.207 493.385 370.207C492.98 370.207 492.636 370.091 492.353 369.859C492.071 369.631 491.909 369.34 491.868 368.984ZM493.481 368.11C493.759 368.11 493.984 368.014 494.157 367.823C494.331 367.627 494.417 367.372 494.417 367.057C494.417 366.743 494.331 366.49 494.157 366.299C493.984 366.103 493.759 366.005 493.481 366.005C493.199 366.005 492.968 366.101 492.791 366.292C492.618 366.483 492.531 366.738 492.531 367.057C492.531 367.381 492.615 367.638 492.784 367.829C492.957 368.016 493.189 368.11 493.481 368.11ZM497.883 365.486V366.169C497.787 366.155 497.693 366.148 497.602 366.148C497.001 366.148 496.7 366.486 496.7 367.16V368.807H496.058V365.52H496.687V366.094C496.887 365.675 497.215 365.465 497.671 365.465C497.744 365.465 497.814 365.472 497.883 365.486ZM499.21 368.028C499.411 368.233 499.654 368.335 499.941 368.335C500.228 368.335 500.47 368.233 500.666 368.028C500.866 367.818 500.966 367.529 500.966 367.16C500.966 366.795 500.866 366.511 500.666 366.306C500.47 366.096 500.228 365.991 499.941 365.991C499.654 365.991 499.411 366.096 499.21 366.306C499.014 366.511 498.916 366.795 498.916 367.16C498.916 367.529 499.014 367.818 499.21 368.028ZM498.732 365.916C499.051 365.584 499.454 365.417 499.941 365.417C500.429 365.417 500.83 365.584 501.144 365.916C501.463 366.244 501.622 366.659 501.622 367.16C501.622 367.665 501.465 368.085 501.151 368.417C500.837 368.745 500.433 368.909 499.941 368.909C499.449 368.909 499.046 368.745 498.732 368.417C498.418 368.085 498.26 367.665 498.26 367.16C498.26 366.659 498.418 366.244 498.732 365.916ZM503.272 364.481V365.52H503.983V366.101H503.272V367.809C503.272 367.964 503.306 368.078 503.374 368.151C503.447 368.224 503.566 368.26 503.73 368.26C503.825 368.26 503.91 368.251 503.983 368.233V368.779C503.873 368.82 503.728 368.841 503.545 368.841C503.263 368.841 503.04 368.759 502.876 368.595C502.712 368.431 502.63 368.201 502.63 367.905V366.101H502.001V365.52H502.179C502.347 365.52 502.472 365.474 502.554 365.383C502.641 365.287 502.684 365.164 502.684 365.014V364.481H503.272ZM505.223 366.825H507.021C507.012 366.579 506.93 366.379 506.775 366.224C506.62 366.064 506.401 365.984 506.119 365.984C505.864 365.984 505.654 366.069 505.49 366.237C505.326 366.401 505.237 366.597 505.223 366.825ZM507.116 367.679L507.67 367.87C507.574 368.176 507.396 368.426 507.137 368.622C506.877 368.813 506.563 368.909 506.194 368.909C505.734 368.909 505.342 368.752 505.018 368.438C504.7 368.119 504.54 367.691 504.54 367.153C504.54 366.652 504.695 366.237 505.005 365.909C505.315 365.581 505.684 365.417 506.112 365.417C506.608 365.417 506.996 365.574 507.273 365.889C507.551 366.199 507.69 366.615 507.69 367.139C507.69 367.221 507.686 367.29 507.677 367.344H505.203C505.208 367.636 505.303 367.875 505.49 368.062C505.681 368.249 505.916 368.342 506.194 368.342C506.663 368.342 506.971 368.121 507.116 367.679ZM509.891 366.012C509.613 366.012 509.376 366.112 509.18 366.312C508.989 366.513 508.893 366.795 508.893 367.16C508.893 367.52 508.989 367.802 509.18 368.007C509.376 368.212 509.615 368.315 509.897 368.315C510.171 368.315 510.378 368.246 510.519 368.11C510.665 367.973 510.763 367.816 510.813 367.638L511.38 367.884C511.289 368.157 511.116 368.397 510.861 368.602C510.61 368.807 510.289 368.909 509.897 368.909C509.419 368.909 509.023 368.743 508.708 368.41C508.394 368.078 508.237 367.661 508.237 367.16C508.237 366.65 508.394 366.233 508.708 365.909C509.023 365.581 509.417 365.417 509.891 365.417C510.292 365.417 510.615 365.52 510.861 365.725C511.112 365.93 511.276 366.176 511.353 366.463L510.772 366.709C510.722 366.517 510.626 366.353 510.485 366.217C510.344 366.08 510.146 366.012 509.891 366.012ZM512.776 366.873V368.807H512.134V363.859H512.776V365.902C512.995 365.584 513.327 365.424 513.774 365.424C514.152 365.424 514.441 365.545 514.642 365.786C514.847 366.028 514.949 366.34 514.949 366.722V368.807H514.307V366.832C514.307 366.281 514.052 366.005 513.542 366.005C513.305 366.005 513.12 366.087 512.988 366.251C512.856 366.41 512.785 366.618 512.776 366.873Z" fill="#27AE60"/>
<rect x="569.275" y="358.645" width="37.9371" height="16.3221" rx="0.829304" fill="#EEF3FD"/>
<rect x="569.275" y="358.645" width="37.9371" height="16.3221" rx="0.829304" stroke="#9CA3AF" stroke-width="0.331721"/>
<path d="M577.569 369.806H576.64V363.221H577.569V369.806ZM580.023 367.224V369.806H579.15V365.339H580.005V365.979C580.302 365.465 580.76 365.208 581.379 365.208C581.893 365.208 582.287 365.373 582.559 365.701C582.838 366.029 582.977 366.453 582.977 366.973V369.806H582.104V367.122C582.104 366.373 581.757 365.998 581.064 365.998C580.735 365.998 580.478 366.116 580.293 366.351C580.113 366.58 580.023 366.871 580.023 367.224ZM588.193 365.339L586.409 369.806H585.527L583.716 365.339H584.7L585.973 368.784L587.254 365.339H588.193ZM589.459 367.113H591.901C591.889 366.778 591.777 366.506 591.567 366.295C591.356 366.078 591.059 365.97 590.675 365.97C590.329 365.97 590.044 366.085 589.821 366.314C589.598 366.537 589.477 366.803 589.459 367.113ZM592.031 368.274L592.784 368.534C592.654 368.949 592.412 369.289 592.059 369.555C591.706 369.815 591.279 369.945 590.777 369.945C590.152 369.945 589.62 369.732 589.18 369.305C588.746 368.871 588.53 368.289 588.53 367.558C588.53 366.877 588.74 366.314 589.161 365.868C589.582 365.422 590.084 365.199 590.666 365.199C591.341 365.199 591.867 365.413 592.245 365.84C592.623 366.261 592.812 366.828 592.812 367.54C592.812 367.651 592.805 367.744 592.793 367.818H589.431C589.437 368.215 589.567 368.54 589.821 368.794C590.081 369.048 590.4 369.175 590.777 369.175C591.415 369.175 591.833 368.874 592.031 368.274ZM593.508 368.645L594.298 368.366C594.329 368.608 594.434 368.809 594.613 368.97C594.793 369.125 595.034 369.202 595.338 369.202C595.573 369.202 595.759 369.147 595.895 369.035C596.031 368.918 596.1 368.775 596.1 368.608C596.1 368.311 595.908 368.119 595.524 368.032L594.762 367.865C594.415 367.791 594.143 367.642 593.945 367.419C593.747 367.196 593.647 366.927 593.647 366.611C593.647 366.227 593.802 365.896 594.112 365.617C594.428 365.339 594.802 365.199 595.236 365.199C595.521 365.199 595.774 365.243 595.997 365.329C596.22 365.41 596.394 365.518 596.517 365.654C596.641 365.791 596.734 365.917 596.796 366.035C596.858 366.153 596.905 366.274 596.935 366.397L596.165 366.685C596.152 366.611 596.13 366.54 596.1 366.472C596.069 366.397 596.019 366.317 595.951 366.23C595.889 366.144 595.796 366.075 595.672 366.026C595.548 365.97 595.403 365.942 595.236 365.942C595.019 365.942 594.839 366.001 594.697 366.119C594.561 366.236 594.493 366.376 594.493 366.537C594.493 366.822 594.663 367.001 595.004 367.075L595.728 367.233C596.124 367.32 596.428 367.481 596.638 367.716C596.855 367.945 596.963 368.227 596.963 368.562C596.963 368.914 596.818 369.233 596.527 369.518C596.242 369.803 595.843 369.945 595.329 369.945C594.778 369.945 594.347 369.809 594.038 369.537C593.728 369.258 593.551 368.961 593.508 368.645ZM599.296 363.927V365.339H600.262V366.128H599.296V368.45C599.296 368.661 599.342 368.815 599.435 368.914C599.534 369.014 599.695 369.063 599.918 369.063C600.048 369.063 600.163 369.051 600.262 369.026V369.769C600.113 369.825 599.915 369.853 599.668 369.853C599.284 369.853 598.98 369.741 598.757 369.518C598.534 369.295 598.423 368.983 598.423 368.58V366.128H597.568V365.339H597.81C598.039 365.339 598.209 365.277 598.321 365.153C598.438 365.023 598.497 364.856 598.497 364.651V363.927H599.296Z" fill="#6B7280"/>
<circle cx="282.816" cy="416.029" r="17.1947" fill="#E1EFFE"/>
<path fill-rule="evenodd" clip-rule="evenodd" d="M279.97 410.751H286.851C287.062 410.751 287.233 410.922 287.233 411.133V413.427C287.233 413.43 287.233 413.434 287.233 413.438C287.219 413.437 287.205 413.437 287.191 413.437H279.588C279.588 413.434 279.588 413.43 279.588 413.427V411.133C279.588 410.922 279.759 410.751 279.97 410.751ZM278.451 413.603C278.444 413.545 278.441 413.486 278.441 413.427V411.133C278.441 410.289 279.125 409.604 279.97 409.604H286.851C287.696 409.604 288.38 410.289 288.38 411.133V413.427C288.38 413.491 288.376 413.555 288.368 413.618C289.89 414.117 291 415.55 291 417.246V418.768C291 418.924 290.992 419.08 290.984 419.229C290.836 421.96 289.314 423.334 286.426 423.334H280.338C280.143 423.334 279.964 423.319 279.784 423.295C277.302 423.131 275.975 421.804 275.804 419.322C275.78 419.135 275.765 418.955 275.765 418.768V417.246C275.765 415.677 276.717 414.327 278.075 413.742C278.198 413.688 278.323 413.642 278.451 413.603Z" fill="#3E7AFD"/>
<path fill-rule="evenodd" clip-rule="evenodd" d="M278.822 410.751H285.704C285.915 410.751 286.086 410.922 286.086 411.133V413.427C286.086 413.43 286.086 413.434 286.086 413.438C286.072 413.437 286.058 413.437 286.044 413.437H278.44C278.44 413.434 278.44 413.43 278.44 413.427V411.133C278.44 410.922 278.611 410.751 278.822 410.751ZM277.303 413.603C277.297 413.545 277.293 413.486 277.293 413.427V411.133C277.293 410.289 277.978 409.604 278.822 409.604H285.704C286.548 409.604 287.233 410.289 287.233 411.133V413.427C287.233 413.491 287.229 413.555 287.221 413.618C288.743 414.117 289.853 415.55 289.853 417.246V418.768C289.853 418.924 289.845 419.08 289.837 419.229C289.689 421.96 288.167 423.334 285.279 423.334H279.191C278.996 423.334 278.816 423.319 278.637 423.295C276.155 423.131 274.828 421.804 274.656 419.322C274.633 419.135 274.617 418.955 274.617 418.768V417.246C274.617 415.677 275.569 414.327 276.927 413.742C277.051 413.688 277.176 413.642 277.303 413.603ZM284.077 419.478C284.077 418.651 283.593 418.386 283.234 418.261L282.641 418.05V416.731H282.711C283.015 416.731 283.265 417.004 283.265 417.332C283.265 417.558 283.445 417.738 283.671 417.738C283.897 417.738 284.077 417.558 284.077 417.332C284.077 416.552 283.46 415.919 282.711 415.919H282.641V415.748C282.641 415.521 282.461 415.342 282.235 415.342C282.009 415.342 281.829 415.521 281.829 415.748V415.919H281.634C280.947 415.919 280.393 416.489 280.393 417.199C280.393 418.027 280.877 418.292 281.236 418.417L281.829 418.628V419.947H281.759C281.454 419.947 281.205 419.674 281.205 419.346C281.205 419.119 281.025 418.94 280.799 418.94C280.572 418.94 280.393 419.119 280.393 419.346C280.393 420.126 281.01 420.758 281.759 420.758H281.829V420.93C281.829 421.157 282.009 421.336 282.235 421.336C282.461 421.336 282.641 421.157 282.641 420.93V420.758H282.836C283.523 420.758 284.077 420.189 284.077 419.478ZM281.041 417.199C281.041 417.527 281.135 417.574 281.338 417.652L281.666 417.769V416.731H281.471C281.229 416.731 281.041 416.941 281.041 417.199ZM282.48 419.946H282.675C282.91 419.946 283.105 419.735 283.105 419.477C283.105 419.15 283.011 419.103 282.808 419.025L282.48 418.908V419.946Z" fill="#EBF5FF"/>
<path d="M320.846 419.92L320.018 417.721H316.312L315.497 419.92H313.928L317.337 411.162H319.055L322.464 419.92H320.846ZM318.165 412.768L316.831 416.35H319.499L318.165 412.768ZM326.997 413.867V415.325C326.833 415.3 326.676 415.288 326.528 415.288C325.449 415.288 324.91 415.876 324.91 417.054V419.92H323.477V413.904H324.873V414.868C325.013 414.546 325.239 414.295 325.552 414.114C325.865 413.925 326.219 413.83 326.615 413.83C326.746 413.83 326.874 413.842 326.997 413.867ZM330.275 412.064V413.904H331.523V415.176H330.275V417.968C330.275 418.232 330.337 418.425 330.46 418.549C330.584 418.664 330.777 418.722 331.041 418.722C331.205 418.722 331.37 418.705 331.535 418.672V419.858C331.321 419.949 331.028 419.994 330.658 419.994C330.098 419.994 329.657 419.838 329.336 419.525C329.015 419.203 328.854 418.763 328.854 418.203V415.176H327.743V413.904H328.051C328.356 413.904 328.587 413.818 328.743 413.645C328.9 413.472 328.978 413.245 328.978 412.965V412.064H330.275ZM337.641 419.92H336.158V411.162H341.606V412.558H337.641V415.016H341.198V416.387H337.641V419.92ZM346.308 419.253C346.168 419.516 345.937 419.722 345.616 419.871C345.303 420.019 344.966 420.093 344.603 420.093C343.903 420.093 343.347 419.866 342.936 419.413C342.532 418.961 342.33 418.388 342.33 417.696V413.904H343.763V417.437C343.763 417.841 343.862 418.17 344.06 418.425C344.257 418.681 344.562 418.808 344.974 418.808C345.377 418.808 345.686 418.685 345.9 418.438C346.123 418.191 346.234 417.865 346.234 417.462V413.904H347.667V418.821C347.667 419.183 347.687 419.549 347.729 419.92H346.357C346.324 419.739 346.308 419.516 346.308 419.253ZM350.954 416.449V419.92H349.522V413.904H350.917V414.707C351.107 414.378 351.358 414.135 351.671 413.978C351.992 413.814 352.334 413.731 352.696 413.731C353.404 413.731 353.944 413.954 354.314 414.398C354.685 414.843 354.87 415.415 354.87 416.115V419.92H353.437V416.362C353.437 415.959 353.339 415.638 353.141 415.399C352.943 415.152 352.63 415.028 352.202 415.028C351.807 415.028 351.498 415.164 351.276 415.436C351.061 415.699 350.954 416.037 350.954 416.449ZM357.578 416.893C357.578 417.47 357.726 417.935 358.023 418.289C358.319 418.635 358.711 418.808 359.196 418.808C359.666 418.808 360.049 418.631 360.345 418.277C360.642 417.923 360.79 417.458 360.79 416.881C360.79 416.313 360.646 415.86 360.358 415.522C360.069 415.185 359.686 415.016 359.209 415.016C358.731 415.016 358.34 415.189 358.035 415.535C357.731 415.872 357.578 416.325 357.578 416.893ZM362.173 410.977V418.821C362.173 419.224 362.194 419.591 362.235 419.92H360.864C360.823 419.689 360.802 419.43 360.802 419.142C360.654 419.413 360.423 419.636 360.111 419.809C359.798 419.982 359.439 420.068 359.036 420.068C358.179 420.068 357.484 419.768 356.948 419.166C356.413 418.565 356.145 417.808 356.145 416.893C356.145 416.012 356.413 415.267 356.948 414.658C357.492 414.048 358.179 413.744 359.011 413.744C359.489 413.744 359.872 413.83 360.16 414.003C360.456 414.176 360.662 414.378 360.778 414.608V410.977H362.173Z" fill="black"/>
<rect x="402.462" y="406.42" width="33.9335" height="18" rx="2.96191" fill="#F5F6F7"/>
<rect x="402.462" y="406.42" width="33.9335" height="18" rx="2.96191" stroke="#BDBDBD"/>
<path d="M409.285 417.42H408.616V412.575H411.561V413.197H409.285V414.755H411.349V415.384H409.285V417.42ZM412.913 417.42H412.278V414.133H412.913V417.42ZM412.264 413.217C412.178 413.126 412.134 413.017 412.134 412.889C412.134 412.762 412.178 412.652 412.264 412.561C412.355 412.47 412.465 412.425 412.592 412.425C412.72 412.425 412.829 412.47 412.92 412.561C413.011 412.648 413.057 412.757 413.057 412.889C413.057 413.017 413.011 413.126 412.92 413.217C412.829 413.304 412.72 413.347 412.592 413.347C412.465 413.347 412.355 413.304 412.264 413.217ZM414.649 415.52V417.42H414.006V414.133H414.635V414.605C414.854 414.226 415.191 414.037 415.646 414.037C416.024 414.037 416.314 414.158 416.514 414.4C416.719 414.641 416.822 414.953 416.822 415.336V417.42H416.179V415.445C416.179 414.894 415.924 414.618 415.414 414.618C415.172 414.618 414.983 414.705 414.847 414.878C414.715 415.046 414.649 415.261 414.649 415.52ZM418.704 413.094V414.133H419.415V414.714H418.704V416.422C418.704 416.577 418.738 416.691 418.807 416.764C418.88 416.837 418.998 416.873 419.162 416.873C419.258 416.873 419.342 416.864 419.415 416.846V417.393C419.306 417.434 419.16 417.454 418.978 417.454C418.695 417.454 418.472 417.372 418.308 417.208C418.144 417.044 418.062 416.814 418.062 416.518V414.714H417.433V414.133H417.611C417.78 414.133 417.905 414.087 417.987 413.996C418.073 413.901 418.117 413.778 418.117 413.627V413.094H418.704ZM420.656 415.438H422.453C422.444 415.192 422.362 414.992 422.207 414.837C422.052 414.677 421.833 414.598 421.551 414.598C421.296 414.598 421.086 414.682 420.922 414.851C420.758 415.015 420.669 415.21 420.656 415.438ZM422.549 416.292L423.102 416.484C423.007 416.789 422.829 417.04 422.569 417.235C422.309 417.427 421.995 417.522 421.626 417.522C421.166 417.522 420.774 417.365 420.451 417.051C420.132 416.732 419.972 416.304 419.972 415.766C419.972 415.265 420.127 414.851 420.437 414.523C420.747 414.195 421.116 414.031 421.544 414.031C422.041 414.031 422.428 414.188 422.706 414.502C422.984 414.812 423.123 415.229 423.123 415.753C423.123 415.835 423.118 415.903 423.109 415.958H420.635C420.64 416.249 420.736 416.488 420.922 416.675C421.114 416.862 421.348 416.955 421.626 416.955C422.095 416.955 422.403 416.734 422.549 416.292ZM425.323 414.625C425.045 414.625 424.808 414.725 424.612 414.926C424.421 415.126 424.325 415.409 424.325 415.773C424.325 416.133 424.421 416.415 424.612 416.62C424.808 416.825 425.047 416.928 425.33 416.928C425.603 416.928 425.81 416.86 425.952 416.723C426.097 416.586 426.195 416.429 426.245 416.251L426.813 416.497C426.722 416.771 426.548 417.01 426.293 417.215C426.043 417.42 425.722 417.522 425.33 417.522C424.851 417.522 424.455 417.356 424.141 417.024C423.826 416.691 423.669 416.274 423.669 415.773C423.669 415.263 423.826 414.846 424.141 414.523C424.455 414.195 424.849 414.031 425.323 414.031C425.724 414.031 426.047 414.133 426.293 414.338C426.544 414.543 426.708 414.789 426.785 415.076L426.204 415.322C426.154 415.131 426.059 414.967 425.917 414.83C425.776 414.693 425.578 414.625 425.323 414.625ZM428.209 415.486V417.42H427.566V412.473H428.209V414.516C428.427 414.197 428.76 414.037 429.206 414.037C429.584 414.037 429.874 414.158 430.074 414.4C430.279 414.641 430.382 414.953 430.382 415.336V417.42H429.739V415.445C429.739 414.894 429.484 414.618 428.974 414.618C428.737 414.618 428.552 414.7 428.42 414.864C428.288 415.024 428.218 415.231 428.209 415.486Z" fill="black"/>
<rect x="442.319" y="406.42" width="32.9335" height="18" rx="2.96191" fill="#CDEEFC"/>
<rect x="442.319" y="406.42" width="32.9335" height="18" rx="2.96191" stroke="#2F80ED"/>
<path d="M451.639 417.42H448.694V412.575H451.639V413.197H449.364V414.687H451.427V415.315H449.364V416.798H451.639V417.42ZM452.845 415.766C452.845 416.112 452.93 416.395 453.098 416.614C453.271 416.832 453.508 416.942 453.809 416.942C454.096 416.942 454.326 416.83 454.499 416.607C454.672 416.384 454.759 416.099 454.759 415.753C454.759 415.411 454.674 415.135 454.506 414.926C454.337 414.716 454.107 414.611 453.816 414.611C453.524 414.611 453.29 414.718 453.112 414.933C452.934 415.147 452.845 415.425 452.845 415.766ZM454.766 416.976V416.921C454.679 417.09 454.547 417.231 454.369 417.345C454.196 417.454 453.989 417.509 453.747 417.509C453.278 417.509 452.9 417.345 452.613 417.017C452.331 416.684 452.189 416.267 452.189 415.766C452.189 415.288 452.335 414.882 452.627 414.55C452.918 414.213 453.292 414.044 453.747 414.044C454.016 414.044 454.235 414.099 454.403 414.208C454.572 414.313 454.688 414.443 454.752 414.598V412.473H455.387V416.812C455.387 417.035 455.399 417.238 455.422 417.42H454.8C454.777 417.292 454.766 417.144 454.766 416.976ZM457.341 413.094V414.133H458.052V414.714H457.341V416.422C457.341 416.577 457.375 416.691 457.444 416.764C457.516 416.837 457.635 416.873 457.799 416.873C457.895 416.873 457.979 416.864 458.052 416.846V417.393C457.942 417.434 457.797 417.454 457.614 417.454C457.332 417.454 457.109 417.372 456.945 417.208C456.781 417.044 456.699 416.814 456.699 416.518V414.714H456.07V414.133H456.248C456.416 414.133 456.541 414.087 456.623 413.996C456.71 413.901 456.753 413.778 456.753 413.627V413.094H457.341ZM459.293 415.438H461.09C461.081 415.192 460.999 414.992 460.844 414.837C460.689 414.677 460.47 414.598 460.188 414.598C459.933 414.598 459.723 414.682 459.559 414.851C459.395 415.015 459.306 415.21 459.293 415.438ZM461.185 416.292L461.739 416.484C461.643 416.789 461.466 417.04 461.206 417.235C460.946 417.427 460.632 417.522 460.263 417.522C459.803 417.522 459.411 417.365 459.088 417.051C458.769 416.732 458.609 416.304 458.609 415.766C458.609 415.265 458.764 414.851 459.074 414.523C459.384 414.195 459.753 414.031 460.181 414.031C460.677 414.031 461.065 414.188 461.343 414.502C461.62 414.812 461.759 415.229 461.759 415.753C461.759 415.835 461.755 415.903 461.746 415.958H459.272C459.277 416.249 459.372 416.488 459.559 416.675C459.75 416.862 459.985 416.955 460.263 416.955C460.732 416.955 461.04 416.734 461.185 416.292ZM463.96 414.625C463.682 414.625 463.445 414.725 463.249 414.926C463.058 415.126 462.962 415.409 462.962 415.773C462.962 416.133 463.058 416.415 463.249 416.62C463.445 416.825 463.684 416.928 463.967 416.928C464.24 416.928 464.447 416.86 464.588 416.723C464.734 416.586 464.832 416.429 464.882 416.251L465.449 416.497C465.358 416.771 465.185 417.01 464.93 417.215C464.679 417.42 464.358 417.522 463.967 417.522C463.488 417.522 463.092 417.356 462.778 417.024C462.463 416.691 462.306 416.274 462.306 415.773C462.306 415.263 462.463 414.846 462.778 414.523C463.092 414.195 463.486 414.031 463.96 414.031C464.361 414.031 464.684 414.133 464.93 414.338C465.181 414.543 465.345 414.789 465.422 415.076L464.841 415.322C464.791 415.131 464.695 414.967 464.554 414.83C464.413 414.693 464.215 414.625 463.96 414.625ZM466.845 415.486V417.42H466.203V412.473H466.845V414.516C467.064 414.197 467.396 414.037 467.843 414.037C468.221 414.037 468.51 414.158 468.711 414.4C468.916 414.641 469.018 414.953 469.018 415.336V417.42H468.376V415.445C468.376 414.894 468.121 414.618 467.611 414.618C467.374 414.618 467.189 414.7 467.057 414.864C466.925 415.024 466.854 415.231 466.845 415.486Z" fill="#058FC6"/>
<rect x="481.177" y="406.42" width="39.9335" height="18" rx="2.96191" fill="#E6F6DA"/>
<rect x="481.177" y="406.42" width="39.9335" height="18" rx="2.96191" stroke="#27AE60"/>
<path d="M490.833 417.42L490.307 416.067H488.161L487.649 417.42H486.931L488.858 412.575H489.63L491.557 417.42H490.833ZM489.227 413.272L488.4 415.445H490.068L489.227 413.272ZM491.868 417.598L492.49 417.454C492.513 417.686 492.606 417.878 492.77 418.028C492.934 418.183 493.139 418.26 493.385 418.26C494.055 418.26 494.39 417.905 494.39 417.194V416.723C494.308 416.882 494.178 417.012 494 417.112C493.827 417.213 493.622 417.263 493.385 417.263C492.948 417.263 492.586 417.115 492.299 416.819C492.016 416.518 491.875 416.135 491.875 415.671C491.875 415.22 492.016 414.841 492.299 414.536C492.581 414.226 492.943 414.072 493.385 414.072C493.886 414.072 494.224 414.245 494.397 414.591V414.133H495.032V417.174C495.032 417.393 495.003 417.595 494.943 417.782C494.889 417.973 494.8 418.149 494.677 418.308C494.554 418.468 494.381 418.593 494.157 418.684C493.939 418.775 493.681 418.821 493.385 418.821C492.98 418.821 492.636 418.705 492.353 418.472C492.071 418.244 491.909 417.953 491.868 417.598ZM493.481 416.723C493.759 416.723 493.984 416.627 494.157 416.436C494.331 416.24 494.417 415.985 494.417 415.671C494.417 415.356 494.331 415.103 494.157 414.912C493.984 414.716 493.759 414.618 493.481 414.618C493.199 414.618 492.968 414.714 492.791 414.905C492.618 415.097 492.531 415.352 492.531 415.671C492.531 415.994 492.615 416.251 492.784 416.443C492.957 416.63 493.189 416.723 493.481 416.723ZM497.883 414.099V414.782C497.787 414.769 497.693 414.762 497.602 414.762C497.001 414.762 496.7 415.099 496.7 415.773V417.42H496.058V414.133H496.687V414.707C496.887 414.288 497.215 414.078 497.671 414.078C497.744 414.078 497.814 414.085 497.883 414.099ZM499.21 416.641C499.411 416.846 499.654 416.948 499.941 416.948C500.228 416.948 500.47 416.846 500.666 416.641C500.866 416.431 500.966 416.142 500.966 415.773C500.966 415.409 500.866 415.124 500.666 414.919C500.47 414.709 500.228 414.605 499.941 414.605C499.654 414.605 499.411 414.709 499.21 414.919C499.014 415.124 498.916 415.409 498.916 415.773C498.916 416.142 499.014 416.431 499.21 416.641ZM498.732 414.529C499.051 414.197 499.454 414.031 499.941 414.031C500.429 414.031 500.83 414.197 501.144 414.529C501.463 414.857 501.622 415.272 501.622 415.773C501.622 416.279 501.465 416.698 501.151 417.03C500.837 417.358 500.433 417.522 499.941 417.522C499.449 417.522 499.046 417.358 498.732 417.03C498.418 416.698 498.26 416.279 498.26 415.773C498.26 415.272 498.418 414.857 498.732 414.529ZM503.272 413.094V414.133H503.983V414.714H503.272V416.422C503.272 416.577 503.306 416.691 503.374 416.764C503.447 416.837 503.566 416.873 503.73 416.873C503.825 416.873 503.91 416.864 503.983 416.846V417.393C503.873 417.434 503.728 417.454 503.545 417.454C503.263 417.454 503.04 417.372 502.876 417.208C502.712 417.044 502.63 416.814 502.63 416.518V414.714H502.001V414.133H502.179C502.347 414.133 502.472 414.087 502.554 413.996C502.641 413.901 502.684 413.778 502.684 413.627V413.094H503.272ZM505.223 415.438H507.021C507.012 415.192 506.93 414.992 506.775 414.837C506.62 414.677 506.401 414.598 506.119 414.598C505.864 414.598 505.654 414.682 505.49 414.851C505.326 415.015 505.237 415.21 505.223 415.438ZM507.116 416.292L507.67 416.484C507.574 416.789 507.396 417.04 507.137 417.235C506.877 417.427 506.563 417.522 506.194 417.522C505.734 417.522 505.342 417.365 505.018 417.051C504.7 416.732 504.54 416.304 504.54 415.766C504.54 415.265 504.695 414.851 505.005 414.523C505.315 414.195 505.684 414.031 506.112 414.031C506.608 414.031 506.996 414.188 507.273 414.502C507.551 414.812 507.69 415.229 507.69 415.753C507.69 415.835 507.686 415.903 507.677 415.958H505.203C505.208 416.249 505.303 416.488 505.49 416.675C505.681 416.862 505.916 416.955 506.194 416.955C506.663 416.955 506.971 416.734 507.116 416.292ZM509.891 414.625C509.613 414.625 509.376 414.725 509.18 414.926C508.989 415.126 508.893 415.409 508.893 415.773C508.893 416.133 508.989 416.415 509.18 416.62C509.376 416.825 509.615 416.928 509.897 416.928C510.171 416.928 510.378 416.86 510.519 416.723C510.665 416.586 510.763 416.429 510.813 416.251L511.38 416.497C511.289 416.771 511.116 417.01 510.861 417.215C510.61 417.42 510.289 417.522 509.897 417.522C509.419 417.522 509.023 417.356 508.708 417.024C508.394 416.691 508.237 416.274 508.237 415.773C508.237 415.263 508.394 414.846 508.708 414.523C509.023 414.195 509.417 414.031 509.891 414.031C510.292 414.031 510.615 414.133 510.861 414.338C511.112 414.543 511.276 414.789 511.353 415.076L510.772 415.322C510.722 415.131 510.626 414.967 510.485 414.83C510.344 414.693 510.146 414.625 509.891 414.625ZM512.776 415.486V417.42H512.134V412.473H512.776V414.516C512.995 414.197 513.327 414.037 513.774 414.037C514.152 414.037 514.441 414.158 514.642 414.4C514.847 414.641 514.949 414.953 514.949 415.336V417.42H514.307V415.445C514.307 414.894 514.052 414.618 513.542 414.618C513.305 414.618 513.12 414.7 512.988 414.864C512.856 415.024 512.785 415.231 512.776 415.486Z" fill="#27AE60"/>
<rect x="569.275" y="407.259" width="37.9371" height="16.3221" rx="0.829304" fill="#EEF3FD"/>
<rect x="569.275" y="407.259" width="37.9371" height="16.3221" rx="0.829304" stroke="#9CA3AF" stroke-width="0.331721"/>
<path d="M577.569 418.419H576.64V411.834H577.569V418.419ZM580.023 415.837V418.419H579.15V413.952H580.005V414.593C580.302 414.079 580.76 413.822 581.379 413.822C581.893 413.822 582.287 413.986 582.559 414.314C582.838 414.642 582.977 415.066 582.977 415.587V418.419H582.104V415.735C582.104 414.986 581.757 414.611 581.064 414.611C580.735 414.611 580.478 414.729 580.293 414.964C580.113 415.193 580.023 415.484 580.023 415.837ZM588.193 413.952L586.409 418.419H585.527L583.716 413.952H584.7L585.973 417.398L587.254 413.952H588.193ZM589.459 415.726H591.901C591.889 415.391 591.777 415.119 591.567 414.908C591.356 414.692 591.059 414.583 590.675 414.583C590.329 414.583 590.044 414.698 589.821 414.927C589.598 415.15 589.477 415.416 589.459 415.726ZM592.031 416.887L592.784 417.147C592.654 417.562 592.412 417.902 592.059 418.169C591.706 418.429 591.279 418.559 590.777 418.559C590.152 418.559 589.62 418.345 589.18 417.918C588.746 417.484 588.53 416.902 588.53 416.172C588.53 415.491 588.74 414.927 589.161 414.481C589.582 414.035 590.084 413.812 590.666 413.812C591.341 413.812 591.867 414.026 592.245 414.453C592.623 414.874 592.812 415.441 592.812 416.153C592.812 416.265 592.805 416.357 592.793 416.432H589.431C589.437 416.828 589.567 417.153 589.821 417.407C590.081 417.661 590.4 417.788 590.777 417.788C591.415 417.788 591.833 417.488 592.031 416.887ZM593.508 417.258L594.298 416.98C594.329 417.221 594.434 417.422 594.613 417.583C594.793 417.738 595.034 417.816 595.338 417.816C595.573 417.816 595.759 417.76 595.895 417.649C596.031 417.531 596.1 417.388 596.1 417.221C596.1 416.924 595.908 416.732 595.524 416.645L594.762 416.478C594.415 416.404 594.143 416.255 593.945 416.032C593.747 415.809 593.647 415.54 593.647 415.224C593.647 414.84 593.802 414.509 594.112 414.23C594.428 413.952 594.802 413.812 595.236 413.812C595.521 413.812 595.774 413.856 595.997 413.943C596.22 414.023 596.394 414.131 596.517 414.268C596.641 414.404 596.734 414.531 596.796 414.648C596.858 414.766 596.905 414.887 596.935 415.011L596.165 415.299C596.152 415.224 596.13 415.153 596.1 415.085C596.069 415.011 596.019 414.93 595.951 414.843C595.889 414.757 595.796 414.689 595.672 414.639C595.548 414.583 595.403 414.556 595.236 414.556C595.019 414.556 594.839 414.614 594.697 414.732C594.561 414.85 594.493 414.989 594.493 415.15C594.493 415.435 594.663 415.614 595.004 415.689L595.728 415.847C596.124 415.933 596.428 416.094 596.638 416.33C596.855 416.559 596.963 416.84 596.963 417.175C596.963 417.528 596.818 417.847 596.527 418.131C596.242 418.416 595.843 418.559 595.329 418.559C594.778 418.559 594.347 418.423 594.038 418.15C593.728 417.871 593.551 417.574 593.508 417.258ZM599.296 412.54V413.952H600.262V414.741H599.296V417.063C599.296 417.274 599.342 417.429 599.435 417.528C599.534 417.627 599.695 417.676 599.918 417.676C600.048 417.676 600.163 417.664 600.262 417.639V418.382C600.113 418.438 599.915 418.466 599.668 418.466C599.284 418.466 598.98 418.354 598.757 418.131C598.534 417.909 598.423 417.596 598.423 417.193V414.741H597.568V413.952H597.81C598.039 413.952 598.209 413.89 598.321 413.766C598.438 413.636 598.497 413.469 598.497 413.264V412.54H599.296Z" fill="#6B7280"/>
</g>
<defs>
<filter id="filter0_d_1177_8715" x="0.179688" y="0.273926" width="872.64" height="694.453" filterUnits="userSpaceOnUse" color-interpolation-filters="sRGB">
<feFlood flood-opacity="0" result="BackgroundImageFix"/>
<feColorMatrix in="SourceAlpha" type="matrix" values="0 0 0 0 0 0 0 0 0 0 0 0 0 0 0 0 0 0 127 0" result="hardAlpha"/>
<feOffset dy="5"/>
<feGaussianBlur stdDeviation="125"/>
<feComposite in2="hardAlpha" operator="out"/>
<feColorMatrix type="matrix" values="0 0 0 0 0 0 0 0 0 0 0 0 0 0 0 0 0 0 0.05 0"/>
<feBlend mode="normal" in2="BackgroundImageFix" result="effect1_dropShadow_1177_8715"/>
<feBlend mode="normal" in="SourceGraphic" in2="effect1_dropShadow_1177_8715" result="shape"/>
</filter>
<linearGradient id="paint0_linear_1177_8715" x1="436.5" y1="245.274" x2="436.5" y2="439.726" gradientUnits="userSpaceOnUse">
<stop stop-color="#EEF3FD"/>
<stop offset="1" stop-color="white"/>
</linearGradient>
</defs>
</svg>
