<svg width="792" height="545" viewBox="0 0 792 545" fill="none" xmlns="http://www.w3.org/2000/svg">
<rect x="232.899" y="227" width="427.202" height="231" rx="22.9695" fill="white" fill-opacity="0.46"/>
<g filter="url(#filter0_d_1177_8507)">
<rect x="250.041" y="245.274" width="392.918" height="194.452" rx="20" fill="url(#paint0_linear_1177_8507)" shape-rendering="crispEdges"/>
<circle cx="282.677" cy="270.189" r="17.1947" fill="#EDEBFE"/>
<path d="M290.045 274.216V276.222H276.671V274.216C276.671 273.848 276.972 273.547 277.34 273.547H289.376C289.744 273.547 290.045 273.848 290.045 274.216Z" fill="#7E3AF2" stroke="#7E3AF2" stroke-width="1.00302" stroke-miterlimit="10" stroke-linecap="round" stroke-linejoin="round"/>
<path d="M280.015 268.866H278.678V273.547H280.015V268.866Z" fill="#7E3AF2"/>
<path d="M282.69 268.866H281.353V273.547H282.69V268.866Z" fill="#7E3AF2"/>
<path d="M285.365 268.866H284.027V273.547H285.365V268.866Z" fill="#7E3AF2"/>
<path d="M288.039 268.866H286.701V273.547H288.039V268.866Z" fill="#7E3AF2"/>
<path d="M290.714 276.723H276.002C275.728 276.723 275.501 276.496 275.501 276.222C275.501 275.948 275.728 275.72 276.002 275.72H290.714C290.988 275.72 291.215 275.948 291.215 276.222C291.215 276.496 290.988 276.723 290.714 276.723Z" fill="#7E3AF2"/>
<path d="M289.623 265.356L283.605 262.948C283.471 262.895 283.244 262.895 283.11 262.948L277.092 265.356C276.858 265.449 276.671 265.723 276.671 265.977V268.197C276.671 268.565 276.972 268.866 277.34 268.866H289.376C289.744 268.866 290.045 268.565 290.045 268.197V265.977C290.045 265.723 289.857 265.449 289.623 265.356ZM283.358 267.194C282.803 267.194 282.355 266.746 282.355 266.191C282.355 265.636 282.803 265.188 283.358 265.188C283.913 265.188 284.361 265.636 284.361 266.191C284.361 266.746 283.913 267.194 283.358 267.194Z" fill="#7E3AF2"/>
<path d="M288.711 274.216V276.222H275.337V274.216C275.337 273.848 275.638 273.547 276.006 273.547H288.042C288.41 273.547 288.711 273.848 288.711 274.216Z" fill="white" stroke="white" stroke-width="1.00302" stroke-miterlimit="10" stroke-linecap="round" stroke-linejoin="round"/>
<path d="M278.681 268.866H277.344V273.547H278.681V268.866Z" fill="white"/>
<path d="M281.356 268.866H280.019V273.547H281.356V268.866Z" fill="white"/>
<path d="M284.031 268.866H282.693V273.547H284.031V268.866Z" fill="white"/>
<path d="M286.705 268.866H285.367V273.547H286.705V268.866Z" fill="white"/>
<path d="M289.38 276.723H274.669C274.394 276.723 274.167 276.496 274.167 276.222C274.167 275.948 274.394 275.72 274.669 275.72H289.38C289.654 275.72 289.881 275.948 289.881 276.222C289.881 276.496 289.654 276.723 289.38 276.723Z" fill="white"/>
<path d="M288.289 265.356L282.271 262.948C282.137 262.895 281.91 262.895 281.776 262.948L275.758 265.356C275.524 265.449 275.337 265.723 275.337 265.977V268.197C275.337 268.565 275.638 268.866 276.006 268.866H288.042C288.41 268.866 288.711 268.565 288.711 268.197V265.977C288.711 265.723 288.523 265.449 288.289 265.356ZM282.024 267.194C281.469 267.194 281.021 266.746 281.021 266.191C281.021 265.636 281.469 265.188 282.024 265.188C282.579 265.188 283.027 265.636 283.027 266.191C283.027 266.746 282.579 267.194 282.024 267.194Z" fill="white"/>
<path d="M320.623 267.373L319.289 267.793C319.231 267.455 319.062 267.147 318.782 266.867C318.502 266.587 318.099 266.447 317.572 266.447C317.135 266.447 316.773 266.57 316.485 266.817C316.205 267.064 316.065 267.361 316.065 267.707C316.065 268.308 316.406 268.682 317.09 268.831L318.35 269.09C319.108 269.238 319.692 269.539 320.104 269.992C320.516 270.445 320.722 270.984 320.722 271.61C320.722 272.335 320.442 272.961 319.882 273.488C319.33 274.006 318.576 274.266 317.621 274.266C316.592 274.266 315.789 273.998 315.212 273.463C314.636 272.919 314.311 272.289 314.236 271.573L315.62 271.178C315.669 271.672 315.867 272.088 316.213 272.425C316.559 272.763 317.028 272.932 317.621 272.932C318.132 272.932 318.523 272.821 318.795 272.598C319.075 272.368 319.215 272.075 319.215 271.721C319.215 271.433 319.112 271.186 318.906 270.98C318.7 270.766 318.412 270.618 318.041 270.535L316.806 270.276C316.122 270.136 315.579 269.852 315.175 269.424C314.78 268.995 314.582 268.46 314.582 267.818C314.582 267.085 314.875 266.455 315.459 265.928C316.044 265.401 316.744 265.137 317.559 265.137C318.49 265.137 319.202 265.364 319.696 265.817C320.191 266.261 320.499 266.78 320.623 267.373ZM323.929 266.224V268.065H325.177V269.337H323.929V272.129C323.929 272.392 323.991 272.586 324.115 272.709C324.238 272.825 324.432 272.882 324.695 272.882C324.86 272.882 325.025 272.866 325.189 272.833V274.019C324.975 274.109 324.683 274.155 324.312 274.155C323.752 274.155 323.312 273.998 322.991 273.685C322.669 273.364 322.509 272.924 322.509 272.364V269.337H321.397V268.065H321.706C322.011 268.065 322.241 267.978 322.398 267.805C322.554 267.632 322.632 267.406 322.632 267.126V266.224H323.929ZM326.291 272.45C326.291 271.939 326.456 271.532 326.785 271.227C327.123 270.914 327.563 270.716 328.107 270.634L329.651 270.399C329.947 270.358 330.096 270.214 330.096 269.967C330.096 269.695 330.001 269.477 329.811 269.312C329.622 269.139 329.338 269.053 328.959 269.053C328.597 269.053 328.309 269.156 328.094 269.362C327.88 269.559 327.757 269.819 327.724 270.14L326.414 269.844C326.472 269.3 326.731 268.839 327.193 268.46C327.654 268.073 328.239 267.879 328.947 267.879C329.82 267.879 330.462 268.089 330.874 268.509C331.294 268.929 331.504 269.469 331.504 270.128V273.117C331.504 273.512 331.528 273.834 331.578 274.081H330.244C330.203 273.957 330.182 273.702 330.182 273.315C329.787 273.949 329.169 274.266 328.329 274.266C327.72 274.266 327.226 274.089 326.847 273.735C326.476 273.372 326.291 272.944 326.291 272.45ZM328.601 273.142C329.046 273.142 329.404 273.022 329.676 272.784C329.956 272.536 330.096 272.137 330.096 271.585V271.314L328.527 271.548C327.991 271.639 327.724 271.911 327.724 272.364C327.724 272.578 327.802 272.763 327.959 272.919C328.115 273.068 328.329 273.142 328.601 273.142ZM336.756 268.028V269.485C336.592 269.461 336.435 269.448 336.287 269.448C335.208 269.448 334.669 270.037 334.669 271.215V274.081H333.236V268.065H334.632V269.028C334.772 268.707 334.998 268.456 335.311 268.275C335.624 268.085 335.978 267.991 336.374 267.991C336.505 267.991 336.633 268.003 336.756 268.028ZM340.034 266.224V268.065H341.282V269.337H340.034V272.129C340.034 272.392 340.096 272.586 340.219 272.709C340.343 272.825 340.536 272.882 340.8 272.882C340.965 272.882 341.129 272.866 341.294 272.833V274.019C341.08 274.109 340.787 274.155 340.417 274.155C339.857 274.155 339.416 273.998 339.095 273.685C338.774 273.364 338.613 272.924 338.613 272.364V269.337H337.502V268.065H337.81C338.115 268.065 338.346 267.978 338.502 267.805C338.659 267.632 338.737 267.406 338.737 267.126V266.224H340.034ZM345.843 271.104H342.359V269.831H345.843V271.104ZM351.242 273.414C351.102 273.677 350.871 273.883 350.55 274.031C350.237 274.179 349.899 274.254 349.537 274.254C348.837 274.254 348.281 274.027 347.869 273.574C347.466 273.121 347.264 272.549 347.264 271.857V268.065H348.697V271.598C348.697 272.001 348.796 272.331 348.993 272.586C349.191 272.841 349.496 272.969 349.908 272.969C350.311 272.969 350.62 272.845 350.834 272.598C351.056 272.351 351.168 272.026 351.168 271.622V268.065H352.6V272.981C352.6 273.344 352.621 273.71 352.662 274.081H351.291C351.258 273.899 351.242 273.677 351.242 273.414ZM355.876 276.428H354.455V268.065H355.839V268.88C355.995 268.608 356.242 268.382 356.58 268.201C356.918 268.019 357.309 267.929 357.753 267.929C358.618 267.929 359.298 268.225 359.792 268.818C360.286 269.403 360.533 270.152 360.533 271.066C360.533 271.981 360.273 272.738 359.755 273.339C359.236 273.932 358.552 274.229 357.704 274.229C357.292 274.229 356.926 274.151 356.605 273.994C356.283 273.838 356.04 273.64 355.876 273.401V276.428ZM359.1 271.066C359.1 270.506 358.952 270.058 358.655 269.72C358.359 269.374 357.968 269.201 357.482 269.201C357.004 269.201 356.613 269.374 356.308 269.72C356.012 270.058 355.863 270.506 355.863 271.066C355.863 271.635 356.012 272.092 356.308 272.438C356.613 272.784 357.004 272.956 357.482 272.956C357.959 272.956 358.346 272.784 358.643 272.438C358.948 272.092 359.1 271.635 359.1 271.066ZM371.089 274.081L370.261 271.882H366.556L365.74 274.081H364.171L367.581 265.322H369.298L372.707 274.081H371.089ZM368.408 266.928L367.074 270.511H369.743L368.408 266.928Z" fill="black"/>
<rect x="421.962" y="260.581" width="33.9335" height="18" rx="2.96191" fill="#F5F6F7"/>
<rect x="421.962" y="260.581" width="33.9335" height="18" rx="2.96191" stroke="#BDBDBD"/>
<path d="M428.785 271.581H428.116V266.736H431.061V267.358H428.785V268.916H430.849V269.544H428.785V271.581ZM432.413 271.581H431.778V268.294H432.413V271.581ZM431.764 267.378C431.678 267.287 431.634 267.178 431.634 267.05C431.634 266.922 431.678 266.813 431.764 266.722C431.855 266.631 431.965 266.585 432.092 266.585C432.22 266.585 432.329 266.631 432.42 266.722C432.511 266.809 432.557 266.918 432.557 267.05C432.557 267.178 432.511 267.287 432.42 267.378C432.329 267.465 432.22 267.508 432.092 267.508C431.965 267.508 431.855 267.465 431.764 267.378ZM434.149 269.681V271.581H433.506V268.294H434.135V268.765C434.354 268.387 434.691 268.198 435.146 268.198C435.524 268.198 435.814 268.319 436.014 268.56C436.219 268.802 436.322 269.114 436.322 269.496V271.581H435.679V269.606C435.679 269.054 435.424 268.779 434.914 268.779C434.672 268.779 434.483 268.865 434.347 269.039C434.215 269.207 434.149 269.421 434.149 269.681ZM438.204 267.255V268.294H438.915V268.875H438.204V270.583C438.204 270.738 438.238 270.852 438.307 270.925C438.38 270.997 438.498 271.034 438.662 271.034C438.758 271.034 438.842 271.025 438.915 271.007V271.553C438.806 271.594 438.66 271.615 438.478 271.615C438.195 271.615 437.972 271.533 437.808 271.369C437.644 271.205 437.562 270.975 437.562 270.679V268.875H436.933V268.294H437.111C437.28 268.294 437.405 268.248 437.487 268.157C437.573 268.061 437.617 267.938 437.617 267.788V267.255H438.204ZM440.156 269.599H441.953C441.944 269.353 441.862 269.152 441.707 268.998C441.552 268.838 441.333 268.758 441.051 268.758C440.796 268.758 440.586 268.843 440.422 269.011C440.258 269.175 440.169 269.371 440.156 269.599ZM442.049 270.453L442.602 270.644C442.507 270.95 442.329 271.2 442.069 271.396C441.809 271.587 441.495 271.683 441.126 271.683C440.666 271.683 440.274 271.526 439.951 271.212C439.632 270.893 439.472 270.464 439.472 269.927C439.472 269.426 439.627 269.011 439.937 268.683C440.247 268.355 440.616 268.191 441.044 268.191C441.541 268.191 441.928 268.348 442.206 268.663C442.484 268.972 442.623 269.389 442.623 269.913C442.623 269.995 442.618 270.064 442.609 270.118H440.135C440.14 270.41 440.236 270.649 440.422 270.836C440.614 271.023 440.848 271.116 441.126 271.116C441.595 271.116 441.903 270.895 442.049 270.453ZM444.823 268.786C444.545 268.786 444.308 268.886 444.112 269.086C443.921 269.287 443.825 269.569 443.825 269.934C443.825 270.294 443.921 270.576 444.112 270.781C444.308 270.986 444.547 271.089 444.83 271.089C445.103 271.089 445.31 271.02 445.452 270.884C445.597 270.747 445.695 270.59 445.745 270.412L446.313 270.658C446.222 270.931 446.048 271.171 445.793 271.376C445.543 271.581 445.222 271.683 444.83 271.683C444.351 271.683 443.955 271.517 443.641 271.184C443.326 270.852 443.169 270.435 443.169 269.934C443.169 269.423 443.326 269.007 443.641 268.683C443.955 268.355 444.349 268.191 444.823 268.191C445.224 268.191 445.547 268.294 445.793 268.499C446.044 268.704 446.208 268.95 446.285 269.237L445.704 269.483C445.654 269.291 445.559 269.127 445.417 268.991C445.276 268.854 445.078 268.786 444.823 268.786ZM447.709 269.647V271.581H447.066V266.633H447.709V268.676C447.927 268.357 448.26 268.198 448.706 268.198C449.084 268.198 449.374 268.319 449.574 268.56C449.779 268.802 449.882 269.114 449.882 269.496V271.581H449.239V269.606C449.239 269.054 448.984 268.779 448.474 268.779C448.237 268.779 448.052 268.861 447.92 269.025C447.788 269.184 447.718 269.392 447.709 269.647Z" fill="black"/>
<rect x="461.819" y="260.581" width="32.9335" height="18" rx="2.96191" fill="#CDEEFC"/>
<rect x="461.819" y="260.581" width="32.9335" height="18" rx="2.96191" stroke="#2F80ED"/>
<path d="M471.139 271.581H468.194V266.736H471.139V267.358H468.864V268.847H470.927V269.476H468.864V270.959H471.139V271.581ZM472.345 269.927C472.345 270.273 472.43 270.556 472.598 270.774C472.771 270.993 473.008 271.102 473.309 271.102C473.596 271.102 473.826 270.991 473.999 270.767C474.172 270.544 474.259 270.259 474.259 269.913C474.259 269.572 474.174 269.296 474.006 269.086C473.837 268.877 473.607 268.772 473.316 268.772C473.024 268.772 472.79 268.879 472.612 269.093C472.434 269.307 472.345 269.585 472.345 269.927ZM474.266 271.136V271.082C474.179 271.25 474.047 271.392 473.869 271.505C473.696 271.615 473.489 271.669 473.247 271.669C472.778 271.669 472.4 271.505 472.113 271.177C471.831 270.845 471.689 270.428 471.689 269.927C471.689 269.449 471.835 269.043 472.127 268.711C472.418 268.373 472.792 268.205 473.247 268.205C473.516 268.205 473.735 268.26 473.903 268.369C474.072 268.474 474.188 268.603 474.252 268.758V266.633H474.887V270.972C474.887 271.196 474.899 271.398 474.922 271.581H474.3C474.277 271.453 474.266 271.305 474.266 271.136ZM476.841 267.255V268.294H477.552V268.875H476.841V270.583C476.841 270.738 476.875 270.852 476.944 270.925C477.016 270.997 477.135 271.034 477.299 271.034C477.395 271.034 477.479 271.025 477.552 271.007V271.553C477.442 271.594 477.297 271.615 477.114 271.615C476.832 271.615 476.609 271.533 476.445 271.369C476.281 271.205 476.199 270.975 476.199 270.679V268.875H475.57V268.294H475.748C475.916 268.294 476.041 268.248 476.123 268.157C476.21 268.061 476.253 267.938 476.253 267.788V267.255H476.841ZM478.793 269.599H480.59C480.581 269.353 480.499 269.152 480.344 268.998C480.189 268.838 479.97 268.758 479.688 268.758C479.433 268.758 479.223 268.843 479.059 269.011C478.895 269.175 478.806 269.371 478.793 269.599ZM480.685 270.453L481.239 270.644C481.143 270.95 480.966 271.2 480.706 271.396C480.446 271.587 480.132 271.683 479.763 271.683C479.303 271.683 478.911 271.526 478.588 271.212C478.269 270.893 478.109 270.464 478.109 269.927C478.109 269.426 478.264 269.011 478.574 268.683C478.884 268.355 479.253 268.191 479.681 268.191C480.177 268.191 480.565 268.348 480.843 268.663C481.12 268.972 481.259 269.389 481.259 269.913C481.259 269.995 481.255 270.064 481.246 270.118H478.772C478.777 270.41 478.872 270.649 479.059 270.836C479.25 271.023 479.485 271.116 479.763 271.116C480.232 271.116 480.54 270.895 480.685 270.453ZM483.46 268.786C483.182 268.786 482.945 268.886 482.749 269.086C482.558 269.287 482.462 269.569 482.462 269.934C482.462 270.294 482.558 270.576 482.749 270.781C482.945 270.986 483.184 271.089 483.467 271.089C483.74 271.089 483.947 271.02 484.088 270.884C484.234 270.747 484.332 270.59 484.382 270.412L484.949 270.658C484.858 270.931 484.685 271.171 484.43 271.376C484.179 271.581 483.858 271.683 483.467 271.683C482.988 271.683 482.592 271.517 482.278 271.184C481.963 270.852 481.806 270.435 481.806 269.934C481.806 269.423 481.963 269.007 482.278 268.683C482.592 268.355 482.986 268.191 483.46 268.191C483.861 268.191 484.184 268.294 484.43 268.499C484.681 268.704 484.845 268.95 484.922 269.237L484.341 269.483C484.291 269.291 484.195 269.127 484.054 268.991C483.913 268.854 483.715 268.786 483.46 268.786ZM486.345 269.647V271.581H485.703V266.633H486.345V268.676C486.564 268.357 486.896 268.198 487.343 268.198C487.721 268.198 488.01 268.319 488.211 268.56C488.416 268.802 488.518 269.114 488.518 269.496V271.581H487.876V269.606C487.876 269.054 487.621 268.779 487.111 268.779C486.874 268.779 486.689 268.861 486.557 269.025C486.425 269.184 486.354 269.392 486.345 269.647Z" fill="#058FC6"/>
<rect x="500.677" y="260.581" width="39.9335" height="18" rx="2.96191" fill="#E6F6DA"/>
<rect x="500.677" y="260.581" width="39.9335" height="18" rx="2.96191" stroke="#27AE60"/>
<path d="M510.333 271.581L509.807 270.228H507.661L507.149 271.581H506.431L508.358 266.736H509.13L511.057 271.581H510.333ZM508.727 267.433L507.9 269.606H509.568L508.727 267.433ZM511.368 271.758L511.99 271.615C512.013 271.847 512.106 272.038 512.27 272.189C512.434 272.344 512.639 272.421 512.885 272.421C513.555 272.421 513.89 272.066 513.89 271.355V270.884C513.808 271.043 513.678 271.173 513.5 271.273C513.327 271.373 513.122 271.423 512.885 271.423C512.448 271.423 512.086 271.275 511.799 270.979C511.516 270.679 511.375 270.296 511.375 269.831C511.375 269.38 511.516 269.002 511.799 268.697C512.081 268.387 512.443 268.232 512.885 268.232C513.386 268.232 513.724 268.405 513.897 268.752V268.294H514.532V271.335C514.532 271.553 514.503 271.756 514.443 271.943C514.389 272.134 514.3 272.309 514.177 272.469C514.054 272.628 513.881 272.754 513.657 272.845C513.439 272.936 513.181 272.981 512.885 272.981C512.48 272.981 512.136 272.865 511.853 272.633C511.571 272.405 511.409 272.114 511.368 271.758ZM512.981 270.884C513.259 270.884 513.484 270.788 513.657 270.597C513.831 270.401 513.917 270.146 513.917 269.831C513.917 269.517 513.831 269.264 513.657 269.073C513.484 268.877 513.259 268.779 512.981 268.779C512.699 268.779 512.468 268.875 512.291 269.066C512.118 269.257 512.031 269.512 512.031 269.831C512.031 270.155 512.115 270.412 512.284 270.603C512.457 270.79 512.689 270.884 512.981 270.884ZM517.383 268.26V268.943C517.287 268.929 517.193 268.922 517.102 268.922C516.501 268.922 516.2 269.259 516.2 269.934V271.581H515.558V268.294H516.187V268.868C516.387 268.449 516.715 268.239 517.171 268.239C517.244 268.239 517.314 268.246 517.383 268.26ZM518.71 270.802C518.911 271.007 519.154 271.109 519.441 271.109C519.728 271.109 519.97 271.007 520.166 270.802C520.366 270.592 520.466 270.303 520.466 269.934C520.466 269.569 520.366 269.285 520.166 269.08C519.97 268.87 519.728 268.765 519.441 268.765C519.154 268.765 518.911 268.87 518.71 269.08C518.514 269.285 518.416 269.569 518.416 269.934C518.416 270.303 518.514 270.592 518.71 270.802ZM518.232 268.69C518.551 268.357 518.954 268.191 519.441 268.191C519.929 268.191 520.33 268.357 520.644 268.69C520.963 269.018 521.122 269.433 521.122 269.934C521.122 270.439 520.965 270.859 520.651 271.191C520.337 271.519 519.933 271.683 519.441 271.683C518.949 271.683 518.546 271.519 518.232 271.191C517.918 270.859 517.76 270.439 517.76 269.934C517.76 269.433 517.918 269.018 518.232 268.69ZM522.772 267.255V268.294H523.483V268.875H522.772V270.583C522.772 270.738 522.806 270.852 522.874 270.925C522.947 270.997 523.066 271.034 523.23 271.034C523.325 271.034 523.41 271.025 523.483 271.007V271.553C523.373 271.594 523.228 271.615 523.045 271.615C522.763 271.615 522.54 271.533 522.376 271.369C522.212 271.205 522.13 270.975 522.13 270.679V268.875H521.501V268.294H521.679C521.847 268.294 521.972 268.248 522.054 268.157C522.141 268.061 522.184 267.938 522.184 267.788V267.255H522.772ZM524.723 269.599H526.521C526.512 269.353 526.43 269.152 526.275 268.998C526.12 268.838 525.901 268.758 525.619 268.758C525.364 268.758 525.154 268.843 524.99 269.011C524.826 269.175 524.737 269.371 524.723 269.599ZM526.616 270.453L527.17 270.644C527.074 270.95 526.896 271.2 526.637 271.396C526.377 271.587 526.063 271.683 525.694 271.683C525.234 271.683 524.842 271.526 524.518 271.212C524.2 270.893 524.04 270.464 524.04 269.927C524.04 269.426 524.195 269.011 524.505 268.683C524.815 268.355 525.184 268.191 525.612 268.191C526.108 268.191 526.496 268.348 526.773 268.663C527.051 268.972 527.19 269.389 527.19 269.913C527.19 269.995 527.186 270.064 527.177 270.118H524.703C524.708 270.41 524.803 270.649 524.99 270.836C525.181 271.023 525.416 271.116 525.694 271.116C526.163 271.116 526.471 270.895 526.616 270.453ZM529.391 268.786C529.113 268.786 528.876 268.886 528.68 269.086C528.489 269.287 528.393 269.569 528.393 269.934C528.393 270.294 528.489 270.576 528.68 270.781C528.876 270.986 529.115 271.089 529.397 271.089C529.671 271.089 529.878 271.02 530.019 270.884C530.165 270.747 530.263 270.59 530.313 270.412L530.88 270.658C530.789 270.931 530.616 271.171 530.361 271.376C530.11 271.581 529.789 271.683 529.397 271.683C528.919 271.683 528.523 271.517 528.208 271.184C527.894 270.852 527.737 270.435 527.737 269.934C527.737 269.423 527.894 269.007 528.208 268.683C528.523 268.355 528.917 268.191 529.391 268.191C529.792 268.191 530.115 268.294 530.361 268.499C530.612 268.704 530.776 268.95 530.853 269.237L530.272 269.483C530.222 269.291 530.126 269.127 529.985 268.991C529.844 268.854 529.646 268.786 529.391 268.786ZM532.276 269.647V271.581H531.634V266.633H532.276V268.676C532.495 268.357 532.827 268.198 533.274 268.198C533.652 268.198 533.941 268.319 534.142 268.56C534.347 268.802 534.449 269.114 534.449 269.496V271.581H533.807V269.606C533.807 269.054 533.552 268.779 533.042 268.779C532.805 268.779 532.62 268.861 532.488 269.025C532.356 269.184 532.285 269.392 532.276 269.647Z" fill="#27AE60"/>
<rect x="589.415" y="261.419" width="37.9371" height="16.3221" rx="0.829304" fill="#EEF3FD"/>
<rect x="589.415" y="261.419" width="37.9371" height="16.3221" rx="0.829304" stroke="#9CA3AF" stroke-width="0.331721"/>
<path d="M597.708 272.58H596.78V265.995H597.708V272.58ZM600.163 269.998V272.58H599.29V268.112H600.144V268.753C600.442 268.239 600.9 267.982 601.519 267.982C602.033 267.982 602.426 268.147 602.699 268.475C602.977 268.803 603.117 269.227 603.117 269.747V272.58H602.244V269.896C602.244 269.147 601.897 268.772 601.203 268.772C600.875 268.772 600.618 268.89 600.432 269.125C600.253 269.354 600.163 269.645 600.163 269.998ZM608.332 268.112L606.549 272.58H605.666L603.855 268.112H604.84L606.112 271.558L607.394 268.112H608.332ZM609.598 269.886H612.041C612.029 269.552 611.917 269.28 611.707 269.069C611.496 268.852 611.199 268.744 610.815 268.744C610.468 268.744 610.183 268.859 609.96 269.088C609.738 269.311 609.617 269.577 609.598 269.886ZM612.171 271.048L612.923 271.308C612.793 271.722 612.552 272.063 612.199 272.329C611.846 272.589 611.419 272.719 610.917 272.719C610.292 272.719 609.759 272.506 609.32 272.079C608.886 271.645 608.669 271.063 608.669 270.332C608.669 269.651 608.88 269.088 609.301 268.642C609.722 268.196 610.224 267.973 610.806 267.973C611.481 267.973 612.007 268.187 612.385 268.614C612.762 269.035 612.951 269.602 612.951 270.314C612.951 270.425 612.945 270.518 612.933 270.592H609.57C609.577 270.989 609.707 271.314 609.96 271.568C610.22 271.822 610.539 271.948 610.917 271.948C611.555 271.948 611.973 271.648 612.171 271.048ZM613.648 271.419L614.437 271.14C614.468 271.382 614.573 271.583 614.753 271.744C614.933 271.899 615.174 271.976 615.478 271.976C615.713 271.976 615.899 271.921 616.035 271.809C616.171 271.692 616.239 271.549 616.239 271.382C616.239 271.085 616.047 270.893 615.663 270.806L614.902 270.639C614.555 270.565 614.282 270.416 614.084 270.193C613.886 269.97 613.787 269.701 613.787 269.385C613.787 269.001 613.942 268.67 614.252 268.391C614.567 268.112 614.942 267.973 615.375 267.973C615.66 267.973 615.914 268.016 616.137 268.103C616.36 268.184 616.533 268.292 616.657 268.428C616.781 268.564 616.874 268.691 616.936 268.809C616.998 268.927 617.044 269.047 617.075 269.171L616.304 269.459C616.292 269.385 616.27 269.314 616.239 269.246C616.208 269.171 616.159 269.091 616.091 269.004C616.029 268.917 615.936 268.849 615.812 268.8C615.688 268.744 615.543 268.716 615.375 268.716C615.159 268.716 614.979 268.775 614.837 268.893C614.7 269.01 614.632 269.15 614.632 269.311C614.632 269.595 614.803 269.775 615.143 269.849L615.868 270.007C616.264 270.094 616.567 270.255 616.778 270.49C616.995 270.719 617.103 271.001 617.103 271.335C617.103 271.688 616.957 272.007 616.666 272.292C616.382 272.577 615.982 272.719 615.468 272.719C614.917 272.719 614.487 272.583 614.177 272.311C613.868 272.032 613.691 271.735 613.648 271.419ZM619.436 266.701V268.112H620.402V268.902H619.436V271.224C619.436 271.435 619.482 271.589 619.575 271.688C619.674 271.787 619.835 271.837 620.058 271.837C620.188 271.837 620.303 271.825 620.402 271.8V272.543C620.253 272.599 620.055 272.627 619.807 272.627C619.423 272.627 619.12 272.515 618.897 272.292C618.674 272.069 618.563 271.757 618.563 271.354V268.902H617.708V268.112H617.95C618.179 268.112 618.349 268.051 618.46 267.927C618.578 267.797 618.637 267.629 618.637 267.425V266.701H619.436Z" fill="#6B7280"/>
<circle cx="282.677" cy="318.803" r="17.1947" fill="#EDEBFE"/>
<path d="M290.045 322.829V324.835H276.671V322.829C276.671 322.461 276.972 322.16 277.34 322.16H289.376C289.744 322.16 290.045 322.461 290.045 322.829Z" fill="#7E3AF2" stroke="#7E3AF2" stroke-width="1.00302" stroke-miterlimit="10" stroke-linecap="round" stroke-linejoin="round"/>
<path d="M280.015 317.479H278.678V322.16H280.015V317.479Z" fill="#7E3AF2"/>
<path d="M282.69 317.479H281.353V322.16H282.69V317.479Z" fill="#7E3AF2"/>
<path d="M285.365 317.479H284.027V322.16H285.365V317.479Z" fill="#7E3AF2"/>
<path d="M288.039 317.479H286.701V322.16H288.039V317.479Z" fill="#7E3AF2"/>
<path d="M290.714 325.337H276.002C275.728 325.337 275.501 325.109 275.501 324.835C275.501 324.561 275.728 324.333 276.002 324.333H290.714C290.988 324.333 291.215 324.561 291.215 324.835C291.215 325.109 290.988 325.337 290.714 325.337Z" fill="#7E3AF2"/>
<path d="M289.623 313.969L283.605 311.562C283.471 311.508 283.244 311.508 283.11 311.562L277.092 313.969C276.858 314.062 276.671 314.337 276.671 314.591V316.811C276.671 317.179 276.972 317.479 277.34 317.479H289.376C289.744 317.479 290.045 317.179 290.045 316.811V314.591C290.045 314.337 289.857 314.062 289.623 313.969ZM283.358 315.808C282.803 315.808 282.355 315.36 282.355 314.805C282.355 314.25 282.803 313.802 283.358 313.802C283.913 313.802 284.361 314.25 284.361 314.805C284.361 315.36 283.913 315.808 283.358 315.808Z" fill="#7E3AF2"/>
<path d="M288.711 322.829V324.835H275.337V322.829C275.337 322.461 275.638 322.16 276.006 322.16H288.042C288.41 322.16 288.711 322.461 288.711 322.829Z" fill="white" stroke="white" stroke-width="1.00302" stroke-miterlimit="10" stroke-linecap="round" stroke-linejoin="round"/>
<path d="M278.681 317.479H277.344V322.16H278.681V317.479Z" fill="white"/>
<path d="M281.356 317.479H280.019V322.16H281.356V317.479Z" fill="white"/>
<path d="M284.031 317.479H282.693V322.16H284.031V317.479Z" fill="white"/>
<path d="M286.705 317.479H285.367V322.16H286.705V317.479Z" fill="white"/>
<path d="M289.38 325.337H274.669C274.394 325.337 274.167 325.109 274.167 324.835C274.167 324.561 274.394 324.333 274.669 324.333H289.38C289.654 324.333 289.881 324.561 289.881 324.835C289.881 325.109 289.654 325.337 289.38 325.337Z" fill="white"/>
<path d="M288.289 313.969L282.271 311.562C282.137 311.508 281.91 311.508 281.776 311.562L275.758 313.969C275.524 314.062 275.337 314.337 275.337 314.591V316.811C275.337 317.179 275.638 317.479 276.006 317.479H288.042C288.41 317.479 288.711 317.179 288.711 316.811V314.591C288.711 314.337 288.523 314.062 288.289 313.969ZM282.024 315.808C281.469 315.808 281.021 315.36 281.021 314.805C281.021 314.25 281.469 313.802 282.024 313.802C282.579 313.802 283.027 314.25 283.027 314.805C283.027 315.36 282.579 315.808 282.024 315.808Z" fill="white"/>
<path d="M320.623 315.986L319.289 316.406C319.231 316.069 319.062 315.76 318.782 315.48C318.502 315.2 318.099 315.06 317.572 315.06C317.135 315.06 316.773 315.183 316.485 315.43C316.205 315.677 316.065 315.974 316.065 316.32C316.065 316.921 316.406 317.296 317.09 317.444L318.35 317.703C319.108 317.852 319.692 318.152 320.104 318.605C320.516 319.058 320.722 319.597 320.722 320.223C320.722 320.948 320.442 321.574 319.882 322.101C319.33 322.62 318.576 322.879 317.621 322.879C316.592 322.879 315.789 322.611 315.212 322.076C314.636 321.533 314.311 320.903 314.236 320.186L315.62 319.791C315.669 320.285 315.867 320.701 316.213 321.039C316.559 321.376 317.028 321.545 317.621 321.545C318.132 321.545 318.523 321.434 318.795 321.212C319.075 320.981 319.215 320.689 319.215 320.334C319.215 320.046 319.112 319.799 318.906 319.593C318.7 319.379 318.412 319.231 318.041 319.149L316.806 318.889C316.122 318.749 315.579 318.465 315.175 318.037C314.78 317.609 314.582 317.073 314.582 316.431C314.582 315.698 314.875 315.068 315.459 314.541C316.044 314.014 316.744 313.75 317.559 313.75C318.49 313.75 319.202 313.977 319.696 314.43C320.191 314.875 320.499 315.393 320.623 315.986ZM323.929 314.837V316.678H325.177V317.95H323.929V320.742C323.929 321.006 323.991 321.199 324.115 321.323C324.238 321.438 324.432 321.496 324.695 321.496C324.86 321.496 325.025 321.479 325.189 321.446V322.632C324.975 322.723 324.683 322.768 324.312 322.768C323.752 322.768 323.312 322.611 322.991 322.299C322.669 321.977 322.509 321.537 322.509 320.977V317.95H321.397V316.678H321.706C322.011 316.678 322.241 316.592 322.398 316.419C322.554 316.246 322.632 316.019 322.632 315.739V314.837H323.929ZM326.291 321.063C326.291 320.553 326.456 320.145 326.785 319.84C327.123 319.527 327.563 319.33 328.107 319.247L329.651 319.013C329.947 318.972 330.096 318.827 330.096 318.58C330.096 318.309 330.001 318.09 329.811 317.926C329.622 317.753 329.338 317.666 328.959 317.666C328.597 317.666 328.309 317.769 328.094 317.975C327.88 318.173 327.757 318.432 327.724 318.753L326.414 318.457C326.472 317.913 326.731 317.452 327.193 317.073C327.654 316.686 328.239 316.493 328.947 316.493C329.82 316.493 330.462 316.703 330.874 317.123C331.294 317.543 331.504 318.082 331.504 318.741V321.73C331.504 322.126 331.528 322.447 331.578 322.694H330.244C330.203 322.57 330.182 322.315 330.182 321.928C329.787 322.562 329.169 322.879 328.329 322.879C327.72 322.879 327.226 322.702 326.847 322.348C326.476 321.986 326.291 321.557 326.291 321.063ZM328.601 321.755C329.046 321.755 329.404 321.636 329.676 321.397C329.956 321.15 330.096 320.75 330.096 320.199V319.927L328.527 320.162C327.991 320.252 327.724 320.524 327.724 320.977C327.724 321.191 327.802 321.376 327.959 321.533C328.115 321.681 328.329 321.755 328.601 321.755ZM336.756 316.641V318.099C336.592 318.074 336.435 318.062 336.287 318.062C335.208 318.062 334.669 318.65 334.669 319.828V322.694H333.236V316.678H334.632V317.642C334.772 317.32 334.998 317.069 335.311 316.888C335.624 316.699 335.978 316.604 336.374 316.604C336.505 316.604 336.633 316.616 336.756 316.641ZM340.034 314.837V316.678H341.282V317.95H340.034V320.742C340.034 321.006 340.096 321.199 340.219 321.323C340.343 321.438 340.536 321.496 340.8 321.496C340.965 321.496 341.129 321.479 341.294 321.446V322.632C341.08 322.723 340.787 322.768 340.417 322.768C339.857 322.768 339.416 322.611 339.095 322.299C338.774 321.977 338.613 321.537 338.613 320.977V317.95H337.502V316.678H337.81C338.115 316.678 338.346 316.592 338.502 316.419C338.659 316.246 338.737 316.019 338.737 315.739V314.837H340.034ZM345.843 319.717H342.359V318.444H345.843V319.717ZM351.242 322.027C351.102 322.29 350.871 322.496 350.55 322.644C350.237 322.793 349.899 322.867 349.537 322.867C348.837 322.867 348.281 322.64 347.869 322.187C347.466 321.734 347.264 321.162 347.264 320.47V316.678H348.697V320.211C348.697 320.614 348.796 320.944 348.993 321.199C349.191 321.454 349.496 321.582 349.908 321.582C350.311 321.582 350.62 321.459 350.834 321.212C351.056 320.964 351.168 320.639 351.168 320.236V316.678H352.6V321.594C352.6 321.957 352.621 322.323 352.662 322.694H351.291C351.258 322.513 351.242 322.29 351.242 322.027ZM355.876 325.041H354.455V316.678H355.839V317.493C355.995 317.222 356.242 316.995 356.58 316.814C356.918 316.633 357.309 316.542 357.753 316.542C358.618 316.542 359.298 316.839 359.792 317.432C360.286 318.016 360.533 318.766 360.533 319.68C360.533 320.594 360.273 321.352 359.755 321.953C359.236 322.546 358.552 322.842 357.704 322.842C357.292 322.842 356.926 322.764 356.605 322.607C356.283 322.451 356.04 322.253 355.876 322.014V325.041ZM359.1 319.68C359.1 319.12 358.952 318.671 358.655 318.333C358.359 317.987 357.968 317.814 357.482 317.814C357.004 317.814 356.613 317.987 356.308 318.333C356.012 318.671 355.863 319.12 355.863 319.68C355.863 320.248 356.012 320.705 356.308 321.051C356.613 321.397 357.004 321.57 357.482 321.57C357.959 321.57 358.346 321.397 358.643 321.051C358.948 320.705 359.1 320.248 359.1 319.68ZM371.089 322.694L370.261 320.495H366.556L365.74 322.694H364.171L367.581 313.936H369.298L372.707 322.694H371.089ZM368.408 315.542L367.074 319.124H369.743L368.408 315.542Z" fill="black"/>
<rect x="421.962" y="309.194" width="33.9335" height="18" rx="2.96191" fill="#F5F6F7"/>
<rect x="421.962" y="309.194" width="33.9335" height="18" rx="2.96191" stroke="#BDBDBD"/>
<path d="M428.785 320.194H428.116V315.349H431.061V315.971H428.785V317.529H430.849V318.157H428.785V320.194ZM432.413 320.194H431.778V316.907H432.413V320.194ZM431.764 315.991C431.678 315.9 431.634 315.791 431.634 315.663C431.634 315.536 431.678 315.426 431.764 315.335C431.855 315.244 431.965 315.199 432.092 315.199C432.22 315.199 432.329 315.244 432.42 315.335C432.511 315.422 432.557 315.531 432.557 315.663C432.557 315.791 432.511 315.9 432.42 315.991C432.329 316.078 432.22 316.121 432.092 316.121C431.965 316.121 431.855 316.078 431.764 315.991ZM434.149 318.294V320.194H433.506V316.907H434.135V317.378C434.354 317 434.691 316.811 435.146 316.811C435.524 316.811 435.814 316.932 436.014 317.173C436.219 317.415 436.322 317.727 436.322 318.11V320.194H435.679V318.219C435.679 317.668 435.424 317.392 434.914 317.392C434.672 317.392 434.483 317.479 434.347 317.652C434.215 317.82 434.149 318.034 434.149 318.294ZM438.204 315.868V316.907H438.915V317.488H438.204V319.196C438.204 319.351 438.238 319.465 438.307 319.538C438.38 319.611 438.498 319.647 438.662 319.647C438.758 319.647 438.842 319.638 438.915 319.62V320.167C438.806 320.208 438.66 320.228 438.478 320.228C438.195 320.228 437.972 320.146 437.808 319.982C437.644 319.818 437.562 319.588 437.562 319.292V317.488H436.933V316.907H437.111C437.28 316.907 437.405 316.861 437.487 316.77C437.573 316.675 437.617 316.552 437.617 316.401V315.868H438.204ZM440.156 318.212H441.953C441.944 317.966 441.862 317.766 441.707 317.611C441.552 317.451 441.333 317.372 441.051 317.372C440.796 317.372 440.586 317.456 440.422 317.624C440.258 317.788 440.169 317.984 440.156 318.212ZM442.049 319.066L442.602 319.258C442.507 319.563 442.329 319.813 442.069 320.009C441.809 320.201 441.495 320.296 441.126 320.296C440.666 320.296 440.274 320.139 439.951 319.825C439.632 319.506 439.472 319.078 439.472 318.54C439.472 318.039 439.627 317.624 439.937 317.296C440.247 316.968 440.616 316.804 441.044 316.804C441.541 316.804 441.928 316.962 442.206 317.276C442.484 317.586 442.623 318.003 442.623 318.526C442.623 318.608 442.618 318.677 442.609 318.731H440.135C440.14 319.023 440.236 319.262 440.422 319.449C440.614 319.636 440.848 319.729 441.126 319.729C441.595 319.729 441.903 319.508 442.049 319.066ZM444.823 317.399C444.545 317.399 444.308 317.499 444.112 317.7C443.921 317.9 443.825 318.183 443.825 318.547C443.825 318.907 443.921 319.189 444.112 319.394C444.308 319.599 444.547 319.702 444.83 319.702C445.103 319.702 445.31 319.634 445.452 319.497C445.597 319.36 445.695 319.203 445.745 319.025L446.313 319.271C446.222 319.545 446.048 319.784 445.793 319.989C445.543 320.194 445.222 320.296 444.83 320.296C444.351 320.296 443.955 320.13 443.641 319.798C443.326 319.465 443.169 319.048 443.169 318.547C443.169 318.037 443.326 317.62 443.641 317.296C443.955 316.968 444.349 316.804 444.823 316.804C445.224 316.804 445.547 316.907 445.793 317.112C446.044 317.317 446.208 317.563 446.285 317.85L445.704 318.096C445.654 317.905 445.559 317.741 445.417 317.604C445.276 317.467 445.078 317.399 444.823 317.399ZM447.709 318.26V320.194H447.066V315.246H447.709V317.29C447.927 316.971 448.26 316.811 448.706 316.811C449.084 316.811 449.374 316.932 449.574 317.173C449.779 317.415 449.882 317.727 449.882 318.11V320.194H449.239V318.219C449.239 317.668 448.984 317.392 448.474 317.392C448.237 317.392 448.052 317.474 447.92 317.638C447.788 317.798 447.718 318.005 447.709 318.26Z" fill="black"/>
<rect x="461.819" y="309.194" width="32.9335" height="18" rx="2.96191" fill="#CDEEFC"/>
<rect x="461.819" y="309.194" width="32.9335" height="18" rx="2.96191" stroke="#2F80ED"/>
<path d="M471.139 320.194H468.194V315.349H471.139V315.971H468.864V317.46H470.927V318.089H468.864V319.572H471.139V320.194ZM472.345 318.54C472.345 318.886 472.43 319.169 472.598 319.388C472.771 319.606 473.008 319.716 473.309 319.716C473.596 319.716 473.826 319.604 473.999 319.381C474.172 319.157 474.259 318.873 474.259 318.526C474.259 318.185 474.174 317.909 474.006 317.7C473.837 317.49 473.607 317.385 473.316 317.385C473.024 317.385 472.79 317.492 472.612 317.706C472.434 317.921 472.345 318.198 472.345 318.54ZM474.266 319.75V319.695C474.179 319.864 474.047 320.005 473.869 320.119C473.696 320.228 473.489 320.283 473.247 320.283C472.778 320.283 472.4 320.119 472.113 319.791C471.831 319.458 471.689 319.041 471.689 318.54C471.689 318.062 471.835 317.656 472.127 317.324C472.418 316.987 472.792 316.818 473.247 316.818C473.516 316.818 473.735 316.873 473.903 316.982C474.072 317.087 474.188 317.217 474.252 317.372V315.246H474.887V319.586C474.887 319.809 474.899 320.012 474.922 320.194H474.3C474.277 320.066 474.266 319.918 474.266 319.75ZM476.841 315.868V316.907H477.552V317.488H476.841V319.196C476.841 319.351 476.875 319.465 476.944 319.538C477.016 319.611 477.135 319.647 477.299 319.647C477.395 319.647 477.479 319.638 477.552 319.62V320.167C477.442 320.208 477.297 320.228 477.114 320.228C476.832 320.228 476.609 320.146 476.445 319.982C476.281 319.818 476.199 319.588 476.199 319.292V317.488H475.57V316.907H475.748C475.916 316.907 476.041 316.861 476.123 316.77C476.21 316.675 476.253 316.552 476.253 316.401V315.868H476.841ZM478.793 318.212H480.59C480.581 317.966 480.499 317.766 480.344 317.611C480.189 317.451 479.97 317.372 479.688 317.372C479.433 317.372 479.223 317.456 479.059 317.624C478.895 317.788 478.806 317.984 478.793 318.212ZM480.685 319.066L481.239 319.258C481.143 319.563 480.966 319.813 480.706 320.009C480.446 320.201 480.132 320.296 479.763 320.296C479.303 320.296 478.911 320.139 478.588 319.825C478.269 319.506 478.109 319.078 478.109 318.54C478.109 318.039 478.264 317.624 478.574 317.296C478.884 316.968 479.253 316.804 479.681 316.804C480.177 316.804 480.565 316.962 480.843 317.276C481.12 317.586 481.259 318.003 481.259 318.526C481.259 318.608 481.255 318.677 481.246 318.731H478.772C478.777 319.023 478.872 319.262 479.059 319.449C479.25 319.636 479.485 319.729 479.763 319.729C480.232 319.729 480.54 319.508 480.685 319.066ZM483.46 317.399C483.182 317.399 482.945 317.499 482.749 317.7C482.558 317.9 482.462 318.183 482.462 318.547C482.462 318.907 482.558 319.189 482.749 319.394C482.945 319.599 483.184 319.702 483.467 319.702C483.74 319.702 483.947 319.634 484.088 319.497C484.234 319.36 484.332 319.203 484.382 319.025L484.949 319.271C484.858 319.545 484.685 319.784 484.43 319.989C484.179 320.194 483.858 320.296 483.467 320.296C482.988 320.296 482.592 320.13 482.278 319.798C481.963 319.465 481.806 319.048 481.806 318.547C481.806 318.037 481.963 317.62 482.278 317.296C482.592 316.968 482.986 316.804 483.46 316.804C483.861 316.804 484.184 316.907 484.43 317.112C484.681 317.317 484.845 317.563 484.922 317.85L484.341 318.096C484.291 317.905 484.195 317.741 484.054 317.604C483.913 317.467 483.715 317.399 483.46 317.399ZM486.345 318.26V320.194H485.703V315.246H486.345V317.29C486.564 316.971 486.896 316.811 487.343 316.811C487.721 316.811 488.01 316.932 488.211 317.173C488.416 317.415 488.518 317.727 488.518 318.11V320.194H487.876V318.219C487.876 317.668 487.621 317.392 487.111 317.392C486.874 317.392 486.689 317.474 486.557 317.638C486.425 317.798 486.354 318.005 486.345 318.26Z" fill="#058FC6"/>
<rect x="500.677" y="309.194" width="39.9335" height="18" rx="2.96191" fill="#E6F6DA"/>
<rect x="500.677" y="309.194" width="39.9335" height="18" rx="2.96191" stroke="#27AE60"/>
<path d="M510.333 320.194L509.807 318.841H507.661L507.149 320.194H506.431L508.358 315.349H509.13L511.057 320.194H510.333ZM508.727 316.046L507.9 318.219H509.568L508.727 316.046ZM511.368 320.372L511.99 320.228C512.013 320.46 512.106 320.652 512.27 320.802C512.434 320.957 512.639 321.034 512.885 321.034C513.555 321.034 513.89 320.679 513.89 319.968V319.497C513.808 319.656 513.678 319.786 513.5 319.886C513.327 319.987 513.122 320.037 512.885 320.037C512.448 320.037 512.086 319.889 511.799 319.593C511.516 319.292 511.375 318.909 511.375 318.444C511.375 317.993 511.516 317.615 511.799 317.31C512.081 317 512.443 316.845 512.885 316.845C513.386 316.845 513.724 317.019 513.897 317.365V316.907H514.532V319.948C514.532 320.167 514.503 320.369 514.443 320.556C514.389 320.747 514.3 320.923 514.177 321.082C514.054 321.242 513.881 321.367 513.657 321.458C513.439 321.549 513.181 321.595 512.885 321.595C512.48 321.595 512.136 321.479 511.853 321.246C511.571 321.018 511.409 320.727 511.368 320.372ZM512.981 319.497C513.259 319.497 513.484 319.401 513.657 319.21C513.831 319.014 513.917 318.759 513.917 318.444C513.917 318.13 513.831 317.877 513.657 317.686C513.484 317.49 513.259 317.392 512.981 317.392C512.699 317.392 512.468 317.488 512.291 317.679C512.118 317.87 512.031 318.126 512.031 318.444C512.031 318.768 512.115 319.025 512.284 319.217C512.457 319.403 512.689 319.497 512.981 319.497ZM517.383 316.873V317.556C517.287 317.542 517.193 317.536 517.102 317.536C516.501 317.536 516.2 317.873 516.2 318.547V320.194H515.558V316.907H516.187V317.481C516.387 317.062 516.715 316.852 517.171 316.852C517.244 316.852 517.314 316.859 517.383 316.873ZM518.71 319.415C518.911 319.62 519.154 319.722 519.441 319.722C519.728 319.722 519.97 319.62 520.166 319.415C520.366 319.205 520.466 318.916 520.466 318.547C520.466 318.183 520.366 317.898 520.166 317.693C519.97 317.483 519.728 317.378 519.441 317.378C519.154 317.378 518.911 317.483 518.71 317.693C518.514 317.898 518.416 318.183 518.416 318.547C518.416 318.916 518.514 319.205 518.71 319.415ZM518.232 317.303C518.551 316.971 518.954 316.804 519.441 316.804C519.929 316.804 520.33 316.971 520.644 317.303C520.963 317.631 521.122 318.046 521.122 318.547C521.122 319.053 520.965 319.472 520.651 319.804C520.337 320.132 519.933 320.296 519.441 320.296C518.949 320.296 518.546 320.132 518.232 319.804C517.918 319.472 517.76 319.053 517.76 318.547C517.76 318.046 517.918 317.631 518.232 317.303ZM522.772 315.868V316.907H523.483V317.488H522.772V319.196C522.772 319.351 522.806 319.465 522.874 319.538C522.947 319.611 523.066 319.647 523.23 319.647C523.325 319.647 523.41 319.638 523.483 319.62V320.167C523.373 320.208 523.228 320.228 523.045 320.228C522.763 320.228 522.54 320.146 522.376 319.982C522.212 319.818 522.13 319.588 522.13 319.292V317.488H521.501V316.907H521.679C521.847 316.907 521.972 316.861 522.054 316.77C522.141 316.675 522.184 316.552 522.184 316.401V315.868H522.772ZM524.723 318.212H526.521C526.512 317.966 526.43 317.766 526.275 317.611C526.12 317.451 525.901 317.372 525.619 317.372C525.364 317.372 525.154 317.456 524.99 317.624C524.826 317.788 524.737 317.984 524.723 318.212ZM526.616 319.066L527.17 319.258C527.074 319.563 526.896 319.813 526.637 320.009C526.377 320.201 526.063 320.296 525.694 320.296C525.234 320.296 524.842 320.139 524.518 319.825C524.2 319.506 524.04 319.078 524.04 318.54C524.04 318.039 524.195 317.624 524.505 317.296C524.815 316.968 525.184 316.804 525.612 316.804C526.108 316.804 526.496 316.962 526.773 317.276C527.051 317.586 527.19 318.003 527.19 318.526C527.19 318.608 527.186 318.677 527.177 318.731H524.703C524.708 319.023 524.803 319.262 524.99 319.449C525.181 319.636 525.416 319.729 525.694 319.729C526.163 319.729 526.471 319.508 526.616 319.066ZM529.391 317.399C529.113 317.399 528.876 317.499 528.68 317.7C528.489 317.9 528.393 318.183 528.393 318.547C528.393 318.907 528.489 319.189 528.68 319.394C528.876 319.599 529.115 319.702 529.397 319.702C529.671 319.702 529.878 319.634 530.019 319.497C530.165 319.36 530.263 319.203 530.313 319.025L530.88 319.271C530.789 319.545 530.616 319.784 530.361 319.989C530.11 320.194 529.789 320.296 529.397 320.296C528.919 320.296 528.523 320.13 528.208 319.798C527.894 319.465 527.737 319.048 527.737 318.547C527.737 318.037 527.894 317.62 528.208 317.296C528.523 316.968 528.917 316.804 529.391 316.804C529.792 316.804 530.115 316.907 530.361 317.112C530.612 317.317 530.776 317.563 530.853 317.85L530.272 318.096C530.222 317.905 530.126 317.741 529.985 317.604C529.844 317.467 529.646 317.399 529.391 317.399ZM532.276 318.26V320.194H531.634V315.246H532.276V317.29C532.495 316.971 532.827 316.811 533.274 316.811C533.652 316.811 533.941 316.932 534.142 317.173C534.347 317.415 534.449 317.727 534.449 318.11V320.194H533.807V318.219C533.807 317.668 533.552 317.392 533.042 317.392C532.805 317.392 532.62 317.474 532.488 317.638C532.356 317.798 532.285 318.005 532.276 318.26Z" fill="#27AE60"/>
<rect x="589.415" y="310.033" width="37.9371" height="16.3221" rx="0.829304" fill="#EEF3FD"/>
<rect x="589.415" y="310.033" width="37.9371" height="16.3221" rx="0.829304" stroke="#9CA3AF" stroke-width="0.331721"/>
<path d="M597.708 321.193H596.78V314.608H597.708V321.193ZM600.163 318.611V321.193H599.29V316.726H600.144V317.367C600.442 316.853 600.9 316.596 601.519 316.596C602.033 316.596 602.426 316.76 602.699 317.088C602.977 317.416 603.117 317.84 603.117 318.36V321.193H602.244V318.509C602.244 317.76 601.897 317.385 601.203 317.385C600.875 317.385 600.618 317.503 600.432 317.738C600.253 317.967 600.163 318.258 600.163 318.611ZM608.332 316.726L606.549 321.193H605.666L603.855 316.726H604.84L606.112 320.172L607.394 316.726H608.332ZM609.598 318.5H612.041C612.029 318.165 611.917 317.893 611.707 317.682C611.496 317.466 611.199 317.357 610.815 317.357C610.468 317.357 610.183 317.472 609.96 317.701C609.738 317.924 609.617 318.19 609.598 318.5ZM612.171 319.661L612.923 319.921C612.793 320.336 612.552 320.676 612.199 320.943C611.846 321.203 611.419 321.333 610.917 321.333C610.292 321.333 609.759 321.119 609.32 320.692C608.886 320.258 608.669 319.676 608.669 318.946C608.669 318.264 608.88 317.701 609.301 317.255C609.722 316.809 610.224 316.586 610.806 316.586C611.481 316.586 612.007 316.8 612.385 317.227C612.762 317.648 612.951 318.215 612.951 318.927C612.951 319.038 612.945 319.131 612.933 319.206H609.57C609.577 319.602 609.707 319.927 609.96 320.181C610.22 320.435 610.539 320.562 610.917 320.562C611.555 320.562 611.973 320.261 612.171 319.661ZM613.648 320.032L614.437 319.754C614.468 319.995 614.573 320.196 614.753 320.357C614.933 320.512 615.174 320.59 615.478 320.59C615.713 320.59 615.899 320.534 616.035 320.422C616.171 320.305 616.239 320.162 616.239 319.995C616.239 319.698 616.047 319.506 615.663 319.419L614.902 319.252C614.555 319.178 614.282 319.029 614.084 318.806C613.886 318.583 613.787 318.314 613.787 317.998C613.787 317.614 613.942 317.283 614.252 317.004C614.567 316.726 614.942 316.586 615.375 316.586C615.66 316.586 615.914 316.63 616.137 316.716C616.36 316.797 616.533 316.905 616.657 317.042C616.781 317.178 616.874 317.305 616.936 317.422C616.998 317.54 617.044 317.661 617.075 317.785L616.304 318.073C616.292 317.998 616.27 317.927 616.239 317.859C616.208 317.785 616.159 317.704 616.091 317.617C616.029 317.531 615.936 317.463 615.812 317.413C615.688 317.357 615.543 317.329 615.375 317.329C615.159 317.329 614.979 317.388 614.837 317.506C614.7 317.624 614.632 317.763 614.632 317.924C614.632 318.209 614.803 318.388 615.143 318.463L615.868 318.621C616.264 318.707 616.567 318.868 616.778 319.104C616.995 319.333 617.103 319.614 617.103 319.949C617.103 320.302 616.957 320.621 616.666 320.905C616.382 321.19 615.982 321.333 615.468 321.333C614.917 321.333 614.487 321.196 614.177 320.924C613.868 320.645 613.691 320.348 613.648 320.032ZM619.436 315.314V316.726H620.402V317.515H619.436V319.837C619.436 320.048 619.482 320.203 619.575 320.302C619.674 320.401 619.835 320.45 620.058 320.45C620.188 320.45 620.303 320.438 620.402 320.413V321.156C620.253 321.212 620.055 321.24 619.807 321.24C619.423 321.24 619.12 321.128 618.897 320.905C618.674 320.683 618.563 320.37 618.563 319.967V317.515H617.708V316.726H617.95C618.179 316.726 618.349 316.664 618.46 316.54C618.578 316.41 618.637 316.243 618.637 316.038V315.314H619.436Z" fill="#6B7280"/>
<circle cx="282.677" cy="367.415" r="17.1947" fill="#EDEBFE"/>
<path d="M290.045 371.441V373.447H276.671V371.441C276.671 371.073 276.972 370.772 277.34 370.772H289.376C289.744 370.772 290.045 371.073 290.045 371.441Z" fill="#7E3AF2" stroke="#7E3AF2" stroke-width="1.00302" stroke-miterlimit="10" stroke-linecap="round" stroke-linejoin="round"/>
<path d="M280.015 366.092H278.678V370.773H280.015V366.092Z" fill="#7E3AF2"/>
<path d="M282.69 366.092H281.353V370.773H282.69V366.092Z" fill="#7E3AF2"/>
<path d="M285.365 366.092H284.027V370.773H285.365V366.092Z" fill="#7E3AF2"/>
<path d="M288.039 366.092H286.701V370.773H288.039V366.092Z" fill="#7E3AF2"/>
<path d="M290.714 373.949H276.002C275.728 373.949 275.501 373.721 275.501 373.447C275.501 373.173 275.728 372.946 276.002 372.946H290.714C290.988 372.946 291.215 373.173 291.215 373.447C291.215 373.721 290.988 373.949 290.714 373.949Z" fill="#7E3AF2"/>
<path d="M289.623 362.581L283.605 360.174C283.471 360.12 283.244 360.12 283.11 360.174L277.092 362.581C276.858 362.675 276.671 362.949 276.671 363.203V365.423C276.671 365.791 276.972 366.092 277.34 366.092H289.376C289.744 366.092 290.045 365.791 290.045 365.423V363.203C290.045 362.949 289.857 362.675 289.623 362.581ZM283.358 364.42C282.803 364.42 282.355 363.972 282.355 363.417C282.355 362.862 282.803 362.414 283.358 362.414C283.913 362.414 284.361 362.862 284.361 363.417C284.361 363.972 283.913 364.42 283.358 364.42Z" fill="#7E3AF2"/>
<path d="M288.711 371.441V373.447H275.337V371.441C275.337 371.073 275.638 370.772 276.006 370.772H288.042C288.41 370.772 288.711 371.073 288.711 371.441Z" fill="white" stroke="white" stroke-width="1.00302" stroke-miterlimit="10" stroke-linecap="round" stroke-linejoin="round"/>
<path d="M278.681 366.092H277.344V370.773H278.681V366.092Z" fill="white"/>
<path d="M281.356 366.092H280.019V370.773H281.356V366.092Z" fill="white"/>
<path d="M284.031 366.092H282.693V370.773H284.031V366.092Z" fill="white"/>
<path d="M286.705 366.092H285.367V370.773H286.705V366.092Z" fill="white"/>
<path d="M289.38 373.949H274.669C274.394 373.949 274.167 373.721 274.167 373.447C274.167 373.173 274.394 372.946 274.669 372.946H289.38C289.654 372.946 289.881 373.173 289.881 373.447C289.881 373.721 289.654 373.949 289.38 373.949Z" fill="white"/>
<path d="M288.289 362.581L282.271 360.174C282.137 360.12 281.91 360.12 281.776 360.174L275.758 362.581C275.524 362.675 275.337 362.949 275.337 363.203V365.423C275.337 365.791 275.638 366.092 276.006 366.092H288.042C288.41 366.092 288.711 365.791 288.711 365.423V363.203C288.711 362.949 288.523 362.675 288.289 362.581ZM282.024 364.42C281.469 364.42 281.021 363.972 281.021 363.417C281.021 362.862 281.469 362.414 282.024 362.414C282.579 362.414 283.027 362.862 283.027 363.417C283.027 363.972 282.579 364.42 282.024 364.42Z" fill="white"/>
<path d="M320.623 364.599L319.289 365.019C319.231 364.681 319.062 364.373 318.782 364.093C318.502 363.813 318.099 363.673 317.572 363.673C317.135 363.673 316.773 363.796 316.485 364.043C316.205 364.29 316.065 364.587 316.065 364.933C316.065 365.534 316.406 365.908 317.09 366.057L318.35 366.316C319.108 366.464 319.692 366.765 320.104 367.218C320.516 367.671 320.722 368.21 320.722 368.836C320.722 369.561 320.442 370.187 319.882 370.714C319.33 371.233 318.576 371.492 317.621 371.492C316.592 371.492 315.789 371.224 315.212 370.689C314.636 370.145 314.311 369.515 314.236 368.799L315.62 368.404C315.669 368.898 315.867 369.314 316.213 369.651C316.559 369.989 317.028 370.158 317.621 370.158C318.132 370.158 318.523 370.047 318.795 369.824C319.075 369.594 319.215 369.301 319.215 368.947C319.215 368.659 319.112 368.412 318.906 368.206C318.7 367.992 318.412 367.844 318.041 367.761L316.806 367.502C316.122 367.362 315.579 367.078 315.175 366.65C314.78 366.221 314.582 365.686 314.582 365.044C314.582 364.311 314.875 363.681 315.459 363.154C316.044 362.627 316.744 362.363 317.559 362.363C318.49 362.363 319.202 362.59 319.696 363.043C320.191 363.487 320.499 364.006 320.623 364.599ZM323.929 363.45V365.291H325.177V366.563H323.929V369.355C323.929 369.618 323.991 369.812 324.115 369.935C324.238 370.051 324.432 370.108 324.695 370.108C324.86 370.108 325.025 370.092 325.189 370.059V371.245C324.975 371.335 324.683 371.381 324.312 371.381C323.752 371.381 323.312 371.224 322.991 370.911C322.669 370.59 322.509 370.15 322.509 369.59V366.563H321.397V365.291H321.706C322.011 365.291 322.241 365.204 322.398 365.031C322.554 364.858 322.632 364.632 322.632 364.352V363.45H323.929ZM326.291 369.676C326.291 369.165 326.456 368.758 326.785 368.453C327.123 368.14 327.563 367.943 328.107 367.86L329.651 367.626C329.947 367.584 330.096 367.44 330.096 367.193C330.096 366.921 330.001 366.703 329.811 366.538C329.622 366.366 329.338 366.279 328.959 366.279C328.597 366.279 328.309 366.382 328.094 366.588C327.88 366.786 327.757 367.045 327.724 367.366L326.414 367.07C326.472 366.526 326.731 366.065 327.193 365.686C327.654 365.299 328.239 365.106 328.947 365.106C329.82 365.106 330.462 365.316 330.874 365.736C331.294 366.156 331.504 366.695 331.504 367.354V370.343C331.504 370.738 331.528 371.06 331.578 371.307H330.244C330.203 371.183 330.182 370.928 330.182 370.541C329.787 371.175 329.169 371.492 328.329 371.492C327.72 371.492 327.226 371.315 326.847 370.961C326.476 370.598 326.291 370.17 326.291 369.676ZM328.601 370.368C329.046 370.368 329.404 370.248 329.676 370.01C329.956 369.763 330.096 369.363 330.096 368.811V368.54L328.527 368.774C327.991 368.865 327.724 369.137 327.724 369.59C327.724 369.804 327.802 369.989 327.959 370.145C328.115 370.294 328.329 370.368 328.601 370.368ZM336.756 365.254V366.711C336.592 366.687 336.435 366.674 336.287 366.674C335.208 366.674 334.669 367.263 334.669 368.441V371.307H333.236V365.291H334.632V366.254C334.772 365.933 334.998 365.682 335.311 365.501C335.624 365.311 335.978 365.217 336.374 365.217C336.505 365.217 336.633 365.229 336.756 365.254ZM340.034 363.45V365.291H341.282V366.563H340.034V369.355C340.034 369.618 340.096 369.812 340.219 369.935C340.343 370.051 340.536 370.108 340.8 370.108C340.965 370.108 341.129 370.092 341.294 370.059V371.245C341.08 371.335 340.787 371.381 340.417 371.381C339.857 371.381 339.416 371.224 339.095 370.911C338.774 370.59 338.613 370.15 338.613 369.59V366.563H337.502V365.291H337.81C338.115 365.291 338.346 365.204 338.502 365.031C338.659 364.858 338.737 364.632 338.737 364.352V363.45H340.034ZM345.843 368.33H342.359V367.057H345.843V368.33ZM351.242 370.64C351.102 370.903 350.871 371.109 350.55 371.257C350.237 371.405 349.899 371.48 349.537 371.48C348.837 371.48 348.281 371.253 347.869 370.8C347.466 370.347 347.264 369.775 347.264 369.083V365.291H348.697V368.824C348.697 369.227 348.796 369.557 348.993 369.812C349.191 370.067 349.496 370.195 349.908 370.195C350.311 370.195 350.62 370.071 350.834 369.824C351.056 369.577 351.168 369.252 351.168 368.848V365.291H352.6V370.207C352.6 370.57 352.621 370.936 352.662 371.307H351.291C351.258 371.125 351.242 370.903 351.242 370.64ZM355.876 373.654H354.455V365.291H355.839V366.106C355.995 365.834 356.242 365.608 356.58 365.427C356.918 365.246 357.309 365.155 357.753 365.155C358.618 365.155 359.298 365.451 359.792 366.044C360.286 366.629 360.533 367.378 360.533 368.293C360.533 369.207 360.273 369.964 359.755 370.565C359.236 371.158 358.552 371.455 357.704 371.455C357.292 371.455 356.926 371.377 356.605 371.22C356.283 371.064 356.04 370.866 355.876 370.627V373.654ZM359.1 368.293C359.1 367.733 358.952 367.284 358.655 366.946C358.359 366.6 357.968 366.427 357.482 366.427C357.004 366.427 356.613 366.6 356.308 366.946C356.012 367.284 355.863 367.733 355.863 368.293C355.863 368.861 356.012 369.318 356.308 369.664C356.613 370.01 357.004 370.183 357.482 370.183C357.959 370.183 358.346 370.01 358.643 369.664C358.948 369.318 359.1 368.861 359.1 368.293ZM371.089 371.307L370.261 369.108H366.556L365.74 371.307H364.171L367.581 362.549H369.298L372.707 371.307H371.089ZM368.408 364.154L367.074 367.737H369.743L368.408 364.154Z" fill="black"/>
<rect x="421.962" y="357.807" width="33.9335" height="18" rx="2.96191" fill="#F5F6F7"/>
<rect x="421.962" y="357.807" width="33.9335" height="18" rx="2.96191" stroke="#BDBDBD"/>
<path d="M428.785 368.807H428.116V363.962H431.061V364.584H428.785V366.142H430.849V366.77H428.785V368.807ZM432.413 368.807H431.778V365.52H432.413V368.807ZM431.764 364.604C431.678 364.513 431.634 364.404 431.634 364.276C431.634 364.149 431.678 364.039 431.764 363.948C431.855 363.857 431.965 363.811 432.092 363.811C432.22 363.811 432.329 363.857 432.42 363.948C432.511 364.035 432.557 364.144 432.557 364.276C432.557 364.404 432.511 364.513 432.42 364.604C432.329 364.691 432.22 364.734 432.092 364.734C431.965 364.734 431.855 364.691 431.764 364.604ZM434.149 366.907V368.807H433.506V365.52H434.135V365.991C434.354 365.613 434.691 365.424 435.146 365.424C435.524 365.424 435.814 365.545 436.014 365.786C436.219 366.028 436.322 366.34 436.322 366.722V368.807H435.679V366.832C435.679 366.281 435.424 366.005 434.914 366.005C434.672 366.005 434.483 366.091 434.347 366.265C434.215 366.433 434.149 366.647 434.149 366.907ZM438.204 364.481V365.52H438.915V366.101H438.204V367.809C438.204 367.964 438.238 368.078 438.307 368.151C438.38 368.224 438.498 368.26 438.662 368.26C438.758 368.26 438.842 368.251 438.915 368.233V368.779C438.806 368.82 438.66 368.841 438.478 368.841C438.195 368.841 437.972 368.759 437.808 368.595C437.644 368.431 437.562 368.201 437.562 367.905V366.101H436.933V365.52H437.111C437.28 365.52 437.405 365.474 437.487 365.383C437.573 365.287 437.617 365.164 437.617 365.014V364.481H438.204ZM440.156 366.825H441.953C441.944 366.579 441.862 366.379 441.707 366.224C441.552 366.064 441.333 365.984 441.051 365.984C440.796 365.984 440.586 366.069 440.422 366.237C440.258 366.401 440.169 366.597 440.156 366.825ZM442.049 367.679L442.602 367.87C442.507 368.176 442.329 368.426 442.069 368.622C441.809 368.813 441.495 368.909 441.126 368.909C440.666 368.909 440.274 368.752 439.951 368.438C439.632 368.119 439.472 367.691 439.472 367.153C439.472 366.652 439.627 366.237 439.937 365.909C440.247 365.581 440.616 365.417 441.044 365.417C441.541 365.417 441.928 365.574 442.206 365.889C442.484 366.199 442.623 366.615 442.623 367.139C442.623 367.221 442.618 367.29 442.609 367.344H440.135C440.14 367.636 440.236 367.875 440.422 368.062C440.614 368.249 440.848 368.342 441.126 368.342C441.595 368.342 441.903 368.121 442.049 367.679ZM444.823 366.012C444.545 366.012 444.308 366.112 444.112 366.312C443.921 366.513 443.825 366.795 443.825 367.16C443.825 367.52 443.921 367.802 444.112 368.007C444.308 368.212 444.547 368.315 444.83 368.315C445.103 368.315 445.31 368.246 445.452 368.11C445.597 367.973 445.695 367.816 445.745 367.638L446.313 367.884C446.222 368.157 446.048 368.397 445.793 368.602C445.543 368.807 445.222 368.909 444.83 368.909C444.351 368.909 443.955 368.743 443.641 368.41C443.326 368.078 443.169 367.661 443.169 367.16C443.169 366.65 443.326 366.233 443.641 365.909C443.955 365.581 444.349 365.417 444.823 365.417C445.224 365.417 445.547 365.52 445.793 365.725C446.044 365.93 446.208 366.176 446.285 366.463L445.704 366.709C445.654 366.517 445.559 366.353 445.417 366.217C445.276 366.08 445.078 366.012 444.823 366.012ZM447.709 366.873V368.807H447.066V363.859H447.709V365.902C447.927 365.584 448.26 365.424 448.706 365.424C449.084 365.424 449.374 365.545 449.574 365.786C449.779 366.028 449.882 366.34 449.882 366.722V368.807H449.239V366.832C449.239 366.281 448.984 366.005 448.474 366.005C448.237 366.005 448.052 366.087 447.92 366.251C447.788 366.41 447.718 366.618 447.709 366.873Z" fill="black"/>
<rect x="461.819" y="357.807" width="32.9335" height="18" rx="2.96191" fill="#CDEEFC"/>
<rect x="461.819" y="357.807" width="32.9335" height="18" rx="2.96191" stroke="#2F80ED"/>
<path d="M471.139 368.807H468.194V363.962H471.139V364.584H468.864V366.073H470.927V366.702H468.864V368.185H471.139V368.807ZM472.345 367.153C472.345 367.499 472.43 367.782 472.598 368C472.771 368.219 473.008 368.328 473.309 368.328C473.596 368.328 473.826 368.217 473.999 367.993C474.172 367.77 474.259 367.486 474.259 367.139C474.259 366.798 474.174 366.522 474.006 366.312C473.837 366.103 473.607 365.998 473.316 365.998C473.024 365.998 472.79 366.105 472.612 366.319C472.434 366.533 472.345 366.811 472.345 367.153ZM474.266 368.362V368.308C474.179 368.476 474.047 368.618 473.869 368.731C473.696 368.841 473.489 368.895 473.247 368.895C472.778 368.895 472.4 368.731 472.113 368.403C471.831 368.071 471.689 367.654 471.689 367.153C471.689 366.675 471.835 366.269 472.127 365.937C472.418 365.599 472.792 365.431 473.247 365.431C473.516 365.431 473.735 365.486 473.903 365.595C474.072 365.7 474.188 365.83 474.252 365.984V363.859H474.887V368.198C474.887 368.422 474.899 368.624 474.922 368.807H474.3C474.277 368.679 474.266 368.531 474.266 368.362ZM476.841 364.481V365.52H477.552V366.101H476.841V367.809C476.841 367.964 476.875 368.078 476.944 368.151C477.016 368.224 477.135 368.26 477.299 368.26C477.395 368.26 477.479 368.251 477.552 368.233V368.779C477.442 368.82 477.297 368.841 477.114 368.841C476.832 368.841 476.609 368.759 476.445 368.595C476.281 368.431 476.199 368.201 476.199 367.905V366.101H475.57V365.52H475.748C475.916 365.52 476.041 365.474 476.123 365.383C476.21 365.287 476.253 365.164 476.253 365.014V364.481H476.841ZM478.793 366.825H480.59C480.581 366.579 480.499 366.379 480.344 366.224C480.189 366.064 479.97 365.984 479.688 365.984C479.433 365.984 479.223 366.069 479.059 366.237C478.895 366.401 478.806 366.597 478.793 366.825ZM480.685 367.679L481.239 367.87C481.143 368.176 480.966 368.426 480.706 368.622C480.446 368.813 480.132 368.909 479.763 368.909C479.303 368.909 478.911 368.752 478.588 368.438C478.269 368.119 478.109 367.691 478.109 367.153C478.109 366.652 478.264 366.237 478.574 365.909C478.884 365.581 479.253 365.417 479.681 365.417C480.177 365.417 480.565 365.574 480.843 365.889C481.12 366.199 481.259 366.615 481.259 367.139C481.259 367.221 481.255 367.29 481.246 367.344H478.772C478.777 367.636 478.872 367.875 479.059 368.062C479.25 368.249 479.485 368.342 479.763 368.342C480.232 368.342 480.54 368.121 480.685 367.679ZM483.46 366.012C483.182 366.012 482.945 366.112 482.749 366.312C482.558 366.513 482.462 366.795 482.462 367.16C482.462 367.52 482.558 367.802 482.749 368.007C482.945 368.212 483.184 368.315 483.467 368.315C483.74 368.315 483.947 368.246 484.088 368.11C484.234 367.973 484.332 367.816 484.382 367.638L484.949 367.884C484.858 368.157 484.685 368.397 484.43 368.602C484.179 368.807 483.858 368.909 483.467 368.909C482.988 368.909 482.592 368.743 482.278 368.41C481.963 368.078 481.806 367.661 481.806 367.16C481.806 366.65 481.963 366.233 482.278 365.909C482.592 365.581 482.986 365.417 483.46 365.417C483.861 365.417 484.184 365.52 484.43 365.725C484.681 365.93 484.845 366.176 484.922 366.463L484.341 366.709C484.291 366.517 484.195 366.353 484.054 366.217C483.913 366.08 483.715 366.012 483.46 366.012ZM486.345 366.873V368.807H485.703V363.859H486.345V365.902C486.564 365.584 486.896 365.424 487.343 365.424C487.721 365.424 488.01 365.545 488.211 365.786C488.416 366.028 488.518 366.34 488.518 366.722V368.807H487.876V366.832C487.876 366.281 487.621 366.005 487.111 366.005C486.874 366.005 486.689 366.087 486.557 366.251C486.425 366.41 486.354 366.618 486.345 366.873Z" fill="#058FC6"/>
<rect x="500.677" y="357.807" width="39.9335" height="18" rx="2.96191" fill="#E6F6DA"/>
<rect x="500.677" y="357.807" width="39.9335" height="18" rx="2.96191" stroke="#27AE60"/>
<path d="M510.333 368.807L509.807 367.454H507.661L507.149 368.807H506.431L508.358 363.962H509.13L511.057 368.807H510.333ZM508.727 364.659L507.9 366.832H509.568L508.727 364.659ZM511.368 368.984L511.99 368.841C512.013 369.073 512.106 369.264 512.27 369.415C512.434 369.57 512.639 369.647 512.885 369.647C513.555 369.647 513.89 369.292 513.89 368.581V368.11C513.808 368.269 513.678 368.399 513.5 368.499C513.327 368.599 513.122 368.649 512.885 368.649C512.448 368.649 512.086 368.501 511.799 368.205C511.516 367.905 511.375 367.522 511.375 367.057C511.375 366.606 511.516 366.228 511.799 365.923C512.081 365.613 512.443 365.458 512.885 365.458C513.386 365.458 513.724 365.631 513.897 365.978V365.52H514.532V368.561C514.532 368.779 514.503 368.982 514.443 369.169C514.389 369.36 514.3 369.536 514.177 369.695C514.054 369.854 513.881 369.98 513.657 370.071C513.439 370.162 513.181 370.207 512.885 370.207C512.48 370.207 512.136 370.091 511.853 369.859C511.571 369.631 511.409 369.34 511.368 368.984ZM512.981 368.11C513.259 368.11 513.484 368.014 513.657 367.823C513.831 367.627 513.917 367.372 513.917 367.057C513.917 366.743 513.831 366.49 513.657 366.299C513.484 366.103 513.259 366.005 512.981 366.005C512.699 366.005 512.468 366.101 512.291 366.292C512.118 366.483 512.031 366.738 512.031 367.057C512.031 367.381 512.115 367.638 512.284 367.829C512.457 368.016 512.689 368.11 512.981 368.11ZM517.383 365.486V366.169C517.287 366.155 517.193 366.148 517.102 366.148C516.501 366.148 516.2 366.486 516.2 367.16V368.807H515.558V365.52H516.187V366.094C516.387 365.675 516.715 365.465 517.171 365.465C517.244 365.465 517.314 365.472 517.383 365.486ZM518.71 368.028C518.911 368.233 519.154 368.335 519.441 368.335C519.728 368.335 519.97 368.233 520.166 368.028C520.366 367.818 520.466 367.529 520.466 367.16C520.466 366.795 520.366 366.511 520.166 366.306C519.97 366.096 519.728 365.991 519.441 365.991C519.154 365.991 518.911 366.096 518.71 366.306C518.514 366.511 518.416 366.795 518.416 367.16C518.416 367.529 518.514 367.818 518.71 368.028ZM518.232 365.916C518.551 365.584 518.954 365.417 519.441 365.417C519.929 365.417 520.33 365.584 520.644 365.916C520.963 366.244 521.122 366.659 521.122 367.16C521.122 367.665 520.965 368.085 520.651 368.417C520.337 368.745 519.933 368.909 519.441 368.909C518.949 368.909 518.546 368.745 518.232 368.417C517.918 368.085 517.76 367.665 517.76 367.16C517.76 366.659 517.918 366.244 518.232 365.916ZM522.772 364.481V365.52H523.483V366.101H522.772V367.809C522.772 367.964 522.806 368.078 522.874 368.151C522.947 368.224 523.066 368.26 523.23 368.26C523.325 368.26 523.41 368.251 523.483 368.233V368.779C523.373 368.82 523.228 368.841 523.045 368.841C522.763 368.841 522.54 368.759 522.376 368.595C522.212 368.431 522.13 368.201 522.13 367.905V366.101H521.501V365.52H521.679C521.847 365.52 521.972 365.474 522.054 365.383C522.141 365.287 522.184 365.164 522.184 365.014V364.481H522.772ZM524.723 366.825H526.521C526.512 366.579 526.43 366.379 526.275 366.224C526.12 366.064 525.901 365.984 525.619 365.984C525.364 365.984 525.154 366.069 524.99 366.237C524.826 366.401 524.737 366.597 524.723 366.825ZM526.616 367.679L527.17 367.87C527.074 368.176 526.896 368.426 526.637 368.622C526.377 368.813 526.063 368.909 525.694 368.909C525.234 368.909 524.842 368.752 524.518 368.438C524.2 368.119 524.04 367.691 524.04 367.153C524.04 366.652 524.195 366.237 524.505 365.909C524.815 365.581 525.184 365.417 525.612 365.417C526.108 365.417 526.496 365.574 526.773 365.889C527.051 366.199 527.19 366.615 527.19 367.139C527.19 367.221 527.186 367.29 527.177 367.344H524.703C524.708 367.636 524.803 367.875 524.99 368.062C525.181 368.249 525.416 368.342 525.694 368.342C526.163 368.342 526.471 368.121 526.616 367.679ZM529.391 366.012C529.113 366.012 528.876 366.112 528.68 366.312C528.489 366.513 528.393 366.795 528.393 367.16C528.393 367.52 528.489 367.802 528.68 368.007C528.876 368.212 529.115 368.315 529.397 368.315C529.671 368.315 529.878 368.246 530.019 368.11C530.165 367.973 530.263 367.816 530.313 367.638L530.88 367.884C530.789 368.157 530.616 368.397 530.361 368.602C530.11 368.807 529.789 368.909 529.397 368.909C528.919 368.909 528.523 368.743 528.208 368.41C527.894 368.078 527.737 367.661 527.737 367.16C527.737 366.65 527.894 366.233 528.208 365.909C528.523 365.581 528.917 365.417 529.391 365.417C529.792 365.417 530.115 365.52 530.361 365.725C530.612 365.93 530.776 366.176 530.853 366.463L530.272 366.709C530.222 366.517 530.126 366.353 529.985 366.217C529.844 366.08 529.646 366.012 529.391 366.012ZM532.276 366.873V368.807H531.634V363.859H532.276V365.902C532.495 365.584 532.827 365.424 533.274 365.424C533.652 365.424 533.941 365.545 534.142 365.786C534.347 366.028 534.449 366.34 534.449 366.722V368.807H533.807V366.832C533.807 366.281 533.552 366.005 533.042 366.005C532.805 366.005 532.62 366.087 532.488 366.251C532.356 366.41 532.285 366.618 532.276 366.873Z" fill="#27AE60"/>
<rect x="589.415" y="358.645" width="37.9371" height="16.3221" rx="0.829304" fill="#EEF3FD"/>
<rect x="589.415" y="358.645" width="37.9371" height="16.3221" rx="0.829304" stroke="#9CA3AF" stroke-width="0.331721"/>
<path d="M597.708 369.806H596.78V363.221H597.708V369.806ZM600.163 367.224V369.806H599.29V365.339H600.144V365.979C600.442 365.465 600.9 365.208 601.519 365.208C602.033 365.208 602.426 365.373 602.699 365.701C602.977 366.029 603.117 366.453 603.117 366.973V369.806H602.244V367.122C602.244 366.373 601.897 365.998 601.203 365.998C600.875 365.998 600.618 366.116 600.432 366.351C600.253 366.58 600.163 366.871 600.163 367.224ZM608.332 365.339L606.549 369.806H605.666L603.855 365.339H604.84L606.112 368.784L607.394 365.339H608.332ZM609.598 367.113H612.041C612.029 366.778 611.917 366.506 611.707 366.295C611.496 366.078 611.199 365.97 610.815 365.97C610.468 365.97 610.183 366.085 609.96 366.314C609.738 366.537 609.617 366.803 609.598 367.113ZM612.171 368.274L612.923 368.534C612.793 368.949 612.552 369.289 612.199 369.555C611.846 369.815 611.419 369.945 610.917 369.945C610.292 369.945 609.759 369.732 609.32 369.305C608.886 368.871 608.669 368.289 608.669 367.558C608.669 366.877 608.88 366.314 609.301 365.868C609.722 365.422 610.224 365.199 610.806 365.199C611.481 365.199 612.007 365.413 612.385 365.84C612.762 366.261 612.951 366.828 612.951 367.54C612.951 367.651 612.945 367.744 612.933 367.818H609.57C609.577 368.215 609.707 368.54 609.96 368.794C610.22 369.048 610.539 369.175 610.917 369.175C611.555 369.175 611.973 368.874 612.171 368.274ZM613.648 368.645L614.437 368.366C614.468 368.608 614.573 368.809 614.753 368.97C614.933 369.125 615.174 369.202 615.478 369.202C615.713 369.202 615.899 369.147 616.035 369.035C616.171 368.918 616.239 368.775 616.239 368.608C616.239 368.311 616.047 368.119 615.663 368.032L614.902 367.865C614.555 367.791 614.282 367.642 614.084 367.419C613.886 367.196 613.787 366.927 613.787 366.611C613.787 366.227 613.942 365.896 614.252 365.617C614.567 365.339 614.942 365.199 615.375 365.199C615.66 365.199 615.914 365.243 616.137 365.329C616.36 365.41 616.533 365.518 616.657 365.654C616.781 365.791 616.874 365.917 616.936 366.035C616.998 366.153 617.044 366.274 617.075 366.397L616.304 366.685C616.292 366.611 616.27 366.54 616.239 366.472C616.208 366.397 616.159 366.317 616.091 366.23C616.029 366.144 615.936 366.075 615.812 366.026C615.688 365.97 615.543 365.942 615.375 365.942C615.159 365.942 614.979 366.001 614.837 366.119C614.7 366.236 614.632 366.376 614.632 366.537C614.632 366.822 614.803 367.001 615.143 367.075L615.868 367.233C616.264 367.32 616.567 367.481 616.778 367.716C616.995 367.945 617.103 368.227 617.103 368.562C617.103 368.914 616.957 369.233 616.666 369.518C616.382 369.803 615.982 369.945 615.468 369.945C614.917 369.945 614.487 369.809 614.177 369.537C613.868 369.258 613.691 368.961 613.648 368.645ZM619.436 363.927V365.339H620.402V366.128H619.436V368.45C619.436 368.661 619.482 368.815 619.575 368.914C619.674 369.014 619.835 369.063 620.058 369.063C620.188 369.063 620.303 369.051 620.402 369.026V369.769C620.253 369.825 620.055 369.853 619.807 369.853C619.423 369.853 619.12 369.741 618.897 369.518C618.674 369.295 618.563 368.983 618.563 368.58V366.128H617.708V365.339H617.95C618.179 365.339 618.349 365.277 618.46 365.153C618.578 365.023 618.637 364.856 618.637 364.651V363.927H619.436Z" fill="#6B7280"/>
<circle cx="282.677" cy="416.029" r="17.1947" fill="#EDEBFE"/>
<path d="M290.045 420.054V422.06H276.671V420.054C276.671 419.687 276.972 419.386 277.34 419.386H289.376C289.744 419.386 290.045 419.687 290.045 420.054Z" fill="#7E3AF2" stroke="#7E3AF2" stroke-width="1.00302" stroke-miterlimit="10" stroke-linecap="round" stroke-linejoin="round"/>
<path d="M280.015 414.705H278.678V419.386H280.015V414.705Z" fill="#7E3AF2"/>
<path d="M282.69 414.705H281.353V419.386H282.69V414.705Z" fill="#7E3AF2"/>
<path d="M285.365 414.705H284.027V419.386H285.365V414.705Z" fill="#7E3AF2"/>
<path d="M288.039 414.705H286.701V419.386H288.039V414.705Z" fill="#7E3AF2"/>
<path d="M290.714 422.562H276.002C275.728 422.562 275.501 422.335 275.501 422.061C275.501 421.786 275.728 421.559 276.002 421.559H290.714C290.988 421.559 291.215 421.786 291.215 422.061C291.215 422.335 290.988 422.562 290.714 422.562Z" fill="#7E3AF2"/>
<path d="M289.623 411.194L283.605 408.787C283.471 408.734 283.244 408.734 283.11 408.787L277.092 411.194C276.858 411.288 276.671 411.562 276.671 411.816V414.036C276.671 414.404 276.972 414.705 277.34 414.705H289.376C289.744 414.705 290.045 414.404 290.045 414.036V411.816C290.045 411.562 289.857 411.288 289.623 411.194ZM283.358 413.033C282.803 413.033 282.355 412.585 282.355 412.03C282.355 411.475 282.803 411.027 283.358 411.027C283.913 411.027 284.361 411.475 284.361 412.03C284.361 412.585 283.913 413.033 283.358 413.033Z" fill="#7E3AF2"/>
<path d="M288.711 420.054V422.06H275.337V420.054C275.337 419.687 275.638 419.386 276.006 419.386H288.042C288.41 419.386 288.711 419.687 288.711 420.054Z" fill="white" stroke="white" stroke-width="1.00302" stroke-miterlimit="10" stroke-linecap="round" stroke-linejoin="round"/>
<path d="M278.681 414.705H277.344V419.386H278.681V414.705Z" fill="white"/>
<path d="M281.356 414.705H280.019V419.386H281.356V414.705Z" fill="white"/>
<path d="M284.031 414.705H282.693V419.386H284.031V414.705Z" fill="white"/>
<path d="M286.705 414.705H285.367V419.386H286.705V414.705Z" fill="white"/>
<path d="M289.38 422.562H274.669C274.394 422.562 274.167 422.335 274.167 422.061C274.167 421.786 274.394 421.559 274.669 421.559H289.38C289.654 421.559 289.881 421.786 289.881 422.061C289.881 422.335 289.654 422.562 289.38 422.562Z" fill="white"/>
<path d="M288.289 411.194L282.271 408.787C282.137 408.734 281.91 408.734 281.776 408.787L275.758 411.194C275.524 411.288 275.337 411.562 275.337 411.816V414.036C275.337 414.404 275.638 414.705 276.006 414.705H288.042C288.41 414.705 288.711 414.404 288.711 414.036V411.816C288.711 411.562 288.523 411.288 288.289 411.194ZM282.024 413.033C281.469 413.033 281.021 412.585 281.021 412.03C281.021 411.475 281.469 411.027 282.024 411.027C282.579 411.027 283.027 411.475 283.027 412.03C283.027 412.585 282.579 413.033 282.024 413.033Z" fill="white"/>
<path d="M320.623 413.212L319.289 413.632C319.231 413.295 319.062 412.986 318.782 412.706C318.502 412.426 318.099 412.286 317.572 412.286C317.135 412.286 316.773 412.409 316.485 412.656C316.205 412.904 316.065 413.2 316.065 413.546C316.065 414.147 316.406 414.522 317.09 414.67L318.35 414.929C319.108 415.078 319.692 415.378 320.104 415.831C320.516 416.284 320.722 416.823 320.722 417.449C320.722 418.174 320.442 418.8 319.882 419.327C319.33 419.846 318.576 420.105 317.621 420.105C316.592 420.105 315.789 419.838 315.212 419.302C314.636 418.759 314.311 418.129 314.236 417.412L315.62 417.017C315.669 417.511 315.867 417.927 316.213 418.265C316.559 418.602 317.028 418.771 317.621 418.771C318.132 418.771 318.523 418.66 318.795 418.438C319.075 418.207 319.215 417.915 319.215 417.561C319.215 417.272 319.112 417.025 318.906 416.819C318.7 416.605 318.412 416.457 318.041 416.375L316.806 416.115C316.122 415.975 315.579 415.691 315.175 415.263C314.78 414.835 314.582 414.299 314.582 413.657C314.582 412.924 314.875 412.294 315.459 411.767C316.044 411.24 316.744 410.977 317.559 410.977C318.49 410.977 319.202 411.203 319.696 411.656C320.191 412.101 320.499 412.619 320.623 413.212ZM323.929 412.064V413.904H325.177V415.176H323.929V417.968C323.929 418.232 323.991 418.425 324.115 418.549C324.238 418.664 324.432 418.722 324.695 418.722C324.86 418.722 325.025 418.705 325.189 418.672V419.858C324.975 419.949 324.683 419.994 324.312 419.994C323.752 419.994 323.312 419.838 322.991 419.525C322.669 419.203 322.509 418.763 322.509 418.203V415.176H321.397V413.904H321.706C322.011 413.904 322.241 413.818 322.398 413.645C322.554 413.472 322.632 413.245 322.632 412.965V412.064H323.929ZM326.291 418.289C326.291 417.779 326.456 417.371 326.785 417.066C327.123 416.753 327.563 416.556 328.107 416.473L329.651 416.239C329.947 416.198 330.096 416.054 330.096 415.806C330.096 415.535 330.001 415.316 329.811 415.152C329.622 414.979 329.338 414.892 328.959 414.892C328.597 414.892 328.309 414.995 328.094 415.201C327.88 415.399 327.757 415.658 327.724 415.979L326.414 415.683C326.472 415.139 326.731 414.678 327.193 414.299C327.654 413.912 328.239 413.719 328.947 413.719C329.82 413.719 330.462 413.929 330.874 414.349C331.294 414.769 331.504 415.308 331.504 415.967V418.956C331.504 419.352 331.528 419.673 331.578 419.92H330.244C330.203 419.796 330.182 419.541 330.182 419.154C329.787 419.788 329.169 420.105 328.329 420.105C327.72 420.105 327.226 419.928 326.847 419.574C326.476 419.212 326.291 418.783 326.291 418.289ZM328.601 418.981C329.046 418.981 329.404 418.862 329.676 418.623C329.956 418.376 330.096 417.976 330.096 417.425V417.153L328.527 417.388C327.991 417.478 327.724 417.75 327.724 418.203C327.724 418.417 327.802 418.602 327.959 418.759C328.115 418.907 328.329 418.981 328.601 418.981ZM336.756 413.867V415.325C336.592 415.3 336.435 415.288 336.287 415.288C335.208 415.288 334.669 415.876 334.669 417.054V419.92H333.236V413.904H334.632V414.868C334.772 414.546 334.998 414.295 335.311 414.114C335.624 413.925 335.978 413.83 336.374 413.83C336.505 413.83 336.633 413.842 336.756 413.867ZM340.034 412.064V413.904H341.282V415.176H340.034V417.968C340.034 418.232 340.096 418.425 340.219 418.549C340.343 418.664 340.536 418.722 340.8 418.722C340.965 418.722 341.129 418.705 341.294 418.672V419.858C341.08 419.949 340.787 419.994 340.417 419.994C339.857 419.994 339.416 419.838 339.095 419.525C338.774 419.203 338.613 418.763 338.613 418.203V415.176H337.502V413.904H337.81C338.115 413.904 338.346 413.818 338.502 413.645C338.659 413.472 338.737 413.245 338.737 412.965V412.064H340.034ZM345.843 416.943H342.359V415.671H345.843V416.943ZM351.242 419.253C351.102 419.516 350.871 419.722 350.55 419.871C350.237 420.019 349.899 420.093 349.537 420.093C348.837 420.093 348.281 419.866 347.869 419.413C347.466 418.961 347.264 418.388 347.264 417.696V413.904H348.697V417.437C348.697 417.841 348.796 418.17 348.993 418.425C349.191 418.681 349.496 418.808 349.908 418.808C350.311 418.808 350.62 418.685 350.834 418.438C351.056 418.191 351.168 417.865 351.168 417.462V413.904H352.6V418.821C352.6 419.183 352.621 419.549 352.662 419.92H351.291C351.258 419.739 351.242 419.516 351.242 419.253ZM355.876 422.267H354.455V413.904H355.839V414.719C355.995 414.448 356.242 414.221 356.58 414.04C356.918 413.859 357.309 413.768 357.753 413.768C358.618 413.768 359.298 414.065 359.792 414.658C360.286 415.242 360.533 415.992 360.533 416.906C360.533 417.82 360.273 418.578 359.755 419.179C359.236 419.772 358.552 420.068 357.704 420.068C357.292 420.068 356.926 419.99 356.605 419.833C356.283 419.677 356.04 419.479 355.876 419.241V422.267ZM359.1 416.906C359.1 416.346 358.952 415.897 358.655 415.559C358.359 415.214 357.968 415.041 357.482 415.041C357.004 415.041 356.613 415.214 356.308 415.559C356.012 415.897 355.863 416.346 355.863 416.906C355.863 417.474 356.012 417.931 356.308 418.277C356.613 418.623 357.004 418.796 357.482 418.796C357.959 418.796 358.346 418.623 358.643 418.277C358.948 417.931 359.1 417.474 359.1 416.906ZM371.089 419.92L370.261 417.721H366.556L365.74 419.92H364.171L367.581 411.162H369.298L372.707 419.92H371.089ZM368.408 412.768L367.074 416.35H369.743L368.408 412.768Z" fill="black"/>
<rect x="421.962" y="406.42" width="33.9335" height="18" rx="2.96191" fill="#F5F6F7"/>
<rect x="421.962" y="406.42" width="33.9335" height="18" rx="2.96191" stroke="#BDBDBD"/>
<path d="M428.785 417.42H428.116V412.575H431.061V413.197H428.785V414.755H430.849V415.384H428.785V417.42ZM432.413 417.42H431.778V414.133H432.413V417.42ZM431.764 413.217C431.678 413.126 431.634 413.017 431.634 412.889C431.634 412.762 431.678 412.652 431.764 412.561C431.855 412.47 431.965 412.425 432.092 412.425C432.22 412.425 432.329 412.47 432.42 412.561C432.511 412.648 432.557 412.757 432.557 412.889C432.557 413.017 432.511 413.126 432.42 413.217C432.329 413.304 432.22 413.347 432.092 413.347C431.965 413.347 431.855 413.304 431.764 413.217ZM434.149 415.52V417.42H433.506V414.133H434.135V414.605C434.354 414.226 434.691 414.037 435.146 414.037C435.524 414.037 435.814 414.158 436.014 414.4C436.219 414.641 436.322 414.953 436.322 415.336V417.42H435.679V415.445C435.679 414.894 435.424 414.618 434.914 414.618C434.672 414.618 434.483 414.705 434.347 414.878C434.215 415.046 434.149 415.261 434.149 415.52ZM438.204 413.094V414.133H438.915V414.714H438.204V416.422C438.204 416.577 438.238 416.691 438.307 416.764C438.38 416.837 438.498 416.873 438.662 416.873C438.758 416.873 438.842 416.864 438.915 416.846V417.393C438.806 417.434 438.66 417.454 438.478 417.454C438.195 417.454 437.972 417.372 437.808 417.208C437.644 417.044 437.562 416.814 437.562 416.518V414.714H436.933V414.133H437.111C437.28 414.133 437.405 414.087 437.487 413.996C437.573 413.901 437.617 413.778 437.617 413.627V413.094H438.204ZM440.156 415.438H441.953C441.944 415.192 441.862 414.992 441.707 414.837C441.552 414.677 441.333 414.598 441.051 414.598C440.796 414.598 440.586 414.682 440.422 414.851C440.258 415.015 440.169 415.21 440.156 415.438ZM442.049 416.292L442.602 416.484C442.507 416.789 442.329 417.04 442.069 417.235C441.809 417.427 441.495 417.522 441.126 417.522C440.666 417.522 440.274 417.365 439.951 417.051C439.632 416.732 439.472 416.304 439.472 415.766C439.472 415.265 439.627 414.851 439.937 414.523C440.247 414.195 440.616 414.031 441.044 414.031C441.541 414.031 441.928 414.188 442.206 414.502C442.484 414.812 442.623 415.229 442.623 415.753C442.623 415.835 442.618 415.903 442.609 415.958H440.135C440.14 416.249 440.236 416.488 440.422 416.675C440.614 416.862 440.848 416.955 441.126 416.955C441.595 416.955 441.903 416.734 442.049 416.292ZM444.823 414.625C444.545 414.625 444.308 414.725 444.112 414.926C443.921 415.126 443.825 415.409 443.825 415.773C443.825 416.133 443.921 416.415 444.112 416.62C444.308 416.825 444.547 416.928 444.83 416.928C445.103 416.928 445.31 416.86 445.452 416.723C445.597 416.586 445.695 416.429 445.745 416.251L446.313 416.497C446.222 416.771 446.048 417.01 445.793 417.215C445.543 417.42 445.222 417.522 444.83 417.522C444.351 417.522 443.955 417.356 443.641 417.024C443.326 416.691 443.169 416.274 443.169 415.773C443.169 415.263 443.326 414.846 443.641 414.523C443.955 414.195 444.349 414.031 444.823 414.031C445.224 414.031 445.547 414.133 445.793 414.338C446.044 414.543 446.208 414.789 446.285 415.076L445.704 415.322C445.654 415.131 445.559 414.967 445.417 414.83C445.276 414.693 445.078 414.625 444.823 414.625ZM447.709 415.486V417.42H447.066V412.473H447.709V414.516C447.927 414.197 448.26 414.037 448.706 414.037C449.084 414.037 449.374 414.158 449.574 414.4C449.779 414.641 449.882 414.953 449.882 415.336V417.42H449.239V415.445C449.239 414.894 448.984 414.618 448.474 414.618C448.237 414.618 448.052 414.7 447.92 414.864C447.788 415.024 447.718 415.231 447.709 415.486Z" fill="black"/>
<rect x="461.819" y="406.42" width="32.9335" height="18" rx="2.96191" fill="#CDEEFC"/>
<rect x="461.819" y="406.42" width="32.9335" height="18" rx="2.96191" stroke="#2F80ED"/>
<path d="M471.139 417.42H468.194V412.575H471.139V413.197H468.864V414.687H470.927V415.315H468.864V416.798H471.139V417.42ZM472.345 415.766C472.345 416.112 472.43 416.395 472.598 416.614C472.771 416.832 473.008 416.942 473.309 416.942C473.596 416.942 473.826 416.83 473.999 416.607C474.172 416.384 474.259 416.099 474.259 415.753C474.259 415.411 474.174 415.135 474.006 414.926C473.837 414.716 473.607 414.611 473.316 414.611C473.024 414.611 472.79 414.718 472.612 414.933C472.434 415.147 472.345 415.425 472.345 415.766ZM474.266 416.976V416.921C474.179 417.09 474.047 417.231 473.869 417.345C473.696 417.454 473.489 417.509 473.247 417.509C472.778 417.509 472.4 417.345 472.113 417.017C471.831 416.684 471.689 416.267 471.689 415.766C471.689 415.288 471.835 414.882 472.127 414.55C472.418 414.213 472.792 414.044 473.247 414.044C473.516 414.044 473.735 414.099 473.903 414.208C474.072 414.313 474.188 414.443 474.252 414.598V412.473H474.887V416.812C474.887 417.035 474.899 417.238 474.922 417.42H474.3C474.277 417.292 474.266 417.144 474.266 416.976ZM476.841 413.094V414.133H477.552V414.714H476.841V416.422C476.841 416.577 476.875 416.691 476.944 416.764C477.016 416.837 477.135 416.873 477.299 416.873C477.395 416.873 477.479 416.864 477.552 416.846V417.393C477.442 417.434 477.297 417.454 477.114 417.454C476.832 417.454 476.609 417.372 476.445 417.208C476.281 417.044 476.199 416.814 476.199 416.518V414.714H475.57V414.133H475.748C475.916 414.133 476.041 414.087 476.123 413.996C476.21 413.901 476.253 413.778 476.253 413.627V413.094H476.841ZM478.793 415.438H480.59C480.581 415.192 480.499 414.992 480.344 414.837C480.189 414.677 479.97 414.598 479.688 414.598C479.433 414.598 479.223 414.682 479.059 414.851C478.895 415.015 478.806 415.21 478.793 415.438ZM480.685 416.292L481.239 416.484C481.143 416.789 480.966 417.04 480.706 417.235C480.446 417.427 480.132 417.522 479.763 417.522C479.303 417.522 478.911 417.365 478.588 417.051C478.269 416.732 478.109 416.304 478.109 415.766C478.109 415.265 478.264 414.851 478.574 414.523C478.884 414.195 479.253 414.031 479.681 414.031C480.177 414.031 480.565 414.188 480.843 414.502C481.12 414.812 481.259 415.229 481.259 415.753C481.259 415.835 481.255 415.903 481.246 415.958H478.772C478.777 416.249 478.872 416.488 479.059 416.675C479.25 416.862 479.485 416.955 479.763 416.955C480.232 416.955 480.54 416.734 480.685 416.292ZM483.46 414.625C483.182 414.625 482.945 414.725 482.749 414.926C482.558 415.126 482.462 415.409 482.462 415.773C482.462 416.133 482.558 416.415 482.749 416.62C482.945 416.825 483.184 416.928 483.467 416.928C483.74 416.928 483.947 416.86 484.088 416.723C484.234 416.586 484.332 416.429 484.382 416.251L484.949 416.497C484.858 416.771 484.685 417.01 484.43 417.215C484.179 417.42 483.858 417.522 483.467 417.522C482.988 417.522 482.592 417.356 482.278 417.024C481.963 416.691 481.806 416.274 481.806 415.773C481.806 415.263 481.963 414.846 482.278 414.523C482.592 414.195 482.986 414.031 483.46 414.031C483.861 414.031 484.184 414.133 484.43 414.338C484.681 414.543 484.845 414.789 484.922 415.076L484.341 415.322C484.291 415.131 484.195 414.967 484.054 414.83C483.913 414.693 483.715 414.625 483.46 414.625ZM486.345 415.486V417.42H485.703V412.473H486.345V414.516C486.564 414.197 486.896 414.037 487.343 414.037C487.721 414.037 488.01 414.158 488.211 414.4C488.416 414.641 488.518 414.953 488.518 415.336V417.42H487.876V415.445C487.876 414.894 487.621 414.618 487.111 414.618C486.874 414.618 486.689 414.7 486.557 414.864C486.425 415.024 486.354 415.231 486.345 415.486Z" fill="#058FC6"/>
<rect x="500.677" y="406.42" width="39.9335" height="18" rx="2.96191" fill="#E6F6DA"/>
<rect x="500.677" y="406.42" width="39.9335" height="18" rx="2.96191" stroke="#27AE60"/>
<path d="M510.333 417.42L509.807 416.067H507.661L507.149 417.42H506.431L508.358 412.575H509.13L511.057 417.42H510.333ZM508.727 413.272L507.9 415.445H509.568L508.727 413.272ZM511.368 417.598L511.99 417.454C512.013 417.686 512.106 417.878 512.27 418.028C512.434 418.183 512.639 418.26 512.885 418.26C513.555 418.26 513.89 417.905 513.89 417.194V416.723C513.808 416.882 513.678 417.012 513.5 417.112C513.327 417.213 513.122 417.263 512.885 417.263C512.448 417.263 512.086 417.115 511.799 416.819C511.516 416.518 511.375 416.135 511.375 415.671C511.375 415.22 511.516 414.841 511.799 414.536C512.081 414.226 512.443 414.072 512.885 414.072C513.386 414.072 513.724 414.245 513.897 414.591V414.133H514.532V417.174C514.532 417.393 514.503 417.595 514.443 417.782C514.389 417.973 514.3 418.149 514.177 418.308C514.054 418.468 513.881 418.593 513.657 418.684C513.439 418.775 513.181 418.821 512.885 418.821C512.48 418.821 512.136 418.705 511.853 418.472C511.571 418.244 511.409 417.953 511.368 417.598ZM512.981 416.723C513.259 416.723 513.484 416.627 513.657 416.436C513.831 416.24 513.917 415.985 513.917 415.671C513.917 415.356 513.831 415.103 513.657 414.912C513.484 414.716 513.259 414.618 512.981 414.618C512.699 414.618 512.468 414.714 512.291 414.905C512.118 415.097 512.031 415.352 512.031 415.671C512.031 415.994 512.115 416.251 512.284 416.443C512.457 416.63 512.689 416.723 512.981 416.723ZM517.383 414.099V414.782C517.287 414.769 517.193 414.762 517.102 414.762C516.501 414.762 516.2 415.099 516.2 415.773V417.42H515.558V414.133H516.187V414.707C516.387 414.288 516.715 414.078 517.171 414.078C517.244 414.078 517.314 414.085 517.383 414.099ZM518.71 416.641C518.911 416.846 519.154 416.948 519.441 416.948C519.728 416.948 519.97 416.846 520.166 416.641C520.366 416.431 520.466 416.142 520.466 415.773C520.466 415.409 520.366 415.124 520.166 414.919C519.97 414.709 519.728 414.605 519.441 414.605C519.154 414.605 518.911 414.709 518.71 414.919C518.514 415.124 518.416 415.409 518.416 415.773C518.416 416.142 518.514 416.431 518.71 416.641ZM518.232 414.529C518.551 414.197 518.954 414.031 519.441 414.031C519.929 414.031 520.33 414.197 520.644 414.529C520.963 414.857 521.122 415.272 521.122 415.773C521.122 416.279 520.965 416.698 520.651 417.03C520.337 417.358 519.933 417.522 519.441 417.522C518.949 417.522 518.546 417.358 518.232 417.03C517.918 416.698 517.76 416.279 517.76 415.773C517.76 415.272 517.918 414.857 518.232 414.529ZM522.772 413.094V414.133H523.483V414.714H522.772V416.422C522.772 416.577 522.806 416.691 522.874 416.764C522.947 416.837 523.066 416.873 523.23 416.873C523.325 416.873 523.41 416.864 523.483 416.846V417.393C523.373 417.434 523.228 417.454 523.045 417.454C522.763 417.454 522.54 417.372 522.376 417.208C522.212 417.044 522.13 416.814 522.13 416.518V414.714H521.501V414.133H521.679C521.847 414.133 521.972 414.087 522.054 413.996C522.141 413.901 522.184 413.778 522.184 413.627V413.094H522.772ZM524.723 415.438H526.521C526.512 415.192 526.43 414.992 526.275 414.837C526.12 414.677 525.901 414.598 525.619 414.598C525.364 414.598 525.154 414.682 524.99 414.851C524.826 415.015 524.737 415.21 524.723 415.438ZM526.616 416.292L527.17 416.484C527.074 416.789 526.896 417.04 526.637 417.235C526.377 417.427 526.063 417.522 525.694 417.522C525.234 417.522 524.842 417.365 524.518 417.051C524.2 416.732 524.04 416.304 524.04 415.766C524.04 415.265 524.195 414.851 524.505 414.523C524.815 414.195 525.184 414.031 525.612 414.031C526.108 414.031 526.496 414.188 526.773 414.502C527.051 414.812 527.19 415.229 527.19 415.753C527.19 415.835 527.186 415.903 527.177 415.958H524.703C524.708 416.249 524.803 416.488 524.99 416.675C525.181 416.862 525.416 416.955 525.694 416.955C526.163 416.955 526.471 416.734 526.616 416.292ZM529.391 414.625C529.113 414.625 528.876 414.725 528.68 414.926C528.489 415.126 528.393 415.409 528.393 415.773C528.393 416.133 528.489 416.415 528.68 416.62C528.876 416.825 529.115 416.928 529.397 416.928C529.671 416.928 529.878 416.86 530.019 416.723C530.165 416.586 530.263 416.429 530.313 416.251L530.88 416.497C530.789 416.771 530.616 417.01 530.361 417.215C530.11 417.42 529.789 417.522 529.397 417.522C528.919 417.522 528.523 417.356 528.208 417.024C527.894 416.691 527.737 416.274 527.737 415.773C527.737 415.263 527.894 414.846 528.208 414.523C528.523 414.195 528.917 414.031 529.391 414.031C529.792 414.031 530.115 414.133 530.361 414.338C530.612 414.543 530.776 414.789 530.853 415.076L530.272 415.322C530.222 415.131 530.126 414.967 529.985 414.83C529.844 414.693 529.646 414.625 529.391 414.625ZM532.276 415.486V417.42H531.634V412.473H532.276V414.516C532.495 414.197 532.827 414.037 533.274 414.037C533.652 414.037 533.941 414.158 534.142 414.4C534.347 414.641 534.449 414.953 534.449 415.336V417.42H533.807V415.445C533.807 414.894 533.552 414.618 533.042 414.618C532.805 414.618 532.62 414.7 532.488 414.864C532.356 415.024 532.285 415.231 532.276 415.486Z" fill="#27AE60"/>
<rect x="589.415" y="407.259" width="37.9371" height="16.3221" rx="0.829304" fill="#EEF3FD"/>
<rect x="589.415" y="407.259" width="37.9371" height="16.3221" rx="0.829304" stroke="#9CA3AF" stroke-width="0.331721"/>
<path d="M597.708 418.419H596.78V411.834H597.708V418.419ZM600.163 415.837V418.419H599.29V413.952H600.144V414.593C600.442 414.079 600.9 413.822 601.519 413.822C602.033 413.822 602.426 413.986 602.699 414.314C602.977 414.642 603.117 415.066 603.117 415.587V418.419H602.244V415.735C602.244 414.986 601.897 414.611 601.203 414.611C600.875 414.611 600.618 414.729 600.432 414.964C600.253 415.193 600.163 415.484 600.163 415.837ZM608.332 413.952L606.549 418.419H605.666L603.855 413.952H604.84L606.112 417.398L607.394 413.952H608.332ZM609.598 415.726H612.041C612.029 415.391 611.917 415.119 611.707 414.908C611.496 414.692 611.199 414.583 610.815 414.583C610.468 414.583 610.183 414.698 609.96 414.927C609.738 415.15 609.617 415.416 609.598 415.726ZM612.171 416.887L612.923 417.147C612.793 417.562 612.552 417.902 612.199 418.169C611.846 418.429 611.419 418.559 610.917 418.559C610.292 418.559 609.759 418.345 609.32 417.918C608.886 417.484 608.669 416.902 608.669 416.172C608.669 415.491 608.88 414.927 609.301 414.481C609.722 414.035 610.224 413.812 610.806 413.812C611.481 413.812 612.007 414.026 612.385 414.453C612.762 414.874 612.951 415.441 612.951 416.153C612.951 416.265 612.945 416.357 612.933 416.432H609.57C609.577 416.828 609.707 417.153 609.96 417.407C610.22 417.661 610.539 417.788 610.917 417.788C611.555 417.788 611.973 417.488 612.171 416.887ZM613.648 417.258L614.437 416.98C614.468 417.221 614.573 417.422 614.753 417.583C614.933 417.738 615.174 417.816 615.478 417.816C615.713 417.816 615.899 417.76 616.035 417.649C616.171 417.531 616.239 417.388 616.239 417.221C616.239 416.924 616.047 416.732 615.663 416.645L614.902 416.478C614.555 416.404 614.282 416.255 614.084 416.032C613.886 415.809 613.787 415.54 613.787 415.224C613.787 414.84 613.942 414.509 614.252 414.23C614.567 413.952 614.942 413.812 615.375 413.812C615.66 413.812 615.914 413.856 616.137 413.943C616.36 414.023 616.533 414.131 616.657 414.268C616.781 414.404 616.874 414.531 616.936 414.648C616.998 414.766 617.044 414.887 617.075 415.011L616.304 415.299C616.292 415.224 616.27 415.153 616.239 415.085C616.208 415.011 616.159 414.93 616.091 414.843C616.029 414.757 615.936 414.689 615.812 414.639C615.688 414.583 615.543 414.556 615.375 414.556C615.159 414.556 614.979 414.614 614.837 414.732C614.7 414.85 614.632 414.989 614.632 415.15C614.632 415.435 614.803 415.614 615.143 415.689L615.868 415.847C616.264 415.933 616.567 416.094 616.778 416.33C616.995 416.559 617.103 416.84 617.103 417.175C617.103 417.528 616.957 417.847 616.666 418.131C616.382 418.416 615.982 418.559 615.468 418.559C614.917 418.559 614.487 418.423 614.177 418.15C613.868 417.871 613.691 417.574 613.648 417.258ZM619.436 412.54V413.952H620.402V414.741H619.436V417.063C619.436 417.274 619.482 417.429 619.575 417.528C619.674 417.627 619.835 417.676 620.058 417.676C620.188 417.676 620.303 417.664 620.402 417.639V418.382C620.253 418.438 620.055 418.466 619.807 418.466C619.423 418.466 619.12 418.354 618.897 418.131C618.674 417.909 618.563 417.596 618.563 417.193V414.741H617.708V413.952H617.95C618.179 413.952 618.349 413.89 618.46 413.766C618.578 413.636 618.637 413.469 618.637 413.264V412.54H619.436Z" fill="#6B7280"/>
</g>
<defs>
<filter id="filter0_d_1177_8507" x="0.0410156" y="0.273926" width="892.918" height="694.453" filterUnits="userSpaceOnUse" color-interpolation-filters="sRGB">
<feFlood flood-opacity="0" result="BackgroundImageFix"/>
<feColorMatrix in="SourceAlpha" type="matrix" values="0 0 0 0 0 0 0 0 0 0 0 0 0 0 0 0 0 0 127 0" result="hardAlpha"/>
<feOffset dy="5"/>
<feGaussianBlur stdDeviation="125"/>
<feComposite in2="hardAlpha" operator="out"/>
<feColorMatrix type="matrix" values="0 0 0 0 0 0 0 0 0 0 0 0 0 0 0 0 0 0 0.05 0"/>
<feBlend mode="normal" in2="BackgroundImageFix" result="effect1_dropShadow_1177_8507"/>
<feBlend mode="normal" in="SourceGraphic" in2="effect1_dropShadow_1177_8507" result="shape"/>
</filter>
<linearGradient id="paint0_linear_1177_8507" x1="446.5" y1="245.274" x2="446.5" y2="439.726" gradientUnits="userSpaceOnUse">
<stop stop-color="#EEF3FD"/>
<stop offset="1" stop-color="white"/>
</linearGradient>
</defs>
</svg>
