<svg width="461" height="232" viewBox="0 0 461 232" fill="none" xmlns="http://www.w3.org/2000/svg">
<rect x="0.588867" width="459.822" height="231" rx="24" fill="white" fill-opacity="0.46"/>
<path d="M183.325 120.713C183.325 110.46 181.305 100.307 177.382 90.8347C173.458 81.3622 167.707 72.7553 160.457 65.5053C153.207 58.2554 144.6 52.5044 135.128 48.5808C125.655 44.6572 115.503 42.6377 105.25 42.6377C94.9968 42.6377 84.8443 44.6572 75.3718 48.5808C65.8993 52.5044 57.2924 58.2554 50.0425 65.5053C42.7925 72.7552 37.0416 81.3622 33.1179 90.8346C29.1943 100.307 27.1748 110.46 27.1748 120.713" stroke="#F9F5FF" stroke-width="17.35" stroke-linecap="round" stroke-linejoin="round"/>
<path d="M30.0115 99.8583C34.4155 83.9696 43.7365 69.8829 56.6386 59.6172C69.5407 49.3515 85.3615 43.4339 101.834 42.7125" stroke="#D96704" stroke-width="17.35" stroke-linecap="round" stroke-linejoin="round"/>
<path d="M65.0616 107.962L62.9536 104.189H61.5743V107.962H60.286V98.7365H63.7604C64.6105 98.7365 65.2915 99.0011 65.8033 99.5303C66.3238 100.051 66.5841 100.701 66.5841 101.482C66.5841 102.15 66.3845 102.723 65.9855 103.2C65.5864 103.668 65.0399 103.968 64.3459 104.098L66.545 107.962H65.0616ZM61.5743 103.044H63.5261C64.0466 103.044 64.4674 102.905 64.7883 102.627C65.1093 102.341 65.2698 101.959 65.2698 101.482C65.2698 100.996 65.1093 100.61 64.7883 100.324C64.4674 100.029 64.0466 99.8816 63.5261 99.8816H61.5743V103.044ZM67.7585 106.284C67.7585 105.746 67.932 105.317 68.279 104.996C68.626 104.666 69.0858 104.462 69.6584 104.384L71.35 104.137C71.671 104.093 71.8315 103.937 71.8315 103.668C71.8315 103.339 71.7187 103.07 71.4931 102.862C71.2676 102.653 70.9293 102.549 70.4782 102.549C70.0618 102.549 69.7321 102.666 69.4892 102.901C69.2463 103.126 69.1032 103.43 69.0598 103.811L67.8887 103.538C67.9494 102.94 68.2227 102.454 68.7085 102.081C69.1943 101.699 69.7755 101.508 70.4521 101.508C71.337 101.508 71.9919 101.725 72.417 102.159C72.8421 102.584 73.0546 103.13 73.0546 103.798V106.934C73.0546 107.307 73.0807 107.65 73.1327 107.962H71.9356C71.8922 107.702 71.8705 107.42 71.8705 107.117C71.697 107.394 71.4411 107.637 71.1028 107.845C70.7731 108.053 70.3567 108.158 69.8536 108.158C69.2376 108.158 68.7345 107.975 68.3441 107.611C67.9537 107.238 67.7585 106.796 67.7585 106.284ZM70.0227 107.13C70.5692 107.13 71.0073 106.982 71.337 106.687C71.6666 106.392 71.8315 105.924 71.8315 105.282V104.996L69.9186 105.282C69.641 105.325 69.4198 105.425 69.255 105.581C69.0902 105.737 69.0077 105.95 69.0077 106.219C69.0077 106.462 69.0988 106.674 69.281 106.856C69.4719 107.039 69.7191 107.13 70.0227 107.13ZM76.1703 107.962H74.9602V101.703H76.1703V107.962ZM74.9341 99.9597C74.7693 99.7862 74.6869 99.578 74.6869 99.3351C74.6869 99.0922 74.7693 98.884 74.9341 98.7105C75.1076 98.537 75.3158 98.4503 75.5587 98.4503C75.8016 98.4503 76.0098 98.537 76.1833 98.7105C76.3568 98.8753 76.4436 99.0835 76.4436 99.3351C76.4436 99.578 76.3568 99.7862 76.1833 99.9597C76.0098 100.125 75.8016 100.207 75.5587 100.207C75.3158 100.207 75.1076 100.125 74.9341 99.9597ZM77.6658 106.336L78.7719 105.945C78.8153 106.284 78.9627 106.566 79.2143 106.791C79.4659 107.008 79.8042 107.117 80.2293 107.117C80.5589 107.117 80.8192 107.039 81.0101 106.882C81.2009 106.718 81.2963 106.518 81.2963 106.284C81.2963 105.867 81.0274 105.598 80.4895 105.477L79.4225 105.243C78.9367 105.139 78.555 104.93 78.2774 104.618C77.9998 104.306 77.861 103.929 77.861 103.486C77.861 102.948 78.0779 102.484 78.5116 102.094C78.9541 101.703 79.4789 101.508 80.0862 101.508C80.4852 101.508 80.8409 101.569 81.1532 101.69C81.4655 101.803 81.7084 101.955 81.8819 102.146C82.0554 102.337 82.1855 102.515 82.2723 102.679C82.359 102.844 82.4241 103.013 82.4675 103.187L81.3874 103.59C81.3701 103.486 81.3397 103.386 81.2963 103.291C81.253 103.187 81.1836 103.074 81.0881 102.953C81.0014 102.831 80.8713 102.736 80.6977 102.666C80.5242 102.588 80.3204 102.549 80.0862 102.549C79.7825 102.549 79.531 102.632 79.3314 102.796C79.1406 102.961 79.0452 103.156 79.0452 103.382C79.0452 103.781 79.2837 104.033 79.7608 104.137L80.7758 104.358C81.331 104.479 81.7561 104.705 82.0511 105.035C82.3547 105.356 82.5065 105.75 82.5065 106.219C82.5065 106.713 82.3026 107.16 81.8949 107.559C81.4959 107.958 80.9363 108.158 80.2163 108.158C79.4442 108.158 78.8413 107.967 78.4075 107.585C77.9738 107.195 77.7266 106.778 77.6658 106.336ZM85.3451 107.962H84.135V101.703H85.3451V107.962ZM84.109 99.9597C83.9441 99.7862 83.8617 99.578 83.8617 99.3351C83.8617 99.0922 83.9441 98.884 84.109 98.7105C84.2825 98.537 84.4907 98.4503 84.7336 98.4503C84.9765 98.4503 85.1847 98.537 85.3582 98.7105C85.5317 98.8753 85.6184 99.0835 85.6184 99.3351C85.6184 99.578 85.5317 99.7862 85.3582 99.9597C85.1847 100.125 84.9765 100.207 84.7336 100.207C84.4907 100.207 84.2825 100.125 84.109 99.9597ZM88.6494 104.345V107.962H87.4262V101.703H88.6234V102.601C89.0398 101.881 89.6817 101.521 90.5492 101.521C91.2693 101.521 91.8201 101.751 92.2018 102.211C92.5922 102.671 92.7874 103.265 92.7874 103.994V107.962H91.5642V104.202C91.5642 103.152 91.0784 102.627 90.1068 102.627C89.647 102.627 89.287 102.792 89.0268 103.122C88.7752 103.443 88.6494 103.85 88.6494 104.345ZM94.2776 108.301L95.4618 108.027C95.5051 108.47 95.683 108.834 95.9953 109.121C96.3076 109.415 96.6979 109.563 97.1664 109.563C98.4416 109.563 99.0792 108.886 99.0792 107.533V106.635C98.9231 106.939 98.6758 107.186 98.3375 107.377C98.0079 107.568 97.6175 107.663 97.1664 107.663C96.3336 107.663 95.6439 107.381 95.0974 106.817C94.5596 106.245 94.2906 105.516 94.2906 104.631C94.2906 103.772 94.5596 103.052 95.0974 102.471C95.6353 101.881 96.3249 101.586 97.1664 101.586C98.1206 101.586 98.7626 101.916 99.0922 102.575V101.703H100.302V107.494C100.302 107.91 100.246 108.296 100.133 108.652C100.029 109.016 99.86 109.35 99.6258 109.654C99.3915 109.958 99.0619 110.196 98.6368 110.37C98.2204 110.543 97.7303 110.63 97.1664 110.63C96.3943 110.63 95.7394 110.409 95.2015 109.966C94.6637 109.533 94.3557 108.977 94.2776 108.301ZM97.3486 106.635C97.8777 106.635 98.3072 106.453 98.6368 106.089C98.9665 105.716 99.1313 105.23 99.1313 104.631C99.1313 104.033 98.9665 103.551 98.6368 103.187C98.3072 102.814 97.8777 102.627 97.3486 102.627C96.8107 102.627 96.3726 102.809 96.0343 103.174C95.7047 103.538 95.5398 104.024 95.5398 104.631C95.5398 105.247 95.7003 105.737 96.0213 106.102C96.3509 106.457 96.7934 106.635 97.3486 106.635ZM112.028 107.962L111.026 105.386H106.94L105.964 107.962H104.598L108.268 98.7365H109.738L113.408 107.962H112.028ZM108.97 100.064L107.396 104.202H110.571L108.97 100.064ZM115.729 107.962H114.519V101.703H115.69V102.536C115.881 102.207 116.15 101.955 116.497 101.781C116.844 101.608 117.208 101.521 117.59 101.521C117.997 101.521 118.37 101.621 118.709 101.821C119.047 102.02 119.299 102.315 119.463 102.705C119.897 101.916 120.595 101.521 121.558 101.521C122.157 101.521 122.664 101.725 123.081 102.133C123.506 102.541 123.719 103.13 123.719 103.903V107.962H122.508V104.033C122.508 103.599 122.396 103.252 122.17 102.992C121.953 102.731 121.623 102.601 121.181 102.601C120.756 102.601 120.409 102.753 120.14 103.057C119.871 103.352 119.737 103.725 119.737 104.176V107.962H118.513V104.033C118.513 103.599 118.401 103.252 118.175 102.992C117.958 102.731 117.629 102.601 117.186 102.601C116.752 102.601 116.401 102.749 116.132 103.044C115.863 103.339 115.729 103.72 115.729 104.189V107.962ZM126.964 106.479C127.346 106.869 127.81 107.065 128.356 107.065C128.903 107.065 129.363 106.869 129.736 106.479C130.117 106.08 130.308 105.529 130.308 104.826C130.308 104.132 130.117 103.59 129.736 103.2C129.363 102.801 128.903 102.601 128.356 102.601C127.81 102.601 127.346 102.801 126.964 103.2C126.591 103.59 126.405 104.132 126.405 104.826C126.405 105.529 126.591 106.08 126.964 106.479ZM126.053 102.458C126.66 101.825 127.428 101.508 128.356 101.508C129.285 101.508 130.048 101.825 130.647 102.458C131.254 103.083 131.558 103.872 131.558 104.826C131.558 105.789 131.258 106.587 130.66 107.221C130.061 107.845 129.293 108.158 128.356 108.158C127.42 108.158 126.652 107.845 126.053 107.221C125.455 106.587 125.155 105.789 125.155 104.826C125.155 103.872 125.455 103.083 126.053 102.458ZM137.184 107.208C137.019 107.52 136.767 107.759 136.429 107.923C136.091 108.08 135.726 108.158 135.336 108.158C134.625 108.158 134.057 107.923 133.631 107.455C133.206 106.978 132.994 106.375 132.994 105.646V101.703H134.217V105.464C134.217 105.932 134.33 106.318 134.555 106.622C134.79 106.926 135.15 107.078 135.635 107.078C136.121 107.078 136.49 106.934 136.741 106.648C136.993 106.353 137.119 105.963 137.119 105.477V101.703H138.342V106.804C138.342 107.212 138.364 107.598 138.407 107.962H137.236C137.201 107.772 137.184 107.52 137.184 107.208ZM141.652 104.345V107.962H140.429V101.703H141.626V102.601C142.043 101.881 142.685 101.521 143.552 101.521C144.272 101.521 144.823 101.751 145.205 102.211C145.595 102.671 145.79 103.265 145.79 103.994V107.962H144.567V104.202C144.567 103.152 144.081 102.627 143.11 102.627C142.65 102.627 142.29 102.792 142.03 103.122C141.778 103.443 141.652 103.85 141.652 104.345ZM149.376 99.7255V101.703H150.729V102.809H149.376V106.063C149.376 106.358 149.441 106.574 149.571 106.713C149.71 106.852 149.935 106.921 150.248 106.921C150.43 106.921 150.59 106.904 150.729 106.869V107.91C150.521 107.988 150.243 108.027 149.896 108.027C149.358 108.027 148.933 107.871 148.621 107.559C148.309 107.247 148.153 106.809 148.153 106.245V102.809H146.955V101.703H147.294C147.615 101.703 147.853 101.617 148.009 101.443C148.174 101.261 148.257 101.027 148.257 100.74V99.7255H149.376Z" fill="#667085"/>
<path d="M59.1727 143.611H56.7784V140.878C55.0954 140.67 53.7768 140.054 52.8226 139.03C51.8683 138.007 51.3218 136.87 51.183 135.621L54.0978 134.814C54.1672 135.63 54.4275 136.35 54.8786 136.974C55.3297 137.582 55.9629 137.981 56.7784 138.172V133.383L56.3099 133.279C54.9046 132.967 53.8029 132.403 53.0048 131.587C52.224 130.772 51.8336 129.74 51.8336 128.49C51.8336 127.206 52.2934 126.087 53.213 125.133C54.1499 124.161 55.3383 123.58 56.7784 123.389V120.631H59.1727V123.415C60.578 123.641 61.6624 124.17 62.4258 125.003C63.2066 125.818 63.701 126.738 63.9092 127.762L61.0985 128.646C60.8903 127.415 60.2484 126.59 59.1727 126.174V130.833L59.4069 130.885C60.9164 131.214 62.0701 131.822 62.8682 132.706C63.6837 133.591 64.0914 134.632 64.0914 135.829C64.0914 137.061 63.6577 138.154 62.7902 139.109C61.9227 140.063 60.7168 140.644 59.1727 140.852V143.611ZM54.8786 128.308C54.8786 128.794 55.0347 129.228 55.347 129.609C55.6767 129.974 56.1538 130.217 56.7784 130.338V126.07C56.1711 126.226 55.7027 126.512 55.373 126.929C55.0434 127.328 54.8786 127.788 54.8786 128.308ZM61.0725 135.986C61.0725 134.945 60.4392 134.251 59.1727 133.904V138.172C59.7973 138.05 60.2657 137.79 60.578 137.391C60.9077 136.974 61.0725 136.506 61.0725 135.986ZM73.2469 140.566H70.176V129.011H66.0901V126.877C67.2699 126.859 68.2588 126.556 69.0569 125.966C69.855 125.359 70.3495 124.604 70.5403 123.702H73.2469V140.566ZM79.6176 132.134C79.6176 134.32 80.0166 135.925 80.8147 136.948C81.4393 137.781 82.3068 138.198 83.4172 138.198C84.4929 138.198 85.3604 137.781 86.0197 136.948C86.8005 135.942 87.1908 134.337 87.1908 132.134C87.1908 129.93 86.8005 128.325 86.0197 127.319C85.3604 126.486 84.4929 126.07 83.4172 126.07C82.3068 126.07 81.4393 126.486 80.8147 127.319C80.0166 128.308 79.6176 129.913 79.6176 132.134ZM78.03 138.198C77.0237 136.688 76.5206 134.667 76.5206 132.134C76.5206 129.601 77.0237 127.579 78.03 126.07C79.2619 124.231 81.0576 123.311 83.4172 123.311C85.7595 123.311 87.5465 124.231 88.7784 126.07C89.7847 127.579 90.2878 129.601 90.2878 132.134C90.2878 134.667 89.7847 136.688 88.7784 138.198C87.5465 140.037 85.7595 140.956 83.4172 140.956C81.0576 140.956 79.2619 140.037 78.03 138.198ZM95.6544 132.134C95.6544 134.32 96.0535 135.925 96.8516 136.948C97.4762 137.781 98.3437 138.198 99.4541 138.198C100.53 138.198 101.397 137.781 102.057 136.948C102.837 135.942 103.228 134.337 103.228 132.134C103.228 129.93 102.837 128.325 102.057 127.319C101.397 126.486 100.53 126.07 99.4541 126.07C98.3437 126.07 97.4762 126.486 96.8516 127.319C96.0535 128.308 95.6544 129.913 95.6544 132.134ZM94.0669 138.198C93.0606 136.688 92.5575 134.667 92.5575 132.134C92.5575 129.601 93.0606 127.579 94.0669 126.07C95.2988 124.231 97.0945 123.311 99.4541 123.311C101.796 123.311 103.583 124.231 104.815 126.07C105.822 127.579 106.325 129.601 106.325 132.134C106.325 134.667 105.822 136.688 104.815 138.198C103.583 140.037 101.796 140.956 99.4541 140.956C97.0945 140.956 95.2988 140.037 94.0669 138.198ZM108.149 138.666C108.149 138.111 108.357 137.642 108.774 137.261C109.19 136.879 109.702 136.688 110.309 136.688C111.003 136.688 111.567 136.94 112.001 137.443C112.452 137.946 112.677 138.614 112.677 139.447C112.677 141.095 112.235 142.37 111.35 143.273C110.483 144.192 109.511 144.721 108.435 144.86V143.325C109.043 143.186 109.572 142.847 110.023 142.31C110.491 141.772 110.734 141.173 110.752 140.514C110.578 140.601 110.37 140.644 110.127 140.644C109.554 140.644 109.077 140.462 108.696 140.097C108.331 139.733 108.149 139.256 108.149 138.666ZM118.121 132.134C118.121 134.32 118.52 135.925 119.318 136.948C119.943 137.781 120.811 138.198 121.921 138.198C122.997 138.198 123.864 137.781 124.523 136.948C125.304 135.942 125.695 134.337 125.695 132.134C125.695 129.93 125.304 128.325 124.523 127.319C123.864 126.486 122.997 126.07 121.921 126.07C120.811 126.07 119.943 126.486 119.318 127.319C118.52 128.308 118.121 129.913 118.121 132.134ZM116.534 138.198C115.528 136.688 115.024 134.667 115.024 132.134C115.024 129.601 115.528 127.579 116.534 126.07C117.766 124.231 119.561 123.311 121.921 123.311C124.263 123.311 126.05 124.231 127.282 126.07C128.288 127.579 128.792 129.601 128.792 132.134C128.792 134.667 128.288 136.688 127.282 138.198C126.05 140.037 124.263 140.956 121.921 140.956C119.561 140.956 117.766 140.037 116.534 138.198ZM134.158 132.134C134.158 134.32 134.557 135.925 135.355 136.948C135.98 137.781 136.847 138.198 137.958 138.198C139.034 138.198 139.901 137.781 140.56 136.948C141.341 135.942 141.732 134.337 141.732 132.134C141.732 129.93 141.341 128.325 140.56 127.319C139.901 126.486 139.034 126.07 137.958 126.07C136.847 126.07 135.98 126.486 135.355 127.319C134.557 128.308 134.158 129.913 134.158 132.134ZM132.571 138.198C131.564 136.688 131.061 134.667 131.061 132.134C131.061 129.601 131.564 127.579 132.571 126.07C133.803 124.231 135.598 123.311 137.958 123.311C140.3 123.311 142.087 124.231 143.319 126.07C144.325 127.579 144.828 129.601 144.828 132.134C144.828 134.667 144.325 136.688 143.319 138.198C142.087 140.037 140.3 140.956 137.958 140.956C135.598 140.956 133.803 140.037 132.571 138.198ZM150.195 132.134C150.195 134.32 150.594 135.925 151.392 136.948C152.017 137.781 152.884 138.198 153.995 138.198C155.07 138.198 155.938 137.781 156.597 136.948C157.378 135.942 157.768 134.337 157.768 132.134C157.768 129.93 157.378 128.325 156.597 127.319C155.938 126.486 155.07 126.07 153.995 126.07C152.884 126.07 152.017 126.486 151.392 127.319C150.594 128.308 150.195 129.913 150.195 132.134ZM148.608 138.198C147.601 136.688 147.098 134.667 147.098 132.134C147.098 129.601 147.601 127.579 148.608 126.07C149.839 124.231 151.635 123.311 153.995 123.311C156.337 123.311 158.124 124.231 159.356 126.07C160.362 127.579 160.865 129.601 160.865 132.134C160.865 134.667 160.362 136.688 159.356 138.198C158.124 140.037 156.337 140.956 153.995 140.956C151.635 140.956 149.839 140.037 148.608 138.198Z" fill="#101828"/>
<g filter="url(#filter0_d_1176_7586)">
<circle cx="100.339" cy="43.3492" r="16.3673" fill="white"/>
</g>
<path d="M95.588 39.9924L95.2464 40.9032C94.8821 40.6907 94.4418 40.5844 93.9256 40.5844C93.1742 40.5844 92.5631 40.8311 92.0925 41.3245C91.6295 41.8179 91.3752 42.4517 91.3297 43.226C91.4966 42.9527 91.7471 42.725 92.0811 42.5428C92.4227 42.3606 92.8212 42.2696 93.2766 42.2696C94.0281 42.2696 94.6354 42.4935 95.0984 42.9413C95.569 43.3892 95.8043 44.004 95.8043 44.7858C95.8043 45.5525 95.5387 46.1635 95.0073 46.619C94.476 47.0744 93.8308 47.3021 93.0717 47.3021C92.2823 47.3021 91.6029 47.0175 91.0336 46.4482C90.4719 45.8713 90.1911 45.0174 90.1911 43.8864C90.1911 42.5504 90.5478 41.4991 91.2613 40.7325C91.9749 39.9658 92.8857 39.5825 93.994 39.5825C94.6695 39.5825 95.2009 39.7191 95.588 39.9924ZM91.4891 44.7858C91.4891 45.2489 91.6485 45.6246 91.9673 45.9131C92.2861 46.1939 92.658 46.3343 93.0831 46.3343C93.5309 46.3343 93.9067 46.1939 94.2103 45.9131C94.5215 45.6322 94.6771 45.2565 94.6771 44.7858C94.6771 44.3076 94.5215 43.9281 94.2103 43.6473C93.9067 43.3664 93.5309 43.226 93.0831 43.226C92.6352 43.226 92.2557 43.3664 91.9445 43.6473C91.6409 43.9281 91.4891 44.3076 91.4891 44.7858ZM96.6136 45.469V44.1824L99.7789 39.7533H101.316V44.4329H102.58V45.469H101.316V47.1313H100.234V45.469H96.6136ZM100.234 44.4329V40.8235L97.6384 44.4329H100.234ZM104.464 40.8235C104.297 40.9905 104.213 41.2031 104.213 41.4612C104.213 41.7192 104.297 41.9356 104.464 42.1101C104.631 42.2771 104.839 42.3606 105.09 42.3606C105.34 42.3606 105.549 42.2771 105.716 42.1101C105.883 41.9356 105.967 41.7192 105.967 41.4612C105.967 41.2031 105.883 40.9905 105.716 40.8235C105.549 40.6565 105.34 40.573 105.09 40.573C104.839 40.573 104.631 40.6565 104.464 40.8235ZM103.268 41.4612C103.268 40.9678 103.447 40.5465 103.803 40.1973C104.168 39.8481 104.597 39.6736 105.09 39.6736C105.583 39.6736 106.012 39.8481 106.377 40.1973C106.741 40.5465 106.923 40.9678 106.923 41.4612C106.923 41.9621 106.741 42.3872 106.377 42.7364C106.012 43.0855 105.583 43.2601 105.09 43.2601C104.597 43.2601 104.168 43.0855 103.803 42.7364C103.447 42.3872 103.268 41.9621 103.268 41.4612ZM108.973 44.7858C108.806 44.9528 108.722 45.1654 108.722 45.4235C108.722 45.6815 108.806 45.8979 108.973 46.0725C109.14 46.2394 109.348 46.3229 109.599 46.3229C109.849 46.3229 110.058 46.2394 110.225 46.0725C110.392 45.8979 110.475 45.6815 110.475 45.4235C110.475 45.1654 110.392 44.9528 110.225 44.7858C110.058 44.6189 109.849 44.5354 109.599 44.5354C109.348 44.5354 109.14 44.6189 108.973 44.7858ZM107.777 45.4235C107.777 44.9301 107.955 44.5088 108.312 44.1596C108.676 43.8104 109.105 43.6359 109.599 43.6359C110.092 43.6359 110.521 43.8104 110.885 44.1596C111.25 44.5088 111.432 44.9301 111.432 45.4235C111.432 45.9244 111.25 46.3495 110.885 46.6987C110.521 47.0479 110.092 47.2224 109.599 47.2224C109.105 47.2224 108.676 47.0479 108.312 46.6987C107.955 46.3495 107.777 45.9244 107.777 45.4235ZM105.227 47.1313H104.179L109.485 39.7533H110.51L105.227 47.1313Z" fill="#012677"/>
<path d="M27.5004 118.963C27.5004 129.216 29.5199 139.368 33.4435 148.841C37.3671 158.313 43.1181 166.92 50.368 174.17C57.618 181.42 66.2249 187.171 75.6974 191.094C85.1699 195.018 95.3224 197.038 105.575 197.038C115.828 197.038 125.981 195.018 135.453 191.095C144.926 187.171 153.533 181.42 160.783 174.17C168.033 166.92 173.784 158.313 177.707 148.841C181.631 139.368 183.65 129.216 183.65 118.963" stroke="#F9F5FF" stroke-width="17.35" stroke-linecap="round" stroke-linejoin="round"/>
<g filter="url(#filter1_d_1176_7586)">
<rect x="268" y="26.5" width="153" height="178" rx="8" fill="white" shape-rendering="crispEdges"/>
<path d="M294.984 41.084H292.14V48.5H290.964V41.084H288.12V39.992H294.984V41.084ZM296.113 47.132C296.465 47.492 296.893 47.672 297.397 47.672C297.901 47.672 298.325 47.492 298.669 47.132C299.021 46.764 299.197 46.256 299.197 45.608C299.197 44.968 299.021 44.468 298.669 44.108C298.325 43.74 297.901 43.556 297.397 43.556C296.893 43.556 296.465 43.74 296.113 44.108C295.769 44.468 295.597 44.968 295.597 45.608C295.597 46.256 295.769 46.764 296.113 47.132ZM295.273 43.424C295.833 42.84 296.541 42.548 297.397 42.548C298.253 42.548 298.957 42.84 299.509 43.424C300.069 44 300.349 44.728 300.349 45.608C300.349 46.496 300.073 47.232 299.521 47.816C298.969 48.392 298.261 48.68 297.397 48.68C296.533 48.68 295.825 48.392 295.273 47.816C294.721 47.232 294.445 46.496 294.445 45.608C294.445 44.728 294.721 44 295.273 43.424ZM303.245 40.904V42.728H304.493V43.748H303.245V46.748C303.245 47.02 303.305 47.22 303.425 47.348C303.553 47.476 303.761 47.54 304.049 47.54C304.217 47.54 304.365 47.524 304.493 47.492V48.452C304.301 48.524 304.045 48.56 303.725 48.56C303.229 48.56 302.837 48.416 302.549 48.128C302.261 47.84 302.117 47.436 302.117 46.916V43.748H301.013V42.728H301.325C301.621 42.728 301.841 42.648 301.985 42.488C302.137 42.32 302.213 42.104 302.213 41.84V40.904H303.245ZM305.639 46.952C305.639 46.456 305.799 46.06 306.119 45.764C306.439 45.46 306.863 45.272 307.391 45.2L308.951 44.972C309.247 44.932 309.395 44.788 309.395 44.54C309.395 44.236 309.291 43.988 309.083 43.796C308.875 43.604 308.563 43.508 308.147 43.508C307.763 43.508 307.459 43.616 307.235 43.832C307.011 44.04 306.879 44.32 306.839 44.672L305.759 44.42C305.815 43.868 306.067 43.42 306.515 43.076C306.963 42.724 307.499 42.548 308.123 42.548C308.939 42.548 309.543 42.748 309.935 43.148C310.327 43.54 310.523 44.044 310.523 44.66V47.552C310.523 47.896 310.547 48.212 310.595 48.5H309.491C309.451 48.26 309.431 48 309.431 47.72C309.271 47.976 309.035 48.2 308.723 48.392C308.419 48.584 308.035 48.68 307.571 48.68C307.003 48.68 306.539 48.512 306.179 48.176C305.819 47.832 305.639 47.424 305.639 46.952ZM307.727 47.732C308.231 47.732 308.635 47.596 308.939 47.324C309.243 47.052 309.395 46.62 309.395 46.028V45.764L307.631 46.028C307.375 46.068 307.171 46.16 307.019 46.304C306.867 46.448 306.791 46.644 306.791 46.892C306.791 47.116 306.875 47.312 307.043 47.48C307.219 47.648 307.447 47.732 307.727 47.732ZM313.408 48.5H312.28V39.812H313.408V48.5ZM322.851 48.5L320.907 45.02H319.635V48.5H318.447V39.992H321.651C322.435 39.992 323.063 40.236 323.535 40.724C324.015 41.204 324.255 41.804 324.255 42.524C324.255 43.14 324.071 43.668 323.703 44.108C323.335 44.54 322.831 44.816 322.191 44.936L324.219 48.5H322.851ZM319.635 43.964H321.435C321.915 43.964 322.303 43.836 322.599 43.58C322.895 43.316 323.043 42.964 323.043 42.524C323.043 42.076 322.895 41.72 322.599 41.456C322.303 41.184 321.915 41.048 321.435 41.048H319.635V43.964ZM325.338 46.952C325.338 46.456 325.498 46.06 325.818 45.764C326.138 45.46 326.562 45.272 327.09 45.2L328.65 44.972C328.946 44.932 329.094 44.788 329.094 44.54C329.094 44.236 328.99 43.988 328.782 43.796C328.574 43.604 328.262 43.508 327.846 43.508C327.462 43.508 327.158 43.616 326.934 43.832C326.71 44.04 326.578 44.32 326.538 44.672L325.458 44.42C325.514 43.868 325.766 43.42 326.214 43.076C326.662 42.724 327.198 42.548 327.822 42.548C328.638 42.548 329.242 42.748 329.634 43.148C330.026 43.54 330.222 44.044 330.222 44.66V47.552C330.222 47.896 330.246 48.212 330.294 48.5H329.19C329.15 48.26 329.13 48 329.13 47.72C328.97 47.976 328.734 48.2 328.422 48.392C328.118 48.584 327.734 48.68 327.27 48.68C326.702 48.68 326.238 48.512 325.878 48.176C325.518 47.832 325.338 47.424 325.338 46.952ZM327.426 47.732C327.93 47.732 328.334 47.596 328.638 47.324C328.942 47.052 329.094 46.62 329.094 46.028V45.764L327.33 46.028C327.074 46.068 326.87 46.16 326.718 46.304C326.566 46.448 326.49 46.644 326.49 46.892C326.49 47.116 326.574 47.312 326.742 47.48C326.918 47.648 327.146 47.732 327.426 47.732ZM333.096 48.5H331.98V42.728H333.096V48.5ZM331.956 41.12C331.804 40.96 331.728 40.768 331.728 40.544C331.728 40.32 331.804 40.128 331.956 39.968C332.116 39.808 332.308 39.728 332.532 39.728C332.756 39.728 332.948 39.808 333.108 39.968C333.268 40.12 333.348 40.312 333.348 40.544C333.348 40.768 333.268 40.96 333.108 41.12C332.948 41.272 332.756 41.348 332.532 41.348C332.308 41.348 332.116 41.272 331.956 41.12ZM334.475 47L335.495 46.64C335.535 46.952 335.671 47.212 335.903 47.42C336.135 47.62 336.447 47.72 336.839 47.72C337.143 47.72 337.383 47.648 337.559 47.504C337.735 47.352 337.823 47.168 337.823 46.952C337.823 46.568 337.575 46.32 337.079 46.208L336.095 45.992C335.647 45.896 335.295 45.704 335.039 45.416C334.783 45.128 334.655 44.78 334.655 44.372C334.655 43.876 334.855 43.448 335.255 43.088C335.663 42.728 336.147 42.548 336.707 42.548C337.075 42.548 337.403 42.604 337.691 42.716C337.979 42.82 338.203 42.96 338.363 43.136C338.523 43.312 338.643 43.476 338.723 43.628C338.803 43.78 338.863 43.936 338.903 44.096L337.907 44.468C337.891 44.372 337.863 44.28 337.823 44.192C337.783 44.096 337.719 43.992 337.631 43.88C337.551 43.768 337.431 43.68 337.271 43.616C337.111 43.544 336.923 43.508 336.707 43.508C336.427 43.508 336.195 43.584 336.011 43.736C335.835 43.888 335.747 44.068 335.747 44.276C335.747 44.644 335.967 44.876 336.407 44.972L337.343 45.176C337.855 45.288 338.247 45.496 338.519 45.8C338.799 46.096 338.939 46.46 338.939 46.892C338.939 47.348 338.751 47.76 338.375 48.128C338.007 48.496 337.491 48.68 336.827 48.68C336.115 48.68 335.559 48.504 335.159 48.152C334.759 47.792 334.531 47.408 334.475 47ZM341.114 45.02H344.27C344.254 44.588 344.11 44.236 343.838 43.964C343.566 43.684 343.182 43.544 342.686 43.544C342.238 43.544 341.87 43.692 341.582 43.988C341.294 44.276 341.138 44.62 341.114 45.02ZM344.438 46.52L345.41 46.856C345.242 47.392 344.93 47.832 344.474 48.176C344.018 48.512 343.466 48.68 342.818 48.68C342.01 48.68 341.322 48.404 340.754 47.852C340.194 47.292 339.914 46.54 339.914 45.596C339.914 44.716 340.186 43.988 340.73 43.412C341.274 42.836 341.922 42.548 342.674 42.548C343.546 42.548 344.226 42.824 344.714 43.376C345.202 43.92 345.446 44.652 345.446 45.572C345.446 45.716 345.438 45.836 345.422 45.932H341.078C341.086 46.444 341.254 46.864 341.582 47.192C341.918 47.52 342.33 47.684 342.818 47.684C343.642 47.684 344.182 47.296 344.438 46.52ZM347.558 45.596C347.558 46.204 347.706 46.7 348.002 47.084C348.306 47.468 348.722 47.66 349.25 47.66C349.754 47.66 350.158 47.464 350.462 47.072C350.766 46.68 350.918 46.18 350.918 45.572C350.918 44.972 350.77 44.488 350.474 44.12C350.178 43.752 349.774 43.568 349.262 43.568C348.75 43.568 348.338 43.756 348.026 44.132C347.714 44.508 347.558 44.996 347.558 45.596ZM350.93 47.72V47.624C350.778 47.92 350.546 48.168 350.234 48.368C349.93 48.56 349.566 48.656 349.142 48.656C348.318 48.656 347.654 48.368 347.15 47.792C346.654 47.208 346.406 46.476 346.406 45.596C346.406 44.756 346.662 44.044 347.174 43.46C347.686 42.868 348.342 42.572 349.142 42.572C349.614 42.572 349.998 42.668 350.294 42.86C350.59 43.044 350.794 43.272 350.906 43.544V39.812H352.022V47.432C352.022 47.824 352.042 48.18 352.082 48.5H350.99C350.95 48.276 350.93 48.016 350.93 47.72ZM354.132 48.32C353.972 48.16 353.892 47.964 353.892 47.732C353.892 47.5 353.972 47.304 354.132 47.144C354.292 46.976 354.488 46.892 354.72 46.892C354.952 46.892 355.148 46.976 355.308 47.144C355.476 47.304 355.56 47.5 355.56 47.732C355.56 47.964 355.476 48.16 355.308 48.32C355.148 48.48 354.952 48.56 354.72 48.56C354.488 48.56 354.292 48.48 354.132 48.32ZM354.12 44.096C353.96 43.936 353.88 43.74 353.88 43.508C353.88 43.276 353.96 43.08 354.12 42.92C354.28 42.752 354.476 42.668 354.708 42.668C354.94 42.668 355.136 42.752 355.296 42.92C355.464 43.08 355.548 43.276 355.548 43.508C355.548 43.74 355.464 43.936 355.296 44.096C355.136 44.256 354.94 44.336 354.708 44.336C354.476 44.336 354.28 44.256 354.12 44.096Z" fill="#012677"/>
<path d="M295.2 80.84H293.16V78.7C290.38 78.32 289.06 76.3 288.88 74.6L291.36 74C291.48 75.26 292.32 76.42 294.16 76.42C295.46 76.42 296.22 75.8 296.22 74.92C296.22 74.24 295.72 73.72 294.72 73.5L292.88 73.1C290.72 72.62 289.38 71.26 289.38 69.34C289.38 67.22 291.02 65.66 293.16 65.32V63.18H295.2V65.38C297.5 65.8 298.5 67.4 298.78 68.74L296.32 69.44C296.2 68.74 295.68 67.58 294.04 67.58C292.76 67.58 292.06 68.32 292.06 69.14C292.06 69.76 292.5 70.28 293.44 70.48L295.26 70.9C297.78 71.46 298.92 72.96 298.92 74.76C298.92 76.6 297.6 78.3 295.2 78.68V80.84ZM306.614 73.74H300.814V71.38H306.614V73.74ZM314.212 73.74H308.412V71.38H314.212V73.74ZM324.759 73.74H318.959V71.38H324.759V73.74ZM332.356 73.74H326.556V71.38H332.356V73.74ZM342.903 73.74H337.103V71.38H342.903V73.74ZM350.501 73.74H344.701V71.38H350.501V73.74Z" fill="#012677"/>
<path d="M296.076 102.5H294.852L290.256 95.564V102.5H289.08V93.992H290.652L294.9 100.52V93.992H296.076V102.5ZM297.694 100.952C297.694 100.456 297.854 100.06 298.174 99.764C298.494 99.46 298.918 99.272 299.446 99.2L301.006 98.972C301.302 98.932 301.45 98.788 301.45 98.54C301.45 98.236 301.346 97.988 301.138 97.796C300.93 97.604 300.618 97.508 300.202 97.508C299.818 97.508 299.514 97.616 299.29 97.832C299.066 98.04 298.934 98.32 298.894 98.672L297.814 98.42C297.87 97.868 298.122 97.42 298.57 97.076C299.018 96.724 299.554 96.548 300.178 96.548C300.994 96.548 301.598 96.748 301.99 97.148C302.382 97.54 302.578 98.044 302.578 98.66V101.552C302.578 101.896 302.602 102.212 302.65 102.5H301.546C301.506 102.26 301.486 102 301.486 101.72C301.326 101.976 301.09 102.2 300.778 102.392C300.474 102.584 300.09 102.68 299.626 102.68C299.058 102.68 298.594 102.512 298.234 102.176C297.874 101.832 297.694 101.424 297.694 100.952ZM299.782 101.732C300.286 101.732 300.69 101.596 300.994 101.324C301.298 101.052 301.45 100.62 301.45 100.028V99.764L299.686 100.028C299.43 100.068 299.226 100.16 299.074 100.304C298.922 100.448 298.846 100.644 298.846 100.892C298.846 101.116 298.93 101.312 299.098 101.48C299.274 101.648 299.502 101.732 299.782 101.732ZM305.451 102.5H304.335V96.728H305.415V97.496C305.591 97.192 305.839 96.96 306.159 96.8C306.479 96.64 306.815 96.56 307.167 96.56C307.543 96.56 307.887 96.652 308.199 96.836C308.511 97.02 308.743 97.292 308.895 97.652C309.295 96.924 309.939 96.56 310.827 96.56C311.379 96.56 311.847 96.748 312.231 97.124C312.623 97.5 312.819 98.044 312.819 98.756V102.5H311.703V98.876C311.703 98.476 311.599 98.156 311.391 97.916C311.191 97.676 310.887 97.556 310.479 97.556C310.087 97.556 309.767 97.696 309.519 97.976C309.271 98.248 309.147 98.592 309.147 99.008V102.5H308.019V98.876C308.019 98.476 307.915 98.156 307.707 97.916C307.507 97.676 307.203 97.556 306.795 97.556C306.395 97.556 306.071 97.692 305.823 97.964C305.575 98.236 305.451 98.588 305.451 99.02V102.5ZM315.356 99.02H318.512C318.496 98.588 318.352 98.236 318.08 97.964C317.808 97.684 317.424 97.544 316.928 97.544C316.48 97.544 316.112 97.692 315.824 97.988C315.536 98.276 315.38 98.62 315.356 99.02ZM318.68 100.52L319.652 100.856C319.484 101.392 319.172 101.832 318.716 102.176C318.26 102.512 317.708 102.68 317.06 102.68C316.252 102.68 315.564 102.404 314.996 101.852C314.436 101.292 314.156 100.54 314.156 99.596C314.156 98.716 314.428 97.988 314.972 97.412C315.516 96.836 316.164 96.548 316.916 96.548C317.788 96.548 318.468 96.824 318.956 97.376C319.444 97.92 319.688 98.652 319.688 99.572C319.688 99.716 319.68 99.836 319.664 99.932H315.32C315.328 100.444 315.496 100.864 315.824 101.192C316.16 101.52 316.572 101.684 317.06 101.684C317.884 101.684 318.424 101.296 318.68 100.52ZM325.316 101.132C325.668 101.492 326.096 101.672 326.6 101.672C327.104 101.672 327.528 101.492 327.872 101.132C328.224 100.764 328.4 100.256 328.4 99.608C328.4 98.968 328.224 98.468 327.872 98.108C327.528 97.74 327.104 97.556 326.6 97.556C326.096 97.556 325.668 97.74 325.316 98.108C324.972 98.468 324.8 98.968 324.8 99.608C324.8 100.256 324.972 100.764 325.316 101.132ZM324.476 97.424C325.036 96.84 325.744 96.548 326.6 96.548C327.456 96.548 328.16 96.84 328.712 97.424C329.272 98 329.552 98.728 329.552 99.608C329.552 100.496 329.276 101.232 328.724 101.816C328.172 102.392 327.464 102.68 326.6 102.68C325.736 102.68 325.028 102.392 324.476 101.816C323.924 101.232 323.648 100.496 323.648 99.608C323.648 98.728 323.924 98 324.476 97.424ZM333.899 97.748H332.507V102.5H331.343V97.748H330.275V96.728H331.343V95.756C331.343 95.14 331.523 94.656 331.883 94.304C332.243 93.952 332.695 93.776 333.239 93.776C333.583 93.776 333.807 93.816 333.911 93.896V94.904C333.791 94.856 333.627 94.832 333.419 94.832C333.171 94.832 332.955 94.908 332.771 95.06C332.595 95.204 332.507 95.456 332.507 95.816V96.728H333.899V97.748ZM341.312 96.668V97.868C341.144 97.844 340.98 97.832 340.82 97.832C339.764 97.832 339.236 98.424 339.236 99.608V102.5H338.108V96.728H339.212V97.736C339.564 97 340.14 96.632 340.94 96.632C341.068 96.632 341.192 96.644 341.312 96.668ZM342.155 100.952C342.155 100.456 342.315 100.06 342.635 99.764C342.955 99.46 343.379 99.272 343.907 99.2L345.467 98.972C345.763 98.932 345.911 98.788 345.911 98.54C345.911 98.236 345.807 97.988 345.599 97.796C345.391 97.604 345.079 97.508 344.663 97.508C344.279 97.508 343.975 97.616 343.751 97.832C343.527 98.04 343.395 98.32 343.355 98.672L342.275 98.42C342.331 97.868 342.583 97.42 343.031 97.076C343.479 96.724 344.015 96.548 344.639 96.548C345.455 96.548 346.059 96.748 346.451 97.148C346.843 97.54 347.039 98.044 347.039 98.66V101.552C347.039 101.896 347.063 102.212 347.111 102.5H346.007C345.967 102.26 345.947 102 345.947 101.72C345.787 101.976 345.551 102.2 345.239 102.392C344.935 102.584 344.551 102.68 344.087 102.68C343.519 102.68 343.055 102.512 342.695 102.176C342.335 101.832 342.155 101.424 342.155 100.952ZM344.243 101.732C344.747 101.732 345.151 101.596 345.455 101.324C345.759 101.052 345.911 100.62 345.911 100.028V99.764L344.147 100.028C343.891 100.068 343.687 100.16 343.535 100.304C343.383 100.448 343.307 100.644 343.307 100.892C343.307 101.116 343.391 101.312 343.559 101.48C343.735 101.648 343.963 101.732 344.243 101.732ZM349.912 102.5H348.796V96.728H349.912V102.5ZM348.772 95.12C348.62 94.96 348.544 94.768 348.544 94.544C348.544 94.32 348.62 94.128 348.772 93.968C348.932 93.808 349.124 93.728 349.348 93.728C349.572 93.728 349.764 93.808 349.924 93.968C350.084 94.12 350.164 94.312 350.164 94.544C350.164 94.768 350.084 94.96 349.924 95.12C349.764 95.272 349.572 95.348 349.348 95.348C349.124 95.348 348.932 95.272 348.772 95.12ZM351.291 101L352.311 100.64C352.351 100.952 352.487 101.212 352.719 101.42C352.951 101.62 353.263 101.72 353.655 101.72C353.959 101.72 354.199 101.648 354.375 101.504C354.551 101.352 354.639 101.168 354.639 100.952C354.639 100.568 354.391 100.32 353.895 100.208L352.911 99.992C352.463 99.896 352.111 99.704 351.855 99.416C351.599 99.128 351.471 98.78 351.471 98.372C351.471 97.876 351.671 97.448 352.071 97.088C352.479 96.728 352.963 96.548 353.523 96.548C353.891 96.548 354.219 96.604 354.507 96.716C354.795 96.82 355.019 96.96 355.179 97.136C355.339 97.312 355.459 97.476 355.539 97.628C355.619 97.78 355.679 97.936 355.719 98.096L354.723 98.468C354.707 98.372 354.679 98.28 354.639 98.192C354.599 98.096 354.535 97.992 354.447 97.88C354.367 97.768 354.247 97.68 354.087 97.616C353.927 97.544 353.739 97.508 353.523 97.508C353.243 97.508 353.011 97.584 352.827 97.736C352.651 97.888 352.563 98.068 352.563 98.276C352.563 98.644 352.783 98.876 353.223 98.972L354.159 99.176C354.671 99.288 355.063 99.496 355.335 99.8C355.615 100.096 355.755 100.46 355.755 100.892C355.755 101.348 355.567 101.76 355.191 102.128C354.823 102.496 354.307 102.68 353.643 102.68C352.931 102.68 352.375 102.504 351.975 102.152C351.575 101.792 351.347 101.408 351.291 101ZM357.93 99.02H361.086C361.07 98.588 360.926 98.236 360.654 97.964C360.382 97.684 359.998 97.544 359.502 97.544C359.054 97.544 358.686 97.692 358.398 97.988C358.11 98.276 357.954 98.62 357.93 99.02ZM361.254 100.52L362.226 100.856C362.058 101.392 361.746 101.832 361.29 102.176C360.834 102.512 360.282 102.68 359.634 102.68C358.826 102.68 358.138 102.404 357.57 101.852C357.01 101.292 356.73 100.54 356.73 99.596C356.73 98.716 357.002 97.988 357.546 97.412C358.09 96.836 358.738 96.548 359.49 96.548C360.362 96.548 361.042 96.824 361.53 97.376C362.018 97.92 362.262 98.652 362.262 99.572C362.262 99.716 362.254 99.836 362.238 99.932H357.894C357.902 100.444 358.07 100.864 358.398 101.192C358.734 101.52 359.146 101.684 359.634 101.684C360.458 101.684 360.998 101.296 361.254 100.52ZM363.894 102.32C363.734 102.16 363.654 101.964 363.654 101.732C363.654 101.5 363.734 101.304 363.894 101.144C364.054 100.976 364.25 100.892 364.482 100.892C364.714 100.892 364.91 100.976 365.07 101.144C365.238 101.304 365.322 101.5 365.322 101.732C365.322 101.964 365.238 102.16 365.07 102.32C364.91 102.48 364.714 102.56 364.482 102.56C364.25 102.56 364.054 102.48 363.894 102.32ZM363.882 98.096C363.722 97.936 363.642 97.74 363.642 97.508C363.642 97.276 363.722 97.08 363.882 96.92C364.042 96.752 364.238 96.668 364.47 96.668C364.702 96.668 364.898 96.752 365.058 96.92C365.226 97.08 365.31 97.276 365.31 97.508C365.31 97.74 365.226 97.936 365.058 98.096C364.898 98.256 364.702 98.336 364.47 98.336C364.238 98.336 364.042 98.256 363.882 98.096Z" fill="#012677"/>
<path d="M299.16 121.7L296.68 122.46C296.54 121.68 295.9 120.46 294.1 120.46C292.76 120.46 291.88 121.32 291.88 122.26C291.88 123.04 292.38 123.66 293.42 123.86L295.4 124.24C297.98 124.74 299.36 126.42 299.36 128.42C299.36 130.6 297.54 132.8 294.24 132.8C290.48 132.8 288.82 130.38 288.6 128.36L291.16 127.68C291.28 129.08 292.26 130.34 294.26 130.34C295.74 130.34 296.56 129.6 296.56 128.6C296.56 127.78 295.94 127.14 294.84 126.92L292.86 126.52C290.6 126.06 289.14 124.6 289.14 122.46C289.14 119.94 291.4 118.02 294.08 118.02C297.52 118.02 298.84 120.1 299.16 121.7ZM303.352 126.46H307.752C307.712 125.48 307.072 124.52 305.552 124.52C304.172 124.52 303.412 125.56 303.352 126.46ZM308.012 129.02L310.232 129.68C309.732 131.38 308.172 132.8 305.752 132.8C303.052 132.8 300.672 130.86 300.672 127.54C300.672 124.4 302.992 122.36 305.512 122.36C308.552 122.36 310.372 124.3 310.372 127.46C310.372 127.84 310.332 128.24 310.332 128.28H303.292C303.352 129.58 304.452 130.52 305.772 130.52C307.012 130.52 307.692 129.9 308.012 129.02ZM318.467 122.62V125.3C318.167 125.24 317.907 125.22 317.667 125.22C316.307 125.22 315.127 125.88 315.127 128V132.5H312.467V122.66H315.047V124.12C315.647 122.82 317.007 122.58 317.847 122.58C318.067 122.58 318.267 122.6 318.467 122.62ZM322.998 132.5H320.338V122.66H322.998V132.5ZM320.018 119.44C320.018 118.52 320.758 117.78 321.658 117.78C322.578 117.78 323.298 118.52 323.298 119.44C323.298 120.32 322.578 121.06 321.658 121.06C320.758 121.06 320.018 120.32 320.018 119.44ZM327.786 126.46H332.186C332.146 125.48 331.506 124.52 329.986 124.52C328.606 124.52 327.846 125.56 327.786 126.46ZM332.446 129.02L334.666 129.68C334.166 131.38 332.606 132.8 330.186 132.8C327.486 132.8 325.106 130.86 325.106 127.54C325.106 124.4 327.426 122.36 329.946 122.36C332.986 122.36 334.806 124.3 334.806 127.46C334.806 127.84 334.766 128.24 334.766 128.28H327.726C327.786 129.58 328.886 130.52 330.206 130.52C331.446 130.52 332.126 129.9 332.446 129.02ZM336.06 129.76L338.34 129.26C338.4 130.04 338.98 130.76 340.14 130.76C341.02 130.76 341.44 130.3 341.44 129.78C341.44 129.34 341.14 128.98 340.38 128.82L339.08 128.52C337.18 128.1 336.32 126.96 336.32 125.58C336.32 123.82 337.88 122.36 340 122.36C342.8 122.36 343.74 124.14 343.86 125.2L341.64 125.7C341.56 125.12 341.14 124.38 340.02 124.38C339.32 124.38 338.76 124.8 338.76 125.36C338.76 125.84 339.12 126.14 339.66 126.24L341.06 126.54C343 126.94 343.98 128.12 343.98 129.56C343.98 131.16 342.74 132.8 340.16 132.8C337.2 132.8 336.18 130.88 336.06 129.76ZM360.881 132.5L359.701 129.26H353.941L352.761 132.5H349.841L355.281 118.32H358.481L363.881 132.5H360.881ZM356.821 121.38L354.861 126.74H358.781L356.821 121.38Z" fill="#012677"/>
<path d="M294.398 158.5L292.13 154.44H290.646V158.5H289.26V148.574H292.998C293.913 148.574 294.645 148.859 295.196 149.428C295.756 149.988 296.036 150.688 296.036 151.528C296.036 152.247 295.821 152.863 295.392 153.376C294.963 153.88 294.375 154.202 293.628 154.342L295.994 158.5H294.398ZM290.646 153.208H292.746C293.306 153.208 293.759 153.059 294.104 152.76C294.449 152.452 294.622 152.041 294.622 151.528C294.622 151.005 294.449 150.59 294.104 150.282C293.759 149.965 293.306 149.806 292.746 149.806H290.646V153.208ZM297.3 156.694C297.3 156.115 297.486 155.653 297.86 155.308C298.233 154.953 298.728 154.734 299.344 154.65L301.164 154.384C301.509 154.337 301.682 154.169 301.682 153.88C301.682 153.525 301.56 153.236 301.318 153.012C301.075 152.788 300.711 152.676 300.226 152.676C299.778 152.676 299.423 152.802 299.162 153.054C298.9 153.297 298.746 153.623 298.7 154.034L297.44 153.74C297.505 153.096 297.799 152.573 298.322 152.172C298.844 151.761 299.47 151.556 300.198 151.556C301.15 151.556 301.854 151.789 302.312 152.256C302.769 152.713 302.998 153.301 302.998 154.02V157.394C302.998 157.795 303.026 158.164 303.082 158.5H301.794C301.747 158.22 301.724 157.917 301.724 157.59C301.537 157.889 301.262 158.15 300.898 158.374C300.543 158.598 300.095 158.71 299.554 158.71C298.891 158.71 298.35 158.514 297.93 158.122C297.51 157.721 297.3 157.245 297.3 156.694ZM299.736 157.604C300.324 157.604 300.795 157.445 301.15 157.128C301.504 156.811 301.682 156.307 301.682 155.616V155.308L299.624 155.616C299.325 155.663 299.087 155.77 298.91 155.938C298.732 156.106 298.644 156.335 298.644 156.624C298.644 156.885 298.742 157.114 298.938 157.31C299.143 157.506 299.409 157.604 299.736 157.604ZM306.35 158.5H305.048V151.766H306.35V158.5ZM305.02 149.89C304.842 149.703 304.754 149.479 304.754 149.218C304.754 148.957 304.842 148.733 305.02 148.546C305.206 148.359 305.43 148.266 305.692 148.266C305.953 148.266 306.177 148.359 306.364 148.546C306.55 148.723 306.644 148.947 306.644 149.218C306.644 149.479 306.55 149.703 306.364 149.89C306.177 150.067 305.953 150.156 305.692 150.156C305.43 150.156 305.206 150.067 305.02 149.89ZM307.959 156.75L309.149 156.33C309.195 156.694 309.354 156.997 309.625 157.24C309.895 157.473 310.259 157.59 310.717 157.59C311.071 157.59 311.351 157.506 311.557 157.338C311.762 157.161 311.865 156.946 311.865 156.694C311.865 156.246 311.575 155.957 310.997 155.826L309.849 155.574C309.326 155.462 308.915 155.238 308.617 154.902C308.318 154.566 308.169 154.16 308.169 153.684C308.169 153.105 308.402 152.606 308.869 152.186C309.345 151.766 309.909 151.556 310.563 151.556C310.992 151.556 311.375 151.621 311.711 151.752C312.047 151.873 312.308 152.037 312.495 152.242C312.681 152.447 312.821 152.639 312.915 152.816C313.008 152.993 313.078 153.175 313.125 153.362L311.963 153.796C311.944 153.684 311.911 153.577 311.865 153.474C311.818 153.362 311.743 153.241 311.641 153.11C311.547 152.979 311.407 152.877 311.221 152.802C311.034 152.718 310.815 152.676 310.563 152.676C310.236 152.676 309.965 152.765 309.751 152.942C309.545 153.119 309.443 153.329 309.443 153.572C309.443 154.001 309.699 154.272 310.213 154.384L311.305 154.622C311.902 154.753 312.359 154.995 312.677 155.35C313.003 155.695 313.167 156.12 313.167 156.624C313.167 157.156 312.947 157.637 312.509 158.066C312.079 158.495 311.477 158.71 310.703 158.71C309.872 158.71 309.223 158.505 308.757 158.094C308.29 157.674 308.024 157.226 307.959 156.75ZM315.704 154.44H319.386C319.368 153.936 319.2 153.525 318.882 153.208C318.565 152.881 318.117 152.718 317.538 152.718C317.016 152.718 316.586 152.891 316.25 153.236C315.914 153.572 315.732 153.973 315.704 154.44ZM319.582 156.19L320.716 156.582C320.52 157.207 320.156 157.721 319.624 158.122C319.092 158.514 318.448 158.71 317.692 158.71C316.75 158.71 315.947 158.388 315.284 157.744C314.631 157.091 314.304 156.213 314.304 155.112C314.304 154.085 314.622 153.236 315.256 152.564C315.891 151.892 316.647 151.556 317.524 151.556C318.542 151.556 319.335 151.878 319.904 152.522C320.474 153.157 320.758 154.011 320.758 155.084C320.758 155.252 320.749 155.392 320.73 155.504H315.662C315.672 156.101 315.868 156.591 316.25 156.974C316.642 157.357 317.123 157.548 317.692 157.548C318.654 157.548 319.284 157.095 319.582 156.19ZM334.674 158.5H333.568L333.442 157.1C333.2 157.539 332.803 157.917 332.252 158.234C331.702 158.551 331.039 158.71 330.264 158.71C329.415 158.71 328.631 158.519 327.912 158.136C327.194 157.744 326.601 157.147 326.134 156.344C325.677 155.541 325.448 154.603 325.448 153.53C325.448 152.457 325.691 151.519 326.176 150.716C326.662 149.913 327.268 149.321 327.996 148.938C328.734 148.555 329.522 148.364 330.362 148.364C331.426 148.364 332.35 148.639 333.134 149.19C333.928 149.731 334.469 150.455 334.758 151.36L333.512 151.892C333.288 151.173 332.896 150.618 332.336 150.226C331.786 149.825 331.128 149.624 330.362 149.624C329.401 149.624 328.575 149.965 327.884 150.646C327.194 151.327 326.848 152.289 326.848 153.53C326.848 154.781 327.184 155.751 327.856 156.442C328.538 157.123 329.354 157.464 330.306 157.464C330.829 157.464 331.291 157.38 331.692 157.212C332.103 157.044 332.42 156.825 332.644 156.554C332.878 156.274 333.05 155.994 333.162 155.714C333.284 155.434 333.354 155.154 333.372 154.874H329.928V153.642H334.674V158.5ZM338.029 156.904C338.44 157.324 338.939 157.534 339.527 157.534C340.115 157.534 340.61 157.324 341.011 156.904C341.422 156.475 341.627 155.882 341.627 155.126C341.627 154.379 341.422 153.796 341.011 153.376C340.61 152.947 340.115 152.732 339.527 152.732C338.939 152.732 338.44 152.947 338.029 153.376C337.628 153.796 337.427 154.379 337.427 155.126C337.427 155.882 337.628 156.475 338.029 156.904ZM337.049 152.578C337.703 151.897 338.529 151.556 339.527 151.556C340.526 151.556 341.347 151.897 341.991 152.578C342.645 153.25 342.971 154.099 342.971 155.126C342.971 156.162 342.649 157.021 342.005 157.702C341.361 158.374 340.535 158.71 339.527 158.71C338.519 158.71 337.693 158.374 337.049 157.702C336.405 157.021 336.083 156.162 336.083 155.126C336.083 154.099 336.405 153.25 337.049 152.578ZM344.235 156.694C344.235 156.115 344.422 155.653 344.795 155.308C345.168 154.953 345.663 154.734 346.279 154.65L348.099 154.384C348.444 154.337 348.617 154.169 348.617 153.88C348.617 153.525 348.496 153.236 348.253 153.012C348.01 152.788 347.646 152.676 347.161 152.676C346.713 152.676 346.358 152.802 346.097 153.054C345.836 153.297 345.682 153.623 345.635 154.034L344.375 153.74C344.44 153.096 344.734 152.573 345.257 152.172C345.78 151.761 346.405 151.556 347.133 151.556C348.085 151.556 348.79 151.789 349.247 152.256C349.704 152.713 349.933 153.301 349.933 154.02V157.394C349.933 157.795 349.961 158.164 350.017 158.5H348.729C348.682 158.22 348.659 157.917 348.659 157.59C348.472 157.889 348.197 158.15 347.833 158.374C347.478 158.598 347.03 158.71 346.489 158.71C345.826 158.71 345.285 158.514 344.865 158.122C344.445 157.721 344.235 157.245 344.235 156.694ZM346.671 157.604C347.259 157.604 347.73 157.445 348.085 157.128C348.44 156.811 348.617 156.307 348.617 155.616V155.308L346.559 155.616C346.26 155.663 346.022 155.77 345.845 155.938C345.668 156.106 345.579 156.335 345.579 156.624C345.579 156.885 345.677 157.114 345.873 157.31C346.078 157.506 346.344 157.604 346.671 157.604ZM353.299 158.5H351.983V148.364H353.299V158.5ZM355.762 158.29C355.575 158.103 355.482 157.875 355.482 157.604C355.482 157.333 355.575 157.105 355.762 156.918C355.949 156.722 356.177 156.624 356.448 156.624C356.719 156.624 356.947 156.722 357.134 156.918C357.33 157.105 357.428 157.333 357.428 157.604C357.428 157.875 357.33 158.103 357.134 158.29C356.947 158.477 356.719 158.57 356.448 158.57C356.177 158.57 355.949 158.477 355.762 158.29ZM355.748 153.362C355.561 153.175 355.468 152.947 355.468 152.676C355.468 152.405 355.561 152.177 355.748 151.99C355.935 151.794 356.163 151.696 356.434 151.696C356.705 151.696 356.933 151.794 357.12 151.99C357.316 152.177 357.414 152.405 357.414 152.676C357.414 152.947 357.316 153.175 357.12 153.362C356.933 153.549 356.705 153.642 356.434 153.642C356.163 153.642 355.935 153.549 355.748 153.362Z" fill="#012677"/>
<path d="M295.2 191.84H293.16V189.7C290.38 189.32 289.06 187.3 288.88 185.6L291.36 185C291.48 186.26 292.32 187.42 294.16 187.42C295.46 187.42 296.22 186.8 296.22 185.92C296.22 185.24 295.72 184.72 294.72 184.5L292.88 184.1C290.72 183.62 289.38 182.26 289.38 180.34C289.38 178.22 291.02 176.66 293.16 176.32V174.18H295.2V176.38C297.5 176.8 298.5 178.4 298.78 179.74L296.32 180.44C296.2 179.74 295.68 178.58 294.04 178.58C292.76 178.58 292.06 179.32 292.06 180.14C292.06 180.76 292.5 181.28 293.44 181.48L295.26 181.9C297.78 182.46 298.92 183.96 298.92 185.76C298.92 187.6 297.6 189.3 295.2 189.68V191.84ZM306.614 184.74H300.814V182.38H306.614V184.74ZM314.212 184.74H308.412V182.38H314.212V184.74ZM324.759 184.74H318.959V182.38H324.759V184.74ZM332.356 184.74H326.556V182.38H332.356V184.74ZM342.903 184.74H337.103V182.38H342.903V184.74ZM350.501 184.74H344.701V182.38H350.501V184.74Z" fill="#012677"/>
</g>
<defs>
<filter id="filter0_d_1176_7586" x="61.1998" y="15.596" width="78.2781" height="78.2781" filterUnits="userSpaceOnUse" color-interpolation-filters="sRGB">
<feFlood flood-opacity="0" result="BackgroundImageFix"/>
<feColorMatrix in="SourceAlpha" type="matrix" values="0 0 0 0 0 0 0 0 0 0 0 0 0 0 0 0 0 0 127 0" result="hardAlpha"/>
<feOffset dy="11.3859"/>
<feGaussianBlur stdDeviation="11.3859"/>
<feComposite in2="hardAlpha" operator="out"/>
<feColorMatrix type="matrix" values="0 0 0 0 0 0 0 0 0 0 0 0 0 0 0 0 0 0 0.08 0"/>
<feBlend mode="normal" in2="BackgroundImageFix" result="effect1_dropShadow_1176_7586"/>
<feBlend mode="normal" in="SourceGraphic" in2="effect1_dropShadow_1176_7586" result="shape"/>
</filter>
<filter id="filter1_d_1176_7586" x="243" y="3.5" width="203" height="228" filterUnits="userSpaceOnUse" color-interpolation-filters="sRGB">
<feFlood flood-opacity="0" result="BackgroundImageFix"/>
<feColorMatrix in="SourceAlpha" type="matrix" values="0 0 0 0 0 0 0 0 0 0 0 0 0 0 0 0 0 0 127 0" result="hardAlpha"/>
<feOffset dy="2"/>
<feGaussianBlur stdDeviation="12.5"/>
<feComposite in2="hardAlpha" operator="out"/>
<feColorMatrix type="matrix" values="0 0 0 0 0 0 0 0 0 0 0 0 0 0 0 0 0 0 0.05 0"/>
<feBlend mode="normal" in2="BackgroundImageFix" result="effect1_dropShadow_1176_7586"/>
<feBlend mode="normal" in="SourceGraphic" in2="effect1_dropShadow_1176_7586" result="shape"/>
</filter>
</defs>
</svg>
