<svg width="478" height="235" viewBox="0 0 478 235" fill="none" xmlns="http://www.w3.org/2000/svg">
<rect x="17.5889" width="459.822" height="231.051" rx="24" fill="white" fill-opacity="0.46"/>
<g filter="url(#filter0_d_1156_7052)">
<rect x="35.5" y="33.5254" width="179" height="164" rx="8" fill="white" shape-rendering="crispEdges"/>
<path d="M58.132 69.5254H56.76V59.5994H62.794V60.8734H58.132V64.0654H62.36V65.3534H58.132V69.5254ZM68.14 68.7134C67.9627 69.0494 67.692 69.3061 67.328 69.4834C66.964 69.6514 66.572 69.7354 66.152 69.7354C65.3867 69.7354 64.7754 69.4834 64.318 68.9794C63.8607 68.4661 63.632 67.8174 63.632 67.0334V62.7914H64.948V66.8374C64.948 67.3414 65.0694 67.7567 65.312 68.0834C65.564 68.4101 65.9514 68.5734 66.474 68.5734C66.9967 68.5734 67.3934 68.4194 67.664 68.1114C67.9347 67.7941 68.07 67.3741 68.07 66.8514V62.7914H69.386V68.2794C69.386 68.7181 69.4094 69.1334 69.456 69.5254H68.196C68.1587 69.3201 68.14 69.0494 68.14 68.7134ZM72.9477 69.5254H71.6317V59.3894H72.9477V69.5254ZM76.5024 69.5254H75.1864V59.3894H76.5024V69.5254ZM80.4211 72.3394H78.9791L80.6591 68.7834L77.7611 62.7914H79.2731L81.3731 67.4394L83.3891 62.7914H84.8031L80.4211 72.3394ZM91.0812 68.3074H93.1112C94.0819 68.3074 94.8846 67.9854 95.5192 67.3414C96.1632 66.6974 96.4852 65.7781 96.4852 64.5834C96.4852 63.3794 96.1679 62.4507 95.5332 61.7974C94.9079 61.1441 94.1099 60.8174 93.1392 60.8174H91.0812V68.3074ZM93.1532 69.5254H89.7092V59.5994H93.1812C94.5159 59.5994 95.6359 60.0427 96.5412 60.9294C97.4466 61.8067 97.8992 63.0247 97.8992 64.5834C97.8992 66.1327 97.4419 67.3461 96.5272 68.2234C95.6126 69.0914 94.4879 69.5254 93.1532 69.5254ZM100.947 69.5254H99.6454V62.7914H100.947V69.5254ZM99.6174 60.9154C99.4401 60.7287 99.3514 60.5047 99.3514 60.2434C99.3514 59.9821 99.4401 59.7581 99.6174 59.5714C99.8041 59.3847 100.028 59.2914 100.289 59.2914C100.551 59.2914 100.775 59.3847 100.961 59.5714C101.148 59.7487 101.241 59.9727 101.241 60.2434C101.241 60.5047 101.148 60.7287 100.961 60.9154C100.775 61.0927 100.551 61.1814 100.289 61.1814C100.028 61.1814 99.8041 61.0927 99.6174 60.9154ZM104.502 69.5254H103.186V59.3894H104.502V69.5254ZM111.111 68.7134C110.933 69.0494 110.663 69.3061 110.299 69.4834C109.935 69.6514 109.543 69.7354 109.123 69.7354C108.357 69.7354 107.746 69.4834 107.289 68.9794C106.831 68.4661 106.603 67.8174 106.603 67.0334V62.7914H107.919V66.8374C107.919 67.3414 108.04 67.7567 108.283 68.0834C108.535 68.4101 108.922 68.5734 109.445 68.5734C109.967 68.5734 110.364 68.4194 110.635 68.1114C110.905 67.7941 111.041 67.3741 111.041 66.8514V62.7914H112.357V68.2794C112.357 68.7181 112.38 69.1334 112.427 69.5254H111.167C111.129 69.3201 111.111 69.0494 111.111 68.7134ZM116.366 60.6634V62.7914H117.822V63.9814H116.366V67.4814C116.366 67.7987 116.436 68.0321 116.576 68.1814C116.726 68.3307 116.968 68.4054 117.304 68.4054C117.5 68.4054 117.673 68.3867 117.822 68.3494V69.4694C117.598 69.5534 117.3 69.5954 116.926 69.5954C116.348 69.5954 115.89 69.4274 115.554 69.0914C115.218 68.7554 115.05 68.2841 115.05 67.6774V63.9814H113.762V62.7914H114.126C114.472 62.7914 114.728 62.6981 114.896 62.5114C115.074 62.3154 115.162 62.0634 115.162 61.7554V60.6634H116.366ZM120.365 65.4654H124.047C124.028 64.9614 123.86 64.5507 123.543 64.2334C123.225 63.9067 122.777 63.7434 122.199 63.7434C121.676 63.7434 121.247 63.9161 120.911 64.2614C120.575 64.5974 120.393 64.9987 120.365 65.4654ZM124.243 67.2154L125.377 67.6074C125.181 68.2327 124.817 68.7461 124.285 69.1474C123.753 69.5394 123.109 69.7354 122.353 69.7354C121.41 69.7354 120.607 69.4134 119.945 68.7694C119.291 68.1161 118.965 67.2387 118.965 66.1374C118.965 65.1107 119.282 64.2614 119.917 63.5894C120.551 62.9174 121.307 62.5814 122.185 62.5814C123.202 62.5814 123.995 62.9034 124.565 63.5474C125.134 64.1821 125.419 65.0361 125.419 66.1094C125.419 66.2774 125.409 66.4174 125.391 66.5294H120.323C120.332 67.1267 120.528 67.6167 120.911 67.9994C121.303 68.3821 121.783 68.5734 122.353 68.5734C123.314 68.5734 123.944 68.1207 124.243 67.2154ZM127.883 66.1374C127.883 66.8467 128.055 67.4254 128.401 67.8734C128.755 68.3214 129.241 68.5454 129.857 68.5454C130.445 68.5454 130.916 68.3167 131.271 67.8594C131.625 67.4021 131.803 66.8187 131.803 66.1094C131.803 65.4094 131.63 64.8447 131.285 64.4154C130.939 63.9861 130.468 63.7714 129.871 63.7714C129.273 63.7714 128.793 63.9907 128.429 64.4294C128.065 64.8681 127.883 65.4374 127.883 66.1374ZM131.817 68.6154V68.5034C131.639 68.8487 131.369 69.1381 131.005 69.3714C130.65 69.5954 130.225 69.7074 129.731 69.7074C128.769 69.7074 127.995 69.3714 127.407 68.6994C126.828 68.0181 126.539 67.1641 126.539 66.1374C126.539 65.1574 126.837 64.3267 127.435 63.6454C128.032 62.9547 128.797 62.6094 129.731 62.6094C130.281 62.6094 130.729 62.7214 131.075 62.9454C131.42 63.1601 131.658 63.4261 131.789 63.7434V59.3894H133.091V68.2794C133.091 68.7367 133.114 69.1521 133.161 69.5254H131.887C131.84 69.2641 131.817 68.9607 131.817 68.6154ZM145.297 61.8534L144.065 62.2874C144 61.8581 143.79 61.4707 143.435 61.1254C143.08 60.7707 142.59 60.5934 141.965 60.5934C141.414 60.5934 140.957 60.7521 140.593 61.0694C140.229 61.3867 140.047 61.7787 140.047 62.2454C140.047 62.6094 140.154 62.9174 140.369 63.1694C140.593 63.4214 140.91 63.5941 141.321 63.6874L142.805 64.0094C143.626 64.1867 144.261 64.5227 144.709 65.0174C145.157 65.5027 145.381 66.0954 145.381 66.7954C145.381 67.5981 145.064 68.2887 144.429 68.8674C143.794 69.4461 142.968 69.7354 141.951 69.7354C140.84 69.7354 139.968 69.4461 139.333 68.8674C138.708 68.2794 138.344 67.5841 138.241 66.7814L139.557 66.3614C139.613 66.9587 139.846 67.4627 140.257 67.8734C140.668 68.2841 141.228 68.4894 141.937 68.4894C142.59 68.4894 143.094 68.3401 143.449 68.0414C143.804 67.7427 143.981 67.3647 143.981 66.9074C143.981 66.5341 143.855 66.2121 143.603 65.9414C143.351 65.6614 142.982 65.4701 142.497 65.3674L141.083 65.0594C140.346 64.9007 139.758 64.5881 139.319 64.1214C138.88 63.6547 138.661 63.0621 138.661 62.3434C138.661 61.5594 138.978 60.8734 139.613 60.2854C140.257 59.6881 141.032 59.3894 141.937 59.3894C142.954 59.3894 143.734 59.6367 144.275 60.1314C144.816 60.6261 145.157 61.2001 145.297 61.8534ZM148.375 65.5634V69.5254H147.059V59.3894H148.375V63.5754C148.823 62.9221 149.505 62.5954 150.419 62.5954C151.194 62.5954 151.787 62.8427 152.197 63.3374C152.617 63.8321 152.827 64.4714 152.827 65.2554V69.5254H151.511V65.4794C151.511 64.3501 150.989 63.7854 149.943 63.7854C149.458 63.7854 149.08 63.9534 148.809 64.2894C148.539 64.6161 148.394 65.0407 148.375 65.5634ZM154.501 67.7194C154.501 67.1407 154.687 66.6787 155.061 66.3334C155.434 65.9787 155.929 65.7594 156.545 65.6754L158.365 65.4094C158.71 65.3627 158.883 65.1947 158.883 64.9054C158.883 64.5507 158.761 64.2614 158.519 64.0374C158.276 63.8134 157.912 63.7014 157.427 63.7014C156.979 63.7014 156.624 63.8274 156.363 64.0794C156.101 64.3221 155.947 64.6487 155.901 65.0594L154.641 64.7654C154.706 64.1214 155 63.5987 155.523 63.1974C156.045 62.7867 156.671 62.5814 157.399 62.5814C158.351 62.5814 159.055 62.8147 159.513 63.2814C159.97 63.7387 160.199 64.3267 160.199 65.0454V68.4194C160.199 68.8207 160.227 69.1894 160.283 69.5254H158.995C158.948 69.2454 158.925 68.9421 158.925 68.6154C158.738 68.9141 158.463 69.1754 158.099 69.3994C157.744 69.6234 157.296 69.7354 156.755 69.7354C156.092 69.7354 155.551 69.5394 155.131 69.1474C154.711 68.7461 154.501 68.2701 154.501 67.7194ZM156.937 68.6294C157.525 68.6294 157.996 68.4707 158.351 68.1534C158.705 67.8361 158.883 67.3321 158.883 66.6414V66.3334L156.825 66.6414C156.526 66.6881 156.288 66.7954 156.111 66.9634C155.933 67.1314 155.845 67.3601 155.845 67.6494C155.845 67.9107 155.943 68.1394 156.139 68.3354C156.344 68.5314 156.61 68.6294 156.937 68.6294ZM165.987 62.7214V64.1214C165.791 64.0934 165.6 64.0794 165.413 64.0794C164.181 64.0794 163.565 64.7701 163.565 66.1514V69.5254H162.249V62.7914H163.537V63.9674C163.948 63.1087 164.62 62.6794 165.553 62.6794C165.702 62.6794 165.847 62.6934 165.987 62.7214ZM168.175 65.4654H171.857C171.839 64.9614 171.671 64.5507 171.353 64.2334C171.036 63.9067 170.588 63.7434 170.009 63.7434C169.487 63.7434 169.057 63.9161 168.721 64.2614C168.385 64.5974 168.203 64.9987 168.175 65.4654ZM172.053 67.2154L173.187 67.6074C172.991 68.2327 172.627 68.7461 172.095 69.1474C171.563 69.5394 170.919 69.7354 170.163 69.7354C169.221 69.7354 168.418 69.4134 167.755 68.7694C167.102 68.1161 166.775 67.2387 166.775 66.1374C166.775 65.1107 167.093 64.2614 167.727 63.5894C168.362 62.9174 169.118 62.5814 169.995 62.5814C171.013 62.5814 171.806 62.9034 172.375 63.5474C172.945 64.1821 173.229 65.0361 173.229 66.1094C173.229 66.2774 173.22 66.4174 173.201 66.5294H168.133C168.143 67.1267 168.339 67.6167 168.721 67.9994C169.113 68.3821 169.594 68.5734 170.163 68.5734C171.125 68.5734 171.755 68.1207 172.053 67.2154ZM174.279 67.7754L175.469 67.3554C175.516 67.7194 175.674 68.0227 175.945 68.2654C176.216 68.4987 176.58 68.6154 177.037 68.6154C177.392 68.6154 177.672 68.5314 177.877 68.3634C178.082 68.1861 178.185 67.9714 178.185 67.7194C178.185 67.2714 177.896 66.9821 177.317 66.8514L176.169 66.5994C175.646 66.4874 175.236 66.2634 174.937 65.9274C174.638 65.5914 174.489 65.1854 174.489 64.7094C174.489 64.1307 174.722 63.6314 175.189 63.2114C175.665 62.7914 176.23 62.5814 176.883 62.5814C177.312 62.5814 177.695 62.6467 178.031 62.7774C178.367 62.8987 178.628 63.0621 178.815 63.2674C179.002 63.4727 179.142 63.6641 179.235 63.8414C179.328 64.0187 179.398 64.2007 179.445 64.3874L178.283 64.8214C178.264 64.7094 178.232 64.6021 178.185 64.4994C178.138 64.3874 178.064 64.2661 177.961 64.1354C177.868 64.0047 177.728 63.9021 177.541 63.8274C177.354 63.7434 177.135 63.7014 176.883 63.7014C176.556 63.7014 176.286 63.7901 176.071 63.9674C175.866 64.1447 175.763 64.3547 175.763 64.5974C175.763 65.0267 176.02 65.2974 176.533 65.4094L177.625 65.6474C178.222 65.7781 178.68 66.0207 178.997 66.3754C179.324 66.7207 179.487 67.1454 179.487 67.6494C179.487 68.1814 179.268 68.6621 178.829 69.0914C178.4 69.5207 177.798 69.7354 177.023 69.7354C176.192 69.7354 175.544 69.5301 175.077 69.1194C174.61 68.6994 174.344 68.2514 174.279 67.7754Z" fill="#393854"/>
<path d="M62.7 101.865H60.66V99.7254C57.88 99.3454 56.56 97.3254 56.38 95.6254L58.86 95.0254C58.98 96.2854 59.82 97.4454 61.66 97.4454C62.96 97.4454 63.72 96.8254 63.72 95.9454C63.72 95.2654 63.22 94.7454 62.22 94.5254L60.38 94.1254C58.22 93.6454 56.88 92.2854 56.88 90.3654C56.88 88.2454 58.52 86.6854 60.66 86.3454V84.2054H62.7V86.4054C65 86.8254 66 88.4254 66.28 89.7654L63.82 90.4654C63.7 89.7654 63.18 88.6054 61.54 88.6054C60.26 88.6054 59.56 89.3454 59.56 90.1654C59.56 90.7854 60 91.3054 60.94 91.5054L62.76 91.9254C65.28 92.4854 66.42 93.9854 66.42 95.7854C66.42 97.6254 65.1 99.3254 62.7 99.7054V101.865ZM74.1141 94.7654H68.3141V92.4054H74.1141V94.7654ZM81.7117 94.7654H75.9117V92.4054H81.7117V94.7654ZM92.2586 94.7654H86.4586V92.4054H92.2586V94.7654ZM99.8563 94.7654H94.0563V92.4054H99.8563V94.7654ZM110.403 94.7654H104.603V92.4054H110.403V94.7654ZM118.001 94.7654H112.201V92.4054H118.001V94.7654Z" fill="#393854"/>
<path d="M63.634 139.525L62.556 136.753H58.16L57.11 139.525H55.64L59.588 129.599H61.17L65.118 139.525H63.634ZM60.344 131.027L58.65 135.479H62.066L60.344 131.027ZM67.6154 139.525H66.3134V132.791H67.5734V133.687C67.7787 133.333 68.068 133.062 68.4414 132.875C68.8147 132.689 69.2067 132.595 69.6174 132.595C70.056 132.595 70.4574 132.703 70.8214 132.917C71.1854 133.132 71.456 133.449 71.6334 133.869C72.1 133.02 72.8514 132.595 73.8874 132.595C74.5314 132.595 75.0774 132.815 75.5254 133.253C75.9827 133.692 76.2114 134.327 76.2114 135.157V139.525H74.9094V135.297C74.9094 134.831 74.788 134.457 74.5454 134.177C74.312 133.897 73.9574 133.757 73.4814 133.757C73.024 133.757 72.6507 133.921 72.3614 134.247C72.072 134.565 71.9274 134.966 71.9274 135.451V139.525H70.6114V135.297C70.6114 134.831 70.49 134.457 70.2474 134.177C70.014 133.897 69.6594 133.757 69.1834 133.757C68.7167 133.757 68.3387 133.916 68.0494 134.233C67.76 134.551 67.6154 134.961 67.6154 135.465V139.525ZM79.7033 137.929C80.1139 138.349 80.6133 138.559 81.2013 138.559C81.7893 138.559 82.2839 138.349 82.6853 137.929C83.0959 137.5 83.3013 136.907 83.3013 136.151C83.3013 135.405 83.0959 134.821 82.6853 134.401C82.2839 133.972 81.7893 133.757 81.2013 133.757C80.6133 133.757 80.1139 133.972 79.7033 134.401C79.3019 134.821 79.1013 135.405 79.1013 136.151C79.1013 136.907 79.3019 137.5 79.7033 137.929ZM78.7233 133.603C79.3766 132.922 80.2026 132.581 81.2013 132.581C82.1999 132.581 83.0213 132.922 83.6653 133.603C84.3186 134.275 84.6453 135.125 84.6453 136.151C84.6453 137.187 84.3233 138.046 83.6793 138.727C83.0353 139.399 82.2093 139.735 81.2013 139.735C80.1933 139.735 79.3673 139.399 78.7233 138.727C78.0793 138.046 77.7573 137.187 77.7573 136.151C77.7573 135.125 78.0793 134.275 78.7233 133.603ZM90.6986 138.713C90.5213 139.049 90.2506 139.306 89.8866 139.483C89.5226 139.651 89.1306 139.735 88.7106 139.735C87.9453 139.735 87.334 139.483 86.8766 138.979C86.4193 138.466 86.1906 137.817 86.1906 137.033V132.791H87.5066V136.837C87.5066 137.341 87.628 137.757 87.8706 138.083C88.1226 138.41 88.51 138.573 89.0326 138.573C89.5553 138.573 89.952 138.419 90.2226 138.111C90.4933 137.794 90.6286 137.374 90.6286 136.851V132.791H91.9446V138.279C91.9446 138.718 91.968 139.133 92.0146 139.525H90.7546C90.7173 139.32 90.6986 139.049 90.6986 138.713ZM95.5063 135.633V139.525H94.1903V132.791H95.4783V133.757C95.9263 132.983 96.617 132.595 97.5503 132.595C98.325 132.595 98.9176 132.843 99.3283 133.337C99.7483 133.832 99.9583 134.471 99.9583 135.255V139.525H98.6423V135.479C98.6423 134.35 98.1196 133.785 97.0743 133.785C96.5796 133.785 96.1923 133.963 95.9123 134.317C95.6416 134.663 95.5063 135.101 95.5063 135.633ZM103.816 130.663V132.791H105.272V133.981H103.816V137.481C103.816 137.799 103.886 138.032 104.026 138.181C104.175 138.331 104.418 138.405 104.754 138.405C104.95 138.405 105.122 138.387 105.272 138.349V139.469C105.048 139.553 104.749 139.595 104.376 139.595C103.797 139.595 103.34 139.427 103.004 139.091C102.668 138.755 102.5 138.284 102.5 137.677V133.981H101.212V132.791H101.576C101.921 132.791 102.178 132.698 102.346 132.511C102.523 132.315 102.612 132.063 102.612 131.755V130.663H103.816ZM115.806 139.525L113.538 135.465H112.054V139.525H110.668V129.599H114.406C115.321 129.599 116.054 129.884 116.604 130.453C117.164 131.013 117.444 131.713 117.444 132.553C117.444 133.272 117.23 133.888 116.8 134.401C116.371 134.905 115.783 135.227 115.036 135.367L117.402 139.525H115.806ZM112.054 134.233H114.154C114.714 134.233 115.167 134.084 115.512 133.785C115.858 133.477 116.03 133.067 116.03 132.553C116.03 132.031 115.858 131.615 115.512 131.307C115.167 130.99 114.714 130.831 114.154 130.831H112.054V134.233ZM118.708 137.719C118.708 137.141 118.894 136.679 119.268 136.333C119.641 135.979 120.136 135.759 120.752 135.675L122.572 135.409C122.917 135.363 123.09 135.195 123.09 134.905C123.09 134.551 122.968 134.261 122.726 134.037C122.483 133.813 122.119 133.701 121.634 133.701C121.186 133.701 120.831 133.827 120.57 134.079C120.308 134.322 120.154 134.649 120.108 135.059L118.848 134.765C118.913 134.121 119.207 133.599 119.73 133.197C120.252 132.787 120.878 132.581 121.606 132.581C122.558 132.581 123.262 132.815 123.72 133.281C124.177 133.739 124.406 134.327 124.406 135.045V138.419C124.406 138.821 124.434 139.189 124.49 139.525H123.202C123.155 139.245 123.132 138.942 123.132 138.615C122.945 138.914 122.67 139.175 122.306 139.399C121.951 139.623 121.503 139.735 120.962 139.735C120.299 139.735 119.758 139.539 119.338 139.147C118.918 138.746 118.708 138.27 118.708 137.719ZM121.144 138.629C121.732 138.629 122.203 138.471 122.558 138.153C122.912 137.836 123.09 137.332 123.09 136.641V136.333L121.032 136.641C120.733 136.688 120.495 136.795 120.318 136.963C120.14 137.131 120.052 137.36 120.052 137.649C120.052 137.911 120.15 138.139 120.346 138.335C120.551 138.531 120.817 138.629 121.144 138.629ZM127.758 139.525H126.456V132.791H127.758V139.525ZM126.428 130.915C126.251 130.729 126.162 130.505 126.162 130.243C126.162 129.982 126.251 129.758 126.428 129.571C126.615 129.385 126.839 129.291 127.1 129.291C127.361 129.291 127.585 129.385 127.772 129.571C127.959 129.749 128.052 129.973 128.052 130.243C128.052 130.505 127.959 130.729 127.772 130.915C127.585 131.093 127.361 131.181 127.1 131.181C126.839 131.181 126.615 131.093 126.428 130.915ZM129.367 137.775L130.557 137.355C130.604 137.719 130.762 138.023 131.033 138.265C131.304 138.499 131.668 138.615 132.125 138.615C132.48 138.615 132.76 138.531 132.965 138.363C133.17 138.186 133.273 137.971 133.273 137.719C133.273 137.271 132.984 136.982 132.405 136.851L131.257 136.599C130.734 136.487 130.324 136.263 130.025 135.927C129.726 135.591 129.577 135.185 129.577 134.709C129.577 134.131 129.81 133.631 130.277 133.211C130.753 132.791 131.318 132.581 131.971 132.581C132.4 132.581 132.783 132.647 133.119 132.777C133.455 132.899 133.716 133.062 133.903 133.267C134.09 133.473 134.23 133.664 134.323 133.841C134.416 134.019 134.486 134.201 134.533 134.387L133.371 134.821C133.352 134.709 133.32 134.602 133.273 134.499C133.226 134.387 133.152 134.266 133.049 134.135C132.956 134.005 132.816 133.902 132.629 133.827C132.442 133.743 132.223 133.701 131.971 133.701C131.644 133.701 131.374 133.79 131.159 133.967C130.954 134.145 130.851 134.355 130.851 134.597C130.851 135.027 131.108 135.297 131.621 135.409L132.713 135.647C133.31 135.778 133.768 136.021 134.085 136.375C134.412 136.721 134.575 137.145 134.575 137.649C134.575 138.181 134.356 138.662 133.917 139.091C133.488 139.521 132.886 139.735 132.111 139.735C131.28 139.735 130.632 139.53 130.165 139.119C129.698 138.699 129.432 138.251 129.367 137.775ZM137.113 135.465H140.795C140.776 134.961 140.608 134.551 140.291 134.233C139.973 133.907 139.525 133.743 138.947 133.743C138.424 133.743 137.995 133.916 137.659 134.261C137.323 134.597 137.141 134.999 137.113 135.465ZM140.991 137.215L142.125 137.607C141.929 138.233 141.565 138.746 141.033 139.147C140.501 139.539 139.857 139.735 139.101 139.735C138.158 139.735 137.355 139.413 136.693 138.769C136.039 138.116 135.713 137.239 135.713 136.137C135.713 135.111 136.03 134.261 136.665 133.589C137.299 132.917 138.055 132.581 138.933 132.581C139.95 132.581 140.743 132.903 141.313 133.547C141.882 134.182 142.167 135.036 142.167 136.109C142.167 136.277 142.157 136.417 142.139 136.529H137.071C137.08 137.127 137.276 137.617 137.659 137.999C138.051 138.382 138.531 138.573 139.101 138.573C140.062 138.573 140.692 138.121 140.991 137.215ZM144.631 136.137C144.631 136.847 144.803 137.425 145.149 137.873C145.503 138.321 145.989 138.545 146.605 138.545C147.193 138.545 147.664 138.317 148.019 137.859C148.373 137.402 148.551 136.819 148.551 136.109C148.551 135.409 148.378 134.845 148.033 134.415C147.687 133.986 147.216 133.771 146.619 133.771C146.021 133.771 145.541 133.991 145.177 134.429C144.813 134.868 144.631 135.437 144.631 136.137ZM148.565 138.615V138.503C148.387 138.849 148.117 139.138 147.753 139.371C147.398 139.595 146.973 139.707 146.479 139.707C145.517 139.707 144.743 139.371 144.155 138.699C143.576 138.018 143.287 137.164 143.287 136.137C143.287 135.157 143.585 134.327 144.183 133.645C144.78 132.955 145.545 132.609 146.479 132.609C147.029 132.609 147.477 132.721 147.823 132.945C148.168 133.16 148.406 133.426 148.537 133.743V129.389H149.839V138.279C149.839 138.737 149.862 139.152 149.909 139.525H148.635C148.588 139.264 148.565 138.961 148.565 138.615Z" fill="#393854"/>
<path d="M62.7 171.865H60.66V169.725C57.88 169.345 56.56 167.325 56.38 165.625L58.86 165.025C58.98 166.285 59.82 167.445 61.66 167.445C62.96 167.445 63.72 166.825 63.72 165.945C63.72 165.265 63.22 164.745 62.22 164.525L60.38 164.125C58.22 163.645 56.88 162.285 56.88 160.365C56.88 158.245 58.52 156.685 60.66 156.345V154.205H62.7V156.405C65 156.825 66 158.425 66.28 159.765L63.82 160.465C63.7 159.765 63.18 158.605 61.54 158.605C60.26 158.605 59.56 159.345 59.56 160.165C59.56 160.785 60 161.305 60.94 161.505L62.76 161.925C65.28 162.485 66.42 163.985 66.42 165.785C66.42 167.625 65.1 169.325 62.7 169.705V171.865ZM74.1141 164.765H68.3141V162.405H74.1141V164.765ZM81.7117 164.765H75.9117V162.405H81.7117V164.765ZM92.2586 164.765H86.4586V162.405H92.2586V164.765ZM99.8563 164.765H94.0563V162.405H99.8563V164.765ZM110.403 164.765H104.603V162.405H110.403V164.765ZM118.001 164.765H112.201V162.405H118.001V164.765Z" fill="#393854"/>
</g>
<path d="M291.861 103.711C291.21 104.344 290.885 105.233 290.885 106.379C290.885 107.524 291.21 108.418 291.861 109.06C292.512 109.703 293.297 110.024 294.217 110.024C295.137 110.024 295.922 109.703 296.573 109.06C297.224 108.418 297.55 107.524 297.55 106.379C297.55 105.233 297.224 104.344 296.573 103.711C295.922 103.068 295.137 102.747 294.217 102.747C293.297 102.747 292.512 103.068 291.861 103.711ZM289.583 106.379C289.583 105.633 289.713 104.951 289.974 104.335C290.243 103.719 290.594 103.216 291.028 102.825C291.471 102.426 291.965 102.118 292.512 101.901C293.059 101.684 293.627 101.576 294.217 101.576C294.807 101.576 295.376 101.684 295.922 101.901C296.469 102.118 296.959 102.426 297.393 102.825C297.836 103.216 298.187 103.719 298.448 104.335C298.717 104.951 298.851 105.633 298.851 106.379C298.851 107.368 298.621 108.236 298.161 108.982C297.71 109.729 297.137 110.284 296.443 110.649C295.749 111.013 295.007 111.195 294.217 111.195C293.427 111.195 292.686 111.013 291.991 110.649C291.297 110.284 290.72 109.729 290.26 108.982C289.809 108.236 289.583 107.368 289.583 106.379ZM304.003 104.739H305.265L306.893 109.451L308.272 104.739H309.561L307.53 111H306.268L304.602 106.236L302.974 111H301.686L299.629 104.739H300.97L302.376 109.451L304.003 104.739ZM312.021 107.381V111H310.797V104.739H311.995V105.637C312.411 104.917 313.053 104.557 313.921 104.557C314.642 104.557 315.193 104.787 315.574 105.247C315.965 105.706 316.16 106.301 316.16 107.03V111H314.937V107.238C314.937 106.188 314.451 105.663 313.479 105.663C313.019 105.663 312.659 105.828 312.398 106.158C312.147 106.479 312.021 106.887 312.021 107.381ZM318.901 107.225H322.324C322.307 106.756 322.15 106.375 321.855 106.08C321.56 105.776 321.144 105.624 320.606 105.624C320.12 105.624 319.721 105.785 319.408 106.106C319.096 106.418 318.927 106.791 318.901 107.225ZM322.506 108.852L323.561 109.217C323.378 109.798 323.04 110.275 322.545 110.649C322.051 111.013 321.452 111.195 320.749 111.195C319.872 111.195 319.126 110.896 318.51 110.297C317.903 109.69 317.599 108.874 317.599 107.85C317.599 106.895 317.894 106.106 318.484 105.481C319.074 104.856 319.777 104.544 320.593 104.544C321.539 104.544 322.276 104.843 322.806 105.442C323.335 106.032 323.6 106.826 323.6 107.824C323.6 107.98 323.591 108.11 323.574 108.214H318.862C318.87 108.77 319.052 109.225 319.408 109.581C319.773 109.937 320.22 110.115 320.749 110.115C321.643 110.115 322.229 109.694 322.506 108.852ZM328.637 104.674V105.975C328.455 105.949 328.277 105.936 328.103 105.936C326.958 105.936 326.385 106.579 326.385 107.863V111H325.162V104.739H326.359V105.832C326.741 105.034 327.366 104.635 328.234 104.635C328.372 104.635 328.507 104.648 328.637 104.674ZM329.356 109.373L330.462 108.982C330.505 109.321 330.653 109.603 330.905 109.828C331.156 110.045 331.495 110.154 331.92 110.154C332.25 110.154 332.51 110.076 332.701 109.92C332.892 109.755 332.987 109.555 332.987 109.321C332.987 108.904 332.718 108.635 332.18 108.514L331.113 108.279C330.627 108.175 330.245 107.967 329.967 107.655C329.69 107.342 329.551 106.965 329.551 106.522C329.551 105.984 329.768 105.52 330.202 105.129C330.644 104.739 331.169 104.544 331.777 104.544C332.176 104.544 332.532 104.604 332.844 104.726C333.156 104.839 333.399 104.991 333.573 105.181C333.747 105.372 333.877 105.55 333.964 105.715C334.05 105.88 334.115 106.049 334.159 106.223L333.078 106.626C333.061 106.522 333.031 106.422 332.987 106.327C332.944 106.223 332.874 106.11 332.779 105.988C332.692 105.867 332.562 105.772 332.388 105.702C332.215 105.624 332.011 105.585 331.777 105.585C331.473 105.585 331.221 105.667 331.022 105.832C330.831 105.997 330.735 106.192 330.735 106.418C330.735 106.817 330.974 107.069 331.451 107.173L332.467 107.394C333.022 107.516 333.447 107.741 333.742 108.071C334.046 108.392 334.198 108.787 334.198 109.256C334.198 109.75 333.994 110.197 333.586 110.596C333.187 110.996 332.627 111.195 331.907 111.195C331.134 111.195 330.531 111.004 330.097 110.623C329.664 110.232 329.416 109.815 329.356 109.373ZM337.05 107.316V111H335.827V101.576H337.05V105.468C337.467 104.86 338.1 104.557 338.951 104.557C339.671 104.557 340.222 104.787 340.604 105.247C340.995 105.706 341.19 106.301 341.19 107.03V111H339.966V107.238C339.966 106.188 339.48 105.663 338.508 105.663C338.057 105.663 337.706 105.819 337.454 106.132C337.202 106.435 337.068 106.83 337.05 107.316ZM344.347 111H343.136V104.739H344.347V111ZM343.11 102.995C342.945 102.821 342.863 102.613 342.863 102.37C342.863 102.127 342.945 101.919 343.11 101.745C343.284 101.571 343.492 101.485 343.735 101.485C343.978 101.485 344.186 101.571 344.36 101.745C344.533 101.91 344.62 102.118 344.62 102.37C344.62 102.613 344.533 102.821 344.36 102.995C344.186 103.159 343.978 103.242 343.735 103.242C343.492 103.242 343.284 103.159 343.11 102.995ZM347.639 113.473H346.429V104.739H347.613V105.715C347.795 105.385 348.069 105.116 348.433 104.908C348.798 104.7 349.223 104.596 349.709 104.596C350.611 104.596 351.314 104.904 351.818 105.52C352.33 106.136 352.586 106.917 352.586 107.863C352.586 108.817 352.321 109.607 351.792 110.232C351.271 110.857 350.564 111.169 349.67 111.169C349.21 111.169 348.802 111.074 348.446 110.883C348.09 110.692 347.821 110.449 347.639 110.154V113.473ZM351.336 107.863C351.336 107.229 351.167 106.709 350.828 106.301C350.499 105.884 350.052 105.676 349.488 105.676C348.932 105.676 348.481 105.884 348.134 106.301C347.795 106.709 347.626 107.229 347.626 107.863C347.626 108.514 347.795 109.047 348.134 109.464C348.481 109.872 348.932 110.076 349.488 110.076C350.043 110.076 350.49 109.872 350.828 109.464C351.167 109.047 351.336 108.514 351.336 107.863ZM363.178 111L362.006 109.776C361.182 110.696 360.319 111.156 359.416 111.156C358.592 111.156 357.941 110.922 357.463 110.453C356.986 109.985 356.748 109.434 356.748 108.8C356.748 108.245 356.878 107.78 357.138 107.407C357.407 107.034 357.819 106.639 358.375 106.223L358.505 106.119L358.336 105.936C358.119 105.711 357.949 105.529 357.828 105.39C357.715 105.242 357.585 105.025 357.437 104.739C357.299 104.444 357.229 104.157 357.229 103.88C357.229 103.177 357.468 102.617 357.945 102.201C358.431 101.784 358.986 101.576 359.611 101.576C360.323 101.576 360.909 101.784 361.369 102.201C361.828 102.608 362.058 103.151 362.058 103.828C362.058 104.548 361.625 105.229 360.757 105.871L360.288 106.223L362.006 108.006L364.063 105.715V107.394L362.813 108.839L364.909 111H363.178ZM359.429 109.985C359.75 109.985 360.041 109.898 360.301 109.724C360.57 109.551 360.852 109.299 361.147 108.969L361.186 108.917L359.312 106.952L358.843 107.303C358.323 107.702 358.062 108.167 358.062 108.696C358.062 109.026 358.188 109.325 358.44 109.594C358.7 109.855 359.03 109.985 359.429 109.985ZM358.492 103.802C358.492 104.175 358.726 104.604 359.195 105.09L359.481 105.403L360.106 104.934C360.566 104.596 360.796 104.214 360.796 103.789C360.796 103.476 360.683 103.212 360.457 102.995C360.24 102.778 359.963 102.669 359.624 102.669C359.329 102.669 359.065 102.773 358.83 102.982C358.605 103.181 358.492 103.455 358.492 103.802ZM370.093 111H368.817V101.771H374.428V102.956H370.093V105.923H374.024V107.121H370.093V111ZM379.398 110.245C379.233 110.557 378.982 110.796 378.643 110.961C378.305 111.117 377.94 111.195 377.55 111.195C376.838 111.195 376.27 110.961 375.845 110.492C375.419 110.015 375.207 109.412 375.207 108.683V104.739H376.43V108.501C376.43 108.969 376.543 109.356 376.769 109.659C377.003 109.963 377.363 110.115 377.849 110.115C378.335 110.115 378.704 109.972 378.956 109.685C379.207 109.39 379.333 109 379.333 108.514V104.739H380.557V109.841C380.557 110.249 380.578 110.636 380.622 111H379.45C379.415 110.809 379.398 110.557 379.398 110.245ZM383.868 111H382.645V101.576H383.868V111ZM387.173 111H385.95V101.576H387.173V111ZM390.817 113.616H389.476L391.038 110.31L388.344 104.739H389.749L391.702 109.06L393.576 104.739H394.891L390.817 113.616ZM304.353 129.868H306.241C307.143 129.868 307.89 129.568 308.48 128.969C309.079 128.371 309.378 127.516 309.378 126.405C309.378 125.286 309.083 124.422 308.493 123.815C307.911 123.207 307.169 122.903 306.267 122.903H304.353V129.868ZM306.28 131H303.078V121.771H306.306C307.547 121.771 308.588 122.183 309.43 123.008C310.272 123.823 310.693 124.956 310.693 126.405C310.693 127.846 310.267 128.974 309.417 129.789C308.567 130.596 307.521 131 306.28 131ZM313.527 131H312.316V124.739H313.527V131ZM312.29 122.995C312.125 122.821 312.043 122.613 312.043 122.37C312.043 122.127 312.125 121.919 312.29 121.745C312.464 121.571 312.672 121.485 312.915 121.485C313.158 121.485 313.366 121.571 313.54 121.745C313.713 121.91 313.8 122.118 313.8 122.37C313.8 122.613 313.713 122.821 313.54 122.995C313.366 123.159 313.158 123.242 312.915 123.242C312.672 123.242 312.464 123.159 312.29 122.995ZM316.832 131H315.609V121.576H316.832V131ZM322.977 130.245C322.812 130.557 322.56 130.796 322.222 130.961C321.883 131.117 321.519 131.195 321.128 131.195C320.417 131.195 319.848 130.961 319.423 130.492C318.998 130.015 318.785 129.412 318.785 128.683V124.739H320.009V128.501C320.009 128.969 320.121 129.356 320.347 129.659C320.581 129.963 320.942 130.115 321.428 130.115C321.913 130.115 322.282 129.972 322.534 129.685C322.786 129.39 322.911 129 322.911 128.514V124.739H324.135V129.841C324.135 130.249 324.157 130.636 324.2 131H323.029C322.994 130.809 322.977 130.557 322.977 130.245ZM327.863 122.76V124.739H329.217V125.845H327.863V129.1C327.863 129.395 327.928 129.612 328.058 129.75C328.197 129.889 328.423 129.959 328.735 129.959C328.918 129.959 329.078 129.941 329.217 129.907V130.948C329.009 131.026 328.731 131.065 328.384 131.065C327.846 131.065 327.421 130.909 327.108 130.596C326.796 130.284 326.64 129.846 326.64 129.282V125.845H325.442V124.739H325.78C326.102 124.739 326.34 124.652 326.496 124.479C326.661 124.296 326.744 124.062 326.744 123.776V122.76H327.863ZM331.581 127.225H335.004C334.987 126.756 334.831 126.375 334.535 126.08C334.24 125.776 333.824 125.624 333.286 125.624C332.8 125.624 332.401 125.785 332.088 126.106C331.776 126.418 331.607 126.791 331.581 127.225ZM335.186 128.852L336.241 129.217C336.058 129.798 335.72 130.275 335.225 130.649C334.731 131.013 334.132 131.195 333.429 131.195C332.553 131.195 331.806 130.896 331.19 130.297C330.583 129.69 330.279 128.874 330.279 127.85C330.279 126.895 330.574 126.106 331.164 125.481C331.754 124.856 332.457 124.544 333.273 124.544C334.219 124.544 334.956 124.843 335.486 125.442C336.015 126.032 336.28 126.826 336.28 127.824C336.28 127.98 336.271 128.11 336.254 128.214H331.542C331.55 128.77 331.733 129.225 332.088 129.581C332.453 129.937 332.9 130.115 333.429 130.115C334.323 130.115 334.909 129.694 335.186 128.852ZM338.571 127.85C338.571 128.509 338.731 129.047 339.052 129.464C339.382 129.881 339.833 130.089 340.406 130.089C340.953 130.089 341.391 129.876 341.721 129.451C342.051 129.026 342.215 128.483 342.215 127.824C342.215 127.173 342.055 126.648 341.734 126.249C341.413 125.85 340.974 125.65 340.419 125.65C339.864 125.65 339.417 125.854 339.078 126.262C338.74 126.67 338.571 127.199 338.571 127.85ZM342.228 130.154V130.05C342.064 130.371 341.812 130.64 341.473 130.857C341.144 131.065 340.749 131.169 340.289 131.169C339.395 131.169 338.675 130.857 338.128 130.232C337.59 129.599 337.321 128.804 337.321 127.85C337.321 126.939 337.599 126.166 338.154 125.533C338.709 124.891 339.421 124.57 340.289 124.57C340.801 124.57 341.217 124.674 341.539 124.882C341.86 125.082 342.081 125.329 342.202 125.624V121.576H343.413V129.841C343.413 130.267 343.435 130.653 343.478 131H342.293C342.25 130.757 342.228 130.475 342.228 130.154ZM348.163 129.373L349.269 128.982C349.313 129.321 349.46 129.603 349.712 129.828C349.963 130.045 350.302 130.154 350.727 130.154C351.057 130.154 351.317 130.076 351.508 129.92C351.699 129.755 351.794 129.555 351.794 129.321C351.794 128.904 351.525 128.635 350.987 128.514L349.92 128.279C349.434 128.175 349.052 127.967 348.775 127.655C348.497 127.342 348.358 126.965 348.358 126.522C348.358 125.984 348.575 125.52 349.009 125.129C349.451 124.739 349.976 124.544 350.584 124.544C350.983 124.544 351.339 124.604 351.651 124.726C351.964 124.839 352.207 124.991 352.38 125.181C352.554 125.372 352.684 125.55 352.771 125.715C352.857 125.88 352.923 126.049 352.966 126.223L351.886 126.626C351.868 126.522 351.838 126.422 351.794 126.327C351.751 126.223 351.682 126.11 351.586 125.988C351.499 125.867 351.369 125.772 351.196 125.702C351.022 125.624 350.818 125.585 350.584 125.585C350.28 125.585 350.028 125.667 349.829 125.832C349.638 125.997 349.543 126.192 349.543 126.418C349.543 126.817 349.781 127.069 350.258 127.173L351.274 127.394C351.829 127.516 352.254 127.741 352.549 128.071C352.853 128.392 353.005 128.787 353.005 129.256C353.005 129.75 352.801 130.197 352.393 130.596C351.994 130.996 351.434 131.195 350.714 131.195C349.942 131.195 349.339 131.004 348.905 130.623C348.471 130.232 348.223 129.815 348.163 129.373ZM355.858 127.316V131H354.634V121.576H355.858V125.468C356.274 124.86 356.908 124.557 357.758 124.557C358.478 124.557 359.029 124.787 359.411 125.247C359.802 125.706 359.997 126.301 359.997 127.03V131H358.773V127.238C358.773 126.188 358.287 125.663 357.316 125.663C356.864 125.663 356.513 125.819 356.261 126.132C356.01 126.435 355.875 126.83 355.858 127.316ZM361.553 129.321C361.553 128.783 361.726 128.353 362.074 128.032C362.421 127.702 362.881 127.498 363.453 127.42L365.146 127.173C365.467 127.13 365.627 126.973 365.627 126.704C365.627 126.375 365.514 126.106 365.289 125.897C365.063 125.689 364.725 125.585 364.273 125.585C363.857 125.585 363.527 125.702 363.284 125.936C363.041 126.162 362.898 126.466 362.855 126.848L361.683 126.574C361.744 125.975 362.017 125.489 362.503 125.116C362.989 124.735 363.571 124.544 364.247 124.544C365.133 124.544 365.788 124.761 366.213 125.194C366.638 125.62 366.851 126.166 366.851 126.835V129.972C366.851 130.345 366.877 130.688 366.929 131H365.731C365.688 130.74 365.666 130.458 365.666 130.154C365.493 130.432 365.237 130.675 364.898 130.883C364.568 131.091 364.152 131.195 363.649 131.195C363.032 131.195 362.529 131.013 362.139 130.649C361.748 130.275 361.553 129.833 361.553 129.321ZM363.818 130.167C364.365 130.167 364.803 130.019 365.133 129.724C365.462 129.429 365.627 128.961 365.627 128.319V128.032L363.714 128.319C363.436 128.362 363.215 128.462 363.05 128.618C362.885 128.774 362.803 128.987 362.803 129.256C362.803 129.499 362.894 129.711 363.076 129.894C363.267 130.076 363.514 130.167 363.818 130.167ZM372.232 124.674V125.975C372.05 125.949 371.872 125.936 371.699 125.936C370.553 125.936 369.981 126.579 369.981 127.863V131H368.757V124.739H369.955V125.832C370.336 125.034 370.961 124.635 371.829 124.635C371.968 124.635 372.102 124.648 372.232 124.674ZM374.267 127.225H377.691C377.673 126.756 377.517 126.375 377.222 126.08C376.927 125.776 376.51 125.624 375.972 125.624C375.486 125.624 375.087 125.785 374.775 126.106C374.462 126.418 374.293 126.791 374.267 127.225ZM377.873 128.852L378.927 129.217C378.745 129.798 378.406 130.275 377.912 130.649C377.417 131.013 376.818 131.195 376.115 131.195C375.239 131.195 374.493 130.896 373.877 130.297C373.269 129.69 372.965 128.874 372.965 127.85C372.965 126.895 373.26 126.106 373.851 125.481C374.441 124.856 375.144 124.544 375.959 124.544C376.905 124.544 377.643 124.843 378.172 125.442C378.702 126.032 378.966 126.826 378.966 127.824C378.966 127.98 378.958 128.11 378.94 128.214H374.228C374.237 128.77 374.419 129.225 374.775 129.581C375.139 129.937 375.586 130.115 376.115 130.115C377.009 130.115 377.595 129.694 377.873 128.852ZM379.942 129.373L381.049 128.982C381.092 129.321 381.24 129.603 381.491 129.828C381.743 130.045 382.081 130.154 382.507 130.154C382.836 130.154 383.097 130.076 383.288 129.92C383.479 129.755 383.574 129.555 383.574 129.321C383.574 128.904 383.305 128.635 382.767 128.514L381.7 128.279C381.214 128.175 380.832 127.967 380.554 127.655C380.276 127.342 380.138 126.965 380.138 126.522C380.138 125.984 380.355 125.52 380.788 125.129C381.231 124.739 381.756 124.544 382.364 124.544C382.763 124.544 383.118 124.604 383.431 124.726C383.743 124.839 383.986 124.991 384.16 125.181C384.333 125.372 384.464 125.55 384.55 125.715C384.637 125.88 384.702 126.049 384.746 126.223L383.665 126.626C383.648 126.522 383.617 126.422 383.574 126.327C383.531 126.223 383.461 126.11 383.366 125.988C383.279 125.867 383.149 125.772 382.975 125.702C382.802 125.624 382.598 125.585 382.364 125.585C382.06 125.585 381.808 125.667 381.609 125.832C381.418 125.997 381.322 126.192 381.322 126.418C381.322 126.817 381.561 127.069 382.038 127.173L383.053 127.394C383.609 127.516 384.034 127.741 384.329 128.071C384.633 128.392 384.785 128.787 384.785 129.256C384.785 129.75 384.581 130.197 384.173 130.596C383.774 130.996 383.214 131.195 382.494 131.195C381.721 131.195 381.118 131.004 380.684 130.623C380.25 130.232 380.003 129.815 379.942 129.373Z" fill="#393854"/>
<path d="M438.495 115.528C438.495 129.309 435.459 142.923 429.6 155.412C423.741 167.901 415.201 178.962 404.582 187.815C393.963 196.669 381.522 203.1 368.135 206.657C354.748 210.215 340.74 210.811 327.096 208.405C313.452 205.999 300.505 200.648 289.163 192.73C277.822 184.811 268.364 174.517 261.453 162.572C254.542 150.627 250.347 137.321 249.162 123.59C247.978 109.859 249.833 96.0361 254.598 83.0948L277.224 91.3347C273.67 100.988 272.286 111.299 273.169 121.541C274.053 131.784 277.182 141.71 282.337 150.62C287.492 159.53 294.548 167.209 303.008 173.116C311.467 179.022 321.126 183.014 331.303 184.809C341.481 186.604 351.93 186.159 361.916 183.505C371.902 180.852 381.182 176.054 389.103 169.45C397.024 162.846 403.394 154.595 407.765 145.279C412.135 135.963 414.4 125.808 414.4 115.528H438.495Z" fill="#F765A3"/>
<path d="M438.495 115.528C438.495 136.182 431.679 156.266 419.093 172.695C406.506 189.124 388.846 200.991 368.824 206.472C348.801 211.953 327.523 210.746 308.257 203.037C288.99 195.328 272.801 181.542 262.174 163.797L282.875 151.533C290.802 164.771 302.878 175.054 317.25 180.805C331.622 186.555 347.494 187.455 362.429 183.367C377.365 179.278 390.539 170.426 399.927 158.171C409.316 145.916 414.4 130.935 414.4 115.528H438.495Z" fill="#F765A3"/>
<path d="M251.096 136.089C248.258 123.449 248.067 110.364 250.535 97.648C253.003 84.9319 258.078 72.8576 265.443 62.1773C272.807 51.497 282.305 42.4394 293.343 35.569C304.381 28.6986 316.723 24.1624 329.601 22.2432C342.478 20.3239 355.615 21.0627 368.193 24.4135C380.771 27.7643 392.521 33.6552 402.71 41.7194C412.899 49.7835 421.309 59.8481 427.416 71.2861C433.524 82.724 437.198 95.2903 438.209 108.202L414.085 110.071C413.332 100.454 410.596 91.0933 406.046 82.5735C401.497 74.0537 395.233 66.5569 387.643 60.5502C380.054 54.5435 371.302 50.1555 361.933 47.6596C352.564 45.1637 342.779 44.6134 333.186 46.043C323.594 47.4726 314.401 50.8514 306.179 55.969C297.957 61.0865 290.883 67.8332 285.397 75.7887C279.911 83.7441 276.131 92.7379 274.293 102.21C272.454 111.681 272.597 121.428 274.711 130.843L251.096 136.089Z" fill="#7C7D90"/>
<path d="M252.139 91.1231C255.682 78.0803 261.994 65.9388 270.65 55.5186C279.305 45.0984 290.101 36.6424 302.309 30.7217C314.517 24.801 327.853 21.5535 341.415 21.1986C354.978 20.8436 368.451 23.3896 380.925 28.6643C393.399 33.9391 404.583 41.8199 413.722 51.7744C422.861 61.7289 429.741 73.5252 433.899 86.3665C438.057 99.2078 439.395 112.795 437.823 126.21C436.25 139.626 431.805 152.557 424.786 164.13L403.746 151.525C408.945 142.953 412.238 133.376 413.402 123.439C414.567 113.503 413.576 103.439 410.496 93.9281C407.417 84.4169 402.32 75.6797 395.552 68.3067C388.783 60.9337 380.499 55.0966 371.26 51.1897C362.021 47.2828 352.041 45.3971 341.996 45.66C331.951 45.9229 322.073 48.3282 313.031 52.7135C303.989 57.0988 295.992 63.362 289.582 71.0799C283.171 78.7979 278.496 87.7908 275.871 97.4513L252.139 91.1231Z" fill="#A155B9"/>
<path d="M252.046 91.112C255.27 79.147 260.831 67.9306 268.413 58.1033C275.995 48.276 285.449 40.0301 296.235 33.8366L308.377 54.7528C300.352 59.3605 293.319 65.495 287.679 72.8061C282.038 80.1171 277.901 88.4616 275.503 97.363L252.046 91.112Z" fill="#16BFD6"/>
<defs>
<filter id="filter0_d_1156_7052" x="0.5" y="0.525391" width="249" height="234" filterUnits="userSpaceOnUse" color-interpolation-filters="sRGB">
<feFlood flood-opacity="0" result="BackgroundImageFix"/>
<feColorMatrix in="SourceAlpha" type="matrix" values="0 0 0 0 0 0 0 0 0 0 0 0 0 0 0 0 0 0 127 0" result="hardAlpha"/>
<feMorphology radius="10" operator="dilate" in="SourceAlpha" result="effect1_dropShadow_1156_7052"/>
<feOffset dy="2"/>
<feGaussianBlur stdDeviation="12.5"/>
<feComposite in2="hardAlpha" operator="out"/>
<feColorMatrix type="matrix" values="0 0 0 0 0 0 0 0 0 0 0 0 0 0 0 0 0 0 0.05 0"/>
<feBlend mode="normal" in2="BackgroundImageFix" result="effect1_dropShadow_1156_7052"/>
<feBlend mode="normal" in="SourceGraphic" in2="effect1_dropShadow_1156_7052" result="shape"/>
</filter>
</defs>
</svg>
