<svg width="629" height="541" viewBox="0 0 629 541" fill="none" xmlns="http://www.w3.org/2000/svg">
<g clip-path="url(#clip0_812_10221)">
<rect width="629" height="541" rx="16" fill="#F4F7FE"/>
<g filter="url(#filter0_d_812_10221)">
<rect x="57.6426" y="59.9072" width="613.357" height="426.776" rx="16" fill="white" shape-rendering="crispEdges"/>
<path d="M96.6085 98.8734H110.68C113.72 98.8734 115.24 98.8734 116.332 99.603C116.805 99.9189 117.211 100.325 117.527 100.798C118.256 101.89 118.256 103.41 118.256 106.45C118.256 111.517 118.256 114.051 117.04 115.871C116.514 116.659 115.837 117.335 115.049 117.862C113.229 119.078 110.696 119.078 105.629 119.078H103.825C97.0212 119.078 93.6196 119.078 91.5061 116.965C89.3926 114.851 89.3926 111.449 89.3926 104.646V100.236C89.3926 97.6146 89.3926 96.3038 89.9414 95.3203C90.3327 94.6192 90.9112 94.0407 91.6123 93.6495C92.5958 93.1006 93.9066 93.1006 96.5281 93.1006C98.2076 93.1006 99.0474 93.1006 99.7825 93.3762C101.461 94.0056 102.153 95.5303 102.91 97.045L103.825 98.8734" stroke="#141B34" stroke-width="2.16479" stroke-linecap="round"/>
<path d="M139.642 99.9775V116.771H137.609V99.9775H139.642ZM144.96 109.194V116.771H143.024V104.176H144.894V106.144H145.058C145.353 105.504 145.802 104.99 146.403 104.602C147.004 104.209 147.78 104.012 148.732 104.012C149.584 104.012 150.331 104.187 150.97 104.537C151.61 104.881 152.107 105.406 152.463 106.111C152.818 106.811 152.996 107.696 152.996 108.768V116.771H151.06V108.899C151.06 107.91 150.803 107.139 150.29 106.587C149.776 106.029 149.071 105.75 148.174 105.75C147.556 105.75 147.004 105.884 146.518 106.152C146.037 106.42 145.657 106.811 145.378 107.325C145.099 107.839 144.96 108.462 144.96 109.194ZM165.947 104.176L161.289 116.771H159.321L154.664 104.176H156.763L160.24 114.213H160.371L163.848 104.176H165.947ZM172.898 117.033C171.685 117.033 170.638 116.766 169.758 116.23C168.883 115.689 168.208 114.934 167.732 113.967C167.262 112.994 167.027 111.862 167.027 110.572C167.027 109.282 167.262 108.145 167.732 107.161C168.208 106.171 168.869 105.4 169.717 104.848C170.569 104.291 171.564 104.012 172.701 104.012C173.357 104.012 174.005 104.121 174.645 104.34C175.284 104.559 175.867 104.914 176.391 105.406C176.916 105.892 177.334 106.537 177.646 107.341C177.958 108.145 178.113 109.134 178.113 110.309V111.129H168.405V109.457H176.145C176.145 108.746 176.003 108.112 175.719 107.554C175.44 106.997 175.041 106.557 174.522 106.234C174.008 105.912 173.401 105.75 172.701 105.75C171.931 105.75 171.264 105.942 170.701 106.324C170.143 106.701 169.714 107.193 169.413 107.8C169.113 108.407 168.962 109.058 168.962 109.752V110.867C168.962 111.818 169.126 112.625 169.454 113.286C169.788 113.942 170.25 114.442 170.84 114.787C171.43 115.126 172.116 115.295 172.898 115.295C173.407 115.295 173.866 115.224 174.276 115.082C174.691 114.934 175.049 114.716 175.35 114.426C175.651 114.131 175.883 113.764 176.047 113.327L177.917 113.852C177.72 114.486 177.389 115.044 176.924 115.525C176.46 116 175.886 116.372 175.202 116.64C174.519 116.902 173.751 117.033 172.898 117.033ZM189.546 106.997L187.807 107.489C187.698 107.199 187.537 106.917 187.324 106.644C187.116 106.365 186.832 106.136 186.471 105.955C186.11 105.775 185.648 105.685 185.085 105.685C184.314 105.685 183.672 105.862 183.158 106.218C182.65 106.568 182.395 107.013 182.395 107.554C182.395 108.035 182.57 108.415 182.92 108.694C183.27 108.973 183.817 109.205 184.56 109.391L186.43 109.85C187.556 110.124 188.395 110.542 188.947 111.105C189.499 111.662 189.775 112.381 189.775 113.261C189.775 113.983 189.568 114.628 189.152 115.197C188.742 115.765 188.168 116.213 187.43 116.541C186.692 116.869 185.834 117.033 184.855 117.033C183.571 117.033 182.507 116.755 181.666 116.197C180.824 115.639 180.291 114.825 180.067 113.753L181.903 113.294C182.078 113.972 182.409 114.48 182.896 114.819C183.388 115.158 184.03 115.328 184.823 115.328C185.725 115.328 186.441 115.136 186.971 114.754C187.507 114.366 187.775 113.901 187.775 113.36C187.775 112.922 187.621 112.556 187.315 112.261C187.009 111.96 186.539 111.736 185.905 111.589L183.806 111.097C182.652 110.823 181.805 110.4 181.264 109.826C180.728 109.246 180.46 108.522 180.46 107.653C180.46 106.942 180.66 106.313 181.059 105.767C181.463 105.22 182.013 104.791 182.707 104.479C183.407 104.168 184.199 104.012 185.085 104.012C186.331 104.012 187.31 104.285 188.021 104.832C188.737 105.379 189.245 106.1 189.546 106.997ZM197.733 104.176V105.816H191.206V104.176H197.733ZM193.108 101.158H195.043V113.163C195.043 113.71 195.123 114.12 195.281 114.393C195.445 114.661 195.653 114.841 195.904 114.934C196.161 115.022 196.432 115.065 196.716 115.065C196.929 115.065 197.104 115.054 197.241 115.033C197.378 115.005 197.487 114.983 197.569 114.967L197.963 116.705C197.831 116.755 197.648 116.804 197.413 116.853C197.178 116.908 196.88 116.935 196.519 116.935C195.973 116.935 195.437 116.817 194.912 116.582C194.393 116.347 193.961 115.989 193.617 115.508C193.278 115.027 193.108 114.42 193.108 113.688V101.158ZM200.211 116.771V104.176H202.081V106.144H202.245C202.507 105.471 202.931 104.949 203.516 104.578C204.101 104.2 204.803 104.012 205.623 104.012C206.454 104.012 207.145 104.2 207.698 104.578C208.255 104.949 208.69 105.471 209.001 106.144H209.133C209.455 105.493 209.939 104.977 210.584 104.594C211.229 104.206 212.003 104.012 212.905 104.012C214.031 104.012 214.952 104.364 215.668 105.07C216.384 105.769 216.742 106.86 216.742 108.341V116.771H214.807V108.341C214.807 107.412 214.553 106.748 214.044 106.349C213.536 105.95 212.937 105.75 212.249 105.75C211.363 105.75 210.677 106.018 210.19 106.554C209.704 107.084 209.461 107.757 209.461 108.571V116.771H207.493V108.145C207.493 107.429 207.26 106.852 206.796 106.414C206.331 105.972 205.732 105.75 205 105.75C204.497 105.75 204.027 105.884 203.589 106.152C203.158 106.42 202.808 106.792 202.54 107.267C202.277 107.737 202.146 108.281 202.146 108.899V116.771H200.211ZM225.128 117.033C223.915 117.033 222.868 116.766 221.988 116.23C221.113 115.689 220.438 114.934 219.962 113.967C219.492 112.994 219.257 111.862 219.257 110.572C219.257 109.282 219.492 108.145 219.962 107.161C220.438 106.171 221.099 105.4 221.947 104.848C222.799 104.291 223.794 104.012 224.931 104.012C225.587 104.012 226.235 104.121 226.875 104.34C227.514 104.559 228.097 104.914 228.621 105.406C229.146 105.892 229.564 106.537 229.876 107.341C230.188 108.145 230.343 109.134 230.343 110.309V111.129H220.635V109.457H228.375C228.375 108.746 228.233 108.112 227.949 107.554C227.67 106.997 227.271 106.557 226.752 106.234C226.238 105.912 225.631 105.75 224.931 105.75C224.161 105.75 223.494 105.942 222.931 106.324C222.373 106.701 221.944 107.193 221.643 107.8C221.343 108.407 221.192 109.058 221.192 109.752V110.867C221.192 111.818 221.356 112.625 221.684 113.286C222.018 113.942 222.48 114.442 223.07 114.787C223.66 115.126 224.347 115.295 225.128 115.295C225.637 115.295 226.096 115.224 226.506 115.082C226.921 114.934 227.279 114.716 227.58 114.426C227.881 114.131 228.113 113.764 228.277 113.327L230.147 113.852C229.95 114.486 229.619 115.044 229.154 115.525C228.69 116 228.116 116.372 227.432 116.64C226.749 116.902 225.981 117.033 225.128 117.033ZM234.789 109.194V116.771H232.854V104.176H234.724V106.144H234.888C235.183 105.504 235.631 104.99 236.233 104.602C236.834 104.209 237.61 104.012 238.561 104.012C239.414 104.012 240.16 104.187 240.8 104.537C241.44 104.881 241.937 105.406 242.292 106.111C242.648 106.811 242.825 107.696 242.825 108.768V116.771H240.89V108.899C240.89 107.91 240.633 107.139 240.119 106.587C239.606 106.029 238.9 105.75 238.004 105.75C237.386 105.75 236.834 105.884 236.347 106.152C235.866 106.42 235.486 106.811 235.208 107.325C234.929 107.839 234.789 108.462 234.789 109.194ZM251.406 104.176V105.816H244.879V104.176H251.406ZM246.781 101.158H248.717V113.163C248.717 113.71 248.796 114.12 248.954 114.393C249.118 114.661 249.326 114.841 249.578 114.934C249.835 115.022 250.105 115.065 250.389 115.065C250.603 115.065 250.778 115.054 250.914 115.033C251.051 115.005 251.16 114.983 251.242 114.967L251.636 116.705C251.505 116.755 251.322 116.804 251.086 116.853C250.851 116.908 250.553 116.935 250.193 116.935C249.646 116.935 249.11 116.817 248.585 116.582C248.066 116.347 247.634 115.989 247.29 115.508C246.951 115.027 246.781 114.42 246.781 113.688V101.158ZM259.946 116.771V104.176H261.881V116.771H259.946ZM260.93 102.077C260.552 102.077 260.227 101.948 259.954 101.691C259.686 101.434 259.552 101.125 259.552 100.765C259.552 100.404 259.686 100.095 259.954 99.8381C260.227 99.5811 260.552 99.4527 260.93 99.4527C261.307 99.4527 261.629 99.5811 261.897 99.8381C262.171 100.095 262.307 100.404 262.307 100.765C262.307 101.125 262.171 101.434 261.897 101.691C261.629 101.948 261.307 102.077 260.93 102.077ZM266.928 109.194V116.771H264.992V104.176H266.862V106.144H267.026C267.321 105.504 267.769 104.99 268.371 104.602C268.972 104.209 269.748 104.012 270.7 104.012C271.552 104.012 272.299 104.187 272.938 104.537C273.578 104.881 274.075 105.406 274.431 106.111C274.786 106.811 274.964 107.696 274.964 108.768V116.771H273.028V108.899C273.028 107.91 272.771 107.139 272.258 106.587C271.744 106.029 271.038 105.75 270.142 105.75C269.524 105.75 268.972 105.884 268.486 106.152C268.004 106.42 267.625 106.811 267.346 107.325C267.067 107.839 266.928 108.462 266.928 109.194ZM283.676 104.176V105.816H276.886V104.176H283.676ZM278.92 116.771V102.437C278.92 101.716 279.089 101.115 279.428 100.633C279.767 100.152 280.207 99.7916 280.748 99.5511C281.289 99.3105 281.861 99.1903 282.462 99.1903C282.938 99.1903 283.326 99.2285 283.626 99.3051C283.927 99.3816 284.151 99.4527 284.299 99.5183L283.741 101.191C283.643 101.158 283.506 101.117 283.331 101.068C283.162 101.019 282.938 100.994 282.659 100.994C282.019 100.994 281.557 101.156 281.273 101.478C280.994 101.801 280.855 102.273 280.855 102.897V116.771H278.92ZM290.553 117.033C289.416 117.033 288.418 116.763 287.56 116.222C286.707 115.68 286.04 114.923 285.559 113.95C285.084 112.977 284.846 111.84 284.846 110.539C284.846 109.227 285.084 108.082 285.559 107.103C286.04 106.125 286.707 105.365 287.56 104.824C288.418 104.282 289.416 104.012 290.553 104.012C291.69 104.012 292.685 104.282 293.538 104.824C294.396 105.365 295.063 106.125 295.538 107.103C296.02 108.082 296.26 109.227 296.26 110.539C296.26 111.84 296.02 112.977 295.538 113.95C295.063 114.923 294.396 115.68 293.538 116.222C292.685 116.763 291.69 117.033 290.553 117.033ZM290.553 115.295C291.417 115.295 292.127 115.074 292.685 114.631C293.242 114.188 293.655 113.606 293.923 112.884C294.191 112.163 294.325 111.381 294.325 110.539C294.325 109.697 294.191 108.913 293.923 108.186C293.655 107.459 293.242 106.871 292.685 106.423C292.127 105.974 291.417 105.75 290.553 105.75C289.689 105.75 288.978 105.974 288.421 106.423C287.863 106.871 287.451 107.459 287.183 108.186C286.915 108.913 286.781 109.697 286.781 110.539C286.781 111.381 286.915 112.163 287.183 112.884C287.451 113.606 287.863 114.188 288.421 114.631C288.978 115.074 289.689 115.295 290.553 115.295ZM298.781 116.771V104.176H300.651V106.078H300.782C301.012 105.455 301.427 104.949 302.028 104.561C302.63 104.173 303.308 103.979 304.062 103.979C304.204 103.979 304.382 103.982 304.595 103.987C304.808 103.993 304.969 104.001 305.079 104.012V105.98C305.013 105.963 304.863 105.939 304.628 105.906C304.398 105.868 304.155 105.849 303.898 105.849C303.286 105.849 302.739 105.977 302.258 106.234C301.782 106.486 301.405 106.835 301.126 107.284C300.853 107.726 300.716 108.232 300.716 108.801V116.771H298.781ZM306.94 116.771V104.176H308.809V106.144H308.973C309.236 105.471 309.659 104.949 310.244 104.578C310.829 104.2 311.532 104.012 312.352 104.012C313.183 104.012 313.874 104.2 314.426 104.578C314.984 104.949 315.418 105.471 315.73 106.144H315.861C316.184 105.493 316.668 104.977 317.313 104.594C317.958 104.206 318.731 104.012 319.633 104.012C320.759 104.012 321.68 104.364 322.397 105.07C323.113 105.769 323.471 106.86 323.471 108.341V116.771H321.536V108.341C321.536 107.412 321.281 106.748 320.773 106.349C320.265 105.95 319.666 105.75 318.977 105.75C318.092 105.75 317.406 106.018 316.919 106.554C316.433 107.084 316.189 107.757 316.189 108.571V116.771H314.221V108.145C314.221 107.429 313.989 106.852 313.524 106.414C313.06 105.972 312.461 105.75 311.728 105.75C311.226 105.75 310.755 105.884 310.318 106.152C309.886 106.42 309.536 106.792 309.268 107.267C309.006 107.737 308.875 108.281 308.875 108.899V116.771H306.94ZM330.283 117.066C329.484 117.066 328.76 116.916 328.11 116.615C327.459 116.309 326.942 115.869 326.56 115.295C326.177 114.716 325.986 114.016 325.986 113.196C325.986 112.474 326.128 111.889 326.412 111.441C326.696 110.987 327.076 110.632 327.552 110.375C328.028 110.118 328.552 109.927 329.126 109.801C329.706 109.67 330.288 109.566 330.873 109.489C331.638 109.391 332.259 109.317 332.734 109.268C333.215 109.213 333.565 109.123 333.784 108.997C334.008 108.872 334.12 108.653 334.12 108.341V108.276C334.12 107.467 333.899 106.838 333.456 106.39C333.019 105.942 332.354 105.717 331.463 105.717C330.539 105.717 329.815 105.92 329.29 106.324C328.766 106.729 328.397 107.161 328.183 107.62L326.347 106.964C326.675 106.199 327.112 105.603 327.659 105.176C328.211 104.744 328.812 104.444 329.463 104.274C330.119 104.099 330.764 104.012 331.398 104.012C331.802 104.012 332.267 104.061 332.792 104.159C333.322 104.252 333.833 104.446 334.325 104.742C334.823 105.037 335.235 105.482 335.563 106.078C335.891 106.674 336.055 107.472 336.055 108.473V116.771H334.12V115.065H334.022C333.891 115.339 333.672 115.631 333.366 115.943C333.06 116.254 332.652 116.52 332.144 116.738C331.636 116.957 331.015 117.066 330.283 117.066ZM330.578 115.328C331.343 115.328 331.988 115.177 332.513 114.877C333.043 114.576 333.442 114.188 333.71 113.712C333.983 113.237 334.12 112.737 334.12 112.212V110.441C334.038 110.539 333.858 110.629 333.579 110.711C333.306 110.788 332.989 110.856 332.628 110.916C332.272 110.971 331.925 111.02 331.586 111.064C331.253 111.102 330.982 111.135 330.775 111.162C330.272 111.228 329.801 111.334 329.364 111.482C328.932 111.624 328.582 111.84 328.315 112.13C328.052 112.414 327.921 112.802 327.921 113.294C327.921 113.967 328.17 114.475 328.667 114.819C329.17 115.158 329.807 115.328 330.578 115.328ZM344.632 104.176V105.816H338.105V104.176H344.632ZM340.007 101.158H341.942V113.163C341.942 113.71 342.022 114.12 342.18 114.393C342.344 114.661 342.552 114.841 342.803 114.934C343.06 115.022 343.331 115.065 343.615 115.065C343.828 115.065 344.003 115.054 344.14 115.033C344.277 115.005 344.386 114.983 344.468 114.967L344.862 116.705C344.73 116.755 344.547 116.804 344.312 116.853C344.077 116.908 343.779 116.935 343.418 116.935C342.872 116.935 342.336 116.817 341.811 116.582C341.292 116.347 340.86 115.989 340.516 115.508C340.177 115.027 340.007 114.42 340.007 113.688V101.158ZM347.11 116.771V104.176H349.045V116.771H347.11ZM348.094 102.077C347.717 102.077 347.392 101.948 347.118 101.691C346.85 101.434 346.716 101.125 346.716 100.765C346.716 100.404 346.85 100.095 347.118 99.8381C347.392 99.5811 347.717 99.4527 348.094 99.4527C348.471 99.4527 348.794 99.5811 349.062 99.8381C349.335 100.095 349.472 100.404 349.472 100.765C349.472 101.125 349.335 101.434 349.062 101.691C348.794 101.948 348.471 102.077 348.094 102.077ZM357.274 117.033C356.136 117.033 355.139 116.763 354.281 116.222C353.428 115.68 352.761 114.923 352.28 113.95C351.804 112.977 351.566 111.84 351.566 110.539C351.566 109.227 351.804 108.082 352.28 107.103C352.761 106.125 353.428 105.365 354.281 104.824C355.139 104.282 356.136 104.012 357.274 104.012C358.411 104.012 359.406 104.282 360.258 104.824C361.117 105.365 361.784 106.125 362.259 107.103C362.74 108.082 362.981 109.227 362.981 110.539C362.981 111.84 362.74 112.977 362.259 113.95C361.784 114.923 361.117 115.68 360.258 116.222C359.406 116.763 358.411 117.033 357.274 117.033ZM357.274 115.295C358.137 115.295 358.848 115.074 359.406 114.631C359.963 114.188 360.376 113.606 360.644 112.884C360.912 112.163 361.046 111.381 361.046 110.539C361.046 109.697 360.912 108.913 360.644 108.186C360.376 107.459 359.963 106.871 359.406 106.423C358.848 105.974 358.137 105.75 357.274 105.75C356.41 105.75 355.699 105.974 355.142 106.423C354.584 106.871 354.171 107.459 353.903 108.186C353.635 108.913 353.502 109.697 353.502 110.539C353.502 111.381 353.635 112.163 353.903 112.884C354.171 113.606 354.584 114.188 355.142 114.631C355.699 115.074 356.41 115.295 357.274 115.295ZM367.437 109.194V116.771H365.502V104.176H367.371V106.144H367.535C367.831 105.504 368.279 104.99 368.88 104.602C369.482 104.209 370.258 104.012 371.209 104.012C372.062 104.012 372.808 104.187 373.448 104.537C374.087 104.881 374.585 105.406 374.94 106.111C375.295 106.811 375.473 107.696 375.473 108.768V116.771H373.538V108.899C373.538 107.91 373.281 107.139 372.767 106.587C372.253 106.029 371.548 105.75 370.651 105.75C370.034 105.75 369.482 105.884 368.995 106.152C368.514 106.42 368.134 106.811 367.855 107.325C367.576 107.839 367.437 108.462 367.437 109.194Z" fill="#03171A" fill-opacity="0.7"/>
<rect x="86.5068" y="157.635" width="555.63" height="25.9775" fill="#F3F4F6"/>
<rect x="86.5068" y="212.476" width="555.63" height="25.9775" fill="#F3F4F6"/>
<rect x="86.5068" y="267.317" width="555.63" height="25.9775" fill="#F3F4F6"/>
<rect x="86.5068" y="322.159" width="555.63" height="25.9775" fill="#F3F4F6"/>
<rect x="86.5068" y="377" width="555.63" height="25.9775" fill="#F3F4F6"/>
<rect x="86.5068" y="431.842" width="264.104" height="25.9775" fill="#F3F4F6"/>
</g>
<g filter="url(#filter1_d_812_10221)">
<rect x="23" y="305" width="195.899" height="195.899" rx="18.6239" fill="white" shape-rendering="crispEdges"/>
<circle cx="120.949" cy="402.948" r="86.3096" fill="#F3FAF7"/>
<circle cx="121.588" cy="403.577" r="72.8923" fill="#DEF7EC"/>
<path d="M150.88 368.176L126.737 359.133C124.234 358.211 120.152 358.211 117.65 359.133L93.5064 368.176C88.8533 369.931 85.0781 375.375 85.0781 380.335V415.892C85.0781 419.447 87.4047 424.144 90.258 426.252L114.401 444.293C118.659 447.498 125.639 447.498 129.897 444.293L154.041 426.252C156.894 424.101 159.22 419.447 159.22 415.892V380.335C159.264 375.375 155.489 369.931 150.88 368.176ZM137.447 392.758L118.572 411.634C117.913 412.292 117.079 412.599 116.245 412.599C115.411 412.599 114.577 412.292 113.919 411.634L106.895 404.522C105.622 403.249 105.622 401.142 106.895 399.869C108.168 398.596 110.275 398.596 111.548 399.869L116.289 404.61L132.838 388.061C134.111 386.788 136.218 386.788 137.491 388.061C138.764 389.334 138.764 391.485 137.447 392.758Z" fill="#31C48D"/>
</g>
</g>
<defs>
<filter id="filter0_d_812_10221" x="41.6426" y="59.9072" width="629.357" height="442.776" filterUnits="userSpaceOnUse" color-interpolation-filters="sRGB">
<feFlood flood-opacity="0" result="BackgroundImageFix"/>
<feColorMatrix in="SourceAlpha" type="matrix" values="0 0 0 0 0 0 0 0 0 0 0 0 0 0 0 0 0 0 127 0" result="hardAlpha"/>
<feOffset dx="-16" dy="16"/>
<feComposite in2="hardAlpha" operator="out"/>
<feColorMatrix type="matrix" values="0 0 0 0 0.25098 0 0 0 0 0.482353 0 0 0 0 1 0 0 0 0.04 0"/>
<feBlend mode="normal" in2="BackgroundImageFix" result="effect1_dropShadow_812_10221"/>
<feBlend mode="normal" in="SourceGraphic" in2="effect1_dropShadow_812_10221" result="shape"/>
</filter>
<filter id="filter1_d_812_10221" x="23" y="305" width="228.957" height="233.612" filterUnits="userSpaceOnUse" color-interpolation-filters="sRGB">
<feFlood flood-opacity="0" result="BackgroundImageFix"/>
<feColorMatrix in="SourceAlpha" type="matrix" values="0 0 0 0 0 0 0 0 0 0 0 0 0 0 0 0 0 0 127 0" result="hardAlpha"/>
<feOffset dx="20.9519" dy="25.6078"/>
<feGaussianBlur stdDeviation="6.05276"/>
<feComposite in2="hardAlpha" operator="out"/>
<feColorMatrix type="matrix" values="0 0 0 0 0 0 0 0 0 0 0 0 0 0 0 0 0 0 0.05 0"/>
<feBlend mode="normal" in2="BackgroundImageFix" result="effect1_dropShadow_812_10221"/>
<feBlend mode="normal" in="SourceGraphic" in2="effect1_dropShadow_812_10221" result="shape"/>
</filter>
<clipPath id="clip0_812_10221">
<rect width="629" height="541" rx="16" fill="white"/>
</clipPath>
</defs>
</svg>
