<svg width="63" height="62" viewBox="0 0 63 62" fill="none" xmlns="http://www.w3.org/2000/svg">
<rect x="15.6953" y="0.606079" width="48" height="48" rx="10" transform="rotate(15 15.6953 0.606079)" fill="#0245D8"/>
<g filter="url(#filter0_b_1460_5916)">
<rect x="0.666016" y="14" width="48" height="48" rx="10" fill="white" fill-opacity="0.6"/>
<rect x="1.16602" y="14.5" width="47" height="47" rx="9.5" stroke="white" stroke-opacity="0.6"/>
<path d="M18.7604 37.2288C18.6982 36.8282 18.666 36.4179 18.666 36C18.666 31.5817 22.2713 28 26.7186 28C31.166 28 34.7712 31.5817 34.7712 36C34.7712 36.9981 34.5873 37.9535 34.2512 38.8345C34.1814 39.0175 34.1465 39.109 34.1306 39.1804C34.1149 39.2512 34.1089 39.301 34.1071 39.3735C34.1054 39.4466 34.1153 39.5272 34.1352 39.6883L34.5378 42.9585C34.5813 43.3125 34.6031 43.4895 34.5442 43.6182C34.4927 43.731 34.401 43.8205 34.2871 43.8695C34.1571 43.9254 33.9806 43.8995 33.6277 43.8478L30.4425 43.3809C30.2762 43.3565 30.193 43.3443 30.1173 43.3448C30.0423 43.3452 29.9905 43.3507 29.9172 43.3661C29.8431 43.3817 29.7484 43.4172 29.559 43.4881C28.6757 43.819 27.7184 44 26.7186 44C26.3004 44 25.8897 43.9683 25.4887 43.9073M20.2976 48C23.2625 48 25.666 45.5376 25.666 42.5C25.666 39.4624 23.2625 37 20.2976 37C17.3327 37 14.9292 39.4624 14.9292 42.5C14.9292 43.1106 15.0263 43.6979 15.2056 44.2467C15.2813 44.4787 15.3192 44.5947 15.3317 44.6739C15.3447 44.7567 15.3469 44.8031 15.3421 44.8867C15.3375 44.9668 15.3174 45.0573 15.2774 45.2383L14.666 48L17.6608 47.591C17.8243 47.5687 17.906 47.5575 17.9774 47.558C18.0525 47.5585 18.0924 47.5626 18.1661 47.5773C18.2361 47.5912 18.3402 47.6279 18.5483 47.7014C19.0966 47.8949 19.6851 48 20.2976 48Z" stroke="white" stroke-width="2" stroke-linecap="round" stroke-linejoin="round"/>
</g>
<defs>
<filter id="filter0_b_1460_5916" x="-15.334" y="-2" width="80" height="80" filterUnits="userSpaceOnUse" color-interpolation-filters="sRGB">
<feFlood flood-opacity="0" result="BackgroundImageFix"/>
<feGaussianBlur in="BackgroundImageFix" stdDeviation="8"/>
<feComposite in2="SourceAlpha" operator="in" result="effect1_backgroundBlur_1460_5916"/>
<feBlend mode="normal" in="SourceGraphic" in2="effect1_backgroundBlur_1460_5916" result="shape"/>
</filter>
</defs>
</svg>
