<svg width="62" height="62" viewBox="0 0 62 62" fill="none" xmlns="http://www.w3.org/2000/svg">
<rect x="15.0293" y="0.606079" width="48" height="48" rx="10" transform="rotate(15 15.0293 0.606079)" fill="#0245D8"/>
<g filter="url(#filter0_b_838_13239)">
<rect y="14" width="48" height="48" rx="10" fill="white" fill-opacity="0.6"/>
<rect x="0.5" y="14.5" width="47" height="47" rx="9.5" stroke="white" stroke-opacity="0.6"/>
<path d="M24 41.75C21.93 41.75 20.25 40.07 20.25 38C20.25 35.93 21.93 34.25 24 34.25C26.07 34.25 27.75 35.93 27.75 38C27.75 40.07 26.07 41.75 24 41.75ZM24 35.75C22.76 35.75 21.75 36.76 21.75 38C21.75 39.24 22.76 40.25 24 40.25C25.24 40.25 26.25 39.24 26.25 38C26.25 36.76 25.24 35.75 24 35.75Z" fill="white"/>
<path d="M27.21 48.19C27 48.19 26.79 48.16 26.58 48.11C25.96 47.94 25.44 47.55 25.11 47L24.99 46.8C24.4 45.78 23.59 45.78 23 46.8L22.89 46.99C22.56 47.55 22.04 47.95 21.42 48.11C20.79 48.28 20.14 48.19 19.59 47.86L17.87 46.87C17.26 46.52 16.82 45.95 16.63 45.26C16.45 44.57 16.54 43.86 16.89 43.25C17.18 42.74 17.26 42.28 17.09 41.99C16.92 41.7 16.49 41.53 15.9 41.53C14.44 41.53 13.25 40.34 13.25 38.88V37.12C13.25 35.66 14.44 34.47 15.9 34.47C16.49 34.47 16.92 34.3 17.09 34.01C17.26 33.72 17.19 33.26 16.89 32.75C16.54 32.14 16.45 31.42 16.63 30.74C16.81 30.05 17.25 29.48 17.87 29.13L19.6 28.14C20.73 27.47 22.22 27.86 22.9 29.01L23.02 29.21C23.61 30.23 24.42 30.23 25.01 29.21L25.12 29.02C25.8 27.86 27.29 27.47 28.43 28.15L30.15 29.14C30.76 29.49 31.2 30.06 31.39 30.75C31.57 31.44 31.48 32.15 31.13 32.76C30.84 33.27 30.76 33.73 30.93 34.02C31.1 34.31 31.53 34.48 32.12 34.48C33.58 34.48 34.77 35.67 34.77 37.13V38.89C34.77 40.35 33.58 41.54 32.12 41.54C31.53 41.54 31.1 41.71 30.93 42C30.76 42.29 30.83 42.75 31.13 43.26C31.48 43.87 31.58 44.59 31.39 45.27C31.21 45.96 30.77 46.53 30.15 46.88L28.42 47.87C28.04 48.08 27.63 48.19 27.21 48.19ZM24 44.49C24.89 44.49 25.72 45.05 26.29 46.04L26.4 46.23C26.52 46.44 26.72 46.59 26.96 46.65C27.2 46.71 27.44 46.68 27.64 46.56L29.37 45.56C29.63 45.41 29.83 45.16 29.91 44.86C29.99 44.56 29.95 44.25 29.8 43.99C29.23 43.01 29.16 42 29.6 41.23C30.04 40.46 30.95 40.02 32.09 40.02C32.73 40.02 33.24 39.51 33.24 38.87V37.11C33.24 36.48 32.73 35.96 32.09 35.96C30.95 35.96 30.04 35.52 29.6 34.75C29.16 33.98 29.23 32.97 29.8 31.99C29.95 31.73 29.99 31.42 29.91 31.12C29.83 30.82 29.64 30.58 29.38 30.42L27.65 29.43C27.22 29.17 26.65 29.32 26.39 29.76L26.28 29.95C25.71 30.94 24.88 31.5 23.99 31.5C23.1 31.5 22.27 30.94 21.7 29.95L21.59 29.75C21.34 29.33 20.78 29.18 20.35 29.43L18.62 30.43C18.36 30.58 18.16 30.83 18.08 31.13C18 31.43 18.04 31.74 18.19 32C18.76 32.98 18.83 33.99 18.39 34.76C17.95 35.53 17.04 35.97 15.9 35.97C15.26 35.97 14.75 36.48 14.75 37.12V38.88C14.75 39.51 15.26 40.03 15.9 40.03C17.04 40.03 17.95 40.47 18.39 41.24C18.83 42.01 18.76 43.02 18.19 44C18.04 44.26 18 44.57 18.08 44.87C18.16 45.17 18.35 45.41 18.61 45.57L20.34 46.56C20.55 46.69 20.8 46.72 21.03 46.66C21.27 46.6 21.47 46.44 21.6 46.23L21.71 46.04C22.28 45.06 23.11 44.49 24 44.49Z" fill="white"/>
</g>
<defs>
<filter id="filter0_b_838_13239" x="-16" y="-2" width="80" height="80" filterUnits="userSpaceOnUse" color-interpolation-filters="sRGB">
<feFlood flood-opacity="0" result="BackgroundImageFix"/>
<feGaussianBlur in="BackgroundImageFix" stdDeviation="8"/>
<feComposite in2="SourceAlpha" operator="in" result="effect1_backgroundBlur_838_13239"/>
<feBlend mode="normal" in="SourceGraphic" in2="effect1_backgroundBlur_838_13239" result="shape"/>
</filter>
</defs>
</svg>
