<svg width="62" height="62" viewBox="0 0 62 62" fill="none" xmlns="http://www.w3.org/2000/svg">
<rect x="15.0295" y="0.10611" width="48" height="48" rx="8" transform="rotate(15 15.0295 0.10611)" fill="#0D58FD"/>
<g filter="url(#filter0_b_774_17392)">
<rect y="13.5" width="48" height="48" rx="8" fill="white" fill-opacity="0.6"/>
<rect x="0.5" y="14" width="47" height="47" rx="7.5" stroke="white" stroke-opacity="0.6"/>
<path d="M29.9606 38.2518H26.6406C24.1506 38.2518 22.8906 36.8418 22.8906 34.0518V31.1818C22.8906 30.1618 23.0106 28.7018 24.0706 27.9018C24.9606 27.2418 26.2406 27.1918 28.1306 27.7418C30.6106 28.4618 32.6806 30.5318 33.4006 33.0118C33.9506 34.8918 33.9006 36.1818 33.2406 37.0618C32.4406 38.1318 30.9806 38.2518 29.9606 38.2518ZM25.9206 28.8618C25.5106 28.8618 25.1906 28.9418 24.9806 29.1018C24.5906 29.3918 24.4006 30.0718 24.4006 31.1818V34.0618C24.4006 36.3018 25.2606 36.7618 26.6506 36.7618H29.9706C31.0706 36.7618 31.7506 36.5718 32.0506 36.1818C32.4006 35.7218 32.3706 34.8018 31.9806 33.4518C31.4006 31.4818 29.7006 29.7718 27.7306 29.2018C26.9906 28.9718 26.3906 28.8618 25.9206 28.8618Z" fill="white"/>
<path d="M22.711 48.2497C22.181 48.2497 21.641 48.2097 21.101 48.1197C17.011 47.4597 13.681 44.1397 13.021 40.0497C12.171 34.7897 15.561 29.8297 20.751 28.7697C21.161 28.6897 21.551 28.9497 21.641 29.3497C21.721 29.7597 21.461 30.1497 21.061 30.2397C16.671 31.1397 13.791 35.3397 14.521 39.8097C15.081 43.2697 17.891 46.0797 21.351 46.6397C25.841 47.3597 30.031 44.4697 30.921 40.0597C31.001 39.6497 31.401 39.3897 31.801 39.4697C32.211 39.5497 32.471 39.9497 32.391 40.3497C31.441 45.0197 27.361 48.2497 22.711 48.2497Z" fill="white"/>
</g>
<defs>
<filter id="filter0_b_774_17392" x="-16" y="-2.5" width="80" height="80" filterUnits="userSpaceOnUse" color-interpolation-filters="sRGB">
<feFlood flood-opacity="0" result="BackgroundImageFix"/>
<feGaussianBlur in="BackgroundImageFix" stdDeviation="8"/>
<feComposite in2="SourceAlpha" operator="in" result="effect1_backgroundBlur_774_17392"/>
<feBlend mode="normal" in="SourceGraphic" in2="effect1_backgroundBlur_774_17392" result="shape"/>
</filter>
</defs>
</svg>
