<svg width="620" height="412" viewBox="0 0 620 412" fill="none" xmlns="http://www.w3.org/2000/svg">
<rect width="620" height="412" rx="16" fill="#F4F7FE"/>
<g filter="url(#filter0_d_774_17413)">
<g clip-path="url(#clip0_774_17413)">
<rect x="96.5" y="37.2977" width="427" height="320" rx="5.62777" fill="url(#paint0_linear_774_17413)"/>
<path d="M57.6186 230.778C49.0691 234.156 42.6569 235.469 40.5195 235.703L45.8875 386.971H623.707L643.262 159.014C634.475 166.519 613.481 180.684 599.802 177.307C582.703 173.086 563.466 173.789 550.642 177.307C537.818 180.825 529.981 185.75 515.731 186.454C501.482 187.157 505.757 183.639 483.671 181.529C461.584 179.418 452.322 199.821 441.635 205.45C430.948 211.079 403.875 209.671 393.9 205.45C383.926 201.229 375.376 199.821 367.539 199.821C359.702 199.821 359.702 204.746 348.303 205.45C336.904 206.154 325.504 199.118 309.83 199.821C294.156 200.525 272.782 213.893 256.395 214.596C240.009 215.3 249.983 211.079 226.472 209.671C202.961 208.264 184.437 226.557 169.475 230.778C154.513 235 132.427 225.853 120.315 223.039C108.203 220.225 96.804 230.778 87.542 230.778C78.28 230.778 68.3055 226.557 57.6186 230.778Z" fill="#EEF2FF" fill-opacity="0.5" stroke="#4F46E5" stroke-width="1.40694"/>
<mask id="mask0_774_17413" style="mask-type:alpha" maskUnits="userSpaceOnUse" x="58" y="183" width="575" height="134">
<rect x="58.9302" y="183.639" width="573.602" height="132.974" fill="white"/>
</mask>
<g mask="url(#mask0_774_17413)">
<path d="M57.6186 283.545C49.0691 286.922 42.6569 288.235 40.5195 288.47V317.316H643.262V211.781C634.475 219.286 613.481 233.451 599.802 230.074C582.703 225.852 563.466 226.556 550.642 230.074C537.818 233.592 529.981 238.517 515.731 239.22C501.482 239.924 505.757 236.406 483.671 234.295C461.584 232.185 452.322 252.588 441.635 258.217C430.948 263.845 403.875 262.438 393.9 258.217C383.926 253.995 375.376 252.588 367.539 252.588C359.702 252.588 359.702 257.513 348.303 258.217C336.904 258.92 325.504 251.884 309.83 252.588C294.156 253.292 272.782 266.659 256.395 267.363C240.009 268.067 249.983 263.845 226.472 262.438C202.961 261.031 184.437 279.324 169.475 283.545C154.513 287.766 132.427 278.62 120.315 275.806C108.203 272.992 96.804 283.545 87.542 283.545C78.28 283.545 68.3055 279.324 57.6186 283.545Z" fill="#EEF2FF" fill-opacity="0.5" stroke="#4F46E5" stroke-width="1.40694"/>
<path d="M57.6186 265.929C49.0691 269.801 42.6569 271.307 40.5195 271.576L44.3538 395.413L622.94 377.472L643.262 183.639C634.475 192.245 613.481 208.487 599.802 204.615C582.703 199.774 563.466 200.581 550.642 204.615C537.818 208.649 529.981 214.296 515.731 215.103C501.482 215.91 505.757 211.876 483.671 209.456C461.584 207.035 452.322 230.431 441.635 236.885C430.948 243.339 403.875 241.726 393.9 236.885C383.926 232.045 375.376 230.431 367.539 230.431C359.702 230.431 359.702 236.079 348.303 236.885C336.904 237.692 325.504 229.625 309.83 230.431C294.156 231.238 272.782 246.567 256.395 247.373C240.009 248.18 249.983 243.339 226.472 241.726C202.961 240.112 184.437 261.088 169.475 265.929C154.513 270.769 132.427 260.281 120.315 257.054C108.203 253.827 96.804 265.929 87.542 265.929C78.28 265.929 68.3055 261.088 57.6186 265.929Z" fill="#EEF2FF" fill-opacity="0.5" stroke="#4F46E5" stroke-width="1.40694"/>
<path d="M1.05857 302.19H-23.8994V321.539H638.657V251.182C637.877 253.527 636.239 258.569 635.927 259.976C635.537 261.735 628.518 266.308 625.008 264.198C621.499 262.087 614.089 261.735 610.19 262.791C606.29 263.846 607.07 261.735 599.66 259.976C592.251 258.217 589.911 263.846 586.011 264.901C582.112 265.957 576.262 263.846 573.532 261.735L573.415 261.645C570.702 259.545 567.154 256.8 557.544 256.107C547.794 255.403 545.845 266.308 541.945 270.178C538.045 274.048 529.076 271.937 526.736 271.233C524.396 270.53 522.447 268.067 515.037 270.178C507.628 272.289 500.608 279.676 491.639 280.028C482.67 280.38 474.87 274.751 468.631 274.751C462.391 274.751 464.341 275.807 455.762 277.565C447.183 279.324 432.364 274.751 427.294 272.992C422.225 271.233 415.595 272.992 412.085 274.751C408.576 276.51 396.097 276.862 392.587 275.807C389.077 274.751 378.938 272.289 376.598 274.751C374.258 277.214 363.729 272.992 360.61 272.992C357.49 272.992 359.05 270.53 350.86 269.123C342.671 267.715 337.211 274.751 334.872 275.807C332.532 276.862 328.242 275.103 324.342 272.992C320.443 270.882 304.454 268.771 295.095 270.53C285.736 272.289 284.956 277.565 278.716 278.269C272.477 278.973 269.747 283.898 266.627 283.898C263.507 283.898 261.558 283.898 258.828 282.49C256.098 281.083 249.469 282.49 246.739 283.898C244.009 285.305 239.329 286.008 233.87 286.36C228.41 286.712 225.29 283.546 221.001 282.49C216.711 281.435 210.862 280.732 199.943 281.083C189.023 281.435 189.413 287.767 178.104 290.23C166.795 292.692 158.606 289.526 150.807 288.471C143.007 287.415 136.378 292.34 132.868 294.099C129.358 295.858 121.559 294.099 113.759 292.34C105.96 290.582 102.84 294.099 101.67 294.099C100.501 294.099 95.041 298.673 88.8015 294.099C82.562 289.526 79.8322 290.933 77.4924 290.933C75.1526 290.933 73.5927 293.396 70.083 292.34C66.5733 291.285 66.5733 288.119 60.7238 288.471C54.8742 288.823 50.5846 296.21 48.6347 297.265C46.6849 298.321 42.3952 299.728 39.2755 300.08C36.1557 300.431 36.1557 298.673 26.7965 297.969C17.4373 297.265 11.9777 302.19 1.05857 302.19Z" fill="white" fill-opacity="0.04" stroke="#818CF8" stroke-width="1.40694"/>
</g>
<path d="M112.183 340.983V334.17H113.006L115.558 337.801H115.137L117.67 334.17H118.493V340.983H117.588V335.304L117.908 335.405L115.375 338.971H115.302L112.796 335.405L113.079 335.304V340.983H112.183ZM121.351 341.093C121.028 341.093 120.741 341.035 120.491 340.919C120.247 340.797 120.055 340.632 119.915 340.425C119.775 340.212 119.705 339.968 119.705 339.694C119.705 339.431 119.76 339.197 119.869 338.989C119.985 338.776 120.162 338.596 120.4 338.45C120.644 338.304 120.949 338.2 121.314 338.139L123.143 337.837V338.55L121.506 338.825C121.189 338.88 120.958 338.98 120.811 339.127C120.671 339.273 120.601 339.453 120.601 339.666C120.601 339.867 120.68 340.035 120.839 340.169C121.003 340.303 121.208 340.37 121.452 340.37C121.762 340.37 122.031 340.306 122.256 340.178C122.488 340.044 122.668 339.864 122.796 339.639C122.93 339.413 122.997 339.163 122.997 338.889V337.636C122.997 337.368 122.896 337.151 122.695 336.987C122.5 336.816 122.241 336.731 121.918 336.731C121.637 336.731 121.388 336.804 121.168 336.95C120.955 337.09 120.796 337.279 120.692 337.517L119.952 337.133C120.043 336.907 120.19 336.706 120.391 336.529C120.592 336.346 120.827 336.203 121.095 336.1C121.363 335.996 121.644 335.944 121.936 335.944C122.314 335.944 122.647 336.017 122.933 336.164C123.22 336.304 123.442 336.502 123.601 336.758C123.765 337.008 123.848 337.301 123.848 337.636V340.983H123.015V340.05L123.171 340.105C123.067 340.3 122.927 340.471 122.75 340.617C122.573 340.764 122.366 340.879 122.128 340.965C121.891 341.05 121.631 341.093 121.351 341.093ZM125.166 340.983V336.054H125.998V336.959L125.907 336.831C126.023 336.551 126.2 336.343 126.437 336.209C126.675 336.069 126.965 335.999 127.306 335.999H127.608V336.804H127.178C126.831 336.804 126.55 336.913 126.337 337.133C126.123 337.346 126.017 337.651 126.017 338.047V340.983H125.166Z" fill="#52525B"/>
<path d="M162.001 340.983L164.443 334.17H165.504L167.946 340.983H166.986L166.428 339.383H163.52L162.962 340.983H162.001ZM163.803 338.56H166.144L164.846 334.819H165.102L163.803 338.56ZM168.704 342.812V336.054H169.536V337.115L169.426 336.904C169.609 336.612 169.859 336.38 170.176 336.209C170.493 336.032 170.856 335.944 171.264 335.944C171.728 335.944 172.142 336.057 172.508 336.282C172.88 336.508 173.173 336.816 173.386 337.206C173.599 337.59 173.706 338.029 173.706 338.523C173.706 339.005 173.599 339.441 173.386 339.831C173.173 340.221 172.88 340.529 172.508 340.754C172.142 340.98 171.725 341.093 171.255 341.093C170.859 341.093 170.496 341.004 170.167 340.828C169.844 340.651 169.594 340.401 169.417 340.078L169.554 339.931V342.812H168.704ZM171.191 340.27C171.502 340.27 171.779 340.194 172.023 340.041C172.267 339.889 172.456 339.681 172.59 339.419C172.731 339.151 172.801 338.852 172.801 338.523C172.801 338.182 172.731 337.883 172.59 337.627C172.456 337.365 172.267 337.157 172.023 337.005C171.779 336.846 171.502 336.767 171.191 336.767C170.88 336.767 170.6 336.843 170.35 336.996C170.106 337.148 169.911 337.359 169.764 337.627C169.624 337.889 169.554 338.188 169.554 338.523C169.554 338.852 169.624 339.151 169.764 339.419C169.911 339.681 170.106 339.889 170.35 340.041C170.6 340.194 170.88 340.27 171.191 340.27ZM174.821 340.983V336.054H175.653V336.959L175.562 336.831C175.678 336.551 175.855 336.343 176.092 336.209C176.33 336.069 176.62 335.999 176.961 335.999H177.263V336.804H176.833C176.486 336.804 176.205 336.913 175.992 337.133C175.778 337.346 175.672 337.651 175.672 338.047V340.983H174.821Z" fill="#52525B"/>
<path d="M212.032 340.983V334.17H212.855L215.407 337.801H214.986L217.519 334.17H218.342V340.983H217.437V335.304L217.757 335.405L215.224 338.971H215.151L212.645 335.405L212.928 335.304V340.983H212.032ZM221.2 341.093C220.877 341.093 220.59 341.035 220.34 340.919C220.096 340.797 219.904 340.632 219.764 340.425C219.624 340.212 219.554 339.968 219.554 339.694C219.554 339.431 219.608 339.197 219.718 338.989C219.834 338.776 220.011 338.596 220.249 338.45C220.493 338.304 220.797 338.2 221.163 338.139L222.992 337.837V338.55L221.355 338.825C221.038 338.88 220.806 338.98 220.66 339.127C220.52 339.273 220.45 339.453 220.45 339.666C220.45 339.867 220.529 340.035 220.688 340.169C220.852 340.303 221.056 340.37 221.3 340.37C221.611 340.37 221.88 340.306 222.105 340.178C222.337 340.044 222.517 339.864 222.645 339.639C222.779 339.413 222.846 339.163 222.846 338.889V337.636C222.846 337.368 222.745 337.151 222.544 336.987C222.349 336.816 222.09 336.731 221.767 336.731C221.486 336.731 221.236 336.804 221.017 336.95C220.803 337.09 220.645 337.279 220.541 337.517L219.801 337.133C219.892 336.907 220.038 336.706 220.24 336.529C220.441 336.346 220.675 336.203 220.944 336.1C221.212 335.996 221.492 335.944 221.785 335.944C222.163 335.944 222.495 336.017 222.782 336.164C223.068 336.304 223.291 336.502 223.449 336.758C223.614 337.008 223.696 337.301 223.696 337.636V340.983H222.864V340.05L223.02 340.105C222.916 340.3 222.776 340.471 222.599 340.617C222.422 340.764 222.215 340.879 221.977 340.965C221.739 341.05 221.48 341.093 221.2 341.093ZM225.28 342.995C225.171 342.995 225.061 342.986 224.951 342.968C224.841 342.955 224.738 342.928 224.64 342.885V342.126C224.707 342.132 224.789 342.144 224.887 342.163C224.991 342.181 225.091 342.19 225.189 342.19C225.475 342.19 225.692 342.126 225.838 341.998C225.991 341.87 226.134 341.654 226.268 341.349L226.579 340.608L226.561 341.349L224.457 336.054H225.381L227.018 340.261H226.743L228.371 336.054H229.313L227.091 341.568C226.987 341.83 226.853 342.071 226.689 342.291C226.53 342.51 226.335 342.681 226.103 342.803C225.872 342.931 225.597 342.995 225.28 342.995Z" fill="#52525B"/>
<path d="M263.705 340.983V340.114H264.08C264.403 340.114 264.659 340.02 264.848 339.831C265.037 339.636 265.131 339.373 265.131 339.044V334.17H266.037V339.026C266.037 339.422 265.955 339.767 265.79 340.059C265.631 340.352 265.406 340.581 265.113 340.745C264.821 340.904 264.476 340.983 264.08 340.983H263.705ZM269.18 341.093C268.827 341.093 268.507 341.01 268.22 340.846C267.94 340.681 267.72 340.453 267.562 340.16C267.409 339.861 267.333 339.52 267.333 339.136V336.054H268.184V339.044C268.184 339.288 268.232 339.502 268.33 339.684C268.434 339.867 268.574 340.011 268.751 340.114C268.934 340.218 269.141 340.27 269.372 340.27C269.604 340.27 269.808 340.218 269.985 340.114C270.168 340.011 270.308 339.861 270.406 339.666C270.51 339.471 270.561 339.239 270.561 338.971V336.054H271.421V340.983H270.589V340.023L270.726 340.105C270.61 340.416 270.412 340.66 270.132 340.837C269.857 341.007 269.54 341.093 269.18 341.093ZM272.739 340.983V336.054H273.571V337.014L273.434 336.932C273.556 336.621 273.751 336.38 274.019 336.209C274.293 336.032 274.613 335.944 274.979 335.944C275.333 335.944 275.647 336.023 275.921 336.182C276.202 336.34 276.421 336.56 276.58 336.84C276.744 337.121 276.826 337.438 276.826 337.791V340.983H275.967V338.066C275.967 337.791 275.918 337.56 275.82 337.371C275.723 337.182 275.583 337.035 275.4 336.932C275.223 336.822 275.019 336.767 274.787 336.767C274.555 336.767 274.348 336.822 274.165 336.932C273.988 337.035 273.848 337.185 273.745 337.38C273.641 337.569 273.589 337.797 273.589 338.066V340.983H272.739Z" fill="#52525B"/>
<path d="M310.412 340.983V340.114H310.787C311.11 340.114 311.366 340.02 311.555 339.831C311.744 339.636 311.839 339.373 311.839 339.044V334.17H312.744V339.026C312.744 339.422 312.662 339.767 312.497 340.059C312.339 340.352 312.113 340.581 311.821 340.745C311.528 340.904 311.183 340.983 310.787 340.983H310.412ZM315.888 341.093C315.534 341.093 315.214 341.01 314.928 340.846C314.647 340.681 314.428 340.453 314.269 340.16C314.117 339.861 314.04 339.52 314.04 339.136V336.054H314.891V339.044C314.891 339.288 314.94 339.502 315.037 339.684C315.141 339.867 315.281 340.011 315.458 340.114C315.641 340.218 315.848 340.27 316.08 340.27C316.312 340.27 316.516 340.218 316.693 340.114C316.875 340.011 317.016 339.861 317.113 339.666C317.217 339.471 317.269 339.239 317.269 338.971V336.054H318.128V340.983H317.296V340.023L317.433 340.105C317.317 340.416 317.119 340.66 316.839 340.837C316.565 341.007 316.247 341.093 315.888 341.093ZM319.446 340.983V334.06H320.296V340.983H319.446Z" fill="#52525B"/>
<path d="M354.607 340.983L357.049 334.17H358.11L360.551 340.983H359.591L359.033 339.383H356.125L355.567 340.983H354.607ZM356.409 338.56H358.75L357.451 334.819H357.707L356.409 338.56ZM362.967 341.093C362.613 341.093 362.293 341.01 362.006 340.846C361.726 340.681 361.506 340.453 361.348 340.16C361.195 339.861 361.119 339.52 361.119 339.136V336.054H361.97V339.044C361.97 339.288 362.019 339.502 362.116 339.684C362.22 339.867 362.36 340.011 362.537 340.114C362.72 340.218 362.927 340.27 363.159 340.27C363.39 340.27 363.595 340.218 363.771 340.114C363.954 340.011 364.094 339.861 364.192 339.666C364.296 339.471 364.348 339.239 364.348 338.971V336.054H365.207V340.983H364.375V340.023L364.512 340.105C364.396 340.416 364.198 340.66 363.918 340.837C363.643 341.007 363.326 341.093 362.967 341.093ZM368.875 342.995C368.528 342.995 368.204 342.94 367.906 342.83C367.613 342.721 367.36 342.568 367.147 342.373C366.939 342.184 366.781 341.962 366.671 341.705L367.467 341.34C367.552 341.571 367.714 341.766 367.951 341.925C368.195 342.09 368.5 342.172 368.866 342.172C369.146 342.172 369.399 342.117 369.625 342.007C369.857 341.904 370.04 341.745 370.174 341.532C370.308 341.324 370.375 341.071 370.375 340.773V339.666L370.53 339.831C370.36 340.166 370.113 340.422 369.79 340.599C369.473 340.776 369.122 340.864 368.738 340.864C368.275 340.864 367.86 340.757 367.494 340.544C367.128 340.325 366.842 340.029 366.635 339.657C366.427 339.279 366.324 338.861 366.324 338.404C366.324 337.941 366.427 337.523 366.635 337.151C366.842 336.779 367.125 336.487 367.485 336.273C367.851 336.054 368.265 335.944 368.729 335.944C369.113 335.944 369.46 336.032 369.771 336.209C370.088 336.38 370.341 336.618 370.53 336.923L370.402 337.151V336.054H371.235V340.773C371.235 341.199 371.134 341.581 370.933 341.916C370.732 342.251 370.451 342.513 370.091 342.702C369.738 342.897 369.332 342.995 368.875 342.995ZM368.811 340.041C369.104 340.041 369.366 339.968 369.598 339.822C369.835 339.675 370.024 339.48 370.165 339.236C370.305 338.986 370.375 338.709 370.375 338.404C370.375 338.105 370.305 337.831 370.165 337.581C370.024 337.331 369.835 337.133 369.598 336.987C369.366 336.84 369.104 336.767 368.811 336.767C368.512 336.767 368.241 336.84 367.997 336.987C367.753 337.133 367.561 337.331 367.421 337.581C367.287 337.825 367.22 338.099 367.22 338.404C367.22 338.709 367.287 338.986 367.421 339.236C367.561 339.48 367.75 339.675 367.988 339.822C368.232 339.968 368.506 340.041 368.811 340.041Z" fill="#52525B"/>
<path d="M408.864 341.093C408.431 341.093 408.035 341.014 407.675 340.855C407.316 340.69 407.011 340.468 406.761 340.187C406.511 339.907 406.331 339.593 406.221 339.245L406.999 338.925C407.163 339.364 407.407 339.703 407.73 339.94C408.06 340.172 408.444 340.288 408.883 340.288C409.151 340.288 409.386 340.245 409.587 340.16C409.788 340.075 409.943 339.956 410.053 339.803C410.169 339.645 410.227 339.462 410.227 339.255C410.227 338.968 410.145 338.742 409.98 338.578C409.821 338.407 409.587 338.279 409.276 338.194L408.023 337.81C407.529 337.657 407.151 337.416 406.889 337.087C406.627 336.758 406.496 336.38 406.496 335.953C406.496 335.581 406.584 335.255 406.761 334.975C406.944 334.688 407.194 334.466 407.511 334.307C407.834 334.142 408.2 334.06 408.608 334.06C409.017 334.06 409.386 334.133 409.715 334.28C410.05 334.426 410.334 334.624 410.565 334.874C410.797 335.118 410.968 335.398 411.077 335.715L410.309 336.036C410.163 335.651 409.943 335.362 409.651 335.167C409.358 334.966 409.014 334.865 408.617 334.865C408.373 334.865 408.157 334.908 407.968 334.993C407.785 335.072 407.642 335.191 407.538 335.35C407.441 335.502 407.392 335.685 407.392 335.898C407.392 336.148 407.471 336.371 407.63 336.566C407.788 336.761 408.029 336.91 408.352 337.014L409.495 337.352C410.032 337.517 410.437 337.752 410.712 338.057C410.986 338.361 411.123 338.739 411.123 339.191C411.123 339.562 411.026 339.892 410.83 340.178C410.641 340.465 410.376 340.69 410.035 340.855C409.7 341.014 409.309 341.093 408.864 341.093ZM414.603 341.093C414.127 341.093 413.703 340.98 413.332 340.754C412.96 340.529 412.667 340.221 412.454 339.831C412.24 339.434 412.134 338.992 412.134 338.505C412.134 338.011 412.237 337.572 412.444 337.188C412.658 336.804 412.944 336.502 413.304 336.282C413.67 336.057 414.078 335.944 414.53 335.944C414.895 335.944 415.218 336.011 415.499 336.145C415.785 336.273 416.026 336.45 416.221 336.676C416.423 336.895 416.575 337.148 416.679 337.435C416.788 337.715 416.843 338.008 416.843 338.313C416.843 338.38 416.837 338.456 416.825 338.541C416.819 338.621 416.81 338.697 416.798 338.77H412.755V338.038H416.304L415.901 338.368C415.956 338.05 415.926 337.767 415.81 337.517C415.694 337.267 415.523 337.069 415.298 336.923C415.072 336.776 414.816 336.703 414.53 336.703C414.243 336.703 413.981 336.776 413.743 336.923C413.505 337.069 413.319 337.279 413.185 337.554C413.057 337.822 413.005 338.142 413.03 338.514C413.005 338.874 413.06 339.191 413.194 339.465C413.335 339.733 413.53 339.944 413.78 340.096C414.036 340.242 414.313 340.315 414.612 340.315C414.941 340.315 415.218 340.239 415.444 340.087C415.67 339.934 415.853 339.739 415.993 339.502L416.706 339.867C416.609 340.093 416.456 340.3 416.249 340.489C416.048 340.672 415.807 340.818 415.526 340.928C415.252 341.038 414.944 341.093 414.603 341.093ZM417.952 342.812V336.054H418.784V337.115L418.675 336.904C418.858 336.612 419.107 336.38 419.425 336.209C419.742 336.032 420.104 335.944 420.513 335.944C420.976 335.944 421.391 336.057 421.757 336.282C422.128 336.508 422.421 336.816 422.634 337.206C422.848 337.59 422.955 338.029 422.955 338.523C422.955 339.005 422.848 339.441 422.634 339.831C422.421 340.221 422.128 340.529 421.757 340.754C421.391 340.98 420.973 341.093 420.504 341.093C420.107 341.093 419.745 341.004 419.415 340.828C419.092 340.651 418.842 340.401 418.665 340.078L418.803 339.931V342.812H417.952ZM420.44 340.27C420.751 340.27 421.028 340.194 421.272 340.041C421.516 339.889 421.705 339.681 421.839 339.419C421.979 339.151 422.049 338.852 422.049 338.523C422.049 338.182 421.979 337.883 421.839 337.627C421.705 337.365 421.516 337.157 421.272 337.005C421.028 336.846 420.751 336.767 420.44 336.767C420.129 336.767 419.848 336.843 419.598 336.996C419.354 337.148 419.159 337.359 419.013 337.627C418.873 337.889 418.803 338.188 418.803 338.523C418.803 338.852 418.873 339.151 419.013 339.419C419.159 339.681 419.354 339.889 419.598 340.041C419.848 340.194 420.129 340.27 420.44 340.27Z" fill="#52525B"/>
<path d="M462.165 341.093C461.683 341.093 461.232 341.007 460.811 340.837C460.391 340.66 460.022 340.413 459.705 340.096C459.394 339.779 459.15 339.407 458.973 338.98C458.796 338.547 458.708 338.078 458.708 337.572C458.708 337.06 458.796 336.59 458.973 336.164C459.15 335.737 459.394 335.365 459.705 335.048C460.022 334.731 460.388 334.487 460.802 334.316C461.223 334.146 461.677 334.06 462.165 334.06C462.653 334.06 463.104 334.149 463.518 334.325C463.939 334.496 464.305 334.74 464.616 335.057C464.933 335.368 465.18 335.737 465.357 336.164C465.539 336.59 465.631 337.06 465.631 337.572C465.631 338.078 465.539 338.547 465.357 338.98C465.18 339.407 464.933 339.779 464.616 340.096C464.305 340.413 463.939 340.66 463.518 340.837C463.104 341.007 462.653 341.093 462.165 341.093ZM462.165 340.261C462.543 340.261 462.887 340.194 463.198 340.059C463.509 339.919 463.778 339.727 464.003 339.483C464.235 339.233 464.412 338.947 464.534 338.624C464.662 338.294 464.726 337.944 464.726 337.572C464.726 337.2 464.662 336.852 464.534 336.529C464.412 336.206 464.235 335.923 464.003 335.679C463.778 335.429 463.509 335.237 463.198 335.103C462.887 334.962 462.543 334.892 462.165 334.892C461.793 334.892 461.452 334.962 461.141 335.103C460.83 335.237 460.558 335.429 460.327 335.679C460.101 335.923 459.924 336.206 459.796 336.529C459.668 336.852 459.604 337.2 459.604 337.572C459.604 337.944 459.668 338.294 459.796 338.624C459.924 338.947 460.101 339.233 460.327 339.483C460.558 339.727 460.83 339.919 461.141 340.059C461.452 340.194 461.793 340.261 462.165 340.261ZM469.124 341.093C468.642 341.093 468.212 340.98 467.834 340.754C467.462 340.529 467.17 340.221 466.956 339.831C466.743 339.441 466.636 339.002 466.636 338.514C466.636 338.02 466.743 337.581 466.956 337.197C467.17 336.813 467.462 336.508 467.834 336.282C468.212 336.057 468.642 335.944 469.124 335.944C469.447 335.944 469.749 336.002 470.029 336.118C470.31 336.234 470.556 336.389 470.77 336.584C470.983 336.779 471.139 337.008 471.236 337.27L470.477 337.636C470.361 337.38 470.185 337.173 469.947 337.014C469.709 336.849 469.435 336.767 469.124 336.767C468.825 336.767 468.554 336.843 468.31 336.996C468.072 337.148 467.883 337.355 467.743 337.618C467.603 337.88 467.532 338.182 467.532 338.523C467.532 338.852 467.603 339.151 467.743 339.419C467.883 339.681 468.072 339.889 468.31 340.041C468.554 340.194 468.825 340.27 469.124 340.27C469.435 340.27 469.709 340.19 469.947 340.032C470.185 339.867 470.361 339.651 470.477 339.383L471.236 339.767C471.139 340.023 470.983 340.251 470.77 340.453C470.556 340.648 470.31 340.803 470.029 340.919C469.749 341.035 469.447 341.093 469.124 341.093ZM474.351 341.038C473.869 341.038 473.497 340.901 473.235 340.626C472.979 340.352 472.851 339.965 472.851 339.465V336.868H471.954V336.054H472.137C472.357 336.054 472.531 335.987 472.659 335.853C472.787 335.718 472.851 335.542 472.851 335.322V334.92H473.701V336.054H474.808V336.868H473.701V339.438C473.701 339.602 473.726 339.745 473.774 339.867C473.829 339.989 473.918 340.087 474.04 340.16C474.162 340.227 474.323 340.261 474.524 340.261C474.567 340.261 474.619 340.258 474.68 340.251C474.747 340.245 474.808 340.239 474.863 340.233V340.983C474.783 341.001 474.695 341.014 474.597 341.02C474.5 341.032 474.418 341.038 474.351 341.038Z" fill="#52525B"/>
<path d="M510.099 340.983V334.17H510.849L514.763 339.675L514.425 339.712V334.17H515.33V340.983H514.58L510.685 335.441L510.996 335.405V340.983H510.099ZM519.092 341.093C518.616 341.093 518.186 340.983 517.802 340.764C517.418 340.538 517.113 340.23 516.888 339.84C516.662 339.45 516.549 339.008 516.549 338.514C516.549 338.02 516.659 337.581 516.878 337.197C517.104 336.813 517.409 336.508 517.793 336.282C518.177 336.057 518.61 335.944 519.092 335.944C519.567 335.944 519.997 336.057 520.381 336.282C520.765 336.502 521.067 336.804 521.286 337.188C521.512 337.572 521.625 338.014 521.625 338.514C521.625 339.014 521.509 339.459 521.277 339.849C521.046 340.233 520.738 340.538 520.354 340.764C519.976 340.983 519.555 341.093 519.092 341.093ZM519.092 340.27C519.396 340.27 519.671 340.194 519.915 340.041C520.165 339.889 520.36 339.678 520.5 339.41C520.646 339.142 520.719 338.843 520.719 338.514C520.719 338.179 520.646 337.883 520.5 337.627C520.36 337.365 520.165 337.157 519.915 337.005C519.671 336.846 519.396 336.767 519.092 336.767C518.781 336.767 518.5 336.846 518.25 337.005C518.006 337.157 517.811 337.365 517.665 337.627C517.519 337.883 517.445 338.179 517.445 338.514C517.445 338.843 517.519 339.142 517.665 339.41C517.811 339.678 518.006 339.889 518.25 340.041C518.5 340.194 518.781 340.27 519.092 340.27ZM524.016 340.983L522.087 336.054H523.038L524.583 340.224H524.254L525.809 336.054H526.76L524.821 340.983H524.016Z" fill="#52525B"/>
<circle cx="130.303" cy="66.8833" r="14.1081" fill="#3E7AFD"/>
<path d="M126.086 71.2014L128.979 62.816H130.96L133.853 71.2014H132.187L131.59 69.4005H128.349L127.741 71.2014H126.086ZM128.788 68.0498H131.151L129.756 63.874H130.183L128.788 68.0498Z" fill="white"/>
<path d="M152.557 71.5184C152.024 71.5184 151.529 71.4208 151.071 71.2257C150.621 71.0306 150.231 70.7605 149.901 70.4153C149.578 70.0627 149.341 69.6537 149.191 69.1885L150.463 68.637C150.666 69.1172 150.959 69.4961 151.341 69.7738C151.724 70.0439 152.155 70.179 152.636 70.179C152.906 70.179 153.138 70.1377 153.333 70.0551C153.536 69.9651 153.69 69.845 153.795 69.695C153.907 69.5449 153.964 69.3648 153.964 69.1547C153.964 68.9071 153.889 68.7045 153.739 68.5469C153.596 68.3818 153.378 68.2543 153.086 68.1642L151.476 67.6465C150.823 67.4439 150.332 67.14 150.002 66.7348C149.672 66.3296 149.507 65.8531 149.507 65.3053C149.507 64.8251 149.623 64.4011 149.855 64.0334C150.096 63.6658 150.426 63.3806 150.846 63.178C151.274 62.9679 151.761 62.8629 152.309 62.8629C152.812 62.8629 153.273 62.9529 153.694 63.133C154.114 63.3056 154.474 63.5495 154.774 63.8646C155.082 64.1723 155.311 64.5362 155.461 64.9564L154.2 65.5192C154.035 65.099 153.787 64.7763 153.457 64.5512C153.127 64.3186 152.744 64.2023 152.309 64.2023C152.054 64.2023 151.829 64.2473 151.634 64.3373C151.439 64.4199 151.285 64.5399 151.172 64.6975C151.067 64.8476 151.015 65.0277 151.015 65.2378C151.015 65.4704 151.09 65.6767 151.24 65.8568C151.39 66.0294 151.619 66.1645 151.927 66.262L153.469 66.746C154.136 66.9636 154.635 67.2638 154.965 67.6465C155.303 68.0292 155.472 68.5019 155.472 69.0647C155.472 69.5449 155.348 69.9689 155.101 70.3365C154.853 70.7042 154.512 70.9931 154.076 71.2032C153.641 71.4133 153.135 71.5184 152.557 71.5184ZM159.518 71.4508C158.828 71.4508 158.291 71.2632 157.908 70.8881C157.533 70.5054 157.346 69.9689 157.346 69.2785V66.5772H156.288V65.2603H156.4C156.7 65.2603 156.933 65.1815 157.098 65.0239C157.263 64.8663 157.346 64.6375 157.346 64.3373V63.8646H158.82V65.2603H160.227V66.5772H158.82V69.1997C158.82 69.4023 158.854 69.5749 158.921 69.7175C158.996 69.8601 159.109 69.9689 159.259 70.0439C159.417 70.1189 159.615 70.1564 159.856 70.1564C159.908 70.1564 159.968 70.1527 160.036 70.1452C160.111 70.1377 160.182 70.1302 160.25 70.1227V71.3833C160.144 71.3983 160.024 71.4133 159.889 71.4283C159.754 71.4433 159.63 71.4508 159.518 71.4508ZM163.211 71.5184C162.784 71.5184 162.412 71.4471 162.097 71.3045C161.782 71.1619 161.538 70.9593 161.365 70.6967C161.193 70.4266 161.106 70.1152 161.106 69.7625C161.106 69.4248 161.181 69.1247 161.332 68.8621C161.482 68.5919 161.714 68.3668 162.029 68.1867C162.345 68.0066 162.742 67.8791 163.222 67.804L165.226 67.4776V68.6032L163.504 68.8958C163.211 68.9484 162.994 69.0422 162.851 69.1772C162.708 69.3123 162.637 69.4886 162.637 69.7062C162.637 69.9163 162.716 70.0852 162.874 70.2127C163.039 70.3328 163.241 70.3928 163.481 70.3928C163.789 70.3928 164.059 70.329 164.292 70.2015C164.532 70.0664 164.716 69.8826 164.843 69.6499C164.978 69.4173 165.046 69.1622 165.046 68.8846V67.3088C165.046 67.0462 164.941 66.8286 164.731 66.656C164.528 66.4759 164.258 66.3858 163.92 66.3858C163.605 66.3858 163.324 66.4721 163.076 66.6447C162.836 66.8098 162.66 67.0312 162.547 67.3088L161.343 66.7235C161.463 66.4009 161.65 66.1232 161.906 65.8906C162.168 65.6505 162.476 65.4629 162.829 65.3278C163.181 65.1928 163.564 65.1252 163.977 65.1252C164.479 65.1252 164.922 65.219 165.305 65.4066C165.687 65.5867 165.984 65.8418 166.194 66.172C166.412 66.4946 166.52 66.8736 166.52 67.3088V71.3833H165.125V70.3365L165.44 70.314C165.282 70.5767 165.095 70.798 164.877 70.9781C164.659 71.1507 164.412 71.2858 164.134 71.3833C163.857 71.4733 163.549 71.5184 163.211 71.5184ZM167.883 71.3833V65.2603H169.268V66.6222L169.155 66.4196C169.298 65.9619 169.519 65.643 169.819 65.4629C170.127 65.2828 170.494 65.1928 170.922 65.1928H171.282V66.4984H170.753C170.333 66.4984 169.995 66.6297 169.74 66.8923C169.485 67.1475 169.358 67.5076 169.358 67.9729V71.3833H167.883ZM175.049 71.4508C174.359 71.4508 173.822 71.2632 173.44 70.8881C173.065 70.5054 172.877 69.9689 172.877 69.2785V66.5772H171.819V65.2603H171.931C172.232 65.2603 172.464 65.1815 172.629 65.0239C172.794 64.8663 172.877 64.6375 172.877 64.3373V63.8646H174.351V65.2603H175.758V66.5772H174.351V69.1997C174.351 69.4023 174.385 69.5749 174.453 69.7175C174.528 69.8601 174.64 69.9689 174.79 70.0439C174.948 70.1189 175.147 70.1564 175.387 70.1564C175.439 70.1564 175.499 70.1527 175.567 70.1452C175.642 70.1377 175.713 70.1302 175.781 70.1227V71.3833C175.676 71.3983 175.556 71.4133 175.421 71.4283C175.286 71.4433 175.162 71.4508 175.049 71.4508ZM177.211 68.9746V67.6802H181.995V68.9746H177.211ZM187.01 71.5184C186.365 71.5184 185.791 71.3833 185.288 71.1132C184.793 70.843 184.403 70.4716 184.118 69.9989C183.833 69.5261 183.69 68.9896 183.69 68.3893V62.9979H185.221V68.3105C185.221 68.6557 185.296 68.9671 185.446 69.2447C185.603 69.5224 185.817 69.74 186.087 69.8976C186.358 70.0476 186.665 70.1227 187.01 70.1227C187.363 70.1227 187.671 70.0476 187.933 69.8976C188.204 69.74 188.414 69.5224 188.564 69.2447C188.721 68.9671 188.8 68.6557 188.8 68.3105V62.9979H190.331V68.3893C190.331 68.9896 190.188 69.5261 189.903 69.9989C189.618 70.4716 189.224 70.843 188.721 71.1132C188.226 71.3833 187.656 71.5184 187.01 71.5184ZM191.735 73.6344V65.2603H193.12V66.4759L192.985 66.172C193.195 65.8418 193.48 65.5867 193.84 65.4066C194.2 65.219 194.617 65.1252 195.089 65.1252C195.667 65.1252 196.189 65.2678 196.654 65.5529C197.119 65.8381 197.487 66.2208 197.757 66.701C198.035 67.1812 198.173 67.7215 198.173 68.3218C198.173 68.9146 198.038 69.4549 197.768 69.9426C197.498 70.4303 197.13 70.8168 196.665 71.1019C196.2 71.3795 195.671 71.5184 195.078 71.5184C194.635 71.5184 194.226 71.4321 193.851 71.2595C193.484 71.0794 193.191 70.8243 192.973 70.4941L193.21 70.2015V73.6344H191.735ZM194.909 70.1677C195.247 70.1677 195.547 70.0889 195.81 69.9313C196.072 69.7738 196.275 69.5562 196.418 69.2785C196.568 69.0009 196.643 68.682 196.643 68.3218C196.643 67.9616 196.568 67.6465 196.418 67.3763C196.275 67.0987 196.072 66.8811 195.81 66.7235C195.547 66.5584 195.247 66.4759 194.909 66.4759C194.587 66.4759 194.294 66.5547 194.031 66.7123C193.776 66.8698 193.574 67.0912 193.424 67.3763C193.281 67.654 193.21 67.9691 193.21 68.3218C193.21 68.682 193.281 69.0009 193.424 69.2785C193.574 69.5562 193.776 69.7738 194.031 69.9313C194.294 70.0889 194.587 70.1677 194.909 70.1677ZM202.736 71.3833L205.628 62.9979H207.609L210.502 71.3833H208.836L208.24 69.5824H204.998L204.39 71.3833H202.736ZM205.437 68.2318H207.801L206.405 64.0559H206.833L205.437 68.2318Z" fill="#18181B"/>
<rect x="241.705" y="65.1246" width="29.5458" height="3.51735" rx="1.75868" fill="#4B5563"/>
<rect x="278.989" y="65.1246" width="29.5458" height="3.51735" rx="1.75868" fill="#4B5563"/>
<rect x="313.354" y="65.1246" width="29.5458" height="3.51735" rx="1.75868" fill="#4B5563"/>
<rect x="395.37" y="57.7652" width="70.897" height="18.2361" rx="4.16663" stroke="#4B5563" stroke-width="0.757569"/>
<rect x="407.113" y="64.6777" width="37.0522" height="4.41098" rx="2.20549" fill="#4B5563"/>
<rect x="450.208" y="64.7249" width="4.31675" height="4.31675" rx="2.15838" fill="#4B5563"/>
<rect x="242.533" y="75.9891" width="29.5458" height="3.51735" rx="1.75868" fill="#4B5563"/>
<rect x="279.817" y="75.9891" width="29.5458" height="3.51735" rx="1.75868" fill="#4B5563"/>
<rect x="314.182" y="75.9891" width="29.5458" height="3.51735" rx="1.75868" fill="#4B5563"/>
<path d="M256.769 187.861C259.217 187.861 261.307 186.027 261.307 183.64C261.307 181.253 259.217 179.419 256.769 179.419C254.321 179.419 252.232 181.253 252.232 183.64C252.232 186.027 254.321 187.861 256.769 187.861Z" fill="#4F46E5" stroke="white" stroke-width="1.40694"/>
<line x1="257.122" y1="187.158" x2="257.122" y2="237.815" stroke="#E4E4E7" stroke-width="0.703471"/>
<g filter="url(#filter1_bd_774_17413)">
<mask id="path-31-inside-1_774_17413" fill="white">
<path fill-rule="evenodd" clip-rule="evenodd" d="M225.586 129.467C222.478 129.467 219.958 131.987 219.958 135.095V163.943C219.958 167.051 222.478 169.571 225.586 169.571H252.421L256.768 173.792L261.115 169.571H287.948C291.056 169.571 293.576 167.051 293.576 163.943V135.095C293.576 131.987 291.056 129.467 287.948 129.467H225.586Z"/>
</mask>
<path fill-rule="evenodd" clip-rule="evenodd" d="M225.586 129.467C222.478 129.467 219.958 131.987 219.958 135.095V163.943C219.958 167.051 222.478 169.571 225.586 169.571H252.421L256.768 173.792L261.115 169.571H287.948C291.056 169.571 293.576 167.051 293.576 163.943V135.095C293.576 131.987 291.056 129.467 287.948 129.467H225.586Z" fill="white"/>
<path d="M252.421 169.571L252.911 169.066L252.706 168.867H252.421V169.571ZM256.768 173.792L256.278 174.297L256.768 174.773L257.258 174.297L256.768 173.792ZM261.115 169.571V168.867H260.83L260.625 169.066L261.115 169.571ZM220.662 135.095C220.662 132.375 222.867 130.171 225.586 130.171V128.764C222.09 128.764 219.255 131.598 219.255 135.095H220.662ZM220.662 163.943V135.095H219.255V163.943H220.662ZM225.586 168.867C222.867 168.867 220.662 166.662 220.662 163.943H219.255C219.255 167.439 222.09 170.274 225.586 170.274V168.867ZM252.421 168.867H225.586V170.274H252.421V168.867ZM251.931 170.075L256.278 174.297L257.258 173.288L252.911 169.066L251.931 170.075ZM257.258 174.297L261.606 170.075L260.625 169.066L256.278 173.288L257.258 174.297ZM287.948 168.867H261.115V170.274H287.948V168.867ZM292.872 163.943C292.872 166.662 290.668 168.867 287.948 168.867V170.274C291.445 170.274 294.279 167.439 294.279 163.943H292.872ZM292.872 135.095V163.943H294.279V135.095H292.872ZM287.948 130.171C290.668 130.171 292.872 132.375 292.872 135.095H294.279C294.279 131.598 291.445 128.764 287.948 128.764V130.171ZM225.586 130.171H287.948V128.764H225.586V130.171Z" fill="#E4E4E7" mask="url(#path-31-inside-1_774_17413)"/>
</g>
<path d="M242.507 158.87C242.074 158.87 241.672 158.79 241.3 158.632C240.934 158.473 240.617 158.254 240.349 157.973C240.086 157.687 239.894 157.354 239.772 156.976L240.806 156.528C240.97 156.919 241.208 157.226 241.519 157.452C241.83 157.671 242.181 157.781 242.571 157.781C242.79 157.781 242.979 157.748 243.138 157.681C243.302 157.607 243.427 157.51 243.513 157.388C243.604 157.266 243.65 157.12 243.65 156.949C243.65 156.748 243.589 156.583 243.467 156.455C243.351 156.321 243.174 156.217 242.937 156.144L241.629 155.724C241.098 155.559 240.699 155.312 240.431 154.983C240.163 154.654 240.028 154.266 240.028 153.821C240.028 153.431 240.123 153.087 240.312 152.788C240.507 152.489 240.775 152.258 241.117 152.093C241.464 151.922 241.861 151.837 242.306 151.837C242.714 151.837 243.089 151.91 243.43 152.056C243.772 152.197 244.065 152.395 244.308 152.651C244.558 152.901 244.744 153.196 244.866 153.538L243.842 153.995C243.708 153.654 243.507 153.392 243.238 153.209C242.97 153.02 242.659 152.925 242.306 152.925C242.098 152.925 241.915 152.962 241.757 153.035C241.598 153.102 241.473 153.2 241.382 153.328C241.297 153.449 241.254 153.596 241.254 153.767C241.254 153.956 241.315 154.123 241.437 154.27C241.559 154.41 241.745 154.519 241.995 154.599L243.248 154.992C243.79 155.169 244.196 155.413 244.464 155.724C244.738 156.035 244.875 156.419 244.875 156.876C244.875 157.266 244.775 157.611 244.574 157.909C244.372 158.208 244.095 158.443 243.741 158.613C243.388 158.784 242.976 158.87 242.507 158.87ZM242.068 159.674V151.032H242.845V159.674H242.068ZM248.794 158.76V157.26H245.666V156.217L248.721 151.947H250.019V156.217H251.016V157.26H250.019V158.76H248.794ZM246.581 156.666L246.361 156.217H248.794V152.925L249.114 153.026L246.581 156.666ZM254.037 158.87C253.677 158.87 253.332 158.802 253.003 158.668C252.68 158.534 252.4 158.345 252.162 158.101C251.93 157.851 251.772 157.556 251.686 157.214L252.765 156.83C252.869 157.141 253.037 157.373 253.268 157.525C253.5 157.671 253.756 157.745 254.037 157.745C254.268 157.745 254.472 157.696 254.649 157.598C254.832 157.495 254.972 157.354 255.07 157.178C255.168 156.995 255.216 156.784 255.216 156.547C255.216 156.309 255.164 156.102 255.061 155.925C254.963 155.748 254.826 155.611 254.649 155.513C254.472 155.41 254.268 155.358 254.037 155.358C253.799 155.358 253.582 155.41 253.387 155.513C253.198 155.617 253.061 155.766 252.976 155.961L251.961 155.733L252.5 151.947H256.213V152.998H252.994L253.46 152.459L253.076 155.312L252.72 155.019C252.89 154.769 253.098 154.587 253.342 154.471C253.592 154.355 253.893 154.297 254.247 154.297C254.698 154.297 255.088 154.394 255.417 154.59C255.753 154.785 256.012 155.05 256.195 155.385C256.378 155.721 256.469 156.108 256.469 156.547C256.469 156.986 256.362 157.382 256.149 157.736C255.936 158.089 255.646 158.367 255.28 158.568C254.914 158.769 254.5 158.87 254.037 158.87ZM257.889 160.186V159.592C258.09 159.543 258.252 159.449 258.373 159.308C258.502 159.174 258.581 158.991 258.611 158.76H258.072V157.479H259.279V158.266C259.279 158.802 259.16 159.232 258.922 159.555C258.691 159.879 258.346 160.089 257.889 160.186ZM262.932 158.87C262.572 158.87 262.227 158.802 261.898 158.668C261.575 158.534 261.295 158.345 261.057 158.101C260.825 157.851 260.667 157.556 260.581 157.214L261.66 156.83C261.764 157.141 261.932 157.373 262.163 157.525C262.395 157.671 262.651 157.745 262.932 157.745C263.163 157.745 263.368 157.696 263.544 157.598C263.727 157.495 263.867 157.354 263.965 157.178C264.063 156.995 264.111 156.784 264.111 156.547C264.111 156.309 264.06 156.102 263.956 155.925C263.858 155.748 263.721 155.611 263.544 155.513C263.368 155.41 263.163 155.358 262.932 155.358C262.694 155.358 262.477 155.41 262.282 155.513C262.093 155.617 261.956 155.766 261.871 155.961L260.856 155.733L261.395 151.947H265.108V152.998H261.889L262.355 152.459L261.971 155.312L261.615 155.019C261.785 154.769 261.993 154.587 262.237 154.471C262.487 154.355 262.788 154.297 263.142 154.297C263.593 154.297 263.983 154.394 264.313 154.59C264.648 154.785 264.907 155.05 265.09 155.385C265.273 155.721 265.364 156.108 265.364 156.547C265.364 156.986 265.258 157.382 265.044 157.736C264.831 158.089 264.541 158.367 264.175 158.568C263.81 158.769 263.395 158.87 262.932 158.87ZM266.702 158.76L269.015 155.778L269.226 155.998C269.134 156.065 269.046 156.12 268.96 156.163C268.875 156.205 268.784 156.236 268.686 156.254C268.588 156.272 268.485 156.281 268.375 156.281C267.961 156.281 267.592 156.187 267.269 155.998C266.945 155.809 266.689 155.553 266.5 155.23C266.317 154.901 266.226 154.529 266.226 154.114C266.226 153.675 266.327 153.285 266.528 152.943C266.735 152.602 267.016 152.334 267.369 152.139C267.729 151.938 268.137 151.837 268.595 151.837C269.058 151.837 269.466 151.934 269.82 152.13C270.174 152.325 270.451 152.593 270.652 152.934C270.86 153.27 270.963 153.657 270.963 154.096C270.963 154.315 270.939 154.535 270.89 154.754C270.841 154.974 270.753 155.208 270.625 155.458C270.503 155.702 270.326 155.98 270.094 156.291L268.192 158.76H266.702ZM268.595 155.239C268.808 155.239 268.997 155.193 269.162 155.102C269.332 155.004 269.466 154.87 269.564 154.699C269.662 154.523 269.71 154.324 269.71 154.105C269.71 153.873 269.658 153.672 269.555 153.501C269.457 153.331 269.326 153.196 269.162 153.099C268.997 153.001 268.808 152.953 268.595 152.953C268.387 152.953 268.198 153.001 268.028 153.099C267.857 153.196 267.72 153.331 267.616 153.501C267.519 153.672 267.47 153.873 267.47 154.105C267.47 154.324 267.519 154.523 267.616 154.699C267.72 154.87 267.857 155.004 268.028 155.102C268.198 155.193 268.387 155.239 268.595 155.239ZM272.925 158.76V153.007H271.608V151.947H274.169V158.76H272.925Z" fill="#18181B"/>
<path d="M237.949 145.096V144.294H238.295C238.593 144.294 238.83 144.206 239.004 144.032C239.178 143.852 239.266 143.61 239.266 143.306V138.806H240.101V143.289C240.101 143.655 240.025 143.973 239.873 144.243C239.727 144.513 239.519 144.724 239.249 144.876C238.979 145.022 238.661 145.096 238.295 145.096H237.949ZM243.003 145.197C242.677 145.197 242.381 145.121 242.117 144.969C241.858 144.817 241.655 144.606 241.509 144.336C241.368 144.06 241.298 143.745 241.298 143.39V140.545H242.083V143.306C242.083 143.531 242.128 143.728 242.218 143.897C242.314 144.066 242.443 144.198 242.606 144.294C242.775 144.389 242.967 144.437 243.18 144.437C243.394 144.437 243.583 144.389 243.746 144.294C243.915 144.198 244.044 144.06 244.134 143.88C244.23 143.7 244.278 143.486 244.278 143.238V140.545H245.071V145.096H244.303V144.209L244.43 144.285C244.323 144.572 244.14 144.797 243.881 144.96C243.628 145.118 243.335 145.197 243.003 145.197ZM246.288 145.096V140.545H247.056V141.432L246.929 141.356C247.042 141.069 247.222 140.847 247.469 140.689C247.723 140.526 248.018 140.444 248.356 140.444C248.682 140.444 248.972 140.517 249.225 140.664C249.484 140.81 249.687 141.013 249.833 141.271C249.985 141.53 250.061 141.823 250.061 142.149V145.096H249.268V142.403C249.268 142.149 249.222 141.936 249.132 141.761C249.042 141.587 248.913 141.452 248.744 141.356C248.581 141.255 248.392 141.204 248.179 141.204C247.965 141.204 247.773 141.255 247.605 141.356C247.441 141.452 247.312 141.589 247.216 141.77C247.121 141.944 247.073 142.155 247.073 142.403V145.096H246.288ZM253.278 145.197C252.839 145.197 252.448 145.093 252.105 144.884C251.761 144.676 251.491 144.392 251.294 144.032C251.097 143.666 250.999 143.258 250.999 142.808C250.999 142.352 251.094 141.947 251.286 141.592C251.483 141.238 251.747 140.959 252.079 140.757C252.417 140.548 252.794 140.444 253.21 140.444C253.548 140.444 253.846 140.506 254.105 140.63C254.37 140.748 254.592 140.911 254.772 141.12C254.958 141.322 255.099 141.556 255.194 141.82C255.296 142.079 255.346 142.349 255.346 142.631C255.346 142.692 255.341 142.763 255.329 142.842C255.324 142.915 255.315 142.985 255.304 143.053H251.573V142.377H254.848L254.477 142.681C254.527 142.389 254.499 142.127 254.392 141.896C254.285 141.665 254.128 141.482 253.92 141.347C253.711 141.212 253.475 141.145 253.21 141.145C252.946 141.145 252.704 141.212 252.484 141.347C252.265 141.482 252.093 141.677 251.97 141.93C251.851 142.178 251.803 142.473 251.826 142.816C251.803 143.148 251.854 143.441 251.978 143.694C252.107 143.942 252.287 144.136 252.518 144.277C252.755 144.412 253.011 144.479 253.286 144.479C253.59 144.479 253.846 144.409 254.055 144.268C254.263 144.128 254.432 143.947 254.561 143.728L255.22 144.066C255.129 144.274 254.989 144.465 254.797 144.64C254.612 144.809 254.389 144.944 254.131 145.045C253.877 145.146 253.593 145.197 253.278 145.197ZM257.677 145.096V144.521L259.416 142.639C259.759 142.273 260.032 141.972 260.235 141.736C260.443 141.499 260.595 141.288 260.691 141.103C260.786 140.917 260.834 140.72 260.834 140.512C260.834 140.168 260.733 139.904 260.53 139.718C260.328 139.532 260.06 139.44 259.728 139.44C259.391 139.44 259.104 139.538 258.867 139.735C258.631 139.926 258.468 140.199 258.378 140.554L257.626 140.36C257.699 140.022 257.835 139.729 258.032 139.482C258.228 139.234 258.473 139.043 258.766 138.908C259.059 138.773 259.379 138.705 259.728 138.705C260.111 138.705 260.446 138.781 260.733 138.933C261.025 139.079 261.253 139.285 261.417 139.549C261.585 139.814 261.67 140.121 261.67 140.469C261.67 140.7 261.622 140.925 261.526 141.145C261.431 141.364 261.29 141.598 261.104 141.845C260.919 142.087 260.677 142.369 260.378 142.69L258.825 144.378H261.805V145.096H257.677ZM265.339 145.197C264.838 145.197 264.399 145.062 264.022 144.792C263.651 144.516 263.361 144.136 263.153 143.652C262.944 143.162 262.84 142.594 262.84 141.947C262.84 141.3 262.944 140.734 263.153 140.25C263.361 139.76 263.651 139.381 264.022 139.11C264.393 138.84 264.83 138.705 265.33 138.705C265.831 138.705 266.267 138.84 266.639 139.11C267.01 139.381 267.3 139.76 267.508 140.25C267.722 140.734 267.829 141.3 267.829 141.947C267.829 142.594 267.725 143.162 267.517 143.652C267.309 144.142 267.016 144.521 266.639 144.792C266.267 145.062 265.834 145.197 265.339 145.197ZM265.339 144.429C265.677 144.429 265.969 144.327 266.217 144.125C266.464 143.917 266.656 143.627 266.791 143.255C266.932 142.884 267.002 142.448 267.002 141.947C267.002 141.446 266.932 141.01 266.791 140.638C266.656 140.267 266.462 139.98 266.208 139.777C265.961 139.575 265.668 139.473 265.33 139.473C264.993 139.473 264.7 139.575 264.453 139.777C264.205 139.98 264.011 140.267 263.87 140.638C263.735 141.01 263.667 141.446 263.667 141.947C263.667 142.442 263.735 142.875 263.87 143.247C264.011 143.618 264.205 143.908 264.453 144.116C264.706 144.325 265.001 144.429 265.339 144.429ZM268.839 145.096V144.521L270.578 142.639C270.921 142.273 271.194 141.972 271.397 141.736C271.605 141.499 271.757 141.288 271.853 141.103C271.948 140.917 271.996 140.72 271.996 140.512C271.996 140.168 271.895 139.904 271.692 139.718C271.49 139.532 271.222 139.44 270.89 139.44C270.553 139.44 270.266 139.538 270.029 139.735C269.793 139.926 269.63 140.199 269.54 140.554L268.788 140.36C268.862 140.022 268.997 139.729 269.194 139.482C269.391 139.234 269.635 139.043 269.928 138.908C270.221 138.773 270.541 138.705 270.89 138.705C271.273 138.705 271.608 138.781 271.895 138.933C272.188 139.079 272.416 139.285 272.579 139.549C272.748 139.814 272.832 140.121 272.832 140.469C272.832 140.7 272.784 140.925 272.688 141.145C272.593 141.364 272.452 141.598 272.266 141.845C272.081 142.087 271.839 142.369 271.54 142.69L269.987 144.378H272.967V145.096H268.839ZM274.939 145.096V139.524H273.749V138.806H275.775V145.096H274.939Z" fill="#71717A"/>
<path d="M436.218 167.457C438.666 167.457 440.755 165.623 440.755 163.236C440.755 160.849 438.666 159.015 436.218 159.015C433.77 159.015 431.68 160.849 431.68 163.236C431.68 165.623 433.77 167.457 436.218 167.457Z" fill="#4F46E5" stroke="white" stroke-width="1.40694"/>
<line x1="436.571" y1="166.754" x2="436.571" y2="217.411" stroke="#E4E4E7" stroke-width="0.703471"/>
<g filter="url(#filter2_bd_774_17413)">
<mask id="path-37-inside-2_774_17413" fill="white">
<path fill-rule="evenodd" clip-rule="evenodd" d="M405.044 109.061C401.936 109.061 399.416 111.58 399.416 114.689V143.537C399.416 146.645 401.936 149.164 405.044 149.164H431.879L436.226 153.386L440.573 149.164H467.406C470.514 149.164 473.034 146.645 473.034 143.537V114.689C473.034 111.58 470.514 109.061 467.406 109.061H405.044Z"/>
</mask>
<path fill-rule="evenodd" clip-rule="evenodd" d="M405.044 109.061C401.936 109.061 399.416 111.58 399.416 114.689V143.537C399.416 146.645 401.936 149.164 405.044 149.164H431.879L436.226 153.386L440.573 149.164H467.406C470.514 149.164 473.034 146.645 473.034 143.537V114.689C473.034 111.58 470.514 109.061 467.406 109.061H405.044Z" fill="white"/>
<path d="M431.879 149.164L432.369 148.66L432.164 148.461H431.879V149.164ZM436.226 153.386L435.736 153.891L436.226 154.367L436.716 153.891L436.226 153.386ZM440.573 149.164V148.461H440.288L440.083 148.66L440.573 149.164ZM400.12 114.689C400.12 111.969 402.324 109.764 405.044 109.764V108.357C401.547 108.357 398.713 111.192 398.713 114.689H400.12ZM400.12 143.537V114.689H398.713V143.537H400.12ZM405.044 148.461C402.324 148.461 400.12 146.256 400.12 143.537H398.713C398.713 147.033 401.547 149.868 405.044 149.868V148.461ZM431.879 148.461H405.044V149.868H431.879V148.461ZM431.389 149.669L435.736 153.891L436.716 152.881L432.369 148.66L431.389 149.669ZM436.716 153.891L441.063 149.669L440.083 148.66L435.736 152.881L436.716 153.891ZM467.406 148.461H440.573V149.868H467.406V148.461ZM472.33 143.537C472.33 146.256 470.126 148.461 467.406 148.461V149.868C470.903 149.868 473.737 147.033 473.737 143.537H472.33ZM472.33 114.689V143.537H473.737V114.689H472.33ZM467.406 109.764C470.126 109.764 472.33 111.969 472.33 114.689H473.737C473.737 111.192 470.903 108.357 467.406 108.357V109.764ZM405.044 109.764H467.406V108.357H405.044V109.764Z" fill="#E4E4E7" mask="url(#path-37-inside-2_774_17413)"/>
</g>
<path d="M420.01 138.463C419.577 138.463 419.175 138.384 418.803 138.226C418.437 138.067 418.12 137.848 417.852 137.567C417.59 137.281 417.398 136.948 417.276 136.57L418.309 136.122C418.474 136.512 418.712 136.82 419.022 137.046C419.333 137.265 419.684 137.375 420.074 137.375C420.294 137.375 420.483 137.342 420.641 137.274C420.806 137.201 420.931 137.104 421.016 136.982C421.108 136.86 421.153 136.714 421.153 136.543C421.153 136.342 421.092 136.177 420.97 136.049C420.855 135.915 420.678 135.811 420.44 135.738L419.132 135.317C418.602 135.153 418.202 134.906 417.934 134.577C417.666 134.247 417.532 133.86 417.532 133.415C417.532 133.025 417.626 132.681 417.815 132.382C418.01 132.083 418.279 131.851 418.62 131.687C418.968 131.516 419.364 131.431 419.809 131.431C420.217 131.431 420.592 131.504 420.934 131.65C421.275 131.79 421.568 131.989 421.812 132.245C422.062 132.495 422.248 132.79 422.37 133.132L421.345 133.589C421.211 133.248 421.01 132.985 420.742 132.802C420.473 132.613 420.163 132.519 419.809 132.519C419.602 132.519 419.419 132.556 419.26 132.629C419.102 132.696 418.977 132.793 418.885 132.921C418.8 133.043 418.757 133.19 418.757 133.36C418.757 133.549 418.818 133.717 418.94 133.863C419.062 134.004 419.248 134.113 419.498 134.193L420.751 134.586C421.293 134.763 421.699 135.006 421.967 135.317C422.242 135.628 422.379 136.012 422.379 136.47C422.379 136.86 422.278 137.204 422.077 137.503C421.876 137.802 421.598 138.037 421.245 138.207C420.891 138.378 420.48 138.463 420.01 138.463ZM419.571 139.268V130.626H420.348V139.268H419.571ZM426.297 138.354V136.854H423.169V135.811L426.224 131.54H427.522V135.811H428.519V136.854H427.522V138.354H426.297ZM424.084 136.259L423.864 135.811H426.297V132.519L426.617 132.62L424.084 136.259ZM429.482 138.354L432.317 132.592H429.107V131.54H433.625V132.592L430.854 138.354H429.482ZM434.303 139.78V139.186C434.504 139.137 434.665 139.043 434.787 138.902C434.915 138.768 434.995 138.585 435.025 138.354H434.485V137.073H435.693V137.86C435.693 138.396 435.574 138.826 435.336 139.149C435.104 139.472 434.76 139.683 434.303 139.78ZM439.867 138.463C439.324 138.463 438.849 138.317 438.44 138.024C438.032 137.732 437.711 137.32 437.48 136.79C437.254 136.259 437.141 135.644 437.141 134.942C437.141 134.235 437.254 133.619 437.48 133.095C437.705 132.571 438.022 132.162 438.431 131.87C438.839 131.577 439.315 131.431 439.858 131.431C440.412 131.431 440.891 131.577 441.293 131.87C441.702 132.162 442.022 132.574 442.254 133.104C442.485 133.629 442.601 134.241 442.601 134.942C442.601 135.644 442.485 136.259 442.254 136.79C442.028 137.314 441.711 137.726 441.302 138.024C440.894 138.317 440.415 138.463 439.867 138.463ZM439.876 137.329C440.187 137.329 440.452 137.235 440.671 137.046C440.891 136.851 441.059 136.576 441.174 136.223C441.296 135.863 441.357 135.436 441.357 134.942C441.357 134.449 441.296 134.025 441.174 133.671C441.059 133.312 440.888 133.037 440.662 132.848C440.443 132.659 440.175 132.565 439.858 132.565C439.553 132.565 439.291 132.659 439.071 132.848C438.852 133.037 438.681 133.312 438.559 133.671C438.443 134.025 438.385 134.449 438.385 134.942C438.385 135.43 438.443 135.854 438.559 136.214C438.681 136.567 438.852 136.842 439.071 137.037C439.297 137.232 439.565 137.329 439.876 137.329ZM446.341 138.463C445.799 138.463 445.323 138.317 444.915 138.024C444.506 137.732 444.186 137.32 443.955 136.79C443.729 136.259 443.616 135.644 443.616 134.942C443.616 134.235 443.729 133.619 443.955 133.095C444.18 132.571 444.497 132.162 444.906 131.87C445.314 131.577 445.79 131.431 446.332 131.431C446.887 131.431 447.366 131.577 447.768 131.87C448.177 132.162 448.497 132.574 448.728 133.104C448.96 133.629 449.076 134.241 449.076 134.942C449.076 135.644 448.96 136.259 448.728 136.79C448.503 137.314 448.186 137.726 447.777 138.024C447.369 138.317 446.89 138.463 446.341 138.463ZM446.351 137.329C446.662 137.329 446.927 137.235 447.146 137.046C447.366 136.851 447.533 136.576 447.649 136.223C447.771 135.863 447.832 135.436 447.832 134.942C447.832 134.449 447.771 134.025 447.649 133.671C447.533 133.312 447.363 133.037 447.137 132.848C446.918 132.659 446.649 132.565 446.332 132.565C446.028 132.565 445.765 132.659 445.546 132.848C445.326 133.037 445.156 133.312 445.034 133.671C444.918 134.025 444.86 134.449 444.86 134.942C444.86 135.43 444.918 135.854 445.034 136.214C445.156 136.567 445.326 136.842 445.546 137.037C445.771 137.232 446.04 137.329 446.351 137.329ZM452.816 138.463C452.274 138.463 451.798 138.317 451.39 138.024C450.981 137.732 450.661 137.32 450.429 136.79C450.204 136.259 450.091 135.644 450.091 134.942C450.091 134.235 450.204 133.619 450.429 133.095C450.655 132.571 450.972 132.162 451.381 131.87C451.789 131.577 452.265 131.431 452.807 131.431C453.362 131.431 453.841 131.577 454.243 131.87C454.651 132.162 454.972 132.574 455.203 133.104C455.435 133.629 455.551 134.241 455.551 134.942C455.551 135.644 455.435 136.259 455.203 136.79C454.978 137.314 454.661 137.726 454.252 138.024C453.844 138.317 453.365 138.463 452.816 138.463ZM452.825 137.329C453.136 137.329 453.402 137.235 453.621 137.046C453.841 136.851 454.008 136.576 454.124 136.223C454.246 135.863 454.307 135.436 454.307 134.942C454.307 134.449 454.246 134.025 454.124 133.671C454.008 133.312 453.838 133.037 453.612 132.848C453.392 132.659 453.124 132.565 452.807 132.565C452.502 132.565 452.24 132.659 452.021 132.848C451.801 133.037 451.63 133.312 451.509 133.671C451.393 134.025 451.335 134.449 451.335 134.942C451.335 135.43 451.393 135.854 451.509 136.214C451.63 136.567 451.801 136.842 452.021 137.037C452.246 137.232 452.515 137.329 452.825 137.329Z" fill="#18181B"/>
<path d="M419.299 124.689V123.887H419.645C419.943 123.887 420.18 123.8 420.354 123.626C420.528 123.445 420.616 123.203 420.616 122.9V118.4H421.451V122.883C421.451 123.249 421.375 123.566 421.223 123.837C421.077 124.107 420.869 124.318 420.599 124.47C420.329 124.616 420.011 124.689 419.645 124.689H419.299ZM424.353 124.791C424.027 124.791 423.731 124.715 423.467 124.563C423.208 124.411 423.005 124.2 422.859 123.929C422.718 123.654 422.648 123.339 422.648 122.984V120.139H423.433V122.9C423.433 123.125 423.478 123.322 423.568 123.49C423.664 123.659 423.793 123.792 423.956 123.887C424.125 123.983 424.317 124.031 424.53 124.031C424.744 124.031 424.933 123.983 425.096 123.887C425.265 123.792 425.394 123.654 425.484 123.474C425.58 123.294 425.628 123.08 425.628 122.832V120.139H426.421V124.689H425.653V123.803L425.78 123.879C425.673 124.166 425.49 124.391 425.231 124.554C424.978 124.712 424.685 124.791 424.353 124.791ZM427.638 124.689V118.299H428.423V124.689H427.638ZM429.886 126.546C429.784 126.546 429.683 126.538 429.582 126.521C429.48 126.51 429.385 126.484 429.295 126.445V125.744C429.357 125.75 429.433 125.761 429.523 125.778C429.618 125.795 429.711 125.804 429.801 125.804C430.066 125.804 430.266 125.744 430.401 125.626C430.541 125.508 430.674 125.308 430.797 125.027L431.084 124.343L431.068 125.027L429.126 120.139H429.979L431.49 124.022H431.236L432.739 120.139H433.608L431.557 125.229C431.461 125.471 431.338 125.694 431.186 125.896C431.039 126.099 430.859 126.257 430.645 126.369C430.432 126.487 430.178 126.546 429.886 126.546ZM435.614 124.689V124.115L437.353 122.233C437.696 121.867 437.969 121.566 438.172 121.329C438.38 121.093 438.532 120.882 438.628 120.696C438.723 120.511 438.771 120.314 438.771 120.105C438.771 119.762 438.67 119.498 438.467 119.312C438.265 119.126 437.997 119.033 437.665 119.033C437.328 119.033 437.041 119.132 436.804 119.329C436.568 119.52 436.405 119.793 436.315 120.148L435.563 119.953C435.637 119.616 435.772 119.323 435.969 119.076C436.166 118.828 436.41 118.637 436.703 118.501C436.996 118.366 437.316 118.299 437.665 118.299C438.048 118.299 438.383 118.375 438.67 118.527C438.963 118.673 439.191 118.879 439.354 119.143C439.523 119.408 439.607 119.714 439.607 120.063C439.607 120.294 439.559 120.519 439.463 120.739C439.368 120.958 439.227 121.192 439.041 121.439C438.856 121.681 438.614 121.963 438.315 122.283L436.762 123.972H439.742V124.689H435.614ZM443.276 124.791C442.775 124.791 442.336 124.655 441.959 124.385C441.588 124.11 441.298 123.73 441.09 123.246C440.881 122.756 440.777 122.188 440.777 121.54C440.777 120.893 440.881 120.328 441.09 119.844C441.298 119.354 441.588 118.974 441.959 118.704C442.331 118.434 442.767 118.299 443.268 118.299C443.768 118.299 444.205 118.434 444.576 118.704C444.947 118.974 445.237 119.354 445.445 119.844C445.659 120.328 445.766 120.893 445.766 121.54C445.766 122.188 445.662 122.756 445.454 123.246C445.246 123.735 444.953 124.115 444.576 124.385C444.205 124.655 443.771 124.791 443.276 124.791ZM443.276 124.022C443.614 124.022 443.906 123.921 444.154 123.718C444.402 123.51 444.593 123.22 444.728 122.849C444.869 122.477 444.939 122.041 444.939 121.54C444.939 121.04 444.869 120.603 444.728 120.232C444.593 119.861 444.399 119.574 444.145 119.371C443.898 119.168 443.605 119.067 443.268 119.067C442.93 119.067 442.637 119.168 442.39 119.371C442.142 119.574 441.948 119.861 441.807 120.232C441.672 120.603 441.605 121.04 441.605 121.54C441.605 122.036 441.672 122.469 441.807 122.84C441.948 123.212 442.142 123.502 442.39 123.71C442.643 123.918 442.938 124.022 443.276 124.022ZM446.776 124.689V124.115L448.515 122.233C448.858 121.867 449.131 121.566 449.334 121.329C449.542 121.093 449.694 120.882 449.79 120.696C449.885 120.511 449.933 120.314 449.933 120.105C449.933 119.762 449.832 119.498 449.629 119.312C449.427 119.126 449.16 119.033 448.827 119.033C448.49 119.033 448.203 119.132 447.966 119.329C447.73 119.52 447.567 119.793 447.477 120.148L446.726 119.953C446.799 119.616 446.934 119.323 447.131 119.076C447.328 118.828 447.572 118.637 447.865 118.501C448.158 118.366 448.479 118.299 448.827 118.299C449.21 118.299 449.545 118.375 449.832 118.527C450.125 118.673 450.353 118.879 450.516 119.143C450.685 119.408 450.769 119.714 450.769 120.063C450.769 120.294 450.721 120.519 450.626 120.739C450.53 120.958 450.389 121.192 450.203 121.439C450.018 121.681 449.776 121.963 449.477 122.283L447.924 123.972H450.904V124.689H446.776ZM452.876 124.689V119.118H451.686V118.4H453.712V124.689H452.876Z" fill="#71717A"/>
</g>
</g>
<g filter="url(#filter3_d_774_17413)">
<rect x="272.113" y="228.005" width="308.209" height="98.757" rx="10.8524" fill="white" shape-rendering="crispEdges"/>
<path d="M293.001 257.993V250.174H290.59V249.1H296.558V250.174H294.183V257.993H293.001ZM302.66 258.137C302.031 258.137 301.442 258.025 300.893 257.802C300.344 257.571 299.862 257.249 299.448 256.835C299.043 256.421 298.724 255.936 298.493 255.379C298.263 254.814 298.147 254.201 298.147 253.541C298.147 252.872 298.263 252.259 298.493 251.702C298.724 251.145 299.043 250.66 299.448 250.246C299.862 249.832 300.34 249.514 300.881 249.291C301.43 249.068 302.023 248.956 302.66 248.956C303.296 248.956 303.885 249.072 304.426 249.303C304.976 249.526 305.453 249.844 305.859 250.258C306.273 250.664 306.595 251.145 306.826 251.702C307.065 252.259 307.184 252.872 307.184 253.541C307.184 254.201 307.065 254.814 306.826 255.379C306.595 255.936 306.273 256.421 305.859 256.835C305.453 257.249 304.976 257.571 304.426 257.802C303.885 258.025 303.296 258.137 302.66 258.137ZM302.66 257.05C303.153 257.05 303.603 256.963 304.009 256.788C304.415 256.605 304.765 256.354 305.059 256.036C305.362 255.709 305.592 255.335 305.752 254.913C305.919 254.484 306.002 254.026 306.002 253.541C306.002 253.055 305.919 252.601 305.752 252.18C305.592 251.758 305.362 251.388 305.059 251.069C304.765 250.743 304.415 250.492 304.009 250.317C303.603 250.134 303.153 250.043 302.66 250.043C302.174 250.043 301.729 250.134 301.323 250.317C300.917 250.492 300.563 250.743 300.26 251.069C299.966 251.388 299.735 251.758 299.568 252.18C299.401 252.601 299.317 253.055 299.317 253.541C299.317 254.026 299.401 254.484 299.568 254.913C299.735 255.335 299.966 255.709 300.26 256.036C300.563 256.354 300.917 256.605 301.323 256.788C301.729 256.963 302.174 257.05 302.66 257.05ZM311.166 257.993V250.174H308.755V249.1H314.723V250.174H312.348V257.993H311.166ZM315.482 257.993L318.67 249.1H320.054L323.242 257.993H321.988L321.26 255.904H317.464L316.736 257.993H315.482ZM317.834 254.83H320.89L319.195 249.947H319.529L317.834 254.83ZM325.448 257.993V249.1H326.618V256.919H330.521V257.993H325.448ZM336.07 257.993V249.1H337.24V257.993H336.07ZM340.303 257.993V249.1H341.282L346.391 256.286L345.949 256.334V249.1H347.131V257.993H346.152L341.067 250.759L341.473 250.711V257.993H340.303ZM352.553 257.993L349.342 249.1H350.596L353.317 256.919H353.067L355.788 249.1H357.042L353.843 257.993H352.553ZM359.249 257.993V249.1H365.039V250.174H360.419V252.991H364.8V254.066H360.419V256.919H365.039V257.993H359.249ZM370.63 258.137C370.065 258.137 369.548 258.033 369.078 257.826C368.609 257.611 368.211 257.321 367.884 256.955C367.558 256.589 367.323 256.179 367.18 255.725L368.195 255.307C368.41 255.88 368.728 256.322 369.15 256.632C369.579 256.935 370.081 257.086 370.654 257.086C371.004 257.086 371.31 257.03 371.573 256.919C371.836 256.807 372.039 256.652 372.182 256.453C372.333 256.246 372.409 256.008 372.409 255.737C372.409 255.363 372.301 255.069 372.086 254.854C371.879 254.631 371.573 254.464 371.167 254.352L369.532 253.851C368.887 253.652 368.394 253.338 368.051 252.908C367.709 252.478 367.538 251.985 367.538 251.428C367.538 250.942 367.654 250.516 367.884 250.15C368.123 249.776 368.449 249.486 368.863 249.279C369.285 249.064 369.762 248.956 370.296 248.956C370.829 248.956 371.31 249.052 371.74 249.243C372.178 249.434 372.548 249.693 372.85 250.019C373.153 250.337 373.376 250.703 373.519 251.117L372.516 251.535C372.325 251.034 372.039 250.656 371.657 250.401C371.275 250.138 370.825 250.007 370.308 250.007C369.989 250.007 369.707 250.063 369.46 250.174C369.221 250.278 369.034 250.433 368.899 250.64C368.772 250.839 368.708 251.077 368.708 251.356C368.708 251.682 368.811 251.973 369.018 252.227C369.225 252.482 369.54 252.677 369.961 252.812L371.454 253.254C372.154 253.469 372.683 253.775 373.041 254.173C373.399 254.571 373.579 255.065 373.579 255.654C373.579 256.139 373.451 256.569 373.197 256.943C372.95 257.317 372.604 257.611 372.158 257.826C371.72 258.033 371.211 258.137 370.63 258.137ZM377.929 257.993V250.174H375.517V249.1H381.486V250.174H379.11V257.993H377.929ZM383.699 257.993V249.1H384.773L388.104 253.839H387.555L390.861 249.1H391.936V257.993H390.754V250.58L391.172 250.711L387.865 255.367H387.77L384.499 250.711L384.869 250.58V257.993H383.699ZM394.996 257.993V249.1H400.786V250.174H396.166V252.991H400.547V254.066H396.166V256.919H400.786V257.993H394.996ZM403.321 257.993V249.1H404.3L409.409 256.286L408.968 256.334V249.1H410.15V257.993H409.171L404.085 250.759L404.491 250.711V257.993H403.321ZM414.772 257.993V250.174H412.36V249.1H418.329V250.174H415.954V257.993H414.772Z" fill="#71717A"/>
<path d="M298.161 302.204C297.082 302.204 296.08 302.007 295.153 301.612C294.241 301.217 293.451 300.67 292.783 299.971C292.129 299.257 291.651 298.429 291.347 297.487L293.922 296.37C294.332 297.343 294.925 298.11 295.7 298.672C296.475 299.219 297.348 299.492 298.321 299.492C298.868 299.492 299.339 299.409 299.734 299.242C300.144 299.059 300.455 298.816 300.668 298.512C300.896 298.209 301.01 297.844 301.01 297.418C301.01 296.917 300.858 296.507 300.554 296.188C300.265 295.854 299.825 295.595 299.232 295.413L295.973 294.365C294.651 293.954 293.656 293.339 292.988 292.519C292.319 291.698 291.985 290.733 291.985 289.624C291.985 288.652 292.22 287.793 292.691 287.049C293.178 286.305 293.846 285.727 294.697 285.317C295.563 284.892 296.551 284.679 297.66 284.679C298.678 284.679 299.612 284.861 300.463 285.226C301.314 285.575 302.043 286.069 302.651 286.707C303.274 287.33 303.737 288.067 304.041 288.918L301.488 290.057C301.154 289.206 300.653 288.553 299.984 288.097C299.316 287.626 298.541 287.391 297.66 287.391C297.143 287.391 296.687 287.482 296.292 287.664C295.897 287.831 295.586 288.075 295.358 288.394C295.145 288.697 295.039 289.062 295.039 289.488C295.039 289.959 295.191 290.376 295.495 290.741C295.798 291.09 296.262 291.364 296.885 291.561L300.007 292.541C301.359 292.982 302.37 293.59 303.038 294.365C303.722 295.139 304.064 296.097 304.064 297.236C304.064 298.209 303.813 299.067 303.312 299.811C302.81 300.556 302.119 301.141 301.238 301.566C300.356 301.992 299.331 302.204 298.161 302.204ZM297.067 304.21V282.673H299.004V304.21H297.067ZM311.891 302.204C310.964 302.204 310.083 302.037 309.248 301.703C308.427 301.354 307.721 300.867 307.128 300.244C306.551 299.606 306.156 298.854 305.943 297.988L308.655 297.031C308.928 297.806 309.346 298.398 309.908 298.809C310.471 299.204 311.132 299.401 311.891 299.401C312.499 299.401 313.023 299.287 313.464 299.059C313.92 298.831 314.277 298.505 314.535 298.079C314.793 297.639 314.922 297.122 314.922 296.53C314.922 295.937 314.793 295.436 314.535 295.026C314.292 294.6 313.942 294.273 313.486 294.046C313.031 293.818 312.491 293.704 311.868 293.704C311.58 293.704 311.276 293.734 310.957 293.795C310.653 293.856 310.379 293.947 310.136 294.068L309.43 292.587L313.828 287.573H306.9V284.952H317.315V287.391L312.894 292.564L312.94 291.402C313.957 291.417 314.846 291.637 315.606 292.063C316.366 292.488 316.958 293.073 317.384 293.818C317.809 294.562 318.022 295.436 318.022 296.438C318.022 297.532 317.756 298.52 317.224 299.401C316.692 300.267 315.963 300.951 315.036 301.452C314.109 301.954 313.061 302.204 311.891 302.204ZM325.823 302.204C324.897 302.204 324.015 302.037 323.18 301.703C322.359 301.354 321.653 300.867 321.06 300.244C320.483 299.606 320.088 298.854 319.875 297.988L322.587 297.031C322.861 297.806 323.279 298.398 323.841 298.809C324.403 299.204 325.064 299.401 325.823 299.401C326.431 299.401 326.955 299.287 327.396 299.059C327.852 298.831 328.209 298.505 328.467 298.079C328.725 297.639 328.854 297.122 328.854 296.53C328.854 295.937 328.725 295.436 328.467 295.026C328.224 294.6 327.875 294.273 327.419 294.046C326.963 293.818 326.424 293.704 325.801 293.704C325.512 293.704 325.208 293.734 324.889 293.795C324.585 293.856 324.312 293.947 324.069 294.068L323.362 292.587L327.761 287.573H320.832V284.952H331.247V287.391L326.826 292.564L326.872 291.402C327.89 291.417 328.779 291.637 329.538 292.063C330.298 292.488 330.89 293.073 331.316 293.818C331.741 294.562 331.954 295.436 331.954 296.438C331.954 297.532 331.688 298.52 331.156 299.401C330.625 300.267 329.895 300.951 328.968 301.452C328.042 301.954 326.993 302.204 325.823 302.204ZM335.425 305.486V304.005C335.927 303.883 336.33 303.648 336.633 303.298C336.952 302.964 337.15 302.508 337.226 301.931H335.881V298.74H338.89V300.7C338.89 302.037 338.593 303.108 338.001 303.914C337.423 304.719 336.565 305.243 335.425 305.486ZM349.838 301.931V298.193H342.044V295.595L349.656 284.952H352.892V295.595H355.376V298.193H352.892V301.931H349.838ZM344.323 296.712L343.776 295.595H349.838V287.391L350.636 287.642L344.323 296.712ZM358.278 301.931L364.043 294.501L364.568 295.048C364.34 295.215 364.119 295.352 363.907 295.459C363.694 295.565 363.466 295.641 363.223 295.686C362.98 295.732 362.722 295.755 362.448 295.755C361.415 295.755 360.496 295.519 359.691 295.048C358.885 294.577 358.247 293.939 357.776 293.134C357.32 292.313 357.092 291.387 357.092 290.354C357.092 289.26 357.343 288.287 357.845 287.436C358.361 286.586 359.06 285.917 359.941 285.431C360.838 284.93 361.856 284.679 362.995 284.679C364.15 284.679 365.168 284.922 366.049 285.408C366.93 285.894 367.621 286.563 368.123 287.414C368.639 288.249 368.898 289.214 368.898 290.308C368.898 290.855 368.837 291.402 368.715 291.949C368.594 292.496 368.374 293.081 368.054 293.704C367.751 294.311 367.31 295.003 366.733 295.778L361.992 301.931H358.278ZM362.995 293.157C363.527 293.157 363.998 293.043 364.408 292.815C364.833 292.572 365.168 292.238 365.411 291.812C365.654 291.372 365.775 290.878 365.775 290.331C365.775 289.753 365.646 289.252 365.388 288.827C365.145 288.401 364.818 288.067 364.408 287.824C363.998 287.581 363.527 287.459 362.995 287.459C362.479 287.459 362.008 287.581 361.582 287.824C361.157 288.067 360.815 288.401 360.557 288.827C360.313 289.252 360.192 289.753 360.192 290.331C360.192 290.878 360.313 291.372 360.557 291.812C360.815 292.238 361.157 292.572 361.582 292.815C362.008 293.043 362.479 293.157 362.995 293.157ZM376.522 302.204C375.596 302.204 374.714 302.037 373.879 301.703C373.058 301.354 372.352 300.867 371.759 300.244C371.182 299.606 370.787 298.854 370.574 297.988L373.286 297.031C373.56 297.806 373.978 298.398 374.54 298.809C375.102 299.204 375.763 299.401 376.522 299.401C377.13 299.401 377.654 299.287 378.095 299.059C378.551 298.831 378.908 298.505 379.166 298.079C379.424 297.639 379.553 297.122 379.553 296.53C379.553 295.937 379.424 295.436 379.166 295.026C378.923 294.6 378.574 294.273 378.118 294.046C377.662 293.818 377.123 293.704 376.5 293.704C376.211 293.704 375.907 293.734 375.588 293.795C375.284 293.856 375.011 293.947 374.768 294.068L374.061 292.587L378.46 287.573H371.531V284.952H381.946V287.391L377.525 292.564L377.571 291.402C378.589 291.417 379.478 291.637 380.237 292.063C380.997 292.488 381.589 293.073 382.015 293.818C382.44 294.562 382.653 295.436 382.653 296.438C382.653 297.532 382.387 298.52 381.855 299.401C381.324 300.267 380.594 300.951 379.667 301.452C378.741 301.954 377.692 302.204 376.522 302.204Z" fill="#18181B"/>
<path d="M506.905 303.931V301.011H503.985V299.783H506.905V296.877H508.133V299.783H511.039V301.011H508.133V303.931H506.905ZM518.5 304.1C517.946 304.1 517.428 304.001 516.949 303.804C516.469 303.606 516.055 303.329 515.707 302.972C515.359 302.605 515.1 302.172 514.931 301.674L516.102 301.194C516.3 301.721 516.61 302.13 517.033 302.421C517.456 302.713 517.946 302.859 518.5 302.859C518.933 302.859 519.319 302.774 519.657 302.605C519.996 302.435 520.259 302.191 520.447 301.871C520.645 301.551 520.744 301.166 520.744 300.714C520.744 300.253 520.645 299.868 520.447 299.557C520.259 299.238 519.996 298.993 519.657 298.824C519.319 298.654 518.928 298.57 518.486 298.57C518.345 298.57 518.19 298.579 518.021 298.598C517.861 298.617 517.724 298.645 517.612 298.683L517.315 298.048L520.123 294.62H515.467V293.42H521.689V294.577L519.008 297.879L518.924 297.512C519.554 297.531 520.109 297.676 520.588 297.949C521.068 298.222 521.444 298.593 521.717 299.064C521.99 299.524 522.126 300.065 522.126 300.686C522.126 301.326 521.971 301.904 521.661 302.421C521.35 302.939 520.922 303.348 520.377 303.649C519.831 303.95 519.206 304.1 518.5 304.1ZM527.21 304.1C526.533 304.1 525.931 303.95 525.404 303.649C524.887 303.348 524.478 302.939 524.177 302.421C523.876 301.895 523.725 301.297 523.725 300.63C523.725 300.263 523.768 299.901 523.852 299.543C523.937 299.186 524.073 298.824 524.262 298.457C524.45 298.09 524.689 297.709 524.981 297.314L527.944 293.42H529.608L525.983 298.132L525.729 298.104C525.87 297.916 526.025 297.77 526.194 297.667C526.373 297.563 526.561 297.488 526.759 297.441C526.966 297.394 527.182 297.371 527.408 297.371C528.028 297.371 528.583 297.516 529.072 297.808C529.571 298.09 529.961 298.48 530.243 298.979C530.535 299.477 530.681 300.051 530.681 300.7C530.681 301.349 530.53 301.932 530.229 302.45C529.928 302.957 529.514 303.362 528.988 303.663C528.47 303.954 527.878 304.1 527.21 304.1ZM527.21 302.859C527.605 302.859 527.958 302.769 528.268 302.591C528.579 302.403 528.823 302.144 529.002 301.815C529.19 301.485 529.284 301.119 529.284 300.714C529.284 300.291 529.195 299.924 529.016 299.614C528.837 299.294 528.593 299.04 528.282 298.852C527.972 298.664 527.615 298.57 527.21 298.57C526.815 298.57 526.458 298.664 526.138 298.852C525.818 299.04 525.569 299.294 525.39 299.614C525.211 299.924 525.122 300.291 525.122 300.714C525.122 301.119 525.211 301.485 525.39 301.815C525.578 302.144 525.828 302.403 526.138 302.591C526.458 302.769 526.815 302.859 527.21 302.859ZM533.427 303.931L542.004 293.42H543.57L534.993 303.931H533.427ZM535.007 298.753C534.489 298.753 534.024 298.631 533.61 298.386C533.196 298.132 532.862 297.799 532.608 297.385C532.364 296.971 532.242 296.51 532.242 296.002C532.242 295.494 532.364 295.033 532.608 294.62C532.862 294.196 533.196 293.862 533.61 293.618C534.024 293.373 534.489 293.251 535.007 293.251C535.515 293.251 535.975 293.373 536.389 293.618C536.803 293.862 537.132 294.196 537.377 294.62C537.621 295.033 537.744 295.494 537.744 296.002C537.744 296.51 537.621 296.971 537.377 297.385C537.132 297.799 536.803 298.132 536.389 298.386C535.975 298.631 535.515 298.753 535.007 298.753ZM534.993 297.596C535.312 297.596 535.585 297.521 535.811 297.371C536.037 297.22 536.215 297.023 536.347 296.778C536.479 296.534 536.545 296.275 536.545 296.002C536.545 295.72 536.479 295.461 536.347 295.226C536.215 294.982 536.037 294.784 535.811 294.634C535.585 294.474 535.312 294.394 534.993 294.394C534.692 294.394 534.424 294.474 534.188 294.634C533.953 294.784 533.77 294.982 533.638 295.226C533.507 295.471 533.441 295.729 533.441 296.002C533.441 296.265 533.507 296.524 533.638 296.778C533.77 297.023 533.953 297.22 534.188 297.371C534.424 297.521 534.692 297.596 534.993 297.596ZM541.906 304.1C541.388 304.1 540.923 303.978 540.509 303.733C540.095 303.479 539.761 303.146 539.507 302.732C539.263 302.318 539.14 301.857 539.14 301.349C539.14 300.841 539.263 300.38 539.507 299.967C539.761 299.543 540.095 299.209 540.509 298.965C540.923 298.72 541.388 298.598 541.906 298.598C542.414 298.598 542.874 298.72 543.288 298.965C543.702 299.209 544.031 299.543 544.276 299.967C544.52 300.38 544.643 300.841 544.643 301.349C544.643 301.857 544.52 302.318 544.276 302.732C544.031 303.146 543.702 303.479 543.288 303.733C542.874 303.978 542.414 304.1 541.906 304.1ZM541.906 302.943C542.216 302.943 542.484 302.868 542.71 302.718C542.945 302.567 543.124 302.37 543.246 302.125C543.378 301.881 543.443 301.622 543.443 301.349C543.443 301.067 543.378 300.808 543.246 300.573C543.124 300.329 542.945 300.131 542.71 299.981C542.484 299.821 542.216 299.741 541.906 299.741C541.605 299.741 541.332 299.821 541.087 299.981C540.852 300.131 540.669 300.329 540.537 300.573C540.405 300.818 540.34 301.076 540.34 301.349C540.34 301.612 540.405 301.871 540.537 302.125C540.669 302.37 540.852 302.567 541.087 302.718C541.332 302.868 541.605 302.943 541.906 302.943Z" fill="#22C55E"/>
<g clip-path="url(#clip1_774_17413)">
<path d="M552.092 297.526L555.257 294.361M555.257 294.361L558.423 297.526M555.257 294.361V302.5" stroke="#22C55E" stroke-width="1.30229" stroke-linecap="round" stroke-linejoin="round"/>
</g>
</g>
<defs>
<filter id="filter0_d_774_17413" x="79.3327" y="37.2977" width="444.167" height="337.167" filterUnits="userSpaceOnUse" color-interpolation-filters="sRGB">
<feFlood flood-opacity="0" result="BackgroundImageFix"/>
<feColorMatrix in="SourceAlpha" type="matrix" values="0 0 0 0 0 0 0 0 0 0 0 0 0 0 0 0 0 0 127 0" result="hardAlpha"/>
<feOffset dx="-17.1673" dy="17.1673"/>
<feComposite in2="hardAlpha" operator="out"/>
<feColorMatrix type="matrix" values="0 0 0 0 0.25098 0 0 0 0 0.482353 0 0 0 0 1 0 0 0 0.1 0"/>
<feBlend mode="normal" in2="BackgroundImageFix" result="effect1_dropShadow_774_17413"/>
<feBlend mode="normal" in="SourceGraphic" in2="effect1_dropShadow_774_17413" result="shape"/>
</filter>
<filter id="filter1_bd_774_17413" x="193.93" y="127.357" width="125.674" height="103.417" filterUnits="userSpaceOnUse" color-interpolation-filters="sRGB">
<feFlood flood-opacity="0" result="BackgroundImageFix"/>
<feGaussianBlur in="BackgroundImageFix" stdDeviation="1.05521"/>
<feComposite in2="SourceAlpha" operator="in" result="effect1_backgroundBlur_774_17413"/>
<feColorMatrix in="SourceAlpha" type="matrix" values="0 0 0 0 0 0 0 0 0 0 0 0 0 0 0 0 0 0 127 0" result="hardAlpha"/>
<feMorphology radius="4.92429" operator="erode" in="SourceAlpha" result="effect2_dropShadow_774_17413"/>
<feOffset dy="30.9527"/>
<feGaussianBlur stdDeviation="15.4764"/>
<feComposite in2="hardAlpha" operator="out"/>
<feColorMatrix type="matrix" values="0 0 0 0 0 0 0 0 0 0 0 0 0 0 0 0 0 0 0.08 0"/>
<feBlend mode="normal" in2="effect1_backgroundBlur_774_17413" result="effect2_dropShadow_774_17413"/>
<feBlend mode="normal" in="SourceGraphic" in2="effect2_dropShadow_774_17413" result="shape"/>
</filter>
<filter id="filter2_bd_774_17413" x="373.388" y="106.95" width="125.674" height="103.417" filterUnits="userSpaceOnUse" color-interpolation-filters="sRGB">
<feFlood flood-opacity="0" result="BackgroundImageFix"/>
<feGaussianBlur in="BackgroundImageFix" stdDeviation="1.05521"/>
<feComposite in2="SourceAlpha" operator="in" result="effect1_backgroundBlur_774_17413"/>
<feColorMatrix in="SourceAlpha" type="matrix" values="0 0 0 0 0 0 0 0 0 0 0 0 0 0 0 0 0 0 127 0" result="hardAlpha"/>
<feMorphology radius="4.92429" operator="erode" in="SourceAlpha" result="effect2_dropShadow_774_17413"/>
<feOffset dy="30.9527"/>
<feGaussianBlur stdDeviation="15.4764"/>
<feComposite in2="hardAlpha" operator="out"/>
<feColorMatrix type="matrix" values="0 0 0 0 0 0 0 0 0 0 0 0 0 0 0 0 0 0 0.08 0"/>
<feBlend mode="normal" in2="effect1_backgroundBlur_774_17413" result="effect2_dropShadow_774_17413"/>
<feBlend mode="normal" in="SourceGraphic" in2="effect2_dropShadow_774_17413" result="shape"/>
</filter>
<filter id="filter3_d_774_17413" x="258.005" y="226.715" width="336.425" height="129.349" filterUnits="userSpaceOnUse" color-interpolation-filters="sRGB">
<feFlood flood-opacity="0" result="BackgroundImageFix"/>
<feColorMatrix in="SourceAlpha" type="matrix" values="0 0 0 0 0 0 0 0 0 0 0 0 0 0 0 0 0 0 127 0" result="hardAlpha"/>
<feOffset dy="15.1934"/>
<feGaussianBlur stdDeviation="7.05407"/>
<feComposite in2="hardAlpha" operator="out"/>
<feColorMatrix type="matrix" values="0 0 0 0 0 0 0 0 0 0 0 0 0 0 0 0 0 0 0.04 0"/>
<feBlend mode="normal" in2="BackgroundImageFix" result="effect1_dropShadow_774_17413"/>
<feBlend mode="normal" in="SourceGraphic" in2="effect1_dropShadow_774_17413" result="shape"/>
</filter>
<linearGradient id="paint0_linear_774_17413" x1="309.5" y1="-54.2023" x2="309.5" y2="309.298" gradientUnits="userSpaceOnUse">
<stop stop-color="#EEF3FD"/>
<stop offset="1" stop-color="white"/>
</linearGradient>
<clipPath id="clip0_774_17413">
<rect x="96.5" y="37.2977" width="427" height="320" rx="5.62777" fill="white"/>
</clipPath>
<clipPath id="clip1_774_17413">
<rect width="10.8524" height="10.8524" fill="white" transform="translate(549.831 293.005)"/>
</clipPath>
</defs>
</svg>
