<svg width="620" height="412" viewBox="0 0 620 412" fill="none" xmlns="http://www.w3.org/2000/svg">
<rect width="620" height="412" rx="16" fill="#F4F7FE"/>
<g filter="url(#filter0_d_774_17491)">
<rect x="97" y="74" width="425" height="286" rx="8" fill="url(#paint0_linear_774_17491)"/>
<rect x="117" y="94" width="385" height="18" rx="8" fill="#EEF3FD"/>
<rect x="117" y="132" width="385" height="18" rx="8" fill="#EEF3FD"/>
<rect x="117" y="170" width="385" height="18" rx="8" fill="#EEF3FD"/>
<rect x="117" y="208" width="385" height="18" rx="8" fill="#EEF3FD"/>
<rect x="117" y="246" width="385" height="18" rx="8" fill="#EEF3FD"/>
<rect x="117" y="284" width="385" height="18" rx="8" fill="#EEF3FD"/>
<rect x="117" y="322" width="183" height="18" rx="8" fill="#EEF3FD"/>
</g>
<g filter="url(#filter1_d_774_17491)">
<circle cx="512.5" cy="84.5" r="52.5" fill="white"/>
<path fill-rule="evenodd" clip-rule="evenodd" d="M505 72H523C523.552 72 524 72.4477 524 73V79C524 79.0093 524 79.0186 524 79.0279C523.963 79.0275 523.927 79.0273 523.89 79.0273H504C504 79.0183 504 79.0091 504 79V73C504 72.4477 504.448 72 505 72ZM501.026 79.46C501.009 79.3091 501 79.1556 501 79V73C501 70.7909 502.791 69 505 69H523C525.209 69 527 70.7909 527 73V79C527 79.169 526.99 79.3356 526.969 79.4991C530.95 80.8061 533.853 84.5527 533.853 88.9907V92.9719C533.853 93.3803 533.833 93.7886 533.812 94.1765C533.425 101.322 529.443 104.916 521.889 104.916H505.964C505.454 104.916 504.984 104.875 504.515 104.814C498.022 104.385 494.551 100.914 494.102 94.4215C494.041 93.9315 494 93.4619 494 92.9719V88.9907C494 84.8869 496.491 81.3548 500.043 79.8236C500.365 79.6841 500.693 79.5629 501.026 79.46Z" fill="#3E7AFD"/>
<path fill-rule="evenodd" clip-rule="evenodd" d="M502 72H520C520.552 72 521 72.4477 521 73V79C521 79.0093 521 79.0186 521 79.0279C520.963 79.0275 520.927 79.0273 520.89 79.0273H501C501 79.0183 501 79.0091 501 79V73C501 72.4477 501.448 72 502 72ZM498.026 79.46C498.009 79.3091 498 79.1556 498 79V73C498 70.7909 499.791 69 502 69H520C522.209 69 524 70.7909 524 73V79C524 79.169 523.99 79.3356 523.969 79.4991C527.95 80.8061 530.853 84.5527 530.853 88.9907V92.9719C530.853 93.3803 530.833 93.7886 530.812 94.1765C530.425 101.322 526.443 104.916 518.889 104.916H502.964C502.454 104.916 501.984 104.875 501.515 104.814C495.022 104.385 491.551 100.914 491.102 94.4215C491.041 93.9315 491 93.4619 491 92.9719V88.9907C491 84.8869 493.491 81.3548 497.043 79.8236C497.365 79.6841 497.693 79.5629 498.026 79.46ZM515.745 94.8298C515.745 92.6657 514.479 91.9715 513.54 91.6448L511.988 91.0936V87.6432H512.172C512.968 87.6432 513.622 88.3578 513.622 89.2153C513.622 89.8073 514.091 90.2769 514.683 90.2769C515.275 90.2769 515.745 89.8073 515.745 89.2153C515.745 87.1736 514.132 85.5198 512.172 85.5198H511.988V85.0707C511.988 84.4786 511.519 84.009 510.927 84.009C510.335 84.009 509.865 84.4786 509.865 85.0707V85.5198H509.355C507.558 85.5198 506.108 87.0103 506.108 88.8682C506.108 91.0323 507.374 91.7265 508.313 92.0532L509.865 92.6044V96.0548H509.681C508.885 96.0548 508.232 95.3403 508.232 94.4828C508.232 93.8907 507.762 93.4211 507.17 93.4211C506.578 93.4211 506.108 93.8907 506.108 94.4828C506.108 96.5244 507.721 98.1782 509.681 98.1782H509.865V98.6273C509.865 99.2194 510.335 99.689 510.927 99.689C511.519 99.689 511.988 99.2194 511.988 98.6273V98.1782H512.499C514.295 98.1782 515.745 96.6878 515.745 94.8298ZM507.804 88.8673C507.804 89.7248 508.049 89.8473 508.58 90.0514L509.438 90.3577V87.6423H508.927C508.294 87.6423 507.804 88.1935 507.804 88.8673ZM511.569 96.052H512.079C512.692 96.052 513.202 95.5008 513.202 94.827C513.202 93.9695 512.957 93.847 512.426 93.6429L511.569 93.3366V96.052Z" fill="#EBF5FF"/>
</g>
<g filter="url(#filter2_d_774_17491)">
<circle cx="96.5" cy="221.5" r="52.5" fill="white"/>
<path d="M118.996 233.792V239.917H78.1626V233.792C78.1626 232.669 79.0813 231.75 80.2043 231.75H116.954C118.077 231.75 118.996 232.669 118.996 233.792Z" fill="#3E7AFD" stroke="#3E7AFD" stroke-width="3.0625" stroke-miterlimit="10" stroke-linecap="round" stroke-linejoin="round"/>
<path d="M88.3709 217.458H84.2876V231.75H88.3709V217.458Z" fill="#3E7AFD"/>
<path d="M96.5377 217.458H92.4543V231.75H96.5377V217.458Z" fill="#3E7AFD"/>
<path d="M104.704 217.458H100.621V231.75H104.704V217.458Z" fill="#3E7AFD"/>
<path d="M112.871 217.458H108.788V231.75H112.871V217.458Z" fill="#3E7AFD"/>
<path d="M121.038 241.448H76.1211C75.284 241.448 74.5898 240.754 74.5898 239.917C74.5898 239.08 75.284 238.385 76.1211 238.385H121.038C121.875 238.385 122.569 239.08 122.569 239.917C122.569 240.754 121.875 241.448 121.038 241.448Z" fill="#3E7AFD"/>
<path d="M117.71 206.739L99.3347 199.389C98.9263 199.226 98.2322 199.226 97.8238 199.389L79.4488 206.739C78.7343 207.025 78.1626 207.862 78.1626 208.638V215.416C78.1626 216.539 79.0813 217.458 80.2043 217.458H116.954C118.077 217.458 118.996 216.539 118.996 215.416V208.638C118.996 207.862 118.424 207.025 117.71 206.739ZM98.5793 212.354C96.8847 212.354 95.5168 210.986 95.5168 209.291C95.5168 207.597 96.8847 206.229 98.5793 206.229C100.274 206.229 101.642 207.597 101.642 209.291C101.642 210.986 100.274 212.354 98.5793 212.354Z" fill="#3E7AFD"/>
<path d="M114.92 233.792V239.917H74.0872V233.792C74.0872 232.669 75.0059 231.75 76.1288 231.75H112.879C114.002 231.75 114.92 232.669 114.92 233.792Z" fill="#EBF5FF" stroke="#EBF5FF" stroke-width="3.0625" stroke-miterlimit="10" stroke-linecap="round" stroke-linejoin="round"/>
<path d="M84.2955 217.458H80.2122V231.75H84.2955V217.458Z" fill="#EBF5FF"/>
<path d="M92.4622 217.458H88.3789V231.75H92.4622V217.458Z" fill="#EBF5FF"/>
<path d="M100.629 217.458H96.5457V231.75H100.629V217.458Z" fill="#EBF5FF"/>
<path d="M108.795 217.458H104.712V231.75H108.795V217.458Z" fill="#EBF5FF"/>
<path d="M116.962 241.448H72.0457C71.2086 241.448 70.5144 240.754 70.5144 239.917C70.5144 239.08 71.2086 238.385 72.0457 238.385H116.962C117.799 238.385 118.494 239.08 118.494 239.917C118.494 240.754 117.799 241.448 116.962 241.448Z" fill="#EBF5FF"/>
<path d="M113.634 206.739L95.2592 199.389C94.8509 199.226 94.1567 199.226 93.7484 199.389L75.3734 206.739C74.6588 207.025 74.0872 207.862 74.0872 208.638V215.416C74.0872 216.539 75.0059 217.458 76.1288 217.458H112.879C114.002 217.458 114.92 216.539 114.92 215.416V208.638C114.92 207.862 114.349 207.025 113.634 206.739ZM94.5038 212.354C92.8092 212.354 91.4413 210.986 91.4413 209.291C91.4413 207.597 92.8092 206.229 94.5038 206.229C96.1984 206.229 97.5663 207.597 97.5663 209.291C97.5663 210.986 96.1984 212.354 94.5038 212.354Z" fill="#EBF5FF"/>
</g>
<defs>
<filter id="filter0_d_774_17491" x="81" y="74" width="441" height="302" filterUnits="userSpaceOnUse" color-interpolation-filters="sRGB">
<feFlood flood-opacity="0" result="BackgroundImageFix"/>
<feColorMatrix in="SourceAlpha" type="matrix" values="0 0 0 0 0 0 0 0 0 0 0 0 0 0 0 0 0 0 127 0" result="hardAlpha"/>
<feOffset dx="-16" dy="16"/>
<feComposite in2="hardAlpha" operator="out"/>
<feColorMatrix type="matrix" values="0 0 0 0 0.25098 0 0 0 0 0.482353 0 0 0 0 1 0 0 0 0.1 0"/>
<feBlend mode="normal" in2="BackgroundImageFix" result="effect1_dropShadow_774_17491"/>
<feBlend mode="normal" in="SourceGraphic" in2="effect1_dropShadow_774_17491" result="shape"/>
</filter>
<filter id="filter1_d_774_17491" x="450.4" y="32" width="124.2" height="141.3" filterUnits="userSpaceOnUse" color-interpolation-filters="sRGB">
<feFlood flood-opacity="0" result="BackgroundImageFix"/>
<feColorMatrix in="SourceAlpha" type="matrix" values="0 0 0 0 0 0 0 0 0 0 0 0 0 0 0 0 0 0 127 0" result="hardAlpha"/>
<feOffset dy="26.7"/>
<feGaussianBlur stdDeviation="4.8"/>
<feColorMatrix type="matrix" values="0 0 0 0 0 0 0 0 0 0 0 0 0 0 0 0 0 0 0.05 0"/>
<feBlend mode="normal" in2="BackgroundImageFix" result="effect1_dropShadow_774_17491"/>
<feBlend mode="normal" in="SourceGraphic" in2="effect1_dropShadow_774_17491" result="shape"/>
</filter>
<filter id="filter2_d_774_17491" x="34.4" y="169" width="124.2" height="141.3" filterUnits="userSpaceOnUse" color-interpolation-filters="sRGB">
<feFlood flood-opacity="0" result="BackgroundImageFix"/>
<feColorMatrix in="SourceAlpha" type="matrix" values="0 0 0 0 0 0 0 0 0 0 0 0 0 0 0 0 0 0 127 0" result="hardAlpha"/>
<feOffset dy="26.7"/>
<feGaussianBlur stdDeviation="4.8"/>
<feColorMatrix type="matrix" values="0 0 0 0 0 0 0 0 0 0 0 0 0 0 0 0 0 0 0.05 0"/>
<feBlend mode="normal" in2="BackgroundImageFix" result="effect1_dropShadow_774_17491"/>
<feBlend mode="normal" in="SourceGraphic" in2="effect1_dropShadow_774_17491" result="shape"/>
</filter>
<linearGradient id="paint0_linear_774_17491" x1="310" y1="-177" x2="310" y2="406.5" gradientUnits="userSpaceOnUse">
<stop stop-color="#EEF3FD"/>
<stop offset="1" stop-color="white"/>
</linearGradient>
</defs>
</svg>
