<svg width="620" height="412" viewBox="0 0 620 412" fill="none" xmlns="http://www.w3.org/2000/svg">
<g clip-path="url(#clip0_774_17523)">
<rect width="620" height="412" rx="16" fill="#F4F7FE"/>
<g filter="url(#filter0_d_774_17523)">
<rect x="95" y="102" width="425" height="361" rx="16" fill="url(#paint0_linear_774_17523)"/>
<rect x="115" y="122" width="385" height="52" rx="4" fill="#3E7AFD"/>
<path d="M148.029 155.329V153.659L153.939 144.322H155.255V146.78H154.42L150.192 153.472V153.579H158.294V155.329H148.029ZM154.513 158V154.821L154.527 154.06V144.322H156.484V158H154.513ZM165.383 158.227C164.328 158.223 163.426 157.944 162.678 157.392C161.93 156.84 161.358 156.036 160.962 154.981C160.565 153.926 160.367 152.655 160.367 151.168C160.367 149.685 160.565 148.418 160.962 147.368C161.362 146.317 161.937 145.515 162.685 144.963C163.437 144.411 164.337 144.135 165.383 144.135C166.429 144.135 167.326 144.413 168.074 144.97C168.822 145.522 169.395 146.324 169.791 147.374C170.192 148.421 170.392 149.685 170.392 151.168C170.392 152.659 170.194 153.933 169.797 154.988C169.401 156.039 168.829 156.842 168.081 157.399C167.333 157.951 166.434 158.227 165.383 158.227ZM165.383 156.444C166.309 156.444 167.033 155.992 167.553 155.088C168.079 154.184 168.342 152.877 168.342 151.168C168.342 150.032 168.221 149.073 167.981 148.289C167.745 147.501 167.404 146.905 166.959 146.499C166.518 146.09 165.993 145.885 165.383 145.885C164.461 145.885 163.738 146.339 163.212 147.247C162.687 148.156 162.422 149.462 162.418 151.168C162.418 152.308 162.536 153.272 162.772 154.06C163.012 154.843 163.353 155.438 163.793 155.843C164.234 156.244 164.764 156.444 165.383 156.444ZM177.309 144.135C177.919 144.14 178.52 144.251 179.113 144.469C179.705 144.687 180.239 145.043 180.715 145.538C181.196 146.032 181.579 146.7 181.864 147.541C182.154 148.378 182.3 149.42 182.305 150.667C182.305 151.865 182.185 152.931 181.944 153.866C181.704 154.796 181.359 155.582 180.909 156.223C180.464 156.865 179.923 157.352 179.286 157.686C178.649 158.02 177.933 158.187 177.136 158.187C176.321 158.187 175.597 158.027 174.965 157.706C174.333 157.386 173.819 156.943 173.422 156.377C173.026 155.807 172.779 155.153 172.681 154.414H174.718C174.852 155.001 175.123 155.478 175.533 155.843C175.947 156.203 176.481 156.384 177.136 156.384C178.137 156.384 178.919 155.947 179.48 155.075C180.041 154.198 180.324 152.973 180.328 151.402H180.221C179.99 151.784 179.7 152.114 179.353 152.39C179.01 152.666 178.625 152.88 178.198 153.031C177.77 153.182 177.314 153.258 176.828 153.258C176.04 153.258 175.324 153.064 174.678 152.677C174.032 152.29 173.518 151.758 173.135 151.081C172.752 150.404 172.561 149.632 172.561 148.763C172.561 147.9 172.757 147.116 173.149 146.413C173.545 145.709 174.097 145.153 174.805 144.743C175.517 144.329 176.352 144.126 177.309 144.135ZM177.316 145.872C176.795 145.872 176.325 146.001 175.907 146.259C175.493 146.513 175.165 146.858 174.925 147.294C174.685 147.726 174.564 148.207 174.564 148.737C174.564 149.267 174.68 149.747 174.912 150.179C175.148 150.607 175.468 150.947 175.873 151.201C176.283 151.45 176.751 151.575 177.276 151.575C177.668 151.575 178.033 151.499 178.371 151.348C178.71 151.197 179.006 150.987 179.259 150.72C179.513 150.449 179.711 150.141 179.854 149.799C179.996 149.456 180.068 149.095 180.068 148.717C180.068 148.214 179.947 147.746 179.707 147.314C179.471 146.882 179.146 146.535 178.732 146.272C178.318 146.005 177.846 145.872 177.316 145.872ZM186.06 158H183.869L188.792 144.322H191.176L196.098 158H193.907L190.04 146.807H189.934L186.06 158ZM186.427 152.644H193.533V154.38H186.427V152.644ZM204.246 144.322L208.053 155.462H208.206L212.013 144.322H214.244L209.322 158H206.937L202.015 144.322H204.246ZM218.034 158.227C217.384 158.227 216.796 158.107 216.271 157.866C215.745 157.622 215.329 157.268 215.022 156.805C214.719 156.341 214.568 155.774 214.568 155.101C214.568 154.523 214.679 154.046 214.902 153.672C215.124 153.298 215.425 153.002 215.803 152.784C216.182 152.566 216.605 152.401 217.072 152.29C217.54 152.178 218.016 152.094 218.501 152.036C219.116 151.965 219.615 151.907 219.997 151.862C220.38 151.813 220.659 151.735 220.832 151.629C221.006 151.522 221.093 151.348 221.093 151.108V151.061C221.093 150.478 220.928 150.026 220.598 149.705C220.273 149.385 219.788 149.224 219.143 149.224C218.47 149.224 217.94 149.373 217.553 149.672C217.17 149.966 216.905 150.293 216.758 150.654L214.882 150.226C215.104 149.603 215.429 149.1 215.857 148.717C216.289 148.329 216.785 148.049 217.346 147.875C217.907 147.697 218.497 147.608 219.116 147.608C219.525 147.608 219.96 147.657 220.418 147.755C220.881 147.848 221.313 148.022 221.714 148.276C222.119 148.53 222.451 148.893 222.709 149.365C222.967 149.832 223.096 150.44 223.096 151.188V158H221.146V156.597H221.066C220.937 156.856 220.743 157.11 220.485 157.359C220.227 157.608 219.895 157.815 219.49 157.98C219.085 158.145 218.599 158.227 218.034 158.227ZM218.468 156.624C219.02 156.624 219.492 156.515 219.884 156.297C220.28 156.079 220.581 155.794 220.785 155.442C220.995 155.086 221.099 154.705 221.099 154.3V152.978C221.028 153.049 220.89 153.116 220.685 153.178C220.485 153.236 220.256 153.287 219.997 153.332C219.739 153.372 219.488 153.41 219.243 153.445C218.998 153.476 218.793 153.503 218.628 153.525C218.241 153.574 217.887 153.657 217.566 153.772C217.25 153.888 216.996 154.055 216.805 154.273C216.618 154.487 216.525 154.772 216.525 155.128C216.525 155.622 216.707 155.996 217.072 156.25C217.437 156.5 217.903 156.624 218.468 156.624ZM227.753 144.322V158H225.756V144.322H227.753ZM236.938 153.746V147.742H238.941V158H236.978V156.223H236.871C236.635 156.771 236.257 157.228 235.736 157.593C235.219 157.953 234.576 158.134 233.805 158.134C233.147 158.134 232.563 157.989 232.056 157.699C231.553 157.406 231.156 156.971 230.867 156.397C230.582 155.823 230.439 155.113 230.439 154.267V147.742H232.436V154.026C232.436 154.725 232.63 155.282 233.017 155.696C233.405 156.11 233.908 156.317 234.527 156.317C234.901 156.317 235.273 156.223 235.642 156.036C236.016 155.849 236.326 155.567 236.57 155.188C236.82 154.81 236.942 154.329 236.938 153.746ZM244.61 158.227C243.96 158.227 243.372 158.107 242.847 157.866C242.321 157.622 241.905 157.268 241.598 156.805C241.295 156.341 241.144 155.774 241.144 155.101C241.144 154.523 241.255 154.046 241.478 153.672C241.7 153.298 242.001 153.002 242.379 152.784C242.758 152.566 243.181 152.401 243.648 152.29C244.116 152.178 244.592 152.094 245.077 152.036C245.692 151.965 246.19 151.907 246.573 151.862C246.956 151.813 247.235 151.735 247.408 151.629C247.582 151.522 247.669 151.348 247.669 151.108V151.061C247.669 150.478 247.504 150.026 247.174 149.705C246.849 149.385 246.364 149.224 245.718 149.224C245.046 149.224 244.516 149.373 244.129 149.672C243.746 149.966 243.481 150.293 243.334 150.654L241.458 150.226C241.68 149.603 242.005 149.1 242.433 148.717C242.864 148.329 243.361 148.049 243.922 147.875C244.483 147.697 245.073 147.608 245.692 147.608C246.101 147.608 246.535 147.657 246.994 147.755C247.457 147.848 247.889 148.022 248.29 148.276C248.695 148.53 249.027 148.893 249.285 149.365C249.543 149.832 249.672 150.44 249.672 151.188V158H247.722V156.597H247.642C247.513 156.856 247.319 157.11 247.061 157.359C246.803 157.608 246.471 157.815 246.066 157.98C245.661 158.145 245.175 158.227 244.61 158.227ZM245.044 156.624C245.596 156.624 246.068 156.515 246.46 156.297C246.856 156.079 247.157 155.794 247.361 155.442C247.571 155.086 247.675 154.705 247.675 154.3V152.978C247.604 153.049 247.466 153.116 247.261 153.178C247.061 153.236 246.832 153.287 246.573 153.332C246.315 153.372 246.064 153.41 245.819 153.445C245.574 153.476 245.369 153.503 245.204 153.525C244.817 153.574 244.463 153.657 244.142 153.772C243.826 153.888 243.572 154.055 243.381 154.273C243.194 154.487 243.1 154.772 243.1 155.128C243.1 155.622 243.283 155.996 243.648 156.25C244.013 156.5 244.478 156.624 245.044 156.624ZM257.121 147.742V149.344H251.517V147.742H257.121ZM253.02 145.284H255.017V154.988C255.017 155.375 255.075 155.667 255.19 155.863C255.306 156.054 255.455 156.186 255.638 156.257C255.825 156.324 256.027 156.357 256.246 156.357C256.406 156.357 256.546 156.346 256.666 156.324C256.787 156.301 256.88 156.284 256.947 156.27L257.308 157.92C257.192 157.964 257.027 158.009 256.813 158.053C256.6 158.102 256.332 158.129 256.012 158.134C255.487 158.142 254.997 158.049 254.543 157.853C254.088 157.657 253.721 157.354 253.441 156.945C253.16 156.535 253.02 156.021 253.02 155.402V145.284ZM259.33 158V147.742H261.326V158H259.33ZM260.338 146.159C259.991 146.159 259.692 146.043 259.443 145.812C259.198 145.576 259.076 145.295 259.076 144.97C259.076 144.641 259.198 144.36 259.443 144.128C259.692 143.893 259.991 143.775 260.338 143.775C260.685 143.775 260.981 143.893 261.226 144.128C261.476 144.36 261.6 144.641 261.6 144.97C261.6 145.295 261.476 145.576 261.226 145.812C260.981 146.043 260.685 146.159 260.338 146.159ZM268.334 158.207C267.372 158.207 266.533 157.987 265.816 157.546C265.099 157.105 264.543 156.488 264.146 155.696C263.75 154.903 263.552 153.977 263.552 152.918C263.552 151.853 263.75 150.923 264.146 150.126C264.543 149.329 265.099 148.71 265.816 148.269C266.533 147.828 267.372 147.608 268.334 147.608C269.296 147.608 270.135 147.828 270.852 148.269C271.569 148.71 272.125 149.329 272.521 150.126C272.918 150.923 273.116 151.853 273.116 152.918C273.116 153.977 272.918 154.903 272.521 155.696C272.125 156.488 271.569 157.105 270.852 157.546C270.135 157.987 269.296 158.207 268.334 158.207ZM268.341 156.531C268.964 156.531 269.48 156.366 269.89 156.036C270.3 155.707 270.602 155.268 270.798 154.721C270.999 154.173 271.099 153.57 271.099 152.911C271.099 152.256 270.999 151.655 270.798 151.108C270.602 150.556 270.3 150.113 269.89 149.779C269.48 149.445 268.964 149.278 268.341 149.278C267.713 149.278 267.192 149.445 266.778 149.779C266.368 150.113 266.063 150.556 265.863 151.108C265.667 151.655 265.569 152.256 265.569 152.911C265.569 153.57 265.667 154.173 265.863 154.721C266.063 155.268 266.368 155.707 266.778 156.036C267.192 156.366 267.713 156.531 268.341 156.531ZM277.342 151.909V158H275.345V147.742H277.262V149.411H277.389C277.625 148.868 277.994 148.432 278.497 148.102C279.005 147.773 279.644 147.608 280.414 147.608C281.113 147.608 281.725 147.755 282.251 148.049C282.776 148.338 283.183 148.77 283.473 149.344C283.762 149.919 283.907 150.629 283.907 151.475V158H281.91V151.715C281.91 150.972 281.716 150.391 281.329 149.972C280.942 149.549 280.41 149.338 279.733 149.338C279.27 149.338 278.858 149.438 278.497 149.638C278.141 149.839 277.858 150.133 277.649 150.52C277.444 150.903 277.342 151.366 277.342 151.909ZM291.723 158V144.322H296.598C297.658 144.322 298.537 144.505 299.236 144.87C299.939 145.235 300.465 145.74 300.812 146.386C301.159 147.027 301.333 147.768 301.333 148.61C301.333 149.447 301.157 150.184 300.805 150.82C300.458 151.453 299.933 151.945 299.229 152.296C298.53 152.648 297.651 152.824 296.591 152.824H292.898V151.048H296.404C297.072 151.048 297.615 150.952 298.034 150.76C298.457 150.569 298.766 150.291 298.962 149.926C299.158 149.56 299.256 149.122 299.256 148.61C299.256 148.093 299.156 147.646 298.955 147.267C298.76 146.889 298.45 146.6 298.027 146.399C297.609 146.194 297.059 146.092 296.378 146.092H293.786V158H291.723ZM298.475 151.829L301.854 158H299.503L296.191 151.829H298.475ZM307.977 158.207C306.966 158.207 306.096 157.991 305.365 157.559C304.64 157.123 304.079 156.511 303.682 155.723C303.29 154.93 303.095 154.002 303.095 152.938C303.095 151.887 303.29 150.961 303.682 150.159C304.079 149.358 304.631 148.732 305.339 148.283C306.051 147.833 306.884 147.608 307.836 147.608C308.415 147.608 308.976 147.704 309.519 147.895C310.063 148.087 310.55 148.387 310.982 148.797C311.414 149.206 311.755 149.739 312.004 150.393C312.253 151.043 312.378 151.833 312.378 152.764V153.472H304.223V151.976H310.421C310.421 151.45 310.314 150.985 310.1 150.58C309.887 150.17 309.586 149.848 309.199 149.612C308.816 149.376 308.366 149.258 307.85 149.258C307.289 149.258 306.799 149.396 306.38 149.672C305.966 149.943 305.646 150.3 305.419 150.74C305.196 151.177 305.085 151.651 305.085 152.163V153.332C305.085 154.017 305.205 154.601 305.445 155.081C305.69 155.562 306.031 155.93 306.467 156.183C306.904 156.433 307.413 156.557 307.997 156.557C308.375 156.557 308.72 156.504 309.032 156.397C309.344 156.286 309.613 156.121 309.84 155.903C310.067 155.685 310.241 155.415 310.361 155.095L312.251 155.435C312.1 155.992 311.828 156.479 311.436 156.898C311.049 157.312 310.561 157.635 309.974 157.866C309.39 158.094 308.725 158.207 307.977 158.207ZM314.594 161.847V147.742H316.544V149.405H316.711C316.826 149.191 316.993 148.944 317.212 148.663C317.43 148.383 317.732 148.138 318.12 147.929C318.507 147.715 319.019 147.608 319.656 147.608C320.484 147.608 321.223 147.817 321.873 148.236C322.523 148.654 323.033 149.258 323.403 150.046C323.777 150.834 323.964 151.782 323.964 152.891C323.964 154 323.779 154.95 323.409 155.743C323.04 156.531 322.532 157.138 321.887 157.566C321.241 157.989 320.504 158.2 319.676 158.2C319.053 158.2 318.543 158.096 318.147 157.886C317.755 157.677 317.448 157.432 317.225 157.152C317.002 156.871 316.831 156.622 316.711 156.404H316.59V161.847H314.594ZM316.55 152.871C316.55 153.592 316.655 154.224 316.864 154.768C317.074 155.311 317.376 155.736 317.773 156.043C318.169 156.346 318.654 156.497 319.228 156.497C319.825 156.497 320.324 156.339 320.724 156.023C321.125 155.703 321.428 155.268 321.633 154.721C321.842 154.173 321.947 153.556 321.947 152.871C321.947 152.194 321.844 151.586 321.639 151.048C321.439 150.509 321.136 150.084 320.731 149.772C320.33 149.46 319.83 149.304 319.228 149.304C318.65 149.304 318.16 149.454 317.759 149.752C317.363 150.05 317.062 150.467 316.858 151.001C316.653 151.535 316.55 152.158 316.55 152.871ZM330.522 158.207C329.56 158.207 328.721 157.987 328.004 157.546C327.287 157.105 326.731 156.488 326.335 155.696C325.938 154.903 325.74 153.977 325.74 152.918C325.74 151.853 325.938 150.923 326.335 150.126C326.731 149.329 327.287 148.71 328.004 148.269C328.721 147.828 329.56 147.608 330.522 147.608C331.484 147.608 332.323 147.828 333.04 148.269C333.757 148.71 334.313 149.329 334.71 150.126C335.106 150.923 335.304 151.853 335.304 152.918C335.304 153.977 335.106 154.903 334.71 155.696C334.313 156.488 333.757 157.105 333.04 157.546C332.323 157.987 331.484 158.207 330.522 158.207ZM330.529 156.531C331.152 156.531 331.669 156.366 332.078 156.036C332.488 155.707 332.791 155.268 332.986 154.721C333.187 154.173 333.287 153.57 333.287 152.911C333.287 152.256 333.187 151.655 332.986 151.108C332.791 150.556 332.488 150.113 332.078 149.779C331.669 149.445 331.152 149.278 330.529 149.278C329.901 149.278 329.38 149.445 328.966 149.779C328.556 150.113 328.251 150.556 328.051 151.108C327.855 151.655 327.757 152.256 327.757 152.911C327.757 153.57 327.855 154.173 328.051 154.721C328.251 155.268 328.556 155.707 328.966 156.036C329.38 156.366 329.901 156.531 330.529 156.531ZM337.533 158V147.742H339.463V149.371H339.57C339.757 148.819 340.086 148.385 340.558 148.069C341.035 147.748 341.573 147.588 342.175 147.588C342.299 147.588 342.446 147.592 342.615 147.601C342.789 147.61 342.925 147.621 343.023 147.635V149.545C342.943 149.523 342.8 149.498 342.595 149.471C342.391 149.44 342.186 149.425 341.981 149.425C341.509 149.425 341.088 149.525 340.719 149.725C340.354 149.921 340.064 150.195 339.85 150.547C339.637 150.894 339.53 151.29 339.53 151.735V158H337.533ZM350.146 147.742V149.344H344.542V147.742H350.146ZM346.045 145.284H348.042V154.988C348.042 155.375 348.1 155.667 348.215 155.863C348.331 156.054 348.48 156.186 348.663 156.257C348.85 156.324 349.052 156.357 349.271 156.357C349.431 156.357 349.571 156.346 349.691 156.324C349.812 156.301 349.905 156.284 349.972 156.27L350.333 157.92C350.217 157.964 350.052 158.009 349.838 158.053C349.625 158.102 349.357 158.129 349.037 158.134C348.511 158.142 348.022 158.049 347.568 157.853C347.113 157.657 346.746 157.354 346.466 156.945C346.185 156.535 346.045 156.021 346.045 155.402V145.284Z" fill="white"/>
<rect x="115" y="197" width="385" height="18" rx="8" fill="#EEF3FD"/>
<rect x="115" y="235" width="385" height="18" rx="8" fill="#EEF3FD"/>
<rect x="115" y="273" width="385" height="18" rx="8" fill="#EEF3FD"/>
<rect x="115" y="311" width="385" height="18" rx="8" fill="#EEF3FD"/>
<rect x="115" y="349" width="385" height="18" rx="8" fill="#EEF3FD"/>
<rect x="115" y="387" width="385" height="18" rx="8" fill="#EEF3FD"/>
</g>
<g filter="url(#filter1_d_774_17523)">
<rect x="448" y="72" width="86.9876" height="76.4449" rx="10.1967" fill="white" shape-rendering="crispEdges"/>
<circle cx="491.494" cy="110.289" r="31.733" fill="#DBF1DA" fill-opacity="0.4"/>
<circle cx="491.729" cy="110.52" r="26.8" fill="#DBF1DA" fill-opacity="0.8"/>
<path d="M491.446 93.4934C495.888 93.4934 500.148 95.2579 503.289 98.3988C506.43 101.54 508.194 105.8 508.194 110.241C508.194 114.683 506.43 118.943 503.289 122.084C500.148 125.225 495.888 126.989 491.446 126.989C487.004 126.989 482.744 125.225 479.604 122.084C476.463 118.943 474.698 114.683 474.698 110.241C474.698 105.8 476.463 101.54 479.604 98.3988C482.744 95.2579 487.004 93.4934 491.446 93.4934ZM489.36 113.546L485.639 109.823C485.506 109.689 485.348 109.584 485.173 109.511C484.999 109.439 484.812 109.402 484.624 109.402C484.435 109.402 484.248 109.439 484.074 109.511C483.9 109.584 483.742 109.689 483.608 109.823C483.339 110.092 483.187 110.457 483.187 110.838C483.187 111.219 483.339 111.585 483.608 111.854L488.345 116.591C488.478 116.725 488.637 116.832 488.811 116.904C488.985 116.977 489.172 117.014 489.361 117.014C489.55 117.014 489.737 116.977 489.911 116.904C490.086 116.832 490.244 116.725 490.377 116.591L500.186 106.779C500.321 106.647 500.429 106.488 500.503 106.314C500.576 106.139 500.615 105.952 500.616 105.762C500.616 105.573 500.58 105.385 500.508 105.21C500.436 105.034 500.33 104.875 500.196 104.741C500.062 104.607 499.903 104.501 499.728 104.428C499.552 104.356 499.365 104.319 499.175 104.32C498.986 104.321 498.798 104.359 498.623 104.432C498.449 104.506 498.29 104.613 498.157 104.748L489.36 113.546Z" fill="#578B2E"/>
</g>
</g>
<defs>
<filter id="filter0_d_774_17523" x="79" y="102" width="441" height="361" filterUnits="userSpaceOnUse" color-interpolation-filters="sRGB">
<feFlood flood-opacity="0" result="BackgroundImageFix"/>
<feColorMatrix in="SourceAlpha" type="matrix" values="0 0 0 0 0 0 0 0 0 0 0 0 0 0 0 0 0 0 127 0" result="hardAlpha"/>
<feOffset dx="-16"/>
<feComposite in2="hardAlpha" operator="out"/>
<feColorMatrix type="matrix" values="0 0 0 0 0.25098 0 0 0 0 0.482353 0 0 0 0 1 0 0 0 0.1 0"/>
<feBlend mode="normal" in2="BackgroundImageFix" result="effect1_dropShadow_774_17523"/>
<feBlend mode="normal" in="SourceGraphic" in2="effect1_dropShadow_774_17523" result="shape"/>
</filter>
<filter id="filter1_d_774_17523" x="438.3" y="72" width="106.388" height="112.845" filterUnits="userSpaceOnUse" color-interpolation-filters="sRGB">
<feFlood flood-opacity="0" result="BackgroundImageFix"/>
<feColorMatrix in="SourceAlpha" type="matrix" values="0 0 0 0 0 0 0 0 0 0 0 0 0 0 0 0 0 0 127 0" result="hardAlpha"/>
<feOffset dy="26.7"/>
<feGaussianBlur stdDeviation="4.85"/>
<feComposite in2="hardAlpha" operator="out"/>
<feColorMatrix type="matrix" values="0 0 0 0 0 0 0 0 0 0 0 0 0 0 0 0 0 0 0.05 0"/>
<feBlend mode="normal" in2="BackgroundImageFix" result="effect1_dropShadow_774_17523"/>
<feBlend mode="normal" in="SourceGraphic" in2="effect1_dropShadow_774_17523" result="shape"/>
</filter>
<linearGradient id="paint0_linear_774_17523" x1="307" y1="-81" x2="307.5" y2="463" gradientUnits="userSpaceOnUse">
<stop stop-color="#EEF3FD"/>
<stop offset="0.668804" stop-color="white"/>
</linearGradient>
<clipPath id="clip0_774_17523">
<rect width="620" height="412" fill="white"/>
</clipPath>
</defs>
</svg>
